<?xml version="1.0" encoding="UTF-8" standalone="no"?>
<!-- Created with Inkscape (http://www.inkscape.org/) -->

<svg
   xmlns:dc="http://purl.org/dc/elements/1.1/"
   xmlns:cc="http://creativecommons.org/ns#"
   xmlns:rdf="http://www.w3.org/1999/02/22-rdf-syntax-ns#"
   xmlns:svg="http://www.w3.org/2000/svg"
   xmlns="http://www.w3.org/2000/svg"
   xmlns:sodipodi="http://sodipodi.sourceforge.net/DTD/sodipodi-0.dtd"
   xmlns:inkscape="http://www.inkscape.org/namespaces/inkscape"
   id="svg82249"
   sodipodi:version="0.32"
   inkscape:version="0.92.1 r15371"
   width="1200"
   height="1600"
   xml:space="preserve"
   sodipodi:docname="Metro_Lausanne_M2_2009_Trace.svg"
   version="1.0"
   style="display:inline"
   inkscape:output_extension="org.inkscape.output.svg.inkscape"><metadata
     id="metadata82254"><rdf:RDF><cc:Work
         rdf:about=""><dc:format>image/svg+xml</dc:format><dc:type
           rdf:resource="http://purl.org/dc/dcmitype/StillImage" /></cc:Work></rdf:RDF></metadata><defs
     id="defs82252"><clipPath
       clipPathUnits="userSpaceOnUse"
       id="clipPath11177"><path
         d="M 23.386,58.977 L 1196.929,58.977 L 1196.929,847.559 L 23.386,847.559 L 23.386,58.977 z"
         id="path11179" /></clipPath><inkscape:perspective
       sodipodi:type="inkscape:persp3d"
       inkscape:vp_x="0 : 526.18109 : 1"
       inkscape:vp_y="0 : 1000 : 0"
       inkscape:vp_z="744.09448 : 526.18109 : 1"
       inkscape:persp3d-origin="372.04724 : 350.78739 : 1"
       id="perspective82256" /><inkscape:perspective
       id="perspective82341"
       inkscape:persp3d-origin="372.04724 : 350.78739 : 1"
       inkscape:vp_z="744.09448 : 526.18109 : 1"
       inkscape:vp_y="0 : 1000 : 0"
       inkscape:vp_x="0 : 526.18109 : 1"
       sodipodi:type="inkscape:persp3d" /><inkscape:perspective
       id="perspective2965"
       inkscape:persp3d-origin="0.5 : 0.33333333 : 1"
       inkscape:vp_z="1 : 0.5 : 1"
       inkscape:vp_y="0 : 1000 : 0"
       inkscape:vp_x="0 : 0.5 : 1"
       sodipodi:type="inkscape:persp3d" /></defs><sodipodi:namedview
     inkscape:window-height="1017"
     inkscape:window-width="1920"
     inkscape:pageshadow="2"
     inkscape:pageopacity="0.0"
     guidetolerance="10.0"
     gridtolerance="10.0"
     objecttolerance="10.0"
     borderopacity="1.0"
     bordercolor="#666666"
     pagecolor="#ffffff"
     id="base"
     showgrid="false"
     inkscape:zoom="0.6692705"
     inkscape:cx="183.41584"
     inkscape:cy="495.07124"
     inkscape:window-x="-8"
     inkscape:window-y="-8"
     inkscape:current-layer="layer1"
     showguides="true"
     inkscape:guide-bbox="true"
     inkscape:window-maximized="1" /><g
     inkscape:groupmode="layer"
     id="layer3"
     inkscape:label="fond blanc"><rect
       style="fill:#ffffff;fill-opacity:1;stroke:none"
       id="rect2889"
       width="1200"
       height="1600"
       x="0"
       y="2.1316282e-14" /></g><g
     inkscape:groupmode="layer"
     id="layer1"
     inkscape:label="trace"
     style="display:inline"><path
       style="fill:none;fill-opacity:1;fill-rule:evenodd;stroke:#e3007b;stroke-width:12;stroke-linecap:butt;stroke-linejoin:round;stroke-miterlimit:4;stroke-dasharray:none;stroke-dashoffset:60;stroke-opacity:1;display:inline"
       d="M 652.55747,597.71379 C 679.90569,573.10447 691.44581,503.82417 695.42553,493.87485 C 695.73599,493.09881 696.05079,492.33227 696.36977,491.57477"
       id="path4049" /><path
       style="fill:none;fill-opacity:1;fill-rule:evenodd;stroke:#e3007b;stroke-width:12;stroke-linecap:butt;stroke-linejoin:round;stroke-miterlimit:4;stroke-dasharray:none;stroke-dashoffset:60;stroke-opacity:1;display:inline"
       d="M 298.97531,1125.0335 L 316.11925,1047.8679"
       id="path4044"
       sodipodi:nodetypes="cc" /><path
       style="opacity:0.25;fill:none;fill-opacity:1;fill-rule:evenodd;stroke:#e3007b;stroke-width:12;stroke-linecap:butt;stroke-linejoin:round;stroke-miterlimit:4;stroke-dasharray:none;stroke-dashoffset:60;stroke-opacity:1;display:inline"
       d="M 696.36977,491.57477 C 709.07869,461.39331 728.33327,445.55481 734.51727,414.63483 C 736.56849,404.37879 784.17435,341.73403 788.40049,333.28175 C 792.62663,324.82947 829.60529,263.55051 845.45329,257.21131 C 861.30131,250.87213 923.28193,234.18289 929.97599,231.85451 C 954.27632,223.40225 994.13022,225.71991 1011.3291,206.49771 C 1029.2902,186.42358 1035.6293,172.68864 1035.6293,172.68864"
       id="path4041" /><path
       style="opacity:0.5;fill:none;fill-opacity:1;fill-rule:evenodd;stroke:#e3007b;stroke-width:12;stroke-linecap:butt;stroke-linejoin:round;stroke-miterlimit:4;stroke-dasharray:none;stroke-dashoffset:60;stroke-opacity:1;display:inline"
       d="M 261.19023,1295.7838 L 298.97533,1125.0334"
       id="path3226" /><path
       id="path4112"
       d="M 696.36977,491.57477 C 709.07869,461.39331 728.33327,445.55481 734.51727,414.63483 C 736.56849,404.37879 784.17435,341.73403 788.40049,333.28175 C 792.62663,324.82947 829.60529,263.55051 845.45329,257.21131 C 861.30131,250.87213 923.28193,234.18289 929.97599,231.85451 C 954.27632,223.40225 994.13022,225.71991 1011.3291,206.49771 C 1029.2902,186.42358 1035.6293,172.68864 1035.6293,172.68864"
       style="fill:none;stroke:#e3007b;stroke-width:12;stroke-linecap:butt;stroke-linejoin:round;stroke-miterlimit:4;stroke-dasharray:12, 12;stroke-dashoffset:100.8;stroke-opacity:1;display:inline" /><path
       id="path4114"
       d="M 316.11925,1051.0375 L 344.65637,918.60135 C 344.65637,918.60137 356.20805,877.64643 354.16517,861.54855 C 349.91315,828.04247 347.82597,787.59121 399.59613,800.26961 C 456.26103,814.14673 502.07989,881.62269 502.07989,881.62269 C 502.07989,881.62263 553.10331,923.34847 571.81111,863.66161 C 593.99823,792.87393 568.53181,779.36643 576.03723,748.49945 C 587.09315,703.03077 602.45057,654.46797 602.45057,654.46797 C 602.45051,654.46791 609.84631,619.60235 643.65537,603.75435 C 646.79421,602.28303 649.75863,600.23235 652.55747,597.71379"
       style="fill:none;stroke:#e3007b;stroke-width:12;stroke-linecap:butt;stroke-linejoin:round;stroke-miterlimit:4;stroke-dasharray:12, 12;stroke-dashoffset:100.8;stroke-opacity:1;display:inline"
       sodipodi:nodetypes="ccsscsscsc" /><path
       id="path4116"
       d="M 261.19023,1295.7838 L 298.97533,1125.0334"
       style="opacity:1;fill:none;fill-opacity:1;fill-rule:evenodd;stroke:#e3007b;stroke-width:12;stroke-linecap:butt;stroke-linejoin:round;stroke-miterlimit:4;stroke-dasharray:12, 12;stroke-dashoffset:100.8;stroke-opacity:1;display:inline" /><path
       style="fill:#ff0000;fill-opacity:0.00392157;stroke:#e3007b;stroke-width:12;stroke-linecap:butt;stroke-linejoin:round;stroke-miterlimit:4;stroke-dasharray:none;stroke-opacity:1"
       d="M 62.990557,318.88431 L 213.01833,318.88431"
       id="path2897" /><path
       id="path3739"
       d="M 62.990557,271.1394 L 213.01833,271.1394"
       style="opacity:0.25;fill:#ff0000;fill-opacity:0.00392157;stroke:#e3007b;stroke-width:12;stroke-linecap:butt;stroke-linejoin:round;stroke-miterlimit:4;stroke-dasharray:none;stroke-opacity:1" /><path
       style="fill:#ff0000;fill-opacity:0.00392157;stroke:#e3007b;stroke-width:12.39999962;stroke-linecap:butt;stroke-linejoin:round;stroke-miterlimit:4;stroke-dasharray:12.39999962, 12.39999962;stroke-dashoffset:4.95999984;stroke-opacity:1"
       d="M 62.990557,271.1394 L 213.01833,271.1394"
       id="path3745" /><path
       sodipodi:nodetypes="ccsscsscsc"
       style="opacity:0.25;fill:none;stroke:#e3007b;stroke-width:12;stroke-linecap:butt;stroke-linejoin:round;stroke-miterlimit:4;stroke-dasharray:none;stroke-dashoffset:50.4;stroke-opacity:1;display:inline"
       d="M 316.11925,1051.0375 L 344.65637,918.60135 C 344.65637,918.60137 356.20805,877.64643 354.16517,861.54855 C 349.91315,828.04247 347.82597,787.59121 399.59613,800.26961 C 456.26103,814.14673 502.07989,881.62269 502.07989,881.62269 C 502.07989,881.62263 553.10331,923.34847 571.81111,863.66161 C 593.99823,792.87393 568.53181,779.36643 576.03723,748.49945 C 587.09315,703.03077 602.45057,654.46797 602.45057,654.46797 C 602.45051,654.46791 609.84631,619.60235 643.65537,603.75435 C 646.79421,602.28303 649.75863,600.23235 652.55747,597.71379"
       id="path3751" /><path
       id="path84010"
       sodipodi:cx="111.20654"
       sodipodi:cy="549.59344"
       transform="matrix(2.4967688,0,0,2.4967688,19.267819,-237.03339)"
       d="M 120.20384,549.59344 A 8.9972935,8.9972935 0 1 1 102.20925,549.59344 A 8.9972935,8.9972935 0 1 1 120.20384,549.59344 z"
       sodipodi:type="arc"
       style="fill:#ffffff;fill-opacity:1;stroke:#000000;stroke-width:3.5;stroke-miterlimit:4;stroke-dasharray:none;stroke-opacity:1;display:inline"
       sodipodi:ry="8.9972935"
       sodipodi:rx="8.9972935" /><path
       id="path84014"
       sodipodi:cx="111.20654"
       sodipodi:cy="549.59344"
       transform="matrix(2.4967688,0,0,2.4967688,54.508837,-397.52787)"
       d="M 120.20384,549.59344 A 8.9972935,8.9972935 0 1 1 102.20925,549.59344 A 8.9972935,8.9972935 0 1 1 120.20384,549.59344 z"
       sodipodi:type="arc"
       style="fill:#ffffff;fill-opacity:1;stroke:#000000;stroke-width:3.5;stroke-miterlimit:4;stroke-dasharray:none;stroke-opacity:1;display:inline"
       sodipodi:ry="8.9972935"
       sodipodi:rx="8.9972935" /><path
       id="path84016"
       sodipodi:cx="111.20654"
       sodipodi:cy="549.59344"
       transform="matrix(2.4967688,0,0,2.4967688,75.427157,-484.00811)"
       d="M 120.20384,549.59344 A 8.9972935,8.9972935 0 1 1 102.20925,549.59344 A 8.9972935,8.9972935 0 1 1 120.20384,549.59344 z"
       sodipodi:type="arc"
       style="fill:#ffffff;fill-opacity:1;stroke:#000000;stroke-width:3.5;stroke-miterlimit:4;stroke-dasharray:none;stroke-opacity:1;display:inline"
       sodipodi:ry="8.9972935"
       sodipodi:rx="8.9972935" /><path
       id="path84018"
       sodipodi:cx="111.20654"
       sodipodi:cy="549.59344"
       transform="matrix(2.4967688,0,0,2.4967688,116.82612,-571.72619)"
       d="M 120.20384,549.59344 A 8.9972935,8.9972935 0 1 1 102.20925,549.59344 A 8.9972935,8.9972935 0 1 1 120.20384,549.59344 z"
       sodipodi:type="arc"
       style="fill:#ffffff;fill-opacity:1;stroke:#000000;stroke-width:3.5;stroke-miterlimit:4;stroke-dasharray:none;stroke-opacity:1;display:inline"
       sodipodi:ry="8.9972935"
       sodipodi:rx="8.9972935" /><path
       id="path2139"
       sodipodi:cx="111.20654"
       sodipodi:cy="549.59344"
       transform="matrix(2.4451798,0,0,2.4451798,42.753557,-292.97251)"
       d="M 120.20384,549.59344 A 8.9972935,8.9972935 0 1 1 102.20925,549.59344 A 8.9972935,8.9972935 0 1 1 120.20384,549.59344 z"
       sodipodi:type="arc"
       style="fill:#e3007b;fill-opacity:1;stroke:none;display:inline"
       sodipodi:ry="8.9972935"
       sodipodi:rx="8.9972935" /><path
       id="path84020"
       sodipodi:cx="111.20654"
       sodipodi:cy="549.59344"
       transform="matrix(2.4967688,0,0,2.4967688,218.42927,-502.99463)"
       d="M 120.20384,549.59344 A 8.9972935,8.9972935 0 1 1 102.20925,549.59344 A 8.9972935,8.9972935 0 1 1 120.20384,549.59344 z"
       sodipodi:type="arc"
       style="fill:#ffffff;fill-opacity:1;stroke:#000000;stroke-width:3.5;stroke-miterlimit:4;stroke-dasharray:none;stroke-opacity:1;display:inline"
       sodipodi:ry="8.9972935"
       sodipodi:rx="8.9972935" /><path
       id="path84022"
       sodipodi:cx="111.20654"
       sodipodi:cy="549.59344"
       transform="matrix(2.4967688,0,0,2.4967688,296.12581,-519.43043)"
       d="M 120.20384,549.59344 A 8.9972935,8.9972935 0 1 1 102.20925,549.59344 A 8.9972935,8.9972935 0 1 1 120.20384,549.59344 z"
       sodipodi:type="arc"
       style="fill:#ffffff;fill-opacity:1;stroke:#000000;stroke-width:3.5;stroke-miterlimit:4;stroke-dasharray:none;stroke-opacity:1;display:inline"
       sodipodi:ry="8.9972935"
       sodipodi:rx="8.9972935" /><path
       id="path84968"
       sodipodi:cx="111.20654"
       sodipodi:cy="549.59344"
       transform="matrix(2.4451798,0,0,2.4451798,318.29867,-650.95307)"
       d="M 120.20384,549.59344 A 8.9972935,8.9972935 0 1 1 102.20925,549.59344 A 8.9972935,8.9972935 0 1 1 120.20384,549.59344 z"
       sodipodi:type="arc"
       style="fill:#e3007b;fill-opacity:1;stroke:none;display:inline"
       sodipodi:ry="8.9972935"
       sodipodi:rx="8.9972935" /><path
       id="path3633"
       sodipodi:cx="111.20654"
       sodipodi:cy="549.59344"
       transform="matrix(2.4967688,0,0,2.4967688,-14.363161,-85.440949)"
       d="M 120.20384,549.59344 A 8.9972935,8.9972935 0 1 1 102.20925,549.59344 A 8.9972935,8.9972935 0 1 1 120.20384,549.59344 z"
       sodipodi:type="arc"
       style="fill:#ffffff;fill-opacity:1;stroke:#000000;stroke-width:3.5;stroke-miterlimit:4;stroke-dasharray:none;stroke-opacity:1;display:inline"
       sodipodi:ry="8.9972935"
       sodipodi:rx="8.9972935" /><path
       id="path84008"
       sodipodi:cx="111.20654"
       sodipodi:cy="549.59344"
       transform="matrix(2.4967688,0,0,2.4967688,3.2696387,-160.83103)"
       d="M 120.20384,549.59344 A 8.9972935,8.9972935 0 1 1 102.20925,549.59344 A 8.9972935,8.9972935 0 1 1 120.20384,549.59344 z"
       sodipodi:type="arc"
       style="fill:#ffffff;fill-opacity:1;stroke:#000000;stroke-width:3.5;stroke-miterlimit:4;stroke-dasharray:none;stroke-opacity:1;display:inline"
       sodipodi:ry="8.9972935"
       sodipodi:rx="8.9972935" /><path
       id="path84026"
       sodipodi:cx="111.20654"
       sodipodi:cy="549.59344"
       transform="matrix(2.4967688,0,0,2.4967688,418.64729,-873.54737)"
       d="M 120.20384,549.59344 A 8.9972935,8.9972935 0 1 1 102.20925,549.59344 A 8.9972935,8.9972935 0 1 1 120.20384,549.59344 z"
       sodipodi:type="arc"
       style="fill:#ffffff;fill-opacity:1;stroke:#000000;stroke-width:3.5;stroke-miterlimit:4;stroke-dasharray:none;stroke-opacity:1;display:inline"
       sodipodi:ry="8.9972935"
       sodipodi:rx="8.9972935" /><path
       id="path84032"
       sodipodi:cx="111.20654"
       sodipodi:cy="549.59344"
       transform="matrix(2.4967688,0,0,2.4967688,754.83421,-1203.7576)"
       d="M 120.20384,549.59344 A 8.9972935,8.9972935 0 1 1 102.20925,549.59344 A 8.9972935,8.9972935 0 1 1 120.20384,549.59344 z"
       sodipodi:type="arc"
       style="fill:#ffffff;fill-opacity:1;stroke:#000000;stroke-width:3.5;stroke-miterlimit:4;stroke-dasharray:none;stroke-opacity:1;display:inline"
       sodipodi:ry="8.9972935"
       sodipodi:rx="8.9972935" /><path
       id="path84970"
       sodipodi:cx="111.20654"
       sodipodi:cy="549.59344"
       transform="matrix(2.4451798,0,0,2.4451798,534.33353,-1038.9981)"
       d="M 120.20384,549.59344 A 8.9972935,8.9972935 0 1 1 102.20925,549.59344 A 8.9972935,8.9972935 0 1 1 120.20384,549.59344 z"
       sodipodi:type="arc"
       style="fill:#e3007b;fill-opacity:1;stroke:none;display:inline"
       sodipodi:ry="8.9972935"
       sodipodi:rx="8.9972935" /><path
       id="path84972"
       sodipodi:cx="111.20654"
       sodipodi:cy="549.59344"
       transform="matrix(2.4451798,0,0,2.4451798,676.46043,-1117.1323)"
       d="M 120.20384,549.59344 A 8.9972935,8.9972935 0 1 1 102.20925,549.59344 A 8.9972935,8.9972935 0 1 1 120.20384,549.59344 z"
       sodipodi:type="arc"
       style="fill:#e3007b;fill-opacity:1;stroke:none;display:inline"
       sodipodi:ry="8.9972935"
       sodipodi:rx="8.9972935" /><text
       xml:space="preserve"
       style="font-style:normal;font-variant:normal;font-weight:normal;font-stretch:semi-condensed;line-height:0%;font-family:'DejaVu Sans Condensed';-inkscape-font-specification:'DejaVu Sans Condensed, Semi-Condensed';text-align:start;writing-mode:lr-tb;text-anchor:start;display:inline;fill:#000000;fill-opacity:1;stroke:none;stroke-width:1px;stroke-linecap:butt;stroke-linejoin:miter;stroke-opacity:1"
       x="452.13824"
       y="947.34332"
       id="text2460"><tspan
         sodipodi:role="line"
         id="tspan2462"
         x="452.13824"
         y="947.34332"
         style="font-style:normal;font-variant:normal;font-weight:normal;font-stretch:semi-condensed;font-size:36px;line-height:125%;font-family:'DejaVu Sans Condensed';-inkscape-font-specification:'DejaVu Sans Condensed, Semi-Condensed';text-align:start;writing-mode:lr-tb;text-anchor:start">Bessières</tspan></text>
<text
       xml:space="preserve"
       style="font-style:normal;font-variant:normal;font-weight:normal;font-stretch:semi-condensed;line-height:0%;font-family:'DejaVu Sans Condensed';-inkscape-font-specification:'DejaVu Sans Condensed, Semi-Condensed';text-align:start;writing-mode:lr-tb;text-anchor:start;fill:#000000;fill-opacity:1;stroke:none;stroke-width:1px;stroke-linecap:butt;stroke-linejoin:miter;stroke-opacity:1"
       x="618.58398"
       y="867.85956"
       id="text2461"><tspan
         sodipodi:role="line"
         id="tspan2463"
         x="618.58398"
         y="867.85956"
         style="font-style:normal;font-variant:normal;font-weight:normal;font-stretch:semi-condensed;font-size:36px;line-height:125%;font-family:'DejaVu Sans Condensed';-inkscape-font-specification:'DejaVu Sans Condensed, Semi-Condensed';text-align:start;writing-mode:lr-tb;text-anchor:start">Ours</tspan></text>
<text
       xml:space="preserve"
       style="font-style:normal;font-variant:normal;font-weight:normal;font-stretch:semi-condensed;line-height:0%;font-family:'DejaVu Sans Condensed';-inkscape-font-specification:'DejaVu Sans Condensed, Semi-Condensed';text-align:start;writing-mode:lr-tb;text-anchor:start;fill:#000000;fill-opacity:1;stroke:none;stroke-width:1px;stroke-linecap:butt;stroke-linejoin:miter;stroke-opacity:1"
       x="624.56061"
       y="710.97229"
       id="text2465"><tspan
         sodipodi:role="line"
         id="tspan2467"
         x="624.56061"
         y="710.97229"
         style="font-style:normal;font-variant:normal;font-weight:normal;font-stretch:semi-condensed;font-size:36px;line-height:125%;font-family:'DejaVu Sans Condensed';-inkscape-font-specification:'DejaVu Sans Condensed, Semi-Condensed';text-align:start;writing-mode:lr-tb;text-anchor:start">CHUV</tspan></text>
<text
       xml:space="preserve"
       style="font-style:normal;font-variant:normal;font-weight:normal;font-stretch:semi-condensed;line-height:0%;font-family:'DejaVu Sans Condensed';-inkscape-font-specification:'DejaVu Sans Condensed, Semi-Condensed';text-align:start;writing-mode:lr-tb;text-anchor:start;fill:#000000;fill-opacity:1;stroke:none;stroke-width:1px;stroke-linecap:butt;stroke-linejoin:miter;stroke-opacity:1"
       x="735.12872"
       y="521.2135"
       id="text2469"><tspan
         sodipodi:role="line"
         id="tspan2471"
         x="735.12872"
         y="521.2135"
         style="font-style:normal;font-variant:normal;font-weight:normal;font-stretch:semi-condensed;font-size:36px;line-height:125%;font-family:'DejaVu Sans Condensed';-inkscape-font-specification:'DejaVu Sans Condensed, Semi-Condensed';text-align:start;writing-mode:lr-tb;text-anchor:start">Sallaz</tspan></text>
<text
       xml:space="preserve"
       style="font-style:normal;font-variant:normal;font-weight:normal;font-stretch:semi-condensed;line-height:0%;font-family:'DejaVu Sans Condensed';-inkscape-font-specification:'DejaVu Sans Condensed, Semi-Condensed';text-align:start;writing-mode:lr-tb;text-anchor:start;fill:#000000;fill-opacity:1;stroke:none;stroke-width:1px;stroke-linecap:butt;stroke-linejoin:miter;stroke-opacity:1"
       x="832.24939"
       y="341.91379"
       id="text2473"><tspan
         sodipodi:role="line"
         id="tspan2475"
         x="832.24939"
         y="341.91379"
         style="font-style:normal;font-variant:normal;font-weight:normal;font-stretch:semi-condensed;font-size:36px;line-height:125%;font-family:'DejaVu Sans Condensed';-inkscape-font-specification:'DejaVu Sans Condensed, Semi-Condensed';text-align:start;writing-mode:lr-tb;text-anchor:start">Fourmi</tspan></text>
<text
       xml:space="preserve"
       style="font-style:normal;font-variant:normal;font-weight:normal;font-stretch:semi-condensed;line-height:0%;font-family:'DejaVu Sans Condensed';-inkscape-font-specification:'DejaVu Sans Condensed, Semi-Condensed';text-align:start;writing-mode:lr-tb;text-anchor:start;fill:#000000;fill-opacity:1;stroke:none;stroke-width:1px;stroke-linecap:butt;stroke-linejoin:miter;stroke-opacity:1"
       x="978.67755"
       y="271.68805"
       id="text2477"><tspan
         sodipodi:role="line"
         id="tspan2479"
         x="978.67755"
         y="271.68805"
         style="font-style:normal;font-variant:normal;font-weight:normal;font-stretch:semi-condensed;font-size:36px;line-height:125%;font-family:'DejaVu Sans Condensed';-inkscape-font-specification:'DejaVu Sans Condensed, Semi-Condensed';text-align:start;writing-mode:lr-tb;text-anchor:start">Vennes</tspan></text>
<text
       xml:space="preserve"
       style="font-style:normal;font-variant:normal;font-weight:bold;font-stretch:semi-condensed;line-height:0%;font-family:'DejaVu Sans Condensed';-inkscape-font-specification:'DejaVu Sans Condensed, Bold Semi-Condensed';text-align:start;writing-mode:lr-tb;text-anchor:start;fill:#000000;fill-opacity:1;stroke:none"
       x="915.92261"
       y="116.29498"
       id="text2481"><tspan
         sodipodi:role="line"
         id="tspan2483"
         x="915.92261"
         y="116.29498"
         style="font-style:normal;font-variant:normal;font-weight:bold;font-stretch:semi-condensed;font-size:36px;line-height:125%;font-family:'DejaVu Sans Condensed';-inkscape-font-specification:'DejaVu Sans Condensed, Bold Semi-Condensed';text-align:start;writing-mode:lr-tb;text-anchor:start">Croisettes</tspan><tspan
         sodipodi:role="line"
         x="915.92261"
         y="132.56061"
         id="tspan2485"
         style="font-style:normal;font-variant:normal;font-weight:bold;font-stretch:semi-condensed;font-size:36px;line-height:125%;font-family:'DejaVu Sans Condensed';-inkscape-font-specification:'DejaVu Sans Condensed, Bold Semi-Condensed';text-align:start;writing-mode:lr-tb;text-anchor:start" /></text>
<text
       xml:space="preserve"
       style="font-style:normal;font-variant:normal;font-weight:normal;font-stretch:semi-condensed;line-height:0%;font-family:'DejaVu Sans Condensed';-inkscape-font-specification:'DejaVu Sans Condensed, Semi-Condensed';text-align:start;writing-mode:lr-tb;text-anchor:start;fill:#000000;fill-opacity:1;stroke:none;stroke-width:1px;stroke-linecap:butt;stroke-linejoin:miter;stroke-opacity:1"
       x="240.56042"
       y="710.97235"
       id="text2487"><tspan
         sodipodi:role="line"
         id="tspan2489"
         x="240.56042"
         y="710.97235"
         style="font-style:normal;font-variant:normal;font-weight:normal;font-stretch:semi-condensed;font-size:36px;line-height:125%;font-family:'DejaVu Sans Condensed';-inkscape-font-specification:'DejaVu Sans Condensed, Semi-Condensed';text-align:start;writing-mode:lr-tb;text-anchor:start">Riponne-</tspan><tspan
         sodipodi:role="line"
         x="240.56042"
         y="755.97235"
         id="tspan2491"
         style="font-style:normal;font-variant:normal;font-weight:normal;font-stretch:semi-condensed;font-size:36px;line-height:125%;font-family:'DejaVu Sans Condensed';-inkscape-font-specification:'DejaVu Sans Condensed, Semi-Condensed';text-align:start;writing-mode:lr-tb;text-anchor:start">Maurice Béjart</tspan></text>
<text
       xml:space="preserve"
       style="font-style:normal;font-variant:normal;font-weight:normal;font-stretch:semi-condensed;line-height:0%;font-family:'DejaVu Sans Condensed';-inkscape-font-specification:'DejaVu Sans Condensed, Semi-Condensed';text-align:end;writing-mode:lr-tb;text-anchor:end;fill:#000000;fill-opacity:1;stroke:none;stroke-width:1px;stroke-linecap:butt;stroke-linejoin:miter;stroke-opacity:1"
       x="313.77448"
       y="894.75452"
       id="text2493"><tspan
         sodipodi:role="line"
         id="tspan2495"
         x="313.77448"
         y="894.75452"
         style="font-style:normal;font-variant:normal;font-weight:normal;font-stretch:semi-condensed;font-size:36px;line-height:125%;font-family:'DejaVu Sans Condensed';-inkscape-font-specification:'DejaVu Sans Condensed, Semi-Condensed';text-align:end;writing-mode:lr-tb;text-anchor:end">Lausanne-Flon</tspan></text>
<text
       xml:space="preserve"
       style="font-style:normal;font-variant:normal;font-weight:normal;font-stretch:semi-condensed;line-height:0%;font-family:'DejaVu Sans Condensed';-inkscape-font-specification:'DejaVu Sans Condensed, Semi-Condensed';text-align:end;writing-mode:lr-tb;text-anchor:end;fill:#000000;fill-opacity:1;stroke:none;stroke-width:1px;stroke-linecap:butt;stroke-linejoin:miter;stroke-opacity:1"
       x="294.35034"
       y="984.40436"
       id="text2497"><tspan
         sodipodi:role="line"
         id="tspan2499"
         x="294.35034"
         y="984.40436"
         style="font-style:normal;font-variant:normal;font-weight:normal;font-stretch:semi-condensed;font-size:36px;line-height:125%;font-family:'DejaVu Sans Condensed';-inkscape-font-specification:'DejaVu Sans Condensed, Semi-Condensed';text-align:end;writing-mode:lr-tb;text-anchor:end">Lausanne-Gare</tspan></text>
<text
       xml:space="preserve"
       style="font-style:normal;font-variant:normal;font-weight:normal;font-stretch:semi-condensed;line-height:0%;font-family:'DejaVu Sans Condensed';-inkscape-font-specification:'DejaVu Sans Condensed, Semi-Condensed';text-align:end;writing-mode:lr-tb;text-anchor:end;fill:#000000;fill-opacity:1;stroke:none;stroke-width:1px;stroke-linecap:butt;stroke-linejoin:miter;stroke-opacity:1"
       x="274.92621"
       y="1057.6184"
       id="text2501"><tspan
         sodipodi:role="line"
         id="tspan2503"
         x="274.92621"
         y="1057.6184"
         style="font-style:normal;font-variant:normal;font-weight:normal;font-stretch:semi-condensed;font-size:36px;line-height:125%;font-family:'DejaVu Sans Condensed';-inkscape-font-specification:'DejaVu Sans Condensed, Semi-Condensed';text-align:end;writing-mode:lr-tb;text-anchor:end">Grancy</tspan></text>
<text
       xml:space="preserve"
       style="font-style:normal;font-variant:normal;font-weight:normal;font-stretch:semi-condensed;line-height:0%;font-family:'DejaVu Sans Condensed';-inkscape-font-specification:'DejaVu Sans Condensed, Semi-Condensed';text-align:end;writing-mode:lr-tb;text-anchor:end;fill:#000000;fill-opacity:1;stroke:none;stroke-width:1px;stroke-linecap:butt;stroke-linejoin:miter;stroke-opacity:1"
       x="258.49039"
       y="1141.2916"
       id="text2505"><tspan
         sodipodi:role="line"
         id="tspan2507"
         x="258.49039"
         y="1141.2916"
         style="font-style:normal;font-variant:normal;font-weight:normal;font-stretch:semi-condensed;font-size:36px;line-height:125%;font-family:'DejaVu Sans Condensed';-inkscape-font-specification:'DejaVu Sans Condensed, Semi-Condensed';text-align:end;writing-mode:lr-tb;text-anchor:end">Délices</tspan></text>
<text
       xml:space="preserve"
       style="font-style:normal;font-variant:normal;font-weight:normal;font-stretch:semi-condensed;line-height:0%;font-family:'DejaVu Sans Condensed';-inkscape-font-specification:'DejaVu Sans Condensed, Semi-Condensed';text-align:end;writing-mode:lr-tb;text-anchor:end;fill:#000000;fill-opacity:1;stroke:none;stroke-width:1px;stroke-linecap:butt;stroke-linejoin:miter;stroke-opacity:1"
       x="237.57211"
       y="1215.9999"
       id="text2509"><tspan
         sodipodi:role="line"
         id="tspan2511"
         x="237.57211"
         y="1215.9999"
         style="font-style:normal;font-variant:normal;font-weight:normal;font-stretch:semi-condensed;font-size:36px;line-height:125%;font-family:'DejaVu Sans Condensed';-inkscape-font-specification:'DejaVu Sans Condensed, Semi-Condensed';text-align:end;writing-mode:lr-tb;text-anchor:end">Jordils</tspan></text>
<text
       xml:space="preserve"
       style="font-style:normal;font-variant:normal;font-weight:bold;font-stretch:semi-condensed;line-height:0%;font-family:'DejaVu Sans Condensed';-inkscape-font-specification:'DejaVu Sans Condensed, Bold Semi-Condensed';text-align:end;writing-mode:lr-tb;text-anchor:end;fill:#000000;fill-opacity:1;stroke:none;stroke-width:1px;stroke-linecap:butt;stroke-linejoin:miter;stroke-opacity:1"
       x="630.53723"
       y="1301.167"
       id="text2513"><tspan
         sodipodi:role="line"
         x="630.53723"
         y="1301.167"
         style="font-style:normal;font-variant:normal;font-weight:bold;font-stretch:semi-condensed;font-size:36px;line-height:125%;font-family:'DejaVu Sans Condensed';-inkscape-font-specification:'DejaVu Sans Condensed, Bold Semi-Condensed';text-align:end;writing-mode:lr-tb;text-anchor:end"
         id="tspan4560">Ouchy-Olympique</tspan></text>
<text
       xml:space="preserve"
       style="font-style:normal;font-variant:normal;font-weight:normal;font-stretch:semi-condensed;line-height:0%;font-family:'DejaVu Sans Condensed';-inkscape-font-specification:'DejaVu Sans Condensed, Semi-Condensed';text-align:start;writing-mode:lr-tb;text-anchor:start;fill:#000000;fill-opacity:1;stroke:none;stroke-width:1px;stroke-linecap:butt;stroke-linejoin:miter;stroke-opacity:1"
       x="236.07793"
       y="282.14722"
       id="text2517"><tspan
         sodipodi:role="line"
         id="tspan2519"
         x="236.07793"
         y="282.14722"
         style="font-style:normal;font-variant:normal;font-weight:normal;font-stretch:semi-condensed;font-size:36px;line-height:125%;font-family:'DejaVu Sans Condensed';-inkscape-font-specification:'DejaVu Sans Condensed, Semi-Condensed';text-align:start;writing-mode:lr-tb;text-anchor:start">zone couverte</tspan></text>
<text
       xml:space="preserve"
       style="font-style:normal;font-variant:normal;font-weight:normal;font-stretch:semi-condensed;line-height:0%;font-family:'DejaVu Sans Condensed';-inkscape-font-specification:'DejaVu Sans Condensed, Semi-Condensed';text-align:start;writing-mode:lr-tb;text-anchor:start;fill:#000000;fill-opacity:1;stroke:none;stroke-width:1px;stroke-linecap:butt;stroke-linejoin:miter;stroke-opacity:1"
       x="236.07793"
       y="331.45462"
       id="text2521"><tspan
         sodipodi:role="line"
         id="tspan2523"
         x="236.07793"
         y="331.45462"
         style="font-style:normal;font-variant:normal;font-weight:normal;font-stretch:semi-condensed;font-size:36px;line-height:125%;font-family:'DejaVu Sans Condensed';-inkscape-font-specification:'DejaVu Sans Condensed, Semi-Condensed';text-align:start;writing-mode:lr-tb;text-anchor:start">zone aérienne</tspan></text>
<g
       style="display:inline"
       id="g84987"
       transform="matrix(2.1939266,0,0,2.1939266,-1062.9583,-1895.7285)"><path
         id="text3866"
         d="m 677.14316,1527.8512 c 0,-1.3148 0.14349,-2.3729 0.43049,-3.1745 0.28698,-0.8015 0.71343,-1.4197 1.27936,-1.8546 0.56593,-0.4349 1.27804,-0.6524 2.13632,-0.6524 0.63298,0 1.18818,0.1201 1.6656,0.3603 0.47742,0.2402 0.87169,0.5867 1.18283,1.0392 0.31111,0.4527 0.55518,1.0039 0.73222,1.6536 0.177,0.6499 0.26552,1.526 0.26553,2.6284 -10e-6,1.3047 -0.14217,2.3578 -0.42646,3.1594 -0.28431,0.8015 -0.70943,1.4209 -1.27536,1.8583 -0.56593,0.4375 -1.28072,0.6562 -2.14436,0.6562 -1.13723,0 -2.03037,-0.3843 -2.67944,-1.153 -0.77782,-0.9254 -1.16673,-2.4324 -1.16673,-4.5209 l 0,0 z m 1.48858,0 c 0,1.8256 0.22664,3.0405 0.67993,3.6448 0.45327,0.6043 1.0125,0.9065 1.67766,0.9065 0.66516,0 1.22439,-0.3034 1.67767,-0.9103 0.45328,-0.6068 0.67992,-1.8205 0.67993,-3.641 -1e-5,-1.8306 -0.22665,-3.0468 -0.67993,-3.6485 -0.45328,-0.6018 -1.01787,-0.9027 -1.69376,-0.9027 -0.66517,0 -1.19623,0.2654 -1.59319,0.7964 -0.49887,0.6777 -0.74831,1.9293 -0.74831,3.7548 l 0,0 z"
         style="font-size:16px;font-style:normal;font-variant:normal;font-weight:normal;font-stretch:normal;text-align:center;line-height:125%;writing-mode:lr-tb;text-anchor:middle;display:inline;enable-background:new;font-family:Arial;-inkscape-font-specification:Arial" /><path
         id="text3870"
         d="m 941.51134,1532.2947 0,1.3123 -7.79696,0 c -0.0107,-0.3287 0.0456,-0.6448 0.16898,-0.9482 0.19847,-0.5006 0.51631,-0.9936 0.9535,-1.4791 0.43718,-0.4855 1.06882,-1.0468 1.89492,-1.684 1.28206,-0.9911 2.14838,-1.7762 2.59898,-2.3553 0.45059,-0.579 0.67589,-1.1264 0.6759,-1.6422 -10e-6,-0.5411 -0.20519,-0.9975 -0.61555,-1.3691 -0.41037,-0.3717 -0.94545,-0.5575 -1.60525,-0.5576 -0.69736,10e-5 -1.25525,0.1973 -1.67365,0.5916 -0.41841,0.3945 -0.6303,0.9407 -0.63567,1.6385 l -1.48857,-0.1441 c 0.10192,-1.0468 0.48546,-1.8445 1.15063,-2.3932 0.66516,-0.5487 1.55831,-0.823 2.67944,-0.823 1.13185,0 2.02768,0.2958 2.68749,0.8874 0.6598,0.5917 0.9897,1.325 0.98971,2.1999 -10e-6,0.4449 -0.0966,0.8824 -0.28967,1.3122 -0.19312,0.4298 -0.51364,0.8825 -0.96154,1.3578 -0.44793,0.4754 -1.19221,1.1277 -2.23287,1.957 -0.86902,0.6878 -1.4269,1.1543 -1.67365,1.3996 -0.24676,0.2452 -0.45061,0.4917 -0.61153,0.7395 l 5.78536,0 z"
         style="font-size:16px;font-style:normal;font-variant:normal;font-weight:normal;font-stretch:normal;text-align:center;line-height:125%;writing-mode:lr-tb;text-anchor:middle;display:inline;enable-background:new;font-family:Arial;-inkscape-font-specification:Arial" /><path
         id="text3874"
         d="m 985.81378,1533.4431 c -0.79928,-0.9507 -1.47517,-2.0632 -2.02769,-3.3376 -0.55252,-1.2743 -0.82877,-2.5942 -0.82877,-3.9596 0,-1.2035 0.20652,-2.3565 0.61957,-3.459 0.48278,-1.2794 1.22841,-2.5537 2.23689,-3.823 l 1.03799,0 c -0.64909,1.0519 -1.07822,1.8028 -1.28742,2.2528 -0.32722,0.698 -0.58471,1.4262 -0.77246,2.1846 -0.23066,0.9457 -0.34599,1.8965 -0.34599,2.8522 0,2.4324 0.80195,4.8623 2.40587,7.2896 l -1.03799,0 z m 2.74382,-3.2693 0,-11.1203 1.44835,0 0,6.3415 3.42776,-3.2769 1.8748,0 -3.26683,2.9886 3.59674,5.0671 -1.7863,0 -2.82429,-4.1189 -1.02188,0.9254 0,3.1935 -1.44835,0 z m 8.23144,0 0,-8.0557 1.29548,0 0,1.1302 c 0.26821,-0.3945 0.62493,-0.7118 1.07017,-0.952 0.44523,-0.2402 0.95211,-0.3603 1.52081,-0.3603 0.6329,0 1.1519,0.1239 1.5569,0.3717 0.405,0.2478 0.6907,0.5942 0.857,1.0392 0.6759,-0.9406 1.5556,-1.4109 2.6392,-1.4109 0.8475,0 1.4993,0.2213 1.9553,0.6638 0.4559,0.4424 0.6839,1.1238 0.6839,2.0442 l 0,5.5298 -1.4403,0 0,-5.0747 c 0,-0.5461 -0.047,-0.9393 -0.1408,-1.1795 -0.094,-0.2402 -0.2642,-0.4336 -0.511,-0.5803 -0.2467,-0.1466 -0.5364,-0.2199 -0.869,-0.22 -0.6008,10e-5 -1.0996,0.1885 -1.4966,0.5652 -0.397,0.3767 -0.5954,0.9797 -0.5954,1.8091 l 0,4.6802 -1.4484,0 0,-5.234 c 0,-0.6067 -0.118,-1.0619 -0.354,-1.3653 -0.2361,-0.3034 -0.6223,-0.4551 -1.1587,-0.4552 -0.40769,10e-5 -0.78453,0.1012 -1.13051,0.3034 -0.346,0.2024 -0.59678,0.4982 -0.75234,0.8875 -0.15557,0.3895 -0.23336,0.9508 -0.23336,1.684 l 0,4.1796 -1.44835,0 z m 14.69276,3.2693 -1.038,0 c 1.6039,-2.4273 2.4058,-4.8572 2.4058,-7.2896 0,-0.9507 -0.1153,-1.8938 -0.346,-2.8293 -0.1823,-0.7586 -0.4371,-1.4868 -0.7644,-2.1846 -0.2092,-0.4552 -0.641,-1.2137 -1.2954,-2.2757 l 1.038,0 c 1.0084,1.2693 1.7541,2.5436 2.2368,3.823 0.4131,1.1025 0.6196,2.2555 0.6196,3.459 0,1.3654 -0.2776,2.6853 -0.8328,3.9596 -0.5552,1.2744 -1.2297,2.3869 -2.0236,3.3376 l 0,0 z"
         style="font-size:16px;font-style:normal;font-variant:normal;font-weight:normal;font-stretch:normal;text-align:center;line-height:125%;writing-mode:lr-tb;text-anchor:middle;display:inline;enable-background:new;font-family:Arial;-inkscape-font-specification:Arial" /><path
         id="text3880"
         d="m 677.14316,1558.0925 c 0,-1.3148 0.14349,-2.373 0.43049,-3.1745 0.28698,-0.8016 0.71343,-1.4198 1.27936,-1.8546 0.56593,-0.4349 1.27804,-0.6524 2.13632,-0.6524 0.63298,0 1.18818,0.1201 1.6656,0.3603 0.47742,0.2402 0.87169,0.5866 1.18283,1.0392 0.31111,0.4526 0.55518,1.0038 0.73222,1.6537 0.177,0.6497 0.26552,1.5259 0.26553,2.6283 -10e-6,1.3046 -0.14217,2.3578 -0.42646,3.1593 -0.28431,0.8015 -0.70943,1.421 -1.27536,1.8585 -0.56593,0.4374 -1.28072,0.656 -2.14436,0.656 -1.13723,0 -2.03037,-0.3843 -2.67944,-1.1529 -0.77782,-0.9254 -1.16673,-2.4324 -1.16673,-4.5209 l 0,0 z m 1.48858,0 c 0,1.8255 0.22664,3.0405 0.67993,3.6448 0.45327,0.6043 1.0125,0.9064 1.67766,0.9064 0.66516,0 1.22439,-0.3034 1.67767,-0.9102 0.45328,-0.6068 0.67992,-1.8205 0.67993,-3.641 -1e-5,-1.8306 -0.22665,-3.0468 -0.67993,-3.6486 -0.45328,-0.6018 -1.01787,-0.9027 -1.69376,-0.9027 -0.66517,0 -1.19623,0.2655 -1.59319,0.7965 -0.49887,0.6776 -0.74831,1.9292 -0.74831,3.7548 l 0,0 z"
         style="font-size:16px;font-style:normal;font-variant:normal;font-weight:normal;font-stretch:normal;text-align:center;line-height:125%;writing-mode:lr-tb;text-anchor:middle;display:inline;enable-background:new;font-family:Arial;-inkscape-font-specification:Arial" /><path
         id="text3888"
         d="m 990.38412,1568.4376 c -0.79927,-0.9507 -1.47517,-2.0632 -2.02769,-3.3376 -0.55252,-1.2743 -0.82877,-2.5942 -0.82877,-3.9596 0,-1.2035 0.20653,-2.3565 0.61957,-3.459 0.48279,-1.2794 1.22842,-2.5537 2.23689,-3.823 l 1.03799,0 c -0.64908,1.0519 -1.07822,1.8028 -1.28742,2.2529 -0.32722,0.6978 -0.5847,1.426 -0.77245,2.1846 -0.23066,0.9456 -0.346,1.8963 -0.346,2.8521 0,2.4324 0.80195,4.8623 2.40587,7.2896 l -1.03799,0 z m 2.73577,-3.2693 0,-8.0558 1.29548,0 0,1.1303 c 0.26821,-0.3945 0.62492,-0.7118 1.07017,-0.952 0.44523,-0.2402 0.95214,-0.3603 1.52076,-0.3603 0.63298,0 1.15197,0.1239 1.55698,0.3717 0.40499,0.2477 0.69064,0.5942 0.85694,1.0391 0.67588,-0.9405 1.55558,-1.4108 2.63918,-1.4108 0.8476,0 1.4993,0.2213 1.9553,0.6637 0.456,0.4425 0.6839,1.124 0.6839,2.0443 l 0,5.5298 -1.4403,0 0,-5.0747 c 0,-0.5462 -0.047,-0.9393 -0.1408,-1.1795 -0.094,-0.2402 -0.2642,-0.4336 -0.5109,-0.5803 -0.2468,-0.1466 -0.5364,-0.2199 -0.869,-0.2199 -0.6008,0 -1.0997,0.1883 -1.4966,0.565 -0.39702,0.3768 -0.5955,0.9798 -0.59549,1.8092 l 0,4.6802 -1.44835,0 0,-5.2339 c 0,-0.6069 -0.11802,-1.062 -0.35404,-1.3655 -0.23603,-0.3034 -0.62225,-0.455 -1.15868,-0.455 -0.40769,0 -0.78452,0.101 -1.13051,0.3034 -0.34599,0.2022 -0.59677,0.4981 -0.75233,0.8874 -0.15558,0.3894 -0.23336,0.9507 -0.23336,1.684 l 0,4.1796 -1.44835,0 z m 13.75131,-9.5501 0,-1.5701 1.4483,0 0,1.5701 -1.4483,0 z m 0,9.5501 0,-8.0558 1.4483,0 0,8.0558 -1.4483,0 z m 4.6106,3.2693 -1.038,0 c 1.6039,-2.4273 2.4058,-4.8572 2.4058,-7.2896 0,-0.9507 -0.1153,-1.8939 -0.346,-2.8294 -0.1823,-0.7585 -0.4371,-1.4867 -0.7644,-2.1846 -0.2092,-0.455 -0.641,-1.2136 -1.2954,-2.2756 l 1.038,0 c 1.0084,1.2693 1.7541,2.5436 2.2368,3.823 0.4131,1.1025 0.6196,2.2555 0.6196,3.459 0,1.3654 -0.2776,2.6853 -0.8328,3.9596 -0.5552,1.2744 -1.2297,2.3869 -2.0236,3.3376 l 0,0 z"
         style="font-size:16px;font-style:normal;font-variant:normal;font-weight:normal;font-stretch:normal;text-align:center;line-height:125%;writing-mode:lr-tb;text-anchor:middle;display:inline;enable-background:new;font-family:Arial;-inkscape-font-specification:Arial" /><g
         transform="matrix(0.6454515,0,0,1,677.44076,-540.08062)"
         id="g7616-7"
         style="display:inline;enable-background:new"><path
           d="m 0.16200003,2076.1448 482.47802997,0 0,12.396 -482.47802997,0 0,-12.396 z m 6.569e-5,6.198 482.47787428,0"
           style="fill:#ffffff;fill-opacity:1;fill-rule:nonzero;stroke:#000000;stroke-width:0.32400003;stroke-linecap:round;stroke-miterlimit:4;stroke-opacity:1;stroke-dashoffset:0"
           id="path7612-9" /><path
           d="m 100.16202,2076.1448 99.67598,0 0,6.198 -99.67598,0 0,-6.198 z m 200,0 99.67598,0 0,6.198 -99.67598,0 0,-6.198 z m -299.99975998,6.198 160.60952998,0 0,6.198 -160.60952998,0 0,-6.198 z m 321.86797998,0 160.60953,0 0,6.198 -160.60953,0 0,-6.198 z"
           style="fill:#000000;fill-opacity:1;stroke:#000000;stroke-width:0.32401723;stroke-linecap:butt;stroke-linejoin:miter;stroke-miterlimit:4;stroke-opacity:1;stroke-dashoffset:0"
           id="path7610-3"
           sodipodi:nodetypes="cccccccccccccccccccc" /></g><path
         id="text11078"
         d="m 807.50377,1533.4303 -1.44835,0 0,-8.7005 c -0.34869,0.3136 -0.80599,0.6271 -1.37191,0.9406 -0.56593,0.3135 -1.07419,0.5487 -1.52479,0.7054 l 0,-1.3198 c 0.81,-0.359 1.51808,-0.7939 2.12424,-1.3047 0.60616,-0.5107 1.0353,-1.0063 1.28743,-1.4867 l 0.93338,0 0,11.1657 z"
         style="font-size:16px;font-style:normal;font-variant:normal;font-weight:normal;font-stretch:normal;text-align:center;line-height:125%;writing-mode:lr-tb;text-anchor:middle;display:inline;enable-background:new;font-family:Arial;-inkscape-font-specification:Arial" /><path
         id="text11084"
         d="m 886.70219,1563.6716 -1.44835,0 0,-8.7006 c -0.34868,0.3137 -0.80598,0.6272 -1.37191,0.9407 -0.56593,0.3135 -1.07419,0.5487 -1.52479,0.7055 l 0,-1.3199 c 0.81001,-0.3591 1.51809,-0.794 2.12425,-1.3048 0.60616,-0.5107 1.0353,-1.0062 1.28742,-1.4867 l 0.93338,0 0,11.1658 z"
         style="font-size:16px;font-style:normal;font-variant:normal;font-weight:normal;font-stretch:normal;text-align:center;line-height:125%;writing-mode:lr-tb;text-anchor:middle;display:inline;enable-background:new;font-family:Arial;-inkscape-font-specification:Arial" /><path
         d="m 641.34851,1566.0589 c 1.8367,-2.7999 2.7572,-4.8864 3.3402,-7.0142 4.3607,1.1945 4.9022,-3.1758 1.8761,-4.4022 2.9719,-4.7144 4.8417,-13.6748 7.339,-25.8016 l 0,34.7207 c -4.3085,-10e-5 -8.5747,0.8485 -12.5553,2.4973 l 0,0 z m 25.1106,0 c -1.8367,-2.7999 -2.7572,-4.8864 -3.3401,-7.0142 -4.3608,1.1945 -4.9022,-3.1758 -1.8762,-4.4022 -2.9719,-4.7144 -4.8417,-13.6748 -7.339,-25.8016 l 0,34.7207 c 4.3085,-10e-5 8.5748,0.8485 12.5553,2.4973 l 0,0 z m -22.9121,-43.4637 c 0.7388,0.055 1.1219,0.082 1.5049,0.082 1.1766,0 1.9153,-0.1642 2.6267,-0.602 1.3408,-0.7935 2.7089,-2.7635 3.5844,-5.0619 0.4378,-1.1766 0.602,-1.7786 1.7785,-6.5122 0.6841,2.9277 0.7115,2.9824 1.0124,4.2411 0.7935,3.3929 1.4502,5.3903 2.3805,7.251 1.3608,2.3584 1.4284,1.9645 3.4444,1.6396 l -0.6809,-1.3113 c 0.4652,-2.3531 0.7114,-3.4203 1.3955,-6.2933 1.1765,-4.761 1.7785,-6.7311 2.654,-8.537 0.5747,-1.1492 1.2313,-1.587 2.49,-1.587 0.1915,0 0.3557,0 0.7387,0.055 l 1.0124,-1.8332 c -0.3283,-0.027 -0.6293,-0.055 -0.8482,-0.055 -1.1492,0 -2.3805,0.7935 -3.8033,2.4625 -1.3133,1.5323 -1.8058,2.9278 -3.1466,8.838 -0.2736,1.286 -0.5746,2.5721 -0.8755,3.8854 -0.0274,0.1369 -0.1642,0.7115 -0.4105,1.5597 -1.3133,-2.6268 -1.669,-3.6939 -4.5694,-14.5293 l -0.9303,0.8482 c -0.6566,-0.055 -1.0124,-0.082 -1.5048,-0.082 -1.6417,0 -2.6268,0.301 -3.6118,1.0672 -1.7511,1.3681 -2.9551,3.3381 -2.9551,4.8431 0,0.684 0.1916,1.3954 0.6841,2.4078 l 1.8879,-1.286 c -0.684,-1.4502 -0.8755,-2.0795 -0.8755,-2.7636 0,-0.8208 0.4651,-1.5596 1.2312,-1.97 0.6567,-0.3558 1.3134,-0.4652 2.5447,-0.4652 0.5746,0 1.0671,0 2.1068,0.055 -1.286,5.4998 -2.3257,8.9474 -3.2287,10.5618 -0.5746,1.0124 -1.1765,1.3134 -2.6267,1.3134 -0.5198,0 -0.9303,-0.027 -1.6964,-0.1095 l -1.3134,1.888"
         style="fill:#000000;stroke:#000000;stroke-width:0.38372809;display:inline;enable-background:new"
         id="path2811-8" /></g></g></svg>