<?xml version="1.0" encoding="utf-8"?>
<!-- Generator: Adobe Illustrator 22.1.0, SVG Export Plug-In . SVG Version: 6.00 Build 0)  -->
<svg version="1.1" id="Layer_1" xmlns="http://www.w3.org/2000/svg" xmlns:xlink="http://www.w3.org/1999/xlink" x="0px" y="0px"
	 viewBox="0 0 1278 385.1" style="enable-background:new 0 0 1278 385.1;" xml:space="preserve">
<style type="text/css">
	.st0{fill:#FFFFFF;}
	.st1{display:none;}
	.st2{display:inline;fill:#DADADA;}
	.st3{display:inline;}
	.st4{fill:#E31D1B;}
	.st5{fill:#606060;}
	.st6{fill:none;stroke:#F1303F;stroke-width:3;stroke-miterlimit:10;}
	.st7{stroke:#000000;stroke-width:1.0091;stroke-miterlimit:10;}
	.st8{fill:#FFFFFF;stroke:#000000;stroke-width:1.0091;stroke-miterlimit:10;}
	.st9{font-family:'CenturyGothic-Bold';}
	.st10{font-size:52.5872px;}
	.st11{fill:none;stroke:#FFFFFF;stroke-width:1.0091;stroke-miterlimit:10;}
	.st12{enable-background:new    ;}
</style>
<rect class="st0" width="1278" height="385.1"/>
<g id="Layer_2_1_" class="st1">
	<rect x="-120" y="-38" class="st2" width="1490.5" height="709.4"/>
	<g class="st3">
		<path class="st0" d="M85.6,33.6c9-14.9-3-34.3-21-25.3c0-7.5-1.5-16.4-3-23.8c-16.5,13.4-27-7.5-37.5,0
			c-10.5,8.9,12,41.7,10.5,50.7c-9,52.2-51-4.5-63-11.9c1.5,40.2-28.5,76-58.5,98.4c-10.5,7.5-12,6-19.5,16.4
			c-6,7.5-10.5,19.4-12,26.8c-6,25.3,6,28.3,13.5,49.2c7.5,19.4-12,35.8,10.5,52.2c15,13.4,37.5,10.4,55.5,14.9
			c37.5,7.5,70.5,20.9,108,20.9c42,0,66-11.9,105,6c16.5,7.5,34.5,10.4,49.5,14.9c6,1.5,18,8.9,24,8.9c4.5,1.5,6,4.5,12,4.5
			c4.5-1.5,7.5-13.4,13.5-11.9c16.5,1.5,4.5,10.4,15,20.9c6,6,19.5,7.5,28.5,11.9c7.5,3,16.5,11.9,25.5,14.9
			c7.5,3,16.5-1.5,25.5,1.5c21,8.9,24,25.3,49.5,23.8c31.5-3,30-7.5,9,19.4c-15,19.4-21,44.7-7.5,64.1c12,16.4,9,4.5,24,13.4
			c10.5,6,19.5,10.4,12,23.8c10.5-20.9,72-14.9,46.5,6c21,6,43.5,11.9,63,20.9c15,6,31.5,11.9,46.5,7.5c0-25.3-73.5-13.4-69-44.7
			c24,31.3,22.5-34.3,40.5-8.9c7.5,10.4-22.5,17.9,6,19.4c9,0,9-22.4,27-3c1.5,0,1.5-3,3-4.5c15,11.9,27-7.5,42,6
			c4.5,3,15,49.2,27,16.4c4.5,3,9,3,12,4.5c10.5,8.9,18,16.4,18,32.8c12-4.5,7.5-16.4,13.5-26.8c4.5-7.5,15-16.4,24-20.9
			c6,14.9-13.5,40.2,3,49.2c7.5-4.5,18-13.4,22.5-14.9c6-4.5,1.5-8.9,12-10.4c7.5,0,13.5,7.5,19.5,8.9c10.5,4.5,24,4.5,33,10.4
			c3,1.5,0,10.4,7.5,14.9c4.5,3,13.5-1.5,13.5-1.5c22.5,10.4,31.5,25.3,34.5,47.7c3,13.4,28.5,70,28.5,31.3
			c19.5,10.4,18-53.7,18-68.6c15,3,19.5,31.3,22.5,44.7c1.5,7.5-1.5,20.9,6,26.8c13.5,8.9,12-11.9,7.5-17.9
			c15,20.9,30-10.4,13.5-23.8c3,0,19.5-1.5,19.5-1.5c12,7.5,4.5,11.9,9,17.9c7.5,8.9,16.5,23.8,31.5,17.9c4.5-3,25.5-23.8,28.5-26.8
			c9-14.9,10.5-22.4-6-34.3c13.5-6,12,4.5,19.5,6c1.5,0,27,7.5,24,4.5c15,14.9-1.5,40.2-7.5,55.1c16.5-13.4,24-44.7,40.5-50.7
			l25.5,6c12,8.9,13.5,19.4,30,23.8c15,4.5,34.5-4.5,49.5,0c16.5,4.5,27,19.4,43.5,20.9c28.5,1.5,19.5-8.9,0-19.4
			c-27-11.9-33-14.9-43.5-40.2c-1.5-6-22.5-49.2,1.5-35.8c9,6,7.5,40.2,16.5,50.7c9,10.4,19.5,7.5,30,13.4c12,6,18,17.9,30,20.9
			c1.5-7.5,1.5-14.9-1.5-20.9c4.5,4.5,12,8.9,18,11.9c6-35.8,4.5-47.7-16.5-76c24,6,15-29.8,18-41.7c4.5-17.9,7.5-17.9,4.5-32.8
			s-15-19.4,1.5-35.8c-33,29.8-24-29.8-22.5-46.2c1.5-31.3-16.5-29.8-24-56.6c-6-13.4-3-25.3-6-38.7c-3-16.4-15-23.8-25.5-37.3
			c-13.5-17.9-16.5-16.4-34.5-25.3c-13.5-6-15-6-22.5-20.9c-7.5,4.5-10.5,6-19.5,4.5c-9,17.9,10.5,14.9,16.5,25.3
			c6,10.4,1.5,22.4,7.5,31.3c3,6,19.5,7.5,25.5,17.9c4.5,8.9,4.5,19.4,1.5,26.8c-6-6-4.5-14.9-10.5-20.9c-9-11.9-12-11.9-24-19.4
			c-18-10.4-30-43.2-51-34.3c-1.5,25.3,33,38.8,34.5,65.6c-10.5,3-10.5,3-15,10.4c-6-1.5-13.5-1.5-19.5-4.5
			c-3,10.4-4.5,22.4-7.5,32.8c-18-11.9-46.5-19.4-31.5-49.2c4.5,29.8,30,26.8,34.5-1.5c-7.5,1.5-15-1.5-19.5-7.5
			c7.5-7.5,9-10.4,0-16.4c-9,11.9-24,3-27,20.9c-9-4.5-15-8.9-21-14.9c-6-4.5-3-17.9-19.5-16.4c-24,3,3,31.3,4.5,44.7
			c-22.5-31.3-36,8.9-27,29.8c4.5,10.4,19.5,13.4,21,22.4c3,11.9-24-3-33,3c-10.5-10.4-10.5-28.3-19.5-41.7
			c-12-16.4-25.5-29.8-43.5-38.7c-7.5,14.9,6,46.2,6,62.6c-10.5,1.5-22.5,3-33,0c0,17.9-18,28.3-27,8.9c-1.5,0-1.5,3-3,3
			c1.5-16.4-9-25.3-22.5-17.9c-4.5,19.4,0,62.6-31.5,61.1c1.5-6,1.5-14.9,1.5-22.4c-13.5-3-28.5-28.3-39,0
			c-25.5-11.9,16.5-62.6-19.5-61.1c1.5-7.5,6-19.4,4.5-29.8c-3,20.9-19.5,25.3-27,40.2c-7.5-10.4-16.5-19.4-30-23.8
			c-4.5,7.5-18,29.8-31.5,23.8s3-22.4,6-32.8c-18-22.4-24,29.8-40.5,34.3c-31.5,7.5-21-23.8-16.5-41.7c4.5-19.4,12-41.7-13.5-41.7
			c-15,0-40.5,26.8-37.5-4.5c-9,16.4-42,20.9-42-4.5c7.5-4.5,13.5-11.9,18-19.4c-22.5,13.4-61.5-4.5-58.5-32.8
			c-12-1.5-25.5-8.9-37.5-1.5c-6-13.4,12-40.2-10.5-44.7c-9,19.4-13.5-1.5-22.5,3c-10.5,3-19.5,16.4-31.5,14.9
			c4.5-7.5,10.5-17.9,6-26.8c-6,8.9-13.5,13.4-18,1.5c12-4.5,22.5-16.4,18-29.8c-9,4.5-39,23.8-28.5-7.5c33,6,0-59.6-10.5-4.5
			c0-22.4-7.5-1.5-13.5-3c-4.5-1.5-7.5,7.5-15,3c-4.5-4.5,3-11.9,1.5-14.9c-9-8.9,3-10.4-13.5-13.4c-10.5-1.5-19.5,4.5-27,10.4
			c6-10.4,31.5-16.4,16.5-34.3c-1.5-3-31.5-10.4-36-10.4c-9,3-18,31.3-33,20.9c-6-3-4.5-35.8-4.5-41.7c-13.5-1.5-22.5,7.5-31.5,17.9
			c-1.5-40.2,48-31.3,58.5-52.2c15-31.3-31.5-26.8-46.5-13.4c0-3,0-11.9,1.5-13.4c-16.5,8.9-9,35.8-22.5,47.7
			c-16.5,13.4-28.5-6-42-8.9c-7.5,10.4-7.5,22.4-19.5,29.8c-4.5,3-22.5,4.5-30,7.5c0-7.5-3-16.4-4.5-20.9c-9,10.4-12,16.4-28.5,19.4
			c-12,1.5-24-6-33,0L85.6,33.6L85.6,33.6L85.6,33.6z"/>
	</g>
</g>
<g>
	<g>
		<rect x="27.8" y="208.4" class="st4" width="340.7" height="10.3"/>
		<rect x="506.2" y="189.9" class="st4" width="171.9" height="10.3"/>
		<rect x="847.5" y="237.5" class="st4" width="63.7" height="10.3"/>
		<rect x="994.1" y="302.8" class="st4" width="26.9" height="10.3"/>
		<rect x="396.8" y="185.6" transform="matrix(0.5 -0.866 0.866 0.5 -1.477 464.9425)" class="st4" width="10.3" height="96.3"/>
		
			<rect x="425.5" y="220.5" transform="matrix(0.7401 -0.6725 0.6725 0.7401 -28.6711 377.1941)" class="st4" width="96.3" height="10.3"/>
		
			<rect x="775" y="272.3" transform="matrix(0.6029 -0.7978 0.7978 0.6029 105.5319 766.8832)" class="st4" width="96.3" height="10.3"/>
		
			<rect x="1007.3" y="251.6" transform="matrix(0.9011 -0.4336 0.4336 0.9011 0.1012 513.8585)" class="st4" width="238.5" height="10.3"/>
		
			<rect x="729" y="177.4" transform="matrix(0.6496 -0.7603 0.7603 0.6496 62.177 648.0429)" class="st4" width="10.3" height="158.3"/>
		
			<rect x="947.4" y="219.5" transform="matrix(0.6029 -0.7978 0.7978 0.6029 158.6242 869.2896)" class="st4" width="10.3" height="111.6"/>
	</g>
	<g>
		<path class="st4" d="M173.9,205.3c4.7,9.2,1,20.3-8.1,25s-20.3,1-25-8.1c-4.7-9.2-1-20.3,8.1-25
			C157.9,192.5,169.2,196.1,173.9,205.3z"/>
		<circle class="st0" cx="157.3" cy="213.7" r="13.5"/>
	</g>
	<g>
		<path class="st4" d="M309.8,205.3c4.7,9.2,1,20.3-8.1,25c-9.2,4.7-20.3,1-25-8.1c-4.7-9.2-1-20.3,8.1-25
			C294,192.5,305.1,196.2,309.8,205.3z"/>
		<circle class="st0" cx="293.2" cy="213.7" r="13.5"/>
	</g>
	<g>
		<path class="st4" d="M379.3,205.3c4.7,9.2,1,20.3-8.1,25c-9.2,4.7-20.3,1-25-8.1c-4.7-9.2-1-20.3,8.1-25S374.6,196.1,379.3,205.3z
			"/>
		<circle class="st0" cx="362.7" cy="213.7" r="13.5"/>
	</g>
	<g>
		<path class="st4" d="M681.2,189.1c4.7,9.2,1,20.3-8.1,25c-9.2,4.7-20.3,1-25-8.1c-4.7-9.2-1-20.3,8.1-25S676.5,179.9,681.2,189.1z
			"/>
		<path class="st0" d="M676.6,191.4c3.4,6.7,0.7,14.9-5.9,18.2c-6.7,3.4-14.9,0.7-18.3-6c-3.4-6.7-0.7-14.8,6-18.2
			S673.2,184.8,676.6,191.4z"/>
	</g>
	<g>
		<path class="st4" d="M760.8,256.1c4.7,9.2,1,20.3-8.1,25c-9.2,4.7-20.3,1-25-8.1c-4.7-9.2-1-20.3,8.1-25
			C745,243.3,756.2,246.9,760.8,256.1z"/>
		<path class="st0" d="M756.3,258.4c3.4,6.7,0.7,14.9-5.9,18.2c-6.7,3.4-14.9,0.7-18.3-6c-3.4-6.7-0.7-14.8,6-18.2
			C744.8,249.1,752.9,251.7,756.3,258.4z"/>
	</g>
	<g>
		<circle class="st4" cx="797.2" cy="307.7" r="18.6"/>
		<path class="st0" d="M809.3,301.6c3.4,6.7,0.7,14.9-5.9,18.2c-6.7,3.4-14.9,0.7-18.3-6c-3.4-6.7-0.7-14.9,6-18.3
			C797.8,292.3,805.9,294.9,809.3,301.6z"/>
	</g>
	<g>
		<path class="st4" d="M872.4,234.2c4.7,9.2,1,20.3-8.1,25c-9.2,4.7-20.3,1-25-8.1c-4.7-9.2-1-20.3,8.1-25
			C856.6,221.5,867.8,225.1,872.4,234.2z"/>
		<circle class="st0" cx="855.8" cy="242.7" r="13.5"/>
	</g>
	<g>
		<path class="st4" d="M943,252.8c4.7,9.2,1,20.3-8.1,25c-9.2,4.7-20.3,1-25-8.1s-1-20.3,8.1-25C927.1,240.1,938.3,243.7,943,252.8z
			"/>
		<circle class="st0" cx="926.4" cy="261.3" r="13.6"/>
	</g>
	<g>
		<path class="st4" d="M996,290.6c4.7,9.2,1,20.3-8.1,25c-9.2,4.7-20.3,1-25-8.1c-4.7-9.2-1-20.3,8.1-25S991.4,281.5,996,290.6z"/>
		<circle class="st0" cx="979.4" cy="299" r="13.6"/>
	</g>
	<g>
		<circle class="st4" cx="1068.7" cy="284.5" r="18.6"/>
		<circle class="st0" cx="1068.7" cy="284.5" r="13.5"/>
	</g>
	<g>
		<path class="st4" d="M1167.2,235.7c4.7,9.2,1,20.3-8.1,25c-9.2,4.7-20.3,1-25-8.1s-1-20.3,8.1-25
			C1151.3,222.9,1162.5,226.5,1167.2,235.7z"/>
		<circle class="st0" cx="1150.6" cy="244.1" r="13.5"/>
	</g>
	<g>
		<polygon class="st4" points="27.9,238.1 15.2,213.9 27.9,189.8 53.3,189.8 66,213.9 53.3,238.1 		"/>
		<polygon class="st0" points="31.9,230.3 23.3,213.9 31.9,197.5 49.2,197.5 57.8,213.9 49.2,230.3 		"/>
	</g>
	<g>
		<polygon class="st4" points="1231.9,221.6 1219.2,197.5 1231.9,173.3 1257.3,173.3 1269.9,197.5 1257.3,221.6 		"/>
		<polygon class="st0" points="1235.9,213.9 1227.3,197.5 1235.9,181.1 1253.2,181.1 1261.8,197.5 1253.2,213.9 		"/>
	</g>
	<g>
		<polygon class="st4" points="432.7,268.6 423,250.2 432.7,231.8 452.1,231.8 461.8,250.2 452.1,268.6 		"/>
		<polygon class="st0" points="435.8,262.7 429.2,250.2 435.8,237.7 449,237.7 455.6,250.2 449,262.7 		"/>
	</g>
	<g>
		<polygon class="st4" points="510.6,213.5 501,195 510.6,176.6 530,176.6 539.7,195 530,213.5 		"/>
		<polygon class="st0" points="513.7,207.6 507.2,195 513.7,182.5 526.9,182.5 533.5,195 526.9,207.6 		"/>
	</g>
</g>
<g>
	<g>
		<g>
			<path class="st5" d="M54.1,357.3c0.5,0,0.9,0.1,1.3,0.2c0.3,0.2,0.6,0.4,0.8,0.7c0.2,0.3,0.3,0.6,0.5,0.9
				c0.1,0.3,0.1,0.7,0.1,1.1c0,0.5-0.1,0.9-0.2,1.3c-0.2,0.4-0.3,0.7-0.6,0.9c-0.3,0.2-0.6,0.4-1,0.5s-0.8,0.2-1.3,0.2h-1v3.9h-2
				v-9.7H54.1L54.1,357.3z M53.5,361.7c0.4,0,0.7-0.1,0.9-0.3c0.2-0.2,0.3-0.6,0.3-1.1s-0.1-0.9-0.3-1.1s-0.6-0.4-1-0.4h-0.8v3h0.9
				V361.7z"/>
			<path class="st5" d="M61.5,357.3l2.6,9.7h-2l-0.5-2.1H59l-0.5,2.1h-2l2.6-9.7H61.5z M61.3,363.3l-0.9-4.4l0,0l-0.9,4.4H61.3z"/>
			<path class="st5" d="M68.4,357.3c0.8,0,1.4,0.2,1.9,0.6s0.7,1,0.7,1.9c0,0.6-0.1,1.2-0.4,1.6s-0.7,0.7-1.2,0.8l0,0
				c0.5,0.1,0.9,0.2,1.1,0.5c0.2,0.2,0.4,0.6,0.4,1.2c0,0.2,0,0.4,0,0.6s0,0.5,0,0.7c0,0.5,0.1,0.9,0.1,1.2c0.1,0.3,0.2,0.5,0.3,0.6
				v0.1h-2.1c-0.1-0.1-0.2-0.3-0.2-0.5s-0.1-0.3-0.1-0.5l-0.1-1.9c0-0.4-0.1-0.7-0.3-0.9c-0.2-0.2-0.5-0.3-0.9-0.3h-1v4.1h-2v-9.7
				L68.4,357.3L68.4,357.3z M67.5,361.5c0.5,0,0.8-0.1,1.1-0.3c0.3-0.2,0.4-0.6,0.4-1.1c0-0.9-0.5-1.3-1.4-1.3h-0.9v2.8L67.5,361.5
				L67.5,361.5z"/>
			<path class="st5" d="M76.6,357.3l2.6,9.7h-2l-0.5-2.1h-2.6l-0.5,2.1h-2l2.6-9.7H76.6z M76.4,363.3l-0.9-4.4l0,0l-0.9,4.4H76.4z"
				/>
			<path class="st5" d="M83.2,357.3c0.7,0,1.2,0.1,1.6,0.3c0.4,0.2,0.8,0.5,1,1c0.2,0.4,0.4,0.9,0.5,1.5s0.1,1.2,0.1,1.9
				c0,0.9-0.1,1.6-0.2,2.2s-0.3,1.2-0.5,1.6s-0.6,0.7-1,0.9c-0.4,0.2-1,0.3-1.6,0.3H80v-9.7L83.2,357.3L83.2,357.3z M82.8,365.6
				c0.3,0,0.6-0.1,0.8-0.2c0.2-0.1,0.4-0.3,0.5-0.6c0.1-0.3,0.2-0.6,0.2-1.1c0.1-0.5,0.1-1,0.1-1.7c0-0.6,0-1-0.1-1.4
				c0-0.4-0.1-0.8-0.2-1c-0.1-0.3-0.3-0.5-0.5-0.6s-0.5-0.2-0.9-0.2H82v6.8L82.8,365.6L82.8,365.6z"/>
			<path class="st5" d="M92,357.3l2.6,9.7h-2l-0.5-2.1h-2.6L89,367h-2l2.6-9.7H92z M91.8,363.3l-0.9-4.4l0,0l-0.9,4.4H91.8z"/>
			<path class="st5" d="M96.9,364.3c0,0.2,0,0.4,0.1,0.6c0,0.2,0.1,0.3,0.2,0.5c0.1,0.1,0.2,0.2,0.4,0.3s0.4,0.1,0.6,0.1
				c0.3,0,0.6-0.1,0.8-0.3c0.2-0.2,0.3-0.5,0.3-0.9c0-0.2,0-0.4-0.1-0.6s-0.2-0.3-0.3-0.4c-0.1-0.1-0.3-0.2-0.5-0.3
				c-0.2-0.1-0.5-0.2-0.8-0.3c-0.4-0.1-0.8-0.3-1.1-0.5c-0.3-0.2-0.6-0.4-0.8-0.6c-0.2-0.2-0.4-0.5-0.5-0.8s-0.2-0.6-0.2-1
				c0-1,0.3-1.7,0.8-2.1c0.5-0.5,1.3-0.7,2.2-0.7c0.4,0,0.8,0.1,1.2,0.1c0.4,0.1,0.7,0.2,1,0.5c0.3,0.2,0.5,0.5,0.6,0.8
				c0.2,0.3,0.2,0.7,0.2,1.2v0.3h-1.9c0-0.5-0.1-0.8-0.2-1.1c-0.2-0.2-0.4-0.4-0.8-0.4c-0.2,0-0.4,0-0.5,0.1s-0.3,0.1-0.3,0.2
				c-0.1,0.1-0.1,0.2-0.2,0.4c0,0.1-0.1,0.3-0.1,0.4c0,0.3,0.1,0.6,0.2,0.8c0.1,0.2,0.4,0.4,0.8,0.6l1.5,0.6
				c0.4,0.2,0.7,0.3,0.9,0.5c0.2,0.2,0.4,0.4,0.6,0.6c0.1,0.2,0.2,0.4,0.3,0.7c0.1,0.2,0.1,0.5,0.1,0.8c0,1-0.3,1.8-0.9,2.2
				c-0.6,0.5-1.4,0.7-2.5,0.7s-1.9-0.2-2.4-0.7s-0.7-1.2-0.7-2.1v-0.4h2L96.9,364.3L96.9,364.3z"/>
		</g>
	</g>
	<path class="st4" d="M29.1,369.6c-4.1,0-7.5-3.4-7.5-7.5s3.4-7.5,7.5-7.5s7.5,3.4,7.5,7.5S33.2,369.6,29.1,369.6z M29.1,358.1
		c-2.2,0-4,1.8-4,4s1.8,4,4,4s4-1.8,4-4S31.3,358.1,29.1,358.1z"/>
</g>
<g>
	<g>
		<g>
			<path class="st5" d="M56.3,331.3h-2.1v8.1h-2v-8.1h-2.1v-1.6h6.2L56.3,331.3L56.3,331.3z"/>
			<path class="st5" d="M62.6,331.3h-3.5v2.3h3.3v1.6h-3.3v2.6h3.6v1.6h-5.6v-9.7h5.4L62.6,331.3L62.6,331.3z"/>
			<path class="st5" d="M67.3,329.7c0.8,0,1.4,0.2,1.9,0.6s0.7,1,0.7,1.9c0,0.6-0.1,1.2-0.4,1.6s-0.7,0.7-1.2,0.8l0,0
				c0.5,0.1,0.9,0.2,1.1,0.5c0.2,0.2,0.4,0.6,0.4,1.2c0,0.2,0,0.4,0.1,0.6c0,0.2,0,0.5,0,0.7c0,0.5,0.1,0.9,0.1,1.2
				c0.1,0.3,0.2,0.5,0.3,0.6v0.1h-2.1c-0.1-0.1-0.2-0.3-0.2-0.5s-0.1-0.3-0.1-0.5l-0.1-1.9c0-0.4-0.1-0.7-0.3-0.9
				c-0.2-0.2-0.5-0.3-0.9-0.3h-1v4.1h-2v-9.7L67.3,329.7L67.3,329.7z M66.5,333.9c0.5,0,0.8-0.1,1.1-0.3s0.4-0.6,0.4-1.1
				c0-0.9-0.5-1.3-1.4-1.3h-0.9v2.8L66.5,333.9L66.5,333.9z"/>
			<path class="st5" d="M74.2,329.7l1.4,6.9l0,0l1.4-6.9h3v9.7h-1.8v-7.8l0,0l-1.7,7.8H75l-1.7-7.8l0,0v7.8h-1.8v-9.7H74.2z"/>
			<path class="st5" d="M81.5,329.7h2v9.7h-2V329.7z"/>
			<path class="st5" d="M89.5,336.3L89.5,336.3v-6.7h1.8v9.7h-2.2l-2.4-6.8l0,0v6.8h-1.8v-9.7h2.3L89.5,336.3z"/>
			<path class="st5" d="M97,329.7l2.6,9.7h-2l-0.5-2.1h-2.6l-0.5,2.1h-2l2.6-9.7H97z M96.7,335.7l-0.9-4.4l0,0l-0.9,4.4H96.7z"/>
			<path class="st5" d="M100.2,329.7h2v8.1h3.5v1.6h-5.4L100.2,329.7L100.2,329.7z"/>
			<path class="st5" d="M113.1,329.7c0.7,0,1.2,0.1,1.6,0.3c0.4,0.2,0.8,0.5,1,1c0.2,0.4,0.4,0.9,0.5,1.5s0.1,1.2,0.1,2
				c0,0.9-0.1,1.6-0.2,2.2s-0.3,1.2-0.5,1.6c-0.3,0.4-0.6,0.7-1,0.9c-0.4,0.2-1,0.3-1.6,0.3h-3.1v-9.7L113.1,329.7L113.1,329.7z
				 M112.7,337.9c0.3,0,0.6-0.1,0.8-0.2c0.2-0.1,0.4-0.3,0.5-0.6s0.2-0.6,0.2-1.1c0.1-0.5,0.1-1,0.1-1.7c0-0.6,0-1-0.1-1.4
				c0-0.4-0.1-0.8-0.2-1c-0.1-0.3-0.3-0.5-0.5-0.6s-0.5-0.2-0.9-0.2h-0.8v6.8L112.7,337.9L112.7,337.9z"/>
			<path class="st5" d="M123.1,331.3h-3.5v2.3h3.3v1.6h-3.3v2.6h3.6v1.6h-5.6v-9.7h5.4L123.1,331.3L123.1,331.3z"/>
			<path class="st5" d="M132.6,331.3h-2.1v8.1h-2v-8.1h-2.1v-1.6h6.2V331.3L132.6,331.3z"/>
			<path class="st5" d="M137.1,329.7c0.8,0,1.4,0.2,1.9,0.6s0.7,1,0.7,1.9c0,0.6-0.1,1.2-0.4,1.6c-0.3,0.4-0.7,0.7-1.2,0.8l0,0
				c0.5,0.1,0.9,0.2,1.1,0.5c0.2,0.2,0.4,0.6,0.4,1.2c0,0.2,0,0.4,0.1,0.6c0,0.2,0,0.5,0,0.7c0,0.5,0.1,0.9,0.1,1.2
				c0.1,0.3,0.2,0.5,0.3,0.6v0.1H138c-0.1-0.1-0.2-0.3-0.2-0.5s-0.1-0.3-0.1-0.5l-0.1-1.9c0-0.4-0.1-0.7-0.3-0.9
				c-0.2-0.2-0.5-0.3-0.9-0.3h-1v4.1h-2v-9.7L137.1,329.7L137.1,329.7z M136.3,333.9c0.5,0,0.8-0.1,1.1-0.3c0.2-0.2,0.4-0.6,0.4-1.1
				c0-0.9-0.5-1.3-1.4-1.3h-0.9v2.8L136.3,333.9L136.3,333.9z"/>
			<path class="st5" d="M145.4,329.7l2.6,9.7h-2l-0.5-2.1h-2.6l-0.5,2.1h-2l2.6-9.7H145.4z M145.1,335.7l-0.9-4.4l0,0l-0.9,4.4
				H145.1z"/>
			<path class="st5" d="M153.2,336.3L153.2,336.3v-6.7h1.8v9.7h-2.2l-2.4-6.8l0,0v6.8h-1.8v-9.7h2.3L153.2,336.3z"/>
			<path class="st5" d="M158,336.7c0,0.2,0,0.4,0.1,0.6c0,0.2,0.1,0.3,0.2,0.5c0.1,0.1,0.2,0.2,0.4,0.3c0.2,0.1,0.4,0.1,0.6,0.1
				c0.3,0,0.6-0.1,0.8-0.3c0.2-0.2,0.3-0.5,0.3-0.9c0-0.2,0-0.4-0.1-0.6s-0.2-0.3-0.3-0.4s-0.3-0.2-0.5-0.3
				c-0.2-0.1-0.5-0.2-0.8-0.3c-0.4-0.1-0.8-0.3-1.1-0.5s-0.6-0.4-0.8-0.6s-0.4-0.5-0.5-0.8s-0.2-0.6-0.2-1c0-1,0.3-1.7,0.8-2.1
				c0.5-0.5,1.3-0.7,2.2-0.7c0.4,0,0.8,0.1,1.2,0.1c0.4,0.1,0.7,0.2,0.9,0.5c0.3,0.2,0.5,0.5,0.6,0.8c0.2,0.3,0.2,0.7,0.2,1.2v0.3
				h-1.9c0-0.5-0.1-0.8-0.2-1.1c-0.2-0.2-0.4-0.4-0.8-0.4c-0.2,0-0.4,0-0.5,0.1s-0.3,0.2-0.3,0.2c-0.1,0.1-0.1,0.2-0.2,0.3
				c0,0.1-0.1,0.3-0.1,0.4c0,0.3,0.1,0.6,0.2,0.8c0.1,0.2,0.4,0.4,0.8,0.6l1.5,0.6c0.4,0.2,0.7,0.3,0.9,0.5s0.4,0.4,0.6,0.6
				c0.1,0.2,0.2,0.4,0.3,0.7c0.1,0.2,0.1,0.5,0.1,0.8c0,1-0.3,1.8-0.9,2.2c-0.6,0.5-1.4,0.7-2.5,0.7s-1.9-0.2-2.4-0.7
				s-0.7-1.2-0.7-2.1v-0.4h2L158,336.7L158,336.7z"/>
			<path class="st5" d="M168.9,329.7v1.6h-3.5v2.3h3.3v1.6h-3.3v4.2h-2v-9.7H168.9z"/>
			<path class="st5" d="M175.2,331.3h-3.5v2.3h3.3v1.6h-3.3v2.6h3.6v1.6h-5.6v-9.7h5.4v1.6H175.2z"/>
			<path class="st5" d="M180,329.7c0.8,0,1.4,0.2,1.9,0.6s0.7,1,0.7,1.9c0,0.6-0.1,1.2-0.4,1.6c-0.3,0.4-0.7,0.7-1.2,0.8l0,0
				c0.5,0.1,0.9,0.2,1.1,0.5c0.2,0.2,0.4,0.6,0.4,1.2c0,0.2,0,0.4,0.1,0.6c0,0.2,0,0.5,0,0.7c0,0.5,0.1,0.9,0.1,1.2
				c0.1,0.3,0.2,0.5,0.3,0.6v0.1h-2.1c-0.1-0.1-0.2-0.3-0.2-0.5s-0.1-0.3-0.1-0.5l-0.1-1.9c0-0.4-0.1-0.7-0.3-0.9
				c-0.2-0.2-0.5-0.3-0.9-0.3h-1v4.1h-2v-9.7L180,329.7L180,329.7z M179.1,333.9c0.5,0,0.8-0.1,1.1-0.3s0.4-0.6,0.4-1.1
				c0-0.9-0.5-1.3-1.4-1.3h-0.9v2.8L179.1,333.9L179.1,333.9z"/>
			<path class="st5" d="M189.4,331.3h-3.5v2.3h3.3v1.6h-3.3v2.6h3.6v1.6h-5.6v-9.7h5.4L189.4,331.3L189.4,331.3z"/>
			<path class="st5" d="M195.1,336.3L195.1,336.3v-6.7h1.8v9.7h-2.2l-2.4-6.8l0,0v6.8h-1.8v-9.7h2.3L195.1,336.3z"/>
			<path class="st5" d="M202.2,331.4c-0.2-0.3-0.5-0.5-0.9-0.5c-0.2,0-0.5,0.1-0.6,0.2c-0.2,0.1-0.3,0.3-0.4,0.6
				c-0.1,0.3-0.2,0.7-0.2,1.2s-0.1,1.1-0.1,1.7c0,0.7,0,1.3,0.1,1.8s0.1,0.8,0.2,1s0.2,0.4,0.4,0.5s0.3,0.1,0.6,0.1
				c0.2,0,0.3,0,0.5-0.1s0.3-0.2,0.4-0.3c0.1-0.2,0.2-0.4,0.3-0.8c0.1-0.3,0.1-0.8,0.1-1.3h2c0,0.5-0.1,1-0.1,1.5
				c-0.1,0.5-0.2,0.9-0.5,1.2c-0.2,0.3-0.5,0.6-0.9,0.8c-0.4,0.2-0.9,0.3-1.6,0.3c-0.7,0-1.3-0.1-1.7-0.3c-0.4-0.2-0.8-0.6-1-1
				c-0.2-0.5-0.4-1-0.5-1.6s-0.1-1.3-0.1-2s0-1.4,0.1-2s0.2-1.2,0.5-1.6c0.2-0.5,0.6-0.8,1-1s1-0.4,1.7-0.4s1.3,0.1,1.7,0.3
				c0.4,0.2,0.7,0.5,0.9,0.9c0.2,0.3,0.3,0.7,0.4,1.1c0.1,0.4,0.1,0.8,0.1,1.1h-2C202.4,332.3,202.3,331.7,202.2,331.4z"/>
			<path class="st5" d="M205.7,329.7h2v9.7h-2V329.7z"/>
			<path class="st5" d="M213.4,329.7l2.6,9.7h-2l-0.5-2.1h-2.6l-0.5,2.1h-2l2.6-9.7H213.4z M213.2,335.7l-0.9-4.4l0,0l-0.9,4.4
				H213.2z"/>
		</g>
	</g>
	<polygon class="st6" points="23.3,343.7 17.9,334.5 23.3,325.3 33.9,325.3 39.2,334.5 33.9,343.7 	"/>
</g>
<g>
	<polygon class="st7" points="1250.8,340.6 1230.4,352.7 1210,364.6 1220.2,341.3 1207.1,314.3 1230.5,328.5 	"/>
	<path class="st8" d="M1169.8,340.2c0,16,11.7,28.9,26.2,28.9s26.2-12.9,26.2-28.9s-11.7-28.9-26.2-28.9
		C1181.5,311.3,1169.8,324.2,1169.8,340.2z"/>
	<text transform="matrix(1 0 0 1 1177.3367 359.2144)" class="st9 st10">N</text>
	<text transform="matrix(1 0 0 1 1177.3367 359.2144)" class="st11 st9 st10">N</text>
</g>
<g class="st12">
	<path d="M1240.3,157.2v4.2h2.8v-4h2v4h3.2v-4.4h2v6.8h-11.8v-6.6H1240.3z"/>
	<path d="M1238.4,155.9v-2.4h9.9v-4.2h2v6.6H1238.4z"/>
	<path d="M1238.4,144.2v-2.4h9.9v-4.2h2v6.6H1238.4z"/>
	<path d="M1238.4,131.3l11.8-3.1v2.5l-2.5,0.5v3.1l2.5,0.5v2.5l-11.8-3.1V131.3z M1245.7,131.6l-5.3,1.1v0l5.3,1.1V131.6z"/>
	<path d="M1238.4,123.4c0-0.5,0-0.9,0.1-1.4c0.1-0.4,0.3-0.8,0.5-1.1c0.2-0.3,0.5-0.5,0.9-0.7c0.4-0.2,0.9-0.2,1.4-0.2
		c0.6,0,1.2,0.1,1.6,0.4c0.5,0.3,0.8,0.7,0.9,1.3h0c0.1-0.7,0.4-1.2,0.8-1.6c0.5-0.4,1.1-0.6,1.9-0.6c0.5,0,0.9,0.1,1.3,0.2
		c0.4,0.1,0.8,0.3,1.1,0.6c0.3,0.3,0.6,0.7,0.8,1.1c0.2,0.5,0.3,1.1,0.3,1.7v4h-11.8V123.4z M1243.2,124.3c0-0.7-0.1-1.1-0.4-1.4
		c-0.2-0.3-0.6-0.5-1.2-0.5s-1,0.1-1.2,0.4c-0.2,0.3-0.3,0.7-0.3,1.3v0.9h3.1V124.3z M1248.4,124c0-0.6-0.1-1-0.4-1.4
		c-0.3-0.4-0.7-0.5-1.4-0.5c-0.3,0-0.6,0-0.9,0.1s-0.4,0.2-0.5,0.4c-0.1,0.2-0.2,0.4-0.3,0.6c-0.1,0.2-0.1,0.5-0.1,0.7v1h3.6V124z"
		/>
	<path d="M1238.4,113.7c0-1,0.3-1.8,0.8-2.3s1.3-0.8,2.3-0.8c0.8,0,1.4,0.2,1.9,0.5c0.5,0.3,0.8,0.8,1,1.5h0c0.1-0.6,0.3-1,0.6-1.3
		c0.3-0.3,0.8-0.4,1.4-0.5c0.2,0,0.5,0,0.7,0c0.3,0,0.5,0,0.9,0c0.6,0,1.1-0.1,1.4-0.1c0.3-0.1,0.6-0.2,0.7-0.4h0.1v2.6
		c-0.2,0.1-0.4,0.2-0.6,0.2c-0.2,0-0.4,0.1-0.7,0.1l-2.3,0.1c-0.5,0-0.8,0.1-1.1,0.3c-0.3,0.2-0.4,0.6-0.4,1.1v1.3h5v2.4h-11.8
		V113.7z M1243.5,114.8c0-0.6-0.1-1-0.4-1.3c-0.3-0.3-0.7-0.5-1.4-0.5c-1.1,0-1.6,0.6-1.6,1.7v1.1h3.4V114.8z"/>
	<path d="M1238.4,103.7l11.8-3.1v2.5l-2.5,0.5v3.1l2.5,0.5v2.5l-11.8-3.1V103.7z M1245.7,104l-5.3,1.1v0l5.3,1.1V104z"/>
	<path d="M1238.4,95.7c0-0.8,0.1-1.5,0.4-2c0.3-0.5,0.7-0.9,1.2-1.2c0.5-0.3,1.1-0.5,1.8-0.6c0.7-0.1,1.5-0.1,2.4-0.1
		c1,0,1.9,0.1,2.7,0.2s1.4,0.3,1.9,0.7c0.5,0.3,0.9,0.7,1.1,1.2c0.2,0.5,0.4,1.2,0.4,2v3.8h-11.8V95.7z M1248.4,96.2
		c0-0.4-0.1-0.8-0.2-1s-0.4-0.5-0.7-0.6c-0.3-0.1-0.8-0.2-1.3-0.3c-0.5,0-1.2-0.1-2-0.1c-0.7,0-1.3,0-1.8,0.1
		c-0.5,0-0.9,0.1-1.3,0.3c-0.3,0.1-0.6,0.3-0.8,0.6c-0.2,0.3-0.3,0.6-0.3,1.1v1h8.3V96.2z"/>
	<path d="M1241.8,90.3c-0.8-0.1-1.4-0.3-1.9-0.5s-1-0.7-1.3-1.2c-0.3-0.5-0.5-1.2-0.5-2.1c0-0.9,0.2-1.6,0.5-2.1
		c0.3-0.5,0.7-0.9,1.3-1.2c0.5-0.3,1.2-0.5,1.9-0.5c0.8-0.1,1.6-0.1,2.5-0.1c0.9,0,1.7,0,2.5,0.1c0.8,0.1,1.4,0.3,1.9,0.5
		c0.5,0.3,1,0.7,1.2,1.2c0.3,0.5,0.4,1.2,0.4,2.1c0,0.9-0.1,1.6-0.4,2.1c-0.3,0.5-0.7,0.9-1.2,1.2s-1.2,0.5-1.9,0.5
		s-1.6,0.1-2.5,0.1C1243.4,90.5,1242.6,90.4,1241.8,90.3z M1246.3,88c0.6,0,1-0.1,1.4-0.2c0.3-0.1,0.6-0.3,0.8-0.5s0.2-0.5,0.2-0.9
		c0-0.4-0.1-0.6-0.2-0.9s-0.4-0.4-0.8-0.5s-0.8-0.2-1.4-0.2c-0.6,0-1.2-0.1-2-0.1c-0.8,0-1.5,0-2,0.1c-0.6,0-1,0.1-1.4,0.2
		s-0.6,0.3-0.8,0.5s-0.2,0.5-0.2,0.9c0,0.4,0.1,0.6,0.2,0.9s0.4,0.4,0.8,0.5c0.4,0.1,0.8,0.2,1.4,0.2c0.6,0,1.2,0.1,2,0.1
		C1245.1,88.1,1245.7,88.1,1246.3,88z"/>
	<path d="M1238.4,76.6c0-1,0.3-1.8,0.8-2.3s1.3-0.8,2.3-0.8c0.8,0,1.4,0.2,1.9,0.5c0.5,0.3,0.8,0.8,1,1.5h0c0.1-0.6,0.3-1,0.6-1.3
		c0.3-0.3,0.8-0.4,1.4-0.5c0.2,0,0.5,0,0.7,0c0.3,0,0.5,0,0.9,0c0.6,0,1.1-0.1,1.4-0.1c0.3-0.1,0.6-0.2,0.7-0.4h0.1v2.6
		c-0.2,0.1-0.4,0.2-0.6,0.2c-0.2,0-0.4,0.1-0.7,0.1l-2.3,0.1c-0.5,0-0.8,0.1-1.1,0.3c-0.3,0.2-0.4,0.6-0.4,1.1v1.3h5V81h-11.8V76.6z
		 M1243.5,77.6c0-0.6-0.1-1-0.4-1.3c-0.3-0.3-0.7-0.5-1.4-0.5c-1.1,0-1.6,0.6-1.6,1.7v1.1h3.4V77.6z"/>
</g>
<g class="st12">
	<path d="M1150.7,204.7c1.3,0,2.2,0.3,2.7,0.9s0.8,1.5,0.8,2.7c0,0.6-0.1,1.1-0.3,1.5c-0.2,0.4-0.4,0.7-0.7,1
		c-0.3,0.2-0.7,0.4-1.1,0.5s-0.9,0.1-1.3,0.1h-0.5v-2.2h0.4c0.6,0,1.1-0.1,1.4-0.2s0.5-0.4,0.5-0.9c0-0.4-0.2-0.7-0.5-0.9
		c-0.3-0.1-0.8-0.2-1.4-0.2h-8.4v-2.4H1150.7z"/>
	<path d="M1142.2,203.1v-2.4h11.8v2.4H1142.2z"/>
	<path d="M1142.2,194.7c0-0.6,0.1-1.1,0.3-1.5c0.2-0.4,0.5-0.7,0.8-1c0.3-0.3,0.7-0.4,1.1-0.5c0.4-0.1,0.9-0.2,1.3-0.2
		c0.6,0,1.1,0.1,1.6,0.3c0.5,0.2,0.8,0.4,1.1,0.8c0.3,0.3,0.5,0.7,0.6,1.2c0.1,0.5,0.2,1,0.2,1.5v1.3h4.7v2.4h-11.8V194.7z
		 M1147.6,195.5c0-0.5-0.1-0.9-0.4-1.2s-0.7-0.4-1.3-0.4c-0.6,0-1,0.1-1.4,0.4c-0.3,0.3-0.5,0.7-0.5,1.3v1h3.6V195.5z"/>
	<path d="M1142.2,190.2v-2.4h11.8v2.4H1142.2z"/>
	<path d="M1150.7,179.9c1.3,0,2.2,0.3,2.7,0.9c0.5,0.6,0.8,1.5,0.8,2.7c0,0.6-0.1,1.1-0.3,1.5c-0.2,0.4-0.4,0.7-0.7,1
		c-0.3,0.2-0.7,0.4-1.1,0.5s-0.9,0.1-1.3,0.1h-0.5v-2.2h0.4c0.6,0,1.1-0.1,1.4-0.2c0.3-0.1,0.5-0.4,0.5-0.9c0-0.4-0.2-0.7-0.5-0.9
		c-0.3-0.1-0.8-0.2-1.4-0.2h-8.4v-2.4H1150.7z"/>
	<path d="M1142.2,173.1l11.8-3.1v2.5l-2.5,0.5v3.1l2.5,0.5v2.5l-11.8-3.1V173.1z M1149.6,173.4l-5.3,1.1v0l5.3,1.1V173.4z"/>
	<path d="M1142.2,165c0-0.6,0.1-1.1,0.3-1.5c0.2-0.4,0.5-0.7,0.8-1c0.3-0.3,0.7-0.4,1.1-0.5c0.4-0.1,0.9-0.2,1.3-0.2
		c0.6,0,1.1,0.1,1.6,0.3c0.5,0.2,0.8,0.4,1.1,0.8c0.3,0.3,0.5,0.7,0.6,1.2c0.1,0.5,0.2,1,0.2,1.5v1.3h4.7v2.4h-11.8V165z
		 M1147.6,165.7c0-0.5-0.1-0.9-0.4-1.2s-0.7-0.4-1.3-0.4c-0.6,0-1,0.1-1.4,0.4c-0.3,0.3-0.5,0.7-0.5,1.3v1h3.6V165.7z"/>
	<path d="M1142.2,155.9l11.8-3.1v2.5l-2.5,0.5v3.1l2.5,0.5v2.5l-11.8-3.1V155.9z M1149.6,156.2l-5.3,1.1v0l5.3,1.1V156.2z"/>
</g>
<g class="st12">
	<path d="M1062.4,250.1v-2.4h11.8v2.4H1062.4z"/>
	<path d="M1060.1,244c-0.4-0.3-0.5-0.6-0.5-1c0-0.3,0-0.5,0.1-0.7l0.3-0.8c0.1-0.2,0.1-0.3,0.1-0.5c0-0.2-0.1-0.3-0.2-0.3
		c-0.1-0.1-0.3-0.1-0.4-0.1v-1.2c0.6,0.1,1.1,0.2,1.5,0.5c0.4,0.3,0.6,0.6,0.6,1c0,0.2,0,0.4-0.1,0.5c-0.1,0.2-0.1,0.4-0.2,0.5
		c-0.1,0.2-0.1,0.3-0.2,0.5s-0.1,0.3-0.1,0.4c0,0.3,0.2,0.4,0.6,0.5v1.2C1060.9,244.5,1060.4,244.3,1060.1,244z M1070.5,240.3
		L1070.5,240.3l-8.1,0V238h11.8v2.7l-8.3,2.9v0h8.3v2.2h-11.8v-2.8L1070.5,240.3z"/>
	<path d="M1062.4,231.1l11.8-3.1v2.5l-2.5,0.5v3.1l2.5,0.5v2.5l-11.8-3.1V231.1z M1069.8,231.4l-5.3,1.1v0l5.3,1.1V231.4z"/>
	<path d="M1074.3,221.7c0.1,0.4,0.2,1,0.2,1.6c0,0.9-0.1,1.6-0.4,2.1s-0.7,0.9-1.2,1.2s-1.2,0.5-1.9,0.5c-0.8,0.1-1.6,0.1-2.5,0.1
		c-0.9,0-1.7,0-2.5-0.1s-1.4-0.3-1.9-0.5s-1-0.7-1.3-1.2c-0.3-0.5-0.5-1.2-0.5-2.1c0-0.9,0.2-1.6,0.5-2.1c0.3-0.5,0.7-0.9,1.3-1.2
		c0.5-0.3,1.2-0.5,1.9-0.5c0.8-0.1,1.6-0.1,2.5-0.1c1,0,1.9,0.1,2.7,0.2c0.8,0.1,1.5,0.4,2.1,0.7l1.2-1.3l1.3,1.4L1074.3,221.7z
		 M1070.4,224.8c0.6,0,1-0.1,1.4-0.2c0.3-0.1,0.6-0.3,0.8-0.5c0.2-0.2,0.2-0.5,0.2-0.9c0-0.4-0.1-0.6-0.2-0.9s-0.4-0.4-0.8-0.5
		s-0.8-0.2-1.4-0.2c-0.6,0-1.2-0.1-2-0.1s-1.5,0-2,0.1c-0.6,0-1,0.1-1.4,0.2s-0.6,0.3-0.8,0.5s-0.2,0.5-0.2,0.9
		c0,0.4,0.1,0.6,0.2,0.9c0.2,0.2,0.4,0.4,0.8,0.5c0.4,0.1,0.8,0.2,1.4,0.2s1.2,0.1,2,0.1S1069.8,224.8,1070.4,224.8z"/>
	<path d="M1070.7,215.6c0.3,0,0.6,0,0.8-0.1c0.2,0,0.5-0.1,0.6-0.2c0.2-0.1,0.3-0.2,0.4-0.4c0.1-0.2,0.2-0.4,0.2-0.7
		c0-0.3-0.1-0.5-0.2-0.7c-0.1-0.2-0.2-0.3-0.4-0.4c-0.2-0.1-0.4-0.2-0.6-0.2c-0.2,0-0.5-0.1-0.8-0.1h-8.3v-2.4h8.3
		c0.8,0,1.4,0.1,1.9,0.3c0.5,0.2,0.9,0.5,1.2,0.8s0.5,0.8,0.6,1.2c0.1,0.5,0.2,0.9,0.2,1.4s0,1-0.1,1.4c-0.1,0.5-0.3,0.9-0.5,1.2
		c-0.3,0.4-0.7,0.6-1.2,0.8c-0.5,0.2-1.1,0.3-1.9,0.3h-8.3v-2.4H1070.7z"/>
	<path d="M1062.4,208.8v-2.4h11.8v2.4H1062.4z"/>
	<path d="M1064.4,197.7v2.6h9.9v2.4h-9.9v2.6h-2v-7.6H1064.4z"/>
	<path d="M1065.9,196.8c-0.8-0.1-1.4-0.3-1.9-0.5s-1-0.7-1.3-1.2c-0.3-0.5-0.5-1.2-0.5-2.1c0-0.9,0.2-1.6,0.5-2.1
		c0.3-0.5,0.7-0.9,1.3-1.2c0.5-0.3,1.2-0.5,1.9-0.5c0.8-0.1,1.6-0.1,2.5-0.1c0.9,0,1.7,0,2.5,0.1c0.8,0.1,1.4,0.3,1.9,0.5
		c0.5,0.3,1,0.7,1.2,1.2c0.3,0.5,0.4,1.2,0.4,2.1c0,0.9-0.1,1.6-0.4,2.1s-0.7,0.9-1.2,1.2s-1.2,0.5-1.9,0.5
		c-0.8,0.1-1.6,0.1-2.5,0.1C1067.4,196.9,1066.6,196.9,1065.9,196.8z M1070.4,194.5c0.6,0,1-0.1,1.4-0.2c0.3-0.1,0.6-0.3,0.8-0.5
		s0.2-0.5,0.2-0.9c0-0.4-0.1-0.6-0.2-0.9s-0.4-0.4-0.8-0.5s-0.8-0.2-1.4-0.2c-0.6,0-1.2-0.1-2-0.1s-1.5,0-2,0.1
		c-0.6,0-1,0.1-1.4,0.2s-0.6,0.3-0.8,0.5s-0.2,0.5-0.2,0.9c0,0.4,0.1,0.6,0.2,0.9s0.4,0.4,0.8,0.5c0.4,0.1,0.8,0.2,1.4,0.2
		s1.2,0.1,2,0.1S1069.8,194.5,1070.4,194.5z"/>
</g>
<g class="st12">
	<path d="M977,265.8v-2.4h9.9v-4.2h2v6.6H977z"/>
	<path d="M977,252.9l11.8-3.1v2.5l-2.5,0.5v3.1l2.5,0.5v2.5l-11.8-3.1V252.9z M984.4,253.2l-5.3,1.1v0l5.3,1.1V253.2z"/>
	<path d="M979.1,240.2c-0.4,0.2-0.6,0.6-0.6,1.1c0,0.3,0.1,0.5,0.2,0.7s0.4,0.3,0.8,0.5c0.4,0.1,0.8,0.2,1.4,0.2
		c0.6,0,1.3,0.1,2.1,0.1c0.9,0,1.6,0,2.2-0.1c0.6-0.1,1-0.2,1.3-0.3c0.3-0.1,0.5-0.3,0.6-0.5c0.1-0.2,0.2-0.4,0.2-0.7
		c0-0.2,0-0.4-0.1-0.6s-0.2-0.3-0.4-0.5c-0.2-0.1-0.5-0.2-0.9-0.3c-0.4-0.1-0.9-0.1-1.5-0.1v-2.4c0.6,0,1.2,0,1.8,0.1
		s1.1,0.3,1.5,0.6c0.4,0.3,0.8,0.7,1,1.1c0.2,0.5,0.4,1.1,0.4,1.9c0,0.9-0.1,1.6-0.4,2.1c-0.3,0.5-0.7,0.9-1.2,1.2s-1.2,0.5-1.9,0.5
		s-1.6,0.1-2.5,0.1c-0.9,0-1.7,0-2.5-0.1c-0.8-0.1-1.4-0.3-1.9-0.5s-1-0.7-1.3-1.2s-0.5-1.2-0.5-2.1c0-0.8,0.1-1.5,0.4-2
		c0.3-0.5,0.6-0.9,1.1-1.1c0.4-0.2,0.9-0.4,1.4-0.5c0.5-0.1,1-0.1,1.4-0.1v2.4C980.2,239.9,979.5,240,979.1,240.2z"/>
	<path d="M977,230.8l11.8-3.1v2.5l-2.5,0.5v3.1l2.5,0.5v2.5l-11.8-3.1V230.8z M984.4,231.1l-5.3,1.1v0l5.3,1.1V231.1z"/>
	<path d="M977,222.4c0-1,0.3-1.8,0.8-2.3c0.5-0.6,1.3-0.8,2.3-0.8c0.8,0,1.4,0.2,1.9,0.5s0.8,0.8,1,1.5h0c0.1-0.6,0.3-1,0.6-1.3
		c0.3-0.3,0.8-0.4,1.4-0.5c0.2,0,0.5,0,0.7,0c0.3,0,0.5,0,0.9,0c0.6,0,1.1-0.1,1.4-0.1c0.3-0.1,0.6-0.2,0.7-0.4h0.1v2.6
		c-0.2,0.1-0.4,0.2-0.6,0.2c-0.2,0-0.4,0.1-0.7,0.1l-2.3,0.1c-0.5,0-0.8,0.1-1.1,0.3c-0.3,0.2-0.4,0.6-0.4,1.1v1.3h5v2.4H977V222.4z
		 M982.2,223.4c0-0.6-0.1-1-0.4-1.3c-0.3-0.3-0.7-0.5-1.4-0.5c-1.1,0-1.6,0.6-1.6,1.7v1.1h3.4V223.4z"/>
	<path d="M980.5,217.7c-0.8-0.1-1.4-0.3-1.9-0.5c-0.5-0.3-1-0.7-1.3-1.2c-0.3-0.5-0.5-1.2-0.5-2.1c0-0.9,0.2-1.6,0.5-2.1
		c0.3-0.5,0.7-0.9,1.3-1.2s1.2-0.5,1.9-0.5c0.8-0.1,1.6-0.1,2.5-0.1c0.9,0,1.7,0,2.5,0.1c0.8,0.1,1.4,0.3,1.9,0.5s1,0.7,1.2,1.2
		c0.3,0.5,0.4,1.2,0.4,2.1c0,0.9-0.1,1.6-0.4,2.1c-0.3,0.5-0.7,0.9-1.2,1.2c-0.5,0.3-1.2,0.5-1.9,0.5c-0.8,0.1-1.6,0.1-2.5,0.1
		C982,217.8,981.2,217.8,980.5,217.7z M985,215.4c0.6,0,1-0.1,1.4-0.2c0.3-0.1,0.6-0.3,0.8-0.5s0.2-0.5,0.2-0.9
		c0-0.4-0.1-0.6-0.2-0.9c-0.2-0.2-0.4-0.4-0.8-0.5c-0.3-0.1-0.8-0.2-1.4-0.2c-0.6,0-1.2-0.1-2-0.1c-0.8,0-1.5,0-2,0.1
		c-0.6,0-1,0.1-1.4,0.2c-0.4,0.1-0.6,0.3-0.8,0.5c-0.2,0.2-0.2,0.5-0.2,0.9c0,0.4,0.1,0.6,0.2,0.9s0.4,0.4,0.8,0.5
		c0.4,0.1,0.8,0.2,1.4,0.2c0.6,0,1.2,0.1,2,0.1C983.7,215.5,984.4,215.4,985,215.4z"/>
	<path d="M977,208.4V206h9.9v-4.2h2v6.6H977z"/>
	<path d="M977,200.6v-2.4h11.8v2.4H977z"/>
	<path d="M985.1,190.8L985.1,190.8l-8.1,0v-2.2h11.8v2.7l-8.3,2.9v0h8.3v2.2H977v-2.7L985.1,190.8z"/>
	<path d="M977,181.7l11.8-3.1v2.5l-2.5,0.5v3.1l2.5,0.5v2.5l-11.8-3.1V181.7z M984.4,182l-5.3,1.1v0l5.3,1.1V182z"/>
</g>
<g class="st12">
	<path d="M923.6,227.9v-2.4h9.9v-4.2h2v6.6H923.6z"/>
	<path d="M923.6,214.9l11.8-3.1v2.5l-2.5,0.5v3.1l2.5,0.5v2.5l-11.8-3.1V214.9z M930.9,215.2l-5.3,1.1v0l5.3,1.1V215.2z"/>
	<path d="M923.6,202.8c0-0.6,0.1-1.1,0.3-1.5c0.2-0.4,0.5-0.7,0.8-1c0.3-0.3,0.7-0.4,1.1-0.5c0.4-0.1,0.9-0.2,1.3-0.2
		c0.6,0,1.1,0.1,1.6,0.3s0.8,0.4,1.1,0.8s0.5,0.7,0.6,1.2c0.1,0.5,0.2,1,0.2,1.5v1.3h4.7v2.4h-11.8V202.8z M928.9,203.6
		c0-0.5-0.1-0.9-0.4-1.2s-0.7-0.4-1.3-0.4c-0.6,0-1,0.1-1.4,0.4c-0.3,0.3-0.5,0.7-0.5,1.3v1h3.6V203.6z"/>
	<path d="M923.6,194c0-1,0.3-1.8,0.8-2.3s1.3-0.8,2.3-0.8c0.8,0,1.4,0.2,1.9,0.5c0.5,0.3,0.8,0.8,1,1.5h0c0.1-0.6,0.3-1,0.6-1.3
		c0.3-0.3,0.8-0.4,1.4-0.5c0.2,0,0.5,0,0.7,0c0.3,0,0.5,0,0.9,0c0.6,0,1.1-0.1,1.4-0.1c0.3-0.1,0.6-0.2,0.7-0.4h0.1v2.6
		c-0.2,0.1-0.4,0.2-0.6,0.2c-0.2,0-0.4,0.1-0.7,0.1l-2.3,0.1c-0.5,0-0.8,0.1-1.1,0.3c-0.3,0.2-0.4,0.6-0.4,1.1v1.3h5v2.4h-11.8V194z
		 M928.7,195c0-0.6-0.1-1-0.4-1.3c-0.3-0.3-0.7-0.5-1.4-0.5c-1.1,0-1.6,0.6-1.6,1.7v1.1h3.4V195z"/>
	<path d="M923.6,183.9l11.8-3.1v2.5l-2.5,0.5v3.1l2.5,0.5v2.5l-11.8-3.1V183.9z M930.9,184.3l-5.3,1.1v0l5.3,1.1V184.3z"/>
	<path d="M923.6,176c0-0.8,0.1-1.5,0.4-2c0.3-0.5,0.7-0.9,1.2-1.2c0.5-0.3,1.1-0.5,1.8-0.6c0.7-0.1,1.5-0.1,2.4-0.1
		c1,0,1.9,0.1,2.7,0.2s1.4,0.3,1.9,0.7c0.5,0.3,0.9,0.7,1.1,1.2c0.2,0.5,0.4,1.2,0.4,2v3.8h-11.8V176z M933.6,176.4
		c0-0.4-0.1-0.8-0.2-1s-0.4-0.5-0.7-0.6c-0.3-0.1-0.8-0.2-1.3-0.3c-0.5,0-1.2-0.1-2-0.1c-0.7,0-1.3,0-1.8,0.1
		c-0.5,0-0.9,0.1-1.3,0.3c-0.3,0.1-0.6,0.3-0.8,0.6c-0.2,0.3-0.3,0.6-0.3,1.1v1h8.3V176.4z"/>
	<path d="M925.5,163.9v4.2h2.8v-4h2v4h3.2v-4.4h2v6.8h-11.8v-6.6H925.5z"/>
	<path d="M923.6,158.1c0-1,0.3-1.8,0.8-2.3s1.3-0.8,2.3-0.8c0.8,0,1.4,0.2,1.9,0.5c0.5,0.3,0.8,0.8,1,1.5h0c0.1-0.6,0.3-1,0.6-1.3
		c0.3-0.3,0.8-0.4,1.4-0.5c0.2,0,0.5,0,0.7,0c0.3,0,0.5,0,0.9,0c0.6,0,1.1-0.1,1.4-0.1c0.3-0.1,0.6-0.2,0.7-0.4h0.1v2.6
		c-0.2,0.1-0.4,0.2-0.6,0.2c-0.2,0-0.4,0.1-0.7,0.1l-2.3,0.1c-0.5,0-0.8,0.1-1.1,0.3c-0.3,0.2-0.4,0.6-0.4,1.1v1.3h5v2.4h-11.8
		V158.1z M928.7,159.1c0-0.6-0.1-1-0.4-1.3c-0.3-0.3-0.7-0.5-1.4-0.5c-1.1,0-1.6,0.6-1.6,1.7v1.1h3.4V159.1z"/>
	<path d="M923.6,148l11.8-3.1v2.5l-2.5,0.5v3.1l2.5,0.5v2.5l-11.8-3.1V148z M930.9,148.3l-5.3,1.1v0l5.3,1.1V148.3z"/>
</g>
<g class="st12">
	<path d="M847.7,205.6c0.3,0,0.6,0,0.8-0.1c0.2,0,0.5-0.1,0.6-0.2c0.2-0.1,0.3-0.2,0.4-0.4c0.1-0.2,0.2-0.4,0.2-0.7
		c0-0.3-0.1-0.5-0.2-0.7c-0.1-0.2-0.2-0.3-0.4-0.4c-0.2-0.1-0.4-0.2-0.6-0.2c-0.2,0-0.5-0.1-0.8-0.1h-8.3v-2.4h8.3
		c0.8,0,1.4,0.1,1.9,0.3c0.5,0.2,0.9,0.5,1.2,0.8s0.5,0.8,0.6,1.2c0.1,0.5,0.1,0.9,0.1,1.4c0,0.5,0,1-0.1,1.4s-0.3,0.9-0.5,1.2
		s-0.7,0.6-1.2,0.8s-1.1,0.3-1.9,0.3h-8.3v-2.4H847.7z"/>
	<path d="M847.6,193.3L847.6,193.3l-8.1,0v-2.2h11.8v2.7l-8.3,2.9v0h8.3v2.2h-11.8v-2.8L847.6,193.3z"/>
	<path d="M839.5,189.3v-2.4h11.8v2.4H839.5z"/>
	<path d="M848.2,181.7L848.2,181.7l-8.7-1.8v-2.5l11.8,2.7v3.1l-11.8,2.7v-2.6L848.2,181.7z"/>
	<path d="M841.4,169.9v4.2h2.8v-4h2v4h3.2v-4.4h2v6.8h-11.8v-6.6H841.4z"/>
	<path d="M839.5,164.2c0-1,0.3-1.8,0.8-2.3s1.3-0.8,2.3-0.8c0.8,0,1.4,0.2,1.9,0.5c0.5,0.3,0.8,0.8,1,1.5h0c0.1-0.6,0.3-1,0.6-1.3
		c0.3-0.3,0.8-0.4,1.4-0.5c0.2,0,0.5,0,0.7,0c0.3,0,0.5,0,0.9,0c0.6,0,1.1-0.1,1.4-0.1c0.3-0.1,0.6-0.2,0.7-0.4h0.1v2.6
		c-0.2,0.1-0.4,0.2-0.6,0.2c-0.2,0-0.4,0.1-0.7,0.1l-2.3,0.1c-0.5,0-0.8,0.1-1.1,0.3c-0.3,0.2-0.4,0.6-0.4,1.1v1.3h5v2.4h-11.8
		V164.2z M844.6,165.2c0-0.6-0.1-1-0.4-1.3c-0.3-0.3-0.7-0.5-1.4-0.5c-1.1,0-1.6,0.6-1.6,1.7v1.1h3.4V165.2z"/>
	<path d="M848,157.5c0.3,0,0.5,0,0.8-0.1s0.4-0.1,0.6-0.2c0.2-0.1,0.3-0.3,0.4-0.5c0.1-0.2,0.1-0.5,0.1-0.8c0-0.4-0.1-0.7-0.4-1
		c-0.2-0.3-0.6-0.4-1.1-0.4c-0.3,0-0.5,0-0.7,0.1s-0.4,0.2-0.5,0.4s-0.3,0.4-0.4,0.7c-0.1,0.3-0.3,0.6-0.4,1c-0.2,0.5-0.4,1-0.6,1.4
		c-0.2,0.4-0.5,0.7-0.7,1c-0.3,0.3-0.6,0.5-1,0.6s-0.8,0.2-1.3,0.2c-1.2,0-2-0.3-2.6-1c-0.6-0.7-0.9-1.5-0.9-2.7
		c0-0.5,0.1-1,0.2-1.5c0.1-0.4,0.3-0.8,0.6-1.2c0.3-0.3,0.6-0.6,1-0.8s0.9-0.3,1.5-0.3h0.3v2.3c-0.6,0-1,0.1-1.3,0.3s-0.5,0.5-0.5,1
		c0,0.3,0,0.5,0.1,0.7c0.1,0.2,0.2,0.3,0.3,0.4c0.1,0.1,0.3,0.2,0.4,0.2c0.2,0,0.3,0.1,0.5,0.1c0.4,0,0.7-0.1,0.9-0.2
		c0.2-0.2,0.5-0.5,0.7-1l0.8-1.8c0.2-0.5,0.4-0.8,0.6-1.1c0.2-0.3,0.4-0.5,0.7-0.7c0.2-0.2,0.5-0.3,0.8-0.4c0.3-0.1,0.6-0.1,1-0.1
		c1.2,0,2.2,0.4,2.7,1.1c0.6,0.7,0.9,1.7,0.9,3c0,1.3-0.3,2.3-0.9,2.9c-0.6,0.6-1.4,0.9-2.5,0.9h-0.5v-2.4H848z"/>
	<path d="M839.5,150.7v-2.4h11.8v2.4H839.5z"/>
	<path d="M839.5,142.5c0-0.8,0.1-1.5,0.4-2c0.3-0.5,0.7-0.9,1.2-1.2c0.5-0.3,1.1-0.5,1.8-0.6c0.7-0.1,1.5-0.1,2.4-0.1
		c1,0,1.9,0.1,2.7,0.2s1.4,0.3,1.9,0.7c0.5,0.3,0.9,0.7,1.1,1.2c0.2,0.5,0.4,1.2,0.4,2v3.8h-11.8V142.5z M849.5,142.9
		c0-0.4-0.1-0.8-0.2-1s-0.4-0.5-0.7-0.6c-0.3-0.1-0.8-0.2-1.3-0.3c-0.5,0-1.2-0.1-2-0.1c-0.7,0-1.3,0-1.8,0.1
		c-0.5,0-0.9,0.1-1.3,0.3c-0.3,0.1-0.6,0.3-0.8,0.6c-0.2,0.3-0.3,0.6-0.3,1.1v1h8.3V142.9z"/>
	<path d="M839.5,131.7l11.8-3.1v2.5l-2.5,0.5v3.1l2.5,0.5v2.5l-11.8-3.1V131.7z M846.8,132.1l-5.3,1.1v0l5.3,1.1V132.1z"/>
	<path d="M839.5,123.8c0-0.8,0.1-1.5,0.4-2c0.3-0.5,0.7-0.9,1.2-1.2c0.5-0.3,1.1-0.5,1.8-0.6c0.7-0.1,1.5-0.1,2.4-0.1
		c1,0,1.9,0.1,2.7,0.2s1.4,0.3,1.9,0.7c0.5,0.3,0.9,0.7,1.1,1.2c0.2,0.5,0.4,1.2,0.4,2v3.8h-11.8V123.8z M849.5,124.2
		c0-0.4-0.1-0.8-0.2-1s-0.4-0.5-0.7-0.6c-0.3-0.1-0.8-0.2-1.3-0.3c-0.5,0-1.2-0.1-2-0.1c-0.7,0-1.3,0-1.8,0.1
		c-0.5,0-0.9,0.1-1.3,0.3c-0.3,0.1-0.6,0.3-0.8,0.6c-0.2,0.3-0.3,0.6-0.3,1.1v1h8.3V124.2z"/>
</g>
<g class="st12">
	<path d="M861.5,203.1c-0.4,0.2-0.6,0.6-0.6,1.1c0,0.3,0.1,0.5,0.2,0.7s0.4,0.3,0.8,0.5c0.4,0.1,0.8,0.2,1.4,0.2
		c0.6,0,1.3,0.1,2.1,0.1c0.9,0,1.6,0,2.2-0.1c0.6-0.1,1-0.2,1.3-0.3c0.3-0.1,0.5-0.3,0.6-0.5c0.1-0.2,0.2-0.4,0.2-0.7
		c0-0.2,0-0.4-0.1-0.6s-0.2-0.3-0.4-0.5c-0.2-0.1-0.5-0.2-0.9-0.3c-0.4-0.1-0.9-0.1-1.5-0.1v-2.4c0.6,0,1.2,0,1.8,0.1
		s1.1,0.3,1.5,0.6c0.4,0.3,0.8,0.7,1,1.1c0.2,0.5,0.4,1.1,0.4,1.9c0,0.9-0.1,1.6-0.4,2.1c-0.3,0.5-0.7,0.9-1.2,1.2s-1.2,0.5-1.9,0.5
		s-1.6,0.1-2.5,0.1c-0.9,0-1.7,0-2.5-0.1c-0.8-0.1-1.4-0.3-1.9-0.5s-1-0.7-1.3-1.2s-0.5-1.2-0.5-2.1c0-0.8,0.1-1.5,0.4-2
		c0.3-0.5,0.6-0.9,1.1-1.1c0.4-0.2,0.9-0.4,1.4-0.5c0.5-0.1,1-0.1,1.4-0.1v2.4C862.5,202.8,861.9,202.9,861.5,203.1z"/>
	<path d="M861.3,192.3v4.2h2.8v-4h2v4h3.2v-4.4h2v6.8h-11.8v-6.6H861.3z"/>
	<path d="M867.5,185.4L867.5,185.4l-8.1,0v-2.2h11.8v2.7l-8.3,2.9v0h8.3v2.2h-11.8v-2.8L867.5,185.4z"/>
	<path d="M861.3,174.6v2.6h9.9v2.4h-9.9v2.6h-2v-7.6H861.3z"/>
	<path d="M859.4,169.1c0-1,0.3-1.8,0.8-2.3s1.3-0.8,2.3-0.8c0.8,0,1.4,0.2,1.9,0.5c0.5,0.3,0.8,0.8,1,1.5h0c0.1-0.6,0.3-1,0.6-1.3
		c0.3-0.3,0.8-0.4,1.4-0.5c0.2,0,0.5,0,0.7,0c0.3,0,0.5,0,0.9,0c0.6,0,1.1-0.1,1.4-0.1c0.3-0.1,0.6-0.2,0.7-0.4h0.1v2.6
		c-0.2,0.1-0.4,0.2-0.6,0.2c-0.2,0-0.4,0.1-0.7,0.1l-2.3,0.1c-0.5,0-0.8,0.1-1.1,0.3c-0.3,0.2-0.4,0.6-0.4,1.1v1.3h5v2.4h-11.8
		V169.1z M864.5,170.1c0-0.6-0.1-1-0.4-1.3c-0.3-0.3-0.7-0.5-1.4-0.5c-1.1,0-1.6,0.6-1.6,1.7v1.1h3.4V170.1z"/>
	<path d="M859.4,159.1l11.8-3.1v2.5l-2.5,0.5v3.1l2.5,0.5v2.5l-11.8-3.1V159.1z M866.7,159.4l-5.3,1.1v0l5.3,1.1V159.4z"/>
	<path d="M859.4,155.1v-2.4h9.9v-4.2h2v6.6H859.4z"/>
</g>
<g class="st12">
	<path d="M795,256.2v4.2h2.8v-4h2v4h3.2V256h2v6.8h-11.8v-6.6H795z"/>
	<path d="M793.1,254.8v-2.4h9.9v-4.2h2v6.6H793.1z"/>
	<path d="M795,236.6v4.2h2.8v-4h2v4h3.2v-4.4h2v6.8h-11.8v-6.6H795z"/>
	<path d="M801.6,229.1c1.3,0,2.2,0.3,2.7,0.9c0.5,0.6,0.8,1.5,0.8,2.7c0,0.6-0.1,1.1-0.3,1.5c-0.2,0.4-0.4,0.7-0.7,1
		c-0.3,0.2-0.7,0.4-1.1,0.5c-0.4,0.1-0.9,0.1-1.3,0.1h-0.5v-2.2h0.4c0.6,0,1.1-0.1,1.4-0.2c0.3-0.1,0.5-0.4,0.5-0.9
		c0-0.4-0.2-0.7-0.5-0.9c-0.3-0.1-0.8-0.2-1.4-0.2h-8.4v-2.4H801.6z"/>
	<path d="M793.1,227.4V225h11.8v2.4H793.1z"/>
	<path d="M793.1,219.2c0-0.8,0.1-1.5,0.4-2c0.3-0.5,0.7-0.9,1.2-1.2c0.5-0.3,1.1-0.5,1.8-0.6s1.5-0.1,2.4-0.1c1,0,1.9,0.1,2.7,0.2
		s1.4,0.3,1.9,0.7c0.5,0.3,0.9,0.7,1.1,1.2c0.2,0.5,0.4,1.2,0.4,2v3.8h-11.8V219.2z M803.1,219.7c0-0.4-0.1-0.8-0.2-1
		s-0.4-0.5-0.7-0.6c-0.3-0.1-0.8-0.2-1.3-0.3c-0.5,0-1.2-0.1-2-0.1c-0.7,0-1.3,0-1.8,0.1c-0.5,0-0.9,0.1-1.3,0.3
		c-0.3,0.1-0.6,0.3-0.8,0.6c-0.2,0.3-0.3,0.6-0.3,1.1v1h8.3V219.7z"/>
	<path d="M796.5,213.9c-0.8-0.1-1.4-0.3-1.9-0.5s-1-0.7-1.3-1.2c-0.3-0.5-0.5-1.2-0.5-2.1s0.2-1.6,0.5-2.1s0.7-0.9,1.3-1.2
		s1.2-0.5,1.9-0.5c0.8-0.1,1.6-0.1,2.5-0.1c0.9,0,1.7,0,2.5,0.1c0.8,0.1,1.4,0.3,1.9,0.5s1,0.7,1.2,1.2c0.3,0.5,0.4,1.2,0.4,2.1
		s-0.1,1.6-0.4,2.1c-0.3,0.5-0.7,0.9-1.2,1.2s-1.2,0.5-1.9,0.5s-1.6,0.1-2.5,0.1C798.1,214,797.3,213.9,796.5,213.9z M801,211.5
		c0.6,0,1-0.1,1.4-0.2c0.3-0.1,0.6-0.3,0.8-0.5c0.2-0.2,0.2-0.5,0.2-0.9s-0.1-0.6-0.2-0.9s-0.4-0.4-0.8-0.5s-0.8-0.2-1.4-0.2
		s-1.2-0.1-2-0.1c-0.8,0-1.5,0-2,0.1c-0.6,0-1,0.1-1.4,0.2s-0.6,0.3-0.8,0.5s-0.2,0.5-0.2,0.9s0.1,0.6,0.2,0.9
		c0.2,0.2,0.4,0.4,0.8,0.5c0.4,0.1,0.8,0.2,1.4,0.2c0.6,0,1.2,0.1,2,0.1C799.8,211.6,800.5,211.6,801,211.5z"/>
</g>
<g class="st12">
	<path d="M740.2,223.9v-2.4h9.9v-4.2h2v6.6H740.2z"/>
	<path d="M740.2,210.9l11.8-3.1v2.5l-2.5,0.5v3.1l2.5,0.5v2.5l-11.8-3.1V210.9z M747.6,211.2l-5.3,1.1v0l5.3,1.1V211.2z"/>
	<path d="M740.2,198.4l11.8-3.1v2.5l-2.5,0.5v3.1l2.5,0.5v2.5l-11.8-3.1V198.4z M747.6,198.7l-5.3,1.1v0l5.3,1.1V198.7z"/>
	<path d="M740.2,194.4V192h9.9v-4.2h2v6.6H740.2z"/>
	<path d="M740.2,181.5l11.8-3.1v2.5l-2.5,0.5v3.1l2.5,0.5v2.5l-11.8-3.1V181.5z M747.6,181.8l-5.3,1.1v0l5.3,1.1V181.8z"/>
	<path d="M740.2,173.9l8.3-1.7v0l-8.3-1.7V167h11.8v2.2h-9.4v0l9.4,2.1v1.9l-9.4,2.1v0h9.4v2.2h-11.8V173.9z"/>
	<path d="M742.2,158.6v4.2h2.8v-4h2v4h3.2v-4.4h2v6.8h-11.8v-6.6H742.2z"/>
	<path d="M740.2,153.3c0-0.8,0.1-1.5,0.4-2c0.3-0.5,0.7-0.9,1.2-1.2c0.5-0.3,1.1-0.5,1.8-0.6c0.7-0.1,1.5-0.1,2.4-0.1
		c1,0,1.9,0.1,2.7,0.2s1.4,0.3,1.9,0.7c0.5,0.3,0.9,0.7,1.1,1.2c0.2,0.5,0.4,1.2,0.4,2v3.8h-11.8V153.3z M750.3,153.7
		c0-0.4-0.1-0.8-0.2-1s-0.4-0.5-0.7-0.6c-0.3-0.1-0.8-0.2-1.3-0.3c-0.5,0-1.2-0.1-2-0.1c-0.7,0-1.3,0-1.8,0.1
		c-0.5,0-0.9,0.1-1.3,0.3c-0.3,0.1-0.6,0.3-0.8,0.6c-0.2,0.3-0.3,0.6-0.3,1.1v1h8.3V153.7z"/>
	<path d="M740.2,142.5l11.8-3.1v2.5l-2.5,0.5v3.1l2.5,0.5v2.5l-11.8-3.1V142.5z M747.6,142.8l-5.3,1.1v0l5.3,1.1V142.8z"/>
</g>
<g class="st12">
	<path d="M667.8,169.9c0.3,0,0.5,0,0.8-0.1s0.4-0.1,0.6-0.2c0.2-0.1,0.3-0.3,0.4-0.5c0.1-0.2,0.1-0.5,0.1-0.8c0-0.4-0.1-0.7-0.4-1
		c-0.2-0.3-0.6-0.4-1.1-0.4c-0.3,0-0.5,0-0.7,0.1s-0.4,0.2-0.5,0.4s-0.3,0.4-0.4,0.7c-0.1,0.3-0.3,0.6-0.4,1c-0.2,0.5-0.4,1-0.6,1.4
		c-0.2,0.4-0.5,0.7-0.7,1c-0.3,0.3-0.6,0.5-1,0.6s-0.8,0.2-1.3,0.2c-1.2,0-2-0.3-2.6-1c-0.6-0.7-0.9-1.5-0.9-2.7
		c0-0.5,0.1-1,0.2-1.5c0.1-0.4,0.3-0.8,0.6-1.2c0.3-0.3,0.6-0.6,1-0.8s0.9-0.3,1.5-0.3h0.3v2.3c-0.6,0-1,0.1-1.3,0.3s-0.5,0.5-0.5,1
		c0,0.3,0,0.5,0.1,0.7c0.1,0.2,0.2,0.3,0.3,0.4c0.1,0.1,0.3,0.2,0.4,0.2c0.2,0,0.3,0.1,0.5,0.1c0.4,0,0.7-0.1,0.9-0.2
		c0.2-0.2,0.5-0.5,0.7-1l0.8-1.8c0.2-0.5,0.4-0.8,0.6-1.1c0.2-0.3,0.4-0.5,0.7-0.7c0.2-0.2,0.5-0.3,0.8-0.4c0.3-0.1,0.6-0.1,1-0.1
		c1.2,0,2.2,0.4,2.7,1.1c0.6,0.7,0.9,1.7,0.9,3c0,1.3-0.3,2.3-0.9,2.9c-0.6,0.6-1.4,0.9-2.5,0.9h-0.5v-2.4H667.8z"/>
	<path d="M659.4,158l11.8-3.1v2.5l-2.5,0.5v3.1l2.5,0.5v2.5l-11.8-3.1V158z M666.7,158.3l-5.3,1.1v0l5.3,1.1V158.3z"/>
	<path d="M667.5,148.4L667.5,148.4l-8.1,0v-2.2h11.8v2.7l-8.3,2.9v0h8.3v2.2h-11.8v-2.8L667.5,148.4z"/>
	<path d="M659.4,133.9h2v4.2h2.8v-4h2v4h5.1v2.4h-11.8V133.9z"/>
	<path d="M659.4,128.4c0-1,0.3-1.8,0.8-2.3s1.3-0.8,2.3-0.8c0.8,0,1.4,0.2,1.9,0.5c0.5,0.3,0.8,0.8,1,1.5h0c0.1-0.6,0.3-1,0.6-1.3
		c0.3-0.3,0.8-0.4,1.4-0.5c0.2,0,0.5,0,0.7,0c0.3,0,0.5,0,0.9,0c0.6,0,1.1-0.1,1.4-0.1c0.3-0.1,0.6-0.2,0.7-0.4h0.1v2.6
		c-0.2,0.1-0.4,0.2-0.6,0.2c-0.2,0-0.4,0.1-0.7,0.1l-2.3,0.1c-0.5,0-0.8,0.1-1.1,0.3c-0.3,0.2-0.4,0.6-0.4,1.1v1.3h5v2.4h-11.8
		V128.4z M664.5,129.5c0-0.6-0.1-1-0.4-1.3c-0.3-0.3-0.7-0.5-1.4-0.5c-1.1,0-1.6,0.6-1.6,1.7v1.1h3.4V129.5z"/>
	<path d="M659.4,118.4l11.8-3.1v2.5l-2.5,0.5v3.1l2.5,0.5v2.5l-11.8-3.1V118.4z M666.7,118.7l-5.3,1.1v0l5.3,1.1V118.7z"/>
	<path d="M667.5,108.8L667.5,108.8l-8.1,0v-2.2h11.8v2.7l-8.3,2.9v0h8.3v2.2h-11.8v-2.8L667.5,108.8z"/>
	<path d="M661.5,100.2c-0.4,0.2-0.6,0.6-0.6,1.1c0,0.3,0.1,0.5,0.2,0.7s0.4,0.3,0.8,0.5c0.4,0.1,0.8,0.2,1.4,0.2s1.3,0.1,2.1,0.1
		c0.9,0,1.6,0,2.2-0.1c0.6-0.1,1-0.2,1.3-0.3c0.3-0.1,0.5-0.3,0.6-0.5c0.1-0.2,0.2-0.4,0.2-0.7c0-0.2,0-0.4-0.1-0.6
		c-0.1-0.2-0.2-0.3-0.4-0.5c-0.2-0.1-0.5-0.2-0.9-0.3c-0.4-0.1-0.9-0.1-1.5-0.1v-2.4c0.6,0,1.2,0,1.8,0.1c0.6,0.1,1.1,0.3,1.5,0.6
		c0.4,0.3,0.8,0.7,1,1.1c0.2,0.5,0.4,1.1,0.4,1.9c0,0.9-0.1,1.6-0.4,2.1c-0.3,0.5-0.7,0.9-1.2,1.2s-1.2,0.5-1.9,0.5
		s-1.6,0.1-2.5,0.1c-0.9,0-1.7,0-2.5-0.1c-0.8-0.1-1.4-0.3-1.9-0.5s-1-0.7-1.3-1.2c-0.3-0.5-0.5-1.2-0.5-2.1c0-0.9,0.1-1.5,0.4-2
		c0.3-0.5,0.6-0.9,1.1-1.1c0.4-0.2,0.9-0.4,1.4-0.5c0.5-0.1,1-0.1,1.4-0.1v2.4C662.5,99.9,661.9,100,661.5,100.2z"/>
	<path d="M659.4,95.9v-2.4h11.8v2.4H659.4z"/>
	<path d="M667.8,89.8c0.3,0,0.5,0,0.8-0.1s0.4-0.1,0.6-0.2c0.2-0.1,0.3-0.3,0.4-0.5c0.1-0.2,0.1-0.5,0.1-0.8c0-0.4-0.1-0.7-0.4-1
		c-0.2-0.3-0.6-0.4-1.1-0.4c-0.3,0-0.5,0-0.7,0.1s-0.4,0.2-0.5,0.4s-0.3,0.4-0.4,0.7c-0.1,0.3-0.3,0.6-0.4,1c-0.2,0.5-0.4,1-0.6,1.4
		c-0.2,0.4-0.5,0.7-0.7,1c-0.3,0.3-0.6,0.5-1,0.6s-0.8,0.2-1.3,0.2c-1.2,0-2-0.3-2.6-1c-0.6-0.7-0.9-1.5-0.9-2.7
		c0-0.5,0.1-1,0.2-1.5c0.1-0.4,0.3-0.8,0.6-1.2c0.3-0.3,0.6-0.6,1-0.8s0.9-0.3,1.5-0.3h0.3V87c-0.6,0-1,0.1-1.3,0.3s-0.5,0.5-0.5,1
		c0,0.3,0,0.5,0.1,0.7c0.1,0.2,0.2,0.3,0.3,0.4c0.1,0.1,0.3,0.2,0.4,0.2c0.2,0,0.3,0.1,0.5,0.1c0.4,0,0.7-0.1,0.9-0.2
		c0.2-0.2,0.5-0.5,0.7-1l0.8-1.8c0.2-0.5,0.4-0.8,0.6-1.1c0.2-0.3,0.4-0.5,0.7-0.7c0.2-0.2,0.5-0.3,0.8-0.4c0.3-0.1,0.6-0.1,1-0.1
		c1.2,0,2.2,0.4,2.7,1.1c0.6,0.7,0.9,1.7,0.9,3c0,1.3-0.3,2.3-0.9,2.9c-0.6,0.6-1.4,0.9-2.5,0.9h-0.5v-2.4H667.8z"/>
	<path d="M661.5,78.4c-0.4,0.2-0.6,0.6-0.6,1.1c0,0.3,0.1,0.5,0.2,0.7s0.4,0.3,0.8,0.5c0.4,0.1,0.8,0.2,1.4,0.2s1.3,0.1,2.1,0.1
		c0.9,0,1.6,0,2.2-0.1c0.6-0.1,1-0.2,1.3-0.3c0.3-0.1,0.5-0.3,0.6-0.5c0.1-0.2,0.2-0.4,0.2-0.7c0-0.2,0-0.4-0.1-0.6
		c-0.1-0.2-0.2-0.3-0.4-0.5c-0.2-0.1-0.5-0.2-0.9-0.3c-0.4-0.1-0.9-0.1-1.5-0.1v-2.4c0.6,0,1.2,0,1.8,0.1c0.6,0.1,1.1,0.3,1.5,0.6
		c0.4,0.3,0.8,0.7,1,1.1c0.2,0.5,0.4,1.1,0.4,1.9c0,0.9-0.1,1.6-0.4,2.1c-0.3,0.5-0.7,0.9-1.2,1.2s-1.2,0.5-1.9,0.5
		s-1.6,0.1-2.5,0.1c-0.9,0-1.7,0-2.5-0.1c-0.8-0.1-1.4-0.3-1.9-0.5s-1-0.7-1.3-1.2c-0.3-0.5-0.5-1.2-0.5-2.1c0-0.9,0.1-1.5,0.4-2
		c0.3-0.5,0.6-0.9,1.1-1.1c0.4-0.2,0.9-0.4,1.4-0.5c0.5-0.1,1-0.1,1.4-0.1v2.4C662.5,78.1,661.9,78.2,661.5,78.4z"/>
	<path d="M662.8,74.4c-0.8-0.1-1.4-0.3-1.9-0.5s-1-0.7-1.3-1.2c-0.3-0.5-0.5-1.2-0.5-2.1c0-0.9,0.2-1.6,0.5-2.1
		c0.3-0.5,0.7-0.9,1.3-1.2c0.5-0.3,1.2-0.5,1.9-0.5c0.8-0.1,1.6-0.1,2.5-0.1c0.9,0,1.7,0,2.5,0.1c0.8,0.1,1.4,0.3,1.9,0.5
		c0.5,0.3,1,0.7,1.2,1.2c0.3,0.5,0.4,1.2,0.4,2.1c0,0.9-0.1,1.6-0.4,2.1c-0.3,0.5-0.7,0.9-1.2,1.2s-1.2,0.5-1.9,0.5
		s-1.6,0.1-2.5,0.1C664.4,74.5,663.6,74.4,662.8,74.4z M667.3,72c0.6,0,1-0.1,1.4-0.2c0.3-0.1,0.6-0.3,0.8-0.5s0.2-0.5,0.2-0.9
		c0-0.4-0.1-0.6-0.2-0.9s-0.4-0.4-0.8-0.5s-0.8-0.2-1.4-0.2c-0.6,0-1.2-0.1-2-0.1c-0.8,0-1.5,0-2,0.1c-0.6,0-1,0.1-1.4,0.2
		s-0.6,0.3-0.8,0.5s-0.2,0.5-0.2,0.9c0,0.4,0.1,0.6,0.2,0.9s0.4,0.4,0.8,0.5c0.4,0.1,0.8,0.2,1.4,0.2c0.6,0,1.2,0.1,2,0.1
		C666.1,72.1,666.7,72.1,667.3,72z"/>
</g>
<g class="st12">
	<path d="M513.4,171.8v-2.4h9.9v-4.2h2v6.6H513.4z"/>
	<path d="M513.4,158.9l11.8-3.1v2.5l-2.5,0.5v3.1l2.5,0.5v2.5l-11.8-3.1V158.9z M520.7,159.2l-5.3,1.1v0l5.3,1.1V159.2z"/>
	<path d="M513.4,147.4l8.3-1.7v0l-8.3-1.7v-3.5h11.8v2.2h-9.4v0l9.4,2.1v1.9l-9.4,2.1v0h9.4v2.2h-11.8V147.4z"/>
	<path d="M513.4,133.4l11.8-3.1v2.5l-2.5,0.5v3.1l2.5,0.5v2.5l-11.8-3.1V133.4z M520.7,133.8l-5.3,1.1v0l5.3,1.1V133.8z"/>
	<path d="M516.2,124.3c-0.2,0-0.4,0.1-0.6,0.2c-0.2,0.1-0.4,0.3-0.5,0.4c-0.1,0.2-0.2,0.4-0.2,0.6c0,0.6,0.3,1,1,1.2
		s1.7,0.4,3.2,0.4c0.7,0,1.3,0,1.9-0.1c0.6,0,1.1-0.1,1.5-0.2c0.4-0.1,0.7-0.3,0.9-0.5c0.2-0.2,0.3-0.5,0.3-0.8c0-0.1,0-0.3-0.1-0.5
		c-0.1-0.2-0.2-0.3-0.3-0.5c-0.2-0.1-0.4-0.3-0.6-0.4c-0.2-0.1-0.5-0.1-0.8-0.1h-1.2v1.6h-1.8v-3.9h6.4v1.8h-1.1v0
		c0.5,0.3,0.8,0.6,1,1c0.2,0.4,0.3,0.9,0.3,1.4c0,0.7-0.1,1.3-0.4,1.8c-0.3,0.5-0.6,0.8-1.2,1.1s-1.2,0.4-2,0.5
		c-0.8,0.1-1.7,0.1-2.7,0.1c-1,0-1.9-0.1-2.6-0.2s-1.4-0.3-1.9-0.7c-0.5-0.3-0.9-0.7-1.1-1.2c-0.3-0.5-0.4-1.1-0.4-1.9
		c0-1.3,0.3-2.2,1-2.8c0.6-0.6,1.6-0.9,2.8-0.9v2.3C516.7,124.2,516.4,124.3,516.2,124.3z"/>
	<path d="M513.4,116.2c0-0.8,0.1-1.5,0.4-2c0.3-0.5,0.7-0.9,1.2-1.2c0.5-0.3,1.1-0.5,1.8-0.6c0.7-0.1,1.5-0.1,2.4-0.1
		c1,0,1.9,0.1,2.7,0.2s1.4,0.3,1.9,0.7c0.5,0.3,0.9,0.7,1.1,1.2c0.2,0.5,0.4,1.2,0.4,2v3.8h-11.8V116.2z M523.4,116.7
		c0-0.4-0.1-0.8-0.2-1s-0.4-0.5-0.7-0.6c-0.3-0.1-0.8-0.2-1.3-0.3c-0.5,0-1.2-0.1-2-0.1c-0.7,0-1.3,0-1.8,0.1
		c-0.5,0-0.9,0.1-1.3,0.3c-0.3,0.1-0.6,0.3-0.8,0.6c-0.2,0.3-0.3,0.6-0.3,1.1v1h8.3V116.7z"/>
	<path d="M513.4,105.5l11.8-3.1v2.5l-2.5,0.5v3.1l2.5,0.5v2.5l-11.8-3.1V105.5z M520.7,105.8l-5.3,1.1v0l5.3,1.1V105.8z"/>
	<path d="M513.4,101.5v-2.4h9.9v-4.2h2v6.6H513.4z"/>
	<path d="M515.3,87.3v4.2h2.8v-4h2v4h3.2v-4.4h2v6.8h-11.8v-6.6H515.3z"/>
	<path d="M521.5,80.3L521.5,80.3l-8.1,0v-2.2h11.8v2.7l-8.3,2.9v0h8.3v2.2h-11.8v-2.8L521.5,80.3z"/>
	<path d="M513.4,71.1l11.8-3.1v2.5l-2.5,0.5v3.1l2.5,0.5v2.5l-11.8-3.1V71.1z M520.7,71.5l-5.3,1.1v0l5.3,1.1V71.5z"/>
</g>
<g class="st12">
	<path d="M436.5,206v4.2h2.8v-4h2v4h3.2v-4.4h2v6.8h-11.8V206H436.5z"/>
	<path d="M434.6,204.7v-2.4h9.9V198h2v6.6H434.6z"/>
	<path d="M434.6,188.6c0-1,0.3-1.8,0.8-2.3s1.3-0.8,2.3-0.8c0.8,0,1.4,0.2,1.9,0.5c0.5,0.3,0.8,0.8,1,1.5h0c0.1-0.6,0.3-1,0.6-1.3
		c0.3-0.3,0.8-0.4,1.4-0.5c0.2,0,0.5,0,0.7,0c0.3,0,0.5,0,0.9,0c0.6,0,1.1-0.1,1.4-0.1c0.3-0.1,0.6-0.2,0.7-0.4h0.1v2.6
		c-0.2,0.1-0.4,0.2-0.6,0.2c-0.2,0-0.4,0.1-0.7,0.1l-2.3,0.1c-0.5,0-0.8,0.1-1.1,0.3c-0.3,0.2-0.4,0.6-0.4,1.1v1.3h5v2.4h-11.8
		V188.6z M439.8,189.6c0-0.6-0.1-1-0.4-1.3c-0.3-0.3-0.7-0.5-1.4-0.5c-1.1,0-1.6,0.6-1.6,1.7v1.1h3.4V189.6z"/>
	<path d="M436.5,177.2v4.2h2.8v-4h2v4h3.2V177h2v6.8h-11.8v-6.6H436.5z"/>
	<path d="M436.7,171.1c-0.4,0.2-0.6,0.6-0.6,1.1c0,0.3,0.1,0.5,0.2,0.7s0.4,0.3,0.8,0.5c0.4,0.1,0.8,0.2,1.4,0.2s1.3,0.1,2.1,0.1
		c0.9,0,1.6,0,2.2-0.1c0.6-0.1,1-0.2,1.3-0.3c0.3-0.1,0.5-0.3,0.6-0.5c0.1-0.2,0.2-0.4,0.2-0.7c0-0.2,0-0.4-0.1-0.6
		c-0.1-0.2-0.2-0.3-0.4-0.5c-0.2-0.1-0.5-0.2-0.9-0.3c-0.4-0.1-0.9-0.1-1.5-0.1v-2.4c0.6,0,1.2,0,1.8,0.1c0.6,0.1,1.1,0.3,1.5,0.6
		c0.4,0.3,0.8,0.7,1,1.1c0.2,0.5,0.4,1.1,0.4,1.9c0,0.9-0.1,1.6-0.4,2.1c-0.3,0.5-0.7,0.9-1.2,1.2s-1.2,0.5-1.9,0.5
		s-1.6,0.1-2.5,0.1c-0.9,0-1.7,0-2.5-0.1c-0.8-0.1-1.4-0.3-1.9-0.5s-1-0.7-1.3-1.2c-0.3-0.5-0.5-1.2-0.5-2.1c0-0.9,0.1-1.5,0.4-2
		c0.3-0.5,0.6-0.9,1.1-1.1c0.4-0.2,0.9-0.4,1.4-0.5c0.5-0.1,1-0.1,1.4-0.1v2.4C437.7,170.8,437.1,170.9,436.7,171.1z"/>
	<path d="M434.6,162.5c0-1,0.3-1.8,0.8-2.3s1.3-0.8,2.3-0.8c0.8,0,1.4,0.2,1.9,0.5c0.5,0.3,0.8,0.8,1,1.5h0c0.1-0.6,0.3-1,0.6-1.3
		c0.3-0.3,0.8-0.4,1.4-0.5c0.2,0,0.5,0,0.7,0c0.3,0,0.5,0,0.9,0c0.6,0,1.1-0.1,1.4-0.1c0.3-0.1,0.6-0.2,0.7-0.4h0.1v2.6
		c-0.2,0.1-0.4,0.2-0.6,0.2c-0.2,0-0.4,0.1-0.7,0.1l-2.3,0.1c-0.5,0-0.8,0.1-1.1,0.3c-0.3,0.2-0.4,0.6-0.4,1.1v1.3h5v2.4h-11.8
		V162.5z M439.8,163.6c0-0.6-0.1-1-0.4-1.3c-0.3-0.3-0.7-0.5-1.4-0.5c-1.1,0-1.6,0.6-1.6,1.7v1.1h3.4V163.6z"/>
	<path d="M436.5,151.1v4.2h2.8v-4h2v4h3.2v-4.4h2v6.8h-11.8v-6.6H436.5z"/>
	<path d="M438,149.9c-0.8-0.1-1.4-0.3-1.9-0.5s-1-0.7-1.3-1.2c-0.3-0.5-0.5-1.2-0.5-2.1c0-0.9,0.2-1.6,0.5-2.1
		c0.3-0.5,0.7-0.9,1.3-1.2c0.5-0.3,1.2-0.5,1.9-0.5c0.8-0.1,1.6-0.1,2.5-0.1c0.9,0,1.7,0,2.5,0.1c0.8,0.1,1.4,0.3,1.9,0.5
		c0.5,0.3,1,0.7,1.2,1.2c0.3,0.5,0.4,1.2,0.4,2.1c0,0.9-0.1,1.6-0.4,2.1c-0.3,0.5-0.7,0.9-1.2,1.2s-1.2,0.5-1.9,0.5
		s-1.6,0.1-2.5,0.1C439.6,150,438.8,150,438,149.9z M442.5,147.6c0.6,0,1-0.1,1.4-0.2c0.3-0.1,0.6-0.3,0.8-0.5s0.2-0.5,0.2-0.9
		c0-0.4-0.1-0.6-0.2-0.9s-0.4-0.4-0.8-0.5s-0.8-0.2-1.4-0.2c-0.6,0-1.2-0.1-2-0.1c-0.8,0-1.5,0-2,0.1c-0.6,0-1,0.1-1.4,0.2
		s-0.6,0.3-0.8,0.5s-0.2,0.5-0.2,0.9c0,0.4,0.1,0.6,0.2,0.9s0.4,0.4,0.8,0.5c0.4,0.1,0.8,0.2,1.4,0.2c0.6,0,1.2,0.1,2,0.1
		C441.3,147.6,442,147.6,442.5,147.6z"/>
</g>
<g class="st12">
	<path d="M353,178.1c-0.4,0.2-0.6,0.6-0.6,1.1c0,0.3,0.1,0.5,0.2,0.7s0.4,0.3,0.8,0.5c0.4,0.1,0.8,0.2,1.4,0.2s1.3,0.1,2.1,0.1
		c0.9,0,1.6,0,2.2-0.1c0.6-0.1,1-0.2,1.3-0.3c0.3-0.1,0.5-0.3,0.6-0.5c0.1-0.2,0.2-0.4,0.2-0.7c0-0.2,0-0.4-0.1-0.6
		c-0.1-0.2-0.2-0.3-0.4-0.5c-0.2-0.1-0.5-0.2-0.9-0.3c-0.4-0.1-0.9-0.1-1.5-0.1v-2.4c0.6,0,1.2,0,1.8,0.1c0.6,0.1,1.1,0.3,1.5,0.6
		c0.4,0.3,0.8,0.7,1,1.1c0.2,0.5,0.4,1.1,0.4,1.9c0,0.9-0.1,1.6-0.4,2.1c-0.3,0.5-0.7,0.9-1.2,1.2s-1.2,0.5-1.9,0.5
		s-1.6,0.1-2.5,0.1c-0.9,0-1.7,0-2.5-0.1c-0.8-0.1-1.4-0.3-1.9-0.5s-1-0.7-1.3-1.2c-0.3-0.5-0.5-1.2-0.5-2.1c0-0.9,0.1-1.5,0.4-2
		c0.3-0.5,0.6-0.9,1.1-1.1c0.4-0.2,0.9-0.4,1.4-0.5c0.5-0.1,1-0.1,1.4-0.1v2.4C354,177.8,353.4,177.9,353,178.1z"/>
	<path d="M350.9,168.7l11.8-3.1v2.5l-2.5,0.5v3.1l2.5,0.5v2.5l-11.8-3.1V168.7z M358.2,169l-5.3,1.1v0l5.3,1.1V169z"/>
	<path d="M350.9,160.3c0-1,0.3-1.8,0.8-2.3s1.3-0.8,2.3-0.8c0.8,0,1.4,0.2,1.9,0.5c0.5,0.3,0.8,0.8,1,1.5h0c0.1-0.6,0.3-1,0.6-1.3
		c0.3-0.3,0.8-0.4,1.4-0.5c0.2,0,0.5,0,0.7,0c0.3,0,0.5,0,0.9,0c0.6,0,1.1-0.1,1.4-0.1c0.3-0.1,0.6-0.2,0.7-0.4h0.1v2.6
		c-0.2,0.1-0.4,0.2-0.6,0.2c-0.2,0-0.4,0.1-0.7,0.1l-2.3,0.1c-0.5,0-0.8,0.1-1.1,0.3c-0.3,0.2-0.4,0.6-0.4,1.1v1.3h5v2.4h-11.8
		V160.3z M356,161.3c0-0.6-0.1-1-0.4-1.3c-0.3-0.3-0.7-0.5-1.4-0.5c-1.1,0-1.6,0.6-1.6,1.7v1.1h3.4V161.3z"/>
	<path d="M350.9,151.5c0-0.8,0.1-1.5,0.4-2c0.3-0.5,0.7-0.9,1.2-1.2c0.5-0.3,1.1-0.5,1.8-0.6c0.7-0.1,1.5-0.1,2.4-0.1
		c1,0,1.9,0.1,2.7,0.2s1.4,0.3,1.9,0.7c0.5,0.3,0.9,0.7,1.1,1.2c0.2,0.5,0.4,1.2,0.4,2v3.8h-11.8V151.5z M360.9,151.9
		c0-0.4-0.1-0.8-0.2-1s-0.4-0.5-0.7-0.6c-0.3-0.1-0.8-0.2-1.3-0.3c-0.5,0-1.2-0.1-2-0.1c-0.7,0-1.3,0-1.8,0.1
		c-0.5,0-0.9,0.1-1.3,0.3c-0.3,0.1-0.6,0.3-0.8,0.6c-0.2,0.3-0.3,0.6-0.3,1.1v1h8.3V151.9z"/>
	<path d="M352.8,139.4v4.2h2.8v-4h2v4h3.2v-4.4h2v6.8h-11.8v-6.6H352.8z"/>
	<path d="M359,132.4L359,132.4l-8.1,0v-2.2h11.8v2.7l-8.3,2.9v0h8.3v2.2h-11.8v-2.8L359,132.4z"/>
	<path d="M350.9,123.2l11.8-3.1v2.5l-2.5,0.5v3.1l2.5,0.5v2.5l-11.8-3.1V123.2z M358.2,123.6l-5.3,1.1v0l5.3,1.1V123.6z"/>
	<path d="M350.9,119.3v-2.4h9.9v-4.2h2v6.6H350.9z"/>
	<path d="M350.9,103.6c0-0.8,0.1-1.5,0.4-2c0.3-0.5,0.7-0.9,1.2-1.2c0.5-0.3,1.1-0.5,1.8-0.6c0.7-0.1,1.5-0.1,2.4-0.1
		c1,0,1.9,0.1,2.7,0.2s1.4,0.3,1.9,0.7c0.5,0.3,0.9,0.7,1.1,1.2c0.2,0.5,0.4,1.2,0.4,2v3.8h-11.8V103.6z M360.9,104.1
		c0-0.4-0.1-0.8-0.2-1s-0.4-0.5-0.7-0.6c-0.3-0.1-0.8-0.2-1.3-0.3c-0.5,0-1.2-0.1-2-0.1c-0.7,0-1.3,0-1.8,0.1
		c-0.5,0-0.9,0.1-1.3,0.3c-0.3,0.1-0.6,0.3-0.8,0.6c-0.2,0.3-0.3,0.6-0.3,1.1v1h8.3V104.1z"/>
	<path d="M352.8,91.5v4.2h2.8v-4h2v4h3.2v-4.4h2v6.8h-11.8v-6.6H352.8z"/>
</g>
<g class="st12">
	<path d="M370.8,182.8v-2.4h9.9v-4.2h2v6.6H370.8z"/>
	<path d="M370.8,169.9l11.8-3.1v2.5l-2.5,0.5v3.1l2.5,0.5v2.5l-11.8-3.1V169.9z M378.1,170.2l-5.3,1.1v0l5.3,1.1V170.2z"/>
	<path d="M372.7,155.6v2.6h9.9v2.4h-9.9v2.6h-2v-7.6H372.7z"/>
	<path d="M374.2,154.7c-0.8-0.1-1.4-0.3-1.9-0.5s-1-0.7-1.3-1.2c-0.3-0.5-0.5-1.2-0.5-2.1c0-0.9,0.2-1.6,0.5-2.1
		c0.3-0.5,0.7-0.9,1.3-1.2c0.5-0.3,1.2-0.5,1.9-0.5c0.8-0.1,1.6-0.1,2.5-0.1c0.9,0,1.7,0,2.5,0.1c0.8,0.1,1.4,0.3,1.9,0.5
		c0.5,0.3,1,0.7,1.2,1.2c0.3,0.5,0.4,1.2,0.4,2.1c0,0.9-0.1,1.6-0.4,2.1c-0.3,0.5-0.7,0.9-1.2,1.2s-1.2,0.5-1.9,0.5
		s-1.6,0.1-2.5,0.1C375.8,154.9,375,154.8,374.2,154.7z M378.7,152.4c0.6,0,1-0.1,1.4-0.2c0.3-0.1,0.6-0.3,0.8-0.5s0.2-0.5,0.2-0.9
		c0-0.4-0.1-0.6-0.2-0.9s-0.4-0.4-0.8-0.5s-0.8-0.2-1.4-0.2c-0.6,0-1.2-0.1-2-0.1c-0.8,0-1.5,0-2,0.1c-0.6,0-1,0.1-1.4,0.2
		s-0.6,0.3-0.8,0.5s-0.2,0.5-0.2,0.9c0,0.4,0.1,0.6,0.2,0.9s0.4,0.4,0.8,0.5c0.4,0.1,0.8,0.2,1.4,0.2c0.6,0,1.2,0.1,2,0.1
		C377.5,152.5,378.1,152.5,378.7,152.4z"/>
	<path d="M370.8,141c0-1,0.3-1.8,0.8-2.3s1.3-0.8,2.3-0.8c0.8,0,1.4,0.2,1.9,0.5c0.5,0.3,0.8,0.8,1,1.5h0c0.1-0.6,0.3-1,0.6-1.3
		c0.3-0.3,0.8-0.4,1.4-0.5c0.2,0,0.5,0,0.7,0c0.3,0,0.5,0,0.9,0c0.6,0,1.1-0.1,1.4-0.1c0.3-0.1,0.6-0.2,0.7-0.4h0.1v2.6
		c-0.2,0.1-0.4,0.2-0.6,0.2c-0.2,0-0.4,0.1-0.7,0.1l-2.3,0.1c-0.5,0-0.8,0.1-1.1,0.3c-0.3,0.2-0.4,0.6-0.4,1.1v1.3h5v2.4h-11.8V141z
		 M375.9,142c0-0.6-0.1-1-0.4-1.3c-0.3-0.3-0.7-0.5-1.4-0.5c-1.1,0-1.6,0.6-1.6,1.7v1.1h3.4V142z"/>
	<path d="M370.8,131.8c0-1,0.3-1.8,0.8-2.3s1.3-0.8,2.3-0.8c0.8,0,1.4,0.2,1.9,0.5c0.5,0.3,0.8,0.8,1,1.5h0c0.1-0.6,0.3-1,0.6-1.3
		c0.3-0.3,0.8-0.4,1.4-0.5c0.2,0,0.5,0,0.7,0c0.3,0,0.5,0,0.9,0c0.6,0,1.1-0.1,1.4-0.1c0.3-0.1,0.6-0.2,0.7-0.4h0.1v2.6
		c-0.2,0.1-0.4,0.2-0.6,0.2c-0.2,0-0.4,0.1-0.7,0.1l-2.3,0.1c-0.5,0-0.8,0.1-1.1,0.3c-0.3,0.2-0.4,0.6-0.4,1.1v1.3h5v2.4h-11.8
		V131.8z M375.9,132.8c0-0.6-0.1-1-0.4-1.3c-0.3-0.3-0.7-0.5-1.4-0.5c-1.1,0-1.6,0.6-1.6,1.7v1.1h3.4V132.8z"/>
	<path d="M372.7,120.4v4.2h2.8v-4h2v4h3.2v-4.4h2v6.8h-11.8v-6.6H372.7z"/>
</g>
<g class="st12">
	<path d="M296.6,180.9c0.3,0,0.5,0,0.8-0.1s0.4-0.1,0.6-0.2c0.2-0.1,0.3-0.3,0.4-0.5c0.1-0.2,0.1-0.5,0.1-0.8c0-0.4-0.1-0.7-0.4-1
		c-0.2-0.3-0.6-0.4-1.1-0.4c-0.3,0-0.5,0-0.7,0.1s-0.4,0.2-0.5,0.4s-0.3,0.4-0.4,0.7c-0.1,0.3-0.3,0.6-0.4,1c-0.2,0.5-0.4,1-0.6,1.4
		c-0.2,0.4-0.5,0.7-0.7,1c-0.3,0.3-0.6,0.5-1,0.6s-0.8,0.2-1.3,0.2c-1.2,0-2-0.3-2.6-1c-0.6-0.7-0.9-1.5-0.9-2.7
		c0-0.5,0.1-1,0.2-1.5c0.1-0.4,0.3-0.8,0.6-1.2c0.3-0.3,0.6-0.6,1-0.8s0.9-0.3,1.5-0.3h0.3v2.3c-0.6,0-1,0.1-1.3,0.3s-0.5,0.5-0.5,1
		c0,0.3,0,0.5,0.1,0.7c0.1,0.2,0.2,0.3,0.3,0.4c0.1,0.1,0.3,0.2,0.4,0.2c0.2,0,0.3,0.1,0.5,0.1c0.4,0,0.7-0.1,0.9-0.2
		c0.2-0.2,0.5-0.5,0.7-1l0.8-1.8c0.2-0.5,0.4-0.8,0.6-1.1c0.2-0.3,0.4-0.5,0.7-0.7c0.2-0.2,0.5-0.3,0.8-0.4c0.3-0.1,0.6-0.1,1-0.1
		c1.2,0,2.2,0.4,2.7,1.1c0.6,0.7,0.9,1.7,0.9,3c0,1.3-0.3,2.3-0.9,2.9c-0.6,0.6-1.4,0.9-2.5,0.9h-0.5v-2.4H296.6z"/>
	<path d="M291.6,174.3c-0.8-0.1-1.4-0.3-1.9-0.5s-1-0.7-1.3-1.2c-0.3-0.5-0.5-1.2-0.5-2.1c0-0.9,0.2-1.6,0.5-2.1
		c0.3-0.5,0.7-0.9,1.3-1.2c0.5-0.3,1.2-0.5,1.9-0.5c0.8-0.1,1.6-0.1,2.5-0.1c0.9,0,1.7,0,2.5,0.1c0.8,0.1,1.4,0.3,1.9,0.5
		c0.5,0.3,1,0.7,1.2,1.2c0.3,0.5,0.4,1.2,0.4,2.1c0,0.9-0.1,1.6-0.4,2.1c-0.3,0.5-0.7,0.9-1.2,1.2s-1.2,0.5-1.9,0.5
		s-1.6,0.1-2.5,0.1C293.2,174.5,292.3,174.4,291.6,174.3z M296.1,172c0.6,0,1-0.1,1.4-0.2c0.3-0.1,0.6-0.3,0.8-0.5s0.2-0.5,0.2-0.9
		c0-0.4-0.1-0.6-0.2-0.9s-0.4-0.4-0.8-0.5s-0.8-0.2-1.4-0.2c-0.6,0-1.2-0.1-2-0.1c-0.8,0-1.5,0-2,0.1c-0.6,0-1,0.1-1.4,0.2
		s-0.6,0.3-0.8,0.5s-0.2,0.5-0.2,0.9c0,0.4,0.1,0.6,0.2,0.9s0.4,0.4,0.8,0.5c0.4,0.1,0.8,0.2,1.4,0.2c0.6,0,1.2,0.1,2,0.1
		C294.9,172.1,295.5,172.1,296.1,172z"/>
	<path d="M288.1,165v-2.4h9.9v-4.2h2v6.6H288.1z"/>
	<path d="M288.1,152.1l11.8-3.1v2.5l-2.5,0.5v3.1l2.5,0.5v2.5l-11.8-3.1V152.1z M295.5,152.4l-5.3,1.1v0l5.3,1.1V152.4z"/>
	<path d="M296.2,142.5L296.2,142.5l-8.1,0v-2.2H300v2.7l-8.3,2.9v0h8.3v2.2h-11.8v-2.8L296.2,142.5z"/>
	<path d="M288.1,134.6c0-0.8,0.1-1.5,0.4-2c0.3-0.5,0.7-0.9,1.2-1.2c0.5-0.3,1.1-0.5,1.8-0.6c0.7-0.1,1.5-0.1,2.4-0.1
		c1,0,1.9,0.1,2.7,0.2s1.4,0.3,1.9,0.7c0.5,0.3,0.9,0.7,1.1,1.2c0.2,0.5,0.4,1.2,0.4,2v3.8h-11.8V134.6z M298.2,135
		c0-0.4-0.1-0.8-0.2-1s-0.4-0.5-0.7-0.6c-0.3-0.1-0.8-0.2-1.3-0.3c-0.5,0-1.2-0.1-2-0.1c-0.7,0-1.3,0-1.8,0.1
		c-0.5,0-0.9,0.1-1.3,0.3c-0.3,0.1-0.6,0.3-0.8,0.6c-0.2,0.3-0.3,0.6-0.3,1.1v1h8.3V135z"/>
	<path d="M288.1,123.8l11.8-3.1v2.5l-2.5,0.5v3.1l2.5,0.5v2.5l-11.8-3.1V123.8z M295.5,124.2l-5.3,1.1v0l5.3,1.1V124.2z"/>
</g>
<g class="st12">
	<path d="M142.9,179.2l8.3-1.7v0l-8.3-1.7v-3.5h11.8v2.2h-9.4v0l9.4,2.1v1.9l-9.4,2.1v0h9.4v2.2h-11.8V179.2z"/>
	<path d="M146.3,170.7c-0.8-0.1-1.4-0.3-1.9-0.5s-1-0.7-1.3-1.2c-0.3-0.5-0.5-1.2-0.5-2.1c0-0.9,0.2-1.6,0.5-2.1
		c0.3-0.5,0.7-0.9,1.3-1.2c0.5-0.3,1.2-0.5,1.9-0.5c0.8-0.1,1.6-0.1,2.5-0.1c0.9,0,1.7,0,2.5,0.1c0.8,0.1,1.4,0.3,1.9,0.5
		c0.5,0.3,1,0.7,1.2,1.2c0.3,0.5,0.4,1.2,0.4,2.1c0,0.9-0.1,1.6-0.4,2.1c-0.3,0.5-0.7,0.9-1.2,1.2s-1.2,0.5-1.9,0.5
		s-1.6,0.1-2.5,0.1C147.9,170.8,147.1,170.8,146.3,170.7z M150.8,168.4c0.6,0,1-0.1,1.4-0.2c0.3-0.1,0.6-0.3,0.8-0.5
		s0.2-0.5,0.2-0.9c0-0.4-0.1-0.6-0.2-0.9s-0.4-0.4-0.8-0.5s-0.8-0.2-1.4-0.2c-0.6,0-1.2-0.1-2-0.1c-0.8,0-1.5,0-2,0.1
		c-0.6,0-1,0.1-1.4,0.2s-0.6,0.3-0.8,0.5s-0.2,0.5-0.2,0.9c0,0.4,0.1,0.6,0.2,0.9s0.4,0.4,0.8,0.5c0.4,0.1,0.8,0.2,1.4,0.2
		c0.6,0,1.2,0.1,2,0.1C149.6,168.4,150.2,168.4,150.8,168.4z"/>
	<path d="M142.9,156.9c0-1,0.3-1.8,0.8-2.3s1.3-0.8,2.3-0.8c0.8,0,1.4,0.2,1.9,0.5c0.5,0.3,0.8,0.8,1,1.5h0c0.1-0.6,0.3-1,0.6-1.3
		c0.3-0.3,0.8-0.4,1.4-0.5c0.2,0,0.5,0,0.7,0c0.3,0,0.5,0,0.9,0c0.6,0,1.1-0.1,1.4-0.1c0.3-0.1,0.6-0.2,0.7-0.4h0.1v2.6
		c-0.2,0.1-0.4,0.2-0.6,0.2c-0.2,0-0.4,0.1-0.7,0.1l-2.3,0.1c-0.5,0-0.8,0.1-1.1,0.3c-0.3,0.2-0.4,0.6-0.4,1.1v1.3h5v2.4h-11.8
		V156.9z M148,158c0-0.6-0.1-1-0.4-1.3c-0.3-0.3-0.7-0.5-1.4-0.5c-1.1,0-1.6,0.6-1.6,1.7v1.1h3.4V158z"/>
	<path d="M139.8,146.2l2.4,1.6v1.6l-2.4-0.9V146.2z M142.9,146.9l11.8-3.1v2.5l-2.5,0.5v3.1l2.5,0.5v2.5l-11.8-3.1V146.9z
		 M150.2,147.2l-5.3,1.1v0l5.3,1.1V147.2z"/>
	<path d="M151,137.3L151,137.3l-8.1,0v-2.2h11.8v2.7l-8.3,2.9v0h8.3v2.2h-11.8v-2.8L151,137.3z"/>
</g>
<g class="st12">
	<path d="M171.5,179.4L171.5,179.4l-8.7-1.8v-2.5l11.8,2.7v3.1l-11.8,2.7V181L171.5,179.4z"/>
	<path d="M162.8,169.6l11.8-3.1v2.5l-2.5,0.5v3.1l2.5,0.5v2.5l-11.8-3.1V169.6z M170.1,169.9l-5.3,1.1v0l5.3,1.1V169.9z"/>
	<path d="M162.8,165.6v-2.4h9.9V159h2v6.6H162.8z"/>
	<path d="M171.5,155.7L171.5,155.7l-8.7-1.8v-2.5l11.8,2.7v3.1l-11.8,2.7v-2.6L171.5,155.7z"/>
	<path d="M164.7,144v4.2h2.8v-4h2v4h3.2v-4.4h2v6.8h-11.8V144H164.7z"/>
	<path d="M162.8,138.2c0-1,0.3-1.8,0.8-2.3s1.3-0.8,2.3-0.8c0.8,0,1.4,0.2,1.9,0.5c0.5,0.3,0.8,0.8,1,1.5h0c0.1-0.6,0.3-1,0.6-1.3
		c0.3-0.3,0.8-0.4,1.4-0.5c0.2,0,0.5,0,0.7,0c0.3,0,0.5,0,0.9,0c0.6,0,1.1-0.1,1.4-0.1c0.3-0.1,0.6-0.2,0.7-0.4h0.1v2.6
		c-0.2,0.1-0.4,0.2-0.6,0.2c-0.2,0-0.4,0.1-0.7,0.1l-2.3,0.1c-0.5,0-0.8,0.1-1.1,0.3c-0.3,0.2-0.4,0.6-0.4,1.1v1.3h5v2.4h-11.8
		V138.2z M167.9,139.2c0-0.6-0.1-1-0.4-1.3c-0.3-0.3-0.7-0.5-1.4-0.5c-1.1,0-1.6,0.6-1.6,1.7v1.1h3.4V139.2z"/>
	<path d="M162.8,129.4c0-0.8,0.1-1.5,0.4-2c0.3-0.5,0.7-0.9,1.2-1.2c0.5-0.3,1.1-0.5,1.8-0.6c0.7-0.1,1.5-0.1,2.4-0.1
		c1,0,1.9,0.1,2.7,0.2s1.4,0.3,1.9,0.7c0.5,0.3,0.9,0.7,1.1,1.2c0.2,0.5,0.4,1.2,0.4,2v3.8h-11.8V129.4z M172.8,129.8
		c0-0.4-0.1-0.8-0.2-1s-0.4-0.5-0.7-0.6c-0.3-0.1-0.8-0.2-1.3-0.3c-0.5,0-1.2-0.1-2-0.1c-0.7,0-1.3,0-1.8,0.1
		c-0.5,0-0.9,0.1-1.3,0.3c-0.3,0.1-0.6,0.3-0.8,0.6c-0.2,0.3-0.3,0.6-0.3,1.1v1h8.3V129.8z"/>
	<path d="M164.7,117.3v4.2h2.8v-4h2v4h3.2v-4.4h2v6.8h-11.8v-6.6H164.7z"/>
</g>
<g class="st12">
	<path d="M48,177.5c0.1,0.4,0.2,1,0.2,1.6c0,0.9-0.1,1.6-0.4,2.1c-0.3,0.5-0.7,0.9-1.2,1.2s-1.2,0.5-1.9,0.5s-1.6,0.1-2.5,0.1
		c-0.9,0-1.7,0-2.5-0.1c-0.8-0.1-1.4-0.3-1.9-0.5s-1-0.7-1.3-1.2c-0.3-0.5-0.5-1.2-0.5-2.1c0-0.9,0.2-1.6,0.5-2.1
		c0.3-0.5,0.7-0.9,1.3-1.2c0.5-0.3,1.2-0.5,1.9-0.5c0.8-0.1,1.6-0.1,2.5-0.1c1,0,1.9,0.1,2.7,0.2s1.5,0.4,2.1,0.7l1.2-1.3l1.3,1.4
		L48,177.5z M44.1,180.6c0.6,0,1-0.1,1.4-0.2c0.3-0.1,0.6-0.3,0.8-0.5s0.2-0.5,0.2-0.9c0-0.4-0.1-0.6-0.2-0.9s-0.4-0.4-0.8-0.5
		s-0.8-0.2-1.4-0.2c-0.6,0-1.2-0.1-2-0.1c-0.8,0-1.5,0-2,0.1c-0.6,0-1,0.1-1.4,0.2s-0.6,0.3-0.8,0.5s-0.2,0.5-0.2,0.9
		c0,0.4,0.1,0.6,0.2,0.9s0.4,0.4,0.8,0.5c0.4,0.1,0.8,0.2,1.4,0.2c0.6,0,1.2,0.1,2,0.1C42.9,180.7,43.6,180.7,44.1,180.6z"/>
	<path d="M44.4,171.4c0.3,0,0.6,0,0.8-0.1c0.2,0,0.5-0.1,0.6-0.2s0.3-0.2,0.4-0.4c0.1-0.2,0.2-0.4,0.2-0.7c0-0.3-0.1-0.5-0.2-0.7
		c-0.1-0.2-0.2-0.3-0.4-0.4c-0.2-0.1-0.4-0.2-0.6-0.2c-0.2,0-0.5-0.1-0.8-0.1h-8.3v-2.4h8.3c0.8,0,1.4,0.1,1.9,0.3
		c0.5,0.2,0.9,0.5,1.2,0.8s0.5,0.8,0.6,1.2c0.1,0.5,0.1,0.9,0.1,1.4s0,1-0.1,1.4c-0.1,0.5-0.3,0.9-0.5,1.2s-0.7,0.6-1.2,0.8
		c-0.5,0.2-1.1,0.3-1.9,0.3h-8.3v-2.4H44.4z"/>
	<path d="M36.2,164.6v-2.4H48v2.4H36.2z"/>
	<path d="M38.1,153.5v2.6H48v2.4h-9.9v2.6h-2v-7.6H38.1z"/>
	<path d="M44.4,150.2c0.3,0,0.6,0,0.8-0.1c0.2,0,0.5-0.1,0.6-0.2s0.3-0.2,0.4-0.4c0.1-0.2,0.2-0.4,0.2-0.7c0-0.3-0.1-0.5-0.2-0.7
		c-0.1-0.2-0.2-0.3-0.4-0.4c-0.2-0.1-0.4-0.2-0.6-0.2c-0.2,0-0.5-0.1-0.8-0.1h-8.3v-2.4h8.3c0.8,0,1.4,0.1,1.9,0.3
		c0.5,0.2,0.9,0.5,1.2,0.8s0.5,0.8,0.6,1.2c0.1,0.5,0.1,0.9,0.1,1.4s0,1-0.1,1.4c-0.1,0.5-0.3,0.9-0.5,1.2s-0.7,0.6-1.2,0.8
		c-0.5,0.2-1.1,0.3-1.9,0.3h-8.3v-2.4H44.4z"/>
	<path d="M36.2,139.9l8.3-1.7v0l-8.3-1.7V133H48v2.2h-9.4v0l9.4,2.1v1.9l-9.4,2.1v0H48v2.2H36.2V139.9z"/>
	<path d="M36.2,127.3c0-0.5,0-0.9,0.1-1.4c0.1-0.4,0.3-0.8,0.5-1.1c0.2-0.3,0.5-0.5,0.9-0.7c0.4-0.2,0.9-0.2,1.4-0.2
		c0.6,0,1.2,0.1,1.6,0.4c0.5,0.3,0.8,0.7,0.9,1.3h0c0.1-0.7,0.4-1.2,0.8-1.6c0.5-0.4,1.1-0.6,1.9-0.6c0.5,0,0.9,0.1,1.3,0.2
		c0.4,0.1,0.8,0.3,1.1,0.6c0.3,0.3,0.6,0.7,0.8,1.1c0.2,0.5,0.3,1.1,0.3,1.7v4H36.2V127.3z M41,128.2c0-0.7-0.1-1.1-0.4-1.4
		c-0.2-0.3-0.6-0.5-1.2-0.5s-1,0.1-1.2,0.4c-0.2,0.3-0.3,0.7-0.3,1.3v0.9H41V128.2z M46.3,128c0-0.6-0.1-1-0.4-1.4
		c-0.3-0.4-0.7-0.5-1.4-0.5c-0.3,0-0.6,0-0.9,0.1s-0.4,0.2-0.5,0.4c-0.1,0.2-0.2,0.4-0.3,0.6c-0.1,0.2-0.1,0.5-0.1,0.7v1h3.6V128z"
		/>
	<path d="M36.2,117.7c0-1,0.3-1.8,0.8-2.3s1.3-0.8,2.3-0.8c0.8,0,1.4,0.2,1.9,0.5c0.5,0.3,0.8,0.8,1,1.5h0c0.1-0.6,0.3-1,0.6-1.3
		c0.3-0.3,0.8-0.4,1.4-0.5c0.2,0,0.5,0,0.7,0c0.3,0,0.5,0,0.9,0c0.6,0,1.1-0.1,1.4-0.1c0.3-0.1,0.6-0.2,0.7-0.4H48v2.6
		c-0.2,0.1-0.4,0.2-0.6,0.2c-0.2,0-0.4,0.1-0.7,0.1l-2.3,0.1c-0.5,0-0.8,0.1-1.1,0.3c-0.3,0.2-0.4,0.6-0.4,1.1v1.3h5v2.4H36.2V117.7
		z M41.4,118.7c0-0.6-0.1-1-0.4-1.3c-0.3-0.3-0.7-0.5-1.4-0.5c-1.1,0-1.6,0.6-1.6,1.7v1.1h3.4V118.7z"/>
	<path d="M38.1,106.2v4.2h2.8v-4h2v4h3.2v-4.4h2v6.8H36.2v-6.6H38.1z"/>
</g>
<g>
	<g>
		<path class="st4" d="M998.2,145.5c-2.6,0-5,0-7.6,0c-2.6-10.1-5.3-20.3-7.9-30.5c0,10.5,0,20.8,0,31.3c-2.6,0-5.2,0-7.8,0
			c0-14.1,0-28,0-42.1c4.2,0,8.4,0,12.9,0c2.5,9.3,4.9,18.6,7.4,27.8c2.7-9.2,5.4-18.5,8.1-27.8c4.3,0,8.3,0,12.4,0
			c0,14.1,0,28,0,42.1c-2.6,0-5.2,0-7.9,0c0-10.7,0-21.3,0-31.8c-0.1,0-0.1,0-0.2,0C1004.5,124.7,1001.3,135.1,998.2,145.5z"/>
		<path class="st4" d="M1112.4,130.8c-0.1,5.1-1.4,9.6-5.5,13c-6.5,5.3-19.2,4.2-22.7-6.5c-1.7-5.4-1.4-10.7,1.3-15.6
			c2.4-4.3,6.2-6.4,11-6.9c10.1-0.9,15.8,6.7,15.8,15.2C1112.4,130.4,1112.4,130.6,1112.4,130.8z M1103.3,131.3
			c0-2.7-0.3-4.6-1.3-6.6c-0.8-1.6-2-2.7-3.9-2.8c-1.9-0.1-3.4,0.8-4.2,2.4c-2.2,4.5-2.2,9,0.1,13.4c1.5,2.8,5.2,3.1,7.2,0.7
			C1102.9,136.3,1103.3,133.8,1103.3,131.3z"/>
		<path class="st4" d="M1044.4,134.1c-5.9,0-11.8,0-17.8,0c0,2,1,3.3,2.4,4.2c2.4,1.6,5.2,1.5,7.9,1.2c1.6-0.2,3.2-0.6,5.1-0.9
			c0.4,2.1,0.8,4.2,1.2,6.5c-1.4,0.4-2.6,0.9-3.9,1.2c-3.7,0.8-7.4,1.1-11,0.1c-5.6-1.5-9.3-5.9-10-11.7c-0.4-3.8-0.2-7.5,1.3-11.2
			c2.9-7.3,11.3-10.7,18.3-7.2c2.3,1.1,3.9,3,5,5.3C1044.7,125.4,1045,129.6,1044.4,134.1z M1036.3,127.2c0.3-3.2-1.7-5.7-4.5-5.7
			c-3,0-5.3,2.6-5.1,5.7C1029.9,127.2,1033.1,127.2,1036.3,127.2z"/>
		<path class="st4" d="M1057.2,106.9c0,3,0,5.7,0,8.7c2.1,0,4.1,0,6.2,0c0,2.5,0,4.8,0,7.3c-2,0-4,0-5.8,0c-0.2,0.3-0.3,0.4-0.3,0.4
			c0,4.1-0.1,8.3,0.2,12.4c0.2,2.9,1.2,3.5,4.2,3.3c0.4,0,0.8,0,1.5,0c0,2.3,0,4.6,0,7.3c-1.1,0.2-2.3,0.5-3.6,0.6
			c-3.7,0.3-7.2-0.2-9.3-3.8c-1.3-2.2-1.5-4.6-1.6-7c-0.1-3.9,0-7.7,0-11.6c0-0.5-0.1-0.9-0.1-1.5c-1.2-0.1-2.3-0.2-3.5-0.3
			c0-2.4,0-4.6,0-7c1.2-0.1,2.3-0.1,3.5-0.2c0-2.1,0-4.2,0-6.5C1051.4,108.3,1054.1,107.6,1057.2,106.9z"/>
		<path class="st4" d="M1066,115.7c2.4,0,4.8,0,7.3,0c0.1,1.6,0.2,3,0.3,4.5c2.2-3.5,4.9-5.9,9.4-5.2c0,3.1,0,6,0,9
			c-1.1,0-2.2-0.1-3.2,0c-2.8,0.3-4.6,2-4.9,4.7c-0.3,2.8-0.2,5.6-0.2,8.4c0,2.7,0,5.3,0,8c0,0.3-0.1,0.6-0.1,1.1
			c-2.8,0-5.6,0-8.6,0C1066,136.1,1066,126,1066,115.7z"/>
	</g>
	<g>
		<g>
			<polygon class="st4" points="1045.2,19.4 1006.8,57.8 973.2,57.8 989.7,74.2 1023.3,74.2 1061.7,35.9 			"/>
			<polygon class="st4" points="1042.1,94.7 1080.4,56.4 1114.1,56.4 1097.6,39.9 1063.9,39.9 1025.6,78.2 			"/>
		</g>
	</g>
</g>
</svg>
