<?xml version="1.0" encoding="UTF-8" standalone="no"?>
<svg xmlns="http://www.w3.org/2000/svg"
   version="1.0" width="978" height="345" viewBox="-9 -7 652 230">
  <g id="layer1">
    <text
       style="font-size:10px;font-style:normal;font-weight:normal;fill:black;fill-opacity:1;stroke:none;stroke-width:1px;stroke-linecap:butt;stroke-linejoin:miter;stroke-opacity:1;font-family:Bitstream Charter"
       id="text3757"
       xml:space="preserve"><tspan
         x="14.461906"
         y="116.61038"
         id="tspan3759">Newark</tspan></text>
    <text
       style="font-size:10px;font-style:normal;font-weight:normal;fill:black;fill-opacity:1;stroke:none;stroke-width:1px;stroke-linecap:butt;stroke-linejoin:miter;stroke-opacity:1;font-family:Bitstream Charter"
       id="text3763"
       xml:space="preserve"><tspan
         x="42.319061"
         y="87.467499"
         id="tspan3765">Harrison</tspan></text>
    <text
       style="font-size:10px;font-style:normal;font-weight:normal;fill:black;fill-opacity:1;stroke:none;stroke-width:1px;stroke-linecap:butt;stroke-linejoin:miter;stroke-opacity:1;font-family:Bitstream Charter"
       id="text6428"
       xml:space="preserve"><tspan
         x="268.89044"
         y="125.61038"
         id="tspan6430">Journal Square</tspan></text>
    <text
       style="font-size:10px;font-style:normal;font-weight:normal;fill:black;fill-opacity:1;stroke:none;stroke-width:1px;stroke-linecap:butt;stroke-linejoin:miter;stroke-opacity:1;font-family:Bitstream Charter"
       id="text9101"
       xml:space="preserve"><tspan
         x="374.60474"
         y="197.61038"
         id="tspan9103">Grove Street</tspan></text>
    <text
       style="font-size:10px;font-style:normal;font-weight:normal;fill:black;fill-opacity:1;stroke:none;stroke-width:1px;stroke-linecap:butt;stroke-linejoin:miter;stroke-opacity:1;font-family:Bitstream Charter"
       id="text9105"
       xml:space="preserve"><tspan
         x="395.17618"
         y="122.61038"
         id="tspan9107">Pavonia /</tspan><tspan
         x="395.17618"
         y="135.11038"
         id="tspan9109">Newport</tspan></text>
    <path
       d="M 613.74761,17.75325 L 583.17618,77.03896 L 561.74761,94.18181 L 451.03332,93.46753 L 451.03332,166.32467 L 433.17618,183.38087 L 393.17619,183.46753 L 340.31905,131.32467"
       style="fill:none;fill-rule:evenodd;stroke:#fdb827;stroke-width:4.0999999;stroke-linecap:butt;stroke-linejoin:miter;stroke-miterlimit:4;stroke-opacity:1"
       id="orange_line" />
    <text
       style="font-size:10px;font-style:normal;font-weight:normal;fill:black;fill-opacity:1;stroke:none;stroke-width:1px;stroke-linecap:butt;stroke-linejoin:miter;stroke-opacity:1;font-family:Bitstream Charter"
       id="text12742"
       xml:space="preserve"><tspan
         x="524.60474"
         y="107.75327"
         id="tspan12744">Christopher</tspan><tspan
         x="524.60474"
         y="120.25327"
         id="tspan12746">Street</tspan></text>
    <text
       style="font-size:10px;font-style:normal;font-weight:normal;fill:black;fill-opacity:1;stroke:none;stroke-width:1px;stroke-linecap:butt;stroke-linejoin:miter;stroke-opacity:1;font-family:Bitstream Charter"
       id="text12748"
       xml:space="preserve"><tspan
         x="577.46191"
         y="97.753273"
         id="tspan12750">9th Street</tspan></text>
    <text
       style="font-size:10px;font-style:normal;font-weight:normal;fill:black;fill-opacity:1;stroke:none;stroke-width:1px;stroke-linecap:butt;stroke-linejoin:miter;stroke-opacity:1;font-family:Bitstream Charter"
       id="text12752"
       xml:space="preserve"><tspan
         x="522.46191"
         y="60.610382"
         id="tspan12754">14th Street</tspan></text>
    <text
       style="font-size:10px;font-style:normal;font-weight:normal;fill:black;fill-opacity:1;stroke:none;stroke-width:1px;stroke-linecap:butt;stroke-linejoin:miter;stroke-opacity:1;font-family:Bitstream Charter"
       id="text12756"
       xml:space="preserve"><tspan
         x="535.60474"
         y="35.610382"
         id="tspan12758">23rd Street</tspan></text>
    <text
       style="font-size:10px;font-style:normal;font-weight:normal;fill:black;fill-opacity:1;stroke:none;stroke-width:1px;stroke-linecap:butt;stroke-linejoin:miter;stroke-opacity:1;font-family:Bitstream Charter"
       id="text12760"
       xml:space="preserve"><tspan
         x="545.17621"
         y="10.610382"
         id="tspan12762">33rd Street</tspan></text>
    <text
       style="font-size:10px;font-style:normal;font-weight:normal;fill:black;fill-opacity:1;stroke:none;stroke-width:1px;stroke-linecap:butt;stroke-linejoin:miter;stroke-opacity:1;font-family:Bitstream Charter"
       id="text12764"
       xml:space="preserve"><tspan
         x="457.46191"
         y="154.61038"
         id="tspan12766">Exchange</tspan><tspan
         x="457.46191"
         y="167.11038"
         id="tspan12768">Place</tspan></text>
    <text
       style="font-size:10px;font-style:normal;font-weight:normal;fill:black;fill-opacity:1;stroke:none;stroke-width:1px;stroke-linecap:butt;stroke-linejoin:miter;stroke-opacity:1;font-family:Bitstream Charter"
       id="text12770"
       xml:space="preserve"><tspan
         x="431.74762"
         y="54.181847"
         id="tspan12772">Hoboken</tspan></text>
    <text
       style="font-size:10px;font-style:normal;font-weight:normal;fill:black;fill-opacity:1;stroke:none;stroke-width:1px;stroke-linecap:butt;stroke-linejoin:miter;stroke-opacity:1;font-family:Bitstream Charter"
       id="text12774"
       xml:space="preserve"><tspan
         x="515.46191"
         y="165.61038"
         id="tspan12776">World</tspan><tspan
         x="515.46191"
         y="178.11038"
         id="tspan12778">Trade</tspan><tspan
         x="515.46191"
         y="190.61038"
         id="tspan12780">Center</tspan></text>
    <path
       d="M 605.74761,9.75325 L 575.17618,69.03896 L 553.74761,86.18181 L 451.16584,86.22261 L 450.91078,71.82975 L 461.32919,71.82974"
       style="fill:none;fill-rule:evenodd;stroke:#0082c5;stroke-width:4.0999999;stroke-linecap:butt;stroke-linejoin:miter;stroke-miterlimit:4;stroke-opacity:1"
       id="path12816" />
    <path
       d="M 78.098999 529.50507 A 8.8132858 4.2857141 0 1 1  60.472427,529.50507 A 8.8132858 4.2857141 0 1 1  78.098999 529.50507 z"
       transform="matrix(0.903478,0.586728,-0.54134,0.833592,836.0774,-470.1464)"
       style="fill:white;fill-opacity:1;stroke:black;stroke-width:1.49300003;stroke-miterlimit:4;stroke-dasharray:none;stroke-dashoffset:0;stroke-opacity:1"
       id="path12740" />
    <path
       d="M 78.098999 529.50507 A 8.8132858 4.2857141 0 1 1  60.472427,529.50507 A 8.8132858 4.2857141 0 1 1  78.098999 529.50507 z"
       transform="matrix(0.91358,0.570871,-0.526709,0.842913,815.6305,-449.9831)"
       style="fill:white;fill-opacity:1;stroke:black;stroke-width:1.49300003;stroke-miterlimit:4;stroke-dasharray:none;stroke-dashoffset:0;stroke-opacity:1"
       id="path12738" />
    <path
       d="M 78.098999 529.50507 A 8.8132858 4.2857141 0 1 1  60.472427,529.50507 A 8.8132858 4.2857141 0 1 1  78.098999 529.50507 z"
       transform="matrix(0.903478,0.586728,-0.54134,0.833592,810.0774,-422.1464)"
       style="fill:white;fill-opacity:1;stroke:black;stroke-width:1.49300003;stroke-miterlimit:4;stroke-dasharray:none;stroke-dashoffset:0;stroke-opacity:1"
       id="path12736" />
    <path
       d="M 78.098999 529.50507 A 8.8132858 4.2857141 0 1 1  60.472427,529.50507 A 8.8132858 4.2857141 0 1 1  78.098999 529.50507 z"
       transform="matrix(0.76175,0.76175,-0.702824,0.702824,886.4042,-339.4596)"
       style="fill:white;fill-opacity:1;stroke:black;stroke-width:1.49300003;stroke-miterlimit:4;stroke-dasharray:none;stroke-dashoffset:0;stroke-opacity:1"
       id="path12734" />
    <path
       d="M 78.098999 529.50507 A 8.8132858 4.2857141 0 1 1  60.472427,529.50507 A 8.8132858 4.2857141 0 1 1  78.098999 529.50507 z"
       transform="matrix(0,1.077277,-0.993943,0,1061.332,14.8277)"
       style="fill:white;fill-opacity:1;stroke:black;stroke-width:1.49300003;stroke-miterlimit:4;stroke-dasharray:none;stroke-dashoffset:0;stroke-opacity:1"
       id="path12728" />
    <path
       d="M 461.84164,63.28646 L 443.84164,63.58088 L 443.84164,183.87531 L 474.04469,182.86516 L 530.22744,211.14943"
       style="fill:none;fill-rule:evenodd;stroke:#009e58;stroke-width:4.0999999;stroke-linecap:butt;stroke-linejoin:miter;stroke-miterlimit:4;stroke-dasharray:none;stroke-opacity:1"
       id="path13717" />
    <path
       d="M 78.098999 529.50507 A 8.8132858 4.2857141 0 1 1  60.472427,529.50507 A 8.8132858 4.2857141 0 1 1  78.098999 529.50507 z"
       transform="matrix(1.077277,0,0,0.993943,372.1794,-402.8306)"
       style="fill:white;fill-opacity:1;stroke:black;stroke-width:1.49300003;stroke-miterlimit:4;stroke-dasharray:none;stroke-dashoffset:0;stroke-opacity:1"
       id="path9099" />
    <path
       d="M 78.098999 529.50507 A 8.8132858 4.2857141 0 1 1  60.472427,529.50507 A 8.8132858 4.2857141 0 1 1  78.098999 529.50507 z"
       transform="matrix(0,1.077277,-0.993943,0,991.3317,-7.1723)"
       style="fill:white;fill-opacity:1;stroke:black;stroke-width:1.49300003;stroke-miterlimit:4;stroke-dasharray:none;stroke-dashoffset:0;stroke-opacity:1"
       id="path12732" />
    <path
       d="M 537.06524,203.89466 L 477.31904,175.61039 L 400.31905,175.61039 L 325.31905,100.61039 L 245.31905,59.8961 L 61.03332,61.32467 L 5.31904,109.18182"
       style="fill:none;fill-rule:evenodd;stroke:red;stroke-width:4.69999981;stroke-linecap:butt;stroke-linejoin:miter;stroke-miterlimit:4;stroke-opacity:1"
       id="path5539" />
    <path
       d="M 73.571427 529.50507 A 4.2857141 4.2857141 0 1 1  64.999999,529.50507 A 4.2857141 4.2857141 0 1 1  73.571427 529.50507 z"
       transform="translate(-32.1095,-449.8947)"
       style="fill:white;fill-opacity:1;stroke:black;stroke-width:1.49300003;stroke-miterlimit:4;stroke-dasharray:none;stroke-dashoffset:0;stroke-opacity:1"
       id="path3761" />
    <path
       d="M 73.571427 529.50507 A 4.2857141 4.2857141 0 1 1  64.999999,529.50507 A 4.2857141 4.2857141 0 1 1  73.571427 529.50507 z"
       transform="translate(-61.3952,-421.6089)"
       style="fill:white;fill-opacity:1;stroke:black;stroke-width:1.49300003;stroke-miterlimit:4;stroke-dasharray:none;stroke-dashoffset:0;stroke-opacity:1"
       id="path1985" />
    <path
       d="M 80.751187 529.50507 A 11.465474 4.2857141 0 1 1  57.820239,529.50507 A 11.465474 4.2857141 0 1 1  80.751187 529.50507 z"
       transform="matrix(0.76175,-0.76175,0.702824,0.702824,-81.41853,-195.4993)"
       style="fill:white;fill-opacity:1;stroke:black;stroke-width:1.49300003;stroke-miterlimit:4;stroke-dasharray:none;stroke-dashoffset:0;stroke-opacity:1"
       id="path6426" />
    <path
       d="M 77.43595 529.50507 A 8.1502371 4.2857141 0 1 1  61.135476,529.50507 A 8.1502371 4.2857141 0 1 1  77.43595 529.50507 z"
       transform="matrix(0,-1.077277,0.993943,0,-105.4787,253.8216)"
       style="fill:white;fill-opacity:1;stroke:black;stroke-width:1.49300003;stroke-miterlimit:4;stroke-dasharray:none;stroke-dashoffset:0;stroke-opacity:1"
       id="path7319" />
    <path
       d="M 78.098999 529.50507 A 8.8132858 4.2857141 0 1 1  60.472427,529.50507 A 8.8132858 4.2857141 0 1 1  78.098999 529.50507 z"
       transform="matrix(0,1.077277,-0.993943,0,989.3317,104.8277)"
       style="fill:white;fill-opacity:1;stroke:black;stroke-width:1.49300003;stroke-miterlimit:4;stroke-dasharray:none;stroke-dashoffset:0;stroke-opacity:1"
       id="path12730" />
    <path
       d="M 80.751187 529.50507 A 11.465474 4.2857141 0 1 1  57.820239,529.50507 A 11.465474 4.2857141 0 1 1  80.751187 529.50507 z"
       transform="matrix(0.76175,-0.76175,0.702824,0.702824,109.892,-112.1888)"
       style="fill:white;fill-opacity:1;stroke:black;stroke-width:1.49300003;stroke-miterlimit:4;stroke-dasharray:none;stroke-dashoffset:0;stroke-opacity:1"
       id="path14886" />
  </g>
</svg>
