<?xml version="1.0" encoding="UTF-8" standalone="no"?>
<!-- Generator: Adobe Illustrator 16.0.3, SVG Export Plug-In . SVG Version: 6.00 Build 0)  -->

<svg
   version="1.1"
   id="Capa_1"
   x="0px"
   y="0px"
   width="807.80847"
   height="1080"
   viewBox="0 0 807.80843 1080"
   enable-background="new 0 0 595.28 841.89"
   xml:space="preserve"
   sodipodi:docname="Guadalajara_Metro_Map_Geographical.svg"
   inkscape:version="1.1 (c68e22c387, 2021-05-23)"
   xmlns:inkscape="http://www.inkscape.org/namespaces/inkscape"
   xmlns:sodipodi="http://sodipodi.sourceforge.net/DTD/sodipodi-0.dtd"
   xmlns="http://www.w3.org/2000/svg"
   xmlns:svg="http://www.w3.org/2000/svg"><defs
   id="defs227" /><sodipodi:namedview
   id="namedview225"
   pagecolor="#ffffff"
   bordercolor="#666666"
   borderopacity="1.0"
   inkscape:pageshadow="2"
   inkscape:pageopacity="0.0"
   inkscape:pagecheckerboard="0"
   showgrid="false"
   fit-margin-top="0"
   fit-margin-left="0"
   fit-margin-right="0"
   fit-margin-bottom="0"
   inkscape:zoom="0.4941263"
   inkscape:cx="83.986624"
   inkscape:cy="620.28675"
   inkscape:window-width="1920"
   inkscape:window-height="1017"
   inkscape:window-x="1912"
   inkscape:window-y="-8"
   inkscape:window-maximized="1"
   inkscape:current-layer="layer1" />
<g
   id="g222"
   transform="matrix(2.2126556,0,0,2.2126556,-255.9268,-392.87247)">
	<g
   id="g220">
		<path
   fill-rule="evenodd"
   clip-rule="evenodd"
   fill="#bae1c5"
   d="m 115.75,665.208 c 0,-12.002 0,-24.004 0,-36.006 1.696,-3.118 1.165,-6.526 1.059,-9.808 -0.103,-3.2 1.037,-5.191 4.032,-6.308 1.394,-0.519 3.531,-0.796 2.694,-3.158 -0.792,-2.238 -1.016,-5.124 -4.331,-5.287 -1.25,-0.062 -2.502,0.114 -3.455,-0.942 0,-140.835 0.013,-281.67 -0.084,-422.505 -0.002,-3.057 0.628,-3.639 3.653,-3.637 119.466,0.097 238.932,0.096 358.397,0.006 2.907,-0.002 3.412,0.751 3.403,3.492 -0.108,30.866 -0.069,61.732 -0.069,92.599 -0.432,0.268 -0.898,0.451 -1.411,0.417 -3.637,-0.24 -6.649,0.492 -9.514,2.287 -1.862,1.167 -3.962,1.131 -5.778,0.291 -5.899,-2.728 -10.437,-1.283 -14.856,3.357 -2.413,2.533 -5.933,3.818 -6.348,8.087 -0.183,1.869 -2.245,2.823 -4.059,3.542 -4.859,1.928 -9.895,2.507 -15.075,2.172 -1.116,-0.073 -2.239,-0.267 -3.357,-0.064 -0.509,0.092 -0.946,0.391 -1.09,0.912 -0.161,0.588 0.263,0.966 0.709,1.146 2.129,0.857 4.102,2.608 6.651,1.148 2.102,-1.202 3.729,-0.33 5.378,1.124 3.164,2.787 3.656,2.709 5.308,-0.94 0.882,-1.948 2.221,-3.068 4.256,-3.102 3.221,-0.054 5.582,-1.842 7.198,-4.155 3.058,-4.375 7.094,-5.92 12.125,-5.497 -1.363,-0.52 -2.927,-0.616 -4.229,-1.356 -2.249,-1.277 -3.083,-3.326 -2.196,-5.735 0.887,-2.408 2.901,-1.889 4.763,-1.347 2.752,0.8 5.381,1.967 8.236,2.486 2.154,0.392 3.754,0.045 5.373,-1.599 2.768,-2.813 4.693,-2.89 7.916,-0.923 0,84.262 0,168.523 0,252.785 -2.159,2.861 -4.07,5.74 -4.269,9.581 -0.117,2.292 -2.057,3.513 -4.242,4.188 -1.353,0.417 -2.981,0.21 -4.319,1.726 2.042,1.545 4.204,0.792 6.172,0.969 2.298,0.208 4.79,-0.504 6.658,1.539 0,39.505 0,79.011 0,118.517 -1.293,0.704 -2.693,0.355 -4.039,0.356 -32.686,0.022 -65.373,0.016 -98.047,0.019 -2.398,0.135 -3.166,-1.668 -3.871,-3.415 -1.148,-2.847 -2.947,-4.836 -6.091,-5.496 -1.775,-0.373 -3.025,-1.646 -4.209,-2.981 -3.947,-4.453 -8.378,-8.203 -14.285,-9.855 -2.925,-0.817 -4.941,-2.782 -6.357,-5.456 -0.979,-1.852 -1.658,-3.879 -3.096,-5.817 -2.166,2.151 -3.604,4.712 -6.094,6.223 -1.507,0.915 -2.976,2.138 -4.771,1.95 -4.271,-0.446 -8.454,0.517 -12.698,0.52 -3.797,0.003 -7.282,-0.632 -10.013,-3.337 -3.504,-3.471 -7.866,-2.494 -12.024,-2.693 -1.238,-0.06 -1.31,0.926 -1.487,1.77 -1.769,8.412 -7.166,12.479 -15.536,12.993 -0.274,0.017 -0.48,0.135 -0.652,0.416 1.699,1.682 3.673,1.813 5.856,1.146 2.524,-0.772 4.908,-1.824 7.165,-3.195 2.793,-1.697 5.612,-1.703 8.563,-0.254 4.063,1.995 7.934,4.194 11.066,7.566 2.1,2.259 2.691,5.012 3.058,7.88 0.171,1.333 -0.333,2.203 -1.888,2.038 -63.818,-0.003 -127.624,0.003 -191.431,-0.021 -1.471,-0.004 -2.996,0.367 -4.418,-0.359 z"
   id="path2"
   style="fill:#e6e6e6;fill-opacity:1" />
		<path
   fill-rule="evenodd"
   clip-rule="evenodd"
   fill="#b0d4ba"
   d="m 481.051,275.904 c -3.075,-0.014 -6.216,-0.593 -7.949,3.221 -0.69,1.517 -2.734,1.285 -4.44,1.054 -3.503,-0.475 -6.66,-2.054 -10.039,-2.898 -1.021,-0.255 -2.426,-1.875 -2.897,0.376 -0.386,1.842 -0.236,4.048 2.175,4.367 1.403,0.187 2.667,0.501 3.889,1.092 1.22,0.589 3.597,0.453 2.99,2.457 -0.48,1.585 -2.39,0.676 -3.645,0.314 -3.957,-1.141 -7.451,0.572 -9.651,3.166 -1.411,1.664 -2.883,3.251 -4.463,4.755 -0.09,0.086 -0.167,0.219 -0.273,0.251 -4.149,1.259 -8.013,2.33 -9.994,7.26 -0.869,2.163 -3.812,-0.265 -5.109,-1.801 -1.604,-1.898 -2.841,-2.925 -4.972,-0.679 -0.821,0.864 -8.904,-1.673 -9.568,-2.779 -0.459,-0.764 -0.24,-1.509 0.277,-2.068 1.096,-1.187 2.209,-2.441 4.113,-2.062 6.05,1.207 11.874,0.316 17.611,-1.763 2.455,-0.89 3.854,-2.455 3.317,-5.034 -0.396,-1.899 0.147,-2.8 1.877,-3.38 3.903,-1.309 6.175,-4.868 9.47,-7.07 1.929,-1.288 3.501,-1.499 5.493,-0.899 2.031,0.611 4.079,1.17 6.117,1.756 2.759,0.792 5.071,0.513 5.774,-2.784 0.44,-2.061 1.563,-2.335 3.272,-1.676 2.21,0.853 4.417,1.715 6.625,2.573 0,0.751 0,1.501 0,2.251 z"
   id="path4"
   style="fill:#e6e6e6;fill-opacity:1" />
		
		<path
   fill-rule="evenodd"
   clip-rule="evenodd"
   fill="#e7e9ec"
   d="m 481.051,546.692 c -3.99,-0.003 -7.98,-0.003 -11.971,-0.012 -1.481,-0.003 -2.745,-0.305 -2.964,-2.115 -0.236,-1.956 0.934,-2.691 2.569,-2.988 0.978,-0.179 1.973,-0.276 2.964,-0.357 2.926,-0.238 4.411,-2.049 4.051,-4.726 -0.598,-4.419 1.999,-6.284 5.351,-7.805 0,6.001 0,12.002 0,18.003 z"
   id="path8"
   style="fill:#ffffff;fill-opacity:1" />
		<path
   fill-rule="evenodd"
   clip-rule="evenodd"
   fill="#e7e9ec"
   d="m 115.75,603.7 c 0.853,-0.147 1.734,-0.204 2.553,-0.459 2.588,-0.807 4.343,-0.068 5.233,2.567 0.237,0.701 0.661,1.337 0.944,2.025 1.985,4.813 2.027,4.975 -2.958,6.46 -2.8,0.834 -3.772,2.358 -3.55,5.138 0.238,2.977 -0.092,5.938 -0.696,8.875 -0.215,1.044 -0.677,1.177 -1.527,0.896 0.001,-8.5 0.001,-17.001 0.001,-25.502 z"
   id="path10"
   style="fill:#ffffff;fill-opacity:1" />
		<path
   fill-rule="evenodd"
   clip-rule="evenodd"
   fill="#e7e9ec"
   d="m 171.997,473.194 c 1.375,-1.468 0.427,-3.38 0.953,-5.033 1.182,0.225 -0.088,2.563 1.829,2.115 0.715,-0.168 1.721,-0.174 1.849,-1.004 0.271,-1.761 -1.889,-1.707 -2.644,-3.317 4.123,1.243 7.683,0.251 10.08,-2.814 2.301,-2.942 5.269,-5.842 4.393,-10.833 -2.4,2.936 -4.578,5.601 -6.929,8.477 -2.258,-2.831 -2.878,-7.622 -8.029,-6.296 -1.213,0.173 -1.722,-0.37 -1.59,-1.564 0.026,-2.499 0.149,-5.001 0.05,-7.494 -0.091,-2.301 0.89,-3.257 3.119,-2.97 4.708,0.605 9.43,0.891 14.176,0.704 2.163,-1.712 0.854,-3.593 -0.21,-4.89 -2.256,-2.749 -3.05,-5.838 -3.552,-9.239 -0.688,-4.659 -2.116,-9.19 -2.905,-13.84 -0.449,-2.645 -2.034,-3.475 -4.459,-3.488 -4.986,-0.028 -9.956,-0.148 -14.872,1.076 -2.047,0.509 -4.642,1.488 -5.525,-1.784 -0.645,-2.389 1.923,-7.923 3.792,-8.448 1.529,-0.429 2.593,0.557 3.703,1.354 0.492,0.353 1.005,0.896 1.625,0.377 0.623,-0.522 0.644,-1.322 0.571,-2.078 -0.075,-0.778 -0.664,-0.868 -1.312,-1.025 -4.337,-1.056 -4.869,-1.781 -4.523,-6.265 0.182,-2.357 0.689,-4.677 0.718,-7.061 0.036,-2.952 1.777,-4.476 4.552,-5.083 2.205,-0.481 4.503,-0.741 6.673,-0.694 5.07,0.109 8.272,-2.926 11.646,-5.892 1.386,-1.218 1.718,-2.604 1.205,-4.364 -0.453,-1.553 -1.009,-3.081 -1.294,-4.684 -0.349,-1.962 0.15,-3.698 2.15,-4.201 4.305,-1.081 8.599,-2.625 13.173,-1.509 1.354,0.665 2.167,2.761 4.124,1.804 1.701,-0.832 1.735,-2.715 1.844,-4.238 0.224,-3.14 0.338,-6.223 3.294,-8.223 -3.999,-3.307 -3.997,-3.306 -5.995,1.281 -0.3,0.69 -0.7,1.315 -1.286,1.809 -2.351,1.61 -4.853,2.94 -7.487,4.016 -2.146,0.875 -4.054,0.529 -4.933,-1.722 -1.313,-3.365 -3.342,-5.949 -6.571,-7.629 -0.727,-0.377 -1.339,-1.136 -0.942,-2.166 -0.037,-1.791 0.309,-3.514 0.932,-5.187 0.954,-1.604 3.896,-1.354 3.645,-4.159 -0.349,-3.907 1.504,-7.851 -1.669,-11.676 -4.467,-5.384 -8.724,-10.799 -15.386,-13.633 -0.794,-0.338 -1.495,-0.882 -2.048,-1.577 0.071,-3.542 -3.687,-4.555 -4.837,-7.292 0.139,-0.405 -1.842,-1.284 0.022,-1.113 2.008,0.183 3.936,1.251 5.898,1.934 2.965,-0.793 3.938,-0.457 8.234,2.872 -0.943,-3.753 -1.935,-7.423 -2.769,-11.129 -1.177,-5.228 0.05,-6.55 5.182,-5.709 0.245,0.04 0.486,0.111 0.732,0.135 1.53,0.143 3.178,1.092 4.458,-0.585 1.356,-1.778 -0.392,-2.948 -0.886,-4.364 -5.3,-2.147 -5.123,-2.068 -2.734,-7.359 1.28,-2.834 2.843,-3.447 5.458,-2.118 0.222,0.113 0.46,0.196 0.697,0.275 5.089,1.698 5.073,1.696 5.638,-3.877 0.353,-3.481 2.841,-5.962 4.453,-8.794 3.659,-6.432 3.881,-6.374 -2.234,-10.063 -2.329,-1.405 -4.354,-3.335 -7.024,-4.158 -1.064,-0.329 -1.207,-1.199 -1.183,-2.09 0.109,-3.969 -0.574,-8.002 0.967,-11.941 1.328,-0.482 1.688,1.173 2.727,1.363 2.568,1.009 4.354,0.754 4.927,-2.49 0.254,-1.438 1.214,-2.889 2.994,-2.924 1.582,-0.03 2.31,1.313 3.026,2.487 0.911,1.492 1.731,3.042 2.689,4.501 0.637,0.972 1.02,2.862 2.459,2.315 1.597,-0.606 2.728,-2.165 2.676,-4.139 -0.036,-1.391 -0.651,-2.661 -0.956,-3.997 -0.375,-1.643 -0.642,-3.309 1.172,-4.293 1.906,-1.033 3.967,-1.666 6.099,-0.83 1.277,0.501 1.234,1.772 1.051,2.914 -0.298,1.864 -1.055,3.592 -1.762,5.324 -1.738,4.256 -1.242,8.567 -0.415,12.9 0.219,1.145 0.629,1.984 1.976,1.35 1.125,-0.529 2.423,-1.049 1.752,-2.737 -0.374,-0.939 -1.147,-1.627 -1.688,-2.462 -0.873,-1.349 -2.148,-2.721 -1.15,-4.417 0.951,-1.618 2.684,-2.198 4.507,-2.202 0.719,-10e-4 1.492,-0.108 2.2,0.202 0.497,-0.039 1.011,-0.007 1.487,-0.127 4.314,-1.099 4.541,-1.094 4.298,3.135 -0.162,2.808 1.903,2.28 3.194,2.572 2.416,0.543 3.418,1.299 1.467,3.526 -1.899,2.167 -2.895,4.661 -0.606,6.97 2.189,2.211 4.687,1.35 7.149,-0.092 3.749,-2.194 7.632,-4.159 11.458,-6.221 3.351,-1.52 6.547,-3.383 10.168,-4.291 4.261,-1.068 5.384,-0.406 5.603,3.901 0.074,1.463 0.832,2.231 1.782,3.021 2.479,0.727 5.622,0.298 6.422,3.91 0.146,0.659 1.072,0.335 1.641,0.111 0.922,-0.363 1.824,-0.776 2.737,-1.163 4.124,-1.751 4.121,-1.754 2.425,-5.962 -0.236,-0.586 -0.383,-1.178 0.043,-1.75 1.229,0.234 2.459,0.47 3.689,0.705 3.341,0.578 6.668,0.556 10.012,-0.059 2.708,-0.497 4.28,-1.864 4.225,-4.775 -0.021,-1.122 -0.035,-2.254 0.091,-3.372 0.532,-4.719 5.423,-7.671 9.688,-5.525 3.437,1.729 6.713,3.878 8.219,7.802 0.999,2.604 2.637,4.123 5.756,3.341 4.148,-1.039 6.616,0.805 8.71,4.498 2.622,4.624 3.275,8.784 -0.161,13.125 -1.317,1.596 -2.609,3.214 -3.958,4.783 -2.381,2.771 -2.737,5.632 -0.502,8.656 2.599,1.101 5.021,0.963 7.208,-0.987 2.57,-2.292 5.787,0.002 8.518,-1.181 2.572,1.076 4.753,2.603 5.993,5.212 1.511,3.475 1.696,7.23 2.013,10.901 0.28,3.263 -1.163,4.541 -4.773,4.752 -1.991,0.117 -3.7,0.162 -4.013,2.756 -0.309,2.576 1.649,3.058 3.246,3.9 1.609,0.848 2.574,0.341 2.89,-1.485 0.189,-1.1 0.497,-2.179 0.74,-3.27 0.482,-2.158 1.844,-3.61 4.051,-3.818 3.69,-0.349 7.454,-0.906 10.873,1.261 1.582,-0.176 3.163,-0.352 5.358,-0.596 -2.05,1.325 -1.687,2.752 -1.003,4.203 1.798,3.809 3.602,7.615 5.402,11.422 0.268,6.952 6.057,9.469 10.631,12.723 2.674,1.904 5.166,3.77 6.903,6.55 4.163,-1.048 7.585,0.3 10.96,2.777 3.091,2.269 7.019,1.116 10.553,1.498 5.078,0.547 7.081,4.15 4.375,8.552 -0.874,1.421 -2.152,2.045 -3.78,1.886 -1.562,-0.152 -2.902,-0.729 -3.572,-2.296 -0.246,-0.576 -0.29,-1.209 -0.467,-1.805 -0.307,-1.035 -1.11,-0.877 -1.82,-0.659 -1.17,0.359 -0.705,1.11 -0.266,1.732 0.788,1.118 1.709,2.149 2.138,3.49 0.325,2.163 1.669,2.759 3.713,2.709 3.975,-0.096 7.954,-0.097 11.929,-0.006 4.229,0.096 7.283,3.916 6.388,8.082 -0.547,2.546 -0.236,5.161 -1.078,7.712 -0.529,1.604 -0.132,3.524 2.116,4.063 1.607,0.137 2.828,-0.868 4.211,-1.39 2.771,-1.046 3.978,-0.384 4.397,2.573 0.369,2.597 0.251,5.238 0.125,7.845 -0.136,2.816 1.086,4.195 3.801,4.429 0.747,0.064 1.49,0.163 2.197,0.424 2.849,1.054 3.25,2.927 0.99,5.033 -1.912,1.782 -4.229,2.917 -6.836,2.149 -3.297,-0.97 -3.649,0.515 -3.107,3.131 0.365,1.757 0.412,3.474 -0.783,4.99 -0.248,0.27 -0.494,0.539 -0.742,0.809 -0.662,1.541 -1.725,2.813 1.066,3.814 2.811,1.008 3.487,3.679 2.39,6.511 -1.292,3.333 -2.338,6.776 -4.24,9.849 -0.438,0.708 -1.161,1.338 -0.741,2.324 2.329,3.611 -1.185,1.766 -2.148,2.302 -1.105,1.529 -2.746,2.087 -4.482,2.458 -1.81,0.387 -2.292,1.359 -2.057,3.251 0.242,1.953 1.553,4.503 -0.696,5.836 -2.124,1.259 -4.317,-0.378 -6.369,-1.216 -1.836,-0.75 -3.254,-2.001 -3.458,-4.074 -0.204,-2.09 -1.266,-2.769 -3.235,-2.586 -4.53,0.42 -9.209,-0.808 -13.674,1.363 6.862,0.361 13.051,2.324 18.819,6.144 3.68,2.437 6.395,5.073 6.976,9.562 0.127,0.98 0.42,1.953 0.719,2.906 0.524,1.671 1.874,1.92 3.313,1.692 1.653,-0.261 0.861,-1.525 0.745,-2.388 -0.291,-2.168 0.861,-2.934 2.766,-3.104 4.613,-0.413 7.064,1.501 7.789,5.996 0.388,2.409 1.962,4.295 3.04,6.395 1.352,2.634 3.009,5.141 3.213,8.22 1.814,5.707 5.507,9.885 10.491,13.067 1.417,0.903 3.582,1.656 3.321,3.623 -0.234,1.765 -2.488,1.759 -3.908,2.437 -0.666,0.318 -1.351,0.595 -2.575,1.13 1.265,-5.137 -2.104,-7.292 -5.242,-9.738 -2.347,-1.828 -4.406,-4.025 -6.595,-6.058 -2.525,-1.568 -5.238,-2.908 -6.156,-6.145 -0.319,-1.128 -1.39,-1.313 -2.474,-1.108 -0.368,0.068 -0.754,0.12 -1.084,0.279 -7.921,3.84 -15.631,2.686 -23.309,-0.832 -2.632,-1.205 -5.302,-1.419 -7.449,1.141 -0.328,0.806 -0.615,1.632 -0.994,2.414 -0.729,1.505 -1.655,2.21 -3.064,0.642 -3.948,-4.392 -9.351,-5.935 -14.753,-7.43 -1.914,-0.53 -3.939,-0.74 -5.432,-2.239 -1.594,-1.601 -3.324,0.005 -4.97,-0.26 -0.996,-0.015 -1.497,-0.536 -1.547,-1.517 -0.736,-4.581 -3.496,-8.361 -5.914,-11.96 -1.637,-2.437 -5.898,-2.065 -9.137,-2.282 -2.289,-0.846 -3.094,0.309 -4.095,2.305 -3.213,6.405 -1.702,12.961 -1.18,19.512 -0.057,2.163 -0.008,4.276 2.427,5.297 1.272,3.99 0.724,4.943 -3.988,6.935 2.326,2.358 6.693,-2.163 8.291,1.622 -0.188,-2.516 0.123,-5.614 3.904,-7.013 0.947,2.39 -0.499,4.535 -0.671,6.807 -0.099,1.305 -0.872,2.583 -0.082,4.545 2.725,-3.263 6.025,-4.833 10.015,-5.183 1.913,-0.167 3.484,-0.102 4.686,1.454 1.656,2.147 3.727,3.134 6.483,2.887 2.396,-0.216 3.322,0.967 2.231,3.2 -1.251,2.557 -0.492,4.169 1.913,5.474 1.52,0.823 2.759,2.151 4.252,3.035 2.045,1.209 3.079,2.534 1.355,4.748 -0.934,1.198 -0.644,1.834 0.784,2.475 1.568,0.704 2.825,2.231 4.424,2.708 3.772,1.126 4.795,3.645 4.272,7.136 -0.563,3.759 0.837,6.259 4.422,7.563 4.713,1.716 9.398,4.606 14.152,0.063 0.509,-0.486 1.228,-1.144 1.969,-0.604 0.657,0.478 0.563,1.407 0.324,2.094 -2.036,5.831 0.344,9.94 4.758,13.638 3.338,2.795 6.206,6.144 9.329,9.199 1.227,1.201 2.033,2.431 1.683,4.279 -0.948,5.009 -1.999,10.012 -2.609,15.065 -0.301,2.482 -1.31,3.873 -3.552,4.572 -4.933,1.536 -9.055,4.642 -13.564,6.997 -2.127,1.11 -4.891,2.564 -6.606,1.052 -2.401,-2.115 -4.696,-4.916 -4.658,-8.611 0.045,-4.187 0.892,-8.272 1.698,-12.36 0.099,-0.5 0.041,-0.907 0.679,-1.104 1.958,-0.605 7.043,1.806 7.73,3.76 0.234,0.664 0.068,1.668 1.131,1.572 0.832,-0.075 1.081,-0.947 1.41,-1.611 0.528,-1.068 0.818,-2.308 -0.089,-3.159 -6.164,-5.782 -7.747,-14.108 -11.796,-21.059 -0.9,-1.547 -1.92,-2.905 -3.521,-3.76 -1.732,0.358 -2.31,-0.919 -2.393,-2.116 -0.146,-2.118 -1.049,-4.063 -1.152,-6.168 -4.759,-5.518 -5.049,-5.9 -13.068,-1.982 -3.992,1.95 -7.488,2.029 -11.396,0.814 -3.255,-1.013 -6.55,-2.105 -7.355,4.368 -3.16,-5.769 -7.295,-8.301 -12.147,-9.874 -1.651,-0.536 -3.125,-0.934 -4.38,0.666 -1.313,1.677 -2.633,1.361 -4.137,0.171 -2.635,-2.087 -5.48,-3.921 -8.011,-6.122 -2.377,-2.069 -4.562,-2.094 -6.966,-0.273 -1.19,0.9 -2.498,1.667 -3.597,2.666 -4.79,4.357 -4.77,4.381 -2.395,10.479 -1.99,-0.606 -3.753,-1.082 -5.471,-1.683 -1.7,-0.595 -3.342,-0.706 -5.127,-0.27 -4.411,1.079 -7.964,-1.659 -8.256,-6.262 -0.079,-1.243 0.069,-2.503 -0.044,-3.742 -0.209,-2.287 -1.172,-3.41 -3.296,-1.568 -1.573,1.363 -2.46,1.497 -2.916,-0.867 -0.232,-1.205 -0.89,-2.323 -1.313,-3.496 -1.289,-3.567 -2.891,-3.883 -5.358,-1.037 -3.588,4.136 -3.354,6.312 1.183,9.301 1.739,1.146 2.12,2.211 0.689,3.882 -1.615,1.888 -2.946,4.03 -4.648,5.827 -2.38,2.513 -0.894,3.782 1.378,4.608 1.729,0.629 3.619,0.886 5.461,1.109 1.99,0.241 4.27,0.036 4.688,2.675 0.458,2.886 1.418,5.949 -1.212,8.427 -0.437,0.411 -0.929,0.767 -1.993,1.636 0.309,-2.876 0.492,-5.112 0.809,-7.331 0.173,-1.216 0.9,-2.811 -1.046,-2.853 -1.936,-0.043 -4.471,-1.354 -5.707,1.145 -0.613,1.239 -0.971,3.47 -0.286,4.337 3.501,4.43 -0.52,6.549 -2.497,9.296 -0.517,0.718 -1.112,1.346 -1.134,2.286 -0.63,5.165 -0.228,5.714 4.869,7.11 3.889,1.065 8.007,1.364 11.596,3.44 2.391,2.163 2.063,5.079 2.257,7.888 0.188,2.742 -0.931,5.741 1.539,8.066 -3.508,1.061 -6.355,3.293 -9.833,4.265 -4.231,1.182 -8.031,1.373 -11.225,-2.192 -2.952,-1.711 -5.104,-4.189 -5.784,-7.498 -1.568,-7.625 -6.308,-11.523 -13.802,-12.487 -0.752,-3.065 -3.513,-3.252 -5.838,-4.063 -3.158,-1.636 -4.163,-4.955 -5.543,-7.767 -1.287,-2.62 -3.077,-3.247 -5.889,-3.412 0.326,2.123 1.596,3.548 2.686,4.868 1.751,2.121 1.523,3.318 -1.11,4.056 -2.239,1.229 -4.18,1.411 -5.241,-1.493 0.132,-1.968 0.295,-3.935 0.387,-5.904 0.102,-2.172 1.371,-3.293 3.313,-3.86 0.854,-2.084 2.7,-2.325 3.897,-2.446 -3.503,0.129 -5.653,-1.028 -6.931,-4.129 -1.174,-2.852 -0.143,-5.623 3.108,-8.356 6.844,0.053 13.692,-0.511 20.474,1.27 3.784,0.993 7.678,-0.248 11.516,-0.58 0.654,-0.057 1.28,-0.258 1.133,-1.112 -0.188,-1.096 -0.294,-2.311 -1.494,-2.817 -0.784,-0.332 -1.872,-0.189 -2.459,-0.688 -1.24,-1.052 -3.733,0.5 -3.926,-1.18 -0.313,-2.719 -1.648,-5.638 0.239,-8.344 1.999,-2.866 3.284,-6.083 4.708,-9.248 0.796,-1.771 0.909,-3.17 10e-4,-4.907 -1.558,-2.982 -2.805,-6.125 -4.312,-9.137 -0.986,-1.97 -0.242,-2.472 1.618,-2.289 0.743,0.071 1.483,0.181 2.222,0.295 1.511,0.232 3.497,1.322 3.888,-1.195 0.334,-2.154 0.604,-4.601 -2.684,-5.207 -1.536,-0.283 -4.433,-0.225 -3.611,-2.559 0.819,-2.327 -1.184,-6.87 4.069,-6.679 1.567,0.058 1.802,-1.563 2.332,-2.618 2.575,-5.134 5.211,-10.181 8.841,-14.728 2.07,-2.592 2.03,-6.08 1.504,-9.35 -0.108,-0.672 -0.768,-1.827 -1.102,-1.802 -3.939,0.293 -2.506,-1.555 -2.01,-3.813 0.42,-1.915 -2.288,-2.243 -3.9,-4.074 -1.194,4.444 -2.365,8.391 -3.279,12.395 -0.412,1.807 -0.785,2.634 -3.046,2.667 -7.432,0.11 -15.382,7.712 -14.981,13.947 0.054,0.842 0.114,1.915 0.623,2.461 3.328,3.576 1.678,7.56 0.737,11.247 -0.781,3.06 -8.213,2.948 -10.379,0.024 -1.631,-1.159 -2.32,-2.865 -2.735,-4.727 -0.731,-3.284 -1.727,-6.496 -2.644,-9.729 -0.6,-2.114 -1.864,-3.316 -4.179,-3.641 -5.16,-0.724 -10.216,-2.015 -15.545,-0.988 -3.042,0.586 -5.196,1.4 -4.961,4.992 0.029,0.445 -0.354,0.917 -0.668,1.313 -1.861,1.457 -3.652,3.029 -5.969,3.766 -3.69,-0.896 -5.748,-0.391 -6.167,4.317 -0.269,3.007 -3.447,5.313 -5.598,7.743 -2.148,2.428 -4.351,4.813 -6.425,7.303 -2.119,2.542 -4.463,2.936 -7.263,1.289 -1.076,-0.633 -2.105,-1.369 -3.243,-1.862 -1.023,-0.443 -2.302,-2.098 -3.186,-0.566 -0.864,1.496 -1.437,3.569 0.474,5.082 0.587,0.464 1.225,0.873 1.905,1.184 2.897,1.32 4.818,3.478 5.724,6.539 0.526,1.774 1.427,2.891 3.501,3.337 2.738,0.589 3.715,4.124 2.704,8.257 -0.7,2.861 -2.632,3.843 -5.335,3.377 -3.005,-0.516 -5.712,-1.535 -7.502,-4.362 -2.201,-3.476 -5.547,-3.502 -8.14,-0.192 -1.932,2.468 -3.178,5.361 -4.804,8.021 -1.36,2.225 -2.44,4.815 -5.803,4.382 -3.284,-0.424 -5.069,-2.153 -5.861,-6.033 -0.272,-1.332 -1.094,-1.817 -2.106,-2.357 -2.383,-1.272 -1.729,-2.695 -0.05,-4 1.597,-1.243 3.559,-1.784 5.396,-2.552 4.109,-1.716 8.309,-3.22 12.786,-5.069 -1.73,-1.927 -3.773,-2.239 -5.464,-3.148 -2.042,-1.1 -4.551,-1.593 -5.499,-4.151 0.191,-1.311 0.44,-2.45 -0.476,-3.822 -1.286,-1.926 -2.244,-4.201 -1.052,-6.659 0.144,-0.11 0.291,-0.215 0.437,-0.319 z"
   id="path12"
   style="fill:#ffffff;fill-opacity:1" />
		<path
   fill-rule="evenodd"
   clip-rule="evenodd"
   fill="#f0e8d6"
   d="m 173.51,483.63 c 2.697,2.354 6.168,3.181 9.269,4.74 1.371,0.689 3.737,0.889 3.646,2.69 -0.085,1.7 -2.354,1.872 -3.817,2.448 -4.875,1.917 -9.768,3.786 -14.63,5.731 -0.993,0.397 -1.885,1.047 -3.927,2.207 4.496,0.144 6.262,1.254 5.389,5.297 -0.553,2.558 2.986,2.321 4.635,3.356 1.578,0.991 2.474,-0.502 3.17,-1.699 1.881,-3.231 3.573,-6.581 5.592,-9.722 3.454,-5.375 8.251,-5.179 11.236,0.324 0.981,1.81 7.062,4.226 8.671,3.149 2.886,-1.929 1.272,-5.02 1.408,-7.589 0.12,-2.264 -1.639,-1.576 -2.969,-1.299 -1.173,0.245 -2.054,-0.235 -2.251,-1.392 -0.88,-5.175 -3.963,-8.303 -8.759,-10.173 -1.499,-0.585 -1.52,-7.451 -0.242,-8.536 0.995,-0.847 1.889,-0.209 2.734,0.288 2.257,1.327 4.48,2.708 6.732,4.045 1.149,0.681 2.287,1.015 3.343,-0.229 3.866,-4.552 7.696,-9.135 11.649,-13.609 1.64,-1.856 2.288,-3.757 1.537,-6.158 -0.965,-3.084 0.571,-3.213 2.887,-2.347 1.52,0.568 3.065,1.082 4.23,2.3 -5.309,5.058 -8.631,11.489 -12.383,17.646 -1.136,1.864 -1.37,3.54 -0.354,5.219 5.509,9.095 2.729,17.097 -3.054,24.769 -0.749,0.993 -1.45,2.031 -2.075,3.105 -0.556,0.954 -1.273,2.005 -0.395,3.103 0.995,1.243 2.034,0.272 3.016,-0.124 2.525,-1.021 4.92,-2.333 7.688,-2.75 3.964,-0.598 6.296,1.599 8.313,4.488 -1.882,1.662 -4.045,0.551 -6.076,0.56 -1.545,0.007 -3.022,-0.161 -3.736,1.637 -1.171,2.949 -3.374,4.523 -7.297,4.664 3.166,2.28 4.188,5.201 5.478,8.405 2.474,-2.965 4.6,-5.919 8.175,-7.076 1.625,-0.526 3.27,-1.479 4.864,0.083 -2.231,4.403 -1.146,8.615 0.409,12.972 1.581,4.431 0.637,5.569 -4.066,6.001 -6.557,0.603 -12.773,-3.542 -15.051,-9.873 -1.078,-2.999 -3.878,-4.391 -6.346,-5.96 -1.407,-0.896 -1.587,0.781 -1.935,1.525 -1.491,3.197 -3.443,5.979 -5.905,8.563 -2.906,3.051 -6.07,3.059 -9.559,1.857 -5.787,-1.992 -11.514,-4.221 -16.474,-7.871 -6.319,-4.65 -13.911,-4.19 -21.019,-5.696 -0.968,-0.205 -1.986,-0.288 -2.895,-0.646 -4.831,-1.898 -5.209,-2.704 -2.723,-7.252 1.554,-2.842 2.155,-6.134 4.309,-8.678 2.472,-2.918 5.478,-5.055 8.984,-6.559 1.253,-0.538 2.586,-1.104 3.579,-1.996 2.926,-2.628 2.555,-4.715 -1.009,-6.777 -5.654,-3.273 -10.964,-6.851 -14.182,-12.891 -2.065,-3.878 -0.313,-8.853 3.876,-9.996 1.682,-0.459 3.356,-0.945 5.034,-1.42 0.213,0.307 0.428,0.633 0.459,1.002 0.41,4.856 0.406,4.856 5.304,4.908 2.229,0.023 4.462,-0.099 6.684,0.065 3.843,0.285 5.275,1.806 5.72,5.821 2.043,1.458 5.636,1.455 5.109,5.35 z"
   id="path14"
   style="fill:#e6e6e6;fill-opacity:1" />
		<path
   fill-rule="evenodd"
   clip-rule="evenodd"
   fill="#e7e9ec"
   d="m 233.42,591.262 c -2.821,3.268 -7.05,1.75 -10.147,3.595 3.668,5.534 9.119,8.468 15.236,10.368 2.751,0.855 3.786,2.157 1.949,4.842 -0.768,1.123 -1.301,2.42 -1.847,3.679 -0.846,1.95 -1.855,2.673 -4.309,2.238 -2.934,-0.521 -6.28,-0.591 -8.456,2.328 -1.405,1.884 -1.095,3.205 0.833,4.997 6.143,5.709 13.945,6.006 21.471,7.4 3.046,0.564 6.767,-0.19 8.994,1.833 2.3,2.091 0.094,5.573 0.256,8.459 0.143,2.542 0.84,4.194 3.019,5.461 2.262,1.315 4.368,2.896 6.558,4.335 0.943,0.62 2.167,1.149 2.294,2.324 0.237,2.2 2.026,4.79 0.596,6.449 -1.309,1.517 -3.606,-0.463 -5.428,-0.993 -2.874,-0.837 -5.663,-1.968 -8.542,-2.785 -2.183,-0.62 -3.86,-1.624 -4.656,-3.866 -0.883,-2.485 -2.575,-2.964 -4.657,-1.478 -2.914,2.082 -5.18,1.639 -7.753,-0.871 -3.018,-2.942 -6.516,-5.393 -9.837,-8.019 -1.641,-1.297 -2.263,-2.555 -0.408,-4.218 0.726,-0.65 1.305,-1.528 1.762,-2.401 0.712,-1.36 3.108,-2.441 1.08,-4.385 -1.752,-1.68 -2.84,-3.94 -6.458,-2.593 -6.55,2.441 -12.514,-0.372 -18.045,-3.914 -1.25,-0.801 -2.258,-2.012 -3.554,-2.699 -3.642,-1.935 -4.985,-5.275 -6.927,-8.698 -2.405,-4.24 -1.499,-8.798 -3.288,-12.864 -0.196,-0.445 -0.034,-1.142 -0.326,-1.438 -3.691,-3.739 -2.118,-8.303 -2.01,-12.616 0.066,-2.661 -0.129,-5.196 -1.541,-7.576 -1.341,-2.26 -0.494,-2.82 1.903,-2.311 3.285,0.698 6.656,1.007 9.92,1.777 3.981,0.938 5.591,4.469 6.784,7.729 1.671,4.574 4.962,6.983 9.106,8.738 1.681,0.712 2.708,0.563 3.218,-1.563 0.754,-3.146 1.779,-6.24 2.892,-9.28 0.43,-1.175 0.019,-3.71 2.33,-2.938 2.229,0.746 5.55,0.422 5.832,4.122 0.188,2.492 -0.842,5.348 2.156,6.832 z"
   id="path16"
   style="fill:#ffffff;fill-opacity:1" />
		<path
   fill-rule="evenodd"
   clip-rule="evenodd"
   fill="#9bbff8"
   d="m 377.511,665.105 c -21.493,0 -42.988,0 -64.482,0 -2.104,-2.736 -1.149,-6.641 -4.26,-9.266 -3.71,-3.131 -7.832,-5.284 -12.072,-7.381 -1.832,-0.906 -3.508,-0.012 -4.884,0.964 -2.39,1.694 -5.138,2.472 -7.731,3.657 -3.348,1.53 -5.765,-0.254 -8.304,-1.754 -1.125,-0.666 -1.261,-1.909 -0.662,-2.986 0.644,-1.156 1.438,-0.149 2.224,0.028 5.689,1.283 14.649,-3.6 15.348,-12.21 0.185,-2.271 -0.112,-4.766 3.22,-2.17 0.178,0.139 0.507,0.241 0.704,0.175 6.145,-2.068 10.153,1.77 14.859,4.696 3.561,2.214 8.258,0.813 12.46,0.564 0.985,-0.059 2.037,-0.609 2.928,-0.395 6.236,1.507 9.305,-2.396 12.067,-6.875 0.586,-0.951 0.969,-2.166 2.384,-2.019 1.438,0.15 1.461,1.395 1.814,2.477 1.733,5.303 4.358,9.46 10.506,10.908 5.366,1.264 9.115,5.423 12.566,9.582 0.723,0.87 1.265,2.128 2.424,2.172 6.396,0.239 7.573,5.075 8.891,9.833 z"
   id="path18"
   style="fill:#a0a0a0;fill-opacity:1" />
		<path
   fill-rule="evenodd"
   clip-rule="evenodd"
   fill="#e7e9ec"
   d="m 433.327,608.358 c -1.086,1.305 -2.415,1.267 -3.608,1.53 -2.906,0.64 -5.844,1.028 -3.859,5.384 0.836,1.838 -1.055,1.873 -2.263,1.892 -3.748,0.059 -7.497,0.03 -11.246,0.045 -3.836,0.016 -6.642,1.281 -7.838,5.4 -0.756,2.607 -2.236,5.004 -3.392,7.495 -0.764,1.646 -0.82,4.454 -2.735,4.508 -2.986,0.085 -6.381,0.297 -8.857,-2.103 -2.055,-1.991 -4.046,-4.042 -5.828,-6.323 -1.494,-1.91 -0.8,-2.368 1.004,-3.014 4.188,-1.5 8.324,-3.148 12.759,-4.843 -3.092,-2.865 -6.088,-4.675 -10.221,-4.211 -2.839,0.318 -5.754,-0.085 -8.612,0.128 -2.604,0.192 -3.55,-1.088 -3.97,-3.355 -1.274,-6.881 3.704,-11.649 10.777,-10.46 3.892,0.654 7.843,0.946 12.006,1.43 -0.209,-3.402 -2.23,-5.993 -2.772,-9.034 -0.289,-1.626 -0.66,-2.969 1.463,-3.467 1.915,-0.448 2.567,-1.753 2.42,-3.628 -0.38,-4.815 2.138,-7.906 6.088,-10.143 0.897,-0.51 1.758,-0.959 2.8,-0.42 3.115,1.617 6.092,3.487 8.66,5.857 1.578,1.457 -0.181,5.715 -3.071,7.44 -1.702,1.017 -3.663,1.594 -5.419,2.534 -0.995,0.531 -2.616,1.081 -1.374,2.743 0.989,1.323 2.164,2.117 3.672,0.478 1.182,-1.286 2.601,-2.366 3.706,-3.71 1.517,-1.842 2.576,-1.148 3.901,0.232 1.836,1.911 0.022,2.685 -1.06,3.442 -2.244,1.572 -4.567,3.067 -6.996,4.328 -1.854,0.964 -1.362,2.017 -0.642,3.318 0.651,1.178 0.949,2.594 2.97,1.718 2.972,-1.288 6.062,-2.308 9.11,-3.413 1.597,-0.58 3.187,-1.24 3.234,1.598 0.03,1.835 1.44,2.717 2.938,3.55 1.948,1.085 4.297,1.333 6.255,3.074 z"
   id="path20"
   style="fill:#ffffff;fill-opacity:1" />
		<path
   fill-rule="evenodd"
   clip-rule="evenodd"
   fill="#f0e8d6"
   d="m 182.459,346.361 c 0.821,0.546 1.576,1.263 2.474,1.605 2.869,1.092 4.84,2.873 5.523,5.995 0.679,3.096 2.163,4.071 5.178,2.108 1.942,-1.264 4.037,-2.479 6.424,-2.89 1.901,3.358 1.43,6.188 -1.493,8.972 -4.063,0.571 -8.131,1.112 -12.188,1.729 -1.695,0.259 -2.545,0.918 -1.989,3.029 2.43,9.213 2.405,9.298 -5.225,14.84 -3.199,2.325 -7.194,1.753 -10.834,2.079 -6.197,0.555 -6.258,0.367 -6.593,6.61 -0.127,2.36 -0.85,4.635 -0.784,7.048 0.061,2.24 0.676,2.809 2.914,2.165 3.846,-1.104 4.166,-0.696 3.252,3.174 -0.2,0.849 -0.454,1.685 -0.648,2.535 -0.574,2.503 -1.569,2.308 -3.227,0.733 -3.742,-3.556 -3.799,-3.496 -5.515,1.563 -0.201,0.591 -0.356,1.201 -0.595,1.775 -0.966,2.325 -0.242,3.021 2.116,2.283 5.698,-1.781 11.573,-1.541 17.438,-1.567 3.311,-0.015 4.996,1.245 5.45,4.7 0.6,4.559 1.869,9.027 2.519,13.582 0.601,4.216 2.398,7.836 4.642,11.317 1.656,2.57 1.323,3.887 -2.047,3.415 -0.053,-2.902 -1.204,-4.769 -4.255,-5.59 -4.918,-1.323 -7.042,-5.863 -10.029,-9.381 2.098,-2.569 4.985,0.008 7.598,-1.213 -0.869,-2.444 -2.312,-4.579 -3.516,-6.822 -0.658,-1.227 -1.692,-1.665 -3.1,-1.532 -6.532,0.618 -12.043,2.84 -14.983,9.256 -0.209,0.458 -0.533,0.831 -0.985,1.076 -3.474,0.132 -6.976,-0.452 -10.419,0.505 -1.591,0.442 -2.599,-0.372 -3.282,-1.766 -0.764,-1.561 -1.74,-2.953 -0.292,-4.783 3.079,-3.887 6.487,-7.539 8.647,-12.116 0.637,-1.35 1.249,-2.616 0.334,-3.822 -3.77,-4.97 -2.131,-10.093 -1.343,-15.568 0.791,-5.493 3.338,-8.776 7.967,-11.015 2.853,-1.379 5.939,-1.583 9.035,-1.729 3.503,-0.166 6.912,-0.666 10.026,-2.476 3.05,-1.773 3.425,-4.288 2.202,-7.3 -1.243,-3.063 -2.906,-5.766 -6.033,-7.306 -2.9,-1.43 -4.182,-4.037 -4.003,-7.059 0.249,-4.208 -1.408,-8.714 1.642,-12.842 0.456,5.791 5.047,3.749 7.997,4.683 z"
   id="path22"
   style="fill:#e6e6e6;fill-opacity:1" />
		<path
   fill-rule="evenodd"
   clip-rule="evenodd"
   fill="#e7e9ec"
   d="m 155.376,559.301 c 1.678,4.743 1.64,8.713 -1.126,13.396 -2.662,4.506 -5.813,6.614 -11.258,6.487 2.253,3.791 9.018,3.615 6.466,9.504 -1.475,3.403 0.533,8.731 -5.493,10.146 2.078,0.618 4.154,1.237 6.233,1.853 1.27,0.376 2.972,0.382 2.302,2.501 -0.528,1.67 -0.987,3.689 -3.28,3.412 -2.334,-0.282 -4.698,-0.807 -6.887,-1.648 -1.819,-0.698 -1.167,-2.63 -0.887,-3.979 0.378,-1.825 -0.044,-2.633 -1.937,-2.527 -1.436,0.079 -2.181,-0.815 -3,-1.858 -3.23,-4.117 -6.561,-8.155 -9.869,-12.212 -0.472,-0.579 -0.938,-1.224 -1.55,-1.615 -1.382,-0.883 -2.384,-1.957 -3.475,-3.239 -2.684,-3.158 -1.269,-3.688 1.558,-4.416 3.26,-0.84 6.461,-1.913 9.729,-2.716 2.35,-0.578 3.603,-1.887 3.031,-4.26 -0.725,-3.012 0.517,-3.578 3.236,-3.494 3.945,0.123 4.191,-0.319 2.233,-4.021 -1.409,-2.662 -1.776,-5.382 -1.669,-8.309 0.087,-2.381 1.054,-2.861 3.071,-1.841 0.555,0.28 1.149,0.484 1.731,0.709 8.441,3.244 8.404,3.219 3.384,10.731 -0.617,0.924 -2.845,2.111 -1.118,3.158 1.461,0.887 3.928,1.175 5.3,-1.061 0.963,-1.566 1.442,-3.462 3.275,-4.701 z"
   id="path24"
   style="fill:#ffffff;fill-opacity:1" />
		<path
   fill-rule="evenodd"
   clip-rule="evenodd"
   fill="#e0e2e6"
   d="m 369.278,545.187 c -0.416,-0.843 -1.167,-1.185 -1.999,-1.556 -10.939,-4.874 -21.805,-9.922 -32.809,-14.645 -4.805,-2.063 -9.651,-4.021 -14.438,-6.139 -3.779,-1.673 -1.47,-4.125 -1.027,-6.256 0.59,-2.847 2.419,-1.271 3.758,-0.74 5.564,2.209 10.806,5.137 16.436,7.243 3.32,1.242 5.317,0.947 6.828,-2.484 1.402,-3.187 3.342,-6.133 4.911,-9.253 0.964,-1.917 2.186,-2.09 4.253,-1.812 7.555,1.021 9.051,7.296 11.572,12.733 0.524,1.129 0.829,2.372 1.434,3.45 1.061,1.892 1.203,3.144 -0.997,4.597 -2.245,1.483 -2.483,3.682 0.233,5.37 0.42,0.262 0.741,0.703 1.179,0.917 3.418,1.676 4.06,4.013 1.825,7.141 -0.269,0.377 -0.267,0.948 -0.39,1.43 -0.255,0.184 -0.511,0.185 -0.769,0.004 z"
   id="path26"
   style="fill:#ffffff;fill-opacity:1" />
		<path
   fill-rule="evenodd"
   clip-rule="evenodd"
   fill="#f0e8d6"
   d="m 158.524,189.646 c 1.109,2.556 1.652,5.656 5.594,5.272 4.752,-0.461 8.153,-2.856 10.088,-7.144 1.019,-2.259 1.653,-4.695 2.395,-7.072 0.609,-1.947 1.629,-2.428 3.648,-1.724 5.127,1.787 8.081,6.035 10.211,10.323 1.985,3.995 2.494,8.856 0.099,13.302 -0.468,0.87 -0.793,2.111 -1.536,2.491 -5.38,2.746 -6.825,8.28 -9.479,12.962 -0.734,1.296 -1.548,2.546 -2.326,3.818 -2.37,-0.235 -1.89,-2.369 -2.254,-3.718 -1.356,-5.035 -1.691,-9.941 3.65,-13.136 3.323,-1.988 4.26,-4.934 3.867,-8.583 -0.133,-1.227 -0.05,-2.497 0.433,-4.089 -0.94,3.82 -2.399,7.047 -3.51,10.392 -1.01,3.045 -3.211,4.415 -6.326,4.089 -6.319,-0.661 -12.664,-1.007 -18.981,-1.62 -4.827,-0.467 -6.377,-2.842 -5.165,-6.996 0.456,-1.561 1.378,-2.932 2.976,-3.005 3.119,-0.144 4.734,-1.76 5.555,-4.554 0.14,-0.478 0.609,-0.774 1.061,-1.008 z"
   id="path28"
   style="fill:#e6e6e6;fill-opacity:1" />
		<path
   fill-rule="evenodd"
   clip-rule="evenodd"
   fill="#e7e9ec"
   d="m 158.524,189.646 c -0.229,5.931 -0.259,6.095 -5.963,6.724 -3.306,0.365 -1.896,2.901 -2.457,4.54 -0.735,2.15 0.799,2.208 2.201,2.349 4.682,0.469 9.365,0.939 14.05,1.373 0.988,0.092 1.997,-0.033 2.987,0.051 7.517,0.643 7.489,0.642 9.898,-6.29 1.094,-3.148 2.319,-6.252 3.689,-9.924 1.839,3.643 0.596,7.038 1.118,10.211 0.693,4.209 -1.882,6.166 -5.013,7.721 -2.743,1.362 -3.573,3.465 -3.312,6.388 0.275,3.076 0.47,6.144 1.495,9.087 -0.479,0.521 -0.957,1.042 -1.435,1.563 -3.354,-3.084 -6.922,-5.84 -11.082,-7.81 -4.641,-2.199 -4.686,-2.256 -6.75,2.329 -0.418,0.928 -0.958,1.716 -1.705,2.381 -0.741,1.044 -1.483,1.068 -2.227,0.003 -1.577,-2.695 -0.75,-5.797 -1.457,-8.65 -0.576,-2.328 -0.477,-2.353 -3.56,-2.149 -0.01,1.895 2.292,3.854 0.529,5.546 -1.943,1.867 -4.514,0.757 -6.709,0.108 -4.577,-1.354 -8.113,-4.173 -10.563,-8.303 -0.253,-0.498 -0.506,-0.997 -0.76,-1.496 0.51,-3.138 2.655,-5.281 4.664,-7.461 1.85,-2.006 3.983,-1.696 6.047,-0.265 1.435,0.994 2.337,1.528 3.049,-0.907 1.298,-4.44 7.697,-8.273 12.57,-7.94 0.234,0.274 0.465,0.548 0.696,0.821 z"
   id="path30"
   style="fill:#ffffff" />
		<path
   fill-rule="evenodd"
   clip-rule="evenodd"
   fill="#f0e8d7"
   d="m 222.29,237.62 c -1.904,1.178 -5.251,0.743 -5.857,2.734 -0.625,2.052 2.37,3.504 3.474,5.417 0.505,0.876 1.892,1.895 0.563,2.892 -1.741,1.305 -3.477,3.106 -5.832,2.861 -1.513,-0.157 -1.142,-1.914 -1.407,-3.102 -1.349,-6.047 -0.94,-11.87 1.869,-17.467 0.386,-0.769 0.545,-1.658 0.758,-2.503 0.051,-0.202 -0.102,-0.455 -0.162,-0.689 -0.227,-0.08 -0.463,-0.244 -0.675,-0.217 -6.158,0.761 -6.157,0.764 -4.257,6.688 0.732,2.283 -1.365,7.169 -3.505,8.108 -1.628,0.714 -2.282,-0.56 -2.894,-1.602 -1.45,-2.473 -2.781,-5.016 -4.195,-7.51 -0.402,-0.71 -0.553,-1.838 -1.699,-1.682 -0.835,0.115 -1.033,1.013 -1.324,1.684 -0.296,0.684 -0.435,1.44 -0.75,2.114 -0.605,1.293 -0.003,3.529 -1.752,3.798 -1.886,0.29 -2.906,-1.599 -3.912,-3.029 0.813,-3.513 3.022,-6.308 5.157,-8.996 2.085,-2.624 2.973,-5.099 1.519,-8.194 -1.065,-2.267 -0.262,-3.481 2.082,-4.056 7.831,-1.921 14.679,0.556 20.425,5.505 2.527,2.177 2.815,6.054 0.702,9.283 -2.151,3.289 -2.038,5.97 1.672,7.963 z"
   id="path32"
   style="fill:#e6e6e6;fill-opacity:1" />
		<path
   fill-rule="evenodd"
   clip-rule="evenodd"
   fill="#f0e8d7"
   d="m 408.293,341.908 c -0.55,-0.674 -1.08,-1.365 -1.652,-2.021 -3.185,-3.664 -3.036,-4.136 1.768,-5.124 1.909,-0.394 4.239,-1.116 2.656,2.41 -0.377,0.837 -0.651,1.767 0.377,2.28 1.212,0.605 2.607,1.436 3.89,0.554 2.054,-1.411 1.317,-3.91 1.609,-5.874 0.237,-1.598 -1.714,-1.863 -3.097,-1.926 -1.87,-0.086 -3.765,-0.212 -5.615,-0.008 -3.763,0.415 -6.861,-0.862 -9.574,-3.32 -1.615,-1.464 -3.184,-2.345 -5.225,-0.604 -1.085,0.924 -2.305,0.938 -3.145,-0.511 0.132,-2.097 -0.097,-4.428 2.996,-4.593 6.606,3.286 13.424,5.868 20.824,6.763 3.821,0.462 7.677,0.974 11.384,1.966 5.063,1.355 8.451,5.055 11.3,9.274 1.506,2.231 3.418,3.829 6.082,4.691 3.62,1.172 6.008,4.217 8.02,7.081 2.377,3.385 4.795,4.301 8.427,2.667 0.429,-0.193 0.984,-0.102 1.481,-0.142 1.435,1.561 1.199,3.203 0.077,4.755 -1.207,1.672 -2.975,1.661 -4.734,1.165 -2.995,-0.845 -6.074,-1.697 -8.737,-3.21 -4.028,-2.292 -7.753,-0.84 -11.51,0.194 -4.65,1.281 -5.967,0.288 -4.856,-4.553 0.522,-2.278 0.091,-3.889 -1.089,-5.88 -1.57,-2.652 -3.583,-3.488 -6.413,-3.42 -3.483,0.083 -6.975,-0.09 -10.453,0.059 -2.257,0.093 -3.887,-0.536 -4.791,-2.673 z"
   id="path34"
   style="fill:#e6e6e6;fill-opacity:1" />
		<path
   fill-rule="evenodd"
   clip-rule="evenodd"
   fill="#f0e8d6"
   d="m 249.25,539.188 c 1.566,1.132 3.549,0.804 5.241,1.493 1.5,1.818 1.154,3.896 0.836,5.97 -1.116,1.284 -2.579,0.915 -3.833,0.542 -2.503,-0.745 -4.278,0.326 -6.141,1.761 -1.651,1.271 -2.047,2.395 -1.08,4.413 2.157,4.499 1.326,5.61 -3.533,5.366 -1.247,-0.063 -2.496,-0.093 -3.741,-0.19 -4.648,-0.364 -4.563,-0.351 -5.258,4.367 -0.323,2.193 -0.314,3.711 2.556,3.495 1.824,-0.138 3.499,0.532 4.712,1.908 1.601,1.816 2.813,1.182 4.384,-0.146 4.159,-3.518 6.683,-7.946 8.253,-13.098 0.562,-1.842 0.664,-4.373 3.533,-4.572 0.315,2.732 -0.649,5.151 -1.84,7.513 -2.874,5.701 -3.306,11.634 -1.892,17.814 0.329,1.438 1.804,3.303 -0.056,4.44 -1.843,1.126 -3.952,1.967 -6.347,1.073 -7.278,-2.716 -13.885,-6.692 -20.5,-10.667 -0.942,-0.566 -1.387,-1.351 -1.564,-2.4 -0.248,-1.471 -0.574,-2.929 -0.874,-4.392 -1.697,-8.255 -1.851,-8.731 5.87,-11.222 6.654,-2.147 11.705,-6.388 17.05,-10.397 1.391,-1.044 2.815,-2.049 4.224,-3.071 z"
   id="path36"
   style="fill:#e6e6e6;fill-opacity:1" />
		<path
   fill-rule="evenodd"
   clip-rule="evenodd"
   fill="#f0e8d6"
   d="m 393.289,231.238 c -0.225,6.451 -0.671,12.01 -4.75,16.682 -2.05,2.348 -4.105,3.082 -6.861,1.873 -3.888,-1.705 -7.566,-3.83 -11.012,-6.279 -3.27,-2.325 -3.498,-7.894 -0.629,-10.728 1.786,-1.764 3.06,-3.667 4.01,-6.112 1.212,-3.119 3.699,-5.72 7.373,-6.168 3.789,-0.463 7.321,-0.349 9.463,3.939 1.224,2.454 3.218,4.48 2.406,6.793 z"
   id="path38"
   style="fill:#e6e6e6;fill-opacity:1" />
		<path
   fill-rule="evenodd"
   clip-rule="evenodd"
   fill="#f0e8d7"
   d="m 437.545,393.603 c -0.403,-2.563 -0.668,-5.158 -1.242,-7.682 -0.701,-3.08 0.493,-3.756 3.028,-2.503 3.067,1.516 5.703,1.091 8.188,-1.124 0.541,-0.482 1.437,-0.784 1.277,-1.65 -0.154,-0.841 -1.053,-0.945 -1.756,-1.119 -7.24,-1.788 -7.193,-1.785 -7.27,-9.243 -0.023,-2.183 1.052,-5.202 -0.583,-6.334 -1.582,-1.096 -3.406,1.866 -5.449,2.341 -0.48,0.111 -0.957,0.249 -1.436,0.374 -0.175,-0.177 -0.379,-0.337 -0.514,-0.541 -1.092,-1.656 -2.431,-3.46 -2.212,-5.37 0.31,-2.708 3.1,-1.188 4.655,-1.951 2.496,-1.226 5.333,-1.093 8.029,-1.498 1.667,-0.25 3.304,0.191 4.532,1.339 3.81,3.557 8.05,6.618 11.763,10.281 -3.171,1.225 -6.597,1.01 -9.833,1.754 -1.313,0.302 -3.983,-0.335 -3.317,2.762 0.623,2.904 2.658,1.819 4.06,1.291 3.66,-1.381 7.307,-1.126 11.018,-0.545 1.006,0.158 2.328,0.255 1.902,1.637 -0.872,2.832 -1.638,5.832 -3.217,8.264 -1.108,1.708 -3.077,3.692 -5.483,3.459 -6.447,-0.621 -11.076,3.219 -16.14,6.058 z"
   id="path40"
   style="fill:#e6e6e6;fill-opacity:1" />
		<path
   fill-rule="evenodd"
   clip-rule="evenodd"
   fill="#f0e8d6"
   d="m 446.536,459.667 c -2.995,-3.861 -4.791,-8.429 -7.365,-12.54 -0.382,-0.61 -0.525,-1.384 -0.72,-2.098 -0.304,-1.112 1.811,-2.529 0.054,-3.242 -2.146,-0.871 -4.558,-1.388 -6.871,-1.452 -1.781,-0.051 -0.486,1.358 -0.442,2.195 0.063,1.2 2.784,2.894 0.141,3.42 -2.196,0.437 -5.33,1.631 -6.971,-1.629 -0.162,-0.324 -0.202,-0.716 -0.269,-1.082 -0.849,-4.637 -1.386,-9.23 -6.773,-11.437 -4.282,-1.753 -7.609,-5.524 -12.894,-5.254 -2.973,0.151 -6.001,-0.798 -9.833,-1.377 3.117,-2.469 5.592,-3.76 8.748,-3.783 4.106,-0.028 8.233,0.428 12.318,-0.297 1.638,-0.291 1.822,0.412 1.794,1.859 -0.068,3.601 3.934,7.248 7.483,7.086 0.802,-0.036 1.177,-0.336 1.138,-1.069 -0.025,-0.486 -0.26,-0.958 -0.359,-1.445 -1.35,-6.665 -1.346,-6.656 5.269,-7.674 0.729,-0.112 1.43,-0.42 2.145,-0.637 -0.85,2.522 -2.699,4.436 -4.057,6.648 -2.336,3.808 -1.754,5.954 2.423,7.363 3.93,1.328 6.599,4.228 8.667,7.341 2.734,4.113 4.653,8.781 6.78,13.278 0.908,1.919 0.147,3.909 -0.406,5.826 z"
   id="path42"
   style="fill:#e6e6e6;fill-opacity:1" />
		<path
   fill-rule="evenodd"
   clip-rule="evenodd"
   fill="#e7e9ec"
   d="m 369.278,545.187 c 0.257,-10e-4 0.513,-0.002 0.77,-0.003 0.986,0.508 2.188,0.807 2.926,1.558 3.681,3.751 8.062,5.164 13.223,4.463 2.266,-0.308 3.098,1.164 3.444,3.072 0.379,2.079 -1.461,2.153 -2.59,2.521 -7.215,2.347 -14.48,4.542 -21.715,6.831 -1.932,0.611 -3.345,0.854 -2.402,-1.982 0.715,-2.154 -1.103,-2.077 -2.319,-2.489 -5.82,-1.97 -5.784,-1.955 -3.847,-7.837 0.775,-2.354 1.585,-4.741 1.942,-7.178 0.408,-2.773 1.553,-2.29 3.176,-1.152 2.216,1.551 4.359,3.382 7.392,2.196 z"
   id="path44"
   style="fill:#ffffff;fill-opacity:1" />
		<path
   fill-rule="evenodd"
   clip-rule="evenodd"
   fill="#e8e9ea"
   d="m 458.557,368.923 c -4.545,0.184 -6.113,-4.25 -9.372,-6.094 -1.996,-1.129 -2.943,-4.254 -5.447,-4.197 -4.185,0.095 -8.36,0.861 -12.521,1.477 -1.163,0.172 -1.153,1.2 -0.627,2.05 0.865,1.4 1.366,2.918 1.713,4.503 -3.064,-1.226 -3.994,-4.111 -3.197,-6.58 0.901,-2.794 0.757,-5.623 1.426,-8.384 0.663,-2.733 -2.491,-5.962 -5.54,-6.014 -4.098,-0.07 -8.199,-0.055 -12.298,-0.01 -2.615,0.029 -4.381,-0.818 -4.4,-3.766 1.725,1.552 3.817,1.583 5.97,1.525 2.489,-0.066 4.983,-0.019 7.475,-0.014 7.732,0.015 10.935,3.771 9.968,11.506 -0.173,1.385 -0.484,4.465 1.934,2.932 7.612,-4.826 14.241,-1.074 21.118,1.42 5.207,1.888 5.552,1.686 6.042,-3.809 5.654,-0.382 9.356,2.833 12.403,6.976 2.053,2.792 1.267,4.44 -2.044,5.025 -4.174,0.737 -8.331,1.594 -12.603,1.454 z"
   id="path46"
   style="fill:#ffffff;fill-opacity:1" />
		<path
   fill-rule="evenodd"
   clip-rule="evenodd"
   fill="#f0e8d7"
   d="m 331.785,260.899 c 2.111,-4.72 1.23,-8.986 -1.313,-13.396 -1.536,-2.665 -3.237,-3.443 -6.021,-2.979 -6.118,1.022 -6.124,0.988 -8.656,-4.963 -2.011,-4.726 -8.491,-7.589 -12.361,-5.823 -2.985,1.363 -2.313,3.737 -2.414,6.018 -0.117,2.668 0.678,6.209 -2.908,6.827 -4.224,0.728 -8.848,3.782 -12.864,-0.719 1.289,-2.143 3.499,-3.229 5.545,-4.28 2.853,-1.464 4.247,-3.747 4.748,-6.658 0.705,-4.095 3.357,-6.856 6.152,-9.539 2.053,-1.97 4.001,-1.451 5.166,0.879 2.056,4.112 6.121,6.079 9.184,9.104 0.677,0.668 1.875,0.792 2.124,1.939 0.5,2.291 1.309,3.306 3.332,1.059 0.831,-0.924 2.007,-0.227 2.766,0.22 5.209,3.068 9.034,7.292 10.571,13.304 1.649,0.977 2.029,2.175 0.648,3.684 -0.939,1.979 -1.391,4.295 -3.699,5.323 z"
   id="path48"
   style="fill:#e6e6e6;fill-opacity:1" />
		<path
   fill-rule="evenodd"
   clip-rule="evenodd"
   fill="#e7e9ec"
   d="m 255.179,550.497 c -2.239,2.957 -2.772,6.64 -3.997,9.988 -1.748,4.781 -5.814,7.351 -8.966,10.789 -1.411,1.539 -2.668,0.159 -3.307,-0.946 -1.527,-2.645 -3.747,-3.135 -6.359,-2.379 -2.416,0.699 -2.905,-0.412 -2.73,-2.435 0.021,-0.248 0.063,-0.494 0.101,-0.74 1.336,-8.79 1.335,-8.784 11.458,-7.494 0.938,0.12 2.05,1.052 2.787,0.092 0.697,-0.907 -0.405,-1.809 -0.667,-2.728 -0.466,-1.628 -3.389,-3.056 -1.296,-4.787 2.479,-2.051 4.398,-5.823 8.778,-4.249 1.394,0.501 2.895,0.704 4.347,1.043 0.603,-0.124 1.391,-0.438 1.021,0.724 -0.336,1.058 -0.776,2.083 -1.17,3.122 z"
   id="path50"
   style="fill:#ffffff;fill-opacity:1" />
		<path
   fill-rule="evenodd"
   clip-rule="evenodd"
   fill="#f0e8d6"
   d="m 132.26,206.894 c 1.985,1.493 4.013,2.933 5.945,4.49 3.172,2.556 6.894,3.092 10.823,3.364 0.178,-3 -2.762,-4.557 -2.901,-7.156 0.268,-0.158 0.431,-0.303 0.474,-0.273 2.281,1.557 7.188,-2.32 7.372,3.468 0.101,3.181 1.558,6.369 0.047,9.557 -6.776,-1.474 -13.133,2.285 -19.864,1.573 -4.815,-0.509 -9.145,-1.955 -12.833,-5.263 -2.731,-2.45 -1.076,-3.844 1.002,-5.112 2.428,-1.483 5.327,-1.149 7.984,-1.498 2.537,-0.334 2.447,-1.393 1.951,-3.15 z"
   id="path52"
   style="fill:#e6e6e6;fill-opacity:1" />
		<path
   fill-rule="evenodd"
   clip-rule="evenodd"
   fill="#9cbff8"
   d="m 400.113,512.076 c 1.729,1.123 2.901,2.437 2.311,4.769 -0.333,1.317 -0.088,2.668 1.236,3.518 0.035,1.479 2.564,2.848 0.139,4.481 -0.452,0.305 0.14,0.824 0.534,1.131 3.5,2.726 4.081,6.165 4.706,10.607 0.745,5.309 0.568,6.184 -4.372,4.405 -0.468,-0.169 -1.164,0.299 -1.753,0.476 -0.466,0.14 -0.931,0.287 -1.35,0.416 -0.798,-0.794 -0.227,-1.513 -0.026,-2.157 1.199,-3.863 -0.076,-5.98 -4.117,-6.722 -1.699,-0.311 -6.515,-5.293 -6.565,-6.922 -0.055,-1.734 1.328,-1.805 2.571,-2.041 1.654,-0.314 3.517,0.555 5.358,-1.313 -4.921,-0.711 -4.767,-4.962 -4.747,-7.978 0.013,-1.911 3.787,-2.158 6.075,-2.67 z"
   id="path54"
   style="fill:#a0a0a0;fill-opacity:1" />
		<path
   fill-rule="evenodd"
   clip-rule="evenodd"
   fill="#a8d9b4"
   d="m 393.281,323.169 c -0.998,1.531 -1.997,3.061 -2.996,4.592 -2.378,-5.534 -8.847,-6.565 -12.178,-11.052 -0.071,-0.096 -0.194,-0.154 -0.295,-0.228 -1.156,-0.836 -3.298,1.746 -3.687,-0.679 -0.438,-2.731 -1.465,-5.562 -0.298,-8.393 1.944,-1.339 3.994,-2.551 5.804,-4.052 1.902,-1.576 3.136,-0.787 3.678,1.021 1.616,5.394 5.134,8.841 10.295,10.756 1.439,0.534 1.484,1.363 0.934,2.622 -0.749,1.713 -1.406,3.478 -1.257,5.413 z"
   id="path56"
   style="fill:#e6e6e6;fill-opacity:1" />
		<path
   fill-rule="evenodd"
   clip-rule="evenodd"
   fill="#e7e9ec"
   d="m 397.576,583.958 c -3.13,1.645 -5.285,2.847 -7.507,3.91 -0.954,0.458 -1.964,0.889 -1.907,2.032 0.15,3.075 -1.678,3.612 -4.072,3.228 -6.095,-0.978 -11.177,1.44 -16.168,4.456 -1.023,0.618 -2.313,2.66 -3.679,0.507 -1.299,-2.046 -0.297,-5.884 1.557,-6.541 3.178,-1.126 6.393,-2.146 9.58,-3.247 1.036,-0.359 2.508,-0.467 2.703,-1.735 0.767,-4.98 4.738,-6.121 8.59,-6.965 4.11,-0.901 6.687,2.608 10.903,4.355 z"
   id="path58"
   style="fill:#ffffff;fill-opacity:1" />
		<path
   fill-rule="evenodd"
   clip-rule="evenodd"
   fill="#f0e8d6"
   d="m 157.83,188.826 c -2.335,1.18 -4.675,2.348 -7.003,3.541 -2.504,1.283 -4.612,2.7 -4.532,6.106 0.042,1.808 -0.697,3.521 -3.231,1.639 -4.435,-3.292 -4.447,-3.144 -7.894,1.138 -1.15,1.429 -1.839,3.311 -3.67,4.148 -1.328,-1.957 -1.231,-4.375 -0.391,-6.099 2,-4.104 3.889,-8.46 7.325,-11.6 5.852,-5.351 14.317,-4.728 19.396,1.127 z"
   id="path60"
   style="fill:#e6e6e6;fill-opacity:1" />
		<path
   fill-rule="evenodd"
   clip-rule="evenodd"
   fill="#f0e8d6"
   d="m 229.013,453.69 c -1.054,-6.388 -1.037,-6.31 5.699,-7.815 6.213,-1.39 12.119,0.57 18.119,1.446 2.047,0.299 2.536,2.219 2.985,3.931 1.328,5.068 2.622,10.145 3.929,15.218 -1.838,-0.28 -3.777,-0.283 -5.49,-0.909 -2.392,-0.874 -4.393,-2.224 -3.636,-5.497 0.384,-1.662 0.264,-3.485 0.121,-5.216 -0.277,-3.352 -3.026,-5.135 -6.232,-4.206 -3.332,0.966 -6.612,2.188 -10.205,1.548 -1.964,-0.35 -3.637,0.605 -5.29,1.5 z"
   id="path62"
   style="fill:#e6e6e6;fill-opacity:1" />
		<path
   fill-rule="evenodd"
   clip-rule="evenodd"
   fill="#f0e8d7"
   d="m 168.106,309.612 c 6.892,2.137 11.647,6.89 16.452,12.096 4.959,5.375 4.107,11.335 3.834,17.386 -0.152,3.351 -3.213,1.619 -5.002,2.08 -0.949,-1.138 -2.357,-1.302 -3.726,-1.71 1.68,-1.787 3.349,-3.522 4.973,-5.298 2.8,-3.062 2.276,-5.271 -1.559,-6.657 -4.396,-1.589 -8.213,-4.193 -11.829,-7.048 -3.175,-2.505 -5.217,-5.711 -4.491,-10.053 0.217,-0.662 0.627,-0.992 1.348,-0.796 z"
   id="path64"
   style="fill:#e6e6e6;fill-opacity:1" />
		<path
   fill-rule="evenodd"
   clip-rule="evenodd"
   fill="#e7e9ec"
   d="m 159.983,428.958 c -0.294,-3.567 4.539,-9.441 8.587,-10.435 0.121,-0.03 0.248,-0.036 0.37,-0.062 10.453,-2.241 10.961,-1.938 15.421,8.097 0.867,1.949 0.308,2.522 -1.596,2.358 -2.6,-0.223 -5.197,-0.481 -7.796,-0.725 -2.201,-1.582 -3.95,0.278 -5.832,0.836 -1.75,0.519 -3.481,1.208 -5.096,2.058 -2.52,1.33 -3.616,0.318 -4.058,-2.127 z"
   id="path66"
   style="fill:#ffffff;fill-opacity:1" />
		<path
   fill-rule="evenodd"
   clip-rule="evenodd"
   fill="#e7e9eb"
   d="m 225.206,521.183 c -6.394,0.554 -10.178,4.597 -13.154,10.73 -2.46,-4.772 -2.331,-10.454 -7.859,-11.738 0.1,-1.346 0.868,-1.472 1.385,-1.493 3.891,-0.169 6.952,-1.301 7.77,-5.718 0.188,-1.017 1.217,-1.485 2.382,-1.297 2.686,0.435 5.378,0.831 8.068,1.244 1.905,0.179 4.509,-0.133 4.959,2.087 0.536,2.643 -1.029,4.881 -3.551,6.185 z"
   id="path68"
   style="fill:#ffffff;fill-opacity:1" />
		<path
   fill-rule="evenodd"
   clip-rule="evenodd"
   fill="#e9e9e7"
   d="m 167.495,479.086 c -0.168,-3.588 -1.801,-5.403 -5.638,-5.201 -3.352,0.177 -6.738,0.09 -10.086,-0.172 -2.687,-0.209 -4.704,-1.178 -2.627,-4.452 0.523,-0.824 0.736,-1.845 1.092,-2.774 2.009,-1.807 4.469,-3.017 6.319,-5.077 1.041,-1.158 8.315,0.125 8.833,1.846 0.819,2.724 3.786,4.479 3.224,7.733 -0.304,1.759 0.523,2.357 2.157,1.541 0.807,-0.404 1.131,-0.134 1.229,0.664 l 0.026,-0.037 c -0.672,1.119 -0.505,2.381 -0.689,3.594 -0.326,2.132 -1.377,3.508 -3.84,2.335 z"
   id="path70"
   style="fill:#ffffff;fill-opacity:1" />
		<path
   fill-rule="evenodd"
   clip-rule="evenodd"
   fill="#afd4ba"
   d="m 335.482,255.575 c 0.098,-1.283 -0.047,-2.523 -0.648,-3.683 1.865,-3.403 4.072,-7 7.236,-8.784 3.025,-1.707 5.574,-2.636 5.234,-6.69 -0.063,-0.755 1.329,-1.545 2.398,-1.254 1.105,0.301 0.678,1.43 0.834,2.237 0.885,4.569 -0.904,8.234 -4.683,10.376 -5.205,2.952 -4.32,7.763 -4.02,12.074 0.184,2.635 -0.511,3.604 -2.581,4.429 -1.729,0.688 -3.438,1.449 -5.096,2.293 -1.096,0.557 -2.273,1.733 -3.313,0.512 -1.131,-1.329 0.342,-2.336 1.226,-3.03 2.807,-2.207 4.073,-4.93 3.413,-8.48 z"
   id="path72"
   style="fill:#e6e6e6;fill-opacity:1" />
		<path
   fill-rule="evenodd"
   clip-rule="evenodd"
   fill="#f0e8d6"
   d="m 435.277,416.91 c -1.379,-1.817 0.098,-3.324 0.636,-4.856 0.991,-2.821 2.283,-5.536 3.314,-8.344 0.895,-2.436 0.074,-4.129 -2.549,-4.739 -1.269,-0.295 -3.501,0.501 -3.597,-1.015 -0.118,-1.897 1.761,-3.084 3.721,-3.543 1.954,4.41 5.408,4.652 9.466,3.521 1.297,-0.361 2.755,-0.625 4.048,-0.403 2.186,0.375 3.259,1.743 2.197,4.048 -1.651,3.584 -3.906,6.46 -7.58,8.408 -3.477,1.843 -7.03,3.795 -9.656,6.923 z"
   id="path74"
   style="fill:#e6e6e6;fill-opacity:1" />
		<path
   fill-rule="evenodd"
   clip-rule="evenodd"
   fill="#d7edd4"
   d="m 345.551,258.481 c 0.565,-3.01 3.576,-4.572 4.026,-8.092 0.457,-3.56 1.144,-7.29 1.982,-10.832 0.884,-3.735 3.724,-6.983 6.634,-9.653 1.936,-1.776 2.133,0.218 2.091,1.654 -0.181,6.259 -1.381,12.247 -3.514,18.21 -1.946,5.447 -4.33,9.438 -11.219,8.713 z"
   id="path76"
   style="fill:#e6e6e6;fill-opacity:1" />
		<path
   fill-rule="evenodd"
   clip-rule="evenodd"
   fill="#f0e8d6"
   d="m 156.247,220.339 c 0.009,-0.371 -0.024,-0.748 0.033,-1.111 1.132,-7.287 2.638,-8.218 8.932,-4.773 4.082,2.234 9.3,3.358 10.572,8.984 -3.416,5.659 -9.531,6.37 -13.957,0.766 -1.378,-1.746 -2.798,-3.928 -5.58,-3.866 z"
   id="path78"
   style="fill:#e6e6e6;fill-opacity:1" />
		<path
   fill-rule="evenodd"
   clip-rule="evenodd"
   fill="#f0e8d6"
   d="m 364.07,292.38 c -3.112,0.009 -6.229,0.115 -9.337,-10e-4 -2.653,-0.1 -4.45,0.538 -4.245,3.646 0.009,0.123 0.019,0.269 -0.036,0.368 -1.057,1.914 0.425,5.331 -1.996,5.916 -2.432,0.588 -4.842,-1.588 -6.977,-3.024 -2.619,-1.762 -0.664,-4.092 -0.225,-6.096 0.416,-1.89 1.773,-2.227 3.755,-1.84 4.538,0.885 5.438,-0.106 4.444,-4.669 -0.676,-3.1 -0.273,-6.2 -0.41,-9.298 0.498,0.527 1.366,1.011 1.434,1.589 0.665,5.715 5.409,7.46 9.462,9.844 1.616,0.951 3.146,1.922 4.131,3.565 z"
   id="path80"
   style="fill:#e6e6e6;fill-opacity:1" />
		<path
   fill-rule="evenodd"
   clip-rule="evenodd"
   fill="#d6ecd3"
   d="m 440.456,312.35 c -1.188,0.564 -2.436,0.289 -3.652,0.228 -0.674,-0.034 -1.378,-0.486 -0.984,-1.188 2.042,-3.644 1.735,-8.006 5.86,-11.229 5.139,-4.015 10.713,-7.7 15.173,-12.603 0.434,-0.477 1.041,-1.138 1.532,-0.605 2.379,2.579 5.669,1.246 9.401,2.15 -3.815,3.061 -7.109,5.591 -11.32,6.185 -5.196,0.733 -8.743,3.364 -10.87,8.048 -0.652,1.438 -1.7,2.342 -3.06,3.125 -3.164,1.826 -3.371,2.601 -2.08,5.889 z"
   id="path82"
   style="fill:#e6e6e6;fill-opacity:1" />
		<path
   fill-rule="evenodd"
   clip-rule="evenodd"
   fill="#a7d9b4"
   d="m 171.909,452.923 c 0.53,0.521 1.06,1.042 1.59,1.563 0.948,1.838 4.642,2.261 3.728,4.433 -0.756,1.796 -3.833,0.679 -5.864,0.72 -4.668,0.095 -6.625,-1.559 -7.657,-6.211 -0.53,-2.388 -2.103,-4.221 -3.319,-6.202 -1.531,-2.492 -0.92,-3.271 1.779,-3.375 1.348,-0.052 2.675,-0.494 4.023,-0.675 5.05,-0.675 5.013,-0.66 5.08,4.676 0.021,1.699 -0.477,3.498 0.64,5.071 z"
   id="path84"
   style="fill:#e6e6e6;fill-opacity:1" />
		<path
   fill-rule="evenodd"
   clip-rule="evenodd"
   fill="#a8d9b5"
   d="m 281.557,245.159 c 4.804,6.214 4.802,6.209 -2.575,9.188 -0.804,0.325 -1.548,0.802 -2.359,1.104 -1.836,0.683 -4.756,3.418 -3.481,-1.906 0.354,-1.478 -0.815,-2.149 -2.394,-1.863 -0.87,0.157 -2.088,1.652 -2.562,-0.476 -0.964,-3.976 -0.533,-5.025 2.795,-6.806 1.026,-0.832 -0.095,-1.899 0.268,-2.722 0.532,-1.205 1.803,-2.41 2.587,-0.688 1.61,3.532 4.552,3.9 7.721,4.169 z"
   id="path86"
   style="fill:#e6e6e6;fill-opacity:1" />
		<path
   fill-rule="evenodd"
   clip-rule="evenodd"
   fill="#f0e8d7"
   d="m 183.969,284.878 c 1.593,0.33 3.98,-0.025 3.163,2.777 -0.625,2.145 -0.417,4.992 -4.542,4.154 -7.867,-1.599 -7.921,-1.329 -5.9,6.721 0.924,3.683 1.845,7.367 3.039,12.134 -3.75,-3.438 -6.689,-6.126 -10.711,-7.004 1.667,-3.192 2.174,-6.739 3.215,-10.116 1.687,-5.478 7.094,-6.735 11.736,-8.666 z"
   id="path88"
   style="fill:#e6e6e6;fill-opacity:1" />
		<path
   fill-rule="evenodd"
   clip-rule="evenodd"
   fill="#f0e8d6"
   d="m 401.557,457.463 c 0.853,-3.255 2.879,-3.936 5.838,-2.718 1.035,0.426 2.177,0.602 3.192,1.061 7.362,3.327 14.634,3.097 21.923,-0.29 2.744,-1.276 4.676,-0.814 5.098,2.747 0.319,2.691 3.269,3.656 4.422,5.865 -6.721,-0.975 -13.417,-2.244 -20.172,-2.812 -3.86,-0.323 -7.199,-1.747 -10.586,-3.191 -3.223,-1.375 -6.371,-1.965 -9.715,-0.662 z"
   id="path90"
   style="fill:#e6e6e6;fill-opacity:1" />
		<path
   fill-rule="evenodd"
   clip-rule="evenodd"
   fill="#e7e9ec"
   d="m 156.044,299.896 c -4.336,-1.448 -8.661,-2.93 -13.014,-4.325 -1.373,-0.439 -1.087,-1.385 -1.073,-2.386 0.026,-1.744 -0.017,-3.494 -0.12,-5.235 -0.062,-1.042 -1.216,-2.305 0.033,-3.018 0.624,-0.356 1.896,0.243 2.802,0.596 2.786,1.087 5.538,2.263 8.3,3.409 1.46,0.606 3.02,1.478 2.342,3.25 -1.019,2.665 -0.17,4.829 0.73,7.709 z"
   id="path92"
   style="fill:#ffffff" />
		<path
   fill-rule="evenodd"
   clip-rule="evenodd"
   fill="#efe8d6"
   d="m 270.416,546.689 c 4.417,-1.347 10.744,1.697 12.491,5.994 1.996,4.906 3.216,10.187 6.864,14.301 -6.509,-2.036 -11.386,-5.853 -14.073,-12.335 -1.022,-2.465 -2.117,-5.17 -5.327,-5.747 -0.724,-0.753 -0.74,-1.491 0.045,-2.213 z"
   id="path94"
   style="fill:#e6e6e6;fill-opacity:1" />
		<path
   fill-rule="evenodd"
   clip-rule="evenodd"
   fill="#afd3bb"
   d="m 310.514,204.787 c 5.103,-3.432 1.616,-11.125 6.821,-15.336 1.949,-1.577 3.996,-2.97 6.313,-3.94 0.878,-0.368 1.778,-0.374 2.317,0.522 0.622,1.033 -0.261,1.503 -0.912,2.105 -4.028,3.721 -6.537,8.045 -5.396,13.81 0.249,1.256 -0.417,2.128 -1.482,2.758 -1.5,0.887 -2.979,1.808 -4.463,2.722 -0.724,0.445 -1.403,1.356 -2.296,0.95 -1.166,-0.531 -0.425,-1.777 -0.902,-3.591 z"
   id="path96"
   style="fill:#e6e6e6;fill-opacity:1" />
		<path
   fill-rule="evenodd"
   clip-rule="evenodd"
   fill="#efe8d6"
   d="m 253.025,514.492 c -0.519,1.265 -0.988,2.553 -1.567,3.79 -1.733,3.705 0.104,6.966 4.158,7.428 1.822,0.207 3.625,0.586 6.505,1.064 -3.735,1.079 -6.453,1.864 -9.17,2.649 -2.99,-1.396 -6.359,-1.846 -8.981,-4.195 -3.187,-2.855 -3.09,-6.088 0.681,-8.061 2.613,-1.367 5.12,-3.243 8.374,-2.675 z"
   id="path98"
   style="fill:#e6e6e6;fill-opacity:1" />
		<path
   fill-rule="evenodd"
   clip-rule="evenodd"
   fill="#efe8d8"
   d="m 270.981,244.399 c -1.694,1.956 -2.084,4.447 -2.797,6.806 -2.871,-0.818 -4.61,-1.832 -2.927,-5.504 1.157,-2.523 -1.24,-1.998 -2.647,-1.589 -3.944,1.142 -7.729,2.853 -11.874,3.271 1.7,-1.452 3.465,-2.795 4.715,-4.745 3.374,-5.263 8.583,-6.056 12.498,-0.996 0.824,1.064 2.012,1.846 3.032,2.757 z"
   id="path100"
   style="fill:#e6e6e6;fill-opacity:1" />
		<path
   fill-rule="evenodd"
   clip-rule="evenodd"
   fill="#efe8d7"
   d="m 350.472,456.648 c -1.862,-3.467 -2.757,-7.398 -2.717,-11.101 0.044,-4.043 2.118,-7.939 4.482,-11.335 1.071,-1.54 2.428,-0.194 3.51,0.62 -1.368,0.505 -3.353,0.833 -2.761,2.769 0.758,2.472 -0.435,6.16 4.018,6.984 -2.775,0.006 -3.402,1.634 -3.542,3.675 -0.046,0.651 -0.604,1.092 -0.71,1.719 -1.092,2.11 -0.78,4.699 -2.28,6.669 z"
   id="path102"
   style="fill:#e6e6e6;fill-opacity:1" />
		<path
   fill-rule="evenodd"
   clip-rule="evenodd"
   fill="#cbe8cf"
   d="m 343.051,272.17 c -3.666,1.124 -7.503,1.455 -10.67,4.305 -1.64,1.476 -3.947,0.031 -5.056,-2.136 3.257,-5.131 9.175,-6.514 13.805,-9.704 1.136,-0.783 1.92,0.172 1.365,1.489 -0.764,1.812 -1.68,3.561 -2.544,5.365 0.882,1.145 2.099,0.432 3.1,0.681 z"
   id="path104"
   style="fill:#e6e6e6;fill-opacity:1" />
		<path
   fill-rule="evenodd"
   clip-rule="evenodd"
   fill="#e7e9ec"
   d="m 465.274,547.645 c 1.131,-0.108 1.711,0.353 1.983,1.102 0.925,2.553 1.789,5.127 2.686,7.688 0.967,2.768 -1.705,3.31 -2.99,4.468 -1.495,1.347 -1.987,-0.759 -2.723,-1.513 -1.032,-1.059 -1.944,-2.271 -2.72,-3.532 -0.673,-1.096 -2.508,-2.285 -1.546,-3.436 1.544,-1.846 3.255,-3.734 5.31,-4.777 z"
   id="path106"
   style="fill:#ffffff;fill-opacity:1" />
		<path
   fill-rule="evenodd"
   clip-rule="evenodd"
   fill="#a8d9b5"
   d="m 361.105,463.489 c -1.553,2.911 -3.902,5.565 -2.895,9.289 0.17,0.628 0.005,1.392 -0.76,1.432 -1.113,0.059 -1.021,-0.959 -0.94,-1.611 0.296,-2.426 -0.582,-2.525 -2.653,-1.836 -1.461,0.486 -3.2,0.192 -4.813,0.146 -1.187,-0.032 -2.936,0.104 -2.95,-1.392 -0.012,-1.271 1.592,-2.866 2.674,-2.707 4.316,0.632 3.389,-2.738 4.128,-4.865 2.518,1.682 5.724,-0.302 8.209,1.544 z"
   id="path108"
   style="fill:#e6e6e6;fill-opacity:1" />
		<path
   fill-rule="evenodd"
   clip-rule="evenodd"
   fill="#f0e8d6"
   d="m 307.032,548.958 c -5.641,0.034 -10.998,-1.529 -16.16,-3.472 -3.191,-1.201 -3.12,-4.585 -0.306,-7.078 3.765,2.836 7.574,5.474 12.401,6.372 2.019,0.378 2.851,2.63 4.065,4.178 z"
   id="path110"
   style="fill:#e6e6e6;fill-opacity:1" />
		<path
   fill-rule="evenodd"
   clip-rule="evenodd"
   fill="#e6e9ec"
   d="m 316.746,539.397 c 3.851,-0.998 4.874,0.948 5.281,3.794 0.244,1.709 0.759,3.378 1.106,5.073 0.21,1.024 1.026,2.396 -0.295,2.95 -1.081,0.453 -2.683,0.158 -3.4,-0.912 -1.984,-2.954 -4.247,-5.873 -5.46,-9.153 -1.273,-3.444 2.203,-1.152 2.768,-1.752 z"
   id="path112" />
		<path
   fill-rule="evenodd"
   clip-rule="evenodd"
   fill="#a8d9b5"
   d="m 168.106,309.612 c -0.449,0.265 -0.899,0.53 -1.349,0.794 -0.491,0.048 -0.986,0.068 -1.471,0.15 -2.131,0.36 -5.186,2.646 -6.016,1.261 -1.094,-1.826 -0.163,-4.928 0.065,-7.467 0.25,-2.781 2.452,-1.125 3.761,-1.512 0.661,0.336 1.29,0.851 1.989,0.979 3.549,0.647 4.286,2.68 3.021,5.795 z"
   id="path114"
   style="fill:#e6e6e6;fill-opacity:1" />
		<path
   fill-rule="evenodd"
   clip-rule="evenodd"
   fill="#e7e9ec"
   d="m 141.944,619.837 c 0,0.868 0.086,1.747 -0.018,2.604 -0.21,1.728 -1.674,1.997 -2.992,2.317 -1.803,0.437 -1.71,-1.207 -1.89,-2.098 -0.487,-2.419 -0.699,-4.894 -1.042,-7.343 -0.294,-2.099 0.993,-3.139 2.57,-4.085 1.569,-0.94 2.353,-0.349 2.597,1.228 0.379,2.444 0.653,4.904 0.971,7.358 -0.066,0.007 -0.131,0.013 -0.196,0.019 z"
   id="path116"
   style="fill:#ffffff;fill-opacity:1" />
		<path
   fill-rule="evenodd"
   clip-rule="evenodd"
   fill="#9bbff8"
   d="m 252.326,508.231 c 3.543,0.562 7.088,1.116 10.629,1.692 0.909,0.147 2.387,-0.115 2.146,1.326 -0.199,1.193 -1.419,2.582 -2.649,2.078 -5.031,-2.06 -10.373,-1.165 -15.517,-1.98 -0.515,-0.081 -0.992,-0.219 -1.117,-0.789 -0.171,-0.78 0.318,-1.128 0.979,-1.294 1.805,-0.454 3.585,-1.085 5.529,-1.033 z"
   id="path118"
   style="fill:#a0a0a0;fill-opacity:1" />
		<path
   fill-rule="evenodd"
   clip-rule="evenodd"
   fill="#9bbff8"
   d="m 270.416,546.689 c -0.015,0.738 -0.031,1.476 -0.046,2.213 -0.742,1.371 -1.129,3.761 -3.269,1.14 -0.073,-0.09 -0.203,-0.141 -0.314,-0.192 -1.79,-0.818 -4.352,-1.167 -5.191,-2.558 -1.249,-2.068 3.07,-2.016 2.75,-4.355 0.33,-0.167 0.643,-0.411 0.992,-0.489 4.572,-1.022 5.48,-0.256 5.078,4.241 z"
   id="path120"
   style="fill:#a0a0a0;fill-opacity:1" />
		<path
   fill-rule="evenodd"
   clip-rule="evenodd"
   fill="#e7e9eb"
   d="m 127.009,613.971 c -0.518,3.342 -0.908,6.383 -1.482,9.388 -0.413,2.161 -2.482,2.797 -4.032,2.512 -2.104,-0.388 -0.871,-2.293 -0.805,-3.674 0.191,-4.051 1.5,-7.157 6.319,-8.226 z"
   id="path122"
   style="fill:#ffffff;fill-opacity:1" />
		<path
   fill-rule="evenodd"
   clip-rule="evenodd"
   fill="#9cc0f7"
   d="m 324.975,544.172 c -0.332,-1.402 -0.233,-2.604 1.797,-2.673 1.832,-0.063 5.22,3.404 5.5,5.816 0.223,1.924 -1.478,2.242 -2.652,2.518 -2.13,0.5 -4.499,-2.475 -4.645,-5.661 z"
   id="path124"
   style="fill:#a0a0a0;fill-opacity:1" />
		<path
   fill-rule="evenodd"
   clip-rule="evenodd"
   fill="#a3c7ed"
   d="m 186.513,208.717 c 5.765,-2.681 11.03,-6.76 17.881,-5.548 0.923,0.163 2.366,-0.29 2.434,1.052 0.072,1.42 -1.362,1.173 -2.292,1.127 -1.483,-0.073 -2.975,-0.226 -4.435,-0.495 -1.713,-0.315 -3.248,-0.188 -4.429,1.232 -2.455,2.957 -5.858,2.748 -9.159,2.632 z"
   id="path126"
   style="fill:#a0a0a0;fill-opacity:1" />
		<path
   fill-rule="evenodd"
   clip-rule="evenodd"
   fill="#9bbff8"
   d="m 279.438,619.444 c 1.651,0.307 3.622,0.556 5.516,1.082 0.803,0.223 2.336,0.141 2.105,1.547 -0.192,1.17 -1.312,1.891 -2.516,1.807 -2.208,-0.154 -4.424,-0.403 -6.593,-0.83 -1.224,-0.24 -2.722,-1.201 -2.384,-2.394 0.406,-1.435 2.225,-1.171 3.872,-1.212 z"
   id="path128"
   style="fill:#a0a0a0;fill-opacity:1" />
		<path
   fill-rule="evenodd"
   clip-rule="evenodd"
   fill="#e6e9eb"
   d="m 240.192,598.146 c 0.342,-1.566 1.277,-2.559 2.103,-3.622 3.269,-4.21 3.175,-4.165 5.72,0.487 0.986,1.804 1.184,2.68 -1.266,2.722 -2.085,0.036 -4.083,1.22 -6.557,0.413 z"
   id="path130"
   style="fill:#ffffff;fill-opacity:1" />
		<path
   fill-rule="evenodd"
   clip-rule="evenodd"
   fill="#e7e9eb"
   d="m 155.553,586.831 c 2.998,1.382 4.926,3.163 6.871,4.841 -0.15,0.323 -0.172,0.483 -0.248,0.515 -2.139,0.902 -4.271,1.827 -6.624,2.032 0.001,-2.26 0.001,-4.518 0.001,-7.388 z"
   id="path132"
   style="fill:#ffffff;fill-opacity:1" />
		<path
   fill-rule="evenodd"
   clip-rule="evenodd"
   fill="#9bbff8"
   d="m 259.794,501.535 c 0,-2.687 -10e-4,-4.728 0,-6.768 0.001,-1.617 0.943,-2.076 2.398,-2.06 1.65,0.019 1.984,0.969 2.089,2.387 0.231,3.103 -1.895,4.442 -4.487,6.441 z"
   id="path134"
   style="fill:#a0a0a0;fill-opacity:1" />
		<path
   fill-rule="evenodd"
   clip-rule="evenodd"
   fill="#9dc1f5"
   d="m 438.249,470.309 c 0.199,-1.318 -0.155,-2.502 0.993,-2.641 0.52,-0.063 1.604,0.744 1.65,1.231 0.235,2.467 3.416,3.7 2.637,6.523 -0.268,0.966 -1.041,1.938 -1.738,1.001 -1.48,-1.983 -2.521,-4.295 -3.542,-6.114 z"
   id="path136"
   style="fill:#a0a0a0;fill-opacity:1" />
		<path
   fill-rule="evenodd"
   clip-rule="evenodd"
   fill="#e6e9eb"
   d="m 201.305,180.563 c 1.227,0.486 3.458,-0.834 3.38,1.626 -0.04,1.254 -0.623,3.5 -2.305,3.153 -1.783,-0.368 -4.118,-1.599 -4.27,-3.598 -0.147,-1.946 2.124,-0.644 3.195,-1.181 z"
   id="path138"
   style="fill:#ffffff" />
		<path
   fill-rule="evenodd"
   clip-rule="evenodd"
   fill="#e5e8ea"
   d="m 322.373,527.061 c -2.08,1.325 -3.475,2.259 -4.916,3.116 -1.109,0.66 -1.901,0.065 -2.484,-0.855 -0.524,-0.827 -1.261,-1.707 -0.888,-2.726 0.453,-1.238 1.629,-0.907 2.573,-0.743 1.652,0.289 3.283,0.687 5.715,1.208 z"
   id="path140" />
		<path
   fill-rule="evenodd"
   clip-rule="evenodd"
   fill="#9ec2f5"
   d="m 328.276,558.861 c -0.168,2.717 -1.709,3.357 -3.509,3.684 -1.152,0.209 -1.4,-0.791 -1.039,-1.323 1.051,-1.55 -0.738,-4.395 1.82,-4.867 1.136,-0.211 2.264,1.581 2.728,2.506 z"
   id="path142"
   style="fill:#a0a0a0;fill-opacity:1" />
		<path
   fill-rule="evenodd"
   clip-rule="evenodd"
   fill="#9dc1f6"
   d="m 435.84,480.627 c 1.392,1.569 4.394,2.067 3.625,4.479 -0.344,1.077 -3.136,2.398 -4.13,1.541 -1.954,-1.686 0.028,-3.925 0.505,-6.02 z"
   id="path144"
   style="fill:#a0a0a0;fill-opacity:1" />
		<path
   fill-rule="evenodd"
   clip-rule="evenodd"
   fill="#e6e9ea"
   d="m 129.804,606.05 c 0.143,-2.21 -2.373,-4.44 -0.354,-6.076 0.819,-0.663 3.855,0.242 4.137,1.483 0.532,2.342 -2.386,2.959 -3.783,4.593 z"
   id="path146"
   style="fill:#ffffff;fill-opacity:1" />
		<path
   fill-rule="evenodd"
   clip-rule="evenodd"
   fill="#e6e8eb"
   d="m 174.964,231.77 c 2.556,-0.823 4.314,-2.727 6.46,-1.412 0.798,0.488 0.771,2.677 -0.229,3.325 -2.35,1.518 -3.808,-0.765 -6.231,-1.913 z"
   id="path148"
   style="fill:#ffffff" />
		<path
   fill-rule="evenodd"
   clip-rule="evenodd"
   fill="#9ec2f5"
   d="m 352.752,449.979 c -0.641,-0.504 -1.418,-0.882 -1.683,-1.949 0.845,0.082 1.619,0.157 2.393,0.231 2.408,0.786 3.862,3.081 7.113,3.812 -3.983,1.837 -5.639,-0.952 -7.823,-2.094 z"
   id="path150"
   style="fill:#a0a0a0;fill-opacity:1" />
		<path
   fill-rule="evenodd"
   clip-rule="evenodd"
   fill="#9fc3f3"
   d="m 370.797,449.074 c 0.516,0.507 1.03,1.013 1.546,1.518 0.371,2.341 -1.122,1.325 -2.004,1.026 -1.612,-0.543 -4.838,0.511 -4.57,-1.647 0.334,-2.702 3.217,-0.91 5.028,-0.897 z"
   id="path152"
   style="fill:#a0a0a0;fill-opacity:1" />
		<path
   fill-rule="evenodd"
   clip-rule="evenodd"
   fill="#9ec2f5"
   d="m 464.525,600.537 c -3.32,-3.748 -3.329,-8.171 -3.693,-12.502 1.231,4.167 2.462,8.334 3.693,12.502 z"
   id="path154"
   style="fill:#a0a0a0;fill-opacity:1" />
		<path
   fill-rule="evenodd"
   clip-rule="evenodd"
   fill="#a1c5f0"
   d="m 461.086,570.571 c 2.35,-3.085 4.699,-6.17 7.049,-9.254 -1.428,3.798 -3.158,7.359 -6.232,9.945 -0.273,-0.23 -0.546,-0.461 -0.817,-0.691 z"
   id="path156"
   style="fill:#a0a0a0;fill-opacity:1" />
		<path
   fill-rule="evenodd"
   clip-rule="evenodd"
   fill="#9bbff8"
   d="m 480.155,608.976 c -5.116,-0.194 -8.193,-3.136 -11.584,-5.286 3.595,1.641 7.191,3.281 11.584,5.286 z"
   id="path158"
   style="fill:#a0a0a0;fill-opacity:1" />
		<path
   fill-rule="evenodd"
   clip-rule="evenodd"
   fill="#9fc3f3"
   d="m 446.961,431.607 c 1.07,-1.638 1.832,-3.05 3.853,-2.188 0.592,0.253 1.036,1.006 0.687,1.515 -1.13,1.642 -2.68,1.012 -4.54,0.673 z"
   id="path160"
   style="fill:#a0a0a0;fill-opacity:1" />
		<path
   fill-rule="evenodd"
   clip-rule="evenodd"
   fill="#9ec2f4"
   d="m 408.761,503.926 c -1.838,-0.399 -3.388,-0.228 -3.986,-1.958 -0.099,-0.284 0.452,-1.143 0.657,-1.127 1.649,0.122 2.35,1.37 3.329,3.085 z"
   id="path162" />
		<path
   fill-rule="evenodd"
   clip-rule="evenodd"
   fill="#f0e8d6"
   d="m 423.424,401.081 c -0.124,0.008 -0.249,0.023 -0.374,0.022 -12.431,-0.13 -10.162,2.329 -10.122,-10.799 0.012,-3.685 1.27,-7.353 2.476,-10.916 0.604,-1.78 1.54,-2.715 3.245,-1.488 3.162,2.274 5.551,0.894 7.886,-1.337 0.629,-0.6 1.348,-1.106 2.027,-1.652 2.558,-2.055 3.441,-0.747 3.707,1.838 0.564,5.488 -0.583,10.673 -2.753,15.68 -0.795,1.833 -1.654,3.646 -1.713,5.7 -0.437,0.245 -0.997,0.513 -1.393,0.357 -2.73,-1.075 -2.873,0.722 -2.986,2.595 z"
   id="path164"
   style="fill:#e6e6e6;fill-opacity:1" />
		<path
   fill-rule="evenodd"
   clip-rule="evenodd"
   fill="#f0e8d7"
   d="m 217.726,312.643 c 3.233,0.059 4.788,2.601 6.28,4.754 1.627,2.349 -0.901,6.193 -3.911,6.505 -5.659,0.584 -10.796,-1.421 -15.995,-3.153 -4.368,-1.455 -4.252,-1.416 -4.417,2.989 -0.06,1.607 1.691,3.909 -0.29,4.689 -1.864,0.734 -2.984,-1.781 -4.409,-2.903 -2.329,-1.833 -2.061,-3.424 -0.067,-5.521 2.881,-3.031 4.896,-6.981 9.402,-8.11 3.027,-0.71 5.13,1.321 7.424,2.62 2.026,1.148 3.705,2.078 4.53,-1.163 0.149,-0.592 0.717,-0.987 1.453,-0.707 z"
   id="path166"
   style="fill:#e6e6e6;fill-opacity:1" />
		<path
   fill-rule="evenodd"
   clip-rule="evenodd"
   fill="#a9dab5"
   d="m 249.814,316.897 c 1.076,-2.366 -0.282,-2.905 -2.004,-3.161 -0.984,-0.146 -2.005,-0.197 -2.938,-0.507 -1.334,-0.444 -2.026,-1.511 -1.727,-2.91 0.345,-1.614 1.512,-1.198 2.67,-0.943 2.091,0.46 4.198,0.57 6.257,-0.254 1.364,-0.546 2.58,-0.543 3.776,0.586 0.688,0.65 1.681,1.108 2.615,1.346 3.817,0.975 4.591,4.083 1.814,7.327 -0.36,0.42 -0.462,1.117 -0.549,1.705 -0.215,1.454 -0.971,2.375 -2.469,2.217 -1.854,-0.196 -2.425,-1.789 -2.531,-3.254 -0.291,-4.03 -0.348,-4.116 -4.914,-2.152 z"
   id="path168"
   style="fill:#e6e6e6;fill-opacity:1" />
		<path
   fill-rule="evenodd"
   clip-rule="evenodd"
   fill="#a8d9b5"
   d="m 391.053,363.556 c 0,-2.373 -0.016,-4.747 0.005,-7.119 0.019,-2.054 0.515,-3.971 1.944,-5.512 0.658,-0.709 1.356,-1.623 2.521,-1.223 0.912,0.313 1.284,1.213 1.403,2.072 0.569,4.092 2.114,8.119 -2.058,11.714 -2.322,2.001 -1.975,5.563 -1.17,8.528 1.061,3.903 -2.584,6.255 -2.997,9.696 -0.103,0.857 -1.619,0.637 -1.768,-0.536 -0.136,-1.076 0.178,-2.208 0.271,-3.316 0.209,-2.499 2.03,-4.55 1.866,-7.186 -0.146,-2.364 -0.03,-4.744 -0.03,-7.116 0.004,-10e-4 0.009,-10e-4 0.013,-0.002 z"
   id="path170"
   style="fill:#e6e6e6;fill-opacity:1" />
		<path
   fill-rule="evenodd"
   clip-rule="evenodd"
   fill="#a8dab5"
   d="m 200.566,362.15 c 0.607,-2.973 1.555,-5.889 1.492,-8.972 0.458,-1.797 0.923,-3.592 1.369,-5.392 0.228,-0.922 0.037,-2.205 1.394,-2.283 1.104,-0.064 2.244,0.174 2.925,1.285 0.737,1.203 1.001,2.71 3.127,2.604 1.138,-0.057 1.239,1.859 -0.337,2.643 -2.376,1.182 -2.56,2.965 -2.575,5.194 -0.011,1.712 -0.482,3.422 -0.769,5.129 -0.312,1.862 -1.312,2.762 -3.315,2.748 -2.102,-0.013 -3.378,-0.654 -3.311,-2.956 z"
   id="path172"
   style="fill:#e6e6e6;fill-opacity:1" />
		<path
   fill-rule="evenodd"
   clip-rule="evenodd"
   fill="#eee7d7"
   d="m 322.788,398.915 c -2.255,5.452 -2.196,5.37 -6.908,1.96 -1.525,-1.104 -2.778,-2.94 -5.06,-2.716 -1.988,-1.143 -3.487,-3.296 -6.178,-2.989 -1.382,-2.767 -0.308,-3.831 2.548,-3.756 1.949,0.051 3.901,0.004 5.853,0 2.993,1.899 6.979,2.196 9.048,5.591 0.358,0.588 1.144,1.026 0.697,1.91 z"
   id="path174"
   style="fill:#ffffff" />
		<path
   fill-rule="evenodd"
   clip-rule="evenodd"
   fill="#d5d8da"
   d="m 322.788,398.915 c -1.263,-1.916 -3.017,-3.207 -4.948,-4.438 -1.339,-0.853 -1.533,1.438 -3.154,0.433 -1.701,-1.053 0.426,-3.175 -1.643,-3.496 0.475,-0.662 1.531,-1.391 0.441,-2.158 -4.584,-3.225 -6.059,-8.518 -8.559,-13.216 3.26,2.442 6.219,5.27 8.741,8.501 3.288,4.212 6.397,8.564 9.552,12.88 0.409,0.558 1.844,1.62 -0.43,1.494 z"
   id="path176"
   style="fill:#ffffff;fill-opacity:1" />
		<path
   fill-rule="evenodd"
   clip-rule="evenodd"
   fill="#a9dab5"
   d="m 273.991,314.72 c 0.166,-3.113 2.766,-3.501 4.955,-4.085 1.217,-0.325 6.077,3.585 6.009,4.474 -0.084,1.101 -5.864,6.151 -6.896,6.025 -1.148,-0.14 -4.057,-4.738 -4.068,-6.414 z"
   id="path178"
   style="fill:#e6e6e6;fill-opacity:1" />
		<path
   fill-rule="evenodd"
   clip-rule="evenodd"
   fill="#9cc0f7"
   d="m 326.461,466.802 c -1.712,-0.217 -2.477,-1.082 -1.972,-2.572 0.26,-0.764 0.882,-1.688 1.573,-1.973 4.516,-1.857 7.064,-6.494 11.698,-8.157 0.709,-0.254 1.375,-1.554 2.022,-0.128 0.404,0.892 -0.088,1.504 -1.117,1.943 -2.819,1.202 -4.967,3.284 -6.009,6.158 -1.12,3.096 -4.085,3.356 -6.195,4.729 z"
   id="path180"
   style="fill:#a0a0a0;fill-opacity:1" />
		<path
   fill-rule="evenodd"
   clip-rule="evenodd"
   fill="#bbe1c6"
   d="m 217.726,312.643 c -1.891,5.656 -1.897,5.667 -7.563,2.577 -1.968,-1.073 -3.899,-2.216 -5.846,-3.328 4.711,-4.051 9.032,-1.152 13.409,0.751 z"
   id="path182"
   style="fill:#e6e6e6;fill-opacity:1" />
		<path
   fill-rule="evenodd"
   clip-rule="evenodd"
   fill="#a9dab5"
   d="m 352.361,312.863 c 2.246,0.094 8.035,3.843 7.555,4.645 -1.067,1.779 -2.521,4.106 -4.578,3.783 -1.923,-0.302 -5.295,-0.246 -5.28,-3.408 0.007,-1.772 0.384,-4.143 2.303,-5.02 z"
   id="path184"
   style="fill:#e6e6e6;fill-opacity:1" />
		<path
   fill-rule="evenodd"
   clip-rule="evenodd"
   fill="#abdbb7"
   d="m 264.546,427.626 c -0.882,1.961 -0.809,4.217 -3.172,4.068 -1.82,-0.113 -3.788,-1.411 -3.176,-3.309 0.682,-2.115 2.126,-5.054 4.385,-5.087 3.11,-0.044 -0.733,3.694 1.963,4.328 z"
   id="path186"
   style="fill:#e6e6e6;fill-opacity:1" />
		<path
   fill-rule="evenodd"
   clip-rule="evenodd"
   fill="#a9dab6"
   d="m 334.324,419.98 c 1.692,2.175 5.009,3.063 3.198,6.386 -0.665,1.22 -1.933,2.49 -3.679,1.153 -3.418,-2.618 -0.315,-4.741 0.481,-7.539 z"
   id="path188"
   style="fill:#e6e6e6;fill-opacity:1" />
		<path
   fill-rule="evenodd"
   clip-rule="evenodd"
   fill="#acdbb8"
   d="m 295.823,335.115 c -1.686,-0.193 -3.826,0.542 -3.77,-2.299 0.05,-2.525 1.962,-2 3.479,-2.145 1.949,-0.186 3.481,0.171 3.442,2.6 -0.038,2.463 -1.976,1.544 -3.151,1.844 z"
   id="path190"
   style="fill:#e6e6e6;fill-opacity:1" />
		<path
   fill-rule="evenodd"
   clip-rule="evenodd"
   fill="#aadab6"
   d="m 304.643,395.17 c 0.17,-0.682 -0.062,-1.656 0.827,-1.884 1.533,-0.395 5.033,2.869 5.351,4.873 -1.15,0.748 -1.101,2.479 -2.783,3.204 0.093,-2.806 -2.846,-3.767 -3.395,-6.193 z"
   id="path192"
   style="fill:#e6e6e6;fill-opacity:1" />
		<path
   fill-rule="evenodd"
   clip-rule="evenodd"
   fill="#bae1c5"
   d="m 167.495,479.086 c 1.619,0.305 2.114,-0.706 2.561,-2.002 0.476,-1.381 0.724,-2.916 1.967,-3.928 0.139,2.476 0.341,4.883 2.223,6.847 1.339,1.397 0.864,2.691 -0.736,3.627 -1.241,-2.526 -3.883,-3.198 -6.015,-4.544 z"
   id="path194"
   style="fill:#e6e6e6;fill-opacity:1" />
		<path
   fill-rule="evenodd"
   clip-rule="evenodd"
   fill="#abdab7"
   d="m 257.273,299.228 c 1.582,0.805 3.08,1.589 3.055,3.45 -0.02,1.505 -1.429,2.094 -2.589,2.119 -1.449,0.032 -2.625,-1.079 -2.598,-2.518 0.024,-1.263 0.706,-2.555 2.132,-3.051 z"
   id="path196"
   style="fill:#e6e6e6;fill-opacity:1" />
		<path
   fill-rule="evenodd"
   clip-rule="evenodd"
   fill="#abdab7"
   d="m 244.987,287.788 c 0.711,2.299 3.239,4.44 0.309,6.675 -1.344,1.025 -2.228,-0.08 -2.691,-0.954 -1.506,-2.845 1.498,-3.811 2.382,-5.721 z"
   id="path198"
   style="fill:#e6e6e6;fill-opacity:1" />
		<path
   fill-rule="evenodd"
   clip-rule="evenodd"
   fill="#aadab7"
   d="m 423.424,401.081 c -0.655,-0.861 -1.554,-1.583 -1.581,-2.803 -0.021,-0.857 -0.119,-1.769 0.622,-2.381 1.033,-0.851 1.391,0.315 2.057,0.711 1.029,0.614 2.182,1.024 3.281,1.52 -0.988,1.685 -2.052,3.256 -4.379,2.953 z"
   id="path200"
   style="fill:#e6e6e6;fill-opacity:1" />
		<path
   fill-rule="evenodd"
   clip-rule="evenodd"
   fill="#aadab7"
   d="m 196.061,286.441 c -0.927,-0.348 -2.779,0.686 -2.526,-1.493 0.146,-1.256 0.277,-2.963 2.171,-2.856 1.605,0.091 2.852,1.096 3.013,2.741 0.197,2.016 -1.534,1.38 -2.658,1.608 z"
   id="path202"
   style="fill:#e6e6e6;fill-opacity:1" />
		<path
   fill-rule="evenodd"
   clip-rule="evenodd"
   fill="#abdbb8"
   d="m 191.715,336.624 c -0.692,-0.19 -2.341,0.246 -1.83,-1.245 0.466,-1.357 1.043,-3.323 2.927,-3.348 1.16,-0.015 1.624,1.283 1.678,2.505 0.089,1.956 -1.128,2.195 -2.775,2.088 z"
   id="path204"
   style="fill:#e6e6e6;fill-opacity:1" />
		<path
   fill-rule="evenodd"
   clip-rule="evenodd"
   fill="#afdcbb"
   d="m 340.471,467.927 c 1.707,-0.029 2.475,0.953 2.681,2.5 0.194,1.46 -0.912,1.189 -1.721,1.2 -1.323,0.018 -2.559,-0.226 -2.715,-1.87 -0.115,-1.222 0.526,-1.849 1.755,-1.83 z"
   id="path206"
   style="fill:#e6e6e6;fill-opacity:1" />
		<path
   fill-rule="evenodd"
   clip-rule="evenodd"
   fill="#addbb9"
   d="m 305.961,371.926 c -1.04,-0.162 -2.54,0.181 -2.372,-1.517 0.113,-1.141 0.436,-2.771 2.048,-2.541 1.495,0.211 2.02,1.822 2.201,3.095 0.198,1.39 -1.183,0.737 -1.877,0.963 z"
   id="path208"
   style="fill:#e6e6e6;fill-opacity:1" />
		<path
   fill-rule="evenodd"
   clip-rule="evenodd"
   fill="#addbb9"
   d="m 285.615,381.071 c -0.034,3.093 -0.931,4.786 -1.852,6.468 -0.445,0.812 -1.153,0.92 -1.889,0.505 -0.896,-0.505 -0.649,-1.179 -0.137,-1.849 1.098,-1.434 2.182,-2.88 3.878,-5.124 z"
   id="path210"
   style="fill:#e6e6e6;fill-opacity:1" />
		<path
   fill-rule="evenodd"
   clip-rule="evenodd"
   fill="#acdbb8"
   d="m 207.802,335.158 c -0.267,0.981 -0.534,2.067 -1.739,2.036 -1.091,-0.028 -2.284,-0.382 -2.405,-1.763 -0.086,-0.978 0.103,-2.174 1.364,-2.181 1.214,-0.007 2.365,0.526 2.78,1.908 z"
   id="path212"
   style="fill:#e6e6e6;fill-opacity:1" />
		<path
   fill-rule="evenodd"
   clip-rule="evenodd"
   fill="#b7dec2"
   d="m 246.834,327.126 c -1.326,1.535 -2.618,3.103 -3.997,4.588 -0.466,0.501 -1.213,0.469 -1.665,-0.078 -0.621,-0.752 0.117,-1.149 0.629,-1.362 1.849,-0.763 2.951,-2.537 5.033,-3.148 z"
   id="path214"
   style="fill:#e6e6e6;fill-opacity:1" />
		<path
   fill-rule="evenodd"
   clip-rule="evenodd"
   fill="#b6dec0"
   d="m 228.125,331.958 c -1.479,1.147 -3,1.17 -5.173,0.262 2.029,-1.184 3.604,-0.804 5.173,-0.262 z"
   id="path216"
   style="fill:#e6e6e6;fill-opacity:1" />
		<path
   fill-rule="evenodd"
   clip-rule="evenodd"
   fill="#e7e9eb"
   d="m 155.381,521.952 c -0.93,-0.18 -2.405,-0.393 -3.84,-0.764 -1.596,-0.412 -4.486,-0.124 -4.381,-1.724 0.138,-2.099 1.623,-4.656 4.201,-5.175 4.48,-0.903 9.03,-1.479 13.568,-2.061 1.941,-0.248 2.444,0.563 2.11,2.683 -0.726,4.62 -6.968,6.896 -11.658,7.041 z"
   id="path218"
   style="fill:#ffffff;fill-opacity:1" />
	</g>
</g>
<g
   inkscape:groupmode="layer"
   id="layer1"
   inkscape:label="Mapa"
   transform="translate(-115.665,-177.55701)"><path
     style="fill:none;stroke:#000000;stroke-width:0.375378;stroke-linecap:butt;stroke-linejoin:miter;stroke-miterlimit:4;stroke-dasharray:none;stroke-opacity:1"
     d="m 535.35032,567.15553 0.0516,-6.31067 3.64679,-0.0221"
     id="path4032"
     sodipodi:nodetypes="ccc" /><path
     style="fill:none;fill-opacity:1;stroke:#eb4170;stroke-width:1.50151;stroke-linecap:butt;stroke-linejoin:miter;stroke-miterlimit:4;stroke-dasharray:none;stroke-opacity:1"
     d="m 394.59929,397.5767 41.67161,31.75438 10.108,1.43038 -3.6236,14.49445 0.85813,3.81442 -0.0954,2.38385 92.97441,64.36701 1.19203,2.47934 2.90838,58.64536 3.0515,0.0954 25.74671,11.82444 5.34019,4.48188 64.93896,43.19732 36.04544,60.93405 15.06673,4.38639"
     id="path953" /><path
     style="fill:none;stroke:#ed1c24;stroke-width:1.50151;stroke-linecap:butt;stroke-linejoin:miter;stroke-miterlimit:4;stroke-dasharray:none;stroke-opacity:1"
     d="m 532.48744,411.02235 -6.38895,19.07164 -0.0954,18.40422 -3.33761,16.68762 0.28614,2.47935 -3.33762,8.58229 -0.76278,4.38639 3.14679,6.96124 -0.47678,26.22354 2.47932,7.72403 -0.4768,38.23865 -1.43039,2.28866 c 0,0 1.22527,14.72504 0,21.93248 -1.38094,8.12329 -8.16886,23.33077 -8.16886,23.33077 -0.37062,1.22556 0,0 -3.36944,1.84384 -3.36961,1.84371 -99.93565,133.88304 -99.93565,133.88304"
     id="path1111"
     sodipodi:nodetypes="ccccccccccccsszc" /><path
     style="fill:none;stroke:#22b14c;stroke-width:1.50151;stroke-linecap:butt;stroke-linejoin:miter;stroke-miterlimit:4;stroke-dasharray:none;stroke-opacity:1"
     d="m 522.18872,568.0776 32.23118,-1.04908 91.16268,27.94008 35.56863,4.7679 6.67507,0.28612 13.92232,2.28855 7.24722,4.67253 h 3.14682"
     id="path1226" /><path
     style="fill:none;stroke:#ff8200;stroke-width:1.50151;stroke-linecap:butt;stroke-linejoin:miter;stroke-miterlimit:4;stroke-dasharray:none;stroke-opacity:1"
     d="m 555.96037,741.79059 -8.76571,41.80568 -97.36674,164.5257 -13.7555,12.81143 -5.79889,35.33257 -15.50852,41.80563 -17.8011,21.0378 -1.48348,28.32 -40.99661,18.6103 -6.33815,-0.1346 -12.40685,-9.3051 -7.55204,0.6743 -23.1955,16.0479"
     id="path1433" /><circle
     class="st9"
     cx="428.25479"
     cy="1001.8972"
     r="1.3137752"
     id="circle137-9-49-1-07-48-2"
     style="display:inline;fill:#ffffff;stroke:#ff8200;stroke-width:0.375471;stroke-miterlimit:10;stroke-dasharray:none;stroke-opacity:1" /><circle
     class="st9"
     cx="394.61203"
     cy="397.40469"
     r="1.3137752"
     id="circle137-9"
     style="display:inline;fill:#ffffff;stroke:#eb4170;stroke-width:0.375471;stroke-miterlimit:10;stroke-dasharray:none;stroke-opacity:1" /><circle
     class="st9"
     cx="405.30429"
     cy="405.57864"
     r="1.3137752"
     id="circle137-9-7"
     style="display:inline;fill:#ffffff;stroke:#eb4170;stroke-width:0.375471;stroke-miterlimit:10;stroke-dasharray:none;stroke-opacity:1" /><circle
     class="st9"
     cx="439.93463"
     cy="429.72168"
     r="1.3137752"
     id="circle137-9-4"
     style="display:inline;fill:#ffffff;stroke:#eb4170;stroke-width:0.375471;stroke-miterlimit:10;stroke-dasharray:none;stroke-opacity:1" /><circle
     class="st9"
     cx="443.28958"
     cy="448.76135"
     r="1.3137752"
     id="circle137-9-8"
     style="display:inline;fill:#ffffff;stroke:#eb4170;stroke-width:0.375471;stroke-miterlimit:10;stroke-dasharray:none;stroke-opacity:1" /><circle
     class="st9"
     cx="469.81799"
     cy="469.73862"
     r="1.3137752"
     id="circle137-9-49"
     style="display:inline;fill:#ffffff;stroke:#eb4170;stroke-width:0.375471;stroke-miterlimit:10;stroke-dasharray:none;stroke-opacity:1" /><circle
     class="st9"
     cx="495.09891"
     cy="487.21353"
     r="1.3137752"
     id="circle137-9-49-6"
     style="display:inline;fill:#ffffff;stroke:#eb4170;stroke-width:0.375471;stroke-miterlimit:10;stroke-dasharray:none;stroke-opacity:1" /><circle
     class="st9"
     cx="521.76044"
     cy="505.4411"
     r="1.3137752"
     id="circle137-9-49-2"
     style="display:inline;fill:#ffffff;stroke:#000000;stroke-width:0.375471;stroke-miterlimit:10;stroke-dasharray:none;stroke-opacity:1" /><circle
     class="st9"
     cx="522.5592"
     cy="567.95636"
     r="1.3137752"
     id="circle137-9-49-2-9"
     style="display:inline;fill:#ffffff;stroke:#000000;stroke-width:0.375471;stroke-miterlimit:10;stroke-dasharray:none;stroke-opacity:1" /><circle
     class="st9"
     cx="551.27728"
     cy="567.14038"
     r="1.3137752"
     id="circle137-9-49-2-9-0"
     style="display:inline;fill:#ffffff;stroke:#22b14c;stroke-width:0.375471;stroke-miterlimit:10;stroke-dasharray:none;stroke-opacity:1" /><circle
     class="st9"
     cx="531.56757"
     cy="512.42023"
     r="1.3137752"
     id="circle137-9-49-68"
     style="display:inline;fill:#ffffff;stroke:#eb4170;stroke-width:0.375471;stroke-miterlimit:10;stroke-dasharray:none;stroke-opacity:1" /><circle
     class="st9"
     cx="538.93158"
     cy="542.69312"
     r="1.3137752"
     id="circle137-9-49-27"
     style="display:inline;fill:#ffffff;stroke:#eb4170;stroke-width:0.375471;stroke-miterlimit:10;stroke-dasharray:none;stroke-opacity:1" /><circle
     class="st9"
     cx="539.69714"
     cy="560.66736"
     r="1.3137752"
     id="circle137-9-49-29"
     style="display:inline;fill:#ffffff;stroke:#000000;stroke-width:0.375471;stroke-miterlimit:10;stroke-dasharray:none;stroke-opacity:1" /><circle
     class="st9"
     cx="535.45862"
     cy="567.55908"
     r="1.3137752"
     id="circle137-9-49-29-0"
     style="display:inline;fill:#ffffff;stroke:#000000;stroke-width:0.375471;stroke-miterlimit:10;stroke-dasharray:none;stroke-opacity:1" /><circle
     class="st9"
     cx="547.23096"
     cy="578.58429"
     r="1.3137752"
     id="circle137-9-49-7"
     style="display:inline;fill:#ffffff;stroke:#eb4170;stroke-width:0.375471;stroke-miterlimit:10;stroke-dasharray:none;stroke-opacity:1" /><circle
     class="st9"
     cx="573.54559"
     cy="592.36444"
     r="1.3137752"
     id="circle137-9-49-20"
     style="display:inline;fill:#ffffff;stroke:#eb4170;stroke-width:0.375471;stroke-miterlimit:10;stroke-dasharray:none;stroke-opacity:1" /><circle
     class="st9"
     cx="594.75928"
     cy="606.78583"
     r="1.3137752"
     id="circle137-9-49-76"
     style="display:inline;fill:#ffffff;stroke:#eb4170;stroke-width:0.375471;stroke-miterlimit:10;stroke-dasharray:none;stroke-opacity:1" /><circle
     class="st9"
     cx="627.25708"
     cy="628.34692"
     r="1.3137752"
     id="circle137-9-49-8"
     style="display:inline;fill:#ffffff;stroke:#eb4170;stroke-width:0.375471;stroke-miterlimit:10;stroke-dasharray:none;stroke-opacity:1" /><circle
     class="st9"
     cx="644.79504"
     cy="645.3075"
     r="1.3137752"
     id="circle137-9-49-65"
     style="display:inline;fill:#ffffff;stroke:#eb4170;stroke-width:0.375471;stroke-miterlimit:10;stroke-dasharray:none;stroke-opacity:1" /><circle
     class="st9"
     cx="651.85309"
     cy="656.90796"
     r="1.3137752"
     id="circle137-9-49-5"
     style="display:inline;fill:#ffffff;stroke:#eb4170;stroke-width:0.375471;stroke-miterlimit:10;stroke-dasharray:none;stroke-opacity:1" /><circle
     class="st9"
     cx="659.31482"
     cy="669.95178"
     r="1.3137752"
     id="circle137-9-49-9"
     style="display:inline;fill:#ffffff;stroke:#eb4170;stroke-width:0.375471;stroke-miterlimit:10;stroke-dasharray:none;stroke-opacity:1" /><circle
     class="st9"
     cx="664.45673"
     cy="678.36383"
     r="1.3137752"
     id="circle137-9-49-4"
     style="display:inline;fill:#ffffff;stroke:#eb4170;stroke-width:0.375471;stroke-miterlimit:10;stroke-dasharray:none;stroke-opacity:1" /><circle
     class="st9"
     cx="690.52234"
     cy="701.74481"
     r="1.3137752"
     id="circle137-9-49-1"
     style="display:inline;fill:#ffffff;stroke:#eb4170;stroke-width:0.375471;stroke-miterlimit:10;stroke-dasharray:none;stroke-opacity:1" /><circle
     class="st9"
     cx="555.79187"
     cy="741.86505"
     r="1.313815"
     id="circle137-9-49-1-0"
     style="display:inline;fill:#ffffff;stroke:#ff8200;stroke-width:0.375391;stroke-miterlimit:10;stroke-dasharray:none;stroke-opacity:1" /><circle
     class="st9"
     cx="575.60791"
     cy="573.44312"
     r="1.3137752"
     id="circle137-9-49-2-9-0-2"
     style="display:inline;fill:#ffffff;stroke:#22b14c;stroke-width:0.375471;stroke-miterlimit:10;stroke-dasharray:none;stroke-opacity:1" /><circle
     class="st9"
     cx="595.93506"
     cy="579.71564"
     r="1.3137752"
     id="circle137-9-49-2-9-0-4"
     style="display:inline;fill:#ffffff;stroke:#22b14c;stroke-width:0.375471;stroke-miterlimit:10;stroke-dasharray:none;stroke-opacity:1" /><circle
     class="st9"
     cx="618.66284"
     cy="586.70612"
     r="1.3137752"
     id="circle137-9-49-2-9-0-0"
     style="display:inline;fill:#ffffff;stroke:#22b14c;stroke-width:0.375471;stroke-miterlimit:10;stroke-dasharray:none;stroke-opacity:1" /><circle
     class="st9"
     cx="711.84973"
     cy="606.99182"
     r="1.3137752"
     id="circle137-9-49-2-9-0-7"
     style="display:inline;fill:#ffffff;stroke:#22b14c;stroke-width:0.375471;stroke-miterlimit:10;stroke-dasharray:none;stroke-opacity:1" /><circle
     class="st9"
     cx="635.99036"
     cy="592.05652"
     r="1.3137752"
     id="circle137-9-49-2-9-0-6"
     style="display:inline;fill:#ffffff;stroke:#22b14c;stroke-width:0.375471;stroke-miterlimit:10;stroke-dasharray:none;stroke-opacity:1" /><circle
     class="st9"
     cx="657.20612"
     cy="596.51263"
     r="1.3137752"
     id="circle137-9-49-2-9-0-20"
     style="display:inline;fill:#ffffff;stroke:#22b14c;stroke-width:0.375471;stroke-miterlimit:10;stroke-dasharray:none;stroke-opacity:1" /><circle
     class="st9"
     cx="686.57257"
     cy="600.00726"
     r="1.3137752"
     id="circle137-9-49-2-9-0-70"
     style="display:inline;fill:#ffffff;stroke:#22b14c;stroke-width:0.375471;stroke-miterlimit:10;stroke-dasharray:none;stroke-opacity:1" /><circle
     class="st9"
     cx="532.42224"
     cy="411.41119"
     r="1.3137751"
     id="circle137-9-49-2-9-0-72"
     style="display:inline;fill:#ffffff;stroke:#ed1c24;stroke-width:0.375471;stroke-miterlimit:10;stroke-dasharray:none;stroke-opacity:1" /><circle
     class="st9"
     cx="527.81488"
     cy="425.33624"
     r="1.3137751"
     id="circle137-9-49-2-9-0-72-8"
     style="display:inline;fill:#ffffff;stroke:#ed1c24;stroke-width:0.375471;stroke-miterlimit:10;stroke-dasharray:none;stroke-opacity:1" /><circle
     class="st9"
     cx="525.84259"
     cy="449.03448"
     r="1.3137752"
     id="circle137-9-49-2-9-0-72-89"
     style="display:inline;fill:#ffffff;stroke:#ed1c24;stroke-width:0.375471;stroke-miterlimit:10;stroke-dasharray:none;stroke-opacity:1" /><circle
     class="st9"
     cx="523.34637"
     cy="461.79016"
     r="1.3137752"
     id="circle137-9-49-2-9-0-72-7"
     style="display:inline;fill:#ffffff;stroke:#ed1c24;stroke-width:0.375471;stroke-miterlimit:10;stroke-dasharray:none;stroke-opacity:1" /><circle
     class="st9"
     cx="520.95538"
     cy="485.13449"
     r="1.3137752"
     id="circle137-9-49-2-9-0-72-0"
     style="display:inline;fill:#ffffff;stroke:#ed1c24;stroke-width:0.375471;stroke-miterlimit:10;stroke-dasharray:none;stroke-opacity:1" /><circle
     class="st9"
     cx="523.93372"
     cy="524.28961"
     r="1.3137752"
     id="circle137-9-49-2-9-0-72-9"
     style="display:inline;fill:#ffffff;stroke:#ed1c24;stroke-width:0.375471;stroke-miterlimit:10;stroke-dasharray:none;stroke-opacity:1" /><circle
     class="st9"
     cx="523.49127"
     cy="547.2558"
     r="1.3137752"
     id="circle137-9-49-2-9-0-72-91"
     style="display:inline;fill:#ffffff;stroke:#ed1c24;stroke-width:0.375471;stroke-miterlimit:10;stroke-dasharray:none;stroke-opacity:1" /><circle
     class="st9"
     cx="521.53003"
     cy="586.61627"
     r="1.3137752"
     id="circle137-9-49-2-9-0-72-39"
     style="display:inline;fill:#ffffff;stroke:#ed1c24;stroke-width:0.375471;stroke-miterlimit:10;stroke-dasharray:none;stroke-opacity:1" /><circle
     class="st9"
     cx="516.53839"
     cy="601.02332"
     r="1.3137752"
     id="circle137-9-49-2-9-0-72-90"
     style="display:inline;fill:#ffffff;stroke:#ed1c24;stroke-width:0.375471;stroke-miterlimit:10;stroke-dasharray:none;stroke-opacity:1" /><circle
     class="st9"
     cx="410.80481"
     cy="742.91626"
     r="1.3137752"
     id="circle137-9-49-2-9-0-72-3"
     style="display:inline;fill:#ffffff;stroke:#ed1c24;stroke-width:0.375471;stroke-miterlimit:10;stroke-dasharray:none;stroke-opacity:1" /><circle
     class="st9"
     cx="511.00638"
     cy="608.89471"
     r="1.3137752"
     id="circle137-9-49-2-9-0-72-4"
     style="display:inline;fill:#ffffff;stroke:#ed1c24;stroke-width:0.375471;stroke-miterlimit:10;stroke-dasharray:none;stroke-opacity:1" /><circle
     class="st9"
     cx="502.19785"
     cy="619.36603"
     r="1.3137752"
     id="circle137-9-49-2-9-0-72-1"
     style="display:inline;fill:#ffffff;stroke:#ed1c24;stroke-width:0.375471;stroke-miterlimit:10;stroke-dasharray:none;stroke-opacity:1" /><circle
     class="st9"
     cx="489.21463"
     cy="636.44849"
     r="1.3137752"
     id="circle137-9-49-2-9-0-72-5"
     style="display:inline;fill:#ffffff;stroke:#ed1c24;stroke-width:0.375471;stroke-miterlimit:10;stroke-dasharray:none;stroke-opacity:1" /><ellipse
     class="st9"
     cx="481.3031"
     cy="647.21893"
     id="circle137-9-49-2-9-0-72-45"
     style="display:inline;fill:#ffffff;stroke:#ed1c24;stroke-width:0.375459;stroke-miterlimit:10;stroke-dasharray:none;stroke-opacity:1"
     rx="1.313781"
     ry="1.313735" /><ellipse
     class="st9"
     cx="471.48138"
     cy="660.2995"
     id="circle137-9-49-2-9-0-72-45-1"
     style="display:inline;fill:#ffffff;stroke:#ed1c24;stroke-width:0.375459;stroke-miterlimit:10;stroke-dasharray:none;stroke-opacity:1"
     rx="1.313781"
     ry="1.313735" /><ellipse
     class="st9"
     cx="462.34991"
     cy="672.69342"
     id="circle137-9-49-2-9-0-72-45-9"
     style="display:inline;fill:#ffffff;stroke:#ed1c24;stroke-width:0.375459;stroke-miterlimit:10;stroke-dasharray:none;stroke-opacity:1"
     rx="1.313781"
     ry="1.313735" /><ellipse
     class="st9"
     cx="450.61792"
     cy="688.29498"
     id="circle137-9-49-2-9-0-72-45-19"
     style="display:inline;fill:#ffffff;stroke:#ed1c24;stroke-width:0.375459;stroke-miterlimit:10;stroke-dasharray:none;stroke-opacity:1"
     rx="1.313781"
     ry="1.313735" /><ellipse
     class="st9"
     cx="440.64633"
     cy="702.16821"
     id="circle137-9-49-2-9-0-72-45-2"
     style="display:inline;fill:#ffffff;stroke:#ed1c24;stroke-width:0.375459;stroke-miterlimit:10;stroke-dasharray:none;stroke-opacity:1"
     rx="1.313781"
     ry="1.313735" /><ellipse
     class="st9"
     cx="425.69501"
     cy="722.15393"
     id="circle137-9-49-2-9-0-72-45-3"
     style="display:inline;fill:#ffffff;stroke:#ed1c24;stroke-width:0.375459;stroke-miterlimit:10;stroke-dasharray:none;stroke-opacity:1"
     rx="1.313781"
     ry="1.313735" /><circle
     class="st9"
     cx="524.50269"
     cy="821.67908"
     r="1.3137752"
     id="circle137-9-49-1-07"
     style="display:inline;fill:#ffffff;stroke:#ff8200;stroke-width:0.375471;stroke-miterlimit:10;stroke-dasharray:none;stroke-opacity:1" /><circle
     class="st9"
     cx="496.62506"
     cy="868.72028"
     r="1.3137752"
     id="circle137-9-49-1-07-5"
     style="display:inline;fill:#ffffff;stroke:#ff8200;stroke-width:0.375471;stroke-miterlimit:10;stroke-dasharray:none;stroke-opacity:1" /><circle
     class="st9"
     cx="305.13245"
     cy="1112.8586"
     r="1.3137752"
     id="circle137-9-49-1-07-9"
     style="display:inline;fill:#ffffff;stroke:#ff8200;stroke-width:0.375471;stroke-miterlimit:10;stroke-dasharray:none;stroke-opacity:1" /><circle
     class="st9"
     cx="323.16492"
     cy="1100.4911"
     r="1.3137752"
     id="circle137-9-49-1-07-0"
     style="display:inline;fill:#ffffff;stroke:#ff8200;stroke-width:0.375471;stroke-miterlimit:10;stroke-dasharray:none;stroke-opacity:1" /><circle
     class="st9"
     cx="348.22876"
     cy="1105.7123"
     r="1.3137752"
     id="circle137-9-49-1-07-4"
     style="display:inline;fill:#ffffff;stroke:#ff8200;stroke-width:0.375471;stroke-miterlimit:10;stroke-dasharray:none;stroke-opacity:1" /><circle
     class="st9"
     cx="404.3154"
     cy="1050.0979"
     r="1.3137752"
     id="circle137-9-49-1-07-48"
     style="display:inline;fill:#ffffff;stroke:#ff8200;stroke-width:0.375471;stroke-miterlimit:10;stroke-dasharray:none;stroke-opacity:1" /><circle
     class="st9"
     cx="455.53674"
     cy="938.41028"
     r="1.3137752"
     id="circle137-9-49-1-07-48-5"
     style="display:inline;fill:#ffffff;stroke:#ff8200;stroke-width:0.375471;stroke-miterlimit:10;stroke-dasharray:none;stroke-opacity:1" /></g></svg>
