<?xml version="1.0" encoding="utf-8"?>
<!-- Generator: Adobe Illustrator 16.0.0, SVG Export Plug-In . SVG Version: 6.00 Build 0)  -->
<!DOCTYPE svg PUBLIC "-//W3C//DTD SVG 1.1//EN" "http://www.w3.org/Graphics/SVG/1.1/DTD/svg11.dtd">
<svg version="1.1" id="BPmap" xmlns:svg="http://www.w3.org/2000/svg"
	 xmlns="http://www.w3.org/2000/svg" xmlns:xlink="http://www.w3.org/1999/xlink" x="0px" y="0px" width="255.846px"
	 height="224.565px" viewBox="103.684 102.5 255.846 224.565" enable-background="new 103.684 102.5 255.846 224.565"
	 xml:space="preserve">
<g id="layer1">
	<path id="bp1" fill="#E5E5E5" stroke="#606060" d="M148.379,227.453l-3.546,4.857l-1.763,23.161l3.643-0.524l6.318,15.675
		c0.008,0.006,0.013,0.012,0.013,0.018c0,0,1.819,3.559,4.416,4.172c2.598,0.613,5.724-1.841,5.724-1.841l4.417,3.271
		c2.338-1.498,4.521-4.175,7.035-4.294c2.902-0.138,4.582,1.557,4.582,1.557l5.396-3.437l0.07,0.083l0.013-0.083l-6.869-10.796
		l-5.483-12.514l-1.88-18.57L148.379,227.453z"/>
	<path id="bp2" fill="#E5E5E5" stroke="#606060" d="M73.637,83.974l-11.508-5.049L25.49,74.479
		c-2.985,6.325-12.588,9.518-20.646,14.282l16.51,39.174l-0.055,5.821l-10.887,10.195c-3.896,0.266-5.721,1.425-9.413,3.936
		l3.196,4.461l9.072-1.077c-3.552,18.548-1.517,30.955-0.858,42.427c-5.613-2.479-9.101-3.94-11.41,3.742l9.906,3.138l2.77-3.219
		l6.533,4.182c0.318-3.263,9.369-10.08,9.969-10.488c5.481-3.732,5.765-7.033,8.618-7.114c0.093-0.003,0.191-0.004,0.289,0
		c3.483,0.15,6.476,6.378,10.262,7.979c3.525,1.491,7.428,2.767,10.983,4.727c3.414,1.882,6.896,3.983,10.674,4.862
		c5.388,1.254,10.896,2.221,16.331,3.389c5.351,1.15,10.852,2.207,16.349,1.701l17.813,16.659l4.564,0.087l12.96,3.152l3.411,4.627
		l1.158-0.928l1.233,2.086l0.009,0.03l3.546-4.857l22.028,0.734l1.032-10.804l0.809-4.451l-2.632,0.201l-1.994-12.003l1.041-7.893
		l2.658-7.057l-11.941-1.272l-6.479-3.874l-0.81,0.288l-4.451-3.008c-0.017,1.952-1.365,1.239-3.064-0.175l-2.086,2.313
		l-7.748,1.103l-0.983-7.578l-1.907-1.329l-2.024-7.113l-4.224-5.033l-7.748-1.968c0.973-2.833,3.53-3.627,6.65-3.699l-2.199-2.374
		c-2.145,0.263-1.753-1.218-1.504-2.602l-2.256-2.488l-2.488-7.113l0.293-4.106l-4.976-5.032l0.638-2.427h-1.797l-8.675-16.021
		c-2.729-2.748-5.314-4.449-8.325-9.313l-1.158-5.785L80.199,85.89l-4.106,1.504L73.637,83.974z"/>
	<path id="bp3" fill="#E5E5E5" stroke="#606060" d="M212.263,54.667c-1.57-15.563,5.316-28.735,9.144-41.708L208.27,9.711
		c-11.004,1.141-16.521-1.948-28.07-2.51l-16.13,1.601l-20.767,10.521c5.388,10.215,14.496,25.387,14.32,37.127
		c-14.574-8.416-30.694,4.634-46.799,8.775l-8.93-7.165l-4.841,2.633L83.037,50.372l-3.967,5.898l7.121,8.14L73.637,83.974
		l2.457,3.432l4.094-1.531l11.875,11.688l1.156,5.781c3.011,4.864,5.584,6.565,8.313,9.313l8.688,16.031H112l-0.625,2.438
		l4.969,5.031l-0.281,4.094l2.469,7.125l2.281,2.469c-0.249,1.384-0.645,2.888,1.5,2.625l2.188,2.375
		c-3.121,0.072-5.684,0.854-6.656,3.688l7.75,1.969l4.219,5.031l2.031,7.125l1.906,1.313l1,7.594l7.75-1.094l2.063-2.344
		c1.699,1.414,3.045,2.14,3.063,0.188l4.469,3l0.813-0.281l6.469,3.875l11.844,1.281l6.031-12.156l15.125-21.094l7.031-16.594
		l7.531-27.25l2.719-27.406l5.688-27.094L212.263,54.667z"/>
	<path id="bp4" fill="#E5E5E5" stroke="#606060" d="M290.046,30.487c-3.102-1.902-5.943-4.505-10.672-6.265
		c-4.316-1.607-17.74-7.734-13.52-16.223L253,3l0,0c-12.358,19.37-31.313,32.313-36.386,51.564l-1.209-0.251l-5.75,27.375
		l-2.718,27.406l15.593,5.938l7.345,10.938l20.03,22l8.97,7.281l2.938-8.125l16.875-68.344l7.75-26.031l0.125-14.938L290.046,30.487
		z"/>
	<path id="bp5" fill="#E5E5E5" stroke="#606060" d="M172.24,212.971l-0.8,4.412l-1.032,10.804h0.057l1.88,18.57l5.483,12.514
		l6.869,10.796l-0.013,0.083l4.626,5.439c2.678-1.839,9.345-6.509,9.457-7.512c0.197-1.754-1.196-10.057-2.487-12.086
		c-1.313-2.063-7.346-5.785-7.346-5.785l-0.171-24.35c-0.007-1.049,1.041-3.643,1.041-3.643L172.24,212.971z"/>
	<path id="bp6" fill="#E5E5E5" stroke="#606060" d="M214.439,205.153l-7.739,6.021l-4.828-4.661l-5.763,3.987l-6.301,11.728
		c-0.303,0.811-1.05,2.872-1.045,3.629l0.171,24.35c0,0,0.021,0.013,0.021,0.014l7.683-5.837l3.682-3.927l13.987-11.613l11.92-8.514
		L214.439,205.153z"/>
	<path id="bp7" fill="#E5E5E5" stroke="#606060" d="M226.227,220.33l-11.92,8.514l-13.987,11.613l-3.682,3.927l-7.683,5.837
		c0.123,0.075,6.025,3.729,7.324,5.771c0.146,0.23,0.295,0.545,0.441,0.918l28.071-11.329l7-4.932l10.092-0.092L226.227,220.33z"/>
	<path id="bp8" fill="#E5E5E5" stroke="#606060" d="M266.204,243.959l-7.635,1.504l-0.478-2.264l-16.208-2.641l-10.093,0.091
		l-6.999,4.932l-28.071,11.329c1.146,2.915,2.222,9.613,2.046,11.168c-0.002,0.021-0.009,0.045-0.017,0.069l12.286,7.398
		l27.892,13.987l13.516,7.268l14.569-26.698l0.463-17.928L266.204,243.959z"/>
	<path id="bp9" fill="#E5E5E5" stroke="#606060" d="M198.75,268.147c-0.384,1.134-6.821,5.644-9.44,7.442l13.463,15.828
		c3.642,8.352,5.219,16.853,3.97,25.64l-8.05,14.862c2.646-1.411,5.269-2.661,7.517-3.45c2.945-1.033,5.178-1.387,6.843-1.403
		c3.179-0.032,4.281,1.154,4.281,1.154c5.797,5.22,10.239,11.689,13.659,17.342l5.701,26.781l5.995-0.524l4.416-3.438l-0.651-5.067
		l2.208-2.047l1.797,2.698l24.211-22.737l0.021,0.022l19.038-19.165l-0.656-2.942c0,0,0.032-0.136,0.245-0.358l-54.39-29.252
		l-27.892-13.987L198.75,268.147z"/>
	<path id="bp10" fill="#E5E5E5" stroke="#606060" d="M351.397,230.312l-7.473,1.662l-37.101,5.798l-40.615,6.213l1.268,8.189
		l-0.463,17.928l-14.569,26.698l40.874,21.984c0.299-0.312,0.956-0.795,2.413-1.316c1.368-0.489,2.758-0.689,4.158-0.682
		c7.564,0.041,15.491,6.124,22.51,5.221c7.805,1.101,10.057,3.231,10.057,3.231l3.314-0.084c1.79,1.317,4.319,2.589,6.585,1.514
		l9.353,3.643h0.013l0.083,0.039l13.983,6.541l1.023-2.82l-11.696-8.588l0.205-1.351l12.882-2.781l0.861-6.502l19.956,17.547
		l0.821-1.351l40.975-67.52l-0.245-3.438l-14.893-4.319c-1.355,0.578-2.473,0.313-3.607-1.05l-52.806-15.212L351.397,230.312z"/>
	<path id="bp11" fill="#E5E5E5" stroke="#606060" d="M64.85,296.248c3.743,5.542,9.152,11.723,12.486,16.284
		c0.036,0.05,0.082,0.107,0.117,0.157c2.691,8.659,8.087,15.934,2.726,28.274c-5.264-0.232-10.146,6.401-15.41,9.685l11.946,8.35
		c0.396,8.545,2.195,17.091,0.394,25.636c-1.03,4.767-1.966,8.771-5.45,11.407l5.188,3.036c7.339-1.275,14.83,0.235,22.212,0
		c3.914-2.155,6.608-5.635,10.235-8.155l7.346-0.346l9.139-23.943c3.116-1.44,3.479-9.068,5.492-11.915l7.739,3.214l8.802,9.974
		l0.231,1.386l9.178,6.752l2.76-0.691l9.522,18.408l9.497-1.041l3.9-10.511l4.906-30.184l18.937-34.967
		c1.249-8.787-0.328-17.288-3.97-25.64l-18.159-21.351l0,0l-5.396,3.437c0,0-1.68-1.694-4.582-1.557
		c-2.514,0.119-4.697,2.796-7.035,4.294l-4.417-3.271c0,0-3.126,2.454-5.724,1.841c-2.597-0.613-4.416-4.172-4.416-4.172
		c0-0.281-7.812,0.12-9.815,2.659c-2.854,3.613-0.184,6.736-0.451,8.631c-0.267,1.891-3.861-3.944-6.869-5.277
		c-3.007-1.333,1.675,3.476,1.675,3.476s-5.21-0.649-7.809,1.719c-0.889,0.81-3.656-0.849-5.605-3.516
		c-0.673-0.92-2.755,2.057-7.031,1.797l-0.739,6.546l-7.114-2.497c0,0-11.187,0.682-11.123,2.414c0.3,8.123-6.166,5.418-8.264,9.243
		l-9.979-9.978l-3.682,4.739l-2.125-1.959L64.85,296.248z"/>
	<path id="bp12" fill="#E5E5E5" stroke="#606060" d="M24.297,204.074c-0.81,1.096-0.721,2.294,0.362,4.617l-4.799,8.717
		l-1.901,0.451c-2.126,3.938-6.169,9.133-5.477,11.615l14.505,7.981c-2.88,2.094-0.891,9.374,0.248,13.479l-7.424-0.686l-5.378,12.9
		l8.767,6.813l0.346,3.458l7.163,8.787l12.335-8.821c7.258,3.264,12.694,11.105,18.166,16.156c0.688,1.988,2.005,4.286,3.64,6.706
		l9.263-7.611l2.125,1.959l3.682-4.739l9.979,9.978c2.098-3.825,8.563-1.12,8.264-9.243c-0.063-1.732,11.123-2.414,11.123-2.414
		l7.114,2.497l0.739-6.546c4.276,0.26,6.358-2.717,7.031-1.797c1.949,2.667,4.717,4.325,5.605,3.516
		c2.599-2.368,7.809-1.719,7.809-1.719s-4.682-4.809-1.675-3.476c3.008,1.333,6.603,7.168,6.869,5.277
		c0.268-1.895-2.402-5.018,0.451-8.631c1.961-2.484,9.479-2.923,9.803-2.677l-6.318-15.675l-3.643,0.524l1.752-23.193l-1.231-2.084
		l-1.158,0.928l-3.411-4.627l-12.96-3.152l-4.564-0.087l-17.813-16.659c-5.497,0.506-10.998-0.551-16.349-1.701
		c-5.435-1.168-10.943-2.135-16.331-3.389c-3.778-0.879-7.26-2.98-10.674-4.862c-3.556-1.96-7.458-3.235-10.983-4.727
		c-3.786-1.602-6.778-7.829-10.262-7.979c-0.098-0.004-0.196-0.003-0.289,0l0,0c-2.854,0.081-3.137,3.382-8.618,7.114
		c-0.6,0.408-9.65,7.226-9.969,10.488L24.297,204.074z"/>
	<path id="bp13" fill="#E5E5E5" stroke="#606060" d="M206.944,109.099l-7.524,27.235l-7.031,16.603l-15.133,21.106l-6.021,12.129
		l0.088,0.009l-2.658,7.057l-1.041,7.893l1.994,12.003l2.632-0.201l-0.009,0.039l17.564,9.243c0,0-0.42,1.042-0.726,2.072
		l0.021,0.009c0.237-0.783,0.54-1.617,0.708-2.067l6.301-11.728l5.763-3.987l4.828,4.661l7.739-6.021l21.171-13.073l1.906-2.024
		l-2.715-2.488l15.207-39.501l-20.126-22.094l-7.346-10.932L206.944,109.099z"/>
	<path id="bp14" fill="#E5E5E5" stroke="#606060" d="M249.921,147.97l0.087,0.096l-15.207,39.501l2.715,2.488l-1.906,2.024
		l-21.171,13.073l11.788,15.177l15.657,20.228l16.209,2.641l0.477,2.265l7.635-1.504l0.004,0.026l40.615-6.213l29.79-4.657
		l-3.319-13.677l-13.187-23.021l0.796-7.909l-3.621-1.788h-2.697l-20.939-9.65l-12.432-3.599L249.921,147.97z"/>
	<path id="bp15" fill="#E5E5E5" stroke="#606060" d="M369.174,144.459l3.592-3.938l-28.187-24.848l14.041-14.432L335.79,81.32
		l-5.594,3.36l-8.743-8.494l13.632-18.331c-4.396-3.198-4.292-5.288-9.337-4.738L313.34,39.504l2.289-1.958l-3.107-8.246
		c-12.715,5.286-17.879,4.007-22.476,1.188l-3.484,7.341l-0.113,14.923l-7.752,26.025l-16.887,68.363l-2.938,8.124l22.343,18.207
		l12.432,3.599l20.939,9.65h2.697l3.621,1.788l0.004-0.031l10.018-7.503l21.271-22.448l14.298-12.771L369.174,144.459z"/>
	<path id="bp16" fill="#E5E5E5" stroke="#606060" d="M492.716,225.669l-7.304-25.031l-19.322-37.106l-35.595,9.283l-16.547-16.049
		l-8.333,5.813l-7.008-4.818l-6.14,3.918l-23.294-17.219l-2.68,1.295l0,0l-14.298,12.771l-21.271,22.448l-10.018,7.503l-0.8,7.94
		l13.187,23.021l3.319,13.677l7.311-1.141l7.473-1.662l7.866,9.195l52.806,15.212c1.134,1.363,2.252,1.628,3.607,1.05l14.893,4.319
		l25.929-13.331l16.113-12.436l7.035-7.442L492.716,225.669z"/>
	<path id="bp17" fill="#E5E5E5" stroke="#606060" d="M503.385,380l14.414,2.166l16.109-27.112l14.921-17.681
		c12.163,2.285,27.217-2.552,36.05-6.664l12.304-11.611c-10.376-7.564-4.272-19.476-8.747-30.795
		c-6.36-9.858-27.312-26.676-19.613-51.522c1.127-3.637,8.235-13.403,8.235-13.403l-4.566-13.363
		c-19.192,1.813-28.628,11.753-42.572,10.093c-9.205-1.1-22.964,2.992-37.203,5.563l-13.07,1.211l-7.035,7.442l-16.113,12.436
		l-25.929,13.331l0.245,3.438l-40.975,67.52l5.847-0.328l4.333,2.536l3.559,3.721l7.525-6.296l2.536,2.085l2.82,0.979l25.806,21.022
		l6.341,1.798l3.025-0.734l2.575-4.5l11.167,2.698l2.82,2.903l6.708,13.091l5.567,1.354l13.875,5.406l1.094,2.094L503.385,380z"/>
	<path id="bp18" fill="#E5E5E5" stroke="#606060" d="M400.018,492.315l10.766-23.42l13.648-14.205l2.67,4.826l11.705-14.605
		l-12.681-11.879l20.21-23.896l6.902,1.64l0.981-5.247c3.15,2.52,4.216,3.957,3.275,7.589l11.864,5.4l12.474-15.931l5.875-2.014
		L503.385,380l-7.885-1.125l-1.156-2.094l-13.875-5.406l-5.563-1.344l-6.719-13.094l-2.813-2.906l-11.156-2.688l-2.594,4.5
		l-3.031,0.719l-6.344-1.781l-25.781-21.031l-2.844-1l-2.531-2.063l-7.531,6.281l-3.531-3.719l-4.344-2.531l-5.844,0.313
		l-0.813,1.375l-19.969-17.563l0,0l-0.875,6.5l-12.875,2.781l-0.188,1.344l11.688,8.594l-1.031,2.844l-13.969-6.563
		c-2.563,2.904-4.375,6.065-7.688,8.719l0.469,8.313l-10.938,15.531l9.469,6.281l-5.281,6.688l5.688,5.219l16,9.906L340,405.656
		l20.406,23.438l-9.063,4.5l9.844,10.375l-8.281,4.281l9.719,10.469L359.031,462l5.156,5.563l7.5-7.063L400.018,492.315z"/>
	<path id="bp19" fill="#E5E5E5" stroke="#606060" d="M299.889,316.787c-1.4-0.008-2.79,0.192-4.158,0.682
		c-2.496,0.894-2.658,1.675-2.658,1.675l0.656,2.942l-19.038,19.165l34.005,33.922c5.291,3.46,10.021,6.228,13.659,13.659
		l4.416,0.983l13.214,15.847l19.545-14.661l-15.99-9.899l-5.684-5.234l5.277-6.668l-9.488-6.296l10.957-15.54l-0.489-8.303
		c3.313-2.653,5.128-5.807,7.69-8.71l-9.448-3.682c-2.266,1.075-4.795-0.196-6.585-1.514l-3.314,0.084c0,0-2.252-2.131-10.057-3.231
		C315.381,322.911,307.453,316.828,299.889,316.787z"/>
	<path id="bp20" fill="#E5E5E5" stroke="#606060" d="M274.669,341.228l-24.211,22.737l-1.797-2.698l-2.208,2.047l0.651,5.067
		l-4.416,3.438l-5.995,0.524l1.907,8.963l3.139,15.199l2.37-1.015c1.106,0.106,2.132,0.538,3.528-0.521l2.2,1.505l2.081,2.951
		l-1.504,0.983l2.951,3.931l0.634-0.634l1.793,2.195c1.021-2.069,2.828-2.032,4.28-2.483l1.562,5.898l6.073,8.963l7.057-6.707
		l5.842,7.691l-2.313,5.609l5.321,6.996l6.012-4.219l-6.073-10.468l13.883-12.322l19.837,20.302l14.403-13.188
		c2.67,0.702,4.301-0.115,4.276-3.065l4.027-3.223l0.004-0.025l-13.214-15.847l-4.416-0.983
		c-3.639-7.432-8.368-10.199-13.659-13.659L274.669,341.228z"/>
	<path id="bp21" fill="#E5E5E5" stroke="#606060" d="M136.194,481.467l7.673-4.986l5.768,10.408l2.776,5.813l11.335-6.416
		l8.083,6.528l6.619-7.817l3.977,2.692l5.037-11.347l13.928,0.104l1.156-1.345l-3.203-5.397
		c6.981-8.104,18.498-21.083,30.522-19.103l15.466,29.164l17.531,7.897l5.021-11.149l0.323-5.969l-1.959-6.791l-3.765-8.832
		l-8.753-27.319l-8.995-16.606l-6.134-29.689l-7.608-35.744c-3.42-5.652-7.862-12.122-13.659-17.342c0,0-1.103-1.187-4.281-1.154
		l0,0c-1.665,0.017-3.897,0.37-6.843,1.403c-2.248,0.789-4.87,2.039-7.517,3.45l-10.887,20.104l-4.906,30.184l-3.9,10.511
		l0.044-0.004l-2.746,10.874l-1.303,21.461l-3.611,15.382l-13.044,25.911l-5.959,5.785L136.194,481.467z"/>
	<path id="bp22" fill="#E5E5E5" stroke="#606060" d="M53.886,520.596c9.845-14.633,18.019-22.291,42.697-29.519l39.609-9.611l0,0
		l16.188-9.339l5.959-5.785l13.044-25.911l3.611-15.382l1.303-21.461l2.746-10.874l-9.541,1.045l-9.522-18.408l-2.76,0.691
		l-9.178-6.752l-0.231-1.386l-8.802-9.974l-7.739-3.214c-2.014,2.847-2.376,10.475-5.492,11.915l-9.139,23.943l-7.346,0.346
		c-3.627,2.521-6.321,6-10.235,8.155c-7.382,0.235-14.873-1.275-22.212,0l-5.188-3.036c-9.875,6.424-17.932,19.076-26.595,29.394
		c3.008,12.509,9.517,25.673,8.173,37.819c-14.317,2.975-20.028,7.371-11.044,32.522c0.265,0.741-2.075,0.44-1.88,1.17
		c1.505,5.608,3.729,9.997,6.452,16.945L53.886,520.596z"/>
	<path id="bp23" fill="#E5E5E5" stroke="#606060" d="M251.211,506.168l53.554,47.3L315.807,566l15.56-12.464
		c13.491-3.881,25.705-7.212,39.481-7.682l17.717-28.625l11.453-24.914l-28.33-31.815l-7.5,7.063L359.031,462l3.594-3.281
		l-9.719-10.469l8.281-4.281l-9.844-10.375l9.063-4.5L340,405.656l-4.031,3.25c0.024,2.95-1.611,3.765-4.281,3.063l-14.406,13.188
		l-19.844-20.281l-13.875,12.313l6.063,10.469l-6,4.219l-5.344-7l2.313-5.625l-5.844-7.688l-7.031,6.719l-6.094-8.969l-1.563-5.906
		c-1.452,0.451-3.261,0.431-4.281,2.5L254,403.719l-0.625,0.625l-2.969-3.938l1.5-0.969l-2.063-2.969l-2.219-1.5l0,0
		c-1.397,1.059-2.395,0.638-3.5,0.531l-2.375,1l3,14.5l8.969,16.594l8.75,27.313l3.781,8.844l1.969,6.781l-0.344,5.969
		l-6.531,12.125l0.375,0.188L251.211,506.168z"/>
</g>
<g id="layer2">
	<path id="bp" fill="none" stroke="#000000" stroke-width="2" d="M212.263,54.667c-1.57-15.563,5.316-28.735,9.144-41.708
		L208.27,9.711c-11.004,1.141-16.521-1.948-28.07-2.51l-16.13,1.601l-20.767,10.521c5.388,10.215,14.496,25.387,14.32,37.127
		c-14.574-8.416-30.694,4.634-46.799,8.775l-8.93-7.165l-4.841,2.633L83.037,50.372l-3.967,5.898l7.121,8.14L73.637,83.974
		l-11.508-5.049L25.49,74.479c-2.985,6.325-12.588,9.518-20.646,14.282l16.51,39.174l-0.055,5.821l-10.887,10.195
		c-3.896,0.266-5.721,1.425-9.413,3.936l3.196,4.461l9.072-1.077c-3.552,18.548-1.517,30.955-0.858,42.427
		c-5.613-2.479-9.101-3.94-11.41,3.742l9.906,3.138l2.77-3.219l6.533,4.182l4.088,2.533c-0.81,1.096-0.721,2.294,0.362,4.617
		l-4.799,8.717l-1.901,0.451c-2.126,3.938-6.169,9.133-5.477,11.615l14.505,7.981c-2.88,2.094-0.891,9.374,0.248,13.479
		l-7.424-0.686l-5.378,12.9l8.767,6.813l0.346,3.458l7.163,8.787l12.335-8.821c7.258,3.264,12.694,11.105,18.166,16.156
		c0.688,1.988,2.005,4.286,3.64,6.706c3.743,5.542,9.152,11.723,12.486,16.284c0.036,0.05,0.082,0.107,0.117,0.157
		c2.691,8.659,8.087,15.934,2.726,28.274c-5.264-0.232-10.146,6.401-15.41,9.685l11.946,8.35c0.396,8.545,2.195,17.091,0.394,25.636
		c-1.03,4.767-1.966,8.771-5.45,11.407c-9.875,6.424-17.932,19.076-26.595,29.394c3.008,12.509,9.517,25.673,8.173,37.819
		c-14.317,2.975-20.028,7.371-11.044,32.522c0.265,0.741-2.075,0.44-1.88,1.17c1.505,5.608,3.729,9.997,6.452,16.945l4.576,5.946
		c9.846-14.633,20.564-21.533,45.242-28.761l39.61-9.61l7.673-4.986l5.768,10.408l2.776,5.813l11.335-6.416l8.083,6.528l6.619-7.817
		l3.977,2.692l5.037-11.347l13.928,0.104l1.156-1.345l-3.203-5.397c6.981-8.104,18.498-21.083,30.522-19.103l15.466,29.164
		l17.531,7.897l-11.65,18.505l53.554,47.3L315.807,566l15.56-12.464c13.491-3.881,25.705-7.212,39.481-7.682l17.717-28.625
		l11.453-24.914l10.766-23.42l13.648-14.205l2.67,4.826l11.705-14.605l-12.681-11.879l20.21-23.896l6.902,1.64l0.981-5.247
		c3.15,2.52,4.216,3.957,3.275,7.589l11.864,5.4l12.474-15.931l5.875-2.014L503.385,380l14.414,2.166l16.109-27.112l14.921-17.681
		c12.163,2.285,27.217-2.552,36.05-6.664l12.304-11.611c-10.376-7.564-4.272-19.476-8.747-30.795
		c-6.36-9.858-27.312-26.676-19.613-51.522c1.127-3.637,8.235-13.403,8.235-13.403l-4.566-13.363
		c-19.192,1.813-28.628,11.753-42.572,10.093c-9.205-1.1-22.964,2.992-37.203,5.563l-7.304-25.031l-19.322-37.106l-35.595,9.283
		l-16.547-16.049l-8.333,5.813l-7.008-4.818l-6.14,3.918l-23.294-17.219l3.592-3.938l-28.187-24.848l14.041-14.432L335.79,81.32
		l-5.594,3.36l-8.743-8.494l13.632-18.331c-4.396-3.198-4.292-5.288-9.337-4.738L313.34,39.504l2.289-1.958l-3.107-8.246
		c-12.715,5.286-17.879,4.007-22.476,1.188c-3.102-1.902-5.943-4.505-10.672-6.265c-4.316-1.607-17.74-7.734-13.52-16.223L253,3l0,0
		c-12.358,19.37-31.313,32.313-36.386,51.564L212.263,54.667z"/>
	<path id="duna" fill="#89C1FF" d="M246.491,1c0,0-7.626,6.724-12.863,14.472c-5.236,7.748-5.171,8.286-10.186,18.023
		c-4.672,9.072-7.618,15.266-7.567,16.681c-0.089-0.493-1.464-8.959,1.688-19.687c3.241-11.036,8.699-20.276,8.699-20.276
		l-5.464,0.066c0.015,0.025-5.536,10.362-8.434,23.996c-5.721,26.921-7.201,50.002-11.607,77.009c0,0-16.651,9.731-22.699,24.082
		c-4.13,12.991-0.241,19.762-2.921,33.955c-2.679,14.193-5.483,10.082-8.009,22.205c-2.534,12.164-0.202,16.806-0.264,28.272
		c-0.061,11.466,0.222,28.386,6.258,37.836c6.911,10.82,11.183,20.302,20.604,29.157c9.438,8.871,7.71,14.653,9.874,22.849
		c1.96,7.426-8.733,22.157-8.733,22.157l6.646-14.614l-5.819-2.234c0.634,4.033-0.486,10.114-4.102,20.469
		c-3.505,10.036-7.099,10.24-9.469,20.792c-2.143,9.536-0.36,14.109-1.551,19.813c-2.313,11.083-6.157,14.146-8.39,24.451
		c-2.231,10.304-0.129,7.927-1.035,16.835c-0.91,8.947,0.248,9.588-4.077,20.028c-4.324,10.44-9.159,23.038-12.491,28.354
		c-3.365,5.367-23.541,10.527-23.251,9.948c-0.239-1.908,3.021-10.232,9.354-16.262c6.333-6.029,13.933-5.509,17.426-6.889
		l-0.842-1.423c0,0-9.196,2.691-9.762,2.49c-0.77-0.275,6.276-5.154,9.053-4.692l-0.566-1.778c-0.32-0.512-13.38,5.49-19.645,14.386
		c-6.711,8.181-7.294,14.284-7.353,14.399c0,0-30.054,4.301-48.825,12.33c-16.99,7.268-18.053,12.021-26.242,20.379
		c-8.189,8.357-10.063,14.952-10.063,14.952l11.556,0.248c0,0,22.183-21.145,24.004-22.234c10.033-6.008,22.983-8.768,38.255-11.223
		c14.737-2.369,31.086-9.438,37.685-15.581c9.69-9.022,17.931-22.541,22.796-44.252c2.292-10.229,0.948-19.276,3.286-28.229
		c3.093-11.843,3.933-10.206,5.539-20.326c0.518-3.26,0.79-4.849,4.306-4.75c2.021,0.057,4.57,0.37,4.57,0.37l0.373-2.837
		c-3.229,0.147-7.227-2.045-8.503,2.787c-0.117-4.544,3.346-10.522,6.951-10.38l15.537,0.612l-1.051-1.953
		c-5.716-2.723-14.858-0.133-14.535-3.673c0.335-3.653,14.557-2.329,14.557-2.329l-0.513-2.223c0,0-12.544-1.119-14.721,0.346
		c-1.842,1.239-3.148,5.814-4.761,8.77c0.222,0.083-0.304-8.768,3.512-13.405c3.093-3.758,15.648-0.91,15.359-2.074l-0.064-2.157
		c-6.406-0.702-11.179-0.731-14.274,1.008c0,0,7.605-21.316,17.579-21.972c7.9-0.518,17.925,15.047,18.989,21.374
		c1.177,6.999,2.279,4.472,4.532,21.872c0.094,0.721-16.59,0.234-16.59,0.234l-0.038,2c0,0,16.62-0.992,17.217,0.079
		c0.554,0.994,8.243,36.756,8.932,38.811c2.556,7.634,6.221,10.021,9.658,19.438c2.384,6.529,4.271,13.728,5.635,17.936
		c2.094,6.463,5.282,14.155,6.971,19.448c2.993,9.385-11.553,26.395-18.491,37.963l3.394,1.996
		c11.429-18.419,18.565-27.115,19.392-44.782c0.045-0.973-0.091-10.724-3.159-17.893c-1.557-3.637-6.709-12.621-11.034-16.619
		c-1.753-1.619-9.364-15.662-10.473-18.35c-1.148-2.782-5.418-27.39-12.996-63.177c-1.193-5.649-10.331-18.209-15.704-21.619
		c-1.086-0.689-6.836-1.509-11.166,0.117c5.727-8.586,5.137-28.592-2.48-37.426c-7.17-8.314-26.263-29.28-27.906-43.217
		c-1.188-10.077-3.481-19.031,0.141-30.722c1.359-4.384,9.836-20.966,11.368-25.426c3.065-8.919,5.128-22.958,7.07-29.807
		c1.735-6.12,5.096-8.217,7.397-8.32c2.813-0.127,5.352-5.095,3.405-5.122l-2.388-0.035c-1.676,3.413-3.19,4.24-4.717,5.266
		c0,0,2.741-8.525,5.309-12.075c2.568-3.551,4.262-1.246,5.078-2.069c3.477-3.509,9.215-15.05,10.925-18.946
		c4.421-10.073,2.273-18.757,0.751-18.026c-1.633,0.784,0.27,10.448-3.561,17.008c-2.245,3.847-5.34,11.093-12.762,19.765
		c0.371-5.536,3.765-9.319,7.18-26.436c3.032-15.193,2.535-50.798,16.107-69.077C238.026,27.783,259.581,0.282,259.323,1H246.491z
		 M196.562,117.284c0.117,9.406,0.73,15.838-15.172,47.038c0.149-6.248,1.65-11.941,2.55-18.464
		c-2.45,6.818-4.652,13.663-5.564,21.17c-1.148-10.89-0.417-19.055,1.965-30.077C182.721,125.928,196.562,117.284,196.562,117.284z
		 M188.267,162.18c-1.994,14.591-1.72,22.669-16.107,50.084c0,0-4.392-9.815-0.553-21.831
		C175.446,178.417,188.267,162.18,188.267,162.18z M256.588,432.064c0,0,7.356,8.707,9.111,13.311
		c3.2,8.393,3.89,13.507,2.744,20.868C263.156,454.79,259.653,443.732,256.588,432.064z"/>
</g>
<path fill="none" stroke="#CB2927" stroke-width="3" stroke-linecap="round" stroke-miterlimit="10" d="M144.531,242.092
	c0,0,0.022-1.638-0.031-2.342c-0.107-1.402-1.408-4.034-1.43-5.439c-0.019-1.266,0.755-3.787,1.43-4.857
	c0.691-1.097,2.374-3.185,3.5-3.828c1.132-0.647,3.732-1.269,5.031-1.156c1.454,0.126,4.213,1.082,5.469,1.827
	c1.16,0.688,3.479,2.417,4.688,3.017c1.102,0.547,3.298,1.179,4.435,1.438c1.147,0.261,3.468,0.663,4.626,0.875
	c0.908,0.166,2.75,0.257,3.658,0.406c0.881,0.145,2.675,0.435,3.469,0.844c0.503,0.259,1.644,1.037,2,1.563
	c0.584,0.863,1.094,2.934,1.375,3.938c0.262,0.935,0.964,2.82,1.313,3.75c0.389,1.04,1.248,3.416,1.753,4.517
	c0.515,1.121,1.612,3.341,2.309,4.358c0.524,0.765,1.685,2.409,2.406,3.063c0.605,0.548,1.931,1.595,2.719,1.813
	c0.632,0.175,2.207,0.35,2.938,0.25c1.444-0.198,4.198-1.237,5.563-1.75c1.436-0.54,4.323-1.699,5.745-2.313
	c1.009-0.436,2.995-1.38,4.005-1.813c2.875-1.232,9.638-4.135,13-5.063c0.987-0.272,3.008-0.691,4.031-0.719
	c5.531-0.151,15.352,0,20.469,0.031c2.5,0.015,7.512,0.242,10,0c1.141-0.111,4.5-0.875,4.5-0.875s6.731-1.35,8.875-1.533
	c0.512-0.044,1.493,0.382,2,0.467c0.585,0.098,2.014,0.253,2.688,0.223c1.152-0.052,3.703-0.727,4.938-0.969
	c1.954-0.383,6.419-1.146,8.563-1.508c2.132-0.36,6.394-1.092,8.529-1.43c1.88-0.298,7.534-1.125,7.534-1.125"/>
<path fill="none" stroke="#1D5B9E" stroke-width="3" stroke-linecap="round" stroke-miterlimit="10" d="M238.938,113.844
	c0,0-3.767-0.553-5.031-0.531c-1.238,0.021-3.749,0.248-4.906,0.688c-1.573,0.598-3.099,1.38-4.5,2.313
	c-0.678,0.451-3.281,2.344-4.144,3.986c-0.74,1.41-4.856,17.67-4.856,17.67l-9.688,35.406l-8.5,28.844c0,0-1.264,3.676-1.563,4.935
	c-0.194,0.817-0.275,2.516-0.531,3.315c-0.464,1.448-2.095,4.052-2.844,5.375c-0.903,1.596-2.93,4.72-3.42,6.486
	c-0.321,1.158-0.285,3.594-0.314,4.795c-0.068,2.759-0.61,15.116-0.578,17.875c0.053,4.507,0.51,8.447,1.247,11.154
	c0.416,1.526,1.564,4.822,2.628,6.096c1.358,1.627,5,3.366,6.719,4.406c1.611,0.976,4.628,3.242,6.219,4.25
	c1.5,0.951,4.487,2.919,6.031,3.813c5.467,3.161,22.344,11.781,22.344,11.781l22,11.656l17,9.344l14.5,8
	c0,0,5.146,2.688,6.979,3.287c1.821,0.596,5.64,1.289,7.553,1.244c1.954-0.046,6.001-1.264,8.031-1.469
	c1.94-0.196,6.059-0.151,8.008,0.309c2.209,0.521,8.43,3.375,8.43,3.375"/>
<path fill="none" stroke="#39B24D" stroke-width="3" stroke-linecap="round" stroke-miterlimit="10" d="M140.084,321.585
	c0,0,3.115,0.578,4.167,0.661c1.288,0.102,3.897,0.239,5.167,0c1.262-0.238,3.647-1.25,4.833-1.744
	c1.165-0.484,4.667-1.917,4.667-1.917s4.448-1.662,5.917-2.25c1.196-0.479,3.677-1.287,4.75-2c0.724-0.481,2.03-1.686,2.5-2.417
	c0.55-0.856,1.583-3.75,1.583-3.75l1.333-4.916c0,0,0.889-4.511,1.25-6c0.275-1.135,1.25-4.5,1.25-4.5s0.952-2.842,1.5-3.667
	c0.506-0.761,2.031-2.05,2.771-2.585c0.732-0.529,2.473-1.305,3.188-1.896c0.612-0.506,1.596-1.778,2.042-2.436
	c0.755-1.114,2.117-3.439,2.833-4.579c0.544-0.867,1.641-2.597,2.25-3.42c0.528-0.714,1.599-2.146,2.25-2.75
	c0.623-0.579,2.04-1.533,2.75-2c0.353-0.231,1.124-0.612,1.417-0.917c0.454-0.471,0.897-1.763,1.333-2.25
	c0.577-0.646,2.213-1.682,3-2.17c0.747-0.463,2.215-1.435,3-1.83c0.985-0.496,3.038-1.318,4.083-1.667
	c0.782-0.26,2.369-0.711,3.167-0.917c0.788-0.203,2.404-0.474,3.167-0.76c0.662-0.248,1.961-0.865,2.5-1.323
	c0.722-0.613,1.961-2.087,2.417-2.917c0.472-0.861,1.077-2.745,1.417-3.667c0.33-0.895,1.006-2.681,1.417-3.541
	c0.19-0.397,0.584-1.19,0.847-1.543c0.43-0.577,1.404-1.659,1.986-2.083c0.286-0.208,1.25-0.667,1.25-0.667"/>
<path fill="none" stroke="#FDD92C" stroke-width="3" stroke-linecap="round" stroke-miterlimit="10" d="M182.25,250.5
	c0,0,0.99-0.707,1.375-0.813c0.392-0.107,1.224,0.064,1.625,0c0.457-0.073,1.387-0.391,1.704-0.729
	c0.203-0.216,0.437-0.791,0.483-1.083c0.062-0.394-0.129-1.217,0-1.594c0.165-0.479,0.956-1.185,1.325-1.531
	c1.425-1.336,4.213-4.074,5.612-5.438c1.543-1.504,6.188-6,6.188-6l4.688-4.625c0,0,6.746-6.883,9.016-9.156
	c1.563-1.565,4.776-4.612,6.297-6.219c0.357-0.378,1.125-1.106,1.375-1.563c0.259-0.472,0.477-1.545,0.625-2.063
	c0.119-0.413,0.322-1.268,0.563-1.625c0.259-0.385,0.961-1.039,1.375-1.25c0.4-0.204,1.28-0.451,1.727-0.5
	c0.534-0.059,1.642,0.178,2.148,0c0.429-0.15,1.004-0.925,1.375-1.188c0.521-0.369,1.719-0.895,2.348-1
	c0.577-0.097,1.755-0.016,2.339,0c0.469,0.013,1.875,0,1.875,0s0.993,0.075,1.313,0c0.374-0.088,1.375-0.688,1.375-0.688
	s1.147-0.793,1.563-1c0.291-0.145,1.219-0.453,1.219-0.453"/>
<circle fill="#FFFFFF" stroke="#231F20" cx="182.25" cy="250.5" r="1.544"/>
<circle fill="#FFFFFF" stroke="#231F20" cx="187.584" cy="248.956" r="1.544"/>
<circle fill="#FFFFFF" stroke="#231F20" cx="188.763" cy="244.75" r="1.544"/>
<circle fill="#FFFFFF" stroke="#231F20" cx="194.417" cy="239.25" r="1.544"/>
<circle fill="#FFFFFF" stroke="#231F20" cx="200.563" cy="233.312" r="1.544"/>
<circle fill="#FFFFFF" stroke="#231F20" cx="205.25" cy="228.687" r="1.544"/>
<circle fill="#FFFFFF" stroke="#231F20" cx="209.292" cy="224.455" r="1.544"/>
<circle fill="#FFFFFF" stroke="#231F20" cx="214.167" cy="219.625" r="1.544"/>
<circle fill="#FFFFFF" stroke="#231F20" cx="220.459" cy="213.326" r="1.544"/>
<circle fill="#FFFFFF" stroke="#231F20" cx="226.585" cy="206.404" r="1.544"/>
<circle fill="#FFFFFF" stroke="#231F20" cx="241.781" cy="201.984" r="1.544"/>
<circle fill="#FFFFFF" stroke="#231F20" cx="306.625" cy="237.75" r="1.544"/>
<circle fill="#FFFFFF" stroke="#231F20" cx="283.758" cy="241.445" r="1.544"/>
<circle fill="#FFFFFF" stroke="#231F20" cx="263.5" cy="243.625" r="1.544"/>
<circle fill="#FFFFFF" stroke="#231F20" cx="211.712" cy="250.22" r="1.544"/>
<circle fill="#FFFFFF" stroke="#231F20" cx="195.961" cy="256.154" r="1.544"/>
<circle fill="#FFFFFF" stroke="#231F20" cx="175.794" cy="232.029" r="1.544"/>
<circle fill="#FFFFFF" stroke="#231F20" cx="164.751" cy="230.231" r="1.544"/>
<circle fill="#FFFFFF" stroke="#231F20" cx="144.46" cy="228.997" r="1.544"/>
<circle fill="#FFFFFF" stroke="#231F20" cx="144.615" cy="242.737" r="1.544"/>
<circle fill="#FFFFFF" stroke="#231F20" cx="188.293" cy="238.112" r="1.544"/>
<circle fill="#FFFFFF" stroke="#231F20" cx="189.605" cy="221.362" r="1.544"/>
<circle fill="#FFFFFF" stroke="#231F20" cx="195.961" cy="206.445" r="1.544"/>
<circle fill="#FFFFFF" stroke="#231F20" cx="200.669" cy="190.82" r="1.544"/>
<circle fill="#FFFFFF" stroke="#231F20" cx="205.951" cy="173.57" r="1.544"/>
<circle fill="#FFFFFF" stroke="#231F20" cx="209.586" cy="160.904" r="1.544"/>
<circle fill="#FFFFFF" stroke="#231F20" cx="215.544" cy="138.112" r="1.544"/>
<circle fill="#FFFFFF" stroke="#231F20" cx="224.504" cy="116.445" r="1.544"/>
<circle fill="#FFFFFF" stroke="#231F20" cx="238.938" cy="113.844" r="1.544"/>
<circle fill="#FFFFFF" stroke="#231F20" cx="190.13" cy="258.862" r="1.544"/>
<circle fill="#FFFFFF" stroke="#231F20" cx="199.255" cy="266.82" r="1.544"/>
<circle fill="#FFFFFF" stroke="#231F20" cx="210.472" cy="274.697" r="1.544"/>
<circle fill="#FFFFFF" stroke="#231F20" cx="223.756" cy="281.544" r="1.544"/>
<circle fill="#FFFFFF" stroke="#231F20" cx="238.464" cy="288.992" r="1.544"/>
<circle fill="#FFFFFF" stroke="#231F20" cx="252.256" cy="296.575" r="1.544"/>
<circle fill="#FFFFFF" stroke="#231F20" cx="270.631" cy="306.534" r="1.544"/>
<circle fill="#FFFFFF" stroke="#231F20" cx="279.508" cy="311.367" r="1.544"/>
<circle fill="#FFFFFF" stroke="#231F20" cx="292.185" cy="318.117" r="1.544"/>
<circle fill="#FFFFFF" stroke="#231F20" cx="325.75" cy="322.246" r="1.544"/>
<circle fill="#FFFFFF" stroke="#231F20" cx="140.258" cy="321.492" r="1.544"/>
<circle fill="#FFFFFF" stroke="#231F20" cx="156.925" cy="319.45" r="1.544"/>
<circle fill="#FFFFFF" stroke="#231F20" cx="175.717" cy="299.867" r="1.544"/>
<circle fill="#FFFFFF" stroke="#231F20" cx="177.508" cy="292.575" r="1.544"/>
<circle fill="#FFFFFF" stroke="#231F20" cx="187.766" cy="280.921" r="1.544"/>
<circle fill="#FFFFFF" stroke="#231F20" cx="191.967" cy="274.046" r="1.544"/>
<circle fill="#FFFFFF" stroke="#231F20" cx="213.256" cy="259.669" r="1.544"/>
<circle fill="#FFFFFF" stroke="#231F20" cx="221.551" cy="253.391" r="1.544"/>
<path fill="#FFFFFF" stroke="#231F20" d="M228.671,242.943c-0.008,0-0.015,0.002-0.022,0.002c-0.11-0.746-0.746-1.32-1.521-1.32
	c-0.853,0-1.544,0.691-1.544,1.544s0.691,1.544,1.544,1.544c0.008,0,0.015-0.002,0.022-0.002c0.11,0.746,0.746,1.32,1.521,1.32
	c0.853,0,1.544-0.691,1.544-1.544S229.523,242.943,228.671,242.943z"/>
<text transform="matrix(1 0 0 1 164.7512 247.4119)" font-family="'MyriadPro-Regular'" font-size="3">Deák Ferenc tér</text>
<text transform="matrix(1 0 0 1 166.7512 254.9348)" font-family="'MyriadPro-Regular'" font-size="3">Vörösmarty tér</text>
<text transform="matrix(1 0 0 1 191.6736 246.031)" font-family="'MyriadPro-Regular'" font-size="3">Bajcsy-Zsilinszky út</text>
<text transform="matrix(1 0 0 1 197.5046 241.5583)" font-family="'MyriadPro-Regular'" font-size="3">Opera</text>
<text transform="matrix(1 0 0 1 203.7063 235.2058)" font-family="'MyriadPro-Regular'" font-size="3">Oktogon</text>
<text transform="matrix(1 0 0 1 208.7478 230.3103)" font-family="'MyriadPro-Regular'" font-size="3">Vörösmarty utca</text>
<text transform="matrix(1 0 0 1 212.4387 226.1433)" font-family="'MyriadPro-Regular'" font-size="3">Kodály körönd</text>
<text transform="matrix(1 0 0 1 217.6829 220.906)" font-family="'MyriadPro-Regular'" font-size="3">Bajza utca</text>
<text transform="matrix(1 0 0 1 223.7556 214.8704)" font-family="'MyriadPro-Regular'" font-size="3">Hősök tere</text>
<text transform="matrix(1 0 0 1 229.2146 210.0134)" font-family="'MyriadPro-Regular'" font-size="3">Széchenyi-fürdő</text>
<text transform="matrix(1 0 0 1 244.3254 205.4036)" font-family="'MyriadPro-Regular'" font-size="3">Mexikói út</text>
<text transform="matrix(1 0 0 1 122.6887 243.6248)" font-family="'MyriadPro-Regular'" font-size="3">Déli pályaudvar</text>
<text transform="matrix(1 0 0 1 120.9387 229.7683)" font-family="'MyriadPro-Regular'" font-size="3">Széll Kálmán tér</text>
<text transform="matrix(1 0 0 1 149.6887 235.2058)" font-family="'MyriadPro-Regular'" font-size="3">Battyhány tér</text>
<text transform="matrix(1 0 0 1 165.8835 227.9993)" font-family="'MyriadPro-Regular'" font-size="3">Kossuth Lajos tér</text>
<text transform="matrix(1 0 0 1 198.4167 257.8621)" font-family="'MyriadPro-Regular'" font-size="3">Astoria</text>
<text transform="matrix(1 0 0 1 191.4167 250.4998)" font-family="'MyriadPro-Regular'" font-size="3">Blaha Lujza tér</text>
<text transform="matrix(1 0 0 1 228.1292 249.1433)" font-family="'MyriadPro-Regular'" font-size="3">Keleti pályaudvar</text>
<text transform="matrix(1 0 0 1 261.9563 236.2058)"><tspan x="0" y="0" font-family="'MyriadPro-Regular'" font-size="3">Puskás Ferenc</tspan><tspan x="0" y="3.6" font-family="'MyriadPro-Regular'" font-size="3">Stadion</tspan></text>
<text transform="matrix(1 0 0 1 278.0515 246.9558)" font-family="'MyriadPro-Regular'" font-size="3">Pillangó utca</text>
<text transform="matrix(1 0 0 1 299.0813 243.2805)" font-family="'MyriadPro-Regular'" font-size="3">Örs vezér tere</text>
<text transform="matrix(1 0 0 1 242.3254 113.9011)" font-family="'MyriadPro-Regular'" font-size="3">Újpest-Központ</text>
<text transform="matrix(1 0 0 1 226.8987 119.5935)" font-family="'MyriadPro-Regular'" font-size="3">Újpest-Városkapu</text>
<text transform="matrix(1 0 0 1 218.6829 139.4548)" font-family="'MyriadPro-Regular'" font-size="3">Gyöngyösi utca</text>
<text transform="matrix(1 0 0 1 213.2561 161.9036)" font-family="'MyriadPro-Regular'" font-size="3">Forgách utca</text>
<text transform="matrix(1 0 0 1 209.5857 175.114)" font-family="'MyriadPro-Regular'" font-size="3">Árpád híd</text>
<text transform="matrix(1 0 0 1 204.1726 192.2761)" font-family="'MyriadPro-Regular'" font-size="3">Dózsa György út</text>
<text transform="matrix(1 0 0 1 198.7854 206.1531)" font-family="'MyriadPro-Regular'" font-size="3">Lehel tér</text>
<text transform="matrix(1 0 0 1 191.967 220.6248)"><tspan x="0" y="0" font-family="'MyriadPro-Regular'" font-size="3">Nyugati</tspan><tspan x="0" y="3.6" font-family="'MyriadPro-Regular'" font-size="3">pályaudvar</tspan></text>
<text transform="matrix(1 0 0 1 166.2952 239.9011)" font-family="'MyriadPro-Regular'" font-size="3">Arany János utca</text>
<text transform="matrix(1 0 0 1 170.2952 261.3831)" font-family="'MyriadPro-Regular'" font-size="3">Ferenciek tere</text>
<text transform="matrix(1 0 0 1 202.7063 267.1472)" font-family="'MyriadPro-Regular'" font-size="3">Kálvin tér</text>
<text transform="matrix(1 0 0 1 213.4197 274.0457)" font-family="'MyriadPro-Regular'" font-size="3">Corvin-negyed</text>
<text transform="matrix(1 0 0 1 225.8987 280.9207)" font-family="'MyriadPro-Regular'" font-size="3">Klinikák</text>
<text transform="matrix(1 0 0 1 240.2375 287.448)" font-family="'MyriadPro-Regular'" font-size="3">Nagyvárad tér</text>
<text transform="matrix(1 0 0 1 255.3987 296.2478)" font-family="'MyriadPro-Regular'" font-size="3">Népliget</text>
<text transform="matrix(1 0 0 1 272.6306 305.1707)" font-family="'MyriadPro-Regular'" font-size="3">Ecseri út</text>
<text transform="matrix(1 0 0 1 293.1848 315.9109)" font-family="'MyriadPro-Regular'" font-size="3">Határ út</text>
<text transform="matrix(1 0 0 1 281.2136 310.0779)" font-family="'MyriadPro-Regular'" font-size="3">Pöttyös utca</text>
<text transform="matrix(1 0 0 1 328.1311 321.1169)" font-family="'MyriadPro-Regular'" font-size="3">Kőbánya-Kispest</text>
<text transform="matrix(1 0 0 1 108.4617 322.2458)" font-family="'MyriadPro-Regular'" font-size="3">Kelenföld vasútállomás</text>
<text transform="matrix(1 0 0 1 144.4597 316.573)" font-family="'MyriadPro-Regular'" font-size="3">Bikás park</text>
<text transform="matrix(1 0 0 1 152.8806 300.8669)" font-family="'MyriadPro-Regular'" font-size="3">Újbuda-központ</text>
<text transform="matrix(1 0 0 1 144.6145 292.575)" font-family="'MyriadPro-Regular'" font-size="3">Móricz Zsigmond körtér</text>
<text transform="matrix(1 0 0 1 165.2483 281.5437)" font-family="'MyriadPro-Regular'" font-size="3">Szent Gellért tér</text>
<text transform="matrix(1 0 0 1 179.2605 271.0457)" font-family="'MyriadPro-Regular'" font-size="3">Fővám tér</text>
<text transform="matrix(1 0 0 1 214.6829 263.6707)" font-family="'MyriadPro-Regular'" font-size="3">Rákóczi tér</text>
<text transform="matrix(1 0 0 1 224.0413 254.9099)" font-family="'MyriadPro-Regular'" font-size="3">II. János Pál pápa tér</text>
<g>
	<g>
		<path fill="#FDD92D" d="M238.691,161.484c0,1.866,1.502,3.366,3.355,3.366c1.871,0,3.373-1.5,3.373-3.366
			c0-1.847-1.502-3.348-3.373-3.348C240.193,158.136,238.691,159.637,238.691,161.484z"/>
		<path fill="#434A52" d="M241.697,160.269h-0.014l-0.802,0.381l-0.162-0.738l1.119-0.518h0.81v4.207h-0.951V160.269z"/>
	</g>
	<g>
		<path fill="#CB2927" d="M238.691,168.669c0,1.866,1.502,3.367,3.354,3.367c1.871,0,3.373-1.501,3.373-3.367
			c0-1.846-1.502-3.347-3.373-3.347C240.193,165.322,238.691,166.823,238.691,168.669z"/>
		<path fill="#FFFFFF" d="M240.6,170.764v-0.581l0.523-0.473c0.903-0.808,1.338-1.268,1.344-1.748c0-0.334-0.195-0.6-0.668-0.6
			c-0.354,0-0.663,0.177-0.877,0.334l-0.272-0.682c0.303-0.233,0.79-0.422,1.338-0.422c0.935,0,1.439,0.543,1.439,1.281
			c0,0.694-0.492,1.243-1.092,1.773l-0.379,0.316v0.012h1.553v0.789H240.6z"/>
	</g>
	<g>
		<path fill="#1D5B9E" d="M238.69,175.938c0,1.866,1.502,3.366,3.355,3.366c1.871,0,3.373-1.5,3.373-3.366
			c0-1.846-1.502-3.347-3.373-3.347C240.192,172.591,238.69,174.092,238.69,175.938z"/>
		<path fill="#FFFFFF" d="M240.806,177.068c0.169,0.094,0.559,0.251,0.949,0.251c0.497,0,0.748-0.239,0.748-0.541
			c0-0.408-0.402-0.591-0.823-0.591h-0.39v-0.685h0.377c0.321,0,0.723-0.126,0.723-0.472c0-0.245-0.195-0.427-0.604-0.427
			c-0.333,0-0.685,0.145-0.849,0.246l-0.195-0.691c0.246-0.157,0.729-0.309,1.264-0.309c0.867,0,1.351,0.459,1.351,1.019
			c0,0.434-0.245,0.78-0.748,0.949v0.012c0.49,0.088,0.886,0.459,0.886,1c0,0.716-0.635,1.245-1.673,1.245
			c-0.527,0-0.974-0.138-1.212-0.283L240.806,177.068z"/>
	</g>
	<g>
		<path fill="#39B24D" d="M238.69,183.123c0,1.866,1.502,3.366,3.355,3.366c1.871,0,3.373-1.5,3.373-3.366
			c0-1.847-1.502-3.348-3.373-3.348C240.192,179.776,238.69,181.277,238.69,183.123z"/>
		<path fill="#FFFFFF" d="M242.269,185.208v-0.992h-1.844v-0.634l1.568-2.535h1.197v2.438h0.493v0.73h-0.493v0.992H242.269z
			 M242.269,183.486v-0.921c0-0.25,0.013-0.505,0.025-0.774h-0.02c-0.134,0.269-0.25,0.512-0.391,0.774l-0.55,0.909l-0.006,0.012
			H242.269z"/>
	</g>
	<text transform="matrix(1 0 0 1 247.3865 163.4661)"><tspan x="0" y="0" font-family="'MyriadPro-Regular'" font-size="6.0177">Vörösmarty tér – Mexikói út</tspan><tspan x="0" y="7.221" font-family="'MyriadPro-Regular'" font-size="6.0177">Déli pályaudvar – Örs vezér tere</tspan><tspan x="0" y="14.442" font-family="'MyriadPro-Regular'" font-size="6.0177">Újpest-Központ – Kőbánya-Kispest</tspan><tspan x="0" y="21.664" font-family="'MyriadPro-Regular'" font-size="6.0177">Kelenföld vasútállomás – Keleti pályaudvar</tspan></text>
</g>
</svg>
