<?xml version="1.0" encoding="UTF-8" standalone="no"?>
<svg
   width="810"
   height="315"
   viewBox="0 0 2531.25 984.37651"
   version="1.2"
   id="svg1126"
   sodipodi:docname="Carte_Lignes_CDGVAL.svg"
   inkscape:version="1.2 (dc2aeda, 2022-05-15)"
   xmlns:inkscape="http://www.inkscape.org/namespaces/inkscape"
   xmlns:sodipodi="http://sodipodi.sourceforge.net/DTD/sodipodi-0.dtd"
   xmlns="http://www.w3.org/2000/svg"
   xmlns:svg="http://www.w3.org/2000/svg">
  <sodipodi:namedview
     id="namedview1128"
     pagecolor="#ffffff"
     bordercolor="#666666"
     borderopacity="1.0"
     inkscape:pageshadow="2"
     inkscape:pageopacity="0.0"
     inkscape:pagecheckerboard="0"
     inkscape:document-units="px"
     showgrid="false"
     inkscape:zoom="2.6713751"
     inkscape:cx="429.74122"
     inkscape:cy="167.70389"
     inkscape:window-width="1920"
     inkscape:window-height="1080"
     inkscape:window-x="0"
     inkscape:window-y="0"
     inkscape:window-maximized="0"
     inkscape:current-layer="layer5"
     units="px"
     inkscape:showpageshadow="2"
     inkscape:deskcolor="#d1d1d1" />
  <g
     inkscape:groupmode="layer"
     id="layer1"
     inkscape:label="Fond"
     style="display:inline"
     transform="translate(29.778593,9.9847393)">
    <rect
       style="fill:#e6e6e6;fill-rule:evenodd;stroke-width:3.12501"
       id="rect1232"
       width="2531.2542"
       height="984.37646"
       x="-29.780487"
       y="-9.9847393" />
  </g>
  <g
     inkscape:groupmode="layer"
     id="layer2"
     inkscape:label="Limites"
     style="display:inline"
     transform="translate(29.778593,9.9847393)">
    <path
       fill-rule="evenodd"
       d="m 1694.2479,1194.525 -47.4588,-203.09099 -205.8887,29.78259 -4.8988,-58.87529 91.1073,-16.9358 -91.2073,-206.3786 -3.1392,-7.1082 -98.8354,30.9423 -7.6581,-70.3825 78.3405,-17.0058 -24.5839,-52.8768 -135.5562,19.8551 -0.7998,-11.4172 -97.6157,6.0685 -8.6778,-110.4625 92.7169,-8.2879 4.9187,30.7723 102.9144,-13.9165 70.9923,-34.7414 -51.8571,-69.2227 46.7984,-19.7951 -14.5564,-13.1367 -15.856,-43.8391 -32.7819,-90.5934 -74.3814,8.8557 -30.0825,3.5782 -36.7709,4.3769 -3.3192,-22.0156 -9.7475,-64.55287 -31.5622,5.13372 -246.24856,10.20846 -55.6362,11.52912 -110.9923,60.89487 -1.6596,19.4961 -79.5702,37.1528"
       vector-effect="none"
       id="path864"
       style="fill:none;fill-opacity:1;stroke:#ffffff;stroke-width:3.07011;stroke-linecap:square;stroke-linejoin:bevel;stroke-opacity:1" />
    <path
       fill-rule="evenodd"
       d="m -272.13444,666.19511 91.9626,-71.5122 51.05028,-20.7749 10.27744,92.7669 120.3560309,-2.8493 -1.66459004,-64.194 126.68644914,-4.8288 4.20195,56.266 116.91788,-16.7558 6.13147,69.7026 103.14132,-13.7765 -0.4149,-7.4482 47.80909,-2.4694 9.86454,134.7365 49.99955,2.1294 -8.45189,-244.1791 183.32236,-3.4492 1.3037,-93.3467 5.3766,-38.1405 14.9593,-99.5352 -0.038,-48.0711 -5.0997,-70.71636 -143.71524,-6.06349 -30.37743,-93.24177 -11.46315,-104.285027 -175.61826,16.21896 6.28044,67.27924 -9.90254,0.055 -10.88628,-0.73182 4.02899,114.506477 -83.02932,13.50664 -62.15552,13.00275 -34.64337,8.8958 L 80.102331,228.19316 20.569161,167.48128 -9.9832291,4.5658631 -0.00271914,3.0859372e-6 -40.168709,-218.18966 l -45.24274,0.72182"
       vector-effect="none"
       id="path868"
       style="fill:none;fill-opacity:1;stroke:#ffffff;stroke-width:3.07011;stroke-linecap:square;stroke-linejoin:bevel;stroke-opacity:1" />
    <path
       style="fill:none;fill-opacity:1;stroke:#ffffff;stroke-width:3.07011;stroke-linecap:square;stroke-linejoin:bevel;stroke-opacity:1"
       d="m 1646.7891,991.43401 186.7335,-37.6906 -12.9768,-30.6323 81.3897,-24.0141 110.4225,-32.5319 35.5112,-10.1174 117.0408,-33.7816 19.4952,-10.5174 32.5119,60.205 78.1505,-22.0745 59.0353,-13.2767 -20.5149,-93.2768 464.2644,-190.1426"
       id="path2833" />
    <path
       style="fill:none;fill-opacity:1;stroke:#ffffff;stroke-width:3.07011;stroke-linecap:square;stroke-linejoin:bevel;stroke-opacity:1"
       d="m 1533.8772,-84.052087 -22.4544,6.39841 19.985,66.68839 11.8371,-3.32817 17.1157,53.23574 -113.8616,57.11177 -260.1352,98.067577"
       id="path870" />
  </g>
  <g
     inkscape:groupmode="layer"
     id="layer5"
     inkscape:label="Noms stations"
     style="display:inline"
     transform="translate(29.778593,9.9847393)">
    <text
       xml:space="preserve"
       style="font-size:50.0001px;line-height:1.25;font-family:'Arial';stroke-width:3.12501"
       x="51.486961"
       y="93.014336"
       id="text6993"><tspan
         sodipodi:role="line"
         id="tspan6991"

         x="51.486961"
         y="93.014336">Terminal 1</tspan></text>
    <text
       xml:space="preserve"
       style="font-size:50.0001px;line-height:1.25;font-family:'Arial';stroke-width:3.12501"
       x="151.74559"
       y="475.82617"
       id="text10937"><tspan
         sodipodi:role="line"
         id="tspan10935"

         x="151.74559"
         y="475.82617">Parking PR</tspan></text>
    <text
       xml:space="preserve"
       style="font-size:50.0001px;line-height:1.25;font-family:'Arial';stroke-width:3.12501"
       x="732.02594"
       y="499.26492"
       id="text11043"><tspan
         sodipodi:role="line"
         id="tspan11041"

         x="732.02594"
         y="499.26492">Terminal 3 - Roissypole</tspan></text>
    <text
       xml:space="preserve"
       style="font-size:50.0001px;line-height:1.25;font-family:'Arial';stroke-width:3.12501"
       x="1446.5284"
       y="363.05753"
       id="text12195"><tspan
         sodipodi:role="line"
         id="tspan12193"

         x="1446.5284"
         y="363.05753">Parking PX</tspan></text>
    <text
       xml:space="preserve"
       style="font-size:50.0001px;line-height:1.25;font-family:'Arial';stroke-width:3.12501"
       x="1336.9999"
       y="761.7655"
       id="text12851"><tspan
         sodipodi:role="line"
         id="tspan12849"

         x="1336.9999"
         y="761.7655">Terminal 2</tspan></text>
    <text
       xml:space="preserve"
       style="font-size:50.0001px;line-height:1.25;font-family:'Arial';stroke-width:3.12501"
       x="1902.0656"
       y="599.26514"
       id="text13089"><tspan
         sodipodi:role="line"
         id="tspan13087"

         x="1902.0656"
         y="599.26514">Satellite S3</tspan></text>
    <text
       xml:space="preserve"
       style="font-size:50.0001px;line-height:1.25;font-family:'Arial';stroke-width:3.12501"
       x="1617.7656"
       y="899.26575"
       id="text13249"><tspan
         sodipodi:role="line"
         id="tspan13247"

         x="1617.7656"
         y="899.26575">Terminal 2E</tspan></text>
    <text
       xml:space="preserve"
       style="font-size:50.0001px;line-height:1.25;font-family:'Arial';stroke-width:3.12501"
       x="2147.4277"
       y="680.51526"
       id="text26381"><tspan
         sodipodi:role="line"
         id="tspan26379"

         x="2147.4277"
         y="680.51526">Satellite S4</tspan></text>
    <path
       style="display:inline;fill:none;stroke:#000000;stroke-width:3.12501px;stroke-linecap:butt;stroke-linejoin:miter;stroke-opacity:1"
       d="M 2028.6039,729.9592 V 607.88616"
       id="path27486" />
    <path
       style="display:inline;fill:none;stroke:#000000;stroke-width:3.12501px;stroke-linecap:butt;stroke-linejoin:miter;stroke-opacity:1"
       d="M 991.57227,458.59499 V 336.52195"
       id="path984" />
  </g>
  <g
     inkscape:groupmode="layer"
     id="layer3"
     inkscape:label="Lignes"
     style="display:inline"
     transform="translate(29.778593,9.9847393)">
    <path
       fill-rule="evenodd"
       d="m 1749.1136,829.78431 10.0775,-1.4796 8.168,-1.0398 5.4786,-1.5496 11.2272,-4.5988 13.1467,-6.8183 v 0 l 17.2557,-8.4879 38.3205,-19.3752 27.883,-13.1167 17.3857,-8.098 14.6264,-6.0785 16.3359,-5.6486 16.9758,-5.4686 17.7555,-4.9188 19.1453,-4.5889 19.5051,-2.9892 v 0 l 18.2455,-2.3394 7.958,-0.9298 9.9575,-1.1597 13.8666,-1.1397 v 0 l 18.2454,-1.0698 16.076,-0.9497 26.2035,-1.6196 v 0 l 35.7211,-2.0895 v 0 l 21.7546,-1.2797 v 0 l 32.6218,-2.4594 v 0 l 13.9166,-1.1297 v 0 l 56.9258,-3.6291"
       vector-effect="none"
       id="path876"
       style="fill:none;stroke:#f58f53;stroke-width:15.625;stroke-linecap:square;stroke-linejoin:bevel;stroke-miterlimit:4;stroke-dasharray:none;stroke-opacity:1" />
    <path
       fill-rule="evenodd"
       d="m 1452.8274,710.32411 -1.2397,-12.5269 -1.1497,-13.2567 v 0 l -1.4896,-14.5364 -3.8491,-20.6748 v 0 l -1.3596,-13.7666 -10.0875,-102.5445 -6.2685,-36.101 -9.8275,-43.1392 -2.8993,-20.5649 v 0 l -5.9485,-69.6627 -1.0697,-18.0955 -2.1795,-31.5621 -0.16,-2.2994 -0.8697,-10.0385 -1.6496,-8.099 -3.8391,-8.4749 -4.5888,-6.5044 -6.2185,-6.4474 -9.3077,-7.2732 -10.4874,-5.8875 -11.1372,-3.5581 -10.6973,-1.3777 v 0 l -34.0515,3.0813 -17.2757,1.9065 -13.2867,1.0927 -12.9868,2.2545 -11.4871,6.1184 -8.228,8.231 -15.1362,31.3772 -14.6964,9.9175 -22.3444,5.4686 -98.2855,9.6576 -53.9566,7.0983 -53.19666,7.3181 -68.9428,7.998 -30.7224,1.2797 -57.7856,-2.3094 -33.2817,-0.4999 -16.4559,2.3394 -3.7891,0.5399 v 0 l -10.2074,1.2497 v 0 l -69.2758,9.7176 v 0 l -46.5374,5.6886 v 0 l -84.9808,10.5373 -85.71967,9.3277 v 0 l -11.22621,1.1897 v 0 l -36.41893,3.6291 v 0 l -61.59066,4.7388 v 0 l -34.9233,2.6394 v 0 l -59.91707,5.4186 -14.51639,1.2097 v 0 l -12.21796,0.8698 v 0 l -13.86254,1.1097 -13.30969,-0.1599 -4.7948,-0.6999 -4.62685,-1.0597 -3.46814,-1.0497 -3.42714,-1.2897 v 0 l -7.02326,-3.4292 -6.16846,-4.3289 v 0 l -4.91078,-3.899 v 0 l -3.64409,-3.7591 -3.30218,-4.059 v 0 l -2.92727,-4.009 -2.36841,-4.2489 -1.80355,-3.909 -1.46863,-3.8491 -1.37166,-4.6288 -0.98875,-4.6389 -0.69183,-5.5586 -0.14197,-5.5486 -0.26993,-9.8275 -0.26393,-55.8761 -1.17271,-25.5887 -2.43939,-31.08021 v 0 l -2.51638,-31.99704 v 0 l -0.56586,-8.44389 -1.08373,-13.74058 v 0 l -0.76781,-14.19646 0.38091,-16.85381 -1.16371,-19.49214"
       vector-effect="none"
       id="path916"
       style="fill:none;stroke:#f58f53;stroke-width:15.625;stroke-linecap:square;stroke-linejoin:bevel;stroke-miterlimit:4;stroke-dasharray:none;stroke-opacity:1" />
  </g>
  <g
     inkscape:groupmode="layer"
     id="layer4"
     inkscape:label="Points stations"
     style="display:inline"
     transform="translate(29.778593,9.9847393)">
    <circle
       style="fill:#f58f53;fill-opacity:1;fill-rule:evenodd;stroke-width:3.12502"
       id="path3221"
       cx="162.90071"
       cy="126.90637"
       r="23.437538" />
    <circle
       style="fill:#f58f53;fill-opacity:1;fill-rule:evenodd;stroke-width:3.12502"
       id="circle3303"
       cx="279.79761"
       cy="410.94366"
       r="23.437538" />
    <circle
       style="fill:#f58f53;fill-opacity:1;fill-rule:evenodd;stroke-width:3.12502"
       id="circle3305"
       cx="991.57227"
       cy="347.45947"
       r="23.437538" />
    <circle
       style="fill:#f58f53;fill-opacity:1;fill-rule:evenodd;stroke-width:3.12502"
       id="circle3307"
       cx="1407.6385"
       cy="345.45496"
       r="23.437538" />
    <circle
       style="fill:#f58f53;fill-opacity:1;fill-rule:evenodd;stroke-width:3.12502"
       id="circle3309"
       cx="1451.5875"
       cy="697.79718"
       r="23.437538" />
    <circle
       style="fill:#f58f53;fill-opacity:1;fill-rule:evenodd;stroke-width:3.12502"
       id="circle3311"
       cx="1749.1135"
       cy="829.7843"
       r="23.437538" />
    <circle
       style="fill:#f58f53;fill-opacity:1;fill-rule:evenodd;stroke-width:3.12502"
       id="circle3313"
       cx="2028.6039"
       cy="732.25861"
       r="23.437538" />
    <circle
       style="fill:#f58f53;fill-opacity:1;fill-rule:evenodd;stroke-width:3.12502"
       id="circle3315"
       cx="2273.8928"
       cy="715.72778"
       r="23.437538" />
  </g>
  <g
     inkscape:groupmode="layer"
     id="layer6"
     inkscape:label="Autres"
     style="display:inline"
     transform="translate(29.778593,9.9847393)">
    <g
       id="g16293"
       transform="translate(-73.396363,-62.899891)">
      <text
         xml:space="preserve"
         style="font-size:50.0001px;line-height:1.25;font-family:'Arial';display:inline;stroke-width:3.12501"
         x="156.63611"
         y="983.55719"
         id="text14957"><tspan
           sodipodi:role="line"
           id="tspan14955"

           x="156.63611"
           y="983.55719">500 m</tspan></text>
      <path
         style="fill:none;stroke:#000000;stroke-width:3.12501px;stroke-linecap:butt;stroke-linejoin:miter;stroke-opacity:1"
         d="M 74.865979,1004.48 H 376.27271"
         id="path14816"
         sodipodi:nodetypes="cc" />
    </g>
    <g
       style="display:inline;stroke-width:0.622223;enable-background:new"
       id="g2864"
       transform="matrix(5.0223298,0,0,5.0223298,2105.4098,-54.069619)">
      <g
         id="layer4-5"
         inkscape:label="corresp"
         style="display:inline;stroke-width:0.622223"
         transform="translate(-155,-670.90601)">
        <g
           id="g73929"
           style="stroke-width:0.622223">
          <rect
             style="fill:#f58f53;fill-opacity:1;stroke-width:0.0402527"
             class="cls-1"
             width="57.638222"
             height="15.555554"
             rx="1.7563943"
             ry="1.5310051"
             id="rect37271"
             x="170"
             y="685.90601" />
          <g
             id="g37285"
             style="fill:#ffffff;fill-opacity:1;stroke-width:0.622223"
             transform="translate(79.939255,138.27774)">
            <path
               d="m 97.115305,560.399 q -1.075,0 -1.9875,-0.3 -0.9,-0.3125 -1.5625,-0.9 -0.6625,-0.5875 -1.0375,-1.4625 -0.375,-0.875 -0.375,-2 0,-1.1625 0.375,-2.1 0.3875,-0.95 1.0625,-1.6125 0.6875,-0.6625 1.6375,-1.0125 0.95,-0.3625 2.0875,-0.3625 0.9625,0 1.65,0.1875 0.6875,0.175 1.199995,0.3875 v 2.15 q -0.699995,-0.4375 -1.387495,-0.6 -0.6875,-0.1625 -1.3875,-0.1625 -0.525,0 -1.0375,0.1875 -0.5,0.175 -0.9,0.5375 -0.3875,0.35 -0.6375,0.8875 -0.2375,0.525 -0.2375,1.225 0,0.775 0.2375,1.325 0.25,0.55 0.65,0.9125 0.4,0.35 0.9125,0.525 0.525,0.1625 1.0875,0.1625 0.375,0 0.7,-0.025 0.325,-0.0375 0.6375,-0.1125 0.3125,-0.0875 0.6375,-0.2375 0.3375,-0.15 0.724995,-0.375 v 2.1 q -0.212495,0.1375 -0.549995,0.2625 -0.325,0.1125 -0.725,0.2125 -0.4,0.0875 -0.8625,0.1375 -0.45,0.0625 -0.9125,0.0625 z"
               id="path37273"
               style="font-size:6.66666px;line-height:0%;text-align:end;letter-spacing:0px;word-spacing:0px;text-anchor:end;fill:#ffffff;fill-opacity:1;stroke-width:0.345678px" />
            <path
               d="m 101.62468,550.799 h 3.1625 q 1.1125,0 2.075,0.225 0.975,0.2125 1.7,0.7375 0.725,0.5125 1.1375,1.3875 0.4125,0.8625 0.4125,2.15 0,1.2125 -0.375,2.125 -0.3625,0.9125 -1.0375,1.5375 -0.675,0.6125 -1.625,0.9375 -0.95,0.3125 -2.1125,0.325 h -3.3375 z m 2.2875,1.85 v 5.7125 h 0.775 q 0.7875,0 1.35,-0.2 0.575,-0.2125 0.9375,-0.5875 0.375,-0.375 0.55,-0.9 0.175,-0.525 0.175,-1.1625 0,-0.7875 -0.1875,-1.325 -0.1875,-0.55 -0.575,-0.8875 -0.375,-0.35 -0.9625,-0.5 -0.5875,-0.15 -1.3875,-0.15 z"
               id="path37275"
               style="font-size:6.66666px;line-height:0%;text-align:end;letter-spacing:0px;word-spacing:0px;text-anchor:end;fill:#ffffff;fill-opacity:1;stroke-width:0.345678px" />
            <path
               d="m 116.04929,560.399 q -1.1125,0 -2.0375,-0.2875 -0.9125,-0.3 -1.575,-0.8875 -0.65,-0.5875 -1.0125,-1.475 -0.3625,-0.8875 -0.3625,-2.0875 0,-1.1375 0.3625,-2.0625 0.375,-0.9375 1.0625,-1.5875 0.7,-0.65 1.6875,-1 1,-0.3625 2.2625,-0.3625 1.075,0 1.8125,0.2 0.7375,0.2 1.25,0.4625 v 2.2 q -0.7125,-0.45 -1.5,-0.675 -0.7875,-0.225 -1.5375,-0.225 -0.5625,0 -1.1125,0.1625 -0.5375,0.15 -0.9625,0.4875 -0.4125,0.3375 -0.675,0.8625 -0.25,0.525 -0.25,1.275 0,0.6875 0.1875,1.2625 0.1875,0.5625 0.55,0.975 0.375,0.4125 0.9125,0.6375 0.55,0.225 1.2625,0.225 0.2875,0 0.575,-0.025 0.2875,-0.0375 0.5625,-0.1 v -1.775 h -1.425 v -1.775 h 3.7 v 4.775 q -0.3625,0.2 -0.7625,0.35 -0.3875,0.15 -0.8375,0.25 -0.45,0.1 -0.975,0.15 -0.525,0.05 -1.1625,0.05 z"
               id="path37277"
               style="font-size:6.66666px;line-height:0%;text-align:end;letter-spacing:0px;word-spacing:0px;text-anchor:end;fill:#ffffff;fill-opacity:1;stroke-width:0.345678px" />
            <path
               d="m 126.21902,560.224 h -2.7125 l -3.2875,-9.425 h 2.5375 l 2.2,6.8125 2.2375,-6.8125 h 2.375 z"
               id="path37279"
               style="font-size:6.66666px;line-height:0%;text-align:end;letter-spacing:0px;word-spacing:0px;text-anchor:end;fill:#ffffff;fill-opacity:1;stroke-width:0.345678px" />
            <path
               d="m 132.20085,550.799 h 2.45 l 3.425,9.425 h -2.4125 l -0.625,-1.8875 h -3.4125 l -0.625,1.8875 h -2.25 z m 0.05,5.675 h 2.1875 l -1.075,-3.2875 z"
               id="path37281"
               style="font-size:6.66666px;line-height:0%;text-align:end;letter-spacing:0px;word-spacing:0px;text-anchor:end;fill:#ffffff;fill-opacity:1;stroke-width:0.345678px" />
            <path
               d="m 139.00261,550.799 h 2.2875 v 7.5625 h 3.9 v 1.8625 h -6.1875 z"
               id="path37283"
               style="font-size:6.66666px;line-height:0%;text-align:end;letter-spacing:0px;word-spacing:0px;text-anchor:end;fill:#ffffff;fill-opacity:1;stroke-width:0.345678px" />
          </g>
        </g>
      </g>
      <g
         id="layer2-4"
         inkscape:label="ligne"
         transform="translate(-251.13579,-770.34733)"
         style="display:inline;stroke-width:0.622223" />
      <g
         id="layer3-2"
         inkscape:label="names"
         transform="translate(-194.01005,-331.71786)"
         style="display:inline;stroke-width:0.622223" />
      <g
         id="layer1-6"
         inkscape:label="logo"
         style="display:inline;stroke-width:0.622223"
         transform="translate(-155,-670.90601)" />
    </g>
  </g>
</svg>
