<svg xmlns="http://www.w3.org/2000/svg" viewBox="0 0 1963 1346"><defs><style>.cls-1{fill:#ffe1a6;}.cls-10,.cls-2,.cls-20,.cls-3,.cls-9{fill:none;}.cls-2,.cls-3{stroke:#aaa;}.cls-2{stroke-width:44px;}.cls-3{stroke-width:15px;}.cls-15,.cls-4{fill:#aaa;}.cls-5{fill:#6d6d6d;}.cls-6{fill:#239089;}.cls-7{fill:#ff7900;}.cls-8{fill:#f53093;}.cls-11,.cls-16,.cls-17,.cls-9{stroke:#000;}.cls-10,.cls-12,.cls-15,.cls-16,.cls-17,.cls-18,.cls-9{stroke-miterlimit:10;}.cls-17,.cls-9{stroke-width:13px;}.cls-10,.cls-18{stroke:#ffce00;stroke-width:8px;}.cls-11,.cls-16{stroke-width:2px;}.cls-12,.cls-14{fill:#007020;}.cls-12,.cls-15{stroke:#fff;}.cls-13,.cls-16,.cls-17,.cls-18{fill:#fff;}.cls-19{fill:#ffce00;}</style></defs><g id="Camada_10" data-name="Camada 10"><path class="cls-1" d="M115,1498c36.61-164.93,84.12-412.6,114-720,20.31-208.92,14.72-262.82,40-340,62.81-191.78,280.84-419.42,977-560H-108.5V1495.5Z"/></g><g id="Pistas"><line class="cls-2" x1="907" y1="1050" x2="1971" y2="739"/><polyline class="cls-2" points="2073.32 965.12 1009.32 1276.12 572.5 1393.5"/><path class="cls-3" d="M855.5,723.5,965,1112l93.5,302.5"/><path class="cls-3" d="M1138.71,999.82l-71.93-255.18"/><path class="cls-3" d="M1307.71,811.82l-35.54-126.07"/><path class="cls-3" d="M1532.24,740.4,1496.7,614.32"/><path class="cls-3" d="M1759.24,671.4,1723.7,545.32"/><path class="cls-3" d="M907.43,921.18l642.36-187.76,421.64-123.24"/><polyline class="cls-3" points="897.43 862.18 1961.43 551.18 2041.5 527.5"/><path class="cls-3" d="M1554.5,732.5a396.33,396.33,0,0,1,42,4c25.08,3.74,41,8.59,68,16,45.73,12.56,68.59,18.84,83,21,19.89,3,49,5,86-1"/><path class="cls-3" d="M1104,802l-5.23,4-3,3.48-2.31,4-1.22,2.92-.85,3.07-1,5.56L1090,829"/><path class="cls-3" d="M914.55,856.86l-5.23,4-3.05,3.48-2.31,4-1.22,2.92-.85,3.06-1,5.57-.37,3.89"/><path class="cls-3" d="M1309.42,742l-5.23,4-3,3.48-2.31,4-1.22,2.93-.85,3.06-1,5.57-.37,3.89"/><path class="cls-3" d="M1535.27,676l-5.23,4-3,3.48-2.32,4-1.22,2.92-.85,3.07-1,5.56-.37,3.9"/><path class="cls-3" d="M1762.83,609.06l-5.24,4-3,3.48-2.31,4-1.22,2.92-.85,3.06-1,5.57-.36,3.9"/><path class="cls-3" d="M1120.19,858.46l-5.24,4-3,3.48-2.31,4-1.22,2.92-.85,3.07-1,5.56-.36,3.9"/><path class="cls-3" d="M930.93,914.46l-5.23,4L922.65,922l-2.31,4-1.22,2.92-.85,3.07-1,5.56-.37,3.9"/><path class="cls-3" d="M1063.13,814.09l5.62-3.47,3.39-3.15,2.72-3.78,1.51-2.78,1.16-2.95,1.55-5.44.76-3.84"/><path class="cls-3" d="M1078.08,871.8l5.63-3.47,3.39-3.15,2.71-3.77,1.52-2.79,1.16-3,1.54-5.44.77-3.84"/><path class="cls-3" d="M1284,810.93l5.63-3.47,3.38-3.15,2.72-3.78,1.51-2.78,1.17-3,1.54-5.43.77-3.84"/><path class="cls-3" d="M1510.15,745.08l5.62-3.48,3.39-3.14,2.72-3.78,1.51-2.78,1.16-3,1.55-5.43.76-3.84"/><path class="cls-3" d="M1737.08,679.27l5.63-3.47,3.39-3.15,2.71-3.78,1.52-2.78,1.16-3,1.54-5.43.77-3.84"/><path class="cls-3" d="M1108.55,979.12l5.63-3.47,3.38-3.15,2.72-3.78,1.51-2.78,1.17-3,1.54-5.44.77-3.84"/><path class="cls-3" d="M1726.71,620.51l4.71-4.64L1734,612l1.81-4.28.85-3,.48-3.15.29-5.64-.11-3.91"/><path class="cls-3" d="M1498.58,686.9l4.71-4.64,2.6-3.83,1.8-4.28.85-3L1509,668l.29-5.65-.11-3.91"/><path class="cls-3" d="M1272.92,752.89l4.71-4.64,2.6-3.83,1.8-4.28.85-3,.48-3.15.29-5.64-.11-3.91"/><path class="cls-3" d="M888.1,839.8l2.92,5.93,2.81,3.67,3.5,3.07,2.63,1.77,2.83,1.44,5.27,2.05,3.75,1.13"/><path class="cls-3" d="M1077.56,783.07l2.92,5.93,2.81,3.67,3.5,3.07,2.63,1.77,2.83,1.44,5.27,2,3.74,1.13"/><path class="cls-3" d="M1283.35,726.24l2.92,5.93,2.81,3.67,3.5,3.07,2.62,1.77,2.84,1.44,5.26,2,3.75,1.13"/><path class="cls-3" d="M1509.15,659.41l2.93,5.93,2.81,3.67,3.5,3.07,2.62,1.77,2.84,1.44,5.26,2.05,3.75,1.13"/><path class="cls-3" d="M1736.43,593.18l2.92,5.93,2.81,3.67,3.5,3.06,2.63,1.77,2.83,1.44,5.27,2.06,3.75,1.12"/><path class="cls-3" d="M1752.58,649.18l2.92,5.93,2.81,3.67,3.5,3.06,2.63,1.77,2.83,1.44,5.27,2.06,3.75,1.12"/><path class="cls-3" d="M1299.26,781.2l2.92,5.93,2.81,3.67,3.5,3.06,2.63,1.77,2.83,1.44,5.27,2.06,3.75,1.12"/><path class="cls-3" d="M1094.41,843.37l2.92,5.93,2.81,3.67,3.5,3.06,2.63,1.77,2.83,1.44,5.27,2.06,3.74,1.12"/><path class="cls-3" d="M904.52,898.54l2.92,5.93,2.81,3.67,3.5,3.06,2.62,1.77,2.84,1.44,5.26,2.06,3.75,1.12"/><path class="cls-3" d="M1124.73,950.07l2.92,5.93,2.81,3.67,3.5,3.07,2.63,1.77,2.83,1.44,5.27,2,3.74,1.13"/><path class="cls-3" d="M1525,715.75l2.93,5.93,2.81,3.67,3.5,3.07,2.62,1.77,2.84,1.44,5.26,2,3.75,1.13"/><path class="cls-3" d="M934.43,1004.94l2.92,5.93,2.81,3.67,3.5,3.07,2.63,1.77,2.83,1.44,5.27,2,3.75,1.13"/><path class="cls-3" d="M1107.2,889.06l-3-5.91-2.83-3.66-3.51-3-2.64-1.76-2.84-1.42-5.28-2-3.75-1.1"/><path class="cls-3" d="M1091.23,831.42l-3-5.91-2.83-3.65-3.51-3.05-2.64-1.75-2.84-1.43-5.28-2-3.75-1.11"/><path class="cls-3" d="M1296.53,770.32l-3-5.91-2.83-3.66-3.52-3-2.63-1.76-2.84-1.42-5.28-2-3.75-1.11"/><path class="cls-3" d="M1522.87,704.94l-3-5.92-2.83-3.65-3.52-3-2.63-1.75-2.84-1.43-5.28-2-3.75-1.11"/><path class="cls-3" d="M1750.38,639.53l-3-5.91-2.83-3.66-3.52-3-2.63-1.76-2.84-1.42-5.28-2-3.75-1.1"/><line class="cls-3" x1="700.5" y1="852.5" x2="897.96" y2="869.51"/><path class="cls-3" d="M872.43,866.65l5.62-3.47,3.39-3.15,2.71-3.77,1.52-2.78,1.16-3,1.54-5.44.77-3.84"/><path class="cls-3" d="M901.8,885.89,898.85,880,896,876.33l-3.52-3.05-2.64-1.76L887,870.1l-5.27-2L878,867"/><path class="cls-3" d="M896.59,791.38l-5.23,4-3.05,3.48-2.31,4-1.22,2.92-.85,3.06-1,5.57-.37,3.9"/><path class="cls-3" d="M1086.59,736.38l-5.23,4-3,3.48-2.31,4-1.22,2.92-.85,3.06-1,5.57-.37,3.9"/><path class="cls-3" d="M1291.74,679.84l-5.23,4-3,3.48-2.31,4-1.22,2.93-.85,3.06-1,5.57-.37,3.89"/><path class="cls-3" d="M1518.74,613.84l-5.23,4-3,3.48-2.31,4-1.22,2.93-.85,3.06-1,5.57-.37,3.89"/><path class="cls-3" d="M1504.91,645.11l-3-5.92-2.83-3.65-3.51-3-2.64-1.75-2.84-1.43-5.28-2-3.75-1.11"/><path class="cls-3" d="M1278.91,708.11l-3-5.92-2.83-3.65-3.51-3-2.64-1.75-2.84-1.43-5.28-2-3.75-1.11"/><path class="cls-3" d="M1073.91,768.11l-3-5.92-2.83-3.65-3.51-3-2.64-1.75-2.84-1.43-5.28-2-3.75-1.11"/><path class="cls-3" d="M1004.73,1241.48l2.92,5.93,2.81,3.67,3.5,3.06,2.63,1.77,2.83,1.44,5.27,2.05,3.74,1.13"/><path class="cls-3" d="M1039.27,1280.46l-5.23,4-3,3.48-2.32,4-1.22,2.92-.85,3.07-1,5.56-.37,3.9"/><path class="cls-3" d="M725.5,1341.5a64.35,64.35,0,0,1-27-21c-16.67-22.87-13.64-53.25-4-72,14.55-28.31,47.77-37.21,69-43,60-16.38,126.92-36,210-61"/><path class="cls-3" d="M799.5,1323.5c-3.06-.79-39.08-10.67-49-41-10.18-31.14,10.8-72.73,54-88"/><path class="cls-3" d="M951.68,1151.65l5.62-3.47,3.39-3.15,2.72-3.77,1.51-2.78,1.17-3,1.54-5.44.77-3.84"/></g><g id="Asfalto"><path class="cls-4" d="M606.4,443.18q-8.21,91.57-16.2,183.2Q580.45,738.18,571,850l152,12q2.43-54.43,7.53-112.52,3.13-34.92,7.06-68.34,28,5.48,57.23,10.47,23.43,4,46.18,7.39l30,107,964.16-272.69Q1779.11,346,1723.05,159c-62.19,17.87-124.65,36-186.85,53.87Q1588.61,398.95,1641,585l-65,18q-37.14-128.8-74.29-257.61c-24.3,6.38-48.61,12.77-72.91,19.4l-51.22,51.58-34,25.79,35.28,115.92L1359,565q-17.89-56.82-35.78-113.65L1242,407.94A455.17,455.17,0,0,1,1144,450a461.56,461.56,0,0,1-181.15,15.9L793.51,485.82l-12,122.56c-10.19-1.28-20.38-2.81-30.83-4.09C754.58,564,758.5,523.35,762.15,483l-40-8.17-39.72-27.32Z"/></g><g id="Terminais"><rect class="cls-5" x="501.78" y="710.03" width="19.61" height="72.62" transform="translate(60.94 -38.3) rotate(4.56)"/><rect class="cls-5" x="519.75" y="712.65" width="50.16" height="88.14" transform="translate(61.87 -40.91) rotate(4.56)"/><rect class="cls-6" x="499.48" y="706.53" width="19.61" height="72.62" transform="translate(60.65 -38.13) rotate(4.56)"/><rect class="cls-6" x="517.45" y="709.15" width="50.16" height="88.14" transform="translate(61.58 -40.74) rotate(4.56)"/><polygon class="cls-5" points="867.64 429.82 853.98 473.89 938.18 498.08 940.93 529.09 947.36 532.52 955.43 619.13 949.04 625.3 951.04 647.96 961.57 656.24 980.21 654.59 988.35 645.06 985.42 612.07 978.82 606.65 971.82 527.55 977 521.49 975.14 500.42 987.29 499.35 1036.17 474.99 1057.23 473.13 1110.77 487.62 1122.52 486.58 1124.67 510.82 1130.17 515.34 1137.93 602.98 1132.65 609.15 1134.72 632.51 1145.45 641.32 1164.64 639.62 1173.78 628.92 1170.69 594.07 1162.18 587.08 1155.61 512.89 1162.39 504.95 1160.01 478.05 1249.04 435.32 1231.4 374.4 1222.73 377.97 1220.44 388.99 1215.11 397.87 1208.97 402.42 1152.17 429.48 1123.41 432.02 1067 417.39 1058.91 422.91 1028.13 425.63 1019.97 421.15 966.71 446.69 939.16 449.13 867.64 429.82"/><polygon class="cls-7" points="865.28 426.3 851.63 470.37 935.83 494.56 938.57 525.56 945 529 953.07 615.61 946.68 621.78 948.68 644.44 959.22 652.72 977.85 651.07 985.99 641.53 983.07 608.55 976.46 603.12 969.46 524.03 974.64 517.96 972.78 496.9 984.93 495.82 1033.81 471.47 1054.88 469.61 1108.42 484.09 1120.16 483.05 1122.31 507.3 1127.81 511.82 1135.57 599.46 1130.3 605.63 1132.36 628.98 1143.1 637.8 1162.29 636.1 1171.42 625.4 1168.34 590.55 1159.82 583.55 1153.25 509.37 1160.03 501.43 1157.65 474.53 1246.68 431.8 1229.04 370.87 1220.38 374.44 1218.09 385.46 1212.75 394.35 1206.62 398.89 1149.81 425.95 1121.05 428.5 1064.64 413.86 1056.56 419.38 1025.77 422.11 1017.61 417.62 964.35 443.17 936.8 445.61 865.28 426.3"/><rect class="cls-5" x="1332.68" y="234.31" width="126.79" height="115.11" transform="translate(-27.35 381.75) rotate(-15.42)"/><rect class="cls-5" x="1231.01" y="361.87" width="118.32" height="13.85" transform="translate(-51.62 356.36) rotate(-15.42)"/><rect class="cls-5" x="1469.49" y="309.07" width="45.88" height="13.85" transform="translate(-30.29 408.24) rotate(-15.42)"/><rect class="cls-5" x="1546.77" y="280.93" width="29.92" height="288.56" transform="translate(-56.84 430.61) rotate(-15.42)"/><rect class="cls-5" x="1335.86" y="220.01" width="36.4" height="6.11" transform="translate(1210.21 -1141.69) rotate(74.63)"/><rect class="cls-5" x="1375.01" y="208.79" width="36.4" height="6.11" transform="translate(1228.17 -1187.68) rotate(74.63)"/><rect class="cls-5" x="1343.58" y="191.78" width="50.14" height="10" transform="translate(-2.98 371.62) rotate(-15.45)"/><rect class="cls-8" x="1326.85" y="231.31" width="126.79" height="115.11" transform="matrix(0.96, -0.27, 0.27, 0.96, -26.76, 380.1)"/><rect class="cls-8" x="1228.97" y="358.36" width="114.47" height="13.85" transform="translate(-50.83 355.18) rotate(-15.42)"/><rect class="cls-8" x="1463.66" y="306.07" width="45.88" height="13.85" transform="translate(-29.71 406.59) rotate(-15.42)"/><rect class="cls-8" x="1540.94" y="277.92" width="29.92" height="288.56" transform="translate(-56.25 428.95) rotate(-15.42)"/><rect class="cls-8" x="1341.54" y="191.01" width="49.91" height="10" transform="translate(-2.85 371.01) rotate(-15.45)"/><rect class="cls-8" x="1333.61" y="219.5" width="36.4" height="6.11" transform="translate(1208.06 -1139.89) rotate(74.63)"/><rect class="cls-8" x="1373.46" y="209.58" width="36.4" height="6.11" transform="translate(1227.79 -1185.6) rotate(74.63)"/><path class="cls-5" d="M475.42,806.53h-4.9v-1.77h11.94v1.77h-4.93v14.35h-2.11Z"/><path class="cls-5" d="M483.65,815.48a3.72,3.72,0,0,0,4,4,7.7,7.7,0,0,0,3.21-.6l.36,1.5a9.28,9.28,0,0,1-3.85.72c-3.57,0-5.7-2.34-5.7-5.84s2.06-6.24,5.43-6.24c3.78,0,4.79,3.33,4.79,5.45a9,9,0,0,1-.07,1Zm6.18-1.51c0-1.34-.55-3.42-2.92-3.42-2.13,0-3.07,2-3.23,3.42Z"/><path class="cls-5" d="M494.47,812.92c0-1.37,0-2.54-.1-3.62h1.84l.08,2.28h.09a3.48,3.48,0,0,1,3.21-2.54,2.25,2.25,0,0,1,.6.07v2a3.14,3.14,0,0,0-.72-.07,3,3,0,0,0-2.83,2.7,7,7,0,0,0-.09,1v6.17h-2.08Z"/><path class="cls-5" d="M502.39,812.44c0-1.2,0-2.18-.1-3.14h1.84l.1,1.87h.07a4,4,0,0,1,3.64-2.13,3.44,3.44,0,0,1,3.28,2.32h0a4.76,4.76,0,0,1,1.3-1.51,4,4,0,0,1,2.56-.81c1.53,0,3.8,1,3.8,5v6.82h-2.06v-6.55c0-2.23-.81-3.57-2.51-3.57a2.73,2.73,0,0,0-2.49,1.92,3.6,3.6,0,0,0-.17,1.05v7.15h-2.05v-6.94c0-1.84-.82-3.18-2.42-3.18a3.15,3.15,0,0,0-2.78,3.14v7h-2.05Z"/><path class="cls-5" d="M524.69,806.05a1.31,1.31,0,0,1-2.61,0,1.29,1.29,0,0,1,1.32-1.32A1.26,1.26,0,0,1,524.69,806.05Zm-2.35,14.83V809.3h2.11v11.58Z"/><path class="cls-5" d="M527.94,812.44c0-1.2,0-2.18-.09-3.14h1.86l.12,1.92h0a4.25,4.25,0,0,1,3.83-2.18c1.6,0,4.09,1,4.09,4.93v6.91h-2.11v-6.67c0-1.87-.69-3.42-2.68-3.42a3,3,0,0,0-2.82,2.15,2.9,2.9,0,0,0-.14,1v7h-2.11Z"/><path class="cls-5" d="M547.63,820.88l-.17-1.46h-.07a4.31,4.31,0,0,1-3.54,1.73,3.3,3.3,0,0,1-3.54-3.33c0-2.8,2.49-4.33,7-4.31v-.24a2.39,2.39,0,0,0-2.63-2.68,5.71,5.71,0,0,0-3,.87l-.48-1.39a7.2,7.2,0,0,1,3.8-1c3.54,0,4.4,2.42,4.4,4.74v4.33a15.59,15.59,0,0,0,.2,2.77Zm-.31-5.91c-2.3,0-4.9.36-4.9,2.61a1.86,1.86,0,0,0,2,2,2.88,2.88,0,0,0,2.8-1.94,2.2,2.2,0,0,0,.12-.67Z"/><path class="cls-5" d="M552.75,803.9h2.11v17h-2.11Z"/><path class="cls-5" d="M567.37,807.29h0l-2.7,1.46-.41-1.6,3.4-1.82h1.8v15.55h-2Z"/><path class="cls-5" d="M997.75,444.6h-4.91v-1.77h11.94v1.77h-4.93V459h-2.1Z"/><path class="cls-5" d="M1006,453.55a3.71,3.71,0,0,0,4,4,7.54,7.54,0,0,0,3.21-.6l.36,1.51a9.33,9.33,0,0,1-3.86.72c-3.56,0-5.69-2.35-5.69-5.84s2.06-6.24,5.43-6.24c3.78,0,4.79,3.32,4.79,5.45a6.57,6.57,0,0,1-.08,1Zm6.17-1.51c0-1.33-.55-3.42-2.92-3.42-2.13,0-3.06,2-3.23,3.42Z"/><path class="cls-5" d="M1016.79,451c0-1.36,0-2.53-.09-3.61h1.84l.07,2.27h.1a3.46,3.46,0,0,1,3.2-2.53,2.2,2.2,0,0,1,.6.07v2a3,3,0,0,0-.72-.07,3,3,0,0,0-2.82,2.7,5.86,5.86,0,0,0-.09,1V459h-2.09Z"/><path class="cls-5" d="M1024.71,450.51c0-1.19,0-2.17-.09-3.13h1.84l.1,1.87h.07a4,4,0,0,1,3.63-2.13,3.41,3.41,0,0,1,3.28,2.32h0a4.74,4.74,0,0,1,1.29-1.51,3.94,3.94,0,0,1,2.56-.81c1.53,0,3.81,1,3.81,5V459h-2.06V452.4c0-2.22-.81-3.56-2.51-3.56a2.72,2.72,0,0,0-2.49,1.91,3.35,3.35,0,0,0-.17,1.05V459H1032V452c0-1.84-.81-3.18-2.41-3.18a3.14,3.14,0,0,0-2.78,3.13v7h-2.06Z"/><path class="cls-5" d="M1047,444.12a1.3,1.3,0,1,1-2.6,0,1.28,1.28,0,0,1,1.31-1.31A1.24,1.24,0,0,1,1047,444.12ZM1044.67,459V447.38h2.1V459Z"/><path class="cls-5" d="M1050.27,450.51c0-1.19,0-2.17-.1-3.13H1052l.12,1.91h0a4.24,4.24,0,0,1,3.82-2.17c1.61,0,4.09.95,4.09,4.92V459H1058v-6.68c0-1.86-.69-3.42-2.68-3.42a3,3,0,0,0-2.82,2.16,2.88,2.88,0,0,0-.15,1v7h-2.1Z"/><path class="cls-5" d="M1070,459l-.17-1.46h-.07a4.31,4.31,0,0,1-3.54,1.72,3.29,3.29,0,0,1-3.54-3.32c0-2.8,2.48-4.33,7-4.31v-.24a2.38,2.38,0,0,0-2.63-2.68,5.86,5.86,0,0,0-3,.86l-.48-1.39a7.23,7.23,0,0,1,3.81-1c3.54,0,4.4,2.41,4.4,4.73v4.33a16.71,16.71,0,0,0,.19,2.78Zm-.31-5.91c-2.3-.05-4.91.36-4.91,2.61a1.87,1.87,0,0,0,2,2,2.89,2.89,0,0,0,2.8-1.94,2.31,2.31,0,0,0,.12-.67Z"/><path class="cls-5" d="M1075.08,442h2.1v17h-2.1Z"/><path class="cls-5" d="M1085.13,459v-1.29l1.65-1.61c4-3.78,5.76-5.79,5.79-8.13a2.78,2.78,0,0,0-3.09-3,5.29,5.29,0,0,0-3.3,1.32l-.67-1.49a6.83,6.83,0,0,1,4.4-1.58,4.38,4.38,0,0,1,4.76,4.53c0,2.87-2.08,5.19-5.36,8.35l-1.24,1.14v0h7V459Z"/><path class="cls-5" d="M1348.77,284.75h-4.91V283h11.94v1.77h-4.92v14.36h-2.11Z"/><path class="cls-5" d="M1357,293.7a3.71,3.71,0,0,0,4,4,7.54,7.54,0,0,0,3.21-.6l.36,1.51a9.5,9.5,0,0,1-3.86.72c-3.56,0-5.69-2.35-5.69-5.84s2.06-6.25,5.43-6.25c3.78,0,4.79,3.33,4.79,5.46a6.57,6.57,0,0,1-.08,1Zm6.17-1.51c0-1.34-.55-3.42-2.92-3.42-2.13,0-3.06,2-3.23,3.42Z"/><path class="cls-5" d="M1367.81,291.14c0-1.36,0-2.54-.09-3.61h1.84l.07,2.27h.1a3.47,3.47,0,0,1,3.2-2.54,2.18,2.18,0,0,1,.6.08v2a3,3,0,0,0-.72-.07A3,3,0,0,0,1370,292a5.86,5.86,0,0,0-.09,1v6.17h-2.09Z"/><path class="cls-5" d="M1375.73,290.66c0-1.19,0-2.17-.09-3.13h1.84l.1,1.86h.07a4,4,0,0,1,3.64-2.13,3.42,3.42,0,0,1,3.27,2.33h0a4.74,4.74,0,0,1,1.29-1.51,4,4,0,0,1,2.56-.82c1.53,0,3.81,1,3.81,5v6.82h-2.06v-6.56c0-2.22-.81-3.56-2.51-3.56a2.72,2.72,0,0,0-2.49,1.91A3.35,3.35,0,0,0,1385,292v7.16H1383v-6.94c0-1.84-.81-3.18-2.41-3.18a3.14,3.14,0,0,0-2.78,3.13v7h-2.06Z"/><path class="cls-5" d="M1398,284.27a1.3,1.3,0,1,1-2.6,0,1.28,1.28,0,0,1,1.31-1.31A1.24,1.24,0,0,1,1398,284.27Zm-2.34,14.84V287.53h2.1v11.58Z"/><path class="cls-5" d="M1401.29,290.66c0-1.19,0-2.17-.1-3.13h1.87l.12,1.91h0a4.25,4.25,0,0,1,3.82-2.18c1.61,0,4.1,1,4.1,4.93v6.92H1409v-6.68c0-1.86-.69-3.42-2.68-3.42a3,3,0,0,0-2.82,2.16,2.88,2.88,0,0,0-.15,1v7h-2.1Z"/><path class="cls-5" d="M1421,299.11l-.17-1.46h-.07a4.31,4.31,0,0,1-3.54,1.72,3.29,3.29,0,0,1-3.54-3.32c0-2.8,2.49-4.33,7-4.31v-.24a2.38,2.38,0,0,0-2.63-2.68,5.86,5.86,0,0,0-3,.86l-.47-1.39a7.17,7.17,0,0,1,3.8-1c3.54,0,4.4,2.42,4.4,4.74v4.33a16.71,16.71,0,0,0,.19,2.78Zm-.31-5.91c-2.3-.05-4.91.36-4.91,2.61a1.87,1.87,0,0,0,2,2,2.89,2.89,0,0,0,2.8-1.94,2.31,2.31,0,0,0,.12-.67Z"/><path class="cls-5" d="M1426.1,282.12h2.11v17h-2.11Z"/><path class="cls-5" d="M1436.65,296.69a7,7,0,0,0,3.45,1c2.7,0,3.54-1.72,3.51-3,0-2.18-2-3.11-4-3.11h-1.17V290h1.17c1.53,0,3.47-.79,3.47-2.63,0-1.25-.79-2.35-2.72-2.35a5.68,5.68,0,0,0-3.11,1l-.55-1.53a7.35,7.35,0,0,1,4.06-1.2c3.06,0,4.45,1.82,4.45,3.71a3.85,3.85,0,0,1-2.87,3.66v0a4,4,0,0,1,3.47,4c0,2.48-1.94,4.66-5.67,4.66a7.89,7.89,0,0,1-4-1.05Z"/></g><g id="Linha"><path class="cls-9" d="M336.44,908.67l11-123c.64-4.47,2.27-10.77,7-16,9.07-10,24.3-9.7,46-9,3.42.11,16,1.08,41,3,14.9,1.15,21.1,1.64,26.7-2.28,9.64-6.76,10.09-21.41,10.3-25.72,1.27-27.27,17.37-177.37,40-385a26.29,26.29,0,0,1,4-11c7-10.79,22.33-15.54,39-13l244,12s36-3,49,41,34,37,57,41,32,3,57-5,25-14,51-5,41-2,48-9,12-8,43-3,45,2,64-7,32-20,35-29,4-21-1-35-19-59-19-59-11-24,15-33,152-49,152-49"/><path class="cls-10" d="M336,909l11-123c.64-4.48,2.28-10.77,7-16,9.07-10,24.3-9.7,46-9,3.42.11,16,1.08,41,3,14.9,1.15,21.1,1.64,26.7-2.28C477.34,755,477.8,740.31,478,736c1.27-27.27,17.38-177.37,40-385a26.42,26.42,0,0,1,4-11c7.06-10.79,22.33-15.54,39-13l244,12s36-3,49,41,34,37,57,41,32,3,57-5,25-14,51-5,41-2,48-9,12-8,43-3,45,2,64-7,32-20,35-29,4-21-1-35-19-59-19-59-11-24,15-33,152-49,152-49"/></g><g id="Estações"><path class="cls-11" d="M249,901q-31,231.49-62,463"/><path class="cls-11" d="M258,903l-61.47,469.32"/><rect class="cls-5" x="214" y="892.22" width="165" height="41.78"/><rect class="cls-12" x="208" y="887" width="165" height="41.78"/><path class="cls-13" d="M216.64,900.11l-1.22,3.69h-1.56l4-11.72h1.82l4,11.72H222l-1.25-3.69Zm3.84-1.18-1.15-3.37c-.26-.76-.43-1.46-.61-2.14h0c-.17.7-.37,1.41-.59,2.12L217,898.93Z"/><path class="cls-13" d="M226,899.87a2.7,2.7,0,0,0,2.89,2.92,5.64,5.64,0,0,0,2.33-.43l.26,1.09a6.88,6.88,0,0,1-2.8.52,3.91,3.91,0,0,1-4.14-4.24c0-2.54,1.5-4.53,4-4.53,2.74,0,3.47,2.41,3.47,4a5.41,5.41,0,0,1-.05.71Zm4.49-1.09a2.18,2.18,0,0,0-2.13-2.49,2.54,2.54,0,0,0-2.34,2.49Z"/><path class="cls-13" d="M233.83,898c0-1,0-1.84-.07-2.62h1.34l.05,1.65h.07a2.52,2.52,0,0,1,2.33-1.84,1.45,1.45,0,0,1,.43,0v1.44a2.62,2.62,0,0,0-.52-.05,2.15,2.15,0,0,0-2.05,2,3.79,3.79,0,0,0-.07.71v4.49h-1.51Z"/><path class="cls-13" d="M247,899.52a4.12,4.12,0,0,1-4.19,4.47,4,4,0,0,1-4-4.33,4.1,4.1,0,0,1,4.17-4.46A4,4,0,0,1,247,899.52Zm-6.68.09c0,1.84,1.06,3.23,2.56,3.23s2.55-1.37,2.55-3.26c0-1.43-.71-3.24-2.52-3.24S240.27,898,240.27,899.61Z"/><path class="cls-13" d="M248.88,898.13c0-1.07,0-1.94-.07-2.74h1.37l.07,1.44h0a3.28,3.28,0,0,1,3-1.63c2,0,3.57,1.72,3.57,4.27,0,3-1.84,4.52-3.83,4.52a3,3,0,0,1-2.59-1.32h0v4.57h-1.51Zm1.51,2.25a3,3,0,0,0,.07.62,2.36,2.36,0,0,0,2.29,1.79c1.62,0,2.56-1.32,2.56-3.25,0-1.69-.89-3.13-2.5-3.13a2.45,2.45,0,0,0-2.32,1.9,2.51,2.51,0,0,0-.1.62Z"/><path class="cls-13" d="M266.38,899.52a4.12,4.12,0,0,1-4.19,4.47,4,4,0,0,1-4-4.33,4.1,4.1,0,0,1,4.17-4.46A4,4,0,0,1,266.38,899.52Zm-6.67.09c0,1.84,1.06,3.23,2.55,3.23s2.55-1.37,2.55-3.26c0-1.43-.71-3.24-2.52-3.24S259.71,898,259.71,899.61Z"/><path class="cls-13" d="M268.31,898c0-1,0-1.84-.07-2.62h1.34l.05,1.65h.07A2.52,2.52,0,0,1,272,895.2a1.45,1.45,0,0,1,.43,0v1.44a2.54,2.54,0,0,0-.52-.05,2.15,2.15,0,0,0-2.05,2,3.79,3.79,0,0,0-.07.71v4.49h-1.51Z"/><path class="cls-13" d="M276.25,893v2.42h2.19v1.16h-2.19v4.54c0,1,.3,1.63,1.15,1.63a3.47,3.47,0,0,0,.88-.1l.07,1.14A3.52,3.52,0,0,1,277,904a2.1,2.1,0,0,1-1.65-.64,3.09,3.09,0,0,1-.59-2.19v-4.59h-1.31v-1.16h1.31v-2Z"/><path class="cls-13" d="M287.67,899.52a4.12,4.12,0,0,1-4.19,4.47,4,4,0,0,1-4-4.33,4.1,4.1,0,0,1,4.17-4.46A4,4,0,0,1,287.67,899.52Zm-6.67.09c0,1.84,1.06,3.23,2.55,3.23s2.55-1.37,2.55-3.26c0-1.43-.71-3.24-2.52-3.24S281,898,281,899.61Z"/><path class="cls-13" d="M293.4,898.53v1.13h-4.29v-1.13Z"/><path class="cls-13" d="M304.41,903.28a11.06,11.06,0,0,1-3.6.64,5.51,5.51,0,0,1-6-5.91c0-3.49,2.42-6,6.35-6a7.34,7.34,0,0,1,2.92.54l-.37,1.24a6,6,0,0,0-2.59-.51,4.38,4.38,0,0,0-4.71,4.71c0,3,1.79,4.73,4.52,4.73a5,5,0,0,0,2-.31v-3.5h-2.38v-1.21h3.86Z"/><path class="cls-13" d="M313.7,901.5c0,.87,0,1.64.07,2.3h-1.35l-.09-1.37h0a3.18,3.18,0,0,1-2.78,1.56c-1.33,0-2.91-.73-2.91-3.68v-4.92h1.53V900c0,1.6.49,2.68,1.88,2.68a2.22,2.22,0,0,0,2-1.39,2.41,2.41,0,0,0,.13-.78v-5.16h1.53Z"/><path class="cls-13" d="M320.9,903.8l-.12-1.06h0a3.15,3.15,0,0,1-2.58,1.25,2.4,2.4,0,0,1-2.57-2.42c0-2,1.81-3.14,5.06-3.12v-.18a1.73,1.73,0,0,0-1.91-1.94,4.19,4.19,0,0,0-2.19.62l-.35-1a5.21,5.21,0,0,1,2.76-.74c2.57,0,3.2,1.75,3.2,3.44v3.14a11.3,11.3,0,0,0,.14,2Zm-.23-4.29c-1.67,0-3.56.26-3.56,1.89a1.35,1.35,0,0,0,1.44,1.46,2.1,2.1,0,0,0,2-1.41,1.61,1.61,0,0,0,.08-.48Z"/><path class="cls-13" d="M324.62,898c0-1,0-1.84-.07-2.62h1.34l.05,1.65H326a2.52,2.52,0,0,1,2.33-1.84,1.45,1.45,0,0,1,.43,0v1.44a2.54,2.54,0,0,0-.52-.05,2.15,2.15,0,0,0-2.05,2,3.79,3.79,0,0,0-.07.71v4.49h-1.51Z"/><path class="cls-13" d="M337.34,901.5c0,.87,0,1.64.07,2.3h-1.36l-.08-1.37h0a3.17,3.17,0,0,1-2.78,1.56c-1.32,0-2.9-.73-2.9-3.68v-4.92h1.53V900c0,1.6.48,2.68,1.88,2.68a2.21,2.21,0,0,0,2-1.39,2.16,2.16,0,0,0,.14-.78v-5.16h1.53Z"/><path class="cls-13" d="M339.88,891.46h1.53V903.8h-1.53Z"/><path class="cls-13" d="M344,891.46h1.53v5.25h0a2.86,2.86,0,0,1,1.1-1.08,3.14,3.14,0,0,1,1.56-.43c1.13,0,2.94.69,2.94,3.59v5h-1.53V899c0-1.36-.5-2.51-1.95-2.51a2.2,2.2,0,0,0-2.05,1.53,2,2,0,0,0-.1.73v5.08H344Z"/><path class="cls-13" d="M361.24,899.52a4.12,4.12,0,0,1-4.19,4.47,4,4,0,0,1-4-4.33,4.1,4.1,0,0,1,4.17-4.46A4,4,0,0,1,361.24,899.52Zm-6.68.09c0,1.84,1.06,3.23,2.56,3.23s2.55-1.37,2.55-3.26c0-1.43-.71-3.24-2.52-3.24S354.56,898,354.56,899.61Z"/><path class="cls-13" d="M363,902.23a4,4,0,0,0,2,.61c1.12,0,1.64-.55,1.64-1.25s-.44-1.13-1.57-1.55c-1.51-.53-2.22-1.37-2.22-2.38,0-1.35,1.09-2.46,2.9-2.46a4.19,4.19,0,0,1,2.07.52l-.38,1.11a3.26,3.26,0,0,0-1.72-.49c-.91,0-1.41.52-1.41,1.15s.5,1,1.6,1.43c1.46.55,2.2,1.28,2.2,2.53,0,1.48-1.14,2.52-3.14,2.52a4.76,4.76,0,0,1-2.36-.57Z"/><path class="cls-13" d="M214.54,922.81a5.28,5.28,0,0,0,2.71.77c1.54,0,2.45-.82,2.45-2s-.63-1.72-2.21-2.33c-1.91-.68-3.09-1.67-3.09-3.32,0-1.83,1.51-3.18,3.79-3.18a5.37,5.37,0,0,1,2.58.57l-.41,1.24a4.66,4.66,0,0,0-2.23-.56c-1.6,0-2.2,1-2.2,1.76,0,1.09.71,1.63,2.32,2.26,2,.76,3,1.72,3,3.44s-1.33,3.37-4.1,3.37a6,6,0,0,1-3-.75Z"/><path class="cls-13" d="M225.05,913.83v2.41h2.19v1.17h-2.19v4.53c0,1,.3,1.64,1.15,1.64a3.38,3.38,0,0,0,.88-.11l.07,1.15a3.72,3.72,0,0,1-1.35.21,2.09,2.09,0,0,1-1.65-.65,3.06,3.06,0,0,1-.59-2.18v-4.59h-1.31v-1.17h1.31v-2Z"/><path class="cls-13" d="M233.62,924.65l-.12-1.06h-.06a3.12,3.12,0,0,1-2.57,1.26,2.4,2.4,0,0,1-2.57-2.42c0-2,1.81-3.15,5.06-3.13v-.17a1.73,1.73,0,0,0-1.91-2,4.1,4.1,0,0,0-2.19.63l-.35-1a5.21,5.21,0,0,1,2.76-.75c2.57,0,3.2,1.76,3.2,3.44v3.15a11.18,11.18,0,0,0,.14,2Zm-.23-4.29c-1.67,0-3.56.26-3.56,1.9a1.35,1.35,0,0,0,1.44,1.46,2.11,2.11,0,0,0,2-1.41,1.67,1.67,0,0,0,.08-.49Z"/><path class="cls-13" d="M239.11,913.83v2.41h2.19v1.17h-2.19v4.53c0,1,.3,1.64,1.15,1.64a3.38,3.38,0,0,0,.88-.11l.07,1.15a3.72,3.72,0,0,1-1.35.21,2.09,2.09,0,0,1-1.65-.65,3.06,3.06,0,0,1-.59-2.18v-4.59h-1.31v-1.17h1.31v-2Z"/><path class="cls-13" d="M244.72,913.88a.9.9,0,0,1-1,.94.91.91,0,0,1-.92-.94.94.94,0,0,1,1-1A.91.91,0,0,1,244.72,913.88ZM243,924.65v-8.41h1.53v8.41Z"/><path class="cls-13" d="M254.7,920.38a4.12,4.12,0,0,1-4.19,4.47,4,4,0,0,1-4-4.33,4.11,4.11,0,0,1,4.17-4.47A4,4,0,0,1,254.7,920.38Zm-6.67.09c0,1.84,1.06,3.23,2.55,3.23s2.56-1.37,2.56-3.27c0-1.42-.72-3.23-2.52-3.23S248,918.87,248,920.47Z"/><path class="cls-13" d="M256.63,918.52c0-.87,0-1.58-.07-2.28h1.36l.08,1.39h0a3.08,3.08,0,0,1,2.78-1.58c1.16,0,3,.7,3,3.58v5h-1.53v-4.84c0-1.36-.5-2.49-1.95-2.49a2.18,2.18,0,0,0-2.05,1.56,2.28,2.28,0,0,0-.1.72v5h-1.53Z"/><rect class="cls-5" x="424.38" y="701" width="111.93" height="40"/><rect class="cls-12" x="420.31" y="696" width="111.93" height="40"/><path class="cls-13" d="M435.55,711.05H432v-1.28h8.67v1.28h-3.58v10.43h-1.53Z"/><path class="cls-13" d="M442,709.91a17.71,17.71,0,0,1,2.91-.23,4.83,4.83,0,0,1,3.28,1,3.17,3.17,0,0,1,1,2.45,3.46,3.46,0,0,1-.91,2.51,4.85,4.85,0,0,1-3.58,1.28,5,5,0,0,1-1.21-.1v4.69H442Zm1.52,5.64a4.84,4.84,0,0,0,1.25.13c1.82,0,2.93-.89,2.93-2.51s-1.09-2.29-2.76-2.29a6.29,6.29,0,0,0-1.42.12Z"/><path class="cls-13" d="M451,719.64a5.34,5.34,0,0,0,2.71.76c1.55,0,2.45-.81,2.45-2s-.62-1.73-2.2-2.33c-1.92-.68-3.1-1.67-3.1-3.32,0-1.83,1.51-3.18,3.79-3.18a5.27,5.27,0,0,1,2.59.57l-.42,1.23a4.63,4.63,0,0,0-2.22-.55c-1.6,0-2.21.95-2.21,1.75,0,1.1.71,1.64,2.33,2.26,2,.77,3,1.72,3,3.44s-1.34,3.38-4.1,3.38a6,6,0,0,1-3-.75Z"/><path class="cls-13" d="M462.56,711.61h0l-2,1.06-.3-1.16,2.47-1.33H464v11.3h-1.48Z"/><path class="cls-13" d="M472.17,719.64a5.34,5.34,0,0,0,2.71.76c1.55,0,2.45-.81,2.45-2s-.62-1.73-2.21-2.33c-1.91-.68-3.09-1.67-3.09-3.32,0-1.83,1.51-3.18,3.79-3.18a5.27,5.27,0,0,1,2.59.57l-.42,1.23a4.63,4.63,0,0,0-2.22-.55c-1.6,0-2.21.95-2.21,1.75,0,1.1.71,1.64,2.33,2.26,2,.77,3,1.72,3,3.44s-1.34,3.38-4.1,3.38a6,6,0,0,1-3-.75Z"/><path class="cls-13" d="M482.68,710.65v2.42h2.19v1.16h-2.19v4.54c0,1,.3,1.63,1.15,1.63a3.56,3.56,0,0,0,.89-.1l.07,1.15a3.83,3.83,0,0,1-1.36.21,2.12,2.12,0,0,1-1.65-.65,3.14,3.14,0,0,1-.59-2.19v-4.59h-1.3v-1.16h1.3v-2Z"/><path class="cls-13" d="M491.25,721.48l-.12-1.06h-.05a3.13,3.13,0,0,1-2.57,1.25,2.4,2.4,0,0,1-2.58-2.41c0-2,1.81-3.15,5.06-3.13V716a1.73,1.73,0,0,0-1.91-2,4.21,4.21,0,0,0-2.19.62l-.35-1a5.19,5.19,0,0,1,2.77-.75c2.57,0,3.19,1.75,3.19,3.44v3.15a12.19,12.19,0,0,0,.14,2Zm-.22-4.29c-1.67,0-3.57.26-3.57,1.89a1.36,1.36,0,0,0,1.45,1.46,2.08,2.08,0,0,0,2-1.41,1.63,1.63,0,0,0,.09-.48Z"/><path class="cls-13" d="M496.74,710.65v2.42h2.19v1.16h-2.19v4.54c0,1,.3,1.63,1.15,1.63a3.56,3.56,0,0,0,.89-.1l.07,1.15a3.83,3.83,0,0,1-1.36.21,2.12,2.12,0,0,1-1.65-.65,3.14,3.14,0,0,1-.59-2.19v-4.59H494v-1.16h1.3v-2Z"/><path class="cls-13" d="M502.36,710.71a1,1,0,0,1-1.9,0,.94.94,0,0,1,1-1A.91.91,0,0,1,502.36,710.71Zm-1.71,10.77v-8.41h1.53v8.41Z"/><path class="cls-13" d="M512.33,717.21a4.1,4.1,0,0,1-4.18,4.46,4,4,0,0,1-4-4.33,4.11,4.11,0,0,1,4.17-4.46C510.7,712.88,512.33,714.63,512.33,717.21Zm-6.67.08c0,1.84,1.06,3.24,2.55,3.24s2.56-1.38,2.56-3.27c0-1.43-.71-3.23-2.52-3.23S505.66,715.69,505.66,717.29Z"/><path class="cls-13" d="M514.26,715.35c0-.87,0-1.59-.07-2.28h1.36l.09,1.39h0a3.09,3.09,0,0,1,2.78-1.58c1.17,0,3,.69,3,3.58v5h-1.53v-4.85c0-1.35-.5-2.48-1.94-2.48a2.26,2.26,0,0,0-2.16,2.27v5.06h-1.53Z"/><path class="cls-14" d="M185.28,1298.06l-2.41-6.9,1,.14,1.95,5.8h0l3.48-5,1,.14-4.22,6Z"/><path class="cls-14" d="M182.79,1284.92l-.4,2.84-1-.14,1-6.92,1,.14-.4,2.86,8.32,1.17-.17,1.22Z"/><path class="cls-14" d="M189.13,1275.44a3.32,3.32,0,0,1,3.09,3.85,3.22,3.22,0,0,1-3.91,2.73,3.31,3.31,0,0,1-3.09-3.83A3.21,3.21,0,0,1,189.13,1275.44Zm-.68,5.34c1.47.21,2.7-.48,2.86-1.68s-.81-2.19-2.32-2.4c-1.13-.16-2.66.2-2.86,1.65S187.17,1280.6,188.45,1280.78Z"/><path class="cls-14" d="M183.94,1270.11a14.17,14.17,0,0,1,.14-2.34,3.9,3.9,0,0,1,1.15-2.52,2.52,2.52,0,0,1,2.07-.54,2.81,2.81,0,0,1,1.9,1,4.78,4.78,0,0,1,.4,4l3.74.53-.17,1.21Zm4.67-.57a4.22,4.22,0,0,0,.24-1c.21-1.46-.38-2.44-1.67-2.63s-2,.62-2.14,1.95A5.09,5.09,0,0,0,185,1269Z"/><path class="cls-14" d="M194.68,1260.72l-.86,0v0a2.49,2.49,0,0,1,.71,2.19,1.92,1.92,0,0,1-2.21,1.78c-1.63-.23-2.31-1.79-1.93-4.39l-.14,0a1.4,1.4,0,0,0-1.77,1.31,3.43,3.43,0,0,0,.25,1.82l-.84.16a4.31,4.31,0,0,1-.29-2.29c.29-2,1.76-2.35,3.11-2.16l2.51.35a9.66,9.66,0,0,0,1.62.12Zm-3.45-.3c-.22,1.32-.19,2.87,1.11,3a1.09,1.09,0,0,0,1.33-1,1.7,1.7,0,0,0-.9-1.78,1.29,1.29,0,0,0-.38-.12Z"/><path class="cls-14" d="M185.25,1256.37l.17-1.22,9.85,1.38-.17,1.22Z"/><path class="cls-14" d="M190.66,1253.79c-.69-.1-1.26-.16-1.83-.2l.16-1.07,1.08.1v0a2.36,2.36,0,0,1-.94-2.28,2,2,0,0,1,1.61-1.71v0a2.81,2.81,0,0,1-.77-.87,2.32,2.32,0,0,1-.26-1.55c.12-.89.89-2.13,3.22-1.8l4,.56-.17,1.19-3.8-.54c-1.29-.18-2.14.18-2.27,1.17a1.59,1.59,0,0,0,.9,1.6,2,2,0,0,0,.6.18l4.15.58-.17,1.2-4-.57c-1.06-.15-1.91.21-2,1.14a1.7,1.7,0,0,0,1,1.69,1.87,1.87,0,0,0,.58.18l4.05.57-.16,1.19Z"/><path class="cls-14" d="M194.14,1241.8a2.18,2.18,0,0,0,2.66-2,4.45,4.45,0,0,0-.09-1.9l.91-.09a5.56,5.56,0,0,1,.1,2.29,3.16,3.16,0,0,1-3.85,2.83c-2-.29-3.45-1.7-3.18-3.66.31-2.19,2.32-2.5,3.55-2.33.25,0,.44.09.57.12Zm-.37-3.7a1.75,1.75,0,0,0-2.22,1.41,2,2,0,0,0,1.72,2.15Z"/><path class="cls-14" d="M189.75,1233.4a.77.77,0,0,1-.21,1.52.76.76,0,0,1-.66-.87A.74.74,0,0,1,189.75,1233.4Zm8.41,2.57-6.71-.94.17-1.22,6.71.94Z"/><path class="cls-14" d="M194,1232.08c-.79-.11-1.47-.19-2.1-.24l.14-1.07,1.33.15v-.06a2,2,0,0,1-1.21-2.07,1.21,1.21,0,0,1,.09-.34l1.15.17a1.45,1.45,0,0,0-.1.41,1.72,1.72,0,0,0,1.34,1.85,3.52,3.52,0,0,0,.56.14l3.58.5-.17,1.21Z"/><path class="cls-14" d="M199.77,1224.55l-.86,0v0a2.49,2.49,0,0,1,.71,2.19,1.92,1.92,0,0,1-2.21,1.78c-1.63-.23-2.31-1.79-1.93-4.38l-.14,0a1.39,1.39,0,0,0-1.77,1.3,3.34,3.34,0,0,0,.25,1.82l-.84.16a4.19,4.19,0,0,1-.29-2.28c.29-2.06,1.76-2.36,3.11-2.17l2.51.35a9.59,9.59,0,0,0,1.62.12Zm-3.45-.3c-.22,1.32-.2,2.87,1.11,3a1.08,1.08,0,0,0,1.32-1,1.68,1.68,0,0,0-.89-1.78,1.29,1.29,0,0,0-.38-.12Z"/><path class="cls-14" d="M198.91,1221.57a3.11,3.11,0,0,0,.71-1.54c.13-.88-.26-1.36-.81-1.44s-.95.22-1.41,1.07c-.6,1.15-1.35,1.63-2.15,1.51a2.08,2.08,0,0,1-1.64-2.59,3.35,3.35,0,0,1,.64-1.59l.85.43a2.58,2.58,0,0,0-.58,1.31c-.1.73.25,1.19.75,1.26s.86-.29,1.32-1.12c.61-1.1,1.28-1.62,2.28-1.48,1.17.17,1.88,1.2,1.65,2.8a3.87,3.87,0,0,1-.72,1.82Z"/><path class="cls-14" d="M197.15,1212.67l.9.13-.48,3.42-.9-.12Z"/><path class="cls-14" d="M192.34,1210.5a11.49,11.49,0,0,1,.11-2.24,4,4,0,0,1,1-2.47,2,2,0,0,1,1.76-.54,2.23,2.23,0,0,1,1.83,1.87h0a2.44,2.44,0,0,1,2.62-1.59,2.52,2.52,0,0,1,1.76,1,4.81,4.81,0,0,1,.42,3.36,13.05,13.05,0,0,1-.38,1.85Zm4-.67.16-1.1c.18-1.27-.38-2.11-1.28-2.24-1.1-.16-1.65.62-1.82,1.84a4.57,4.57,0,0,0-.06,1.08Zm4.49.63a7.49,7.49,0,0,0,.19-1c.18-1.25-.12-2.47-1.47-2.66s-2,.84-2.15,2.16l-.14,1Z"/><path class="cls-14" d="M203.14,1200.61l-.86,0v0a2.51,2.51,0,0,1,.71,2.2,1.93,1.93,0,0,1-2.22,1.78c-1.62-.23-2.3-1.8-1.93-4.39l-.13,0a1.4,1.4,0,0,0-1.77,1.31,3.37,3.37,0,0,0,.25,1.82l-.84.16a4.12,4.12,0,0,1-.29-2.29c.29-2,1.76-2.35,3.11-2.16l2.51.35a9.59,9.59,0,0,0,1.62.12Zm-3.46-.31c-.21,1.33-.19,2.88,1.12,3.06a1.08,1.08,0,0,0,1.32-1,1.68,1.68,0,0,0-.89-1.78,1.39,1.39,0,0,0-.38-.12Z"/><path class="cls-14" d="M198.93,1197c-.79-.11-1.47-.19-2.1-.24l.15-1.07,1.33.15v-.06a2,2,0,0,1-1.21-2.06,1.39,1.39,0,0,1,.09-.34l1.16.16a1.45,1.45,0,0,0-.1.41,1.71,1.71,0,0,0,1.33,1.85,3.06,3.06,0,0,0,.56.14l3.58.5-.17,1.21Z"/><path class="cls-14" d="M199.58,1192.4c-.79-.11-1.47-.19-2.1-.24l.15-1.06,1.32.14v-.06a2,2,0,0,1-1.21-2.06,1.39,1.39,0,0,1,.09-.34l1.15.16a1.89,1.89,0,0,0-.1.41,1.74,1.74,0,0,0,1.34,1.86,3.57,3.57,0,0,0,.56.13l3.58.51-.17,1.2Z"/><path class="cls-14" d="M205.35,1184.87l-.86,0v0a2.5,2.5,0,0,1,.71,2.19,1.94,1.94,0,0,1-2.21,1.79c-1.63-.23-2.31-1.8-1.93-4.39l-.14,0a1.4,1.4,0,0,0-1.77,1.31,3.32,3.32,0,0,0,.26,1.81l-.85.17a4.24,4.24,0,0,1-.28-2.29c.28-2,1.76-2.36,3.1-2.17l2.51.36a9.62,9.62,0,0,0,1.63.11Zm-3.45-.3c-.22,1.33-.19,2.87,1.11,3a1.09,1.09,0,0,0,1.33-1,1.69,1.69,0,0,0-.9-1.78,1.32,1.32,0,0,0-.38-.13Z"/><path class="cls-14" d="M196.84,1177.61l.71-5,1,.14-.54,3.83,3.11.43.49-3.53,1,.14-.5,3.53,4.24.6-.17,1.21Z"/><path class="cls-14" d="M206,1166.83c.69.09,1.31.17,1.84.2l-.15,1.08-1.11-.08v0a2.59,2.59,0,0,1,.94,2.4c-.15,1-.91,2.23-3.27,1.9l-3.93-.55.17-1.22,3.72.52c1.28.18,2.19-.09,2.35-1.2a1.78,1.78,0,0,0-.88-1.76,1.69,1.69,0,0,0-.61-.2l-4.12-.58.17-1.22Z"/><path class="cls-14" d="M203.24,1164.37c-.69-.09-1.26-.16-1.82-.2l.15-1.08,1.12.09v0a2.49,2.49,0,0,1-.95-2.4c.13-.93.89-2.29,3.19-2l4,.57-.17,1.22-3.87-.55c-1.08-.15-2,.13-2.2,1.28a1.73,1.73,0,0,0,1,1.81,1.76,1.76,0,0,0,.56.16l4,.57-.17,1.22Z"/><path class="cls-14" d="M200.19,1150.18l8.11,1.15c.6.08,1.28.16,1.74.18l-.15,1.1-1.18-.11v0a2.51,2.51,0,0,1,1,2.47c-.23,1.63-1.78,2.68-3.82,2.39-2.23-.3-3.41-1.88-3.18-3.51A2.24,2.24,0,0,1,204,1152v0l-4-.57Zm5.69,2a2.24,2.24,0,0,0-.52,0,1.82,1.82,0,0,0-1.66,1.57c-.18,1.26.83,2.16,2.31,2.37s2.58-.31,2.76-1.63a1.86,1.86,0,0,0-1.2-2,2.64,2.64,0,0,0-.52-.13Z"/><path class="cls-14" d="M210.84,1145.83l-.86,0v0a2.55,2.55,0,0,1,.71,2.19,1.94,1.94,0,0,1-2.22,1.79c-1.62-.23-2.31-1.8-1.93-4.39l-.14,0a1.4,1.4,0,0,0-1.77,1.31,3.41,3.41,0,0,0,.26,1.81l-.85.17a4.23,4.23,0,0,1-.28-2.29c.29-2.05,1.76-2.36,3.1-2.17l2.51.36a9.69,9.69,0,0,0,1.63.11Zm-3.45-.3c-.22,1.33-.19,2.87,1.11,3.06a1.1,1.1,0,0,0,1.33-1,1.68,1.68,0,0,0-.89-1.78,1.43,1.43,0,0,0-.38-.13Z"/><path class="cls-14" d="M210.19,1139.85a4.48,4.48,0,0,0,.91-2.08c.17-1.24-.38-2-1.32-2.18s-1.44.3-2.11,1.5c-.75,1.45-1.67,2.28-3,2.09s-2.37-1.56-2.12-3.38a4.41,4.41,0,0,1,.75-2l.94.47a3.67,3.67,0,0,0-.69,1.72c-.18,1.27.51,1.86,1.15,2,.87.13,1.38-.38,2.06-1.6.84-1.5,1.71-2.19,3.09-2s2.54,1.45,2.23,3.65a4.93,4.93,0,0,1-.93,2.3Z"/><path class="cls-14" d="M204.19,1130.45l1.93.27.25-1.75.93.13-.25,1.75,3.62.51c.83.12,1.34,0,1.43-.73a2.58,2.58,0,0,0,0-.72l.92.07a3,3,0,0,1,0,1.11,1.7,1.7,0,0,1-.7,1.24,2.5,2.5,0,0,1-1.82.23l-3.66-.52-.14,1-.93-.13.14-1-1.6-.22Z"/><path class="cls-14" d="M213.8,1124.83l-.86,0v0a2.49,2.49,0,0,1,.71,2.19,1.93,1.93,0,0,1-2.22,1.78c-1.62-.22-2.3-1.79-1.92-4.38l-.14,0a1.39,1.39,0,0,0-1.77,1.3,3.34,3.34,0,0,0,.25,1.82l-.84.17a4.24,4.24,0,0,1-.29-2.29c.29-2.06,1.76-2.36,3.11-2.17l2.51.35a8.65,8.65,0,0,0,1.62.12Zm-3.45-.3c-.22,1.32-.2,2.87,1.11,3a1.08,1.08,0,0,0,1.32-1,1.59,1.59,0,0,0-1.27-1.91Z"/><path class="cls-14" d="M205.77,1119.23l1.93.27.25-1.74.93.13-.25,1.74,3.62.51c.83.12,1.34-.05,1.43-.73a2.58,2.58,0,0,0,0-.72l.92.08a3,3,0,0,1,0,1.1,1.74,1.74,0,0,1-.7,1.25,2.52,2.52,0,0,1-1.82.22l-3.66-.51-.14,1-.93-.13.14-1-1.61-.23Z"/><path class="cls-14" d="M206.44,1114.76a.76.76,0,0,1-.21,1.51.74.74,0,0,1-.65-.87A.73.73,0,0,1,206.44,1114.76Zm8.41,2.57-6.71-.94.17-1.22,6.71.94Z"/><path class="cls-14" d="M212.75,1107.53a3.33,3.33,0,0,1,3.1,3.85,3.23,3.23,0,0,1-3.91,2.73,3.31,3.31,0,0,1-3.1-3.83A3.21,3.21,0,0,1,212.75,1107.53Zm-.68,5.34c1.47.2,2.7-.49,2.87-1.68s-.81-2.19-2.32-2.4c-1.14-.17-2.66.2-2.87,1.64S210.79,1112.69,212.07,1112.87Z"/><path class="cls-14" d="M211.48,1105.79c-.69-.1-1.26-.17-1.82-.2l.15-1.09,1.12.09v0a2.49,2.49,0,0,1-1-2.39c.14-.93.89-2.3,3.19-2l4,.56L217,1102l-3.87-.54c-1.08-.15-2,.12-2.2,1.27a1.75,1.75,0,0,0,1,1.81,1.69,1.69,0,0,0,.55.17l4,.56-.17,1.23Z"/><path class="cls-14" d="M208.62,1091.84a9.26,9.26,0,0,0,5.43,2.54,9.43,9.43,0,0,0,5.88-1l-.14,1a9.07,9.07,0,0,1-5.89,1,9.27,9.27,0,0,1-5.41-2.61Z"/><path class="cls-14" d="M215.69,1090.09l2.8,1.39-.18,1.24-8.9-4.49.21-1.45,9.8-1.88-.19,1.29-3.08.59Zm-.52-3.2-2.82.54c-.64.12-1.21.18-1.77.24v0c.53.22,1.08.45,1.62.71l2.58,1.3Z"/><path class="cls-14" d="M211.19,1081a.77.77,0,0,1-.22,1.52.75.75,0,0,1-.65-.87A.74.74,0,0,1,211.19,1081Zm8.41,2.58-6.72-.95.17-1.22,6.72.94Z"/><path class="cls-14" d="M215.43,1079.72c-.79-.11-1.47-.19-2.1-.24l.15-1.07,1.32.15v-.06a2,2,0,0,1-1.21-2.06,1.39,1.39,0,0,1,.09-.34l1.16.16a1.45,1.45,0,0,0-.1.41,1.72,1.72,0,0,0,1.33,1.86,4.19,4.19,0,0,0,.56.13l3.58.5-.17,1.21Z"/><path class="cls-14" d="M216.18,1075.15c-.86-.12-1.56-.19-2.2-.26l.15-1.09,1.16.1v0a2.68,2.68,0,0,1-1-2.57c.22-1.63,1.77-2.65,3.81-2.37,2.41.34,3.4,2,3.18,3.56a2.4,2.4,0,0,1-1.35,1.92v0l3.64.51-.17,1.21Zm1.95-1a3.05,3.05,0,0,0,.51,0,1.91,1.91,0,0,0,1.69-1.63c.18-1.29-.77-2.19-2.31-2.41-1.34-.19-2.59.36-2.78,1.65a2,2,0,0,0,1.26,2.06,1.92,1.92,0,0,0,.48.15Z"/><path class="cls-14" d="M219.25,1061.34a3.31,3.31,0,0,1,3.09,3.84,3.22,3.22,0,0,1-3.9,2.74,3.32,3.32,0,0,1-3.1-3.84A3.21,3.21,0,0,1,219.25,1061.34Zm-.68,5.33c1.47.21,2.7-.48,2.87-1.67s-.81-2.19-2.32-2.41c-1.14-.16-2.66.21-2.87,1.65S217.29,1066.5,218.57,1066.67Z"/><path class="cls-14" d="M218.26,1059.63c-.79-.11-1.47-.19-2.1-.24l.15-1.06,1.32.14v-.06a2,2,0,0,1-1.21-2.06,1.53,1.53,0,0,1,.09-.34l1.15.16a1.89,1.89,0,0,0-.1.41,1.74,1.74,0,0,0,1.34,1.86,3.57,3.57,0,0,0,.56.13l3.58.51-.17,1.2Z"/><path class="cls-14" d="M215.13,1052.73l1.93.27.24-1.75.93.13-.24,1.75,3.62.51c.83.12,1.33-.05,1.43-.73a3,3,0,0,0,0-.72l.92.08a3,3,0,0,1,0,1.1,1.71,1.71,0,0,1-.7,1.25,2.54,2.54,0,0,1-1.81.22l-3.66-.51-.15,1-.93-.13.15-1-1.61-.23Z"/><path class="cls-14" d="M220.93,1042.39l-.52,3.63,3.38.48.57-4,1,.14-.74,5.26-9.35-1.32.71-5,1,.15-.54,3.84,3,.41.51-3.63Z"/><path class="cls-14" d="M219,1039.56l1.58-.76c.41-.2.78-.35,1.19-.52v0c-.37-.27-.68-.54-1-.82l-1.3-1.14.19-1.32,2.92,2.75,3.8-1.87-.2,1.38-1.65.78c-.42.2-.83.37-1.26.55v0c.38.28.7.56,1.07.87l1.37,1.18-.18,1.35-3.1-2.87-3.6,1.82Z"/><path class="cls-14" d="M222,1034c-.86-.12-1.55-.19-2.2-.25l.16-1.09,1.16.1v0a2.67,2.67,0,0,1-1-2.57c.23-1.62,1.78-2.65,3.81-2.36,2.42.34,3.4,2,3.18,3.56a2.37,2.37,0,0,1-1.34,1.92v0l3.65.51-.17,1.21Zm2-1a2.93,2.93,0,0,0,.51,0,1.9,1.9,0,0,0,1.69-1.63c.18-1.29-.77-2.18-2.31-2.4-1.35-.19-2.6.36-2.78,1.65a2,2,0,0,0,1.25,2,2,2,0,0,0,.49.16Z"/><path class="cls-14" d="M223,1026.11c-.8-.11-1.48-.19-2.11-.24l.15-1.06,1.33.14v-.06a2,2,0,0,1-1.2-2.06,1.05,1.05,0,0,1,.09-.34l1.15.16a1.45,1.45,0,0,0-.1.41,1.73,1.73,0,0,0,1.33,1.86,4,4,0,0,0,.57.13l3.57.51-.17,1.2Z"/><path class="cls-14" d="M225.17,1021.25a2.18,2.18,0,0,0,2.66-2,4.51,4.51,0,0,0-.09-1.91l.91-.08a5.56,5.56,0,0,1,.1,2.29,3.16,3.16,0,0,1-3.85,2.83c-2-.29-3.45-1.71-3.18-3.66.31-2.19,2.32-2.51,3.55-2.33a4.48,4.48,0,0,1,.57.12Zm-.37-3.71a1.76,1.76,0,0,0-2.22,1.42,2.05,2.05,0,0,0,1.72,2.15Z"/><path class="cls-14" d="M227.92,1015.41a3.2,3.2,0,0,0,.71-1.54c.12-.89-.26-1.36-.82-1.44s-.95.22-1.4,1.07c-.61,1.15-1.35,1.62-2.16,1.51a2.09,2.09,0,0,1-1.64-2.59,3.54,3.54,0,0,1,.65-1.6l.84.43a2.76,2.76,0,0,0-.58,1.32c-.1.72.26,1.19.76,1.26s.86-.29,1.32-1.12c.6-1.1,1.27-1.62,2.27-1.48,1.18.17,1.88,1.2,1.66,2.8a3.88,3.88,0,0,1-.73,1.82Z"/><path class="cls-14" d="M228.69,1009.92a3.11,3.11,0,0,0,.71-1.54c.13-.89-.26-1.36-.81-1.44s-1,.22-1.41,1.07c-.6,1.15-1.35,1.62-2.15,1.51a2.09,2.09,0,0,1-1.65-2.59,3.54,3.54,0,0,1,.65-1.6l.85.44a2.5,2.5,0,0,0-.58,1.31c-.11.72.25,1.19.75,1.26s.86-.29,1.32-1.12c.61-1.1,1.27-1.62,2.27-1.48,1.18.17,1.88,1.2,1.66,2.8a3.87,3.87,0,0,1-.72,1.82Z"/><path class="cls-14" d="M229.66,1001.42a4.3,4.3,0,0,0,.92-2.08c.17-1.23-.38-2.05-1.33-2.18s-1.44.31-2.1,1.5c-.76,1.45-1.68,2.28-3,2.1s-2.37-1.56-2.11-3.38a4.14,4.14,0,0,1,.75-2l.94.47a3.71,3.71,0,0,0-.7,1.71c-.18,1.28.52,1.87,1.15,2,.88.12,1.39-.39,2.07-1.61.83-1.49,1.71-2.19,3.08-2s2.54,1.44,2.23,3.65a4.93,4.93,0,0,1-.93,2.3Z"/><path class="cls-14" d="M229.08,993.46a2.17,2.17,0,0,0,2.66-2,4.51,4.51,0,0,0-.09-1.91l.9-.08a5.35,5.35,0,0,1,.11,2.29,3.14,3.14,0,0,1-3.85,2.82c-2-.28-3.45-1.7-3.18-3.65.31-2.2,2.32-2.51,3.55-2.33a4.48,4.48,0,0,1,.57.12Zm-.37-3.7a1.76,1.76,0,0,0-2.22,1.42,2.05,2.05,0,0,0,1.72,2.15Z"/><path class="cls-14" d="M228.48,987c-.79-.11-1.47-.19-2.1-.24l.15-1.07,1.32.15v-.06a2,2,0,0,1-1.21-2.06,1.39,1.39,0,0,1,.09-.34l1.15.16a1.89,1.89,0,0,0-.1.41,1.72,1.72,0,0,0,1.34,1.85,2.69,2.69,0,0,0,.56.14l3.58.5-.17,1.21Z"/><path class="cls-14" d="M227.14,981.34l4-.78a16.3,16.3,0,0,1,1.79-.3v0c-.53-.23-1.06-.51-1.64-.81l-3.59-1.84.18-1.28,6.34,3.59L234,981,227,982.65Z"/><path class="cls-14" d="M226.31,973.52a.73.73,0,0,1,.64.89.76.76,0,0,1-1.5-.24A.73.73,0,0,1,226.31,973.52Zm8.41,2.57-6.71-.94.17-1.22,6.72.94Z"/><path class="cls-14" d="M235.6,968a4.49,4.49,0,0,1,.12,2,3.21,3.21,0,0,1-3.89,2.86,3.44,3.44,0,0,1-3.06-4.11,4.15,4.15,0,0,1,.58-1.64l.91.41a2.79,2.79,0,0,0-.52,1.37,2.55,2.55,0,0,0,5,.75,3.5,3.5,0,0,0-.12-1.54Z"/><path class="cls-14" d="M233,965.6a2.17,2.17,0,0,0,2.66-2,4.45,4.45,0,0,0-.09-1.9l.9-.09a5.36,5.36,0,0,1,.11,2.29,3.16,3.16,0,0,1-3.85,2.83c-2-.29-3.45-1.7-3.18-3.66.31-2.19,2.32-2.5,3.55-2.33.25,0,.44.09.57.12Zm-.37-3.7a1.76,1.76,0,0,0-2.22,1.41,2,2,0,0,0,1.72,2.15Z"/><path class="cls-14" d="M238.59,960.75a9.45,9.45,0,0,0-5.42-2.55,9.24,9.24,0,0,0-5.88,1l.13-.95a8.87,8.87,0,0,1,5.9-1,9.13,9.13,0,0,1,5.41,2.61Z"/><path class="cls-14" d="M217.35,1299.56l-2.49-6.88,1,.13,2,5.78h0l3.42-5.08,1,.13-4.15,6Z"/><path class="cls-14" d="M214.71,1286.44l-.37,2.85-1-.13.89-6.94,1,.14-.37,2.86,8.34,1.07-.16,1.23Z"/><path class="cls-14" d="M220.94,1276.89a3.31,3.31,0,0,1,3.13,3.81,3.22,3.22,0,0,1-3.87,2.78,3.31,3.31,0,0,1-3.14-3.79A3.22,3.22,0,0,1,220.94,1276.89Zm-.62,5.35c1.47.19,2.69-.52,2.84-1.71s-.83-2.18-2.34-2.38c-1.14-.15-2.66.24-2.85,1.68S219,1282.07,220.32,1282.24Z"/><path class="cls-14" d="M221.17,1267.4l-.47,3.64,3.38.43.52-4,1,.13-.67,5.26-9.37-1.21.66-5,1,.13-.5,3.85,3,.38.47-3.64Z"/><path class="cls-14" d="M220.91,1265.39c-.7-.09-1.27-.15-1.83-.18l.14-1.08,1.12.07v0a2.47,2.47,0,0,1-1-2.38c.12-.93.86-2.31,3.16-2l4,.52-.16,1.22-3.87-.5c-1.09-.14-2,.15-2.19,1.3a1.74,1.74,0,0,0,1,1.8,1.68,1.68,0,0,0,.56.16l4,.52-.16,1.22Z"/><path class="cls-14" d="M220.83,1251.66c.48.09,1,.18,1.84.29l3.9.5c1.54.2,2.45.63,3,1.36a3.57,3.57,0,0,1,.49,2.55,4.33,4.33,0,0,1-.84,2.16l-.9-.42a3.84,3.84,0,0,0,.79-1.91c.16-1.25-.38-2.25-2.07-2.47l-.75-.1v0a2.41,2.41,0,0,1,.85,2.29,3,3,0,0,1-3.64,2.44c-2.28-.3-3.38-2-3.18-3.49a2.25,2.25,0,0,1,1.43-2v0l-1-.18Zm2.49,1.6a1.81,1.81,0,0,0-.57,0,1.78,1.78,0,0,0-1.51,1.54c-.15,1.17.73,2.13,2.29,2.33,1.32.17,2.5-.35,2.67-1.67a1.8,1.8,0,0,0-1-1.86,1.86,1.86,0,0,0-.64-.18Z"/><path class="cls-14" d="M224.75,1249.47a2.18,2.18,0,0,0,2.64-2,4.56,4.56,0,0,0-.11-1.9l.9-.1a5.44,5.44,0,0,1,.13,2.29,3.15,3.15,0,0,1-3.82,2.87c-2-.26-3.47-1.66-3.22-3.62.29-2.2,2.29-2.53,3.53-2.37a2.88,2.88,0,0,1,.56.12Zm-.41-3.7a1.75,1.75,0,0,0-2.2,1.44,2,2,0,0,0,1.74,2.13Z"/><path class="cls-14" d="M223.8,1243c-.7-.09-1.27-.15-1.83-.18l.14-1.09,1.12.08v0a2.5,2.5,0,0,1-1-2.39c.12-.93.86-2.3,3.17-2l4,.52-.16,1.22-3.87-.5c-1.09-.14-2,.14-2.19,1.3a1.76,1.76,0,0,0,1,1.8,1.69,1.69,0,0,0,.56.15l4,.53-.16,1.22Z"/><path class="cls-14" d="M219.83,1234.62l.16-1.22,4.2.54v0a2.28,2.28,0,0,1-.75-1,2.62,2.62,0,0,1-.19-1.29c.12-.9.86-2.28,3.18-2l4,.52-.15,1.22-3.87-.5c-1.08-.14-2,.15-2.2,1.3a1.79,1.79,0,0,0,1,1.8,1.43,1.43,0,0,0,.57.16l4,.52-.15,1.22Z"/><path class="cls-14" d="M227.64,1227.1a2.17,2.17,0,0,0,2.63-2,4.39,4.39,0,0,0-.11-1.9l.9-.1a5.44,5.44,0,0,1,.13,2.29,3.14,3.14,0,0,1-3.81,2.87c-2-.26-3.48-1.66-3.22-3.62.28-2.19,2.29-2.53,3.52-2.37a4.48,4.48,0,0,1,.57.12Zm-.41-3.7a1.77,1.77,0,0,0-2.21,1.44,2,2,0,0,0,1.74,2.13Z"/><path class="cls-14" d="M223.15,1218.76a.76.76,0,0,1-.2,1.51.74.74,0,0,1-.66-.86A.73.73,0,0,1,223.15,1218.76Zm8.44,2.47-6.73-.87.16-1.22,6.72.87Z"/><path class="cls-14" d="M227.38,1217.38c-.79-.1-1.48-.17-2.11-.21l.14-1.07,1.33.13v-.06a2,2,0,0,1-1.23-2.05,1.53,1.53,0,0,1,.09-.34l1.15.15a1.93,1.93,0,0,0-.09.41,1.72,1.72,0,0,0,1.35,1.84,4,4,0,0,0,.57.13l3.58.46L232,1218Z"/><path class="cls-14" d="M229.94,1207.05a3.32,3.32,0,0,1,3.14,3.81,3.23,3.23,0,0,1-3.88,2.78,3.31,3.31,0,0,1-3.14-3.8A3.22,3.22,0,0,1,229.94,1207.05Zm-.62,5.35c1.47.19,2.7-.52,2.85-1.71s-.84-2.19-2.35-2.38c-1.14-.15-2.66.24-2.84,1.68S228,1212.23,229.32,1212.4Z"/><path class="cls-14" d="M234.44,1195.79a8.7,8.7,0,0,1,.15,2.94,4.44,4.44,0,0,1-5.35,4.2,4.73,4.73,0,0,1-4.18-5.69,5.94,5.94,0,0,1,.73-2.28l1,.42a4.8,4.8,0,0,0-.67,2,3.53,3.53,0,0,0,3.28,4.25,3.46,3.46,0,0,0,4.25-3.12,3.83,3.83,0,0,0,0-1.64l-2.79-.36-.24,1.9-1-.13.4-3.08Z"/><path class="cls-14" d="M232.47,1187.45a3.32,3.32,0,0,1,3.14,3.81,3.22,3.22,0,0,1-3.88,2.77,3.31,3.31,0,0,1-3.14-3.79A3.21,3.21,0,0,1,232.47,1187.45Zm-.62,5.34c1.47.19,2.69-.51,2.85-1.71s-.84-2.18-2.35-2.38c-1.14-.14-2.66.24-2.84,1.68S230.57,1192.63,231.85,1192.79Z"/><path class="cls-14" d="M235,1180.49c.69.09,1.3.15,1.84.18l-.14,1.08-1.11-.07v0a2.56,2.56,0,0,1,1,2.38c-.14,1.06-.88,2.25-3.24,1.94l-3.94-.5.16-1.23,3.73.48c1.27.17,2.18-.11,2.33-1.22a1.8,1.8,0,0,0-.91-1.76,1.9,1.9,0,0,0-.61-.19l-4.12-.53.16-1.22Z"/><path class="cls-14" d="M227.21,1177.43l.15-1.22,9.87,1.27-.16,1.22Z"/><path class="cls-14" d="M238,1171.7h-.86v0a2.51,2.51,0,0,1,.73,2.19,1.92,1.92,0,0,1-2.19,1.8c-1.63-.21-2.33-1.77-2-4.36l-.14,0a1.4,1.4,0,0,0-1.76,1.33,3.32,3.32,0,0,0,.28,1.81l-.84.18a4.22,4.22,0,0,1-.31-2.29c.26-2.06,1.73-2.38,3.08-2.2l2.51.32a9.54,9.54,0,0,0,1.63.1Zm-3.45-.26c-.2,1.33-.16,2.87,1.14,3a1.09,1.09,0,0,0,1.32-1,1.68,1.68,0,0,0-.92-1.77,1.05,1.05,0,0,0-.38-.12Z"/><path class="cls-14" d="M233.73,1168.13c-.79-.1-1.48-.17-2.11-.21l.14-1.07,1.33.13v-.06a2,2,0,0,1-1.23-2.05,1.53,1.53,0,0,1,.09-.34l1.15.15a1.93,1.93,0,0,0-.09.41,1.72,1.72,0,0,0,1.35,1.84,4,4,0,0,0,.57.13l3.58.46-.16,1.21Z"/><path class="cls-14" d="M230.52,1161.27l1.93.25.23-1.75.93.12-.23,1.75,3.63.47c.83.1,1.33-.07,1.42-.75a2.92,2.92,0,0,0,0-.72l.92.06a2.93,2.93,0,0,1,0,1.1,1.69,1.69,0,0,1-.68,1.26,2.54,2.54,0,0,1-1.82.25l-3.66-.48-.14,1.05-.93-.13.14-1-1.62-.21Z"/><path class="cls-14" d="M238.47,1156.25a4.36,4.36,0,0,0,.89-2.08c.16-1.24-.4-2.05-1.35-2.17s-1.44.32-2.09,1.52c-.74,1.46-1.65,2.31-3,2.14s-2.39-1.54-2.15-3.36a4.22,4.22,0,0,1,.72-2l.95.46a3.68,3.68,0,0,0-.68,1.72c-.16,1.28.54,1.86,1.18,1.94.88.12,1.38-.4,2.05-1.62.81-1.51,1.68-2.22,3-2s2.56,1.42,2.28,3.63a4.91,4.91,0,0,1-.91,2.31Z"/><path class="cls-14" d="M232.37,1146.93l1.93.24.22-1.75.94.12-.23,1.75,3.63.47c.83.11,1.33-.07,1.42-.75a2.92,2.92,0,0,0,0-.72l.92.07a2.93,2.93,0,0,1,0,1.1,1.72,1.72,0,0,1-.69,1.26,2.52,2.52,0,0,1-1.81.24l-3.66-.47-.14,1-.93-.12.14-1-1.62-.21Z"/><path class="cls-14" d="M241.91,1141.2l-.86,0v0a2.55,2.55,0,0,1,.74,2.19,1.94,1.94,0,0,1-2.2,1.81c-1.63-.21-2.33-1.77-2-4.37l-.14,0a1.4,1.4,0,0,0-1.75,1.33A3.45,3.45,0,0,0,236,1144l-.84.17a4.18,4.18,0,0,1-.31-2.28c.26-2.06,1.73-2.38,3.08-2.21l2.51.33a9.51,9.51,0,0,0,1.63.09Zm-3.46-.27c-.2,1.33-.16,2.88,1.15,3a1.09,1.09,0,0,0,1.31-1,1.68,1.68,0,0,0-.91-1.77,1.86,1.86,0,0,0-.38-.12Z"/><path class="cls-14" d="M233.82,1135.69l1.93.25.22-1.75.93.12-.22,1.75,3.62.47c.84.11,1.34-.07,1.43-.75a2.92,2.92,0,0,0,0-.72l.92.06a3,3,0,0,1,0,1.11,1.73,1.73,0,0,1-.69,1.25,2.52,2.52,0,0,1-1.81.25l-3.67-.47-.13,1-.93-.12.13-1-1.61-.21Z"/><path class="cls-14" d="M234.44,1131.21a.77.77,0,0,1-.2,1.52.75.75,0,0,1-.66-.86A.74.74,0,0,1,234.44,1131.21Zm8.43,2.48-6.72-.87.16-1.22,6.72.86Z"/><path class="cls-14" d="M240.66,1123.91a3.31,3.31,0,0,1,3.14,3.81,3.23,3.23,0,0,1-3.88,2.78,3.32,3.32,0,0,1-3.14-3.8A3.22,3.22,0,0,1,240.66,1123.91Zm-.62,5.34c1.47.19,2.69-.51,2.85-1.71s-.84-2.18-2.35-2.37c-1.14-.15-2.66.23-2.84,1.68S238.76,1129.09,240,1129.25Z"/><path class="cls-14" d="M239.37,1122.18c-.69-.09-1.27-.15-1.83-.18l.14-1.08,1.12.07v0a2.48,2.48,0,0,1-1-2.38c.12-.93.86-2.3,3.17-2l4,.52-.15,1.22-3.88-.5c-1.08-.14-2,.15-2.19,1.3a1.82,1.82,0,0,0,1.6,2l4,.52-.16,1.22Z"/><path class="cls-14" d="M236.35,1108.27a9.2,9.2,0,0,0,5.46,2.48,9.4,9.4,0,0,0,5.86-1l-.12,1a9.11,9.11,0,0,1-5.88,1.09,9.28,9.28,0,0,1-5.44-2.55Z"/><path class="cls-14" d="M236.8,1107l.15-1.21,8.35,1.08.52-4,1,.13-.67,5.21Z"/><path class="cls-14" d="M238.56,1099.2a.72.72,0,0,1,.65.87.73.73,0,0,1-.84.64.76.76,0,0,1-.67-.86A.73.73,0,0,1,238.56,1099.2Zm8.44,2.47-6.72-.87.16-1.22,6.72.86Z"/><path class="cls-14" d="M242.52,1097.79c-.7-.09-1.27-.15-1.83-.18l.14-1.09,1.12.08v0a2.5,2.5,0,0,1-1-2.39c.12-.93.86-2.3,3.16-2l4,.51-.16,1.23-3.87-.5c-1.09-.14-2,.14-2.19,1.3a1.74,1.74,0,0,0,1,1.8,1.69,1.69,0,0,0,.56.15l4,.53-.16,1.22Z"/><path class="cls-14" d="M245.36,1089.63a2.17,2.17,0,0,0,2.63-2,4.48,4.48,0,0,0-.1-1.91l.9-.09a5.59,5.59,0,0,1,.13,2.29,3.15,3.15,0,0,1-3.82,2.87c-2-.26-3.47-1.66-3.22-3.62.28-2.2,2.29-2.53,3.53-2.37a4.22,4.22,0,0,1,.56.11Zm-.41-3.7a1.75,1.75,0,0,0-2.21,1.44,2.06,2.06,0,0,0,1.75,2.13Z"/><path class="cls-14" d="M242.09,1077.53v0l.64,1.68-1,.11-.8-2.11.14-1,9,1.17-.16,1.18Z"/><path class="cls-14" d="M249.19,1073.61a4.1,4.1,0,0,0,.83-1.93c.2-1.57-.73-2.19-1.49-2.27-1.26-.15-1.95.92-2.1,2.1l-.09.68-.92-.12.09-.68c.11-.89-.2-2.07-1.27-2.21-.72-.09-1.42.28-1.56,1.41a3.26,3.26,0,0,0,.36,1.88l-.93.21a4.26,4.26,0,0,1-.39-2.45c.23-1.78,1.39-2.45,2.49-2.31a2.26,2.26,0,0,1,1.91,1.94h0a2.36,2.36,0,0,1,2.58-1.72c1.44.19,2.56,1.47,2.28,3.64a4.7,4.7,0,0,1-.91,2.27Z"/><path class="cls-14" d="M242.8,1060.46l.15-1.21,6.27.81c2.48.32,3.09,1.64,2.88,3.25a3.66,3.66,0,0,1-.39,1.26l-1-.31a2.75,2.75,0,0,0,.31-1c.14-1.08-.26-1.78-2.1-2Z"/><path class="cls-14" d="M253.05,1054.76h-.86v0a2.55,2.55,0,0,1,.74,2.19,1.93,1.93,0,0,1-2.2,1.8c-1.62-.21-2.32-1.76-2-4.36l-.14,0a1.4,1.4,0,0,0-1.75,1.33,3.32,3.32,0,0,0,.28,1.81l-.85.18a4.21,4.21,0,0,1-.31-2.29c.27-2,1.74-2.37,3.08-2.2l2.52.32a8.52,8.52,0,0,0,1.62.1Zm-3.46-.26c-.2,1.33-.15,2.88,1.15,3a1.09,1.09,0,0,0,1.32-1,1.69,1.69,0,0,0-.92-1.77,1.29,1.29,0,0,0-.38-.12Z"/><path class="cls-14" d="M244.32,1044.71l8.12,1c.6.08,1.28.15,1.75.17l-.14,1.1-1.18-.1v0a2.51,2.51,0,0,1,1,2.46c-.21,1.63-1.74,2.7-3.79,2.44-2.23-.28-3.43-1.84-3.22-3.48a2.28,2.28,0,0,1,1.29-1.9v0l-4-.51Zm5.72,2a2.27,2.27,0,0,0-.52,0,1.82,1.82,0,0,0-1.65,1.59c-.16,1.26.85,2.15,2.34,2.35s2.57-.35,2.74-1.67a1.85,1.85,0,0,0-1.23-2,2.47,2.47,0,0,0-.52-.13Z"/><path class="cls-14" d="M251.39,1042.88a2.18,2.18,0,0,0,2.63-2,4.46,4.46,0,0,0-.11-1.91l.91-.09a5.48,5.48,0,0,1,.12,2.29,3.14,3.14,0,0,1-3.81,2.87c-2-.26-3.47-1.66-3.22-3.62.28-2.2,2.29-2.53,3.53-2.37a4.59,4.59,0,0,1,.56.11Zm-.41-3.7a1.75,1.75,0,0,0-2.21,1.44,2,2,0,0,0,1.75,2.13Z"/><path class="cls-14" d="M256.93,1038a9.44,9.44,0,0,0-5.46-2.48,9.33,9.33,0,0,0-5.87,1l.12-1a9,9,0,0,1,5.89-1.09,9.11,9.11,0,0,1,5.44,2.55Z"/><rect class="cls-5" x="986.81" y="386.39" width="111.93" height="40"/><rect class="cls-12" x="982.74" y="381.39" width="111.93" height="40"/><path class="cls-13" d="M999,397.45h-3.56v-1.29h8.67v1.29h-3.58v10.43H999Z"/><path class="cls-13" d="M1005.39,396.3a17.71,17.71,0,0,1,2.91-.23,4.78,4.78,0,0,1,3.28,1,3.16,3.16,0,0,1,1,2.45,3.45,3.45,0,0,1-.91,2.5,4.86,4.86,0,0,1-3.58,1.29,4.94,4.94,0,0,1-1.21-.11v4.7h-1.52Zm1.52,5.65a4.89,4.89,0,0,0,1.25.12c1.82,0,2.93-.89,2.93-2.5s-1.09-2.3-2.76-2.3a6.13,6.13,0,0,0-1.42.13Z"/><path class="cls-13" d="M1014.43,406a5.34,5.34,0,0,0,2.71.77c1.55,0,2.45-.82,2.45-2s-.62-1.72-2.2-2.33c-1.92-.68-3.1-1.67-3.1-3.32,0-1.82,1.51-3.18,3.79-3.18a5.39,5.39,0,0,1,2.59.57l-.42,1.24a4.61,4.61,0,0,0-2.22-.56c-1.6,0-2.21,1-2.21,1.76,0,1.09.72,1.63,2.33,2.26,2,.76,3,1.72,3,3.44s-1.34,3.37-4.1,3.37a6,6,0,0,1-3-.75Z"/><path class="cls-13" d="M1022.67,407.88v-.94l1.2-1.17c2.88-2.74,4.19-4.2,4.21-5.91a2,2,0,0,0-2.25-2.2,3.91,3.91,0,0,0-2.4.95l-.48-1.08a4.94,4.94,0,0,1,3.2-1.14,3.17,3.17,0,0,1,3.45,3.28c0,2.09-1.51,3.77-3.89,6.07l-.9.83v0h5.07v1.27Z"/><path class="cls-13" d="M1035.6,406a5.34,5.34,0,0,0,2.71.77c1.55,0,2.45-.82,2.45-2s-.62-1.72-2.21-2.33c-1.91-.68-3.09-1.67-3.09-3.32,0-1.82,1.51-3.18,3.79-3.18a5.39,5.39,0,0,1,2.59.57l-.42,1.24a4.61,4.61,0,0,0-2.22-.56c-1.6,0-2.21,1-2.21,1.76,0,1.09.71,1.63,2.33,2.26,2,.76,3,1.72,3,3.44s-1.34,3.37-4.1,3.37a6,6,0,0,1-3-.75Z"/><path class="cls-13" d="M1046.12,397.05v2.41h2.18v1.17h-2.18v4.53c0,1,.29,1.64,1.14,1.64a3.07,3.07,0,0,0,.89-.11l.07,1.15a3.83,3.83,0,0,1-1.36.21,2.15,2.15,0,0,1-1.65-.64,3.15,3.15,0,0,1-.59-2.19v-4.59h-1.3v-1.17h1.3v-2Z"/><path class="cls-13" d="M1054.68,407.88l-.12-1.07h0a3.11,3.11,0,0,1-2.57,1.26,2.39,2.39,0,0,1-2.57-2.42c0-2,1.8-3.14,5.05-3.13v-.17a1.73,1.73,0,0,0-1.91-2,4.22,4.22,0,0,0-2.19.63l-.35-1a5.28,5.28,0,0,1,2.77-.75c2.57,0,3.19,1.76,3.19,3.44v3.15a12.4,12.4,0,0,0,.14,2Zm-.22-4.3c-1.67,0-3.57.26-3.57,1.9a1.36,1.36,0,0,0,1.45,1.46,2.09,2.09,0,0,0,2-1.41,1.69,1.69,0,0,0,.09-.49Z"/><path class="cls-13" d="M1060.17,397.05v2.41h2.2v1.17h-2.2v4.53c0,1,.3,1.64,1.15,1.64a3.07,3.07,0,0,0,.89-.11l.07,1.15a3.83,3.83,0,0,1-1.36.21,2.15,2.15,0,0,1-1.65-.64,3.15,3.15,0,0,1-.59-2.19v-4.59h-1.3v-1.17h1.3v-2Z"/><path class="cls-13" d="M1065.79,397.1a.91.91,0,0,1-1,.94.92.92,0,0,1-.93-.94.94.94,0,0,1,1-1A.91.91,0,0,1,1065.79,397.1Zm-1.71,10.78v-8.42h1.54v8.42Z"/><path class="cls-13" d="M1075.76,403.6a4.11,4.11,0,0,1-4.18,4.47,4,4,0,0,1-4-4.33,4.11,4.11,0,0,1,4.17-4.47A4,4,0,0,1,1075.76,403.6Zm-6.67.09c0,1.84,1.06,3.23,2.56,3.23s2.55-1.37,2.55-3.27c0-1.42-.71-3.23-2.52-3.23S1069.09,402.09,1069.09,403.69Z"/><path class="cls-13" d="M1077.69,401.74c0-.87,0-1.58-.07-2.28H1079l.09,1.39h0a3.09,3.09,0,0,1,2.78-1.58c1.17,0,3,.7,3,3.58v5h-1.52V403c0-1.36-.51-2.49-1.95-2.49a2.17,2.17,0,0,0-2.05,1.56,2.27,2.27,0,0,0-.11.72v5.06h-1.53Z"/><rect class="cls-5" x="1317.05" y="171.07" width="111.93" height="40"/><rect class="cls-12" x="1312.98" y="166.07" width="111.93" height="40"/><path class="cls-13" d="M1328.21,181.13h-3.56v-1.29h8.68v1.29h-3.59v10.43h-1.53Z"/><path class="cls-13" d="M1334.63,180a17.75,17.75,0,0,1,2.9-.22,4.8,4.8,0,0,1,3.29,1,3.15,3.15,0,0,1,1,2.45,3.45,3.45,0,0,1-.9,2.5,4.87,4.87,0,0,1-3.58,1.29,5.07,5.07,0,0,1-1.22-.11v4.7h-1.51Zm1.51,5.65a4.94,4.94,0,0,0,1.25.12c1.83,0,2.94-.89,2.94-2.5s-1.1-2.3-2.76-2.3a6.24,6.24,0,0,0-1.43.13Z"/><path class="cls-13" d="M1343.67,189.71a5.28,5.28,0,0,0,2.71.77c1.54,0,2.45-.82,2.45-2s-.63-1.72-2.21-2.33c-1.91-.68-3.09-1.67-3.09-3.32,0-1.82,1.51-3.18,3.79-3.18a5.42,5.42,0,0,1,2.59.57l-.42,1.24a4.66,4.66,0,0,0-2.23-.56c-1.6,0-2.2,1-2.2,1.76,0,1.09.71,1.63,2.32,2.26,2,.76,3,1.72,3,3.44s-1.34,3.37-4.11,3.37a6,6,0,0,1-3-.75Z"/><path class="cls-13" d="M1352.27,189.8a5.07,5.07,0,0,0,2.5.71c2,0,2.57-1.25,2.56-2.19,0-1.58-1.45-2.26-2.92-2.26h-.86v-1.14h.86c1.11,0,2.52-.58,2.52-1.91,0-.91-.58-1.71-2-1.71a4.1,4.1,0,0,0-2.26.75l-.4-1.11a5.3,5.3,0,0,1,3-.87c2.23,0,3.23,1.32,3.23,2.69a2.79,2.79,0,0,1-2.08,2.66v0a2.94,2.94,0,0,1,2.52,2.9c0,1.81-1.41,3.39-4.12,3.39a5.71,5.71,0,0,1-2.94-.77Z"/><path class="cls-13" d="M1364.83,189.71a5.34,5.34,0,0,0,2.71.77c1.55,0,2.46-.82,2.46-2s-.63-1.72-2.21-2.33c-1.91-.68-3.09-1.67-3.09-3.32,0-1.82,1.51-3.18,3.78-3.18a5.39,5.39,0,0,1,2.59.57l-.41,1.24a4.69,4.69,0,0,0-2.23-.56c-1.6,0-2.21,1-2.21,1.76,0,1.09.72,1.63,2.33,2.26,2,.76,3,1.72,3,3.44s-1.34,3.37-4.1,3.37a6,6,0,0,1-3-.75Z"/><path class="cls-13" d="M1375.35,180.73v2.41h2.19v1.17h-2.19v4.54c0,1,.29,1.63,1.15,1.63a3,3,0,0,0,.88-.11l.07,1.15a3.72,3.72,0,0,1-1.35.21,2.12,2.12,0,0,1-1.65-.64,3.09,3.09,0,0,1-.6-2.19v-4.59h-1.3v-1.17h1.3v-2Z"/><path class="cls-13" d="M1383.92,191.56l-.13-1.06h0a3.13,3.13,0,0,1-2.57,1.25,2.4,2.4,0,0,1-2.57-2.42c0-2,1.81-3.14,5.06-3.13V186a1.74,1.74,0,0,0-1.92-1.95,4.25,4.25,0,0,0-2.19.63l-.34-1A5.21,5.21,0,0,1,1382,183c2.57,0,3.2,1.76,3.2,3.44v3.15a11.37,11.37,0,0,0,.14,2Zm-.23-4.3c-1.67,0-3.56.26-3.56,1.9a1.35,1.35,0,0,0,1.44,1.46,2.09,2.09,0,0,0,2-1.41,1.41,1.41,0,0,0,.09-.49Z"/><path class="cls-13" d="M1389.41,180.73v2.41h2.19v1.17h-2.19v4.54c0,1,.3,1.63,1.15,1.63a3,3,0,0,0,.88-.11l.07,1.15a3.72,3.72,0,0,1-1.35.21,2.12,2.12,0,0,1-1.65-.64,3.09,3.09,0,0,1-.6-2.19v-4.59h-1.3v-1.17h1.3v-2Z"/><path class="cls-13" d="M1395,180.78a.9.9,0,0,1-1,.94.91.91,0,0,1-.92-.94.93.93,0,0,1,.95-1A.91.91,0,0,1,1395,180.78Zm-1.7,10.78v-8.42h1.53v8.42Z"/><path class="cls-13" d="M1405,187.28a4.12,4.12,0,0,1-4.19,4.47,4,4,0,0,1-4-4.33A4.11,4.11,0,0,1,1401,183,4,4,0,0,1,1405,187.28Zm-6.68.09c0,1.84,1.06,3.23,2.56,3.23s2.55-1.37,2.55-3.27c0-1.42-.71-3.23-2.52-3.23S1398.32,185.77,1398.32,187.37Z"/><path class="cls-13" d="M1406.93,185.42c0-.87,0-1.58-.07-2.28h1.35l.09,1.39h0a3.08,3.08,0,0,1,2.78-1.58c1.16,0,3,.7,3,3.58v5h-1.53v-4.85c0-1.36-.51-2.49-2-2.49a2.23,2.23,0,0,0-2.15,2.28v5.06h-1.53Z"/></g><g id="Marcas"><rect class="cls-15" x="1310" y="1175" width="631.5" height="93.5"/><path class="cls-13" d="M1329.36,1209l-1.68,5.07h-2.15l5.48-16.12h2.51L1339,1214h-2.22l-1.72-5.07Zm5.28-1.63-1.57-4.64c-.36-1-.6-2-.84-2.94h0c-.24,1-.5,1.94-.81,2.92l-1.58,4.66Z"/><path class="cls-13" d="M1342.21,1208.62a3.71,3.71,0,0,0,4,4,7.65,7.65,0,0,0,3.2-.6l.36,1.5a9.28,9.28,0,0,1-3.85.72c-3.56,0-5.69-2.34-5.69-5.84s2-6.24,5.43-6.24c3.78,0,4.78,3.33,4.78,5.45a7,7,0,0,1-.07,1Zm6.17-1.51c0-1.34-.55-3.42-2.92-3.42-2.13,0-3.06,2-3.23,3.42Z"/><path class="cls-13" d="M1353,1206.06c0-1.37,0-2.54-.1-3.62h1.85l.07,2.28h.09a3.48,3.48,0,0,1,3.21-2.54,2.2,2.2,0,0,1,.6.07v2a3.08,3.08,0,0,0-.72-.07,3,3,0,0,0-2.82,2.7,5.69,5.69,0,0,0-.1,1V1214H1353Z"/><path class="cls-13" d="M1371.08,1208.14c0,4.28-3,6.15-5.76,6.15-3.14,0-5.55-2.3-5.55-6,0-3.88,2.53-6.15,5.74-6.15S1371.08,1204.6,1371.08,1208.14Zm-9.18.12c0,2.53,1.46,4.45,3.52,4.45s3.51-1.89,3.51-4.5c0-2-1-4.45-3.47-4.45S1361.9,1206.06,1361.9,1208.26Z"/><path class="cls-13" d="M1373.74,1205.58c0-1.2,0-2.18-.09-3.14h1.84l.09,1.87h.08a4,4,0,0,1,3.63-2.13,3.43,3.43,0,0,1,3.28,2.32h0a4.85,4.85,0,0,1,1.29-1.51,4,4,0,0,1,2.56-.81c1.53,0,3.8,1,3.8,5V1214h-2v-6.55c0-2.23-.82-3.57-2.52-3.57a2.73,2.73,0,0,0-2.48,1.92,3.3,3.3,0,0,0-.17,1V1214H1381v-6.94c0-1.84-.81-3.18-2.42-3.18a3.16,3.16,0,0,0-2.77,3.14v7h-2.06Z"/><path class="cls-13" d="M1404.18,1208.14c0,4.28-3,6.15-5.77,6.15-3.13,0-5.55-2.3-5.55-6,0-3.88,2.54-6.15,5.74-6.15S1404.18,1204.6,1404.18,1208.14Zm-9.19.12c0,2.53,1.46,4.45,3.52,4.45s3.51-1.89,3.51-4.5c0-2-1-4.45-3.47-4.45S1395,1206.06,1395,1208.26Z"/><path class="cls-13" d="M1407.48,1202.44l2.27,6.51a27.77,27.77,0,0,1,.93,3h.08c.26-1,.59-1.92,1-3l2.25-6.51h2.2l-4.55,11.58h-2l-4.4-11.58Z"/><path class="cls-13" d="M1419.11,1208.62a3.71,3.71,0,0,0,4,4,7.7,7.7,0,0,0,3.21-.6l.35,1.5a9.28,9.28,0,0,1-3.85.72c-3.56,0-5.69-2.34-5.69-5.84s2.06-6.24,5.43-6.24c3.78,0,4.78,3.33,4.78,5.45a7,7,0,0,1-.07,1Zm6.17-1.51c0-1.34-.55-3.42-2.92-3.42-2.13,0-3.06,2-3.23,3.42Z"/><path class="cls-13" d="M1429.92,1197H1432v17h-2.11Z"/><path class="cls-13" d="M1440.64,1197h2.11v17h-2.11Z"/><path class="cls-13" d="M1448.63,1199.19a1.24,1.24,0,0,1-1.34,1.29,1.25,1.25,0,0,1-1.27-1.29,1.29,1.29,0,0,1,1.32-1.32A1.25,1.25,0,0,1,1448.63,1199.19Zm-2.34,14.83v-11.58h2.1V1214Z"/><path class="cls-13" d="M1451.89,1205.58c0-1.2,0-2.18-.1-3.14h1.87l.12,1.92h0a4.28,4.28,0,0,1,3.83-2.18c1.6,0,4.09,1,4.09,4.93V1214h-2.1v-6.67c0-1.87-.7-3.42-2.68-3.42a3,3,0,0,0-2.83,2.15,3.17,3.17,0,0,0-.14,1v7h-2.1Z"/><path class="cls-13" d="M1466.34,1208.62a3.71,3.71,0,0,0,4,4,7.7,7.7,0,0,0,3.21-.6l.35,1.5a9.28,9.28,0,0,1-3.85.72c-3.56,0-5.69-2.34-5.69-5.84s2.06-6.24,5.43-6.24c3.78,0,4.78,3.33,4.78,5.45a7,7,0,0,1-.07,1Zm6.17-1.51c0-1.34-.55-3.42-2.92-3.42-2.13,0-3.06,2-3.23,3.42Z"/><path class="cls-13" d="M1486.79,1197.42a15.8,15.8,0,0,0-3,9.79,16.18,16.18,0,0,0,3,9.71h-1.65a15.52,15.52,0,0,1-3.13-9.71,15.81,15.81,0,0,1,3.13-9.79Z"/><path class="cls-13" d="M1498.71,1210.87c0,1.19,0,2.24.1,3.15h-1.87l-.12-1.89h0a4.35,4.35,0,0,1-3.83,2.16c-1.82,0-4-1-4-5.08v-6.77h2.1v6.42c0,2.2.67,3.68,2.59,3.68a3,3,0,0,0,2.77-1.91,3.14,3.14,0,0,0,.19-1.08v-7.11h2.11Z"/><path class="cls-13" d="M1502.2,1205.58c0-1.2,0-2.18-.09-3.14H1504l.12,1.92h.05a4.28,4.28,0,0,1,3.83-2.18c1.6,0,4.09,1,4.09,4.93V1214H1510v-6.67c0-1.87-.7-3.42-2.68-3.42a3,3,0,0,0-2.83,2.15,3.17,3.17,0,0,0-.14,1v7h-2.11Z"/><path class="cls-13" d="M1525.48,1197v14c0,1,0,2.2.1,3h-1.89l-.1-2h0a4.28,4.28,0,0,1-4,2.28c-2.8,0-4.95-2.37-4.95-5.89,0-3.85,2.36-6.22,5.19-6.22a3.88,3.88,0,0,1,3.49,1.77h.05V1197Zm-2.1,10.12a3.86,3.86,0,0,0-.1-.89,3.1,3.1,0,0,0-3-2.44c-2.17,0-3.47,1.92-3.47,4.47,0,2.35,1.15,4.29,3.43,4.29a3.16,3.16,0,0,0,3.08-2.51,3.79,3.79,0,0,0,.1-.91Z"/><path class="cls-13" d="M1530.15,1208.62a3.72,3.72,0,0,0,4,4,7.7,7.7,0,0,0,3.21-.6l.36,1.5a9.33,9.33,0,0,1-3.86.72c-3.56,0-5.69-2.34-5.69-5.84s2.06-6.24,5.43-6.24c3.78,0,4.79,3.33,4.79,5.45a6.73,6.73,0,0,1-.08,1Zm6.17-1.51c0-1.34-.55-3.42-2.92-3.42-2.13,0-3.06,2-3.23,3.42Z"/><path class="cls-13" d="M1541,1206.06c0-1.37,0-2.54-.09-3.62h1.84l.07,2.28h.1a3.47,3.47,0,0,1,3.2-2.54,2.2,2.2,0,0,1,.6.07v2a3,3,0,0,0-.72-.07,3,3,0,0,0-2.82,2.7,5.74,5.74,0,0,0-.09,1V1214H1541Z"/><path class="cls-13" d="M1562.12,1213.59a7.79,7.79,0,0,1-3.33.67c-3.49,0-5.77-2.37-5.77-5.91a5.89,5.89,0,0,1,6.22-6.15,7.12,7.12,0,0,1,2.92.6l-.48,1.63a4.84,4.84,0,0,0-2.44-.55c-2.65,0-4.09,2-4.09,4.38,0,2.68,1.73,4.33,4,4.33a5.9,5.9,0,0,0,2.59-.58Z"/><path class="cls-13" d="M1574.92,1208.14c0,4.28-3,6.15-5.77,6.15-3.13,0-5.55-2.3-5.55-6,0-3.88,2.54-6.15,5.74-6.15S1574.92,1204.6,1574.92,1208.14Zm-9.19.12c0,2.53,1.46,4.45,3.52,4.45s3.51-1.89,3.51-4.5c0-2-1-4.45-3.47-4.45S1565.73,1206.06,1565.73,1208.26Z"/><path class="cls-13" d="M1577.57,1205.58c0-1.2,0-2.18-.09-3.14h1.86l.12,1.92h0a4.25,4.25,0,0,1,3.83-2.18c1.6,0,4.09,1,4.09,4.93V1214h-2.11v-6.67c0-1.87-.69-3.42-2.68-3.42a3,3,0,0,0-2.82,2.15,3.17,3.17,0,0,0-.14,1v7h-2.11Z"/><path class="cls-13" d="M1590.56,1211.87a5.54,5.54,0,0,0,2.78.84c1.53,0,2.25-.77,2.25-1.73s-.6-1.55-2.15-2.12c-2.09-.75-3.07-1.9-3.07-3.28,0-1.87,1.51-3.4,4-3.4a5.84,5.84,0,0,1,2.85.72l-.53,1.53a4.49,4.49,0,0,0-2.37-.67c-1.24,0-1.94.72-1.94,1.58s.7,1.39,2.2,2c2,.77,3,1.77,3,3.49,0,2-1.58,3.47-4.33,3.47a6.56,6.56,0,0,1-3.25-.79Z"/><path class="cls-13" d="M1602.86,1199.12v3.32h3v1.61h-3v6.24c0,1.44.41,2.25,1.58,2.25a4.78,4.78,0,0,0,1.22-.14l.1,1.58a5.36,5.36,0,0,1-1.87.28,2.92,2.92,0,0,1-2.27-.88,4.28,4.28,0,0,1-.82-3v-6.31H1599v-1.61h1.79v-2.77Z"/><path class="cls-13" d="M1608.25,1206.06c0-1.37,0-2.54-.1-3.62H1610l.07,2.28h.1a3.48,3.48,0,0,1,3.21-2.54,2.12,2.12,0,0,1,.59.07v2a3,3,0,0,0-.71-.07,3,3,0,0,0-2.83,2.7,7,7,0,0,0-.09,1V1214h-2.08Z"/><path class="cls-13" d="M1625.76,1210.87c0,1.19,0,2.24.1,3.15H1624l-.12-1.89h0a4.35,4.35,0,0,1-3.83,2.16c-1.81,0-4-1-4-5.08v-6.77h2.1v6.42c0,2.2.67,3.68,2.59,3.68a3,3,0,0,0,2.77-1.91,3.14,3.14,0,0,0,.19-1.08v-7.11h2.11Z"/><path class="cls-13" d="M1637.51,1213.59a7.72,7.72,0,0,1-3.33.67c-3.49,0-5.76-2.37-5.76-5.91a5.89,5.89,0,0,1,6.22-6.15,7.2,7.2,0,0,1,2.92.6l-.48,1.63a4.84,4.84,0,0,0-2.44-.55c-2.66,0-4.09,2-4.09,4.38,0,2.68,1.72,4.33,4,4.33a5.88,5.88,0,0,0,2.58-.58Z"/><path class="cls-13" d="M1642.82,1199.12v3.32h3v1.61h-3v6.24c0,1.44.41,2.25,1.58,2.25a4.78,4.78,0,0,0,1.22-.14l.09,1.58a5.3,5.3,0,0,1-1.86.28,2.92,2.92,0,0,1-2.27-.88,4.28,4.28,0,0,1-.82-3v-6.31H1639v-1.61h1.79v-2.77Z"/><path class="cls-13" d="M1650.55,1199.19a1.31,1.31,0,0,1-2.61,0,1.29,1.29,0,0,1,1.32-1.32A1.25,1.25,0,0,1,1650.55,1199.19ZM1648.2,1214v-11.58h2.11V1214Z"/><path class="cls-13" d="M1664.28,1208.14c0,4.28-3,6.15-5.76,6.15-3.14,0-5.56-2.3-5.56-6,0-3.88,2.54-6.15,5.75-6.15S1664.28,1204.6,1664.28,1208.14Zm-9.19.12c0,2.53,1.46,4.45,3.52,4.45s3.52-1.89,3.52-4.5c0-2-1-4.45-3.47-4.45S1655.09,1206.06,1655.09,1208.26Z"/><path class="cls-13" d="M1666.94,1205.58c0-1.2,0-2.18-.1-3.14h1.87l.12,1.92h.05a4.25,4.25,0,0,1,3.82-2.18c1.61,0,4.09,1,4.09,4.93V1214h-2.1v-6.67c0-1.87-.69-3.42-2.68-3.42a3,3,0,0,0-2.82,2.15,2.88,2.88,0,0,0-.15,1v7h-2.1Z"/><path class="cls-13" d="M1679,1216.92a16.19,16.19,0,0,0,3-9.79,15.87,15.87,0,0,0-3-9.71h1.63a15.23,15.23,0,0,1,3.13,9.74,15.55,15.55,0,0,1-3.13,9.76Z"/><path class="cls-13" d="M1338,1242.21a10.43,10.43,0,0,1-4.26.76c-4.55,0-8-2.87-8-8.15,0-5,3.42-8.47,8.42-8.47a8.79,8.79,0,0,1,3.83.71l-.5,1.7a7.61,7.61,0,0,0-3.25-.67c-3.78,0-6.3,2.42-6.3,6.65,0,4,2.28,6.49,6.2,6.49a8.46,8.46,0,0,0,3.4-.67Z"/><path class="cls-13" d="M1340.63,1226.8a23.79,23.79,0,0,1,4-.31,6.61,6.61,0,0,1,4.52,1.34,4.33,4.33,0,0,1,1.42,3.37,4.78,4.78,0,0,1-1.25,3.45,6.68,6.68,0,0,1-4.93,1.77,7.71,7.71,0,0,1-1.67-.14v6.46h-2.08Zm2.08,7.78a7,7,0,0,0,1.72.16c2.51,0,4-1.22,4-3.44s-1.5-3.16-3.8-3.16a8.43,8.43,0,0,0-2,.17Z"/><path class="cls-13" d="M1356.42,1228.38h-4.91v-1.77h11.94v1.77h-4.93v14.36h-2.1Z"/><path class="cls-13" d="M1378.84,1235.65c-.12-2.25-.27-5-.24-7h-.07c-.55,1.89-1.22,3.9-2,6.13l-2.84,7.82h-1.58l-2.61-7.68c-.77-2.27-1.41-4.35-1.87-6.27h0c0,2-.16,4.71-.31,7.13l-.43,6.92h-2l1.12-16.13h2.66l2.75,7.8c.67,2,1.22,3.76,1.63,5.43h.07c.4-1.63,1-3.4,1.7-5.43l2.87-7.8h2.65l1,16.13h-2Z"/><path class="cls-13" d="M1389.48,1225.75h2.11v17h-2.11Z"/><path class="cls-13" d="M1397.48,1227.9a1.31,1.31,0,0,1-2.61,0,1.28,1.28,0,0,1,1.31-1.31A1.25,1.25,0,0,1,1397.48,1227.9Zm-2.35,14.84v-11.58h2.11v11.58Z"/><path class="cls-13" d="M1400.73,1234.29c0-1.2,0-2.18-.1-3.13h1.87l.12,1.91h.05a4.25,4.25,0,0,1,3.83-2.18c1.6,0,4.09,1,4.09,4.93v6.92h-2.11v-6.68c0-1.87-.69-3.42-2.68-3.42a3,3,0,0,0-2.82,2.15,2.88,2.88,0,0,0-.15,1v7h-2.1Z"/><path class="cls-13" d="M1415.18,1237.33a3.71,3.71,0,0,0,4,4,7.7,7.7,0,0,0,3.21-.6l.36,1.51a9.48,9.48,0,0,1-3.85.71c-3.57,0-5.7-2.34-5.7-5.83s2.06-6.25,5.43-6.25c3.78,0,4.79,3.33,4.79,5.46a9,9,0,0,1-.07,1Zm6.17-1.51c0-1.34-.55-3.42-2.91-3.42-2.13,0-3.07,2-3.23,3.42Z"/><path class="cls-13" d="M1425.71,1240.58a5.47,5.47,0,0,0,2.77.84c1.54,0,2.25-.77,2.25-1.72s-.59-1.56-2.15-2.13c-2.08-.74-3.06-1.89-3.06-3.28,0-1.87,1.51-3.4,4-3.4a5.81,5.81,0,0,1,2.85.72l-.53,1.53a4.45,4.45,0,0,0-2.36-.67c-1.25,0-1.94.72-1.94,1.58s.69,1.39,2.2,2c2,.77,3,1.77,3,3.5,0,2-1.58,3.46-4.33,3.46a6.74,6.74,0,0,1-3.26-.78Z"/><path class="cls-13" d="M1445.11,1226.13a15.85,15.85,0,0,0-3,9.79,16.16,16.16,0,0,0,3,9.71h-1.65a15.52,15.52,0,0,1-3.13-9.71,15.81,15.81,0,0,1,3.13-9.79Z"/><path class="cls-13" d="M1447.34,1234.29c0-1.2,0-2.18-.1-3.13h1.84l.1,1.86h.07a4,4,0,0,1,3.64-2.13,3.43,3.43,0,0,1,3.28,2.32h0a4.72,4.72,0,0,1,1.3-1.5,3.93,3.93,0,0,1,2.56-.82c1.53,0,3.8,1,3.8,5v6.82h-2.06v-6.56c0-2.22-.81-3.56-2.51-3.56a2.73,2.73,0,0,0-2.49,1.91,3.68,3.68,0,0,0-.16,1v7.16h-2.06v-6.94c0-1.84-.82-3.18-2.42-3.18a3.1,3.1,0,0,0-2.77,3.13v7h-2.06Z"/><path class="cls-13" d="M1468.47,1237.33a3.7,3.7,0,0,0,4,4,7.65,7.65,0,0,0,3.2-.6l.36,1.51a9.48,9.48,0,0,1-3.85.71c-3.56,0-5.69-2.34-5.69-5.83s2-6.25,5.43-6.25c3.78,0,4.78,3.33,4.78,5.46a9,9,0,0,1-.07,1Zm6.17-1.51c0-1.34-.55-3.42-2.92-3.42-2.13,0-3.06,2-3.23,3.42Z"/><path class="cls-13" d="M1481.82,1227.83v3.33h3v1.6h-3V1239c0,1.44.4,2.25,1.58,2.25a4.84,4.84,0,0,0,1.22-.14l.09,1.58a5.07,5.07,0,0,1-1.86.28,3,3,0,0,1-2.28-.88,4.28,4.28,0,0,1-.81-3v-6.31H1478v-1.6h1.8v-2.78Z"/><path class="cls-13" d="M1487.2,1234.77c0-1.37,0-2.54-.1-3.61H1489l.07,2.27h.09a3.48,3.48,0,0,1,3.21-2.54,2.67,2.67,0,0,1,.6.07v2a3.08,3.08,0,0,0-.72-.07,3,3,0,0,0-2.82,2.7,5.69,5.69,0,0,0-.1,1v6.18h-2.08Z"/><path class="cls-13" d="M1505.26,1236.85c0,4.28-3,6.15-5.76,6.15-3.14,0-5.55-2.3-5.55-6,0-3.87,2.53-6.15,5.74-6.15S1505.26,1233.31,1505.26,1236.85Zm-9.18.12c0,2.54,1.46,4.45,3.51,4.45s3.52-1.89,3.52-4.5c0-2-1-4.45-3.47-4.45S1496.08,1234.77,1496.08,1237Z"/><path class="cls-13" d="M1507.92,1234.94c0-1.49-.05-2.68-.09-3.78h1.89l.09,2h0a4.55,4.55,0,0,1,4.11-2.25c2.8,0,4.91,2.37,4.91,5.89,0,4.16-2.54,6.22-5.26,6.22a4.05,4.05,0,0,1-3.57-1.82h0v6.29h-2.08ZM1510,1238a4.51,4.51,0,0,0,.1.86,3.25,3.25,0,0,0,3.16,2.47c2.22,0,3.51-1.82,3.51-4.48,0-2.32-1.22-4.3-3.44-4.3a3.35,3.35,0,0,0-3.18,2.6,3.17,3.17,0,0,0-.15.87Z"/><path class="cls-13" d="M1532,1236.85c0,4.28-3,6.15-5.76,6.15-3.14,0-5.55-2.3-5.55-6,0-3.87,2.53-6.15,5.74-6.15S1532,1233.31,1532,1236.85Zm-9.18.12c0,2.54,1.46,4.45,3.51,4.45s3.52-1.89,3.52-4.5c0-2-1-4.45-3.47-4.45S1522.83,1234.77,1522.83,1237Z"/><path class="cls-13" d="M1534.67,1225.75h2.11v17h-2.11Z"/><path class="cls-13" d="M1542.66,1227.9a1.24,1.24,0,0,1-1.34,1.29,1.25,1.25,0,0,1-1.27-1.29,1.28,1.28,0,0,1,1.32-1.31A1.24,1.24,0,0,1,1542.66,1227.9Zm-2.34,14.84v-11.58h2.1v11.58Z"/><path class="cls-13" d="M1548.45,1227.83v3.33h3v1.6h-3V1239c0,1.44.41,2.25,1.58,2.25a4.78,4.78,0,0,0,1.22-.14l.1,1.58a5.17,5.17,0,0,1-1.87.28,2.92,2.92,0,0,1-2.27-.88,4.28,4.28,0,0,1-.82-3v-6.31h-1.79v-1.6h1.79v-2.78Z"/><path class="cls-13" d="M1560.25,1242.74l-.17-1.46H1560a4.31,4.31,0,0,1-3.54,1.72,3.3,3.3,0,0,1-3.54-3.33c0-2.8,2.49-4.33,7-4.3v-.24a2.38,2.38,0,0,0-2.63-2.68,5.76,5.76,0,0,0-3,.86l-.48-1.39a7.23,7.23,0,0,1,3.81-1c3.54,0,4.4,2.42,4.4,4.74V1240a16.79,16.79,0,0,0,.19,2.78Zm-.31-5.91c-2.3,0-4.91.35-4.91,2.6a1.86,1.86,0,0,0,2,2,2.88,2.88,0,0,0,2.8-1.93,2.31,2.31,0,0,0,.12-.67Z"/><path class="cls-13" d="M1565.37,1234.29c0-1.2,0-2.18-.1-3.13h1.87l.12,1.91h0a4.25,4.25,0,0,1,3.82-2.18c1.61,0,4.1,1,4.1,4.93v6.92h-2.11v-6.68c0-1.87-.69-3.42-2.68-3.42a3,3,0,0,0-2.82,2.15,2.88,2.88,0,0,0-.15,1v7h-2.1Z"/><path class="cls-13" d="M1586.26,1227.83v3.33h3v1.6h-3V1239c0,1.44.4,2.25,1.57,2.25a4.87,4.87,0,0,0,1.23-.14l.09,1.58a5.11,5.11,0,0,1-1.86.28,2.93,2.93,0,0,1-2.28-.88,4.28,4.28,0,0,1-.81-3v-6.31h-1.8v-1.6h1.8v-2.78Z"/><path class="cls-13" d="M1591.64,1234.77c0-1.37,0-2.54-.1-3.61h1.85l.07,2.27h.09a3.48,3.48,0,0,1,3.21-2.54,2.67,2.67,0,0,1,.6.07v2a3.08,3.08,0,0,0-.72-.07,2.94,2.94,0,0,0-2.82,2.7,5.69,5.69,0,0,0-.1,1v6.18h-2.08Z"/><path class="cls-13" d="M1605.76,1242.74l-.17-1.46h-.07A4.31,4.31,0,0,1,1602,1243a3.3,3.3,0,0,1-3.54-3.33c0-2.8,2.48-4.33,7-4.3v-.24a2.39,2.39,0,0,0-2.63-2.68,5.74,5.74,0,0,0-3,.86l-.48-1.39a7.23,7.23,0,0,1,3.81-1c3.54,0,4.4,2.42,4.4,4.74V1240a16.79,16.79,0,0,0,.19,2.78Zm-.31-5.91c-2.3,0-4.91.35-4.91,2.6a1.86,1.86,0,0,0,2,2,2.89,2.89,0,0,0,2.8-1.93,2.31,2.31,0,0,0,.12-.67Z"/><path class="cls-13" d="M1613.22,1227.9a1.24,1.24,0,0,1-1.34,1.29,1.25,1.25,0,0,1-1.27-1.29,1.28,1.28,0,0,1,1.32-1.31A1.24,1.24,0,0,1,1613.22,1227.9Zm-2.34,14.84v-11.58h2.1v11.58Z"/><path class="cls-13" d="M1616.48,1234.29c0-1.2,0-2.18-.1-3.13h1.87l.12,1.91h0a4.28,4.28,0,0,1,3.83-2.18c1.6,0,4.09,1,4.09,4.93v6.92h-2.1v-6.68c0-1.87-.7-3.42-2.68-3.42a3,3,0,0,0-2.83,2.15,3.17,3.17,0,0,0-.14,1v7h-2.1Z"/><path class="cls-13" d="M1629.47,1240.58a5.47,5.47,0,0,0,2.77.84c1.53,0,2.25-.77,2.25-1.72s-.6-1.56-2.15-2.13c-2.08-.74-3.06-1.89-3.06-3.28,0-1.87,1.5-3.4,4-3.4a5.84,5.84,0,0,1,2.85.72l-.53,1.53a4.46,4.46,0,0,0-2.37-.67c-1.24,0-1.93.72-1.93,1.58s.69,1.39,2.2,2c2,.77,3,1.77,3,3.5,0,2-1.58,3.46-4.33,3.46a6.71,6.71,0,0,1-3.26-.78Z"/><path class="cls-13" d="M1638,1245.63a16.19,16.19,0,0,0,3-9.79,15.87,15.87,0,0,0-3-9.71h1.63a15.26,15.26,0,0,1,3.13,9.74,15.52,15.52,0,0,1-3.13,9.76Z"/><line class="cls-16" x1="1703" y1="1239" x2="1777" y2="1239"/><line class="cls-17" x1="1703" y1="1209.5" x2="1777" y2="1209.5"/><line class="cls-18" x1="1703" y1="1209" x2="1777" y2="1209"/><rect class="cls-19" x="533.49" y="1012.68" width="72.89" height="72.89"/><path d="M598.86,1061.84v-6.13l-24.52-15.32v-16.64a4.74,4.74,0,0,0-3.75-4.74,4.59,4.59,0,0,0-5.44,4.52v16.86l-24.52,15.32v6.13l24.52-7.66V1071l-6.13,4.59v4.6l10.72-3.06,10.73,3.06v-4.6l-6.13-4.59v-16.86Z"/><path class="cls-20" d="M534.5,1012.35h73.56v73.55H534.5Z"/><path d="M617,1041.22a8.93,8.93,0,0,0,4.49,1.27c2.56,0,4.06-1.36,4.06-3.31s-1-2.85-3.65-3.86c-3.17-1.12-5.13-2.76-5.13-5.49,0-3,2.51-5.27,6.28-5.27a8.78,8.78,0,0,1,4.28,1l-.69,2a7.75,7.75,0,0,0-3.68-.92c-2.65,0-3.65,1.58-3.65,2.91,0,1.81,1.18,2.7,3.85,3.74,3.28,1.26,5,2.85,5,5.7s-2.21,5.58-6.79,5.58a10,10,0,0,1-5-1.24Z"/><path d="M639.26,1044.27l-.2-1.75H639a5.2,5.2,0,0,1-4.26,2.07,4,4,0,0,1-4.26-4c0-3.37,3-5.21,8.38-5.18v-.29a2.87,2.87,0,0,0-3.17-3.22,6.93,6.93,0,0,0-3.62,1l-.58-1.67A8.72,8.72,0,0,1,636,1030c4.25,0,5.29,2.9,5.29,5.69v5.21a19.9,19.9,0,0,0,.23,3.34ZM632.75,1028c0-1.87.72-3,2-3a3.62,3.62,0,0,1,1.79.63,2.85,2.85,0,0,0,1.21.49c.46,0,.71-.25.8-1.23h1.32c.06,1.92-.6,2.9-2,2.9a3.92,3.92,0,0,1-1.76-.57,2.49,2.49,0,0,0-1.24-.52c-.46,0-.69.49-.74,1.29Zm6.13,9.21c-2.76-.05-5.89.43-5.89,3.14a2.24,2.24,0,0,0,2.38,2.42,3.46,3.46,0,0,0,3.37-2.33,2.56,2.56,0,0,0,.14-.81Z"/><path d="M658,1037.19c0,5.15-3.57,7.4-6.93,7.4-3.77,0-6.68-2.76-6.68-7.17,0-4.66,3.05-7.39,6.91-7.39S658,1032.93,658,1037.19Zm-11,.15c0,3.05,1.76,5.35,4.23,5.35s4.23-2.27,4.23-5.41c0-2.36-1.18-5.35-4.17-5.35S647,1034.69,647,1037.34Z"/><path d="M667.4,1025.11a28.13,28.13,0,0,1,4.81-.38,8,8,0,0,1,5.44,1.61,5.23,5.23,0,0,1,1.7,4.06,5.68,5.68,0,0,1-1.5,4.14,8,8,0,0,1-5.93,2.13,8.24,8.24,0,0,1-2-.17v7.77H667.4Zm2.51,9.35a8.57,8.57,0,0,0,2.07.2c3,0,4.86-1.47,4.86-4.14s-1.81-3.8-4.57-3.8a10.19,10.19,0,0,0-2.36.2Z"/><path d="M689.59,1044.27l-.2-1.75h-.09a5.18,5.18,0,0,1-4.25,2.07,4,4,0,0,1-4.26-4c0-3.37,3-5.21,8.37-5.18v-.29a2.87,2.87,0,0,0-3.16-3.22,7,7,0,0,0-3.63,1l-.58-1.67a8.75,8.75,0,0,1,4.58-1.23c4.26,0,5.3,2.9,5.3,5.69v5.21a20,20,0,0,0,.22,3.34Zm-.37-7.11c-2.76-.05-5.9.43-5.9,3.14a2.24,2.24,0,0,0,2.39,2.42,3.46,3.46,0,0,0,3.36-2.33,2.57,2.57,0,0,0,.15-.81Z"/><path d="M707.41,1040.47c0,1.44,0,2.71.11,3.8h-2.24l-.15-2.27h0a5.26,5.26,0,0,1-4.61,2.59c-2.19,0-4.8-1.21-4.8-6.1v-8.15h2.53v7.72c0,2.64.8,4.43,3.11,4.43a3.65,3.65,0,0,0,3.33-2.31,3.53,3.53,0,0,0,.23-1.29v-8.55h2.54Z"/><path d="M711.61,1023.84h2.53v20.43h-2.53Z"/><path d="M731,1037.19c0,5.15-3.56,7.4-6.93,7.4-3.77,0-6.68-2.76-6.68-7.17,0-4.66,3.05-7.39,6.91-7.39S731,1032.93,731,1037.19Zm-11,.15c0,3.05,1.76,5.35,4.23,5.35s4.23-2.27,4.23-5.41c0-2.36-1.18-5.35-4.17-5.35S720,1034.69,720,1037.34Z"/><path d="M732.07,1045.42l8-20.86h1.95l-8,20.86Z"/><path d="M758.92,1043.41a18.17,18.17,0,0,1-6,1.06,9.11,9.11,0,0,1-10-9.78c0-5.79,4-10,10.51-10a11.81,11.81,0,0,1,4.83.9l-.6,2a10.06,10.06,0,0,0-4.29-.84c-4.72,0-7.8,2.94-7.8,7.8s3,7.83,7.48,7.83a8.07,8.07,0,0,0,3.34-.52v-5.78h-3.94v-2h6.39Z"/><path d="M774.31,1040.47c0,1.44,0,2.71.12,3.8h-2.25L772,1042H772a5.24,5.24,0,0,1-4.6,2.59c-2.19,0-4.81-1.21-4.81-6.1v-8.15h2.54v7.72c0,2.64.8,4.43,3.1,4.43a3.66,3.66,0,0,0,3.34-2.31,3.53,3.53,0,0,0,.23-1.29v-8.55h2.53Z"/><path d="M786.23,1044.27l-.2-1.75h-.09a5.2,5.2,0,0,1-4.26,2.07,4,4,0,0,1-4.26-4c0-3.37,3-5.21,8.38-5.18v-.29a2.87,2.87,0,0,0-3.17-3.22,6.93,6.93,0,0,0-3.62,1l-.58-1.67A8.72,8.72,0,0,1,783,1030c4.26,0,5.29,2.9,5.29,5.69v5.21a19.9,19.9,0,0,0,.23,3.34Zm-.37-7.11c-2.77-.05-5.9.43-5.9,3.14a2.24,2.24,0,0,0,2.38,2.42,3.46,3.46,0,0,0,3.37-2.33,2.57,2.57,0,0,0,.15-.81Z"/><path d="M792.39,1034.69c0-1.64,0-3-.12-4.35h2.22l.09,2.74h.11a4.18,4.18,0,0,1,3.86-3,2.69,2.69,0,0,1,.72.08v2.39a3.74,3.74,0,0,0-.87-.08,3.54,3.54,0,0,0-3.39,3.25,6.81,6.81,0,0,0-.12,1.18v7.42h-2.5Z"/><path d="M813.45,1040.47c0,1.44,0,2.71.12,3.8h-2.25l-.14-2.27h-.06a5.24,5.24,0,0,1-4.6,2.59c-2.19,0-4.81-1.21-4.81-6.1v-8.15h2.53v7.72c0,2.64.81,4.43,3.11,4.43a3.66,3.66,0,0,0,3.34-2.31,3.75,3.75,0,0,0,.23-1.29v-8.55h2.53Z"/><path d="M817.66,1023.84h2.53v20.43h-2.53Z"/><path d="M824.45,1023.84H827v8.69H827a4.63,4.63,0,0,1,1.81-1.78,5.13,5.13,0,0,1,2.59-.72c1.87,0,4.86,1.15,4.86,6v8.29h-2.53v-8c0-2.24-.83-4.14-3.22-4.14a3.64,3.64,0,0,0-3.4,2.53,3.13,3.13,0,0,0-.17,1.21v8.4h-2.53Z"/><path d="M853,1037.19c0,5.15-3.57,7.4-6.93,7.4-3.77,0-6.68-2.76-6.68-7.17,0-4.66,3.05-7.39,6.91-7.39S853,1032.93,853,1037.19Zm-11,.15c0,3.05,1.76,5.35,4.23,5.35s4.23-2.27,4.23-5.41c0-2.36-1.18-5.35-4.17-5.35S842,1034.69,842,1037.34Z"/><path d="M855.87,1041.68a6.63,6.63,0,0,0,3.34,1c1.84,0,2.71-.92,2.71-2.07s-.72-1.87-2.59-2.56c-2.51-.9-3.69-2.28-3.69-4,0-2.24,1.82-4.08,4.81-4.08a6.92,6.92,0,0,1,3.42.86l-.63,1.84a5.47,5.47,0,0,0-2.85-.8c-1.5,0-2.33.86-2.33,1.9s.83,1.66,2.65,2.35c2.41.93,3.65,2.13,3.65,4.21,0,2.44-1.9,4.17-5.21,4.17a7.9,7.9,0,0,1-3.91-1Z"/><path d="M619.86,1059.41v19.4h-2.5v-19.4Z"/><path d="M624.44,1068.65c0-1.44,0-2.62-.12-3.77h2.25l.14,2.3h.06a5.12,5.12,0,0,1,4.6-2.62c1.93,0,4.92,1.15,4.92,5.93v8.32h-2.53v-8c0-2.25-.83-4.12-3.22-4.12a3.61,3.61,0,0,0-3.4,2.59,3.81,3.81,0,0,0-.17,1.18v8.38h-2.53Z"/><path d="M643.35,1060.88v4H647v1.93h-3.62v7.51c0,1.72.48,2.7,1.9,2.7a5.41,5.41,0,0,0,1.46-.17l.12,1.9a6.28,6.28,0,0,1-2.25.34,3.49,3.49,0,0,1-2.73-1.06,5.17,5.17,0,0,1-1-3.63v-7.59h-2.16v-1.93h2.16v-3.34Z"/><path d="M651.06,1072.3c.06,3.43,2.24,4.84,4.77,4.84a9.2,9.2,0,0,0,3.86-.72l.43,1.81a11.3,11.3,0,0,1-4.63.86c-4.29,0-6.85-2.82-6.85-7s2.48-7.51,6.53-7.51c4.55,0,5.76,4,5.76,6.56a9.16,9.16,0,0,1-.09,1.18Zm7.42-1.81c0-1.61-.66-4.12-3.51-4.12-2.56,0-3.68,2.36-3.88,4.12Z"/><path d="M664.07,1069.22c0-1.64,0-3-.12-4.34h2.22l.08,2.73h.12a4.18,4.18,0,0,1,3.85-3,2.63,2.63,0,0,1,.72.09V1067a3.6,3.6,0,0,0-.86-.09,3.56,3.56,0,0,0-3.4,3.25,8.18,8.18,0,0,0-.11,1.18v7.43h-2.5Z"/><path d="M673.59,1068.65c0-1.44,0-2.62-.11-3.77h2.24l.14,2.3h.06a5.13,5.13,0,0,1,4.61-2.62c1.93,0,4.92,1.15,4.92,5.93v8.32h-2.53v-8c0-2.25-.84-4.12-3.23-4.12a3.59,3.59,0,0,0-3.39,2.59,3.53,3.53,0,0,0-.18,1.18v8.38h-2.53Z"/><path d="M697.28,1078.81l-.21-1.76H697a5.21,5.21,0,0,1-4.26,2.07,4,4,0,0,1-4.26-4c0-3.37,3-5.21,8.37-5.18v-.29c0-1.15-.31-3.22-3.16-3.22a6.88,6.88,0,0,0-3.63,1l-.57-1.67a8.62,8.62,0,0,1,4.57-1.24c4.26,0,5.3,2.91,5.3,5.7v5.21a19.9,19.9,0,0,0,.23,3.34Zm-.38-7.11c-2.76-.06-5.9.43-5.9,3.13a2.24,2.24,0,0,0,2.39,2.42,3.48,3.48,0,0,0,3.37-2.33,2.87,2.87,0,0,0,.14-.8Z"/><path d="M706.37,1060.88v4H710v1.93h-3.63v7.51c0,1.72.49,2.7,1.9,2.7a5.55,5.55,0,0,0,1.47-.17l.11,1.9a6.22,6.22,0,0,1-2.24.34,3.53,3.53,0,0,1-2.74-1.06c-.72-.75-1-2-1-3.63v-7.59h-2.16v-1.93h2.16v-3.34Z"/><path d="M715.67,1061a1.57,1.57,0,0,1-3.14,0,1.54,1.54,0,0,1,1.58-1.58A1.51,1.51,0,0,1,715.67,1061Zm-2.83,17.85v-13.93h2.54v13.93Z"/><path d="M732.18,1071.73c0,5.15-3.57,7.39-6.93,7.39-3.77,0-6.68-2.76-6.68-7.16,0-4.67,3-7.4,6.91-7.4S732.18,1067.47,732.18,1071.73Zm-11,.14c0,3.05,1.76,5.35,4.23,5.35s4.23-2.27,4.23-5.41c0-2.36-1.18-5.35-4.17-5.35S721.13,1069.22,721.13,1071.87Z"/><path d="M735.38,1068.65c0-1.44,0-2.62-.12-3.77h2.25l.14,2.3h.06a5.12,5.12,0,0,1,4.6-2.62c1.93,0,4.92,1.15,4.92,5.93v8.32H744.7v-8c0-2.25-.83-4.12-3.22-4.12a3.6,3.6,0,0,0-3.4,2.59,3.81,3.81,0,0,0-.17,1.18v8.38h-2.53Z"/><path d="M759.06,1078.81l-.2-1.76h-.09a5.18,5.18,0,0,1-4.25,2.07,4,4,0,0,1-4.26-4c0-3.37,3-5.21,8.37-5.18v-.29a2.87,2.87,0,0,0-3.17-3.22,6.88,6.88,0,0,0-3.62,1l-.58-1.67a8.66,8.66,0,0,1,4.58-1.24c4.26,0,5.29,2.91,5.29,5.7v5.21a19.9,19.9,0,0,0,.23,3.34Zm-.37-7.11c-2.76-.06-5.9.43-5.9,3.13a2.24,2.24,0,0,0,2.39,2.42,3.46,3.46,0,0,0,3.36-2.33,2.56,2.56,0,0,0,.15-.8Z"/><path d="M765.22,1058.37h2.53v20.44h-2.53Z"/><path d="M781.34,1072.71l-2,6.1h-2.59l6.59-19.4h3l6.62,19.4h-2.67l-2.08-6.1Zm6.36-2-1.9-5.58c-.43-1.27-.72-2.42-1-3.55h-.06c-.29,1.16-.6,2.34-1,3.52l-1.9,5.61Z"/><path d="M798.46,1061a1.49,1.49,0,0,1-1.61,1.56,1.51,1.51,0,0,1-1.53-1.56,1.55,1.55,0,0,1,1.59-1.58A1.5,1.5,0,0,1,798.46,1061Zm-2.82,17.85v-13.93h2.53v13.93Z"/><path d="M802.37,1069.22c0-1.64,0-3-.11-4.34h2.21l.09,2.73h.12a4.17,4.17,0,0,1,3.85-3,2.63,2.63,0,0,1,.72.09V1067a3.66,3.66,0,0,0-.86-.09c-1.79,0-3,1.35-3.4,3.25a7,7,0,0,0-.11,1.18v7.43h-2.51Z"/><path d="M811.9,1069.42c0-1.78-.06-3.22-.12-4.54h2.28l.11,2.39h.06a5.48,5.48,0,0,1,4.95-2.71c3.37,0,5.9,2.85,5.9,7.08,0,5-3.05,7.48-6.33,7.48a4.88,4.88,0,0,1-4.29-2.18h-.06v7.56h-2.5Zm2.5,3.72a5.39,5.39,0,0,0,.12,1,3.9,3.9,0,0,0,3.8,3c2.67,0,4.23-2.19,4.23-5.39,0-2.79-1.47-5.17-4.15-5.17a4,4,0,0,0-3.82,3.13,4,4,0,0,0-.18,1Z"/><path d="M840.88,1071.73c0,5.15-3.57,7.39-6.94,7.39-3.77,0-6.67-2.76-6.67-7.16,0-4.67,3.05-7.4,6.9-7.4C838.17,1064.56,840.88,1067.47,840.88,1071.73Zm-11,.14c0,3.05,1.75,5.35,4.23,5.35s4.23-2.27,4.23-5.41c0-2.36-1.18-5.35-4.17-5.35S829.83,1069.22,829.83,1071.87Z"/><path d="M844.07,1069.22c0-1.64,0-3-.11-4.34h2.21l.09,2.73h.12a4.17,4.17,0,0,1,3.85-3,2.63,2.63,0,0,1,.72.09V1067a3.66,3.66,0,0,0-.86-.09c-1.79,0-3.05,1.35-3.4,3.25a7,7,0,0,0-.11,1.18v7.43h-2.51Z"/><path d="M857.22,1060.88v4h3.63v1.93h-3.63v7.51c0,1.72.49,2.7,1.9,2.7a5.49,5.49,0,0,0,1.47-.17l.12,1.9a6.28,6.28,0,0,1-2.25.34,3.49,3.49,0,0,1-2.73-1.06,5.17,5.17,0,0,1-1-3.63v-7.59h-2.16v-1.93h2.16v-3.34Z"/></g></svg>