<?xml version="1.0" encoding="utf-8"?>
<!-- Generator: Adobe Illustrator 14.0.0, SVG Export Plug-In . SVG Version: 6.00 Build 43363)  -->
<!DOCTYPE svg PUBLIC "-//W3C//DTD SVG 1.1//EN" "http://www.w3.org/Graphics/SVG/1.1/DTD/svg11.dtd">
<svg xmlns="http://www.w3.org/2000/svg" xmlns:xlink="http://www.w3.org/1999/xlink" version="1.1" id="Layer_1" x="0px" y="0px" width="994px" height="442px" viewBox="0 0 994 442" enable-background="new 0 0 994 442" xml:space="preserve">
<g id="background">
	<polygon fill="#F1F1F2" points="884.3,331.5 849,242.5 814.6,295.5 771,300.5 740.3,291.5 713,237.2 713,302.5 740.3,342.5    736,369.5 762.7,389.5 740.3,441.5 692.5,441.5 683,353.5 661,327.5 661,254.5 656.1,230.7 662,206.9 635,162.7 602,175.7 629,210    629,262.9 625,302.1 572.4,290.5 560.2,260.2 552,205.7 547,147.7 501,141.1 521,237.2 480,237.2 480,273.4 497,279.4 541.8,264.5    548,323.5 598,329.5 645,362.5 608.1,401.3 608.1,441.5 572.4,441.5 589.9,396.8 542.1,347.5 484.5,368.5 455,327.5 484.5,291.3    439.9,237.2 460,205.7 456,169.2 464,126.6 380,135.2 380,58.7 434,33.5 470,-0.5 901.9,-0.5 994,-0.5 976,67 980.9,113.2    936,144.5 994,186.6 994,248.5 937,308.5  "/>
	<polygon fill="#F1F1F2" points="15.5,303.5 113.1,282.2 178,199.2 193,154.3 149,111.9 171.9,54 206,55.3 206,88.6 242.9,90.1    242.9,60.5 226.4,37.8 226.4,-0.5 138,-0.5 89.8,56.8 126,93.4 82.8,130.7 82.8,157.5 89.8,192.7 94.9,233.6 67,260.2 19,289.5     "/>
</g>
<g id="waters">
	<path fill="none" stroke="#ADDFEC" stroke-width="8" d="M294,0c0,0-2,68.3,26,125.2c28,56.9-32,55.3-39,81.1s-7,44.5,8,76.6   c15,32.1,21.9,30.1,12.9,40.1S271,346,271,361s-13,18-23,18s-52,12.7-55,22.8c-3,10.1,1,39.1-6,39.6"/>
	<polygon fill="#ADDFEC" points="539.5,238.5 539.5,254 547.5,262 560.2,260.2 554,238.5  "/>
	<path fill="none" stroke="#ADDFEC" stroke-width="5" d="M464,0c0,0-7.2,19-38.6,26c-31.4,7-42.9,1.5-52.9,19S346,84.2,342,91.1   s-23.5,21.6-23.5,21.6"/>
	<path fill="none" stroke="#ADDFEC" stroke-width="3" d="M0,130.5c0,0,9.9,16.4,26.9,21s35.1,1,46.1,12s9.5,34.9,6,42.7   c-3.5,7.8-37,41.2-20,63.5S78.6,292,81.6,309s6.4,43,22.4,60s27,12.8,38.5,25.4C154,407,161,421.1,160.2,427   c-0.8,5.9-2.2,14.5-2.2,14.5"/>
	<path fill="none" stroke="#ADDFEC" stroke-width="2" d="M633.3,0c0,0,1.4,16.3,13,25.7c11.6,9.4,29.9,3.7,46.1,16   c16.2,12.3,49.5,46,50.8,45.5s35,42.8,38.3,46.8s45.3,60.7,51,68.7s14.7,28,20.7,33s18.3,4.3,18.7,11.7c0.4,7.4,7.6,46.3,11.2,52.7   c3.6,6.4,21,45,25.2,52.7s1,9,0,22.7s1.8,37,4.1,45.3c2.3,8.3,5.3,17.3,4.6,21.3"/>
</g>
<g id="legenda">
	<switch><text id="text170-ko" transform="matrix(0.9792 0 0 1 22.9468 362.1387)" font-family="'ArialMT'" font-size="35" systemLanguage="ko"><tspan id="trsvg1-ko">광주 도시철도</tspan></text><text id="text170" transform="matrix(0.9792 0 0 1 22.9468 362.1387)" font-family="'ArialMT'" font-size="35"><tspan id="trsvg1">Metro Gwangju</tspan></text></switch>
	<switch><text id="text174-ko" transform="matrix(0.9792 0 0 1 22.9468 394.4336)" font-family="'ArialMT'" font-size="25" systemLanguage="ko"><tspan id="trsvg2-ko">2014 2월</tspan></text><text id="text174" transform="matrix(0.9792 0 0 1 22.9468 394.4336)" font-family="'ArialMT'" font-size="25"><tspan id="trsvg2">February, 2014</tspan></text></switch>
</g>
<g id="linii">
	<path fill="none" stroke="#38AE2C" stroke-width="4" d="M894,394.4"/>
	<path fill="none" stroke="#38AE2C" stroke-width="4" d="M894.2,394.4c0,0,12-97.5-33-176.2c-45-78.8-52.5-96.8-98.2-138   C717.3,39,636.2,75,607,84.7c-29.2,9.7-142.5,3.8-195,49.5c-52.5,45.7-60.8,32.2-105.8,29.2s-123-51-189.8,23.2   c-66.8,74.3-69.8,75.8-92.2,86.3"/>
	<line id="line86_1_" fill="none" stroke="#38AE2C" stroke-width="4" x1="903.7" y1="397.3" x2="884.3" y2="394.8"/>
	<line id="line86_2_" fill="none" stroke="#38AE2C" stroke-width="4" x1="26.9" y1="282.9" x2="19" y2="265"/>
	<polyline id="line84_5_" fill="none" stroke="#38AE2C" stroke-width="4" points="886.3,276.4 891,275.2 892.9,274.8  "/>
	<polyline id="line84_1_" fill="none" stroke="#38AE2C" stroke-width="4" points="863.7,218.6 867.9,216.2 869.6,215.2  "/>
	<polyline id="line84_2_" fill="none" stroke="#38AE2C" stroke-width="4" points="838.5,174.4 842.6,171.9 844.3,170.9  "/>
	<polyline id="line84_3_" fill="none" stroke="#38AE2C" stroke-width="4" points="809,127.1 813,124.3 814.6,123.2  "/>
	<polyline id="line84_4_" fill="none" stroke="#38AE2C" stroke-width="4" points="789.3,103.2 792.9,99.9 794.3,98.6  "/>
	<polyline id="line84_6_" fill="none" stroke="#38AE2C" stroke-width="4" points="756.2,72.4 758.9,68.4 760,66.8  "/>
	<polyline id="line84_7_" fill="none" stroke="#38AE2C" stroke-width="4" points="698.2,59.3 698,54.5 697.9,52.5  "/>
	<polyline id="line84_8_" fill="none" stroke="#38AE2C" stroke-width="4" points="669.4,73.7 668.3,69 667.9,67.1  "/>
	<polyline id="line84_9_" fill="none" stroke="#38AE2C" stroke-width="4" points="619.7,78.2 618.1,73.6 617.4,71.7  "/>
	<polyline id="line84_10_" fill="none" stroke="#38AE2C" stroke-width="4" points="584.1,97.4 583.5,92.6 583.2,90.6  "/>
	<polyline id="line84_11_" fill="none" stroke="#38AE2C" stroke-width="4" points="542.5,91.1 542,86.3 541.8,84.3  "/>
	<polyline id="line84_12_" fill="none" stroke="#38AE2C" stroke-width="4" points="486,110.3 484.9,105.5 484.5,103.6  "/>
	<polyline id="line84_13_" fill="none" stroke="#38AE2C" stroke-width="4" points="427.1,121 424.7,116.9 423.7,115.2  "/>
	<polyline id="line84_14_" fill="none" stroke="#38AE2C" stroke-width="4" points="396.5,157.6 393.6,153.7 392.4,152.2  "/>
	<polyline id="line84_15_" fill="none" stroke="#38AE2C" stroke-width="4" points="226.4,145 227.2,140.3 227.6,138.3  "/>
	<polyline id="line84_16_" fill="none" stroke="#38AE2C" stroke-width="4" points="162.6,151.4 160.9,146.9 160.2,145.1  "/>
	<polyline id="line84_17_" fill="none" stroke="#38AE2C" stroke-width="4" points="123.4,191.7 119.8,188.5 118.3,187.2  "/>
	<polyline id="line84_18_" fill="none" stroke="#38AE2C" stroke-width="4" points="94.9,223.3 91.3,220.1 89.8,218.7  "/>
	<polyline id="line84_19_" fill="none" stroke="#38AE2C" stroke-width="4" points="52.6,266.1 49.5,262.3 48.3,260.8  "/>
</g>
<g id="text">
	<switch><text id="Cavaleri_2_-ko" transform="matrix(0.9792 0 0 1 869.2988 411.2861)" font-family="'ArialMT'" font-size="11" systemLanguage="ko"><tspan id="trsvg3-ko">녹동</tspan></text><text id="Cavaleri_2_" transform="matrix(0.9792 0 0 1 869.2988 411.2861)" font-family="'ArialMT'" font-size="11"><tspan id="trsvg3">Nokdong</tspan></text></switch>
	<switch><text id="Cavaleri_3_-ko" transform="matrix(0.9792 0 0 1 899.2012 276.3809)" font-family="'ArialMT'" font-size="11" systemLanguage="ko"><tspan id="trsvg4-ko">소태</tspan></text><text id="Cavaleri_3_" transform="matrix(0.9792 0 0 1 899.2012 276.3809)" font-family="'ArialMT'" font-size="11"><tspan id="trsvg4">Sotae</tspan></text></switch>
	<switch><text id="Cavaleri_1_-ko" transform="matrix(0.9792 0 0 1 873.7012 216.8838)" font-family="'ArialMT'" font-size="11" systemLanguage="ko"><tspan id="trsvg5-ko">학동·증심사입구</tspan></text><text id="Cavaleri_1_" transform="matrix(0.9792 0 0 1 873.7012 216.8838)" font-family="'ArialMT'" font-size="11"><tspan id="trsvg5">Hakdong - jeungsimsa</tspan></text></switch>
	<switch><text id="Cavaleri_4_-ko" transform="matrix(0.9792 0 0 1 849.0342 172.6426)" font-family="'ArialMT'" font-size="11" systemLanguage="ko"><tspan id="trsvg6-ko">남광주</tspan></text><text id="Cavaleri_4_" transform="matrix(0.9792 0 0 1 849.0342 172.6426)" font-family="'ArialMT'" font-size="11"><tspan id="trsvg6">Nam Gwangju</tspan></text></switch>
	<switch><text transform="matrix(0.9792 0 0 1 820.5342 123.1865)" font-family="'ArialMT'" font-size="11" id="trsvg27-ko" systemLanguage="ko"><tspan id="trsvg7-ko">문화전당</tspan></text><text transform="matrix(0.9792 0 0 1 820.5342 123.1865)" font-family="'ArialMT'" font-size="11" id="trsvg27"><tspan id="trsvg7">Culture Complex</tspan></text></switch>
	<switch><text transform="matrix(0.9792 0 0 1 820.5342 133.1865)" font-family="'ArialMT'" font-size="11" id="trsvg28-ko" systemLanguage="ko"><tspan id="trsvg8-ko">(구도청)</tspan></text><text transform="matrix(0.9792 0 0 1 820.5342 133.1865)" font-family="'ArialMT'" font-size="11" id="trsvg28"><tspan id="trsvg8">(Formerly Provincial office)</tspan></text></switch>
	<switch><text id="Cavaleri_6_-ko" transform="matrix(0.9792 0 0 1 799.5547 98.6064)" font-family="'ArialMT'" font-size="11" systemLanguage="ko"><tspan id="trsvg9-ko">금남로4가</tspan></text><text id="Cavaleri_6_" transform="matrix(0.9792 0 0 1 799.5547 98.6064)" font-family="'ArialMT'" font-size="11"><tspan id="trsvg9">Geumnamno4(sa)-ga</tspan></text></switch>
	<switch><text id="Cavaleri_7_-ko" transform="matrix(0.9792 0 0 1 762.7021 63.9756)" font-family="'ArialMT'" font-size="11" systemLanguage="ko"><tspan id="trsvg10-ko">금남로5가</tspan></text><text id="Cavaleri_7_" transform="matrix(0.9792 0 0 1 762.7021 63.9756)" font-family="'ArialMT'" font-size="11"><tspan id="trsvg10">Geumnamno5(o)-ga</tspan></text></switch>
	<switch><text id="Cavaleri_8_-ko" transform="matrix(0.9792 0 0 1 655.71 47.7744)" font-family="'ArialMT'" font-size="11" systemLanguage="ko"><tspan id="trsvg11-ko">양동시장</tspan></text><text id="Cavaleri_8_" transform="matrix(0.9792 0 0 1 655.71 47.7744)" font-family="'ArialMT'" font-size="11"><tspan id="trsvg11">Yangdong Market</tspan></text></switch>
	<switch><text id="Cavaleri_9_-ko" transform="matrix(0.9792 0 0 1 646.3799 83.6074)" font-family="'ArialMT'" font-size="11" systemLanguage="ko"><tspan id="trsvg12-ko">돌고개</tspan></text><text id="Cavaleri_9_" transform="matrix(0.9792 0 0 1 646.3799 83.6074)" font-family="'ArialMT'" font-size="11"><tspan id="trsvg12">Dolgogae</tspan></text></switch>
	<switch><text id="Cavaleri_10_-ko" transform="matrix(0.9792 0 0 1 589.8838 66.7881)" font-family="'ArialMT'" font-size="11" systemLanguage="ko"><tspan id="trsvg13-ko">농성</tspan></text><text id="Cavaleri_10_" transform="matrix(0.9792 0 0 1 589.8838 66.7881)" font-family="'ArialMT'" font-size="11"><tspan id="trsvg13">Nongseong</tspan></text></switch>
	<switch><text id="Cavaleri_11_-ko" transform="matrix(0.9792 0 0 1 560.1787 108.9131)" font-family="'ArialMT'" font-size="11" systemLanguage="ko"><tspan id="trsvg14-ko">화정</tspan></text><text id="Cavaleri_11_" transform="matrix(0.9792 0 0 1 560.1787 108.9131)" font-family="'ArialMT'" font-size="11"><tspan id="trsvg14">Hwajeong</tspan></text></switch>
	<switch><text id="Cavaleri_12_-ko" transform="matrix(0.9792 0 0 1 512.5254 78.1562)" font-family="'ArialMT'" font-size="11" systemLanguage="ko"><tspan id="trsvg15-ko">쌍촌</tspan></text><text id="Cavaleri_12_" transform="matrix(0.9792 0 0 1 512.5254 78.1562)" font-family="'ArialMT'" font-size="11"><tspan id="trsvg15">Ssangcheon</tspan></text></switch>
	<switch><text transform="matrix(0.9792 0 0 1 462.9395 122.1562)" font-family="'ArialMT'" font-size="11" id="trsvg29-ko" systemLanguage="ko"><tspan id="trsvg16-ko">운천</tspan></text><text transform="matrix(0.9792 0 0 1 462.9395 122.1562)" font-family="'ArialMT'" font-size="11" id="trsvg29"><tspan id="trsvg16">Uncheon </tspan></text></switch>
	<switch><text transform="matrix(0.9792 0 0 1 439.9287 132.1562)" font-family="'ArialMT'" font-size="11" id="trsvg30-ko" systemLanguage="ko"><tspan id="trsvg17-ko">(호남대학교)</tspan></text><text transform="matrix(0.9792 0 0 1 439.9287 132.1562)" font-family="'ArialMT'" font-size="11" id="trsvg30"><tspan id="trsvg17">(Honam University)</tspan></text></switch>
	<switch><text id="Cavaleri_14_-ko" transform="matrix(0.9792 0 0 1 403.5996 111.2354)" font-family="'ArialMT'" font-size="11" systemLanguage="ko"><tspan id="trsvg18-ko">상무</tspan></text><text id="Cavaleri_14_" transform="matrix(0.9792 0 0 1 403.5996 111.2354)" font-family="'ArialMT'" font-size="11"><tspan id="trsvg18">SangMu</tspan></text></switch>
	<switch><text transform="matrix(0.9792 0 0 1 396.4907 167.5)" font-family="'ArialMT'" font-size="11" id="trsvg31-ko" systemLanguage="ko"><tspan id="trsvg19-ko">김대중컨</tspan></text><text transform="matrix(0.9792 0 0 1 396.4907 167.5)" font-family="'ArialMT'" font-size="11" id="trsvg31"><tspan id="trsvg19">Kim Daejung </tspan></text></switch>
	<switch><text transform="matrix(0.9792 0 0 1 396.4907 177.5)" font-family="'ArialMT'" font-size="11" id="trsvg32-ko" systemLanguage="ko"><tspan id="trsvg20-ko">벤션센터</tspan></text><text transform="matrix(0.9792 0 0 1 396.4907 177.5)" font-family="'ArialMT'" font-size="11" id="trsvg32"><tspan id="trsvg20">Convention Center </tspan></text></switch>
	<switch><text transform="matrix(0.9792 0 0 1 396.4907 187.5)" font-family="'ArialMT'" font-size="11" id="trsvg33-ko" systemLanguage="ko"><tspan id="trsvg21-ko">(마륵)</tspan></text><text transform="matrix(0.9792 0 0 1 396.4907 187.5)" font-family="'ArialMT'" font-size="11" id="trsvg33"><tspan id="trsvg21">(Mareuk)</tspan></text></switch>
	<switch><text id="Cavaleri_16_-ko" transform="matrix(0.9792 0 0 1 211.1436 133.4023)" font-family="'ArialMT'" font-size="11" systemLanguage="ko"><tspan id="trsvg22-ko">공항</tspan></text><text id="Cavaleri_16_" transform="matrix(0.9792 0 0 1 211.1436 133.4023)" font-family="'ArialMT'" font-size="11"><tspan id="trsvg22">Airport</tspan></text></switch>
	<switch><text id="Cavaleri_17_-ko" transform="matrix(0.9792 0 0 1 123.0972 140.6523)" font-family="'ArialMT'" font-size="11" systemLanguage="ko"><tspan id="trsvg23-ko">송정공원</tspan></text><text id="Cavaleri_17_" transform="matrix(0.9792 0 0 1 123.0972 140.6523)" font-family="'ArialMT'" font-size="11"><tspan id="trsvg23">Songjeong Park</tspan></text></switch>
	<switch><text id="Cavaleri_18_-ko" transform="matrix(0.9792 0 0 1 123.3564 202.6523)" font-family="'ArialMT'" font-size="11" systemLanguage="ko"><tspan id="trsvg24-ko">광주송정역</tspan></text><text id="Cavaleri_18_" transform="matrix(0.9792 0 0 1 123.3564 202.6523)" font-family="'ArialMT'" font-size="11"><tspan id="trsvg24">Gwangju Songjeong</tspan></text></switch>
	<switch><text id="Cavaleri_19_-ko" transform="matrix(0.9792 0 0 1 52.5703 279.1523)" font-family="'ArialMT'" font-size="11" systemLanguage="ko"><tspan id="trsvg25-ko">평동</tspan></text><text id="Cavaleri_19_" transform="matrix(0.9792 0 0 1 52.5703 279.1523)" font-family="'ArialMT'" font-size="11"><tspan id="trsvg25">Pyeongdong</tspan></text></switch>
	<switch><text id="Cavaleri_20_-ko" transform="matrix(0.9792 0 0 1 94.8916 234.1523)" font-family="'ArialMT'" font-size="11" systemLanguage="ko"><tspan id="trsvg26-ko">도산</tspan></text><text id="Cavaleri_20_" transform="matrix(0.9792 0 0 1 94.8916 234.1523)" font-family="'ArialMT'" font-size="11"><tspan id="trsvg26">Dosan</tspan></text></switch>
</g>
</svg>
