<?xml version="1.0" encoding="UTF-8"?>
<!DOCTYPE svg PUBLIC "-//W3C//DTD SVG 1.1//EN" "http://www.w3.org/Graphics/SVG/1.1/DTD/svg11.dtd">
<svg xmlns="http://www.w3.org/2000/svg" version="1.1" width="1732px" height="1220px" style="shape-rendering:geometricPrecision; text-rendering:geometricPrecision; image-rendering:optimizeQuality; fill-rule:evenodd; clip-rule:evenodd" xmlns:xlink="http://www.w3.org/1999/xlink">
<g><path style="opacity:1" fill="#fefefe" d="M -0.5,-0.5 C 576.833,-0.5 1154.17,-0.5 1731.5,-0.5C 1731.5,327.833 1731.5,656.167 1731.5,984.5C 1700.13,982.521 1668.8,980.021 1637.5,977C 1573.12,959.822 1508.79,942.489 1444.5,925C 1417.05,913.513 1391.05,899.513 1366.5,883C 1336.44,860.967 1304.78,841.467 1271.5,824.5C 1272.5,818.496 1273.5,812.496 1274.5,806.5C 1287.14,802.224 1291.64,793.558 1288,780.5C 1286.69,778.359 1285.19,776.359 1283.5,774.5C 1291.82,743.692 1300.66,713.025 1310,682.5C 1313.31,669.632 1315.97,656.632 1318,643.5C 1328.81,637.881 1332.47,629.215 1329,617.5C 1327.37,614.872 1325.37,612.539 1323,610.5C 1322.83,608.833 1322.67,607.167 1322.5,605.5C 1326.12,584.645 1327.62,563.645 1327,542.5C 1324.25,533.007 1319.92,524.34 1314,516.5C 1304.81,507.499 1294.98,499.332 1284.5,492C 1272.29,485.814 1259.95,479.814 1247.5,474C 1237.06,467.222 1226.89,460.056 1217,452.5C 1214.77,435.611 1205.27,428.777 1188.5,432C 1177,424.085 1165.34,416.418 1153.5,409C 1113.25,385.96 1073.08,362.793 1033,339.5C 1029.11,322.138 1018.94,316.805 1002.5,323.5C 956.589,301.878 910.922,279.711 865.5,257C 852.723,251.63 839.556,247.463 826,244.5C 822.394,238.893 817.561,234.726 811.5,232C 803.406,229.885 796.74,232.051 791.5,238.5C 781.928,236.032 772.595,232.865 763.5,229C 717.41,203.525 668.41,186.192 616.5,177C 609.433,176.161 602.433,176.494 595.5,178C 585.061,182.05 575.395,187.384 566.5,194C 557.056,192.641 549.556,195.807 544,203.5C 542.031,207.232 541.031,211.232 541,215.5C 537.233,220.023 533.233,224.357 529,228.5C 512.346,251.829 494.179,273.996 474.5,295C 464.865,303.481 454.865,311.481 444.5,319C 430.95,314.108 420.95,318.108 414.5,331C 409.97,332.632 405.304,333.632 400.5,334C 370.486,336.044 340.486,337.378 310.5,338C 298.614,340.47 287.28,344.47 276.5,350C 272.318,354.015 268.318,358.182 264.5,362.5C 248.711,365.445 242.211,374.778 245,390.5C 228.523,417.122 213.356,444.455 199.5,472.5C 142.779,444.474 84.4461,420.307 24.5,400C 16.33,397.108 7.99662,394.942 -0.5,393.5C -0.5,262.167 -0.5,130.833 -0.5,-0.5 Z"/></g>
<g><path style="opacity:1" fill="#e27333" d="M 1271.5,824.5 C 1266.93,843.082 1261.27,861.415 1254.5,879.5C 1247.82,900.197 1239.48,920.197 1229.5,939.5C 1236.51,951.959 1233.85,961.792 1221.5,969C 1218.18,969.879 1214.85,970.713 1211.5,971.5C 1203.06,982.112 1194.06,992.279 1184.5,1002C 1168.57,1011.61 1152.9,1021.61 1137.5,1032C 1125.28,1038.44 1112.62,1043.78 1099.5,1048C 1089.77,1063.84 1078.11,1065.51 1064.5,1053C 1016.38,1051.82 968.375,1048.66 920.5,1043.5C 918.833,1043.67 917.167,1043.83 915.5,1044C 903.746,1054.7 893.079,1053.7 883.5,1041C 816.503,1035.11 749.503,1029.28 682.5,1023.5C 669.64,1032.85 658.64,1031.02 649.5,1018C 628.096,1010.31 607.096,1001.64 586.5,992C 569.324,981.158 552.99,969.158 537.5,956C 523.145,957.986 514.645,951.819 512,937.5C 507.753,934.292 503.253,931.458 498.5,929C 454.811,917.494 411.144,905.827 367.5,894C 357.276,890.556 347.942,885.556 339.5,879C 324.198,879.687 315.698,872.52 314,857.5C 300.795,837.096 289.128,815.763 279,793.5C 271.803,773.575 264.803,753.575 258,733.5C 247.17,708.838 237.17,683.838 228,658.5C 216.121,652.368 212.621,643.035 217.5,630.5C 205.391,598.729 196.724,566.063 191.5,532.5C 191.334,523.827 191.5,515.16 192,506.5C 194.883,494.998 197.383,483.664 199.5,472.5C 213.356,444.455 228.523,417.122 245,390.5C 242.211,374.778 248.711,365.445 264.5,362.5C 268.318,358.182 272.318,354.015 276.5,350C 287.28,344.47 298.614,340.47 310.5,338C 340.486,337.378 370.486,336.044 400.5,334C 405.304,333.632 409.97,332.632 414.5,331C 420.95,318.108 430.95,314.108 444.5,319C 454.865,311.481 464.865,303.481 474.5,295C 494.179,273.996 512.346,251.829 529,228.5C 533.233,224.357 537.233,220.023 541,215.5C 541.031,211.232 542.031,207.232 544,203.5C 549.556,195.807 557.056,192.641 566.5,194C 575.395,187.384 585.061,182.05 595.5,178C 602.433,176.494 609.433,176.161 616.5,177C 668.41,186.192 717.41,203.525 763.5,229C 772.595,232.865 781.928,236.032 791.5,238.5C 796.74,232.051 803.406,229.885 811.5,232C 817.561,234.726 822.394,238.893 826,244.5C 839.556,247.463 852.723,251.63 865.5,257C 910.922,279.711 956.589,301.878 1002.5,323.5C 1018.94,316.805 1029.11,322.138 1033,339.5C 1073.08,362.793 1113.25,385.96 1153.5,409C 1165.34,416.418 1177,424.085 1188.5,432C 1205.27,428.777 1214.77,435.611 1217,452.5C 1226.89,460.056 1237.06,467.222 1247.5,474C 1259.95,479.814 1272.29,485.814 1284.5,492C 1294.98,499.332 1304.81,507.499 1314,516.5C 1319.92,524.34 1324.25,533.007 1327,542.5C 1327.62,563.645 1326.12,584.645 1322.5,605.5C 1322.67,607.167 1322.83,608.833 1323,610.5C 1325.37,612.539 1327.37,614.872 1329,617.5C 1332.47,629.215 1328.81,637.881 1318,643.5C 1315.97,656.632 1313.31,669.632 1310,682.5C 1300.66,713.025 1291.82,743.692 1283.5,774.5C 1285.19,776.359 1286.69,778.359 1288,780.5C 1291.64,793.558 1287.14,802.224 1274.5,806.5C 1273.5,812.496 1272.5,818.496 1271.5,824.5 Z"/></g>
<g><path style="opacity:1" fill="#080808" d="M 413.5,186.5 C 414.675,186.281 415.675,186.614 416.5,187.5C 413.865,197.375 411.865,207.375 410.5,217.5C 409.5,217.5 408.5,217.5 407.5,217.5C 409.5,207.167 411.5,196.833 413.5,186.5 Z"/></g>
<g><path style="opacity:1" fill="#0d0d0d" d="M 423.5,186.5 C 424.5,186.5 425.5,186.5 426.5,186.5C 424.734,196.5 422.9,206.5 421,216.5C 419.951,217.517 418.784,217.684 417.5,217C 420.329,207.019 422.329,196.853 423.5,186.5 Z"/></g>
<g><path style="opacity:1" fill="#0f0f0f" d="M 375.5,188.5 C 376.675,188.281 377.675,188.614 378.5,189.5C 377.319,193.072 376.652,196.738 376.5,200.5C 380.846,200.666 385.179,200.499 389.5,200C 390.864,196.317 391.531,192.484 391.5,188.5C 392.5,188.5 393.5,188.5 394.5,188.5C 392.705,198.141 391.039,207.808 389.5,217.5C 388.5,217.5 387.5,217.5 386.5,217.5C 387.296,212.853 387.963,208.186 388.5,203.5C 384.154,203.334 379.821,203.501 375.5,204C 374.185,208.407 373.185,212.907 372.5,217.5C 371.325,217.719 370.325,217.386 369.5,216.5C 371.817,207.232 373.817,197.899 375.5,188.5 Z"/></g>
<g><path style="opacity:1" fill="#0e0e0e" d="M 403.5,187.5 C 405.176,188.183 405.843,189.517 405.5,191.5C 404.5,191.5 403.5,191.5 402.5,191.5C 402.433,190.041 402.766,188.708 403.5,187.5 Z"/></g>
<g><path style="opacity:1" fill="#101010" d="M 434.5,186.5 C 435.552,186.351 436.552,186.517 437.5,187C 436.101,191.089 435.268,195.256 435,199.5C 438.519,195.247 442.519,194.58 447,197.5C 446.825,204.217 445.992,210.883 444.5,217.5C 443.5,217.5 442.5,217.5 441.5,217.5C 443.145,211.273 444.145,204.939 444.5,198.5C 437.618,197.545 433.784,200.545 433,207.5C 431.957,210.757 431.457,214.09 431.5,217.5C 430.5,217.5 429.5,217.5 428.5,217.5C 430.243,207.119 432.243,196.785 434.5,186.5 Z"/></g>
<g><path style="opacity:1" fill="#111111" d="M 459.5,195.5 C 466.493,193.996 469.327,196.663 468,203.5C 464.556,206.883 460.39,208.216 455.5,207.5C 455.738,215.241 459.238,217.241 466,213.5C 466.658,215.108 466.158,216.275 464.5,217C 453.182,218.253 449.682,213.42 454,202.5C 454.967,199.379 456.8,197.046 459.5,195.5 Z"/></g>
<g><path style="opacity:1" fill="#131313" d="M 514.5,186.5 C 515.675,186.281 516.675,186.614 517.5,187.5C 515.114,197.428 513.114,207.428 511.5,217.5C 510.5,217.5 509.5,217.5 508.5,217.5C 508.649,216.448 508.483,215.448 508,214.5C 504.531,217.916 500.864,218.25 497,215.5C 493.802,207.586 495.636,201.086 502.5,196C 506.18,194.973 509.347,195.806 512,198.5C 513.283,194.586 514.116,190.586 514.5,186.5 Z"/></g>
<g><path style="opacity:1" fill="#090909" d="M 401.5,195.5 C 402.649,195.791 403.316,196.624 403.5,198C 402.228,204.528 400.894,211.028 399.5,217.5C 398.448,217.649 397.448,217.483 396.5,217C 398.241,209.868 399.908,202.702 401.5,195.5 Z"/></g>
<g><path style="opacity:1" fill="#141414" d="M 479.5,195.5 C 483.192,194.971 486.358,195.971 489,198.5C 489.669,195.733 490.836,195.233 492.5,197C 490.587,203.73 489.254,210.563 488.5,217.5C 487.5,217.5 486.5,217.5 485.5,217.5C 485.649,216.448 485.483,215.448 485,214.5C 482.347,217.194 479.18,218.027 475.5,217C 472.121,212.536 471.621,207.703 474,202.5C 475.666,200.004 477.5,197.671 479.5,195.5 Z"/></g>
<g><path style="opacity:1" fill="#fefefe" d="M 1253.5,816.5 C 1227.78,804.819 1200.78,797.986 1172.5,796C 1154.2,794.377 1135.87,793.377 1117.5,793C 1039.26,795.703 961.93,788.703 885.5,772C 843.789,760.822 802.123,749.489 760.5,738C 736.775,729.47 714.108,718.803 692.5,706C 652.261,688.545 611.594,672.212 570.5,657C 454.206,598.02 337.539,539.853 220.5,482.5C 230.638,454.224 243.971,427.558 260.5,402.5C 277.738,400.146 284.404,390.646 280.5,374C 287.167,369.667 293.833,365.333 300.5,361C 306.442,359.13 312.442,357.464 318.5,356C 344.843,355.244 371.177,354.244 397.5,353C 405.182,352.747 412.682,351.58 420,349.5C 429.617,357.716 438.951,357.383 448,348.5C 450.408,344.942 452.242,341.109 453.5,337C 468.209,326.631 482.042,315.131 495,302.5C 503.667,292.5 512.333,282.5 521,272.5C 531.118,258.714 541.618,245.214 552.5,232C 570.12,234.222 579.454,226.389 580.5,208.5C 588.939,201.445 598.606,197.445 609.5,196.5C 643.553,201.764 676.553,210.931 708.5,224C 725.833,232.333 743.167,240.667 760.5,249C 769.046,252.071 777.712,254.738 786.5,257C 789.483,259.914 792.483,262.914 795.5,266C 800.106,269.033 805.106,270.033 810.5,269C 814.292,267.363 817.959,265.53 821.5,263.5C 833.123,266.097 844.456,269.597 855.5,274C 901.255,296.878 947.255,319.211 993.5,341C 998.459,355.813 1008.46,361.146 1023.5,357C 1059.5,377.667 1095.5,398.333 1131.5,419C 1147.24,428.242 1162.57,438.075 1177.5,448.5C 1179.92,464.754 1189.26,471.587 1205.5,469C 1215.82,476.827 1226.49,484.161 1237.5,491C 1249.2,496.674 1260.87,502.34 1272.5,508C 1281.29,514.454 1289.79,521.287 1298,528.5C 1300.67,532.5 1303.33,536.5 1306,540.5C 1307.79,545.013 1308.96,549.68 1309.5,554.5C 1308.03,572.623 1305.7,590.623 1302.5,608.5C 1294.12,613.595 1290.95,620.929 1293,630.5C 1294.29,634.24 1296.46,637.407 1299.5,640C 1297.39,652.947 1294.56,665.781 1291,678.5C 1281.64,708.087 1273.14,737.92 1265.5,768C 1260.02,771.813 1255.52,776.646 1252,782.5C 1250.41,789.784 1251.91,796.284 1256.5,802C 1255.26,806.795 1254.26,811.629 1253.5,816.5 Z"/></g>
<g><path style="opacity:1" fill="#e3e3e3" d="M 461.5,197.5 C 465.071,197.408 466.238,199.074 465,202.5C 462.695,204.93 459.862,205.93 456.5,205.5C 456.667,201.821 458.334,199.154 461.5,197.5 Z"/></g>
<g><path style="opacity:1" fill="#f3f3f3" d="M 480.5,198.5 C 482.527,198.338 484.527,198.505 486.5,199C 488.536,206.4 486.203,211.9 479.5,215.5C 476.706,214.602 475.372,212.602 475.5,209.5C 475.833,205.17 477.5,201.504 480.5,198.5 Z"/></g>
<g><path style="opacity:1" fill="#efefef" d="M 504.5,197.5 C 508.824,197.158 510.824,199.158 510.5,203.5C 510.309,209.231 507.642,213.231 502.5,215.5C 499.458,214.952 498.124,213.119 498.5,210C 498.775,204.951 500.775,200.785 504.5,197.5 Z"/></g>
<g><path style="opacity:1" fill="#0d0d0d" d="M 879.5,198.5 C 880.5,198.5 881.5,198.5 882.5,198.5C 880.734,208.5 878.9,218.5 877,228.5C 875.951,229.517 874.784,229.684 873.5,229C 876.329,219.019 878.329,208.853 879.5,198.5 Z"/></g>
<g><path style="opacity:1" fill="#fefffe" d="M 556.5,200.5 C 571.961,201.088 576.461,208.421 570,222.5C 563.91,227.574 557.743,227.74 551.5,223C 545.004,213.609 546.671,206.109 556.5,200.5 Z"/></g>
<g><path style="opacity:1" fill="#141414" d="M 836.5,200.5 C 837.5,200.5 838.5,200.5 839.5,200.5C 838.663,204.834 838.163,209.168 838,213.5C 842.167,209.333 846.333,205.167 850.5,201C 851.833,200.333 853.167,200.333 854.5,201C 850.318,205.015 846.318,209.182 842.5,213.5C 844.74,218.726 847.074,223.893 849.5,229C 848.207,229.49 846.873,229.657 845.5,229.5C 844.457,224.353 842.457,219.686 839.5,215.5C 837.803,216.364 836.637,217.697 836,219.5C 834.957,222.757 834.457,226.09 834.5,229.5C 833.5,229.5 832.5,229.5 831.5,229.5C 833.295,219.859 834.961,210.192 836.5,200.5 Z"/></g>
<g><path style="opacity:1" fill="#1a1a1a" d="M 909.5,199.5 C 910.995,199.415 911.995,200.081 912.5,201.5C 911.68,203.111 910.346,203.778 908.5,203.5C 908.433,202.041 908.766,200.708 909.5,199.5 Z"/></g>
<g><path style="opacity:1" fill="#1a1a1a" d="M 983.5,199.5 C 984.995,199.415 985.995,200.081 986.5,201.5C 985.68,203.111 984.346,203.778 982.5,203.5C 982.433,202.041 982.766,200.708 983.5,199.5 Z"/></g>
<g><path style="opacity:1" fill="#121212" d="M 861.5,207.5 C 868.493,205.996 871.327,208.663 870,215.5C 866.408,218.53 862.242,219.864 857.5,219.5C 857.507,227.168 860.84,229.168 867.5,225.5C 868.386,226.325 868.719,227.325 868.5,228.5C 856.693,231.861 852.193,227.527 855,215.5C 856.305,212.039 858.471,209.372 861.5,207.5 Z"/></g>
<g><path style="opacity:1" fill="#101010" d="M 943.5,198.5 C 944.552,198.351 945.552,198.517 946.5,199C 945.101,203.089 944.268,207.256 944,211.5C 947.827,206.786 951.827,206.453 956,210.5C 957.589,217.2 956.089,223.034 951.5,228C 947.407,230.317 943.74,229.817 940.5,226.5C 939.833,227.5 939.167,228.5 938.5,229.5C 938.167,228.667 937.833,227.833 937.5,227C 939.567,217.5 941.567,208 943.5,198.5 Z"/></g>
<g><path style="opacity:1" fill="#171717" d="M 1006.5,198.5 C 1007.5,198.5 1008.5,198.5 1009.5,198.5C 1007.8,208.983 1005.47,219.316 1002.5,229.5C 1001.72,228.271 1001.22,226.938 1001,225.5C 998.293,229.035 994.793,230.202 990.5,229C 985.981,221.633 986.981,214.967 993.5,209C 997.474,206.636 1000.97,207.136 1004,210.5C 1005.47,206.622 1006.3,202.622 1006.5,198.5 Z"/></g>
<g><path style="opacity:1" fill="#121212" d="M 1039.5,207.5 C 1046.49,205.996 1049.33,208.663 1048,215.5C 1044.41,218.53 1040.24,219.864 1035.5,219.5C 1035.51,227.168 1038.84,229.168 1045.5,225.5C 1046.39,226.325 1046.72,227.325 1046.5,228.5C 1034.69,231.861 1030.19,227.527 1033,215.5C 1034.3,212.039 1036.47,209.372 1039.5,207.5 Z"/></g>
<g><path style="opacity:1" fill="#151515" d="M 884.5,207.5 C 885.5,207.5 886.5,207.5 887.5,207.5C 888.25,213.834 889.084,220.167 890,226.5C 892.912,220.342 896.079,214.342 899.5,208.5C 900.5,207.167 901.5,207.167 902.5,208.5C 899.255,215.324 895.755,221.991 892,228.5C 890.301,229.406 888.467,229.739 886.5,229.5C 886.604,222.076 885.937,214.743 884.5,207.5 Z"/></g>
<g><path style="opacity:1" fill="#0c0c0c" d="M 907.5,207.5 C 908.675,207.281 909.675,207.614 910.5,208.5C 908.396,215.355 907.062,222.355 906.5,229.5C 905.5,229.5 904.5,229.5 903.5,229.5C 904.704,222.146 906.037,214.813 907.5,207.5 Z"/></g>
<g><path style="opacity:1" fill="#121212" d="M 917.5,207.5 C 918.5,207.5 919.5,207.5 920.5,207.5C 920.281,208.675 920.614,209.675 921.5,210.5C 925.417,206.532 929.251,206.532 933,210.5C 932.121,216.752 931.288,223.085 930.5,229.5C 929.5,229.5 928.5,229.5 927.5,229.5C 928.1,224.666 928.766,219.833 929.5,215C 928.472,208.239 925.638,207.739 921,213.5C 918.301,218.497 916.801,223.83 916.5,229.5C 915.325,229.719 914.325,229.386 913.5,228.5C 915.348,221.592 916.682,214.592 917.5,207.5 Z"/></g>
<g><path style="opacity:1" fill="#0e0e0e" d="M 965.5,207.5 C 967.045,208.23 967.878,209.563 968,211.5C 969.894,208.156 972.727,206.822 976.5,207.5C 976.5,208.5 976.5,209.5 976.5,210.5C 973.03,209.875 970.196,210.875 968,213.5C 965.876,218.663 964.376,223.996 963.5,229.5C 962.448,229.649 961.448,229.483 960.5,229C 962.241,221.868 963.908,214.702 965.5,207.5 Z"/></g>
<g><path style="opacity:1" fill="#0c0c0c" d="M 981.5,207.5 C 982.675,207.281 983.675,207.614 984.5,208.5C 982.396,215.355 981.062,222.355 980.5,229.5C 979.5,229.5 978.5,229.5 977.5,229.5C 978.704,222.146 980.037,214.813 981.5,207.5 Z"/></g>
<g><path style="opacity:1" fill="#e1e1e1" d="M 863.5,209.5 C 867.071,209.408 868.238,211.074 867,214.5C 864.219,217.152 861.052,217.819 857.5,216.5C 858.833,213.507 860.833,211.173 863.5,209.5 Z"/></g>
<g><path style="opacity:1" fill="#f1f1f1" d="M 948.5,209.5 C 952.305,209.643 953.971,211.643 953.5,215.5C 953.696,221.124 951.363,225.124 946.5,227.5C 943.03,227.028 941.363,225.028 941.5,221.5C 942.295,216.574 944.628,212.574 948.5,209.5 Z"/></g>
<g><path style="opacity:1" fill="#efefef" d="M 997.5,209.5 C 1000.92,209.757 1002.92,211.59 1003.5,215C 1002.94,221.044 999.937,225.211 994.5,227.5C 993.558,227.392 992.725,227.059 992,226.5C 990.076,219.441 991.91,213.775 997.5,209.5 Z"/></g>
<g><path style="opacity:1" fill="#e1e1e1" d="M 1041.5,209.5 C 1045.07,209.408 1046.24,211.074 1045,214.5C 1042.22,217.152 1039.05,217.819 1035.5,216.5C 1036.83,213.507 1038.83,211.173 1041.5,209.5 Z"/></g>
<g><path style="opacity:1" fill="#171717" d="M 1017.5,207.5 C 1022.21,207.173 1026.88,207.507 1031.5,208.5C 1029.83,209.167 1028.17,209.833 1026.5,210.5C 1028.13,218.38 1024.8,222.213 1016.5,222C 1013.83,223.333 1013.83,224.667 1016.5,226C 1019.29,226.241 1021.96,226.908 1024.5,228C 1027.13,231.199 1026.8,234.199 1023.5,237C 1018.96,239.699 1014.29,240.032 1009.5,238C 1006.24,233.233 1007.24,229.566 1012.5,227C 1011.11,224.006 1012.11,222.006 1015.5,221C 1011.19,215.731 1011.85,211.231 1017.5,207.5 Z"/></g>
<g><path style="opacity:1" fill="#eaeaea" d="M 1018.5,209.5 C 1024.07,208.753 1025.9,211.087 1024,216.5C 1020.48,220.737 1017.65,220.403 1015.5,215.5C 1015.98,213.199 1016.98,211.199 1018.5,209.5 Z"/></g>
<g><path style="opacity:1" fill="#f0f0f0" d="M 1013.5,228.5 C 1016.65,228.211 1019.65,228.711 1022.5,230C 1023.88,232.54 1023.21,234.54 1020.5,236C 1017.5,236.667 1014.5,236.667 1011.5,236C 1009.84,232.777 1010.51,230.277 1013.5,228.5 Z"/></g>
<g><path style="opacity:1" fill="#fefffe" d="M 802.5,237.5 C 817.961,238.088 822.461,245.421 816,259.5C 809.91,264.574 803.743,264.74 797.5,260C 791.004,250.609 792.671,243.109 802.5,237.5 Z"/></g>
<g><path style="opacity:1" fill="#0b0b0b" d="M 308.5,274.5 C 309.552,274.351 310.552,274.517 311.5,275C 308.671,284.981 306.671,295.147 305.5,305.5C 304.5,305.5 303.5,305.5 302.5,305.5C 304.243,295.119 306.243,284.785 308.5,274.5 Z"/></g>
<g><path style="opacity:1" fill="#070707" d="M 418.5,274.5 C 419.675,274.281 420.675,274.614 421.5,275.5C 418.865,285.375 416.865,295.375 415.5,305.5C 414.5,305.5 413.5,305.5 412.5,305.5C 414.5,295.167 416.5,284.833 418.5,274.5 Z"/></g>
<g><path style="opacity:1" fill="#0d0d0d" d="M 428.5,274.5 C 429.5,274.5 430.5,274.5 431.5,274.5C 429.734,284.5 427.9,294.5 426,304.5C 424.951,305.517 423.784,305.684 422.5,305C 425.329,295.019 427.329,284.853 428.5,274.5 Z"/></g>
<g><path style="opacity:1" fill="#181818" d="M 337.5,275.5 C 338.5,275.5 339.5,275.5 340.5,275.5C 340.5,276.833 340.5,278.167 340.5,279.5C 339.5,279.5 338.5,279.5 337.5,279.5C 337.5,278.167 337.5,276.833 337.5,275.5 Z"/></g>
<g><path style="opacity:1" fill="#141414" d="M 265.5,276.5 C 266.675,276.281 267.675,276.614 268.5,277.5C 267.172,281.799 266.338,286.132 266,290.5C 270.5,286 275,281.5 279.5,277C 280.635,276.251 281.635,276.417 282.5,277.5C 278.634,281.53 274.967,285.697 271.5,290C 273.804,295.084 275.804,300.251 277.5,305.5C 276.325,305.719 275.325,305.386 274.5,304.5C 272.757,300.016 270.757,295.683 268.5,291.5C 267.252,292.04 266.085,292.707 265,293.5C 263.972,297.473 263.139,301.473 262.5,305.5C 261.325,305.719 260.325,305.386 259.5,304.5C 261.817,295.232 263.817,285.899 265.5,276.5 Z"/></g>
<g><path style="opacity:1" fill="#111111" d="M 289.5,283.5 C 296.493,281.996 299.327,284.663 298,291.5C 294.556,294.883 290.39,296.216 285.5,295.5C 285.738,303.241 289.238,305.241 296,301.5C 296.658,303.108 296.158,304.275 294.5,305C 283.182,306.253 279.682,301.42 284,290.5C 284.967,287.379 286.8,285.046 289.5,283.5 Z"/></g>
<g><path style="opacity:1" fill="#151515" d="M 371.5,274.5 C 372.5,274.5 373.5,274.5 374.5,274.5C 373.942,278.792 372.942,282.959 371.5,287C 373.991,285.738 376.658,284.571 379.5,283.5C 382.006,283.335 383.839,284.335 385,286.5C 384.121,292.752 383.288,299.085 382.5,305.5C 381.5,305.5 380.5,305.5 379.5,305.5C 380.1,300.666 380.766,295.833 381.5,291C 380.472,284.239 377.638,283.739 373,289.5C 370.301,294.497 368.801,299.83 368.5,305.5C 367.325,305.719 366.325,305.386 365.5,304.5C 367.886,294.572 369.886,284.572 371.5,274.5 Z"/></g>
<g><path style="opacity:1" fill="#121212" d="M 313.5,283.5 C 314.5,283.5 315.5,283.5 316.5,283.5C 316.573,289.895 317.239,296.228 318.5,302.5C 321.408,296.351 324.574,290.351 328,284.5C 329.049,283.483 330.216,283.316 331.5,284C 327.961,290.913 324.294,297.746 320.5,304.5C 318.955,305.452 317.288,305.785 315.5,305.5C 314.927,298.158 314.261,290.824 313.5,283.5 Z"/></g>
<g><path style="opacity:1" fill="#090909" d="M 335.5,283.5 C 336.5,283.5 337.5,283.5 338.5,283.5C 337.167,290.833 335.833,298.167 334.5,305.5C 333.325,305.719 332.325,305.386 331.5,304.5C 333.348,297.592 334.682,290.592 335.5,283.5 Z"/></g>
<g><path style="opacity:1" fill="#0b0b0b" d="M 346.5,283.5 C 348.045,284.23 348.878,285.563 349,287.5C 352.356,283.052 356.356,282.385 361,285.5C 360.502,292.171 359.669,298.838 358.5,305.5C 357.5,305.5 356.5,305.5 355.5,305.5C 356.241,300.13 357.241,294.796 358.5,289.5C 358.225,287.391 357.058,286.058 355,285.5C 352.501,286.083 350.501,287.416 349,289.5C 346.876,294.663 345.376,299.996 344.5,305.5C 343.448,305.649 342.448,305.483 341.5,305C 343.241,297.868 344.908,290.702 346.5,283.5 Z"/></g>
<g><path style="opacity:1" fill="#171717" d="M 397.5,283.5 C 400.97,282.875 403.804,283.875 406,286.5C 406.833,285.5 407.667,284.5 408.5,283.5C 408.833,284.167 409.167,284.833 409.5,285.5C 408.143,292.262 406.476,298.929 404.5,305.5C 403.719,304.271 403.219,302.938 403,301.5C 400.293,305.035 396.793,306.202 392.5,305C 387.699,296.408 389.365,289.241 397.5,283.5 Z"/></g>
<g><path style="opacity:1" fill="#e3e3e3" d="M 291.5,285.5 C 295.071,285.408 296.238,287.074 295,290.5C 292.695,292.93 289.862,293.93 286.5,293.5C 286.667,289.821 288.334,287.154 291.5,285.5 Z"/></g>
<g><path style="opacity:1" fill="#f4f4f4" d="M 399.5,285.5 C 401.39,285.297 402.89,285.963 404,287.5C 405.707,294.741 403.374,300.074 397,303.5C 396.127,303.265 395.293,302.931 394.5,302.5C 392.08,295.474 393.747,289.808 399.5,285.5 Z"/></g>
<g><path style="opacity:1" fill="#181818" d="M 1051.5,301.5 C 1055.11,301.211 1058.61,301.544 1062,302.5C 1062.75,303.635 1062.58,304.635 1061.5,305.5C 1058.33,303.031 1054.99,302.864 1051.5,305C 1050.41,307.064 1050.24,309.231 1051,311.5C 1053.49,313.743 1056.15,315.743 1059,317.5C 1061.6,323.138 1060.1,327.305 1054.5,330C 1050.85,330.499 1047.18,330.665 1043.5,330.5C 1043.34,329.127 1043.51,327.793 1044,326.5C 1045.74,327.127 1047.57,327.46 1049.5,327.5C 1055.51,327.991 1057.67,325.324 1056,319.5C 1053.33,317.5 1050.67,315.5 1048,313.5C 1045.46,308.361 1046.62,304.361 1051.5,301.5 Z"/></g>
<g><path style="opacity:1" fill="#151515" d="M 1107.5,321.5 C 1108.43,320.432 1108.77,319.099 1108.5,317.5C 1106.22,317.923 1104.55,317.256 1103.5,315.5C 1106.17,315.5 1108.83,315.5 1111.5,315.5C 1111.01,320.274 1110.01,324.941 1108.5,329.5C 1095.02,333.355 1088.85,328.355 1090,314.5C 1093.98,302.315 1101.81,298.649 1113.5,303.5C 1113.19,304.308 1112.69,304.975 1112,305.5C 1103.25,301.874 1097.25,304.541 1094,313.5C 1091.07,325.057 1095.24,329.39 1106.5,326.5C 1107.31,324.929 1107.64,323.262 1107.5,321.5 Z"/></g>
<g><path style="opacity:1" fill="#0b0b0b" d="M 1220.5,301.5 C 1221.5,301.5 1222.5,301.5 1223.5,301.5C 1223.31,305.074 1222.31,308.407 1220.5,311.5C 1220.18,308.295 1220.18,304.962 1220.5,301.5 Z"/></g>
<g><path style="opacity:1" fill="#151515" d="M 1275.5,301.5 C 1279.18,301.335 1282.85,301.501 1286.5,302C 1286.96,302.414 1287.29,302.914 1287.5,303.5C 1273,302.853 1267.17,309.853 1270,324.5C 1270.83,325.333 1271.67,326.167 1272.5,327C 1275.88,327.176 1279.22,327.676 1282.5,328.5C 1282.29,329.086 1281.96,329.586 1281.5,330C 1273.65,332.579 1268.48,330.079 1266,322.5C 1264.85,313.47 1268.02,306.47 1275.5,301.5 Z"/></g>
<g><path style="opacity:1" fill="#0f0f0f" d="M 1070.5,303.5 C 1072.26,304.552 1072.92,306.219 1072.5,308.5C 1074.29,308.215 1075.95,308.548 1077.5,309.5C 1075.58,310.308 1073.58,310.808 1071.5,311C 1069.37,316.301 1068.54,321.801 1069,327.5C 1070.51,328.09 1072.01,328.756 1073.5,329.5C 1070.72,330.952 1068.22,330.619 1066,328.5C 1065.85,322.718 1066.69,317.051 1068.5,311.5C 1064.8,310.263 1064.97,308.93 1069,307.5C 1069.79,306.255 1070.29,304.922 1070.5,303.5 Z"/></g>
<g><path style="opacity:1" fill="#131313" d="M 1124.5,320.5 C 1122.83,320.5 1121.17,320.5 1119.5,320.5C 1119.22,322.415 1119.55,324.081 1120.5,325.5C 1120.95,326.458 1121.62,327.292 1122.5,328C 1125.28,328.051 1127.94,328.218 1130.5,328.5C 1122.07,333.029 1117.4,330.529 1116.5,321C 1118.1,310.668 1123.6,307.168 1133,310.5C 1134.02,316.986 1131.19,320.319 1124.5,320.5 Z"/></g>
<g><path style="opacity:1" fill="#1a1a1a" d="M 1144.5,308.5 C 1151.56,307.576 1155.23,310.576 1155.5,317.5C 1154.4,329.629 1148.56,332.962 1138,327.5C 1135.06,319.38 1137.23,313.047 1144.5,308.5 Z"/></g>
<g><path style="opacity:1" fill="#131313" d="M 1204.5,320.5 C 1202.83,320.5 1201.17,320.5 1199.5,320.5C 1199.22,322.415 1199.55,324.081 1200.5,325.5C 1200.95,326.458 1201.62,327.292 1202.5,328C 1205.28,328.051 1207.94,328.218 1210.5,328.5C 1202.07,333.029 1197.4,330.529 1196.5,321C 1198.1,310.668 1203.6,307.168 1213,310.5C 1214.02,316.986 1211.19,320.319 1204.5,320.5 Z"/></g>
<g><path style="opacity:1" fill="#141414" d="M 1240.5,308.5 C 1243.19,308.336 1245.85,308.503 1248.5,309C 1249.31,309.308 1249.97,309.808 1250.5,310.5C 1247.55,311.321 1244.55,311.821 1241.5,312C 1240.94,312.725 1240.61,313.558 1240.5,314.5C 1242.63,317.163 1245.13,319.496 1248,321.5C 1249.38,325.475 1248.21,328.309 1244.5,330C 1241.5,330.667 1238.5,330.667 1235.5,330C 1233.94,326.615 1234.61,325.949 1237.5,328C 1243.47,329.689 1245.8,327.689 1244.5,322C 1236.96,319.185 1235.62,314.685 1240.5,308.5 Z"/></g>
<g><path style="opacity:1" fill="#1a1a1a" d="M 1312.5,308.5 C 1319.56,307.576 1323.23,310.576 1323.5,317.5C 1322.4,329.629 1316.56,332.962 1306,327.5C 1303.06,319.38 1305.23,313.047 1312.5,308.5 Z"/></g>
<g><path style="opacity:1" fill="#181818" d="M 1332.5,308.5 C 1345.71,309.465 1345.71,310.631 1332.5,312C 1331.98,312.561 1331.64,313.228 1331.5,314C 1333.43,316.732 1335.93,318.899 1339,320.5C 1341.36,324.546 1340.53,327.713 1336.5,330C 1333.5,330.667 1330.5,330.667 1327.5,330C 1326.29,329.107 1326.29,328.274 1327.5,327.5C 1331.83,329.455 1335.16,328.455 1337.5,324.5C 1334.8,321.727 1331.97,319.06 1329,316.5C 1327.78,312.707 1328.95,310.04 1332.5,308.5 Z"/></g>
<g><path style="opacity:1" fill="#141414" d="M 1349.5,308.5 C 1352.19,308.336 1354.85,308.503 1357.5,309C 1358.31,309.308 1358.97,309.808 1359.5,310.5C 1356.55,311.321 1353.55,311.821 1350.5,312C 1349.94,312.725 1349.61,313.558 1349.5,314.5C 1351.63,317.163 1354.13,319.496 1357,321.5C 1358.38,325.475 1357.21,328.309 1353.5,330C 1350.5,330.667 1347.5,330.667 1344.5,330C 1342.94,326.615 1343.61,325.949 1346.5,328C 1352.47,329.689 1354.8,327.689 1353.5,322C 1345.96,319.185 1344.62,314.685 1349.5,308.5 Z"/></g>
<g><path style="opacity:1" fill="#131313" d="M 1163.5,308.5 C 1164.5,308.5 1165.5,308.5 1166.5,308.5C 1166.35,309.552 1166.52,310.552 1167,311.5C 1169,309.253 1171.5,308.253 1174.5,308.5C 1174.5,309.5 1174.5,310.5 1174.5,311.5C 1170.73,310.822 1167.89,312.156 1166,315.5C 1163.88,320.274 1162.71,325.274 1162.5,330.5C 1161.5,330.5 1160.5,330.5 1159.5,330.5C 1160.96,323.193 1162.29,315.859 1163.5,308.5 Z"/></g>
<g><path style="opacity:1" fill="#111111" d="M 1292.5,308.5 C 1294.05,309.23 1294.88,310.563 1295,312.5C 1296.89,309.156 1299.73,307.822 1303.5,308.5C 1303.5,309.5 1303.5,310.5 1303.5,311.5C 1297.58,310.914 1294.08,313.581 1293,319.5C 1292.06,323.114 1291.56,326.78 1291.5,330.5C 1290.5,330.5 1289.5,330.5 1288.5,330.5C 1289.7,323.146 1291.04,315.813 1292.5,308.5 Z"/></g>
<g><path style="opacity:1" fill="#e2e2e2" d="M 1125.5,310.5 C 1132.16,312.715 1132.16,315.215 1125.5,318C 1123.74,318.798 1122.07,318.631 1120.5,317.5C 1121.8,314.87 1123.47,312.537 1125.5,310.5 Z"/></g>
<g><path style="opacity:1" fill="#f5f5f5" d="M 1144.5,311.5 C 1149.5,310.235 1152.17,312.068 1152.5,317C 1152.6,322.648 1150.1,326.481 1145,328.5C 1141.11,327.794 1139.61,325.461 1140.5,321.5C 1140.19,317.461 1141.52,314.127 1144.5,311.5 Z"/></g>
<g><path style="opacity:1" fill="#e2e2e2" d="M 1205.5,310.5 C 1212.16,312.715 1212.16,315.215 1205.5,318C 1203.74,318.798 1202.07,318.631 1200.5,317.5C 1201.8,314.87 1203.47,312.537 1205.5,310.5 Z"/></g>
<g><path style="opacity:1" fill="#f5f5f5" d="M 1312.5,311.5 C 1317.5,310.235 1320.17,312.068 1320.5,317C 1320.6,322.648 1318.1,326.481 1313,328.5C 1309.11,327.794 1307.61,325.461 1308.5,321.5C 1308.19,317.461 1309.52,314.127 1312.5,311.5 Z"/></g>
<g><path style="opacity:1" fill="#717171" d="M 1103.5,315.5 C 1104.55,317.256 1106.22,317.923 1108.5,317.5C 1108.77,319.099 1108.43,320.432 1107.5,321.5C 1107.5,320.5 1107.5,319.5 1107.5,318.5C 1105.83,318.5 1104.17,318.5 1102.5,318.5C 1102.26,317.209 1102.6,316.209 1103.5,315.5 Z"/></g>
<g><path style="opacity:1" fill="#9b9b9b" d="M 1124.5,320.5 C 1123.43,321.434 1122.1,321.768 1120.5,321.5C 1120.5,322.833 1120.5,324.167 1120.5,325.5C 1119.55,324.081 1119.22,322.415 1119.5,320.5C 1121.17,320.5 1122.83,320.5 1124.5,320.5 Z"/></g>
<g><path style="opacity:1" fill="#9b9b9b" d="M 1204.5,320.5 C 1203.43,321.434 1202.1,321.768 1200.5,321.5C 1200.5,322.833 1200.5,324.167 1200.5,325.5C 1199.55,324.081 1199.22,322.415 1199.5,320.5C 1201.17,320.5 1202.83,320.5 1204.5,320.5 Z"/></g>
<g><path style="opacity:1" fill="#fefffe" d="M 429.5,323.5 C 444.961,324.088 449.461,331.421 443,345.5C 436.91,350.574 430.743,350.74 424.5,346C 418.004,336.609 419.671,329.109 429.5,323.5 Z"/></g>
<g><path style="opacity:1" fill="#181818" d="M 1181.5,308.5 C 1186.21,308.173 1190.88,308.507 1195.5,309.5C 1194.31,310.429 1192.98,310.762 1191.5,310.5C 1193.01,319.157 1189.35,323.324 1180.5,323C 1179.07,324.714 1179.41,326.047 1181.5,327C 1189.96,326.444 1192.46,329.944 1189,337.5C 1184.9,340.291 1180.4,341.125 1175.5,340C 1173.2,338.865 1171.86,337.032 1171.5,334.5C 1174.88,330.559 1177.54,326.226 1179.5,321.5C 1176.44,316.582 1177.11,312.249 1181.5,308.5 Z"/></g>
<g><path style="opacity:1" fill="#f1f1f1" d="M 1183.5,310.5 C 1186.93,309.755 1188.6,311.089 1188.5,314.5C 1188.15,319.582 1185.65,321.249 1181,319.5C 1179.93,315.858 1180.76,312.858 1183.5,310.5 Z"/></g>
<g><path style="opacity:1" fill="#fefffe" d="M 1009.5,326.5 C 1024.96,327.088 1029.46,334.421 1023,348.5C 1016.91,353.574 1010.74,353.74 1004.5,349C 998.004,339.609 999.671,332.109 1009.5,326.5 Z"/></g>
<g><path style="opacity:1" fill="#f1f1f1" d="M 1177.5,329.5 C 1180.65,329.211 1183.65,329.711 1186.5,331C 1188.14,333.776 1187.47,335.776 1184.5,337C 1181.5,337.667 1178.5,337.667 1175.5,337C 1174.45,335.612 1174.28,334.112 1175,332.5C 1176.04,331.627 1176.88,330.627 1177.5,329.5 Z"/></g>
<g><path style="opacity:1" fill="#0f0f0f" d="M 118.5,359.5 C 115.612,358.99 113.279,359.656 111.5,361.5C 110.706,364.802 110.04,368.135 109.5,371.5C 108.325,371.719 107.325,371.386 106.5,370.5C 108.817,361.232 110.817,351.899 112.5,342.5C 116.936,342.21 121.27,342.71 125.5,344C 129.23,351.991 126.897,357.158 118.5,359.5 Z"/></g>
<g><path style="opacity:1" fill="#1a1a1a" d="M 188.5,341.5 C 189.995,341.415 190.995,342.081 191.5,343.5C 190.68,345.111 189.346,345.778 187.5,345.5C 187.433,344.041 187.766,342.708 188.5,341.5 Z"/></g>
<g><path style="opacity:1" fill="#f3f3f3" d="M 118.5,356.5 C 116.833,356.5 115.167,356.5 113.5,356.5C 113.5,355.5 113.5,354.5 113.5,353.5C 113.833,350.833 114.167,348.167 114.5,345.5C 122.91,343.734 125.743,346.734 123,354.5C 121.67,355.582 120.17,356.249 118.5,356.5 Z"/></g>
<g><path style="opacity:1" fill="#131313" d="M 171.5,354.5 C 172.404,353.791 172.737,352.791 172.5,351.5C 171.209,351.737 170.209,351.404 169.5,350.5C 172.449,349.386 174.615,347.386 176,344.5C 176.494,346.134 176.66,347.801 176.5,349.5C 178.167,349.5 179.833,349.5 181.5,349.5C 181.5,350.5 181.5,351.5 181.5,352.5C 179.208,352.244 177.041,352.577 175,353.5C 173.513,358.431 172.846,363.431 173,368.5C 174.509,369.09 176.009,369.756 177.5,370.5C 174.718,371.952 172.218,371.619 170,369.5C 170.002,364.476 170.502,359.476 171.5,354.5 Z"/></g>
<g><path style="opacity:1" fill="#181818" d="M 200.5,349.5 C 203.167,349.5 205.833,349.5 208.5,349.5C 208.719,350.675 208.386,351.675 207.5,352.5C 202.617,351.023 199.117,352.69 197,357.5C 196.333,360.833 196.333,364.167 197,367.5C 197.5,368 198,368.5 198.5,369C 201.277,369.051 203.943,369.218 206.5,369.5C 198.729,373.794 194.062,371.627 192.5,363C 193.259,357.307 195.926,352.807 200.5,349.5 Z"/></g>
<g><path style="opacity:1" fill="#171717" d="M 137.5,349.5 C 140.97,348.875 143.804,349.875 146,352.5C 146.833,351.5 147.667,350.5 148.5,349.5C 148.833,350.167 149.167,350.833 149.5,351.5C 148.143,358.262 146.476,364.929 144.5,371.5C 143.719,370.271 143.219,368.938 143,367.5C 140.293,371.035 136.793,372.202 132.5,371C 127.699,362.408 129.365,355.241 137.5,349.5 Z"/></g>
<g><path style="opacity:1" fill="#121212" d="M 167.5,349.5 C 167.5,350.167 167.5,350.833 167.5,351.5C 164,351.802 161.166,353.468 159,356.5C 156.878,361.274 155.712,366.274 155.5,371.5C 154.5,371.5 153.5,371.5 152.5,371.5C 153.962,364.189 155.296,356.855 156.5,349.5C 157.5,349.5 158.5,349.5 159.5,349.5C 159.351,350.552 159.517,351.552 160,352.5C 161.995,350.253 164.495,349.253 167.5,349.5 Z"/></g>
<g><path style="opacity:1" fill="#0c0c0c" d="M 186.5,349.5 C 187.675,349.281 188.675,349.614 189.5,350.5C 187.396,357.355 186.062,364.355 185.5,371.5C 184.5,371.5 183.5,371.5 182.5,371.5C 183.704,364.146 185.037,356.813 186.5,349.5 Z"/></g>
<g><path style="opacity:1" fill="#0e0e0e" d="M 216.5,340.5 C 217.5,340.5 218.5,340.5 219.5,340.5C 218.381,347.252 217.214,353.919 216,360.5C 219.5,357 223,353.5 226.5,350C 227.5,349.333 228.5,349.333 229.5,350C 226.238,352.754 223.571,355.921 221.5,359.5C 222.89,363.281 224.557,366.947 226.5,370.5C 225.349,371.731 224.183,371.731 223,370.5C 221.589,367.421 220.089,364.421 218.5,361.5C 217.252,362.04 216.085,362.707 215,363.5C 214.433,366.168 213.933,368.834 213.5,371.5C 212.448,371.649 211.448,371.483 210.5,371C 213.073,360.966 215.073,350.799 216.5,340.5 Z"/></g>
<g><path style="opacity:1" fill="#8f8f8f" d="M 167.5,349.5 C 168.167,349.833 168.833,350.167 169.5,350.5C 170.209,351.404 171.209,351.737 172.5,351.5C 172.737,352.791 172.404,353.791 171.5,354.5C 170.789,352.799 169.455,351.799 167.5,351.5C 167.5,350.833 167.5,350.167 167.5,349.5 Z"/></g>
<g><path style="opacity:1" fill="#f4f4f4" d="M 139.5,351.5 C 141.39,351.297 142.89,351.963 144,353.5C 145.707,360.741 143.374,366.074 137,369.5C 136.127,369.265 135.293,368.931 134.5,368.5C 132.08,361.474 133.747,355.808 139.5,351.5 Z"/></g>
<g><path style="opacity:1" fill="#939393" d="M 113.5,353.5 C 113.5,354.5 113.5,355.5 113.5,356.5C 115.167,356.5 116.833,356.5 118.5,356.5C 116.735,357.461 114.735,357.795 112.5,357.5C 112.232,355.901 112.566,354.568 113.5,353.5 Z"/></g>
<g><path style="opacity:1" fill="#9f9f9f" d="M 118.5,359.5 C 116.285,360.268 113.952,360.935 111.5,361.5C 113.279,359.656 115.612,358.99 118.5,359.5 Z"/></g>
<g><path style="opacity:1" fill="#fefffe" d="M 259.5,369.5 C 274.961,370.088 279.461,377.421 273,391.5C 266.91,396.574 260.743,396.74 254.5,392C 248.004,382.609 249.671,375.109 259.5,369.5 Z"/></g>
<g><path style="opacity:1" fill="#e4edec" d="M -0.5,393.5 C 7.99662,394.942 16.33,397.108 24.5,400C 84.4461,420.307 142.779,444.474 199.5,472.5C 197.383,483.664 194.883,494.998 192,506.5C 191.5,515.16 191.334,523.827 191.5,532.5C 130.007,499.665 66.0066,472.665 -0.5,451.5C -0.5,432.167 -0.5,412.833 -0.5,393.5 Z"/></g>
<g><path style="opacity:1" fill="#151515" d="M 1239.5,423.5 C 1243.18,423.335 1246.85,423.501 1250.5,424C 1250.96,424.414 1251.29,424.914 1251.5,425.5C 1237,424.853 1231.17,431.853 1234,446.5C 1234.83,447.333 1235.67,448.167 1236.5,449C 1239.88,449.176 1243.22,449.676 1246.5,450.5C 1246.29,451.086 1245.96,451.586 1245.5,452C 1237.65,454.579 1232.48,452.079 1230,444.5C 1228.85,435.47 1232.02,428.47 1239.5,423.5 Z"/></g>
<g><path style="opacity:1" fill="#131313" d="M 1259.5,430.5 C 1267.19,429.163 1271.19,432.33 1271.5,440C 1270.84,449.492 1265.84,453.492 1256.5,452C 1251.87,446.928 1251.37,441.428 1255,435.5C 1256.37,433.638 1257.87,431.972 1259.5,430.5 Z"/></g>
<g><path style="opacity:1" fill="#181818" d="M 1312.5,430.5 C 1315.17,430.5 1317.83,430.5 1320.5,430.5C 1320.72,431.675 1320.39,432.675 1319.5,433.5C 1314.62,432.023 1311.12,433.69 1309,438.5C 1308.33,441.833 1308.33,445.167 1309,448.5C 1309.5,449 1310,449.5 1310.5,450C 1313.28,450.051 1315.94,450.218 1318.5,450.5C 1310.73,454.794 1306.06,452.627 1304.5,444C 1305.26,438.307 1307.93,433.807 1312.5,430.5 Z"/></g>
<g><path style="opacity:1" fill="#131313" d="M 1365.5,421.5 C 1366.68,421.281 1367.68,421.614 1368.5,422.5C 1366.11,432.428 1364.11,442.428 1362.5,452.5C 1361.5,452.5 1360.5,452.5 1359.5,452.5C 1359.65,451.448 1359.48,450.448 1359,449.5C 1355.53,452.916 1351.86,453.25 1348,450.5C 1344.8,442.586 1346.64,436.086 1353.5,431C 1357.18,429.973 1360.35,430.806 1363,433.5C 1364.28,429.586 1365.12,425.586 1365.5,421.5 Z"/></g>
<g><path style="opacity:1" fill="#111111" d="M 1389.5,421.5 C 1390.55,421.351 1391.55,421.517 1392.5,422C 1389.67,431.981 1387.67,442.147 1386.5,452.5C 1385.5,452.5 1384.5,452.5 1383.5,452.5C 1383.63,447.728 1382.3,447.562 1379.5,452C 1376.53,452.895 1373.87,452.395 1371.5,450.5C 1368.81,442.466 1370.81,435.966 1377.5,431C 1381.07,429.925 1384.07,430.758 1386.5,433.5C 1387.82,429.571 1388.82,425.571 1389.5,421.5 Z"/></g>
<g><path style="opacity:1" fill="#161616" d="M 1401.5,430.5 C 1407.99,428.835 1410.82,431.168 1410,437.5C 1409.5,439.333 1408.33,440.5 1406.5,441C 1403.61,442.149 1400.61,442.649 1397.5,442.5C 1397.05,445.365 1397.72,447.865 1399.5,450C 1402.28,450.051 1404.94,450.218 1407.5,450.5C 1397.56,454.74 1393.06,451.406 1394,440.5C 1395.32,436.163 1397.82,432.83 1401.5,430.5 Z"/></g>
<g><path style="opacity:1" fill="#181818" d="M 1442.5,430.5 C 1455.71,431.465 1455.71,432.631 1442.5,434C 1441.98,434.561 1441.64,435.228 1441.5,436C 1443.43,438.732 1445.93,440.899 1449,442.5C 1451.36,446.546 1450.53,449.713 1446.5,452C 1443.5,452.667 1440.5,452.667 1437.5,452C 1436.29,451.107 1436.29,450.274 1437.5,449.5C 1441.83,451.455 1445.16,450.455 1447.5,446.5C 1444.8,443.727 1441.97,441.06 1439,438.5C 1437.78,434.707 1438.95,432.04 1442.5,430.5 Z"/></g>
<g><path style="opacity:1" fill="#181818" d="M 1276.5,430.5 C 1277.5,430.5 1278.5,430.5 1279.5,430.5C 1279.33,436.509 1279.5,442.509 1280,448.5C 1282.39,442.713 1285.06,437.046 1288,431.5C 1289.01,430.663 1290.18,430.33 1291.5,430.5C 1292.15,436.81 1292.65,443.143 1293,449.5C 1295.22,443.385 1297.72,437.385 1300.5,431.5C 1301.32,430.614 1302.32,430.281 1303.5,430.5C 1300.79,437.584 1297.79,444.584 1294.5,451.5C 1293.31,452.429 1291.98,452.762 1290.5,452.5C 1290.09,446.498 1289.59,440.498 1289,434.5C 1286.14,440.081 1283.47,445.748 1281,451.5C 1279.64,452.38 1278.14,452.714 1276.5,452.5C 1276.5,445.167 1276.5,437.833 1276.5,430.5 Z"/></g>
<g><path style="opacity:1" fill="#141414" d="M 1330.5,430.5 C 1334.08,429.923 1337.08,430.923 1339.5,433.5C 1340.29,432.758 1340.95,431.925 1341.5,431C 1342.33,430.312 1343,430.479 1343.5,431.5C 1341.4,438.355 1340.06,445.355 1339.5,452.5C 1338.5,452.5 1337.5,452.5 1336.5,452.5C 1336.65,451.448 1336.48,450.448 1336,449.5C 1331.44,453.843 1327.44,453.509 1324,448.5C 1322.55,441.085 1324.72,435.085 1330.5,430.5 Z"/></g>
<g><path style="opacity:1" fill="#121212" d="M 1417.5,430.5 C 1418.5,430.5 1419.5,430.5 1420.5,430.5C 1420.28,431.675 1420.61,432.675 1421.5,433.5C 1425.42,429.532 1429.25,429.532 1433,433.5C 1432.12,439.752 1431.29,446.085 1430.5,452.5C 1429.5,452.5 1428.5,452.5 1427.5,452.5C 1428.1,447.666 1428.77,442.833 1429.5,438C 1428.47,431.239 1425.64,430.739 1421,436.5C 1418.3,441.497 1416.8,446.83 1416.5,452.5C 1415.32,452.719 1414.32,452.386 1413.5,451.5C 1415.35,444.592 1416.68,437.592 1417.5,430.5 Z"/></g>
<g><path style="opacity:1" fill="#ececec" d="M 1260.5,433.5 C 1265.5,432.235 1268.17,434.068 1268.5,439C 1268.64,444.925 1265.97,448.759 1260.5,450.5C 1257.14,449.638 1255.47,447.471 1255.5,444C 1255.56,439.628 1257.22,436.128 1260.5,433.5 Z"/></g>
<g><path style="opacity:1" fill="#f2f2f2" d="M 1331.5,433.5 C 1333.53,433.338 1335.53,433.505 1337.5,434C 1339.54,441.4 1337.2,446.9 1330.5,450.5C 1327.22,449.872 1325.88,447.872 1326.5,444.5C 1326.82,440.19 1328.49,436.523 1331.5,433.5 Z"/></g>
<g><path style="opacity:1" fill="#efefef" d="M 1355.5,432.5 C 1359.82,432.158 1361.82,434.158 1361.5,438.5C 1361.31,444.231 1358.64,448.231 1353.5,450.5C 1350.46,449.952 1349.12,448.119 1349.5,445C 1349.78,439.951 1351.78,435.785 1355.5,432.5 Z"/></g>
<g><path style="opacity:1" fill="#f0f0f0" d="M 1379.5,432.5 C 1381.72,432.178 1383.56,432.845 1385,434.5C 1386.57,442.029 1383.9,447.363 1377,450.5C 1375.74,450.241 1374.74,449.574 1374,448.5C 1372.56,441.975 1374.4,436.642 1379.5,432.5 Z"/></g>
<g><path style="opacity:1" fill="#e6e6e6" d="M 1401.5,433.5 C 1403.5,433.5 1405.5,433.5 1407.5,433.5C 1407.5,438.332 1405,440.666 1400,440.5C 1399.17,440.167 1398.33,439.833 1397.5,439.5C 1398.47,437.21 1399.8,435.21 1401.5,433.5 Z"/></g>
<g><path style="opacity:1" fill="#fefffe" d="M 1193.5,437.5 C 1208.96,438.088 1213.46,445.421 1207,459.5C 1200.91,464.574 1194.74,464.74 1188.5,460C 1182,450.609 1183.67,443.109 1193.5,437.5 Z"/></g>
<g><path style="opacity:1" fill="#fefefe" d="M -0.5,451.5 C 66.0066,472.665 130.007,499.665 191.5,532.5C 196.724,566.063 205.391,598.729 217.5,630.5C 212.621,643.035 216.121,652.368 228,658.5C 237.17,683.838 247.17,708.838 258,733.5C 264.803,753.575 271.803,773.575 279,793.5C 289.128,815.763 300.795,837.096 314,857.5C 315.698,872.52 324.198,879.687 339.5,879C 347.942,885.556 357.276,890.556 367.5,894C 411.144,905.827 454.811,917.494 498.5,929C 503.253,931.458 507.753,934.292 512,937.5C 514.645,951.819 523.145,957.986 537.5,956C 552.99,969.158 569.324,981.158 586.5,992C 607.096,1001.64 628.096,1010.31 649.5,1018C 658.64,1031.02 669.64,1032.85 682.5,1023.5C 749.503,1029.28 816.503,1035.11 883.5,1041C 893.079,1053.7 903.746,1054.7 915.5,1044C 917.167,1043.83 918.833,1043.67 920.5,1043.5C 968.375,1048.66 1016.38,1051.82 1064.5,1053C 1078.11,1065.51 1089.77,1063.84 1099.5,1048C 1112.62,1043.78 1125.28,1038.44 1137.5,1032C 1152.9,1021.61 1168.57,1011.61 1184.5,1002C 1194.06,992.279 1203.06,982.112 1211.5,971.5C 1214.85,970.713 1218.18,969.879 1221.5,969C 1233.85,961.792 1236.51,951.959 1229.5,939.5C 1239.48,920.197 1247.82,900.197 1254.5,879.5C 1282.62,893.722 1309.29,910.222 1334.5,929C 1350.01,938.363 1365.34,947.863 1380.5,957.5C 1377.69,960.246 1376.86,963.579 1378,967.5C 1380.96,970.157 1383.96,972.824 1387,975.5C 1387.91,978.352 1387.08,980.519 1384.5,982C 1380.91,982.789 1377.41,982.622 1374,981.5C 1373.32,982.784 1373.48,983.951 1374.5,985C 1380.35,986.409 1385.52,985.243 1390,981.5C 1390.67,978.833 1390.67,976.167 1390,973.5C 1387,971.167 1384,968.833 1381,966.5C 1379.91,963.386 1380.75,961.053 1383.5,959.5C 1388.77,959.62 1392.44,961.953 1394.5,966.5C 1395.83,966.5 1397.17,966.5 1398.5,966.5C 1397.69,971.36 1396.69,976.194 1395.5,981C 1396.59,985.372 1399.26,986.539 1403.5,984.5C 1402.27,983.719 1400.94,983.219 1399.5,983C 1398.92,977.76 1399.59,972.593 1401.5,967.5C 1404.62,968.561 1407.62,969.895 1410.5,971.5C 1409.83,976.167 1409.17,980.833 1408.5,985.5C 1409.5,985.5 1410.5,985.5 1411.5,985.5C 1411.43,981.575 1412.1,977.909 1413.5,974.5C 1417.26,974.41 1420.93,975.41 1424.5,977.5C 1426.16,985.336 1430.83,987.669 1438.5,984.5C 1439.15,984.196 1439.82,983.863 1440.5,983.5C 1487.5,1001.08 1535.5,1015.25 1584.5,1026C 1604.39,1029.49 1624.39,1032.15 1644.5,1034C 1673.52,1036.23 1702.52,1038.4 1731.5,1040.5C 1731.5,1100.17 1731.5,1159.83 1731.5,1219.5C 1154.17,1219.5 576.833,1219.5 -0.5,1219.5C -0.5,963.5 -0.5,707.5 -0.5,451.5 Z"/></g>
<g><path style="opacity:1" fill="#e4eeec" d="M 220.5,482.5 C 337.539,539.853 454.206,598.02 570.5,657C 611.594,672.212 652.261,688.545 692.5,706C 714.108,718.803 736.775,729.47 760.5,738C 802.123,749.489 843.789,760.822 885.5,772C 961.93,788.703 1039.26,795.703 1117.5,793C 1135.87,793.377 1154.2,794.377 1172.5,796C 1200.78,797.986 1227.78,804.819 1253.5,816.5C 1249.1,834.757 1243.77,852.757 1237.5,870.5C 1201.22,855.48 1163.39,848.147 1124,848.5C 1087.29,853.018 1050.45,856.018 1013.5,857.5C 982.416,856.565 951.416,854.399 920.5,851C 856.241,839.682 792.574,825.682 729.5,809C 692.576,795.47 655.576,782.136 618.5,769C 600.766,760.468 582.766,752.468 564.5,745C 527.807,723.65 490.473,703.317 452.5,684C 426.046,667.253 398.379,652.586 369.5,640C 343.12,625.143 316.453,610.81 289.5,597C 268.942,583.468 247.609,571.135 225.5,560C 221.776,557.48 218.109,554.98 214.5,552.5C 211.36,540.023 209.86,527.357 210,514.5C 211.637,503.092 215.137,492.425 220.5,482.5 Z"/></g>
<g><path style="opacity:1" fill="#fefffe" d="M 214.5,552.5 C 218.109,554.98 221.776,557.48 225.5,560C 247.609,571.135 268.942,583.468 289.5,597C 316.453,610.81 343.12,625.143 369.5,640C 398.379,652.586 426.046,667.253 452.5,684C 490.473,703.317 527.807,723.65 564.5,745C 582.766,752.468 600.766,760.468 618.5,769C 655.576,782.136 692.576,795.47 729.5,809C 792.574,825.682 856.241,839.682 920.5,851C 951.416,854.399 982.416,856.565 1013.5,857.5C 1050.45,856.018 1087.29,853.018 1124,848.5C 1163.39,848.147 1201.22,855.48 1237.5,870.5C 1230.39,891.493 1221.72,911.827 1211.5,931.5C 1198.21,936.424 1193.04,945.757 1196,959.5C 1187.15,970.685 1177.31,980.852 1166.5,990C 1151.17,999.333 1135.83,1008.67 1120.5,1018C 1111.81,1022.23 1102.98,1026.06 1094,1029.5C 1087.02,1023.01 1079.19,1021.85 1070.5,1026C 1064.82,1033.48 1057.16,1036.31 1047.5,1034.5C 1003.97,1032.48 960.64,1028.82 917.5,1023.5C 912.088,1014.97 904.422,1011.81 894.5,1014C 890.928,1015.57 887.928,1017.9 885.5,1021C 821.137,1016.72 756.803,1011.72 692.5,1006C 689.99,1005.62 687.657,1004.79 685.5,1003.5C 680.489,993.495 672.489,989.662 661.5,992C 658.638,992.93 656.305,994.597 654.5,997C 631.201,991.34 609.201,982.34 588.5,970C 575.739,961.074 563.405,951.574 551.5,941.5C 551.777,931.881 547.777,924.715 539.5,920C 533.868,917.845 528.368,918.011 523,920.5C 514.364,914.266 504.864,909.766 494.5,907C 462.627,899.448 430.96,891.115 399.5,882C 384.167,875.667 368.833,869.333 353.5,863C 351.69,846.169 342.524,838.669 326,840.5C 314.282,820.398 303.615,799.731 294,778.5C 288.534,761.77 282.868,745.103 277,728.5C 266.336,704.171 256.503,679.504 247.5,654.5C 257.997,637.835 253.83,626.502 235,620.5C 226.838,598.185 220.005,575.518 214.5,552.5 Z"/></g>
<g><path style="opacity:1" fill="#131313" d="M 1346.5,611.5 C 1350.18,611.335 1353.85,611.501 1357.5,612C 1362.76,613.902 1363.93,617.402 1361,622.5C 1359.41,623.376 1357.91,624.376 1356.5,625.5C 1361.47,629.198 1361.81,633.365 1357.5,638C 1352.41,640.177 1347.07,641.01 1341.5,640.5C 1342.69,630.755 1344.35,621.088 1346.5,611.5 Z"/></g>
<g><path style="opacity:1" fill="#171717" d="M 1541.5,611.5 C 1545.18,611.335 1548.85,611.501 1552.5,612C 1552.96,612.414 1553.29,612.914 1553.5,613.5C 1550.58,613.899 1547.58,614.066 1544.5,614C 1541.11,615.599 1540.11,618.099 1541.5,621.5C 1545.13,623.632 1548.3,626.299 1551,629.5C 1551.95,634.423 1550.12,637.923 1545.5,640C 1541.83,640.667 1538.17,640.667 1534.5,640C 1533.27,638.817 1533.27,637.651 1534.5,636.5C 1538.92,638.107 1543.08,637.774 1547,635.5C 1547.67,633.5 1547.67,631.5 1547,629.5C 1543.17,627.753 1540.17,625.086 1538,621.5C 1537.33,619.5 1537.33,617.5 1538,615.5C 1539.38,614.295 1540.54,612.962 1541.5,611.5 Z"/></g>
<g><path style="opacity:1" fill="#fefffe" d="M 1307.5,612.5 C 1322.96,613.088 1327.46,620.421 1321,634.5C 1314.91,639.574 1308.74,639.74 1302.5,635C 1296,625.609 1297.67,618.109 1307.5,612.5 Z"/></g>
<g><path style="opacity:1" fill="#f1f1f1" d="M 1348.5,614.5 C 1351.52,614.335 1354.52,614.502 1357.5,615C 1360.27,617.966 1359.93,620.633 1356.5,623C 1353.52,623.498 1350.52,623.665 1347.5,623.5C 1347.7,620.482 1348.04,617.482 1348.5,614.5 Z"/></g>
<g><path style="opacity:1" fill="#0f0f0f" d="M 1561.5,613.5 C 1563.26,614.552 1563.92,616.219 1563.5,618.5C 1565.29,618.215 1566.95,618.548 1568.5,619.5C 1566.58,620.308 1564.58,620.808 1562.5,621C 1560.37,626.301 1559.54,631.801 1560,637.5C 1561.51,638.09 1563.01,638.756 1564.5,639.5C 1561.72,640.952 1559.22,640.619 1557,638.5C 1556.85,632.718 1557.69,627.051 1559.5,621.5C 1555.8,620.263 1555.97,618.93 1560,617.5C 1560.79,616.255 1561.29,614.922 1561.5,613.5 Z"/></g>
<g><path style="opacity:1" fill="#121212" d="M 1631.5,613.5 C 1632.38,613.369 1633.04,613.702 1633.5,614.5C 1632.75,615.736 1632.42,617.07 1632.5,618.5C 1639.14,619.022 1639.14,619.855 1632.5,621C 1630.12,626.253 1629.28,631.753 1630,637.5C 1631.21,638.071 1632.37,638.738 1633.5,639.5C 1631.31,640.769 1629.14,640.769 1627,639.5C 1626.52,633.421 1627.02,627.421 1628.5,621.5C 1627.32,621.719 1626.32,621.386 1625.5,620.5C 1628.96,619.379 1630.96,617.046 1631.5,613.5 Z"/></g>
<g><path style="opacity:1" fill="#181818" d="M 1396.5,618.5 C 1399.17,618.5 1401.83,618.5 1404.5,618.5C 1404.72,619.675 1404.39,620.675 1403.5,621.5C 1398.62,620.023 1395.12,621.69 1393,626.5C 1392.33,629.833 1392.33,633.167 1393,636.5C 1393.5,637 1394,637.5 1394.5,638C 1397.28,638.051 1399.94,638.218 1402.5,638.5C 1394.73,642.794 1390.06,640.627 1388.5,632C 1389.26,626.307 1391.93,621.807 1396.5,618.5 Z"/></g>
<g><path style="opacity:1" fill="#151515" d="M 1412.5,609.5 C 1413.5,609.5 1414.5,609.5 1415.5,609.5C 1414.94,613.792 1413.94,617.959 1412.5,622C 1414.99,620.738 1417.66,619.571 1420.5,618.5C 1423.01,618.335 1424.84,619.335 1426,621.5C 1425.12,627.752 1424.29,634.085 1423.5,640.5C 1422.5,640.5 1421.5,640.5 1420.5,640.5C 1421.1,635.666 1421.77,630.833 1422.5,626C 1421.47,619.239 1418.64,618.739 1414,624.5C 1411.3,629.497 1409.8,634.83 1409.5,640.5C 1408.32,640.719 1407.32,640.386 1406.5,639.5C 1408.89,629.572 1410.89,619.572 1412.5,609.5 Z"/></g>
<g><path style="opacity:1" fill="#111111" d="M 1592.5,618.5 C 1599.49,616.996 1602.33,619.663 1601,626.5C 1597.56,629.883 1593.39,631.216 1588.5,630.5C 1588.74,638.241 1592.24,640.241 1599,636.5C 1599.66,638.108 1599.16,639.275 1597.5,640C 1586.18,641.253 1582.68,636.42 1587,625.5C 1587.97,622.379 1589.8,620.046 1592.5,618.5 Z"/></g>
<g><path style="opacity:1" fill="#131313" d="M 1613.5,630.5 C 1611.83,630.5 1610.17,630.5 1608.5,630.5C 1608.22,632.415 1608.55,634.081 1609.5,635.5C 1609.95,636.458 1610.62,637.292 1611.5,638C 1614.28,638.051 1616.94,638.218 1619.5,638.5C 1611.07,643.029 1606.4,640.529 1605.5,631C 1607.1,620.668 1612.6,617.168 1622,620.5C 1623.02,626.986 1620.19,630.319 1613.5,630.5 Z"/></g>
<g><path style="opacity:1" fill="#0e0e0e" d="M 1368.5,618.5 C 1369.5,618.5 1370.5,618.5 1371.5,618.5C 1369.85,624.755 1369.02,631.088 1369,637.5C 1372.09,638.894 1374.76,638.227 1377,635.5C 1380.22,630.288 1381.72,624.622 1381.5,618.5C 1382.5,618.5 1383.5,618.5 1384.5,618.5C 1383.77,626.069 1382.11,633.402 1379.5,640.5C 1378.72,639.271 1378.22,637.938 1378,636.5C 1374.48,640.753 1370.48,641.42 1366,638.5C 1366.18,631.783 1367.01,625.117 1368.5,618.5 Z"/></g>
<g><path style="opacity:1" fill="#171717" d="M 1438.5,618.5 C 1441.97,617.875 1444.8,618.875 1447,621.5C 1447.83,620.5 1448.67,619.5 1449.5,618.5C 1449.83,619.167 1450.17,619.833 1450.5,620.5C 1449.14,627.262 1447.48,633.929 1445.5,640.5C 1444.72,639.271 1444.22,637.938 1444,636.5C 1441.29,640.035 1437.79,641.202 1433.5,640C 1428.7,631.408 1430.37,624.241 1438.5,618.5 Z"/></g>
<g><path style="opacity:1" fill="#121212" d="M 1457.5,618.5 C 1458.5,618.5 1459.5,618.5 1460.5,618.5C 1460.28,619.675 1460.61,620.675 1461.5,621.5C 1465.42,617.532 1469.25,617.532 1473,621.5C 1472.12,627.752 1471.29,634.085 1470.5,640.5C 1469.5,640.5 1468.5,640.5 1467.5,640.5C 1468.1,635.666 1468.77,630.833 1469.5,626C 1468.47,619.239 1465.64,618.739 1461,624.5C 1458.3,629.497 1456.8,634.83 1456.5,640.5C 1455.32,640.719 1454.32,640.386 1453.5,639.5C 1455.35,632.592 1456.68,625.592 1457.5,618.5 Z"/></g>
<g><path style="opacity:1" fill="#141414" d="M 1484.5,618.5 C 1488.19,617.971 1491.36,618.971 1494,621.5C 1494.67,618.733 1495.84,618.233 1497.5,620C 1495.59,626.73 1494.25,633.563 1493.5,640.5C 1492.5,640.5 1491.5,640.5 1490.5,640.5C 1490.65,639.448 1490.48,638.448 1490,637.5C 1487.35,640.194 1484.18,641.027 1480.5,640C 1477.12,635.536 1476.62,630.703 1479,625.5C 1480.67,623.004 1482.5,620.671 1484.5,618.5 Z"/></g>
<g><path style="opacity:1" fill="#101010" d="M 1504.5,618.5 C 1505.5,618.5 1506.5,618.5 1507.5,618.5C 1507.35,619.552 1507.52,620.552 1508,621.5C 1511.47,618.084 1515.14,617.75 1519,620.5C 1519.14,627.266 1518.31,633.932 1516.5,640.5C 1515.32,640.719 1514.32,640.386 1513.5,639.5C 1515.53,633.674 1516.53,627.674 1516.5,621.5C 1512.41,620.705 1509.24,622.038 1507,625.5C 1504.88,630.274 1503.71,635.274 1503.5,640.5C 1502.5,640.5 1501.5,640.5 1500.5,640.5C 1501.96,633.189 1503.3,625.855 1504.5,618.5 Z"/></g>
<g><path style="opacity:1" fill="#141414" d="M 1572.5,618.5 C 1573.5,618.5 1574.5,618.5 1575.5,618.5C 1575.35,619.552 1575.52,620.552 1576,621.5C 1578.38,618.725 1581.21,618.058 1584.5,619.5C 1581.5,620.755 1578.66,622.421 1576,624.5C 1573.57,629.569 1572.07,634.902 1571.5,640.5C 1570.32,640.719 1569.32,640.386 1568.5,639.5C 1570.35,632.592 1571.68,625.592 1572.5,618.5 Z"/></g>
<g><path style="opacity:1" fill="#f4f4f4" d="M 1440.5,620.5 C 1442.39,620.297 1443.89,620.963 1445,622.5C 1446.71,629.741 1444.37,635.074 1438,638.5C 1437.13,638.265 1436.29,637.931 1435.5,637.5C 1433.08,630.474 1434.75,624.808 1440.5,620.5 Z"/></g>
<g><path style="opacity:1" fill="#f3f3f3" d="M 1485.5,621.5 C 1487.53,621.338 1489.53,621.505 1491.5,622C 1493.54,629.4 1491.2,634.9 1484.5,638.5C 1481.71,637.602 1480.37,635.602 1480.5,632.5C 1480.83,628.17 1482.5,624.504 1485.5,621.5 Z"/></g>
<g><path style="opacity:1" fill="#e3e3e3" d="M 1594.5,620.5 C 1598.07,620.408 1599.24,622.074 1598,625.5C 1595.7,627.93 1592.86,628.93 1589.5,628.5C 1589.67,624.821 1591.33,622.154 1594.5,620.5 Z"/></g>
<g><path style="opacity:1" fill="#e2e2e2" d="M 1614.5,620.5 C 1621.16,622.715 1621.16,625.215 1614.5,628C 1612.74,628.798 1611.07,628.631 1609.5,627.5C 1610.8,624.87 1612.47,622.537 1614.5,620.5 Z"/></g>
<g><path style="opacity:1" fill="#141414" d="M 104.5,642.5 C 105.404,641.791 105.737,640.791 105.5,639.5C 103.5,639.5 101.5,639.5 99.5,639.5C 101.988,637.612 104.988,636.945 108.5,637.5C 107.815,642.093 106.815,646.593 105.5,651C 89.7571,655.257 83.9238,649.424 88,633.5C 92.7042,623.573 100.204,620.74 110.5,625C 109.953,625.925 109.287,626.758 108.5,627.5C 100.465,624.095 94.6312,626.429 91,634.5C 87.4927,646.149 91.6594,651.149 103.5,649.5C 103.993,647.194 104.326,644.861 104.5,642.5 Z"/></g>
<g><path style="opacity:1" fill="#fefffe" d="M 230.5,627.5 C 245.961,628.088 250.461,635.421 244,649.5C 237.91,654.574 231.743,654.74 225.5,650C 219.004,640.609 220.671,633.109 230.5,627.5 Z"/></g>
<g><path style="opacity:1" fill="#f1f1f1" d="M 1346.5,626.5 C 1349.19,626.336 1351.85,626.503 1354.5,627C 1358.57,630.745 1358.23,634.078 1353.5,637C 1350.52,637.498 1347.52,637.665 1344.5,637.5C 1344.66,633.709 1345.33,630.042 1346.5,626.5 Z"/></g>
<g><path style="opacity:1" fill="#181818" d="M 120.5,630.5 C 127.304,629.221 131.304,631.888 132.5,638.5C 131.952,648.224 126.952,652.724 117.5,652C 111.533,643.868 112.533,636.701 120.5,630.5 Z"/></g>
<g><path style="opacity:1" fill="#141414" d="M 136.5,630.5 C 137.5,630.5 138.5,630.5 139.5,630.5C 139.842,636.566 140.675,642.566 142,648.5C 145.255,642.992 148.255,637.325 151,631.5C 152.183,630.269 153.349,630.269 154.5,631.5C 150.833,638.167 147.167,644.833 143.5,651.5C 141.955,652.452 140.288,652.785 138.5,652.5C 138.345,645.11 137.679,637.777 136.5,630.5 Z"/></g>
<g><path style="opacity:1" fill="#141414" d="M 162.5,630.5 C 166.08,629.923 169.08,630.923 171.5,633.5C 172.287,632.758 172.953,631.925 173.5,631C 174.332,630.312 174.998,630.479 175.5,631.5C 173.396,638.355 172.062,645.355 171.5,652.5C 170.5,652.5 169.5,652.5 168.5,652.5C 168.649,651.448 168.483,650.448 168,649.5C 163.436,653.843 159.436,653.509 156,648.5C 154.552,641.085 156.719,635.085 162.5,630.5 Z"/></g>
<g><path style="opacity:1" fill="#0b0b0b" d="M 182.5,630.5 C 184.045,631.23 184.878,632.563 185,634.5C 188.356,630.052 192.356,629.385 197,632.5C 196.502,639.171 195.669,645.838 194.5,652.5C 193.5,652.5 192.5,652.5 191.5,652.5C 192.241,647.13 193.241,641.796 194.5,636.5C 194.225,634.391 193.058,633.058 191,632.5C 188.501,633.083 186.501,634.416 185,636.5C 182.876,641.663 181.376,646.996 180.5,652.5C 179.448,652.649 178.448,652.483 177.5,652C 179.241,644.868 180.908,637.702 182.5,630.5 Z"/></g>
<g><path style="opacity:1" fill="#9b9b9b" d="M 1613.5,630.5 C 1612.43,631.434 1611.1,631.768 1609.5,631.5C 1609.5,632.833 1609.5,634.167 1609.5,635.5C 1608.55,634.081 1608.22,632.415 1608.5,630.5C 1610.17,630.5 1611.83,630.5 1613.5,630.5 Z"/></g>
<g><path style="opacity:1" fill="#f3f3f3" d="M 120.5,633.5 C 122.857,633.337 125.19,633.503 127.5,634C 128.9,638.58 128.567,643.08 126.5,647.5C 120.804,652.239 117.47,650.906 116.5,643.5C 116.737,639.698 118.07,636.365 120.5,633.5 Z"/></g>
<g><path style="opacity:1" fill="#f2f2f2" d="M 163.5,633.5 C 165.527,633.338 167.527,633.505 169.5,634C 171.536,641.4 169.203,646.9 162.5,650.5C 159.216,649.872 157.883,647.872 158.5,644.5C 158.823,640.19 160.49,636.523 163.5,633.5 Z"/></g>
<g><path style="opacity:1" fill="#646464" d="M 99.5,639.5 C 101.5,639.5 103.5,639.5 105.5,639.5C 105.737,640.791 105.404,641.791 104.5,642.5C 103.198,640.972 101.531,639.972 99.5,639.5 Z"/></g>
<g><path style="opacity:1" fill="#131313" d="M 1316.5,769.5 C 1320.18,769.335 1323.85,769.501 1327.5,770C 1327.96,770.414 1328.29,770.914 1328.5,771.5C 1325.25,771.808 1321.92,771.975 1318.5,772C 1315.79,773.864 1314.96,776.364 1316,779.5C 1319,781.833 1322,784.167 1325,786.5C 1326.99,792.337 1325.16,796.171 1319.5,798C 1316.17,798.667 1312.83,798.667 1309.5,798C 1308.48,796.951 1308.32,795.784 1309,794.5C 1312.41,795.622 1315.91,795.789 1319.5,795C 1322.08,793.519 1322.91,791.352 1322,788.5C 1318.96,785.824 1315.96,783.157 1313,780.5C 1311.66,775.96 1312.83,772.293 1316.5,769.5 Z"/></g>
<g><path style="opacity:1" fill="#111111" d="M 1360.5,769.5 C 1365.17,769.5 1369.83,769.5 1374.5,769.5C 1374.5,770.5 1374.5,771.5 1374.5,772.5C 1370.5,772.5 1366.5,772.5 1362.5,772.5C 1362.04,775.482 1361.7,778.482 1361.5,781.5C 1364.83,781.5 1368.17,781.5 1371.5,781.5C 1371.5,782.5 1371.5,783.5 1371.5,784.5C 1367.82,784.335 1364.15,784.501 1360.5,785C 1359.26,788.364 1358.59,791.864 1358.5,795.5C 1362.18,795.335 1365.85,795.501 1369.5,796C 1369.04,796.414 1368.71,796.914 1368.5,797.5C 1363.83,798.833 1359.17,798.833 1354.5,797.5C 1356.82,788.232 1358.82,778.899 1360.5,769.5 Z"/></g>
<g><path style="opacity:1" fill="#121212" d="M 1336.5,771.5 C 1337.38,771.369 1338.04,771.702 1338.5,772.5C 1337.75,773.736 1337.42,775.07 1337.5,776.5C 1344.14,777.022 1344.14,777.855 1337.5,779C 1335.12,784.253 1334.28,789.753 1335,795.5C 1336.21,796.071 1337.37,796.738 1338.5,797.5C 1336.31,798.769 1334.14,798.769 1332,797.5C 1331.52,791.421 1332.02,785.421 1333.5,779.5C 1332.32,779.719 1331.32,779.386 1330.5,778.5C 1333.96,777.379 1335.96,775.046 1336.5,771.5 Z"/></g>
<g><path style="opacity:1" fill="#fefffe" d="M 1266.5,775.5 C 1281.96,776.088 1286.46,783.421 1280,797.5C 1273.91,802.574 1267.74,802.74 1261.5,798C 1255,788.609 1256.67,781.109 1266.5,775.5 Z"/></g>
<g><path style="opacity:1" fill="#141414" d="M 1406.5,776.5 C 1413.97,775.167 1417.63,778.167 1417.5,785.5C 1416.79,796.737 1411.29,800.404 1401,796.5C 1397.7,788.287 1399.54,781.62 1406.5,776.5 Z"/></g>
<g><path style="opacity:1" fill="#111111" d="M 1429.5,776.5 C 1432.72,776.108 1435.72,776.608 1438.5,778C 1437.06,779.646 1435.39,779.813 1433.5,778.5C 1429.57,779.263 1427.07,781.597 1426,785.5C 1425.26,788.562 1425.43,791.562 1426.5,794.5C 1428.92,796.65 1431.59,796.983 1434.5,795.5C 1435.71,796.274 1435.71,797.107 1434.5,798C 1423.87,799.644 1420.04,795.144 1423,784.5C 1424.3,781.039 1426.47,778.372 1429.5,776.5 Z"/></g>
<g><path style="opacity:1" fill="#101010" d="M 1446.5,767.5 C 1447.55,767.351 1448.55,767.517 1449.5,768C 1448.1,772.089 1447.27,776.256 1447,780.5C 1450.52,776.247 1454.52,775.58 1459,778.5C 1458.82,785.217 1457.99,791.883 1456.5,798.5C 1455.5,798.5 1454.5,798.5 1453.5,798.5C 1455.15,792.273 1456.15,785.939 1456.5,779.5C 1449.62,778.545 1445.78,781.545 1445,788.5C 1443.96,791.757 1443.46,795.09 1443.5,798.5C 1442.5,798.5 1441.5,798.5 1440.5,798.5C 1442.24,788.119 1444.24,777.785 1446.5,767.5 Z"/></g>
<g><path style="opacity:1" fill="#0b0b0b" d="M 1379.5,776.5 C 1381.05,777.23 1381.88,778.563 1382,780.5C 1385.36,776.052 1389.36,775.385 1394,778.5C 1393.5,785.171 1392.67,791.838 1391.5,798.5C 1390.5,798.5 1389.5,798.5 1388.5,798.5C 1389.24,793.13 1390.24,787.796 1391.5,782.5C 1391.22,780.391 1390.06,779.058 1388,778.5C 1385.5,779.083 1383.5,780.416 1382,782.5C 1379.88,787.663 1378.38,792.996 1377.5,798.5C 1376.45,798.649 1375.45,798.483 1374.5,798C 1376.24,790.868 1377.91,783.702 1379.5,776.5 Z"/></g>
<g><path style="opacity:1" fill="#f5f5f5" d="M 1406.5,779.5 C 1411.5,778.235 1414.17,780.068 1414.5,785C 1414.98,790.675 1412.65,794.509 1407.5,796.5C 1403.49,795.66 1401.82,793.16 1402.5,789C 1402.34,785.16 1403.67,781.994 1406.5,779.5 Z"/></g>
<g><path style="opacity:1" fill="#e4edec" d="M 1271.5,824.5 C 1304.78,841.467 1336.44,860.967 1366.5,883C 1391.05,899.513 1417.05,913.513 1444.5,925C 1508.79,942.489 1573.12,959.822 1637.5,977C 1668.8,980.021 1700.13,982.521 1731.5,984.5C 1731.5,1003.17 1731.5,1021.83 1731.5,1040.5C 1702.52,1038.4 1673.52,1036.23 1644.5,1034C 1624.39,1032.15 1604.39,1029.49 1584.5,1026C 1535.5,1015.25 1487.5,1001.08 1440.5,983.5C 1439.82,983.863 1439.15,984.196 1438.5,984.5C 1438.53,983.503 1438.03,982.836 1437,982.5C 1430.45,984.784 1427.61,982.45 1428.5,975.5C 1431.61,975.649 1434.61,975.149 1437.5,974C 1441.76,971.353 1442.43,968.019 1439.5,964C 1430.05,963.273 1425.05,967.773 1424.5,977.5C 1420.93,975.41 1417.26,974.41 1413.5,974.5C 1414.16,968.504 1417.5,965.837 1423.5,966.5C 1423.5,965.5 1423.5,964.5 1423.5,963.5C 1419.73,962.822 1416.89,964.156 1415,967.5C 1414.78,966.062 1414.28,964.729 1413.5,963.5C 1412.25,966.184 1411.25,968.85 1410.5,971.5C 1407.62,969.895 1404.62,968.561 1401.5,967.5C 1403.03,965.964 1405.03,964.964 1407.5,964.5C 1405.95,963.548 1404.29,963.215 1402.5,963.5C 1403.9,957.369 1402.9,957.036 1399.5,962.5C 1398.33,963.584 1397,964.417 1395.5,965C 1396.74,965.232 1397.74,965.732 1398.5,966.5C 1397.17,966.5 1395.83,966.5 1394.5,966.5C 1392.44,961.953 1388.77,959.62 1383.5,959.5C 1386.01,958.337 1388.67,958.337 1391.5,959.5C 1393.57,959.176 1393.9,958.342 1392.5,957C 1388.41,956.238 1384.41,956.404 1380.5,957.5C 1365.34,947.863 1350.01,938.363 1334.5,929C 1309.29,910.222 1282.62,893.722 1254.5,879.5C 1261.27,861.415 1266.93,843.082 1271.5,824.5 Z"/></g>
<g><path style="opacity:1" fill="#fefffe" d="M 329.5,846.5 C 344.961,847.088 349.461,854.421 343,868.5C 336.91,873.574 330.743,873.74 324.5,869C 318.004,859.609 319.671,852.109 329.5,846.5 Z"/></g>
<g><path style="opacity:1" fill="#080808" d="M 206.5,847.5 C 207.675,847.281 208.675,847.614 209.5,848.5C 207.116,857.754 205.116,867.088 203.5,876.5C 202.325,876.719 201.325,876.386 200.5,875.5C 202.817,866.232 204.817,856.899 206.5,847.5 Z"/></g>
<g><path style="opacity:1" fill="#1a1a1a" d="M 217.5,845.5 C 218.675,845.281 219.675,845.614 220.5,846.5C 219.627,850.198 218.627,853.865 217.5,857.5C 217.833,857.833 218.167,858.167 218.5,858.5C 220.936,854.92 224.27,853.754 228.5,855C 233.198,863.047 231.865,870.047 224.5,876C 220.726,877.183 217.559,876.349 215,873.5C 214.167,874.5 213.333,875.5 212.5,876.5C 212.167,875.833 211.833,875.167 211.5,874.5C 213.759,864.873 215.759,855.206 217.5,845.5 Z"/></g>
<g><path style="opacity:1" fill="#131313" d="M 258.5,854.5 C 266.186,853.163 270.186,856.33 270.5,864C 269.836,873.492 264.836,877.492 255.5,876C 250.873,870.928 250.373,865.428 254,859.5C 255.366,857.638 256.866,855.972 258.5,854.5 Z"/></g>
<g><path style="opacity:1" fill="#0e0e0e" d="M 239.5,854.5 C 241.045,855.23 241.878,856.563 242,858.5C 243.894,855.156 246.727,853.822 250.5,854.5C 250.5,855.5 250.5,856.5 250.5,857.5C 247.03,856.875 244.196,857.875 242,860.5C 239.876,865.663 238.376,870.996 237.5,876.5C 236.448,876.649 235.448,876.483 234.5,876C 236.241,868.868 237.908,861.702 239.5,854.5 Z"/></g>
<g><path style="opacity:1" fill="#171717" d="M 276.5,854.5 C 277.675,854.281 278.675,854.614 279.5,855.5C 280.194,858.088 281.36,860.421 283,862.5C 284.833,860.167 286.667,857.833 288.5,855.5C 289.723,854.386 291.056,854.219 292.5,855C 289.432,858.397 286.765,862.064 284.5,866C 285.42,869.339 286.753,872.506 288.5,875.5C 288,875.833 287.5,876.167 287,876.5C 284.906,873.966 283.072,871.299 281.5,868.5C 279.529,870.808 277.529,873.142 275.5,875.5C 274.277,876.614 272.944,876.781 271.5,876C 274.514,872.322 277.514,868.655 280.5,865C 278.737,861.644 277.404,858.144 276.5,854.5 Z"/></g>
<g><path style="opacity:1" fill="#f6f6f6" d="M 221.5,857.5 C 223.5,857.5 225.5,857.5 227.5,857.5C 227.79,861.936 227.29,866.27 226,870.5C 220.805,876.412 217.639,875.578 216.5,868C 216.43,863.641 218.097,860.141 221.5,857.5 Z"/></g>
<g><path style="opacity:1" fill="#ececec" d="M 259.5,857.5 C 264.5,856.235 267.167,858.068 267.5,863C 267.636,868.925 264.969,872.759 259.5,874.5C 256.138,873.638 254.472,871.471 254.5,868C 254.557,863.628 256.224,860.128 259.5,857.5 Z"/></g>
<g><path style="opacity:1" fill="#fefffe" d="M 527.5,924.5 C 542.961,925.088 547.461,932.421 541,946.5C 534.91,951.574 528.743,951.74 522.5,947C 516.004,937.609 517.671,930.109 527.5,924.5 Z"/></g>
<g><path style="opacity:1" fill="#fefffe" d="M 1210.5,938.5 C 1225.96,939.088 1230.46,946.421 1224,960.5C 1217.91,965.574 1211.74,965.74 1205.5,961C 1199,951.609 1200.67,944.109 1210.5,938.5 Z"/></g>
<g><path style="opacity:1" fill="#131313" d="M 480.5,945.5 C 481.5,945.5 482.5,945.5 483.5,945.5C 482.129,952.18 480.963,958.847 480,965.5C 482.797,961.701 485.964,958.201 489.5,955C 490.833,954.333 492.167,954.333 493.5,955C 490.5,958 487.5,961 484.5,964C 486.5,968 488.5,972 490.5,976C 489.207,976.49 487.873,976.657 486.5,976.5C 482.994,963.223 479.994,963.223 477.5,976.5C 476.5,976.5 475.5,976.5 474.5,976.5C 476.757,966.215 478.757,955.881 480.5,945.5 Z"/></g>
<g><path style="opacity:1" fill="#151515" d="M 341.5,947.5 C 345.182,947.335 348.848,947.501 352.5,948C 352.957,948.414 353.291,948.914 353.5,949.5C 339.002,948.853 333.169,955.853 336,970.5C 336.833,971.333 337.667,972.167 338.5,973C 341.882,973.176 345.215,973.676 348.5,974.5C 348.291,975.086 347.957,975.586 347.5,976C 339.65,978.579 334.483,976.079 332,968.5C 330.851,959.47 334.018,952.47 341.5,947.5 Z"/></g>
<g><path style="opacity:1" fill="#131313" d="M 362.5,966.5 C 360.833,966.5 359.167,966.5 357.5,966.5C 357.216,968.415 357.549,970.081 358.5,971.5C 358.953,972.458 359.619,973.292 360.5,974C 363.277,974.051 365.943,974.218 368.5,974.5C 360.071,979.029 355.404,976.529 354.5,967C 356.096,956.668 361.596,953.168 371,956.5C 372.021,962.986 369.188,966.319 362.5,966.5 Z"/></g>
<g><path style="opacity:1" fill="#181818" d="M 379.5,954.5 C 392.705,955.465 392.705,956.631 379.5,958C 378.978,958.561 378.645,959.228 378.5,960C 380.433,962.732 382.933,964.899 386,966.5C 388.364,970.546 387.53,973.713 383.5,976C 380.5,976.667 377.5,976.667 374.5,976C 373.289,975.107 373.289,974.274 374.5,973.5C 378.829,975.455 382.162,974.455 384.5,970.5C 381.804,967.727 378.971,965.06 376,962.5C 374.78,958.707 375.947,956.04 379.5,954.5 Z"/></g>
<g><path style="opacity:1" fill="#141414" d="M 396.5,954.5 C 399.187,954.336 401.854,954.503 404.5,955C 405.308,955.308 405.975,955.808 406.5,956.5C 403.553,957.321 400.553,957.821 397.5,958C 396.941,958.725 396.608,959.558 396.5,960.5C 398.631,963.163 401.131,965.496 404,967.5C 405.379,971.475 404.213,974.309 400.5,976C 397.5,976.667 394.5,976.667 391.5,976C 389.939,972.615 390.606,971.949 393.5,974C 399.466,975.689 401.799,973.689 400.5,968C 392.957,965.185 391.623,960.685 396.5,954.5 Z"/></g>
<g><path style="opacity:1" fill="#131313" d="M 440.5,954.5 C 448.186,953.163 452.186,956.33 452.5,964C 451.836,973.492 446.836,977.492 437.5,976C 432.873,970.928 432.373,965.428 436,959.5C 437.366,957.638 438.866,955.972 440.5,954.5 Z"/></g>
<g><path style="opacity:1" fill="#0f0f0f" d="M 464.5,954.5 C 466.857,954.337 469.19,954.503 471.5,955C 471.957,955.414 472.291,955.914 472.5,956.5C 462.996,956.531 458.83,961.531 460,971.5C 460.833,972.333 461.667,973.167 462.5,974C 464.995,974.157 467.328,974.324 469.5,974.5C 461.564,978.777 457.231,976.277 456.5,967C 457.042,961.403 459.709,957.236 464.5,954.5 Z"/></g>
<g><path style="opacity:1" fill="#101010" d="M 413.5,954.5 C 414.5,954.5 415.5,954.5 416.5,954.5C 416.351,955.552 416.517,956.552 417,957.5C 420.469,954.084 424.136,953.75 428,956.5C 428.145,963.266 427.311,969.932 425.5,976.5C 424.325,976.719 423.325,976.386 422.5,975.5C 424.532,969.674 425.532,963.674 425.5,957.5C 421.406,956.705 418.239,958.038 416,961.5C 413.878,966.274 412.712,971.274 412.5,976.5C 411.5,976.5 410.5,976.5 409.5,976.5C 410.962,969.189 412.296,961.855 413.5,954.5 Z"/></g>
<g><path style="opacity:1" fill="#131313" d="M 1254.5,956.5 C 1258.18,956.335 1261.85,956.501 1265.5,957C 1270.76,958.902 1271.93,962.402 1269,967.5C 1267.41,968.376 1265.91,969.376 1264.5,970.5C 1269.47,974.198 1269.81,978.365 1265.5,983C 1260.03,985.539 1254.36,986.039 1248.5,984.5C 1250.82,975.232 1252.82,965.899 1254.5,956.5 Z"/></g>
<g><path style="opacity:1" fill="#0e0e0e" d="M 1295.5,955.5 C 1297.18,956.183 1297.84,957.517 1297.5,959.5C 1296.5,959.5 1295.5,959.5 1294.5,959.5C 1294.43,958.041 1294.77,956.708 1295.5,955.5 Z"/></g>
<g><path style="opacity:1" fill="#131313" d="M 1383.5,959.5 C 1380.75,961.053 1379.91,963.386 1381,966.5C 1384,968.833 1387,971.167 1390,973.5C 1390.67,976.167 1390.67,978.833 1390,981.5C 1385.52,985.243 1380.35,986.409 1374.5,985C 1373.48,983.951 1373.32,982.784 1374,981.5C 1377.41,982.622 1380.91,982.789 1384.5,982C 1387.08,980.519 1387.91,978.352 1387,975.5C 1383.96,972.824 1380.96,970.157 1378,967.5C 1376.86,963.579 1377.69,960.246 1380.5,957.5C 1384.41,956.404 1388.41,956.238 1392.5,957C 1393.9,958.342 1393.57,959.176 1391.5,959.5C 1388.67,958.337 1386.01,958.337 1383.5,959.5 Z"/></g>
<g><path style="opacity:1" fill="#e2e2e2" d="M 363.5,956.5 C 370.163,958.715 370.163,961.215 363.5,964C 361.741,964.798 360.074,964.631 358.5,963.5C 359.804,960.87 361.47,958.537 363.5,956.5 Z"/></g>
<g><path style="opacity:1" fill="#ececec" d="M 441.5,957.5 C 446.5,956.235 449.167,958.068 449.5,963C 449.636,968.925 446.969,972.759 441.5,974.5C 438.138,973.638 436.472,971.471 436.5,968C 436.557,963.628 438.224,960.128 441.5,957.5 Z"/></g>
<g><path style="opacity:1" fill="#f1f1f1" d="M 1256.5,959.5 C 1259.52,959.335 1262.52,959.502 1265.5,960C 1268.27,962.966 1267.93,965.633 1264.5,968C 1261.52,968.498 1258.52,968.665 1255.5,968.5C 1255.7,965.482 1256.04,962.482 1256.5,959.5 Z"/></g>
<g><path style="opacity:1" fill="#0e0f0f" d="M 1401.5,967.5 C 1399.59,972.593 1398.92,977.76 1399.5,983C 1400.94,983.219 1402.27,983.719 1403.5,984.5C 1399.26,986.539 1396.59,985.372 1395.5,981C 1396.69,976.194 1397.69,971.36 1398.5,966.5C 1397.74,965.732 1396.74,965.232 1395.5,965C 1397,964.417 1398.33,963.584 1399.5,962.5C 1402.9,957.036 1403.9,957.369 1402.5,963.5C 1404.29,963.215 1405.95,963.548 1407.5,964.5C 1405.03,964.964 1403.03,965.964 1401.5,967.5 Z"/></g>
<g><path style="opacity:1" fill="#0e0e0e" d="M 1471.5,958.5 C 1472.24,958.369 1472.91,958.536 1473.5,959C 1472.62,960.356 1472.29,961.856 1472.5,963.5C 1474.29,963.215 1475.95,963.548 1477.5,964.5C 1475.6,965.466 1473.6,965.799 1471.5,965.5C 1470.69,970.36 1469.69,975.194 1468.5,980C 1468.59,981.107 1468.92,982.107 1469.5,983C 1470.94,983.219 1472.27,983.719 1473.5,984.5C 1469.26,986.539 1466.59,985.372 1465.5,981C 1466.82,975.885 1467.82,970.718 1468.5,965.5C 1467.45,965.649 1466.45,965.483 1465.5,965C 1468.73,963.942 1470.73,961.775 1471.5,958.5 Z"/></g>
<g><path style="opacity:1" fill="#171717" d="M 1318.5,954.5 C 1319.5,954.5 1320.5,954.5 1321.5,954.5C 1319.8,964.983 1317.47,975.316 1314.5,985.5C 1313.72,984.271 1313.22,982.938 1313,981.5C 1310.29,985.035 1306.79,986.202 1302.5,985C 1297.98,977.633 1298.98,970.967 1305.5,965C 1309.47,962.636 1312.97,963.136 1316,966.5C 1317.47,962.622 1318.3,958.622 1318.5,954.5 Z"/></g>
<g><path style="opacity:1" fill="#171717" d="M 1351.5,963.5 C 1357.99,961.835 1360.82,964.168 1360,970.5C 1359.5,972.333 1358.33,973.5 1356.5,974C 1353.61,975.149 1350.61,975.649 1347.5,975.5C 1347.05,978.365 1347.72,980.865 1349.5,983C 1352.28,983.051 1354.94,983.218 1357.5,983.5C 1347.56,987.74 1343.06,984.406 1344,973.5C 1345.32,969.163 1347.82,965.83 1351.5,963.5 Z"/></g>
<g><path style="opacity:1" fill="#151616" d="M 1438.5,984.5 C 1430.83,987.669 1426.16,985.336 1424.5,977.5C 1425.05,967.773 1430.05,963.273 1439.5,964C 1442.43,968.019 1441.76,971.353 1437.5,974C 1434.61,975.149 1431.61,975.649 1428.5,975.5C 1427.61,982.45 1430.45,984.784 1437,982.5C 1438.03,982.836 1438.53,983.503 1438.5,984.5 Z"/></g>
<g><path style="opacity:1" fill="#111111" d="M 1452.5,963.5 C 1461.86,962.936 1463.86,966.436 1458.5,974C 1455.24,975.043 1451.91,975.543 1448.5,975.5C 1448.51,983.168 1451.84,985.168 1458.5,981.5C 1459.39,982.325 1459.72,983.325 1459.5,984.5C 1447.69,987.861 1443.19,983.527 1446,971.5C 1447.3,968.039 1449.47,965.372 1452.5,963.5 Z"/></g>
<g><path style="opacity:1" fill="#141414" d="M 1276.5,963.5 C 1277.5,963.5 1278.5,963.5 1279.5,963.5C 1279.35,964.552 1279.52,965.552 1280,966.5C 1282.38,963.725 1285.21,963.058 1288.5,964.5C 1285.5,965.755 1282.66,967.421 1280,969.5C 1277.57,974.569 1276.07,979.902 1275.5,985.5C 1274.32,985.719 1273.32,985.386 1272.5,984.5C 1274.35,977.592 1275.68,970.592 1276.5,963.5 Z"/></g>
<g><path style="opacity:1" fill="#090909" d="M 1293.5,963.5 C 1294.65,963.791 1295.32,964.624 1295.5,966C 1294.23,972.528 1292.89,979.028 1291.5,985.5C 1290.45,985.649 1289.45,985.483 1288.5,985C 1290.24,977.868 1291.91,970.702 1293.5,963.5 Z"/></g>
<g><path style="opacity:1" fill="#101010" d="M 1413.5,974.5 C 1412.1,977.909 1411.43,981.575 1411.5,985.5C 1410.5,985.5 1409.5,985.5 1408.5,985.5C 1409.17,980.833 1409.83,976.167 1410.5,971.5C 1411.25,968.85 1412.25,966.184 1413.5,963.5C 1414.28,964.729 1414.78,966.062 1415,967.5C 1416.89,964.156 1419.73,962.822 1423.5,963.5C 1423.5,964.5 1423.5,965.5 1423.5,966.5C 1417.5,965.837 1414.16,968.504 1413.5,974.5 Z"/></g>
<g><path style="opacity:1" fill="#efefef" d="M 1309.5,965.5 C 1312.92,965.757 1314.92,967.59 1315.5,971C 1314.94,977.044 1311.94,981.211 1306.5,983.5C 1305.56,983.392 1304.72,983.059 1304,982.5C 1302.08,975.441 1303.91,969.775 1309.5,965.5 Z"/></g>
<g><path style="opacity:1" fill="#e6e6e6" d="M 1351.5,966.5 C 1353.5,966.5 1355.5,966.5 1357.5,966.5C 1357.5,971.332 1355,973.666 1350,973.5C 1349.17,973.167 1348.33,972.833 1347.5,972.5C 1348.47,970.21 1349.8,968.21 1351.5,966.5 Z"/></g>
<g><path style="opacity:1" fill="#ced7d6" d="M 1432.5,966.5 C 1434.5,966.5 1436.5,966.5 1438.5,966.5C 1438.5,971.332 1436,973.666 1431,973.5C 1430.17,973.167 1429.33,972.833 1428.5,972.5C 1429.47,970.21 1430.8,968.21 1432.5,966.5 Z"/></g>
<g><path style="opacity:1" fill="#cad2d1" d="M 1454.5,965.5 C 1458.07,965.408 1459.24,967.074 1458,970.5C 1455.22,973.152 1452.05,973.819 1448.5,972.5C 1449.83,969.507 1451.83,967.173 1454.5,965.5 Z"/></g>
<g><path style="opacity:1" fill="#9b9b9b" d="M 362.5,966.5 C 361.432,967.434 360.099,967.768 358.5,967.5C 358.5,968.833 358.5,970.167 358.5,971.5C 357.549,970.081 357.216,968.415 357.5,966.5C 359.167,966.5 360.833,966.5 362.5,966.5 Z"/></g>
<g><path style="opacity:1" fill="#f1f1f1" d="M 1254.5,971.5 C 1257.19,971.336 1259.85,971.503 1262.5,972C 1266.57,975.745 1266.23,979.078 1261.5,982C 1258.52,982.498 1255.52,982.665 1252.5,982.5C 1252.66,978.709 1253.33,975.042 1254.5,971.5 Z"/></g>
<g><path style="opacity:1" fill="#171717" d="M 1329.5,963.5 C 1333.88,963.174 1338.22,963.508 1342.5,964.5C 1341.17,965.167 1339.83,965.833 1338.5,966.5C 1339.96,974.881 1336.29,978.714 1327.5,978C 1326.07,979.714 1326.41,981.047 1328.5,982C 1335.95,981.272 1338.79,984.439 1337,991.5C 1332.83,995.191 1327.99,996.358 1322.5,995C 1316.87,990.139 1317.54,986.139 1324.5,983C 1323.98,982.439 1323.64,981.772 1323.5,981C 1324.29,979.374 1325.29,977.874 1326.5,976.5C 1323.33,971.182 1324.33,966.848 1329.5,963.5 Z"/></g>
<g><path style="opacity:1" fill="#eaeaea" d="M 1330.5,965.5 C 1336.37,965.636 1337.87,968.303 1335,973.5C 1332.93,975.648 1330.59,975.982 1328,974.5C 1326.93,970.9 1327.76,967.9 1330.5,965.5 Z"/></g>
<g><path style="opacity:1" fill="#ededed" d="M 1324.5,984.5 C 1327.58,984.26 1330.58,984.593 1333.5,985.5C 1334.91,987.949 1334.58,990.116 1332.5,992C 1329.5,992.667 1326.5,992.667 1323.5,992C 1322.43,991.261 1321.76,990.261 1321.5,989C 1322.31,987.357 1323.31,985.857 1324.5,984.5 Z"/></g>
<g><path style="opacity:1" fill="#fefffe" d="M 663.5,997.5 C 678.961,998.088 683.461,1005.42 677,1019.5C 670.91,1024.57 664.743,1024.74 658.5,1020C 652.004,1010.61 653.671,1003.11 663.5,997.5 Z"/></g>
<g><path style="opacity:1" fill="#fefffe" d="M 896.5,1019.5 C 911.961,1020.09 916.461,1027.42 910,1041.5C 903.91,1046.57 897.743,1046.74 891.5,1042C 885.004,1032.61 886.671,1025.11 896.5,1019.5 Z"/></g>
<g><path style="opacity:1" fill="#fefffe" d="M 1076.5,1029.5 C 1091.96,1030.09 1096.46,1037.42 1090,1051.5C 1083.91,1056.57 1077.74,1056.74 1071.5,1052C 1065,1042.61 1066.67,1035.11 1076.5,1029.5 Z"/></g>
<g><path style="opacity:1" fill="#131313" d="M 628.5,1031.5 C 629.5,1031.5 630.5,1031.5 631.5,1031.5C 630.129,1038.18 628.963,1044.85 628,1051.5C 630.797,1047.7 633.964,1044.2 637.5,1041C 638.833,1040.33 640.167,1040.33 641.5,1041C 638.5,1044 635.5,1047 632.5,1050C 634.5,1054 636.5,1058 638.5,1062C 637.207,1062.49 635.873,1062.66 634.5,1062.5C 630.994,1049.22 627.994,1049.22 625.5,1062.5C 624.5,1062.5 623.5,1062.5 622.5,1062.5C 624.757,1052.21 626.757,1041.88 628.5,1031.5 Z"/></g>
<g><path style="opacity:1" fill="#181818" d="M 500.5,1032.5 C 501.5,1032.5 502.5,1032.5 503.5,1032.5C 503.5,1033.83 503.5,1035.17 503.5,1036.5C 502.5,1036.5 501.5,1036.5 500.5,1036.5C 500.5,1035.17 500.5,1033.83 500.5,1032.5 Z"/></g>
<g><path style="opacity:1" fill="#141414" d="M 420.5,1033.5 C 421.675,1033.28 422.675,1033.61 423.5,1034.5C 422.172,1038.8 421.338,1043.13 421,1047.5C 425.5,1043 430,1038.5 434.5,1034C 435.635,1033.25 436.635,1033.42 437.5,1034.5C 433.634,1038.53 429.967,1042.7 426.5,1047C 428.804,1052.08 430.804,1057.25 432.5,1062.5C 431.325,1062.72 430.325,1062.39 429.5,1061.5C 427.757,1057.02 425.757,1052.68 423.5,1048.5C 422.252,1049.04 421.085,1049.71 420,1050.5C 418.972,1054.47 418.139,1058.47 417.5,1062.5C 416.325,1062.72 415.325,1062.39 414.5,1061.5C 416.817,1052.23 418.817,1042.9 420.5,1033.5 Z"/></g>
<g><path style="opacity:1" fill="#0e0e0e" d="M 443.5,1032.5 C 445.176,1033.18 445.843,1034.52 445.5,1036.5C 444.5,1036.5 443.5,1036.5 442.5,1036.5C 442.433,1035.04 442.766,1033.71 443.5,1032.5 Z"/></g>
<g><path style="opacity:1" fill="#131313" d="M 565.5,1033.5 C 569.182,1033.33 572.848,1033.5 576.5,1034C 582.452,1037.72 583.119,1042.39 578.5,1048C 574.454,1050.17 570.121,1051.01 565.5,1050.5C 564.514,1054.44 563.848,1058.44 563.5,1062.5C 562.5,1062.5 561.5,1062.5 560.5,1062.5C 562.555,1052.89 564.222,1043.23 565.5,1033.5 Z"/></g>
<g><path style="opacity:1" fill="#f0f0f0" d="M 568.5,1036.5 C 576.103,1034.42 578.936,1037.09 577,1044.5C 574.346,1047.87 570.846,1049.2 566.5,1048.5C 566.848,1044.44 567.514,1040.44 568.5,1036.5 Z"/></g>
<g><path style="opacity:1" fill="#090909" d="M 441.5,1040.5 C 442.649,1040.79 443.316,1041.62 443.5,1043C 442.228,1049.53 440.894,1056.03 439.5,1062.5C 438.448,1062.65 437.448,1062.48 436.5,1062C 438.241,1054.87 439.908,1047.7 441.5,1040.5 Z"/></g>
<g><path style="opacity:1" fill="#101010" d="M 451.5,1040.5 C 452.5,1040.5 453.5,1040.5 454.5,1040.5C 454.351,1041.55 454.517,1042.55 455,1043.5C 458.469,1040.08 462.136,1039.75 466,1042.5C 466.145,1049.27 465.311,1055.93 463.5,1062.5C 462.325,1062.72 461.325,1062.39 460.5,1061.5C 462.532,1055.67 463.532,1049.67 463.5,1043.5C 459.406,1042.7 456.239,1044.04 454,1047.5C 451.878,1052.27 450.712,1057.27 450.5,1062.5C 449.5,1062.5 448.5,1062.5 447.5,1062.5C 448.962,1055.19 450.296,1047.86 451.5,1040.5 Z"/></g>
<g><path style="opacity:1" fill="#0e0e0e" d="M 475.5,1040.5 C 477.045,1041.23 477.878,1042.56 478,1044.5C 481.519,1040.25 485.519,1039.58 490,1042.5C 489.825,1049.22 488.992,1055.88 487.5,1062.5C 486.5,1062.5 485.5,1062.5 484.5,1062.5C 486.313,1056.27 487.147,1049.94 487,1043.5C 483.907,1042.11 481.241,1042.77 479,1045.5C 476.092,1050.8 474.592,1056.47 474.5,1062.5C 473.5,1062.5 472.5,1062.5 471.5,1062.5C 472.704,1055.15 474.037,1047.81 475.5,1040.5 Z"/></g>
<g><path style="opacity:1" fill="#090909" d="M 498.5,1040.5 C 499.5,1040.5 500.5,1040.5 501.5,1040.5C 500.167,1047.83 498.833,1055.17 497.5,1062.5C 496.325,1062.72 495.325,1062.39 494.5,1061.5C 496.348,1054.59 497.682,1047.59 498.5,1040.5 Z"/></g>
<g><path style="opacity:1" fill="#0e0e0e" d="M 509.5,1040.5 C 511.045,1041.23 511.878,1042.56 512,1044.5C 515.519,1040.25 519.519,1039.58 524,1042.5C 523.825,1049.22 522.992,1055.88 521.5,1062.5C 520.5,1062.5 519.5,1062.5 518.5,1062.5C 520.313,1056.27 521.147,1049.94 521,1043.5C 517.907,1042.11 515.241,1042.77 513,1045.5C 510.092,1050.8 508.592,1056.47 508.5,1062.5C 507.5,1062.5 506.5,1062.5 505.5,1062.5C 506.704,1055.15 508.037,1047.81 509.5,1040.5 Z"/></g>
<g><path style="opacity:1" fill="#141414" d="M 590.5,1040.5 C 594.192,1039.97 597.358,1040.97 600,1043.5C 600.669,1040.73 601.836,1040.23 603.5,1042C 601.587,1048.73 600.254,1055.56 599.5,1062.5C 598.5,1062.5 597.5,1062.5 596.5,1062.5C 596.649,1061.45 596.483,1060.45 596,1059.5C 593.347,1062.19 590.18,1063.03 586.5,1062C 583.121,1057.54 582.621,1052.7 585,1047.5C 586.666,1045 588.5,1042.67 590.5,1040.5 Z"/></g>
<g><path style="opacity:1" fill="#121212" d="M 610.5,1040.5 C 611.5,1040.5 612.5,1040.5 613.5,1040.5C 613.351,1041.55 613.517,1042.55 614,1043.5C 615.995,1041.25 618.495,1040.25 621.5,1040.5C 621.5,1041.5 621.5,1042.5 621.5,1043.5C 617.727,1042.82 614.894,1044.16 613,1047.5C 610.878,1052.27 609.712,1057.27 609.5,1062.5C 608.5,1062.5 607.5,1062.5 606.5,1062.5C 607.962,1055.19 609.296,1047.86 610.5,1040.5 Z"/></g>
<g><path style="opacity:1" fill="#f3f3f3" d="M 591.5,1043.5 C 593.527,1043.34 595.527,1043.5 597.5,1044C 599.536,1051.4 597.203,1056.9 590.5,1060.5C 587.706,1059.6 586.372,1057.6 586.5,1054.5C 586.833,1050.17 588.5,1046.5 591.5,1043.5 Z"/></g>
<g><path style="opacity:1" fill="#111111" d="M 1114.5,1063.5 C 1114.33,1066.85 1114.5,1070.18 1115,1073.5C 1116.04,1072.76 1116.54,1071.76 1116.5,1070.5C 1119.78,1063.61 1122.78,1056.61 1125.5,1049.5C 1126.83,1049.5 1128.17,1049.5 1129.5,1049.5C 1129.67,1057.52 1130.17,1065.52 1131,1073.5C 1134.14,1065.75 1137.47,1058.08 1141,1050.5C 1142.05,1049.48 1143.22,1049.32 1144.5,1050C 1140.34,1059.15 1136.17,1068.32 1132,1077.5C 1130.99,1078.34 1129.82,1078.67 1128.5,1078.5C 1127.88,1070.18 1127.38,1061.85 1127,1053.5C 1123.33,1061.5 1119.67,1069.5 1116,1077.5C 1114.99,1078.34 1113.82,1078.67 1112.5,1078.5C 1112.12,1068.84 1111.79,1059.17 1111.5,1049.5C 1112.5,1049.5 1113.5,1049.5 1114.5,1049.5C 1114.5,1054.17 1114.5,1058.83 1114.5,1063.5 Z"/></g>
<g><path style="opacity:1" fill="#181818" d="M 1212.5,1049.5 C 1216.11,1049.21 1219.61,1049.54 1223,1050.5C 1223.75,1051.64 1223.58,1052.64 1222.5,1053.5C 1219.33,1051.03 1215.99,1050.86 1212.5,1053C 1211.41,1055.06 1211.24,1057.23 1212,1059.5C 1214.49,1061.74 1217.15,1063.74 1220,1065.5C 1222.6,1071.14 1221.1,1075.3 1215.5,1078C 1211.85,1078.5 1208.18,1078.67 1204.5,1078.5C 1204.34,1077.13 1204.51,1075.79 1205,1074.5C 1206.74,1075.13 1208.57,1075.46 1210.5,1075.5C 1216.51,1075.99 1218.67,1073.32 1217,1067.5C 1214.33,1065.5 1211.67,1063.5 1209,1061.5C 1206.46,1056.36 1207.62,1052.36 1212.5,1049.5 Z"/></g>
<g><path style="opacity:1" fill="#101010" d="M 1187.5,1051.5 C 1188.38,1051.37 1189.04,1051.7 1189.5,1052.5C 1188.75,1053.74 1188.42,1055.07 1188.5,1056.5C 1190.29,1056.21 1191.95,1056.55 1193.5,1057.5C 1191.6,1058.47 1189.6,1058.8 1187.5,1058.5C 1186.69,1063.36 1185.69,1068.19 1184.5,1073C 1184.59,1074.11 1184.92,1075.11 1185.5,1076C 1186.94,1076.22 1188.27,1076.72 1189.5,1077.5C 1185.26,1079.54 1182.59,1078.37 1181.5,1074C 1182.82,1068.88 1183.82,1063.72 1184.5,1058.5C 1183.45,1058.65 1182.45,1058.48 1181.5,1058C 1184.73,1056.94 1186.73,1054.78 1187.5,1051.5 Z"/></g>
<g><path style="opacity:1" fill="#0f0f0f" d="M 1231.5,1051.5 C 1233.26,1052.55 1233.92,1054.22 1233.5,1056.5C 1235.29,1056.21 1236.95,1056.55 1238.5,1057.5C 1236.58,1058.31 1234.58,1058.81 1232.5,1059C 1230.37,1064.3 1229.54,1069.8 1230,1075.5C 1231.51,1076.09 1233.01,1076.76 1234.5,1077.5C 1231.72,1078.95 1229.22,1078.62 1227,1076.5C 1226.85,1070.72 1227.69,1065.05 1229.5,1059.5C 1225.8,1058.26 1225.97,1056.93 1230,1055.5C 1230.79,1054.26 1231.29,1052.92 1231.5,1051.5 Z"/></g>
<g><path style="opacity:1" fill="#0f0f0f" d="M 1301.5,1051.5 C 1303.26,1052.55 1303.92,1054.22 1303.5,1056.5C 1305.29,1056.21 1306.95,1056.55 1308.5,1057.5C 1306.58,1058.31 1304.58,1058.81 1302.5,1059C 1300.37,1064.3 1299.54,1069.8 1300,1075.5C 1301.51,1076.09 1303.01,1076.76 1304.5,1077.5C 1301.72,1078.95 1299.22,1078.62 1297,1076.5C 1296.85,1070.72 1297.69,1065.05 1299.5,1059.5C 1295.8,1058.26 1295.97,1056.93 1300,1055.5C 1300.79,1054.26 1301.29,1052.92 1301.5,1051.5 Z"/></g>
<g><path style="opacity:1" fill="#171717" d="M 535.5,1040.5 C 539.884,1040.17 544.217,1040.51 548.5,1041.5C 547.167,1042.17 545.833,1042.83 544.5,1043.5C 545.958,1051.88 542.292,1055.71 533.5,1055C 532.075,1056.71 532.408,1058.05 534.5,1059C 541.952,1058.27 544.786,1061.44 543,1068.5C 538.827,1072.19 533.993,1073.36 528.5,1072C 522.875,1067.14 523.541,1063.14 530.5,1060C 529.978,1059.44 529.645,1058.77 529.5,1058C 530.289,1056.37 531.289,1054.87 532.5,1053.5C 529.33,1048.18 530.33,1043.85 535.5,1040.5 Z"/></g>
<g><path style="opacity:1" fill="#eaeaea" d="M 536.5,1042.5 C 542.375,1042.64 543.875,1045.3 541,1050.5C 538.925,1052.65 536.592,1052.98 534,1051.5C 532.927,1047.9 533.76,1044.9 536.5,1042.5 Z"/></g>
<g><path style="opacity:1" fill="#131313" d="M 1151.5,1068.5 C 1149.83,1068.5 1148.17,1068.5 1146.5,1068.5C 1146.22,1070.41 1146.55,1072.08 1147.5,1073.5C 1147.95,1074.46 1148.62,1075.29 1149.5,1076C 1152.28,1076.05 1154.94,1076.22 1157.5,1076.5C 1149.07,1081.03 1144.4,1078.53 1143.5,1069C 1145.1,1058.67 1150.6,1055.17 1160,1058.5C 1161.02,1064.99 1158.19,1068.32 1151.5,1068.5 Z"/></g>
<g><path style="opacity:1" fill="#181818" d="M 1168.5,1056.5 C 1181.71,1057.46 1181.71,1058.63 1168.5,1060C 1167.98,1060.56 1167.64,1061.23 1167.5,1062C 1169.43,1064.73 1171.93,1066.9 1175,1068.5C 1177.36,1072.55 1176.53,1075.71 1172.5,1078C 1169.5,1078.67 1166.5,1078.67 1163.5,1078C 1162.29,1077.11 1162.29,1076.27 1163.5,1075.5C 1167.83,1077.46 1171.16,1076.46 1173.5,1072.5C 1170.8,1069.73 1167.97,1067.06 1165,1064.5C 1163.78,1060.71 1164.95,1058.04 1168.5,1056.5 Z"/></g>
<g><path style="opacity:1" fill="#111111" d="M 1262.5,1056.5 C 1269.49,1055 1272.33,1057.66 1271,1064.5C 1267.56,1067.88 1263.39,1069.22 1258.5,1068.5C 1258.74,1076.24 1262.24,1078.24 1269,1074.5C 1269.66,1076.11 1269.16,1077.27 1267.5,1078C 1256.18,1079.25 1252.68,1074.42 1257,1063.5C 1257.97,1060.38 1259.8,1058.05 1262.5,1056.5 Z"/></g>
<g><path style="opacity:1" fill="#131313" d="M 1283.5,1068.5 C 1281.83,1068.5 1280.17,1068.5 1278.5,1068.5C 1278.22,1070.41 1278.55,1072.08 1279.5,1073.5C 1279.95,1074.46 1280.62,1075.29 1281.5,1076C 1284.28,1076.05 1286.94,1076.22 1289.5,1076.5C 1281.07,1081.03 1276.4,1078.53 1275.5,1069C 1277.1,1058.67 1282.6,1055.17 1292,1058.5C 1293.02,1064.99 1290.19,1068.32 1283.5,1068.5 Z"/></g>
<g><path style="opacity:1" fill="#141414" d="M 1242.5,1056.5 C 1243.5,1056.5 1244.5,1056.5 1245.5,1056.5C 1245.35,1057.55 1245.52,1058.55 1246,1059.5C 1248.38,1056.73 1251.21,1056.06 1254.5,1057.5C 1251.5,1058.75 1248.66,1060.42 1246,1062.5C 1243.57,1067.57 1242.07,1072.9 1241.5,1078.5C 1240.32,1078.72 1239.32,1078.39 1238.5,1077.5C 1240.35,1070.59 1241.68,1063.59 1242.5,1056.5 Z"/></g>
<g><path style="opacity:1" fill="#e2e2e2" d="M 1152.5,1058.5 C 1159.16,1060.71 1159.16,1063.21 1152.5,1066C 1150.74,1066.8 1149.07,1066.63 1147.5,1065.5C 1148.8,1062.87 1150.47,1060.54 1152.5,1058.5 Z"/></g>
<g><path style="opacity:1" fill="#e3e3e3" d="M 1264.5,1058.5 C 1268.07,1058.41 1269.24,1060.07 1268,1063.5C 1265.7,1065.93 1262.86,1066.93 1259.5,1066.5C 1259.67,1062.82 1261.33,1060.15 1264.5,1058.5 Z"/></g>
<g><path style="opacity:1" fill="#e2e2e2" d="M 1284.5,1058.5 C 1291.16,1060.71 1291.16,1063.21 1284.5,1066C 1282.74,1066.8 1281.07,1066.63 1279.5,1065.5C 1280.8,1062.87 1282.47,1060.54 1284.5,1058.5 Z"/></g>
<g><path style="opacity:1" fill="#ededed" d="M 530.5,1061.5 C 533.579,1061.26 536.579,1061.59 539.5,1062.5C 540.91,1064.95 540.576,1067.12 538.5,1069C 535.5,1069.67 532.5,1069.67 529.5,1069C 528.426,1068.26 527.759,1067.26 527.5,1066C 528.315,1064.36 529.315,1062.86 530.5,1061.5 Z"/></g>
<g><path style="opacity:1" fill="#0d0d0d" d="M 870.5,1062.5 C 871.5,1062.5 872.5,1062.5 873.5,1062.5C 871.734,1072.5 869.9,1082.5 868,1092.5C 866.951,1093.52 865.784,1093.68 864.5,1093C 867.329,1083.02 869.329,1072.85 870.5,1062.5 Z"/></g>
<g><path style="opacity:1" fill="#1e1e1e" d="M 840.5,1063.5 C 841.5,1063.5 842.5,1063.5 843.5,1063.5C 843.833,1066.5 842.5,1067.83 839.5,1067.5C 839.433,1066.04 839.766,1064.71 840.5,1063.5 Z"/></g>
<g><path style="opacity:1" fill="#151515" d="M 797.5,1064.5 C 801.637,1064.15 805.637,1064.65 809.5,1066C 808.874,1066.75 808.374,1067.58 808,1068.5C 800.69,1064.4 797.023,1066.4 797,1074.5C 800,1076.83 803,1079.17 806,1081.5C 807.739,1087.19 805.906,1091.02 800.5,1093C 797.167,1093.67 793.833,1093.67 790.5,1093C 789.483,1091.95 789.316,1090.78 790,1089.5C 793.409,1090.62 796.909,1090.79 800.5,1090C 804.5,1087 804.5,1084 800.5,1081C 798.246,1079.62 796.08,1078.12 794,1076.5C 792.593,1071.56 793.759,1067.56 797.5,1064.5 Z"/></g>
<g><path style="opacity:1" fill="#111111" d="M 933.5,1064.5 C 936.85,1064.33 940.183,1064.5 943.5,1065C 945.329,1065.27 946.829,1066.11 948,1067.5C 949.962,1074.07 947.795,1078.57 941.5,1081C 942.971,1085.08 944.638,1089.08 946.5,1093C 945.207,1093.49 943.873,1093.66 942.5,1093.5C 941.5,1089.5 940.5,1085.5 939.5,1081.5C 937.167,1081.5 934.833,1081.5 932.5,1081.5C 932.326,1084.87 931.826,1088.21 931,1091.5C 930.275,1093.16 929.108,1093.66 927.5,1093C 930.071,1083.65 932.071,1074.15 933.5,1064.5 Z"/></g>
<g><path style="opacity:1" fill="#f3f3f3" d="M 935.5,1067.5 C 944.419,1065.9 947.086,1069.07 943.5,1077C 940.649,1078.29 937.649,1078.79 934.5,1078.5C 934.724,1074.82 935.058,1071.15 935.5,1067.5 Z"/></g>
<g><path style="opacity:1" fill="#9b9b9b" d="M 1114.5,1063.5 C 1115.17,1065.83 1115.83,1068.17 1116.5,1070.5C 1116.54,1071.76 1116.04,1072.76 1115,1073.5C 1114.5,1070.18 1114.33,1066.85 1114.5,1063.5 Z"/></g>
<g><path style="opacity:1" fill="#9b9b9b" d="M 1151.5,1068.5 C 1150.43,1069.43 1149.1,1069.77 1147.5,1069.5C 1147.5,1070.83 1147.5,1072.17 1147.5,1073.5C 1146.55,1072.08 1146.22,1070.41 1146.5,1068.5C 1148.17,1068.5 1149.83,1068.5 1151.5,1068.5 Z"/></g>
<g><path style="opacity:1" fill="#9b9b9b" d="M 1283.5,1068.5 C 1282.43,1069.43 1281.1,1069.77 1279.5,1069.5C 1279.5,1070.83 1279.5,1072.17 1279.5,1073.5C 1278.55,1072.08 1278.22,1070.41 1278.5,1068.5C 1280.17,1068.5 1281.83,1068.5 1283.5,1068.5 Z"/></g>
<g><path style="opacity:1" fill="#151515" d="M 816.5,1062.5 C 817.5,1062.5 818.5,1062.5 819.5,1062.5C 818.942,1066.79 817.942,1070.96 816.5,1075C 818.991,1073.74 821.658,1072.57 824.5,1071.5C 827.006,1071.34 828.839,1072.34 830,1074.5C 829.121,1080.75 828.288,1087.09 827.5,1093.5C 826.5,1093.5 825.5,1093.5 824.5,1093.5C 825.1,1088.67 825.766,1083.83 826.5,1079C 825.472,1072.24 822.638,1071.74 818,1077.5C 815.301,1082.5 813.801,1087.83 813.5,1093.5C 812.325,1093.72 811.325,1093.39 810.5,1092.5C 812.886,1082.57 814.886,1072.57 816.5,1062.5 Z"/></g>
<g><path style="opacity:1" fill="#111111" d="M 852.5,1071.5 C 859.493,1070 862.327,1072.66 861,1079.5C 857.556,1082.88 853.39,1084.22 848.5,1083.5C 848.738,1091.24 852.238,1093.24 859,1089.5C 859.658,1091.11 859.158,1092.27 857.5,1093C 846.182,1094.25 842.682,1089.42 847,1078.5C 847.967,1075.38 849.8,1073.05 852.5,1071.5 Z"/></g>
<g><path style="opacity:1" fill="#171717" d="M 894.5,1062.5 C 895.5,1062.5 896.5,1062.5 897.5,1062.5C 895.804,1072.98 893.47,1083.32 890.5,1093.5C 889.719,1092.27 889.219,1090.94 889,1089.5C 886.293,1093.03 882.793,1094.2 878.5,1093C 873.981,1085.63 874.981,1078.97 881.5,1073C 885.474,1070.64 888.974,1071.14 892,1074.5C 893.47,1070.62 894.303,1066.62 894.5,1062.5 Z"/></g>
<g><path style="opacity:1" fill="#181818" d="M 903.5,1071.5 C 906.187,1071.34 908.854,1071.5 911.5,1072C 912.308,1072.31 912.975,1072.81 913.5,1073.5C 910.553,1074.32 907.553,1074.82 904.5,1075C 903.978,1075.56 903.645,1076.23 903.5,1077C 906.972,1080.08 909.972,1083.58 912.5,1087.5C 911.731,1090.1 910.064,1091.94 907.5,1093C 904.5,1093.67 901.5,1093.67 898.5,1093C 896.939,1089.62 897.606,1088.95 900.5,1091C 905.986,1092.83 908.486,1090.99 908,1085.5C 905.213,1083.95 902.88,1081.95 901,1079.5C 900.018,1076.23 900.851,1073.56 903.5,1071.5 Z"/></g>
<g><path style="opacity:1" fill="#141414" d="M 958.5,1071.5 C 965.965,1070.17 969.632,1073.17 969.5,1080.5C 968.794,1091.74 963.294,1095.4 953,1091.5C 949.704,1083.29 951.537,1076.62 958.5,1071.5 Z"/></g>
<g><path style="opacity:1" fill="#111111" d="M 1015.5,1062.5 C 1016.5,1062.5 1017.5,1062.5 1018.5,1062.5C 1017.06,1073.06 1014.72,1083.39 1011.5,1093.5C 1010.72,1092.27 1010.22,1090.94 1010,1089.5C 1007.04,1093.27 1003.37,1094.27 999,1092.5C 996.802,1086.68 997.135,1081.02 1000,1075.5C 1004.25,1070.7 1008.75,1070.37 1013.5,1074.5C 1014.82,1070.61 1015.48,1066.61 1015.5,1062.5 Z"/></g>
<g><path style="opacity:1" fill="#090909" d="M 838.5,1071.5 C 839.5,1071.5 840.5,1071.5 841.5,1071.5C 839.848,1078.77 838.515,1086.11 837.5,1093.5C 836.5,1093.5 835.5,1093.5 834.5,1093.5C 835.962,1086.19 837.296,1078.86 838.5,1071.5 Z"/></g>
<g><path style="opacity:1" fill="#101010" d="M 981.5,1071.5 C 985.08,1070.92 988.08,1071.92 990.5,1074.5C 991.167,1073.5 991.833,1072.5 992.5,1071.5C 992.833,1072.33 993.167,1073.17 993.5,1074C 992.094,1080.12 990.927,1086.29 990,1092.5C 989.586,1092.96 989.086,1093.29 988.5,1093.5C 988.057,1089.19 986.724,1088.69 984.5,1092C 980.669,1094.45 977.503,1093.95 975,1090.5C 972.772,1082.49 974.939,1076.16 981.5,1071.5 Z"/></g>
<g><path style="opacity:1" fill="#e3e3e3" d="M 854.5,1073.5 C 858.071,1073.41 859.238,1075.07 858,1078.5C 855.695,1080.93 852.862,1081.93 849.5,1081.5C 849.667,1077.82 851.334,1075.15 854.5,1073.5 Z"/></g>
<g><path style="opacity:1" fill="#eeeeee" d="M 884.5,1073.5 C 888.451,1073.28 890.784,1075.12 891.5,1079C 890.937,1085.04 887.937,1089.21 882.5,1091.5C 881.558,1091.39 880.725,1091.06 880,1090.5C 878.38,1083.92 879.88,1078.26 884.5,1073.5 Z"/></g>
<g><path style="opacity:1" fill="#f5f5f5" d="M 958.5,1074.5 C 963.5,1073.24 966.167,1075.07 966.5,1080C 966.983,1085.68 964.649,1089.51 959.5,1091.5C 955.489,1090.66 953.822,1088.16 954.5,1084C 954.339,1080.16 955.672,1076.99 958.5,1074.5 Z"/></g>
<g><path style="opacity:1" fill="#f0f0f0" d="M 983.5,1073.5 C 987.156,1073.82 989.156,1075.82 989.5,1079.5C 988.85,1085.16 986.017,1089.16 981,1091.5C 979.739,1091.24 978.739,1090.57 978,1089.5C 976.212,1082.78 978.045,1077.44 983.5,1073.5 Z"/></g>
<g><path style="opacity:1" fill="#f0f0f0" d="M 1006.5,1073.5 C 1010.49,1073.49 1012.49,1075.49 1012.5,1079.5C 1011.85,1085.16 1009.02,1089.16 1004,1091.5C 1002.74,1091.24 1001.74,1090.57 1001,1089.5C 999.212,1082.78 1001.05,1077.44 1006.5,1073.5 Z"/></g>
</svg>
