<svg xmlns="http://www.w3.org/2000/svg" viewBox="0 0 420 200" font-family="ui-sans-serif, system-ui, 'PingFang TC', 'Noto Sans TC', sans-serif"><rect width="420" height="200" fill="#fff"/><line x1="46" y1="160" x2="410" y2="160" stroke="#94a3b8" stroke-width="0.8"/><rect x="46.0" y="54.9" width="28.0" height="105.1" fill="#2563eb" opacity="0.85"/><text x="46.0" y="171" font-size="7" fill="#64748b">0%</text><text x="60.0" y="51.9" font-size="6.5" text-anchor="middle" fill="#334155">34</text><rect x="76.0" y="160.0" width="28.0" height="0.0" fill="#2563eb" opacity="0.85"/><text x="76.0" y="171" font-size="7" fill="#64748b">8%</text><rect x="106.0" y="156.9" width="28.0" height="3.1" fill="#2563eb" opacity="0.85"/><text x="106.0" y="171" font-size="7" fill="#64748b">17%</text><text x="120.0" y="153.9" font-size="6.5" text-anchor="middle" fill="#334155">1</text><rect x="136.0" y="144.5" width="28.0" height="15.5" fill="#2563eb" opacity="0.85"/><text x="136.0" y="171" font-size="7" fill="#64748b">25%</text><text x="150.0" y="141.5" font-size="6.5" text-anchor="middle" fill="#334155">5</text><rect x="166.0" y="113.6" width="28.0" height="46.4" fill="#2563eb" opacity="0.85"/><text x="166.0" y="171" font-size="7" fill="#64748b">33%</text><text x="180.0" y="110.6" font-size="6.5" text-anchor="middle" fill="#334155">15</text><rect x="196.0" y="67.3" width="28.0" height="92.7" fill="#2563eb" opacity="0.85"/><text x="196.0" y="171" font-size="7" fill="#64748b">42%</text><text x="210.0" y="64.3" font-size="6.5" text-anchor="middle" fill="#334155">30</text><rect x="226.0" y="33.3" width="28.0" height="126.7" fill="#2563eb" opacity="0.85"/><text x="226.0" y="171" font-size="7" fill="#64748b">50%</text><text x="240.0" y="30.3" font-size="6.5" text-anchor="middle" fill="#334155">41</text><rect x="256.0" y="24.0" width="28.0" height="136.0" fill="#2563eb" opacity="0.85"/><text x="256.0" y="171" font-size="7" fill="#64748b">58%</text><text x="270.0" y="21.0" font-size="6.5" text-anchor="middle" fill="#334155">44</text><rect x="286.0" y="36.4" width="28.0" height="123.6" fill="#2563eb" opacity="0.85"/><text x="286.0" y="171" font-size="7" fill="#64748b">67%</text><text x="300.0" y="33.4" font-size="6.5" text-anchor="middle" fill="#334155">40</text><rect x="316.0" y="79.6" width="28.0" height="80.4" fill="#2563eb" opacity="0.85"/><text x="316.0" y="171" font-size="7" fill="#64748b">75%</text><text x="330.0" y="76.6" font-size="6.5" text-anchor="middle" fill="#334155">26</text><rect x="346.0" y="132.2" width="28.0" height="27.8" fill="#2563eb" opacity="0.85"/><text x="346.0" y="171" font-size="7" fill="#64748b">83%</text><text x="360.0" y="129.2" font-size="6.5" text-anchor="middle" fill="#334155">9</text><rect x="376.0" y="98.2" width="28.0" height="61.8" fill="#2563eb" opacity="0.85"/><text x="376.0" y="171" font-size="7" fill="#64748b">92%</text><text x="390.0" y="95.2" font-size="6.5" text-anchor="middle" fill="#334155">20</text><text x="210.0" y="192" text-anchor="middle" font-size="8" fill="#0f172a">多準則爬山適應度改善率（1 − after/before），n = 265 系統，中位數 60%</text><text x="14" y="100.0" transform="rotate(-90 14 100.0)" text-anchor="middle" font-size="7.5" fill="#64748b">系統數</text></svg>