<svg width="104" height="72" fill="none" xmlns="http://www.w3.org/2000/svg"><g clip-path="url(#clip0_720_52)" fill="#fff"><path d="M16.05 55.144h1.37c1.664 0 2.288.863 2.322 2.14 1.488-1.277 3.124-2.38 5.26-2.38 1.64 0 2.832.86 3.224 2.41 1.726-1.428 3.57-2.41 5.623-2.41 2.506 0 3.894 1.966 3.124 5.264l-2.484 10.598h-2.86c-1.012 0-1.341-.416-.988-1.935l1.938-8.663c.267-1.242-.059-1.813-.95-1.813-.838 0-1.882.419-3.394 1.335l-.09.478-2.484 10.598h-4.313l2.381-10.598c.268-1.242-.059-1.813-.953-1.813-.832 0-1.903.419-3.39 1.369l-2.528 11.042h-4.375l3.567-15.622zm22.503 9.43c0-5.061 3.105-9.67 8.335-9.67 3.775 0 5.65 2.233 5.623 5.621a12.798 12.798 0 01-.506 3.394h-9.223v.6c0 2.499 1.035 3.415 3.003 3.415a6.99 6.99 0 003.854-1.105h1.394l-.686 3.008c-1.13.621-2.76 1.13-5.021 1.13-4.313 0-6.757-2.207-6.757-6.402l-.016.01zm4.565-3.27h5.505c.083-.382.122-.773.118-1.164 0-1.667-.826-2.468-2.133-2.468-1.73 0-2.922 1.428-3.49 3.633zM54.7 65.916l1.82-7.856h-1.702l.621-2.916h1.73l.965-4.152h4.347l-.962 4.168h2.794l-.62 2.915h-2.854l-1.81 7.943c-.311 1.31.108 2.025 1.748 2.025h.739l-.562 2.59a6.21 6.21 0 01-2.41.384c-3.27 0-4.552-1.931-3.838-5.086l-.006-.015zM66.94 55.16h1.367c1.863 0 2.412 1.034 2.316 2.586 1.164-1.608 2.776-2.739 4.527-2.739.305.003.606.055.895.153l-.805 3.664h-.54a6.996 6.996 0 00-4.577 1.552l-2.385 10.418h-4.362L66.94 55.16zm8.894 9.253c0-5.779 3.962-9.493 8.514-9.493 4.347 0 6.831 2.677 6.831 6.692 0 5.776-3.692 9.35-8.477 9.35-4.347 0-6.853-2.534-6.853-6.55h-.016zm11.085-2.888c0-2.5-1.065-3.515-2.674-3.515-2.558 0-4.136 3.223-4.136 6.493 0 2.484 1.068 3.456 2.733 3.456 2.645 0 4.077-3.105 4.077-6.434zM59.1 39.193l-7.275-14.004-7.273 14.004H59.1zM84.245.003H67.31c-1.553 0-2.919.99-3.686 2.484l-10.188 19.61.932 1.784 7.9 15.2a4.43 4.43 0 002.949-2.35l5.645-10.89L84.245.003zM50.213 22.087L40.031 2.477A4.484 4.484 0 0037.371.18a7115.64 7115.64 0 00-5.51 10.61l-.058.094-3.382 6.52 10.04 19.305a4.387 4.387 0 002.943 2.35l7.9-15.2.909-1.772zM29.322 9.474S31.843 4.599 34.243 0H17.246c-1.553 0-2.919.99-3.692 2.484-.137.273-12.706 24.41-12.706 24.41a8.598 8.598 0 0015.373 7.7l9.744-18.736s.643-1.242 1.528-2.934c-.246.48-.51.962-.702 1.353l.015.028 2.503-4.797.013-.034zm3.726-7.201c-.019.034-.04.068-.06.109.007-.04.029-.075.047-.11h.013zm70.098 24.611S90.573 2.748 90.443 2.474a4.388 4.388 0 00-3.03-2.368l-8.77 16.904c4.438 8.527 9.126 17.55 9.136 17.575a8.595 8.595 0 0015.367-7.7z"/></g><defs><clipPath id="clip0_720_52"><path fill="#fff" d="M0 0h104v71.002H0z"/></clipPath></defs></svg>