<?xml version="1.0" encoding="UTF-8" standalone="no"?>
<!-- Created with Inkscape (http://www.inkscape.org/) -->

<svg
   xmlns:dc="http://purl.org/dc/elements/1.1/"
   xmlns:cc="http://creativecommons.org/ns#"
   xmlns:rdf="http://www.w3.org/1999/02/22-rdf-syntax-ns#"
   xmlns:svg="http://www.w3.org/2000/svg"
   xmlns="http://www.w3.org/2000/svg"
   xmlns:sodipodi="http://sodipodi.sourceforge.net/DTD/sodipodi-0.dtd"
   xmlns:inkscape="http://www.inkscape.org/namespaces/inkscape"
   width="1010.3895"
   height="946.06586"
   id="svg2"
   version="1.1"
   inkscape:version="0.48.2 r9819"
   sodipodi:docname="metromi7.svg"
   style="enable-background:new">
  <defs
     id="defs4" />
  <sodipodi:namedview
     id="base"
     pagecolor="#ffffff"
     bordercolor="#666666"
     borderopacity="1.0"
     inkscape:pageopacity="0.0"
     inkscape:pageshadow="2"
     inkscape:zoom="0.71761419"
     inkscape:cx="560.48929"
     inkscape:cy="706.0396"
     inkscape:document-units="px"
     inkscape:current-layer="layer2"
     showgrid="false"
     inkscape:window-width="1280"
     inkscape:window-height="752"
     inkscape:window-x="0"
     inkscape:window-y="0"
     inkscape:window-maximized="0"
     showguides="true"
     inkscape:guide-bbox="true"
     fit-margin-right="0"
     fit-margin-top="50"
     fit-margin-left="20"
     fit-margin-bottom="20" />
  <metadata
     id="metadata7">
    <rdf:RDF>
      <cc:Work
         rdf:about="">
        <dc:format>image/svg+xml</dc:format>
        <dc:type
           rdf:resource="http://purl.org/dc/dcmitype/StillImage" />
        <dc:title></dc:title>
      </cc:Work>
    </rdf:RDF>
  </metadata>
  <g
     inkscape:groupmode="layer"
     id="layer3"
     inkscape:label="CITTA"
     style="display:inline"
     transform="translate(155.56955,18.756985)"
     sodipodi:insensitive="true">
    <path
       style="fill:#000000;fill-opacity:0.14009663;stroke:#000000;stroke-width:0;stroke-linecap:butt;stroke-linejoin:miter;stroke-miterlimit:4;stroke-opacity:1;stroke-dasharray:none"
       d="m 460.55388,390.6734 47.03084,30.30876 5.57402,73.85584 -21.25097,51.21137 -44.94058,3.13538 -15.67695,-5.9224 -35.18604,-0.34837 -53.64999,-49.46948 11.49642,-59.92078 c 15.21862,-13.55782 14.89257,-14.51218 32.7474,-30.65714 l 5.74822,7.31591 17.9414,-12.88994 4.87727,-16.89626 45.28896,10.27711"
       id="path3944"
       inkscape:connector-curvature="0"
       sodipodi:nodetypes="cccccccccccccc" />
  </g>
  <g
     inkscape:groupmode="layer"
     id="layer8"
     inkscape:label="Layer#1"
     transform="translate(155.56955,18.756985)"
     sodipodi:insensitive="true"
     style="display:inline">
    <path
       sodipodi:nodetypes="ccsccccccccccccsccccccsccccsccscssccccccccccccccccccccsccccccccccscccccccssccsccccccccccccscccccccccccccccccsscccccsscccscccccsccsscsscsccsscccccccccccccccccssscccccccccsscccccccccccsscccccccccssscccccssccccccscccsscsscsccccccccccsscsscssccsccccsccccsscccccccsscscscsscsscccscccscsccccscscccccccccccccccccccsccccccccccccscsccccccccccccccsscsccccscsccccssccccccccccccccccccccccccccccccccccccccccccccsccccccccccccccccsscccccscccccccssscccsccccssscccscccccscsssccccscscccccccccccsscssscsscccccccsscccsssscsscccccccccssscssscssscccccssscccccccsscccccsscssscsscsccssscccsssscccccccccsssscccccccssscssscccsscccssscccccccccccccssssscsscccccccccccccccsscccscscccccccsscssccscscccccccccccccccccssscccccsccccccssscccsscccssscccccccsscsscccccsscscccccsscssccssscssscccccccsscsscccccccccccccccccccccsscccssscsscsscccssscccccccccsscccccccccccccccccccccccsscsscccccccccsscccssscccssccccscccccccccccsscsscccccccccsscccccccccscsccccscccsscscccsccssccsccsscccccccsscccccccccsscccccsccccccccsccccccccccsscccscccsscsscccccccccccccccsscccssccccccccccccccccccccccccccccssccscccccccccccsscccsscccsccccccccccccssscccsccccssscsscccccccccccsccccccccccccccccccccccccccsscccccccccsscccssccccccccsscccccccssscccsssccccccccsccccscccscccccsccccccssccccccsccccsscccccssccsccccccccccccccccccccccccccccccccccccccsscsccccsscccsccsccscscscccccsccccccsssccccccsccccccccccccccccccccccsccccccccccccccccccccccccccsccccccccccccccccccccccscccccccccscccccccccssccccccccccccccccccccccccccccccsccccccccccccccccccccccccccccccccccssssssscssccccccccccccc"
       style="opacity:0.5;fill:#dadada;display:inline"
       d="m 644.00944,787.08303 -1.63343,-1.02378 c -0.89845,-0.56305 -2.84881,-2.28242 -4.33425,-3.82083 l -2.70075,-2.79711 -3.61267,0.26615 -3.6126,0.26614 -1.44719,0.94827 -1.44718,0.9482 -2.83371,0.38838 -2.83371,0.38845 -4.77519,3.59816 -4.77512,3.59817 -7.27819,-0.13612 -7.27813,-0.13612 -2.19167,1.92431 c -1.20546,1.05844 -2.43071,1.92436 -2.72287,1.92436 -0.6298,0 -5.02854,-5.19524 -6.05671,-7.1534 l -0.71811,-1.36759 -3.09718,-2.08581 -3.09724,-2.08576 -5.25705,3.79056 c -2.89133,2.08485 -7.00078,4.86167 -9.13203,6.17067 -2.13125,1.30905 -3.9941,2.69034 -4.1396,3.06952 l -0.26456,0.68949 1.26465,3.20857 1.26472,3.20851 -0.66348,0.79942 c -0.36487,0.43966 -2.12784,1.92917 -3.91761,3.30997 l -3.25424,2.51062 -0.2843,2.55985 c -0.1564,1.408 -0.63437,4.9873 -1.06221,7.954 l -0.77786,5.3941 0.69862,3.0266 c 0.38424,1.6646 0.69862,4.1903 0.69862,5.6126 l 0,2.586 4.27322,6.0162 4.27322,6.0163 -0.20384,0.6115 -0.20384,0.6116 -6.94249,1.7406 -6.9425,1.7405 -0.7591,-1.0381 c -0.41755,-0.571 -0.83754,-1.2561 -0.93334,-1.5224 l -0.17424,-0.4843 -4.26324,0.9247 -4.26323,0.9247 -4.11097,-0.3187 -4.11098,-0.3186 0,0.5363 0,0.5363 -2.65581,0.3982 -2.65575,0.3983 -0.65191,2.124 -0.65185,2.124 0.56525,5.5848 c 0.31085,3.0716 0.72706,6.7022 0.92493,8.0681 l 0.3597,2.4834 -3.4925,1.3366 -3.4925,1.3365 -0.97641,-0.8269 c -0.53704,-0.4548 -2.17053,-1.4002 -3.63002,-2.101 l -2.65362,-1.274 -0.75075,0.288 -0.75076,0.2881 -0.7016,-0.8454 c -0.38589,-0.465 -1.82406,-3.8347 -3.1959,-7.4883 -1.37185,-3.6537 -2.73609,-6.9351 -3.03165,-7.2922 l -0.53735,-0.6491 -0.40805,-3.4715 -0.40799,-3.4717 -1.3107,-0.3289 c -0.72092,-0.1809 -2.93232,-0.2451 -4.91429,-0.1425 l -3.60353,0.1864 -0.73693,3.3497 c -0.40531,1.8423 -1.135,5.3221 -1.62149,7.7329 l -0.88456,4.3832 1.50169,1.4026 c 0.82597,0.7714 2.55593,3.184 3.84446,5.3613 l 2.34277,3.9588 0.70611,2.8499 0.70618,2.8498 -2.87403,4.0275 -2.87397,4.0276 -0.75276,2.5626 -0.75283,2.5626 -1.7637,0.1933 -1.76376,0.1934 -4.56775,4.5024 -4.56775,4.5024 -3.99392,1.8043 c -3.77795,1.7068 -10.41422,3.7255 -12.24711,3.7255 l -0.83943,0 -1.13,-2.0983 -1.13,-2.0982 0.33491,-0.8727 0.33485,-0.8727 -0.68322,-0.6832 -0.68327,-0.6833 -1.30303,0 -1.30303,0 -0.70678,-1.5513 -0.70678,-1.5512 0,-2.3166 0,-2.3166 -0.67597,-1.9391 -0.67596,-1.9391 1.58951,-2.402 1.58952,-2.4019 0,-0.9568 c 0,-0.5263 -0.39922,-1.7288 -0.88712,-2.6723 l -0.88706,-1.7155 0.12577,-1.7562 0.12582,-1.7563 -1.5121,0.1702 -1.51211,0.1702 -3.36016,2.738 c -1.84811,1.506 -4.39466,3.4573 -5.65908,4.3362 l -2.29897,1.5982 -1.52801,-0.6963 -1.52806,-0.6961 -0.23655,0.7575 c -0.13009,0.4167 -0.41926,1.8488 -0.64253,3.1825 -0.22333,1.3338 -0.6714,2.9208 -0.99577,3.5268 l -0.58967,1.1019 -3.16271,-1.7792 -3.16271,-1.7793 -2.43613,-0.4019 c -1.33987,-0.2211 -3.21767,-0.7097 -4.17289,-1.0859 l -1.73677,-0.6838 0.38027,-2.3781 c 0.20915,-1.3079 0.44257,-2.6643 0.5187,-3.0142 l 0.13842,-0.636 -2.74065,-1.9202 c -1.50735,-1.0561 -4.39103,-2.9219 -6.40816,-4.1462 l -3.66752,-2.2261 -4.97883,-1.2712 c -8.54774,-2.1824 -19.94129,-5.5623 -20.44355,-6.0646 l -0.48047,-0.4805 0.98446,-14.259 c 0.54145,-7.8425 1.12443,-15.3799 1.29551,-16.7499 l 0.31107,-2.4908 -4.99133,0.2889 -4.99134,0.2889 0.21666,-5.5121 0.21666,-5.5121 -0.38131,-0.3817 -0.38131,-0.3817 -4.12621,1.6945 -4.12622,1.6945 -0.83749,2.0044 -0.83749,2.0044 -1.96339,1.1919 -1.96338,1.1919 -0.32927,1.3779 -0.32927,1.3777 -3.17267,0.1841 -3.17267,0.1841 4.8e-4,-0.7931 c 2.6e-4,-0.4363 0.85589,-2.5746 1.90139,-4.7519 1.04551,-2.1773 2.11941,-4.8792 2.38645,-6.0042 l 0.48553,-2.0456 -1.01661,-1.658 -1.01659,-1.658 -1.8271,0.7684 -1.8271,0.7683 -1.37033,-0.3283 -1.37032,-0.3282 0,0.9796 0,0.9796 -0.56939,0 c -0.31316,0 -1.27162,-0.267 -2.12992,-0.5933 l -1.56053,-0.5934 -6.24429,0.9474 -6.24429,0.9473 -3.48086,1.1042 -3.48086,1.104 -0.68255,-0.8224 -0.68254,-0.8224 0.39942,-0.6463 0.39941,-0.6463 -2.40921,-2.737 -2.40922,-2.737 3.92452,-9.22839 c 2.15849,-5.07562 4.0722,-9.96676 4.25269,-10.86923 l 0.32817,-1.64086 -1.36005,-0.35567 -1.36005,-0.35568 0.34049,-2.92817 0.34049,-2.92817 -2.23671,-8.83098 -2.2367,-8.83099 -3.45272,-0.54794 -3.45272,-0.54789 -0.40695,-3.71535 c -0.22382,-2.04336 -0.77928,-5.08561 -1.23435,-6.76045 -0.45507,-1.67484 -1.12062,-4.1868 -1.47899,-5.58209 l -0.65158,-2.53693 -1.79833,0.89717 -1.79833,0.8971 -2.54204,0.11718 -2.54204,0.11724 -0.60566,-1.8271 c -0.33312,-1.00491 -0.67101,-1.90713 -0.75086,-2.00494 -0.0799,-0.0978 -1.9597,0.9599 -4.17743,2.35038 l -4.03224,2.52822 1.52016,1.19578 1.52016,1.19577 0,1.10382 0,1.10381 -1.37277,0.89948 c -0.75502,0.49472 -2.33089,1.05478 -3.50194,1.24462 -1.17105,0.1899 -2.8792,0.53303 -3.79589,0.76263 l -1.66672,0.41743 -1.24358,-2.90119 c -0.68398,-1.59567 -1.47174,-3.91657 -1.75059,-5.15766 l -0.507,-2.25653 -2.45305,-3.32057 c -1.34917,-1.82631 -3.37815,-5.15559 -4.50884,-7.39841 l -2.0558,-4.07785 -2.34699,1.59482 c -1.29084,0.87713 -4.11936,2.39843 -6.2856,3.38068 l -3.93862,1.78581 -1.01408,-0.16931 -1.01408,-0.16931 -1.89793,0.789 -1.89794,0.789 -0.79337,1.48239 -0.79337,1.48245 -0.81063,0 -0.81064,0 0,-1.25291 c 0,-0.68906 -0.3066,-2.47048 -0.68133,-3.95871 l -0.68134,-2.70582 -1.33974,0 c -1.63506,0 -7.76096,1.7525 -8.46427,2.42146 l -0.50859,0.48375 1.63878,2.65837 c 0.90132,1.46211 2.32109,3.67004 3.15503,4.9065 l 1.51626,2.24812 -0.39851,0.64479 c -0.21918,0.35464 -0.75231,0.64478 -1.18474,0.64478 -0.43242,0 -1.87037,0.78535 -3.19544,1.74525 l -2.40922,1.74518 -5.65062,1.83977 -5.65063,1.83983 -1.16476,-1.91018 c -0.64061,-1.05058 -1.16578,-2.22309 -1.16703,-2.60556 -0.001,-0.38254 -1.18609,-2.02693 -2.63296,-3.6542 -1.44688,-1.62734 -3.54051,-4.29691 -4.65252,-5.93241 l -2.02183,-2.97355 0.46229,-5.2484 c 0.25426,-2.88658 0.44154,-8.33158 0.41618,-12.09997 l -0.0461,-6.85162 1.12514,0 1.12514,0 0.4015,1.59968 0.40149,1.59963 1.49163,-1.40127 1.49163,-1.40132 0,-4.68998 c 0,-2.5795 -0.17313,-5.55567 -0.38473,-6.61368 l -0.38474,-1.92369 -7.39364,-5.68764 c -4.06651,-3.12824 -7.70634,-6.06524 -8.08852,-6.52664 -0.38218,-0.46147 -1.54102,-2.97014 -2.57519,-5.57485 l -1.88031,-4.73591 0,-2.91745 c 0,-1.60456 -0.29686,-4.52329 -0.65969,-6.48602 l -0.65969,-3.56857 -1.62284,-2.17687 c -3.12374,-4.19008 -13.18371,-16.2163 -16.48402,-19.70588 l -3.33032,-3.52124 0.96231,-0.96234 0.96231,-0.96227 -2.28387,-6.47902 c -2.4714,-7.01101 -4.93683,-12.27238 -6.22254,-13.2793 l -0.8088,-0.63339 c -3.92349,-4.77855 -0.5694,1.76567 -2.74065,-3.20175 0,-0.20896 -1.34102,-1.9659 -2.98005,-3.90433 l -2.98004,-3.52448 -2.87475,-7.71633 c -1.58112,-4.24392 -3.13336,-8.03716 -3.44943,-8.42944 l -0.57467,-0.71312 -3.03924,1.26302 -3.03922,1.26307 -0.4923,-0.54989 c -0.65178,-0.72804 -5.17198,-13.61799 -4.86539,-13.87433 0.13105,-0.10957 0.7864,-0.50532 1.45634,-0.87951 l 1.21807,-0.68035 -1.04828,-0.0183 -1.04828,-0.0183 -1.30899,-4.41549 -1.30898,-4.41549 -0.84813,-0.682 -0.84813,-0.68199 -1.39011,-6.92794 -1.3901,-6.92794 -1.19032,-0.1866 c -0.65467,-0.10269 -1.78479,-0.48108 -2.51137,-0.84083 l -1.32107,-0.65423 -1.81812,1.29462 -1.81812,1.29463 -2.50598,0 -2.50597,0 0.39391,1.56948 0.39393,1.56953 -0.75742,1.62789 c -0.41658,0.8954 -0.94854,2.01919 -1.18213,2.49734 l -0.42472,0.8694 -2.39761,0.6756 -2.39761,0.67554 0.1854,1.57276 0.1854,1.57277 -1.40346,0.46902 c -0.77191,0.25798 -1.81457,0.4994 -2.31702,0.5365 -0.50246,0.0371 -2.22098,0.71122 -3.81894,1.4981 l -2.90539,1.43074 -1.05333,-0.45855 c -0.57933,-0.25213 -1.50307,-0.40415 -2.05275,-0.33783 l -0.99943,0.12065 -1.3441,-2.17479 c -1.535368,-2.48431 -3.072298,-4.15221 -3.464588,-3.75993 -0.14723,0.1472 0.16462,1.30236 0.69301,2.56695 l 0.96071,2.29929 -1.00777,2.63882 -1.00777,2.63881 -2.90126,0 -2.90126,0 -1.09502,-3.04516 -1.09503,-3.04517 -0.9455,-0.0195 -0.9455,-0.0195 -1.68867,-2.78127 -1.68867,-2.78121 -0.89972,0.36432 c -0.49485,0.20044 -1.32716,0.53699 -1.8496,0.74802 l -0.94988,0.38363 -0.37213,-1.44944 c -0.20467,-0.79722 -1.36451,-3.36789 -2.57742,-5.71267 l -2.20528,-4.26323 -3.01981,-3.95872 c -1.6609,-2.17729 -3.23261,-4.1164 -3.49269,-4.30915 -0.26007,-0.1927 -4.23401,-1.371 -8.83098,-2.61842 -4.59696,-1.24736 -9.04327,-2.48626 -9.88069,-2.75301 l -1.52259,-0.4851 -3.34968,1.84099 c -1.84233,1.01251 -5.42942,3.43683 -7.97132,5.38732 -2.5419,1.95055 -4.84988,3.5464 -5.12883,3.5464 -0.27895,0 -1.01311,-0.45787 -1.63145,-1.01745 l -1.12425,-1.01745 -1.66435,1.55517 -1.664346,1.55516 -2.97033,1.28939 c -1.63367,0.70916 -3.36487,1.28938 -3.84709,1.28938 l -0.87676,0 -2.08153,-1.58763 -2.08153,-1.58768 -1.29025,-2.08765 -1.29026,-2.0877 -1.30759,0.38819 c -0.7191703,0.21353 -1.9687603,1.02744 -2.7768503,1.80877 l -1.46926,1.42051 1.85093,4.14124 1.85094,4.14119 1.4002703,0.33058 1.40027,0.33058 0.23661,0.70983 0.23662,0.70983 -2.13114,1.10046 -2.1311303,1.10047 -1.88073,2.60239 -1.88073,2.60234 0.65114,1.21667 0.65115,1.21666 -0.37199,0.60191 -0.372,0.60191 0.38699,1.21928 0.38699,1.21929 1.78394,0.9225 1.7839403,0.92256 0,2.08004 0,2.08003 0.66757,0.41256 0.66758,0.41256 -0.25144,1.71315 -0.25144,1.71315 1.10645,0.28935 1.10645,0.28935 0,1.22428 0,1.22434 -0.7613,0.28539 -0.76129,0.28539 1.19397,0.91672 1.19397,0.91672 -0.66907,1.43707 -0.66906,1.43702 -5.8448603,3.27026 -5.84485998,3.27027 0.39948998,0.68844 c 0.36503,0.62907 10.8573003,15.98749 13.7259303,20.09183 l 1.21711,1.74134 -0.64861,1.42356 -0.64861,1.42355 -3.70834,2.35781 -3.7083503,2.35775 -2.34647,3.8156 -2.34647,3.81553 -1.40956,0.9873 -1.40956998,0.98731 -2.76478002,0.028 -2.76479,0.028 -0.19498,2.43613 -0.19498,2.43614 -1.28151,1.37032 -1.28151,1.37033 -1.29816,0 c -0.7139897,0 -3.0199497,-0.58145 -5.1243597,-1.29213 l -3.8262,-1.29212 -2.72524,2.66245 -2.72524,2.66245 -5.46034,-5.65457 -5.46033,-5.65451 -3.57047,6.85046 c -1.96376,3.76779 -3.84186,6.94097 -4.17357,7.05151 l -0.60311,0.20105 -1.87404,-2.54826 -1.87404,-2.54832 0.80691,-1.54006 0.80691,-1.54 -1.19693,-2.02869 c -0.65832,-1.11575 -1.34061,-2.02863 -1.51622,-2.02863 -0.17559,0 -2.04757,1.23329 -4.15994,2.74065 -2.11238,1.50736 -3.99712,2.74065 -4.18832,2.74065 l -0.34764,0 -0.004,-2.89291 -0.004,-2.89291 -3.99581,-6.39485 c -2.19769,-3.51716 -4.799701,-7.23007 -5.782231,-8.25094 l -1.78628,-1.85615 0,-0.98785 0,-0.98791 3.04516,-1.01142 c 1.67484,-0.55629 3.045171,-1.07446 3.045171,-1.15156 0,-0.077 -0.68437,-1.88636 -1.520811,-4.02072 l -1.52082,-3.88064 -2.4803,-2.94151 -2.4803,-2.94144 -1.25549,-3.79921 c -0.69053,-2.08953 -1.47197,-4.03783 -1.73656,-4.32956 l -0.48105,-0.53046 -2.90376,0.98943 -2.90375,0.98938 -0.458,-0.74107 c -0.2519,-0.40757 -1.04883,-3.13214 -1.77095,-6.05465 l -1.31295,-5.31363 -2.834099,-0.59277 c -1.55876,-0.32602 -9.68573,-1.7246 -18.059936,-3.10796 -8.37421,-1.3833 -18.09222,-2.99596 -21.59558,-3.58361 l -6.36976,-1.06849 -1.74917,-3.54689 -1.74918,-3.54695 0.52342,-0.52346 c 0.28788,-0.28783 3.01981,-1.73843 6.07094,-3.22343 3.05113,-1.48501 5.6469,-2.95016 5.7684,-3.25589 0.12149,-0.30574 4.63818,-3.20754 10.03708,-6.44851 l 9.81617,-5.89264 1.62232,0 1.6223,0 0.298496,-0.77786 0.2985,-0.77792 -1.196596,-2.4195 -1.19659,-2.41957 0.94051,-0.72116 0.94052,-0.72115 -3.11891,-6.84828 -3.11891,-6.84826 0.7735,-0.49094 c 0.42543,-0.27002 1.25312,-0.49514 1.83931,-0.50027 l 1.06581,-0.009 0,-0.52473 c 0,-0.28859 -1.05727,-2.82369 -2.3495,-5.63355 -1.29222,-2.80986 -3.96371,-8.75916 -5.93665,-13.22069 l -3.58715,-8.11186 -1.52401,0.39051 c -0.8382,0.21478 -2.15307,0.4393 -2.92192,0.49894 l -1.39791,0.10844 -3.44561,-10.50063 -3.44562,-10.50062 1.07209,-0.78392 1.07208,-0.78393 -0.62463,-3.8786 -0.62463,-3.8786 0.31617,-0.51158 c 0.4246,-0.68701 5.38353,-4.08011 6.29355,-4.3063 l 0.72322,-0.17975 1.81374,5.17478 1.81374,5.17479 2.11328,3.54759 c 1.16231,1.95117 2.1133,3.80201 2.1133,4.11297 0,0.92043 0.34624,0.73242 5.68845,-3.08882 2.80977,-2.00981 5.37598,-3.6542 5.702676,-3.6542 l 0.59401,0 0.68241,1.37033 c 1.32416,2.65904 5.11086,9.29738 5.73227,10.04905 l 0.62935,0.76129 1.54278,0 1.54279,0 2.06103,1.57203 2.06104,1.57202 2.349439,-0.39693 2.34944,-0.39694 0.38032,0.61538 0.38032,0.61537 2.27057,-0.94001 c 1.24882,-0.517 3.36684,-1.42708 4.70671,-2.02241 1.33987,-0.59533 3.05257,-1.2705 3.806,-1.50039 l 1.36986,-0.41798 -0.60857,-1.13713 c -0.33472,-0.62543 -0.60857,-1.25332 -0.60857,-1.39532 0,-0.142 3.63136,-0.40882 8.069691,-0.59292 l 8.06969,-0.33475 3.04516,-0.96477 c 3.44449,-1.09129 14.06909,-4.01979 14.58382,-4.01979 0.18563,0 0.3375,0.37108 0.3375,0.82462 l 0,0.82461 1.52258,1.6429 1.52259,1.64289 0,2.41983 0,2.41983 1.60213,0.60913 c 0.88116,0.33502 2.36231,1.15043 3.29144,1.81203 0.92912,0.66159 2.0951,1.20289 2.59106,1.20289 l 0.90174,0 0.87383,1.37033 0.87383,1.37032 -0.45277,2.12814 -0.45278,2.12814 0.86344,3.31498 0.86345,3.31499 0.71341,0.4409 c 0.39237,0.2425 1.88964,0.6173 3.32727,0.83289 l 2.61387,0.39197 1.47265,1.75016 1.47267,1.75016 0.42175,2.24813 0.4217497,2.24813 2.24259,-0.3708 c 1.23342,-0.20394 2.89675,-0.37382 3.69629,-0.3775 l 1.45371,-0.007 -0.41255,-4.11098 c -0.68245,-6.80047 -0.73547,-7.10691 -1.46465,-8.46497 -0.38651,-0.71986 -2.33814,-2.78879 -4.33697,-4.59762 l -3.6342097,-3.28878 -0.6405,-1.68462 c -0.35227,-0.92655 -0.64049,-2.3835 -0.64049,-3.23768 l 0,-1.55306 -2.25063,-2.0615 c -1.23785,-1.13382 -2.53966,-2.06198 -2.89291,-2.06259 l -0.64227,-10e-4 -1.70624,-2.70079 c -0.93843,-1.48543 -1.93763,-3.47191 -2.22045,-4.4144 -0.28281,-0.94249 -0.7091,-2.19323 -0.94731,-2.77942 l -0.43311,-1.06581 1.92251,0 1.9225,0 1.80024,0.93094 c 0.99013,0.51201 4.41974,2.9786 7.62136,5.4813 3.2016297,2.5027 6.0865897,4.55036 6.4110297,4.55036 1.04114,0 4.65152002,-1.6805 5.07198002,-2.36082 l 0.40667,-0.65801 -1.78179002,-4.12414 -1.78179,-4.12415 -0.76014,-4.26323 -0.76014,-4.26323 -0.93871,-1.0755 -0.93871,-1.07549 1.09989,-0.80426 1.09989,-0.80427 -1.56116,-4.81961 c -1.62879,-5.02827 -3.47748,-11.4446 -3.47748,-12.06936 0,-0.19967 0.64427,-0.36303 1.43171,-0.36303 0.78743,0 2.23315,-0.27939 3.21271,-0.62087 l 1.78101,-0.62086 3.24225002,-4.2514 3.24224998,-4.25141 1.73105,0 1.73104,0 0.3841,-0.6215 0.38412,-0.6215 -1.56624,-1.86136 c -0.86143,-1.02375 -1.56623,-2.05618 -1.56623,-2.2943 0,-0.23812 1.35486,-1.76742 3.01079,-3.39846 l 3.0107803,-2.96551 -1.7927203,-2.17488 c -0.98599,-1.19618 -1.79272,-2.41051 -1.79272,-2.69849 0,-0.288 -1.2614,-1.66564 -2.80311,-3.06145 l -2.80313,-2.53783 -1.34280998,-3.34047 -1.34281002,-3.34048 -3.61924,-2.02984 c -4.63391,-2.59893 -5.2631397,-3.19807 -12.7668997,-12.15653 l -6.26049,-7.47416 -6.15454,-4.91738 -6.15455,-4.91738 -0.26698,-1.31171 c -0.14684,-0.72144 -0.42759,-3.7783 -0.62388,-6.79301 -0.19629,-3.01472 -0.512,-6.61855 -0.70159,-8.00853 l -0.34471,-2.52724 1.73298,-0.39568 1.73298,-0.39569 1.44384,-1.19295 1.44385,-1.19295 -1.10447,-4.25834 -1.10447,-4.25834 -3.5368,0 -3.5368,0 0,-4.53992 0,-4.53992 -4.10726,-0.18009 -4.10726,-0.18008 -1.66749,-4.83258 c -0.91712,-2.65792 -1.56429,-4.93577 -1.43815,-5.06191 0.12613,-0.12613 1.76554,-0.38789 3.64313,-0.58167 1.87759,-0.19378 3.4138,-0.48774 3.4138,-0.65324 0,-0.16551 -0.32265,-1.42897 -0.71701,-2.80771 l -0.717,-2.50679 -1.97219,-2.74065 c -1.08471,-1.50736 -2.78569,-3.51508 -3.77996,-4.46162 l -1.80777,-1.72097 -3.07871,1.5601 -3.07871,1.5601 -1.84735,-2.24115 -1.847351,-2.24116 -0.93054,-2.73099 -0.93054,-2.731 -0.0463,-2.17538 -0.0464,-2.17538 -0.76579,-2.13161 -0.7658,-2.13162 -2.68981,-0.30452 -2.68981,-0.30451 -0.71059,-4.56775 -0.71059,-4.56775 -2.14015,-6.09034 c -1.17709,-3.34968 -3.40482,-9.10504 -4.95052,-12.7897 l -2.810369,-6.69936 1.355539,-1.10018 1.35554,-1.10018 -0.77486,-2.14284 c -0.42618,-1.17857 -0.66448,-2.25323 -0.52956,-2.38815 0.36194,-0.36192 10.71692,-3.3177 11.62292,-3.3177 l 0.77538,0 2.24378,2.68428 2.24377,2.68427 2.39771,0.4051 2.397721,0.40508 1.90021,-0.98264 1.90022,-0.98263 0.47996,0.29663 c 0.26397,0.16314 1.66127,3.06319 3.1051,6.44454 l 2.62514,6.14793 0.42662,-0.17708 c 0.23465,-0.0974 2.94028,-1.67591 6.01252,-3.50784 l 5.58588,-3.33078 -0.0135,-0.62794 c -0.007,-0.34537 -0.5495,-1.3131 -1.20454,-2.15052 -0.65504,-0.83742 -1.19708,-1.69171 -1.20452,-1.89843 -0.007,-0.20671 1.11487,-1.1226 2.49406,-2.03529 l 2.5076,-1.65946 2.21241,0.55168 2.2124,0.55168 2.53512,-0.648 2.53513,-0.648 1.11907,-1.00915 1.11908,-1.00915 2.59204,-0.69015 2.59204,-0.69014 2.28022,0.11249 2.28023,0.1125 2.58584,-0.71986 2.58586,-0.71987 1.2205997,0.65325 1.22061,0.65326 0,1.17316 0,1.17316 -2.4361297,0.65599 c -1.33987,0.36079 -2.43613,0.75473 -2.43613,0.87543 0,0.1207 2.6267897,7.96006 5.8373097,17.42079 l 5.83731002,17.20134 -0.34594002,1.89254 -0.34595,1.89254 0.49266002,0.77749 0.49267,0.77749 3.91275998,-1.2264 c 2.15201,-0.67453 4.32386,-1.22754 4.82631,-1.22891 l 0.91355,-0.002 2.1429603,3.92291 2.14297,3.92291 4.5564,-2.68284 4.5564,-2.68284 1.09605,-0.0274 c 0.60283,-0.015 1.83612,0.34901 2.74065,0.80903 0.904526,0.46002 2.227276,1.01583 2.939426,1.23515 l 1.29482,0.39875 0.28426,-1.08699 0.28425,-1.08697 5.38436,-2.12753 c 2.9614,-1.17013 5.60458,-2.2177 5.87372,-2.32791 l 0.48936,-0.20039 1.23601,2.09489 1.23602,2.09489 1.66475,-0.26473 c 0.91562,-0.1456 2.21288,-0.32037 2.88282,-0.38838 0.66994,-0.068 1.82432,-0.46291 2.5653,-0.87756 l 1.34724,-0.75389 1.26028,-4.2318 1.26029,-4.23179 -0.67292,-1.08818 -0.67292,-1.08817 2.76683,-7.06206 2.76684,-7.06206 0.89886,-7.25022 c 0.49438,-3.98763 1.07777,-8.96313 1.29644,-11.05668 l 0.39757,-3.80646 0.65692,0 c 0.36131,0 2.08693,0.98488 3.83473,2.18863 l 3.1778,2.18864 1.11357,-0.21446 1.11357,-0.21445 1.13511,-3.80128 1.13511,-3.80128 0.82774,0 c 0.45526,0 3.9126,1.08661 7.68298,2.4147 3.77039,1.32808 6.93418,2.33577 7.03065,2.2393 0.17975,-0.17975 -3.76344,-13.6323 -5.9164,-20.18435 l -1.20075,-3.6542 -0.56305,-4.48951 -0.56305,-4.48951 -1.83034,-1.90534 -1.83035,-1.90542 -3.04862,-10.65808 c -1.67675,-5.86194 -3.3695,-11.88886 -3.76166,-13.39315 l -0.71303,-2.73506 -1.1146,-1.56532 c -0.61303,-0.86092 -1.29005,-2.26436 -1.50449,-3.11874 l -0.38989,-1.55344 c -0.966392,-6.02879 -1.431531,-1.50308 -1.61403,-4.97621 l 0.69996,-0.8437 c 0.38498,-0.46402 2.61842,-2.16471 4.9632,-3.77929 2.34478,-1.61458 4.47453,-3.11895 4.73279,-3.34305 l 0.46956,-0.40746 -1.83988,-2.53988 c -1.01194,-1.39693 -1.83989,-2.80237 -1.83989,-3.12319 0,-0.32083 0.97188,-1.3246 2.15972,-2.23061 l 2.15971,-1.64729 -0.63713,-0.63712 -0.63713,-0.63713 0,-1.88752 0,-1.88751 c -3.44892,-4.62159 -5.56158,-6.97496 -7.78876,-8.91967 l -1.04222,-1.77927 -6.09033,-5.29948 c -3.34969,-2.91472 -7.11808,-6.11231 -8.37419,-7.10574 l -2.28386,-1.80627 -2e-5,-0.67031 c -2e-5,-0.68318 3.99134,-10.07885 9.7333,-22.91218 l 3.19399,-7.13859 2.51959,-1.45787 2.51958,-1.45787 2.86968,-0.30935 2.86968,-0.30935 0.97359,2.93118 0.97358,2.93118 -0.18906,2.62495 -0.18907,2.62495 -3.80645,0.54176 -3.80646,0.54176 0,2.97051 0,2.9705 5.01854,-0.16258 5.01853,-0.16259 0.57593,2.30742 0.57592,2.3074 1.66287,-0.36522 1.66287,-0.36523 0.55866,0.99826 0.55866,0.99826 3.20687,-3.70173 c 1.76378,-2.03596 3.44099,-3.70174 3.72714,-3.70174 l 0.52027,0 1.22839,2.77698 1.22839,2.77697 2.66008,-1.55891 c 1.46304,-0.8574 2.835968,-1.55891 3.050958,-1.55891 0.21499,0 0.9668,1.12887 1.67068,2.5086 l 1.27979,2.50859 -0.50612,0.4301 c -0.27836,0.23656 -2.08973,1.89541 -4.025248,3.68634 l -3.51913,3.25624 -2.13509,-1.01815 c -2.86125,-1.36444 -2.95138,-1.33827 -3.83824,1.11431 l -0.77111,2.13246 -2.51991,-0.40295 -2.51992,-0.40295 2.37627,3.29501 c 1.30695,1.81225 3.00691,4.06972 3.77771,5.01658 0.77079,0.94686 1.40144,2.07789 1.40144,2.51339 l 0,0.79182 -3.11791,1.34129 -3.1179,1.34128 1.98539,2.04841 1.9854,2.0484 3.11186,-1.18277 3.11187,-1.18276 1.58045,-3.1e-4 1.58045,-3.1e-4 0.96441,1.06581 c 0.53042,0.5862 1.522388,2.36762 2.204358,3.95872 l 1.23996,2.89291 0.52061,0 0.52062,0 1.85087,4.41549 1.85086,4.41549 0.12627,6.69936 0.12627,6.69937 0.50437,0.51389 0.50437,0.51389 1.1305,-0.22439 1.1305,-0.22438 -0.17604,-1.26969 -0.17603,-1.26969 1.62297,-1.06341 1.62297,-1.06341 0.48045,0.77737 0.48044,0.77737 1.57456,-1.03169 1.57456,-1.03169 0,-0.84307 0,-0.84307 3.1574,-2.83877 3.15739,-2.83877 1.2581,0.4097 c 0.69195,0.22534 2.1488,0.54814 3.23745,0.71734 l 1.97936,0.30765 0,-1.32474 c 0,-0.7286 -0.30082,-1.88682 -0.66849,-2.57382 l -0.66849,-1.24907 0.93754,-0.93754 0.93754,-0.93754 1.02539,2.15028 1.0254,2.15028 1.98708,0.94757 1.98708,0.94757 4.09732,5.15348 4.09731,5.15347 1.45259,0.66185 c 0.79893,0.36401 3.71343,1.23881 6.47667,1.94398 l 5.02407,1.28215 2.86364,1.60896 2.86363,1.60896 0.74123,1.38498 c 0.40767,0.76174 0.96897,1.38498 1.24733,1.38498 0.71219,0 0.59929,-0.67507 -0.40743,-2.43613 l -0.87038,-1.52258 -0.0216,-4.94175 -0.0216,-4.94174 2.82565,-0.3873 c 1.55411,-0.21301 3.33553,-0.3873 3.95871,-0.3873 l 1.13307,0 0,3.6542 0,3.6542 0.76129,-0.0104 c 0.41871,-0.005 2.75827,-0.51164 5.19901,-1.12426 l 4.43773,-1.11385 0.49757,0.88911 0.49757,0.88911 1.35134,-0.4289 1.35134,-0.4289 -0.33791,-0.8806 -0.33792,-0.8806 1.18543,-2.21176 1.18544,-2.21176 0.39655,-2.64441 0.39655,-2.64442 1.30028,-0.30206 c 0.71515,-0.16613 4.86312,-0.36899 9.21771,-0.4508 l 7.91743,-0.14874 -0.14713,-2.13161 c -0.0809,-1.17239 -0.31184,-3.70749 -0.51314,-5.63356 l -0.36601,-3.50194 0.89905,0 0.89905,0 2.20248,2.43789 2.20248,2.43788 0,2.70295 0,2.70296 0.60873,0.37621 0.60874,0.37622 9.97104,-3.38544 c 5.48402,-1.86199 10.41733,-3.38544 10.96285,-3.38544 l 0.99187,0 0,1.52258 0,1.52259 -0.91355,0 -0.91355,0 0,2.12001 0,2.12002 -1.59887,0.40128 -1.59887,0.40129 0.41884,4.62213 c 0.23037,2.54217 0.51703,4.72031 0.63702,4.8403 0.12,0.12 1.74333,-0.0984 3.60739,-0.48542 l 3.38923,-0.7036 0.61779,0.38182 0.6178,0.38182 0.009,1.94342 c 0.005,1.06887 0.23268,2.29542 0.50567,2.72565 l 0.49633,0.78224 8.08177,-1.34456 8.08176,-1.34457 -0.44169,-2.48284 c -0.24292,-1.36557 -0.4759,-3.03097 -0.51773,-3.70091 l -0.0761,-1.21807 1.52258,-0.20383 c 0.83743,-0.1121 1.74683,-0.41857 2.02092,-0.68103 -1.23229,-1.75001 6.213,1.46058 6.3857,-0.67279 l 0.18421,-2.27568 1.33837,-0.35887 c 0.7361,-0.19739 2.07358,-0.36263 2.97217,-0.3672 l 1.6338,-0.008 0.30107,1.06581 c 0.16559,0.58619 0.48221,2.23058 0.70361,3.65419 l 0.40254,2.5884 0.40324,-0.0104 c 0.22178,-0.005 2.45873,-0.54917 4.97099,-1.20763 2.51226,-0.65845 4.88856,-1.20189 5.28065,-1.20762 l 0.7129,-0.0104 0.39838,1.97936 c 0.2191,1.08865 0.52263,2.425 0.6745,2.96967 l 0.27613,0.99031 -1.23515,0.323 -1.23514,0.32299 0,1.5796 0,1.5796 -0.60904,0 -0.60903,0 0,0.66756 c 0,0.36716 0.4384,2.17561 0.97422,4.01877 l 0.97423,3.35121 2.60732,-0.39099 2.60732,-0.39099 0.37091,1.47782 0.3709,1.47782 4.76054,-0.18425 4.76054,-0.18426 2.33443,-1.37735 2.33445,-1.37735 -1.78046,-1.56463 c -0.97926,-0.86055 -2.79797,-2.4462 -4.04159,-3.52367 l -2.26112,-1.95903 -1.36709,-2.81388 -1.36709,-2.81387 1.03057,-0.75357 1.03056,-0.75357 -0.86181,-3.60902 c -0.47399,-1.98497 -0.87157,-3.9219 -0.8835,-4.30429 l -0.0217,-0.69536 1.45883,-0.36615 1.45884,-0.36614 -0.57128,-2.54259 -0.57128,-2.54258 0.3114,-0.8115 0.3114,-0.81149 1.20124,0 c 0.66068,0 1.33762,-0.22068 1.50432,-0.4904 l 0.30307,-0.49039 -0.51659,-2.2905 -0.51659,-2.2905 0.85849,-0.32943 0.85849,-0.32944 0,-1.0737 0,-1.0737 2.8929,-0.33521 2.89291,-0.33522 0.57858,0.56053 c 0.31822,0.30829 0.93487,0.56053 1.37033,0.56053 l 0.79174,0 0,-1.45156 0,-1.45155 1.37033,-0.36723 c 0.75368,-0.20198 1.98697,-0.37098 2.74065,-0.37555 l 1.37032,-0.008 -0.007,-1.06581 c -0.004,-0.5862 -0.54885,-3.25833 -1.21088,-5.93808 -0.66202,-2.67974 -1.20692,-5.32255 -1.21087,-5.8729 l -0.007,-1.00065 0.96336,-0.36968 c 0.52985,-0.20332 1.59289,-0.36967 2.3623,-0.36967 l 1.39894,0 -0.60069,-2.81649 -0.6007,-2.81649 0.69801,-0.43139 0.698,-0.43139 -0.40578,-2.53761 -0.40578,-2.5376 1.97807,-0.39562 1.97807,-0.39561 -0.38625,-3.28642 -0.38626,-3.28642 2.03966,-0.85222 2.03965,-0.85222 -0.26038,-1.77414 -0.26039,-1.77412 0.81768,-0.31115 c 0.44972,-0.17113 2.80464,-0.66518 5.23316,-1.09789 l 4.4155,-0.78673 0,-2.27081 0,-2.27082 1.97935,-0.34384 c 1.08865,-0.18911 4.30891,-0.66793 7.15615,-1.06405 l 5.17678,-0.7202 0.48704,-0.83084 0.48703,-0.83083 1.22375,0 1.22375,0 -0.37711,-0.61017 -0.37711,-0.61018 1.71149,-0.65142 1.71149,-0.65141 5.9268,-0.16721 5.9268,-0.1672 0.37592,1.18441 0.37592,1.18442 2.72599,-0.40879 2.72601,-0.40879 0.29069,1.10994 0.29069,1.10995 2.91158,0.0423 c 6.28781,-0.125046 1.84875,0.05991 6.7874,-1.10814 l -0.0178,1.37033 1.1813,0 1.1813,0 0.18902,-2.28388 0.18903,-2.28387 2.81077,-0.18227 2.81078,-0.18228 0.37436,1.8718 0.37436,1.8718 1.38261,-0.28411 c 0.76044,-0.15626 2.41036,-0.44936 3.66649,-0.65132 l 2.28388,-0.3672 0.0194,0.48437 c 0.0107,0.26641 0.41976,1.01364 0.90911,1.66051 l 0.88975,1.17615 1.53509,-1.44214 1.53509,-1.44214 0.72277,0.72277 0.72277,0.72277 1.63615,0 1.63613,0 0.4062,2.70871 0.4062,2.70871 5.12544,-0.36171 5.12544,-0.3617 0.62748,1.76397 c 0.34512,0.97018 0.86425,2.17507 1.15363,2.67752 l 0.52614,0.91355 1.53174,-0.18613 1.53174,-0.18613 0.42343,2.01323 c 0.23288,1.10728 0.60881,3.65762 0.83539,5.66743 l 0.41196,3.6542 2.9261,4.42119 2.9261,4.42118 2.02406,0.84572 c 1.11325,0.46514 2.20458,1.13774 2.42517,1.49467 l 0.40105,0.64896 1.1959,-1.19585 1.19584,-1.19585 1.55029,0 1.55023,0 1.49494,1.4949 1.49487,1.4949 0,1.71927 0,1.71927 -0.94808,1.35357 -0.94809,1.35358 -1.79256,0 c -0.98591,0 -1.79257,0.14247 -1.79257,0.31661 0,0.17415 0.68425,1.40051 1.52051,2.72525 l 1.52051,2.40863 1.3724,0.88518 1.3724,0.88518 2.74065,-0.53873 c 1.50735,-0.29631 3.90542,-0.55068 5.32904,-0.56527 l 2.58839,-0.0266 0,-0.92661 0,-0.92661 1.37032,-0.58643 c 0.75368,-0.32254 4.52207,-1.28109 8.37421,-2.13013 11.76549,-2.59318 17.61263,-4.02323 26.18843,-6.40496 l 8.22195,-2.28345 4.87227,-0.7274 c 2.67974,-0.40006 5.48891,-0.87249 6.24259,-1.04983 l 1.37032,-0.32245 0,3.4157 0,3.41571 8.07511,0 8.07518,0 1.41247,-3.93847 1.41247,-3.93846 2.00366,-1.23832 2.00365,-1.23831 1.97845,0 1.9785,0 -0.2972,1.37032 c -0.16347,0.75368 -0.4988,1.84994 -0.74522,2.43614 l -0.448,1.0658 5.85098,0 5.85098,0 0.009,4.72001 c 0.006,2.596 0.17753,5.35196 0.38442,6.12436 l 0.37614,1.40435 5.28696,2.65526 5.28689,2.65526 0.82098,2.48749 0.82092,2.4875 1.01312,0 1.01307,0 0.69893,3.75842 0.69898,3.75843 0.65733,0.65707 0.65733,0.65706 c 12.01387,0.32941 12.8495,-0.34836 14.38008,-0.41952 l 4.08899,-0.19011 0.38399,2.2906 c 0.21115,1.25984 0.5368,2.44346 0.72366,2.63028 l 0.33965,0.33968 3.56157,-0.70427 3.56157,-0.70427 5.88661,-0.20986 5.88661,-0.20985 0.38137,3.15611 c 0.20976,1.73586 0.53108,4.18386 0.71403,5.43999 l 0.33266,2.28388 3.20967,0 3.20966,0 0.74905,5.4813 0.74905,5.4813 1.40565,0 1.40565,0 0.42687,4.82202 0.42687,4.82202 3.50688,-0.22326 c 1.9288,-0.12279 4.80527,-0.55018 6.39211,-0.94975 l 2.88517,-0.7265 -0.39496,-2.63399 -0.39502,-2.634 1.40461,-0.31179 c 0.77256,-0.17149 3.77674,-0.86698 6.67592,-1.54553 l 5.27137,-1.23373 3.87948,0.81321 3.87948,0.81321 2.11627,-0.76414 c 1.16398,-0.42028 2.56269,-0.78499 3.10826,-0.81047 l 0.99193,-0.0463 0.78803,1.97936 c 0.43339,1.08865 0.8345,2.0503 0.89132,2.137 0.0566,0.0867 1.99648,-0.70884 4.31038,-1.76788 2.3139,-1.05903 5.30334,-2.25501 6.64321,-2.65772 l 2.43613,-0.73219 0.19197,-1.28624 0.19197,-1.28624 2.18941,-0.41073 2.18941,-0.41073 0.7753,1.0603 0.7753,1.0603 2.0201,-0.64144 c 1.11106,-0.3528 5.17185,-1.20794 9.02399,-1.90032 3.85214,-0.69239 7.62053,-1.3955 8.37421,-1.56247 l 1.37032,-0.30357 0,4.22789 0,4.2279 3.48288,2.17855 c 1.91559,1.19821 3.65652,2.17856 3.86864,2.17856 0.21219,0 1.31704,-0.63762 2.4552,-1.41693 l 2.06943,-1.41694 -0.18539,-1.47597 c -0.10195,-0.81179 -0.0164,-2.64075 0.18959,-4.06436 l 0.37492,-2.5884 1.78983,0 1.78977,0 0,3.34969 0,3.34968 0.68747,0 c 0.37809,0 1.74233,-0.95298 3.03153,-2.11773 l 2.34411,-2.11773 0.92713,0.35579 0.92719,0.35579 0,0.70015 c 0,0.38509 -0.24928,1.56926 -0.55392,2.63149 l -0.55385,1.93133 0.90819,0.34852 c 0.49953,0.19169 1.46509,0.34852 2.14562,0.34852 l 1.23744,0 -0.4178,2.78613 -0.4178,2.78613 1.32599,0.34675 1.32605,0.34676 -0.38467,2.50068 c -0.21157,1.37536 -0.52632,3.32286 -0.69947,4.32777 l -0.31487,1.8271 3.02227,1.58229 3.0222,1.5823 2.12589,-2.12585 2.12583,-2.12584 5.42564,0.69581 c 2.98408,0.38269 5.88667,0.6958 6.45015,0.6958 l 1.02457,0 0,-2.13161 0,-2.13162 1.52977,0 1.52977,0 -0.31828,2.28388 c -0.17503,1.25613 -0.73729,5.70968 -1.24949,9.89679 -0.5122,4.1871 -1.08444,8.11966 -1.27172,8.73902 l -0.34039,1.12609 -1.68745,-0.24766 -1.68745,-0.24766 -0.38399,4.54249 c -0.21122,2.49837 -0.384,5.1727 -0.384,5.94295 l 0,1.40045 3.6542,0.41342 3.6542,0.41343 0,3.95974 0,3.95973 2.28388,-0.38599 c 1.25613,-0.2123 3.25144,-0.54763 4.43412,-0.74519 l 2.1502,-0.35919 0.74271,4.331 c 0.40842,2.38205 0.74266,5.23438 0.74266,6.33852 l 0,2.00751 2.14623,1.02345 2.14617,1.02346 4.27871,0.39766 4.2787,0.39766 1.66808,2.0237 1.66814,2.02371 4.14764,0.86943 4.1477,0.86942 0.57426,0.57427 0.57425,0.57425 -0.99382,4.81155 c -0.54667,2.64635 -1.13243,5.03579 -1.30187,5.30986 l -0.30792,0.49831 -3.19584,-0.3993 -3.19585,-0.39928 -0.55324,3.25568 -0.55325,3.25569 -3.19633,-0.19582 -3.19626,-0.1958 0,1.56613 0,1.56613 -3.34969,0 -3.34968,0 0.0146,-1.67484 c 0.008,-0.92116 0.25683,-2.71893 0.55306,-3.99505 l 0.53857,-2.32023 -1.48068,-0.56295 -1.48069,-0.56296 0.28278,-1.38006 c 0.15555,-0.75903 0.60343,-3.227 0.99534,-5.48439 l 0.71245,-4.10433 -0.35306,-0.92019 -0.35312,-0.92019 -7.87138,0 -7.87139,0 -0.31518,0.82133 -0.31517,0.82133 -8.73324,1.65729 c -4.80326,0.91151 -10.7202,2.06796 -13.14872,2.56989 l -4.41549,0.91261 0.0122,0.71975 c 0.007,0.39586 0.28107,2.5802 0.60988,4.8541 l 0.59777,4.13434 -2.4949,7.6688 -2.49491,7.6688 1.87004,5.5543 c 1.02853,3.05487 2.83279,9.25418 4.00945,13.77625 l 2.13929,8.22195 -0.98499,0.73373 -0.98499,0.73372 -1.11398,11.44694 c -0.61269,6.29582 -1.12538,11.73959 -1.13932,12.09727 l -0.0256,0.65033 -4.88506,2.01689 c -2.68675,1.10928 -5.03201,2.25468 -5.21162,2.54532 l -0.32656,0.52844 0.66658,8.34793 c 0.36658,4.59136 0.74729,8.42866 0.84595,8.52733 0.0987,0.0987 3.13951,-0.65176 6.75735,-1.66763 3.61784,-1.01588 6.64881,-1.76915 6.73554,-1.67394 0.18094,0.19877 5.76949,17.27392 11.27144,34.4384 l 3.76023,11.73106 -0.28996,0.75412 -0.28996,0.75412 -10.89633,3.46878 -10.89634,3.46879 0.465,7.74674 c 0.25573,4.26071 0.54301,7.8248 0.63845,7.92021 0.81622,4.11184 -1.81615,-3.46876 0.74174,4.0212 l -0.90222,0.85762 -0.90229,0.85762 -0.2349,4.65162 -0.23484,4.65162 4.18229,-0.37687 c 2.30026,-0.20728 8.29326,-0.91768 13.31779,-1.57865 5.02452,-0.66098 11.09366,-1.3886 13.48698,-1.61693 l 4.35148,-0.41515 0.40958,1.29046 0.40957,1.29045 5.95805,0 5.95811,0 0.39575,5.57486 c 0.21761,3.06617 0.39569,7.7035 0.39569,10.30517 l 0,4.73032 -1.8271,0.4013 -1.8271,0.40129 0,1.71356 0,1.71354 0.91355,0.35057 0.91355,0.35056 0,0.98968 0,0.98968 -1.21088,0.31666 -1.21088,0.31664 0.38771,9.21861 0.38778,9.2186 0.82316,0.48704 0.82311,0.48704 0.0158,2.25361 0.0158,2.25361 1.49116,4.49884 1.49116,4.49884 -0.32492,0.52568 -0.32486,0.52569 -2.85698,0.0721 c -1.57136,0.0396 -3.67917,0.24931 -4.68407,0.46595 l -1.8271,0.39389 0.20555,2.86535 0.20555,2.86535 -0.70953,2.15 -0.70958,2.15 -1.18244,0 -1.18244,0 0.36171,1.44104 0.36164,1.44105 -5.07008,0.76937 -5.07008,0.76937 -4.7585,1.48244 -4.7585,1.48243 0.41652,4.77481 0.41652,4.77479 -1.07915,0.21108 -1.0792,0.21107 -0.11596,3.6542 -0.11596,3.6542 1.41642,4.18915 c 0.77908,2.30406 1.72674,4.56302 2.10598,5.01992 l 0.68943,0.83078 -0.4058,3.24798 -0.4058,3.24803 2.48808,1.12196 2.48815,1.12202 2.13813,2.36665 c 1.17598,1.30168 2.42913,3.00539 2.7848,3.78599 l 0.64668,1.41929 -0.65228,3.04151 -0.65227,3.04146 -1.54494,2.90563 -1.54493,2.90564 0,2.25452 0,2.25458 0.69941,2.00622 0.69935,2.00627 -0.73961,7.67687 c -0.40683,4.2223 -0.78053,10.55461 -0.8306,14.07178 l -0.0909,6.39485 1.42763,3.20534 1.4277,3.20534 -0.48583,2.27596 c -0.26712,1.25175 -0.50799,3.88758 -0.53516,5.85744 l -0.0493,3.58142 -1.37032,0.50988 -1.37033,0.50994 0,2.40148 0,2.40148 1.21021,3.86073 c 0.66561,2.12339 1.21374,4.2033 1.21807,4.62201 l 0.008,0.76129 -1.5503,0 -1.55023,0 -1.51205,1.51199 -1.51198,1.51205 -1.20029,2.80015 -1.20028,2.80021 -2.26573,2.76495 c -1.24614,1.52076 -5.03262,5.17374 -8.4144,8.11774 l -6.14868,5.35274 -2.16408,0.90417 -2.16407,0.90423 -1.71084,2.24301 -1.71083,2.24307 -8.37196,6.93981 -8.37195,6.93981 -0.36408,1.08305 -0.36408,1.0831 -3.33665,2.01682 c -1.83514,1.10923 -3.33665,2.23917 -3.33665,2.51092 0,0.27181 1.50736,2.33314 3.34968,4.58072 1.84233,2.24764 3.34627,4.26944 3.34213,4.49296 -0.0104,0.57407 -3.71742,2.90576 -6.40374,4.02815 l -2.2639,0.94595 -2.87549,0 -2.87543,0 -3.54037,-1.21807 -3.54037,-1.21807 -2.79759,0.0426 c -1.5386,0.0237 -3.3252,0.24952 -3.97005,0.50214 l -7.20789,7.23374 c -4.92257,8.44155 -4.66504,9.27738 0.72075,20.59415 l 18.58453,17.28731 4.05056,2.01419 -0.18058,0.74016 -0.18058,0.7401 -8.01597,6.46324 -8.01591,6.46325 -3.49939,-1.42368 -3.49932,-1.42374 -2.92695,5.83613 -2.92696,5.83606 1.01788,1.12476 1.01794,1.12482 -0.75313,1.03012 c -0.4142,0.56659 -1.22489,1.78307 -1.80146,2.7032 l -1.04839,1.67301 -1.87832,0.62475 -1.87838,0.62474 c -6.77966,4.487 0.66235,0.73617 -6.98172,3.98917 z m -368.03536,-608.10918 -0.3339,-0.54027 1.05925,0.0835 1.05926,0.0835 -0.0835,-1.05926 -0.0835,-1.05925 0.54026,0.33391 0.54028,0.3339 0,-0.98543 0,-0.98544 -0.54028,0.3339 -0.54026,0.33391 0.0835,-1.05925 0.0835,-1.05926 -1.05926,0.0835 -1.05925,0.0835 0.3339,-0.54026 0.33391,-0.54028 -0.98544,0 -0.98543,0 0.43456,0.70314 0.43456,0.70313 -0.72982,-0.45105 -0.72981,-0.45105 -0.88687,0.73604 -0.88687,0.73604 0,1.37344 0,1.37343 0.88687,0.73604 0.88687,0.73604 0.72981,-0.45105 0.72982,-0.45105 -0.43456,0.70313 -0.43456,0.70314 0.98543,0 0.98544,0 z m -3.39218,-2.20038 c 0,-0.16749 0.13704,-0.30452 0.30452,-0.30452 0.16748,0 0.30452,0.13703 0.30452,0.30452 0,0.16748 -0.13704,0.30452 -0.30452,0.30452 -0.16748,0 -0.30452,-0.13704 -0.30452,-0.30452 z m 0,-1.21807 c 0,-0.16748 0.13704,-0.30451 0.30452,-0.30451 0.16748,0 0.30452,0.13703 0.30452,0.30451 0,0.16749 -0.13704,0.30452 -0.30452,0.30452 -0.16748,0 -0.30452,-0.13703 -0.30452,-0.30452 z m 169.49427,-55.93402 0.31335,-0.81652 -0.48461,-0.78409 -0.48461,-0.78409 -0.67712,0.41849 -0.67712,0.41848 0,1.18213 0,1.18212 0.84838,0 0.84838,0 z"
       id="path3119-6"
       inkscape:connector-curvature="0" />
  </g>
  <g
     inkscape:groupmode="layer"
     id="layer2"
     inkscape:label="metro"
     style="display:inline"
     transform="translate(155.56955,-133.6052)"
     sodipodi:insensitive="true">
    <path
       style="fill:none;stroke:#f1f800;stroke-width:3;stroke-linecap:butt;stroke-linejoin:miter;stroke-miterlimit:4;stroke-opacity:1;stroke-dasharray:none"
       d="m 338.9631,268.01733 18.7218,37.93628 44.34111,89.17488 22.66323,48.28254 c 0,0 4.89884,14.39355 10.34626,19.21448 5.4126,4.79011 13.43761,5.33065 20.19983,7.88286 6.95073,2.62335 14.4253,4.06323 20.93885,7.63652 6.98355,3.83113 15.44267,7.39129 18.96814,14.53403 2.98013,6.03787 0,20.19984 0,20.19984 l -16.2584,26.11198 m 0,0 c -6.94321,9.37383 -12.47999,15.43332 -14.57736,24.09515 -2.09737,8.66183 -0.75533,19.926 -3.79444,26.89956 -6.07823,13.94712 -19.82754,23.54143 -20.05716,35.71678 m 0,0 c 0,0 -2.92071,9.49571 -3.51887,14.18198 -0.59816,4.68627 -0.22488,5.51761 2.53352,7.98857 17.97266,16.09979 25.91712,23.85948 45.50363,40.77339 19.72665,17.03493 44.16393,39.0406 44.16393,39.0406 l 108.38936,71.43844 c 0,0 34.18139,32.06653 54.9337,31.53145 6.48945,-0.16732 14.04135,-9.85357 14.04135,-9.85357"
       id="path3084"
       inkscape:connector-curvature="0"
       sodipodi:nodetypes="ccccsssscccssccsssccsc" />
    <path
       style="fill:none;stroke:#008200;stroke-width:3;stroke-linecap:butt;stroke-linejoin:miter;stroke-miterlimit:4;stroke-opacity:1;stroke-dasharray:none"
       d="m 398.57725,818.58603 c 0,0 -22.31672,2.60713 -30.79243,-6.15849 -7.92321,-8.19422 -8.62188,-33.00948 -8.62188,-33.00948 l -0.73902,-34.98021 c 0,0 -1.69926,-26.57501 1.47803,-39.41431 1.67839,-6.78227 6.20654,-12.30726 6.40483,-18.96814 0.21713,-7.29376 -5.32948,-13.56911 -3.94142,-20.44618 2.13638,-10.58466 13.71277,-15.71378 18.47545,-24.88028 5.66276,-10.89884 5.0085,-24.60265 11.57796,-34.98021 6.55476,-10.35434 21.89409,-14.05979 26.60466,-25.37296 1.57849,-3.79098 -0.90671,-8.26394 -0.24634,-12.31697 0.78521,-4.81925 1.97724,-9.90375 4.92679,-13.79501 7.32001,-9.6571 10.05147,-22.21063 11.33161,-33.50217 0.81132,-7.15628 5.59591,-14.68104 12.56332,-16.50475 10.02859,-2.62496 14.95196,12.55175 24.14126,14.04136 7.94836,1.28845 23.64859,-4.92679 23.64859,-4.92679 0,0 26.97936,-6.66593 39.41432,-3.94143 4.16013,0.91148 9.3609,4.92678 9.3609,4.92678 0,0 23.27461,17.59769 33.74851,22.4169 19.02687,-7.10872 34.42252,-11.9873 49.14834,-23.73312 9.69664,-7.73437 1.45328,-28.83622 1.45328,-28.83622 0,0 -6.83286,-26.98842 -2.81177,-32.41778 20.38396,-27.52282 47.56926,-55.41848 73.40916,-79.07496 4.50794,-4.12703 20.19984,-4.68045 20.19984,-4.68045 0,0 11.78178,-3.56428 15.76572,-7.88287 4.02188,-4.35972 2.5412,-12.22795 6.65117,-16.50474 4.99136,-5.19395 19.70715,-8.86822 19.70715,-8.86822 l 75.37988,-94.10168"
       id="path3105"
       inkscape:connector-curvature="0"
       sodipodi:nodetypes="csccssssssssssscsccscsscsscc" />
    <path
       style="fill:none;stroke:#000000;stroke-width:1px;stroke-linecap:butt;stroke-linejoin:miter;stroke-opacity:1"
       d="m 761.68162,334.28265 -0.49268,0.73902"
       id="path3107"
       inkscape:connector-curvature="0" />
    <path
       style="fill:none;stroke:#008200;stroke-width:3;stroke-linecap:butt;stroke-linejoin:miter;stroke-miterlimit:4;stroke-opacity:1;stroke-dasharray:none"
       d="m 761.68162,335.02167 46.55816,6.15848 45.08012,-6.8975"
       id="path3109"
       inkscape:connector-curvature="0" />
    <path
       style="fill:none;stroke:#008200;stroke-width:3;stroke-linecap:butt;stroke-linejoin:miter;stroke-miterlimit:4;stroke-opacity:1;stroke-dasharray:none"
       d="m 359.16294,781.63511 -8.62189,30.79243 c -2.09709,7.4896 -8.76948,14.41102 -13.05598,21.43153 0,0 -3.42915,3.37879 -5.20531,14.3675 -1.77616,10.9887 -1.16031,30.81903 -5.38729,39.58085 -4.17612,8.6564 -17.93313,8.42868 -24.14127,15.76572 -16.15102,19.08794 -30.05341,68.72871 -30.05341,68.72871"
       id="path3111"
       inkscape:connector-curvature="0"
       sodipodi:nodetypes="cscsssc" />
    <path
       style="fill:none;stroke:#ff0000;stroke-width:3;stroke-linecap:butt;stroke-linejoin:miter;stroke-miterlimit:4;stroke-opacity:1;stroke-dasharray:none"
       d="m 144.8476,677.67986 c 0,0 62.59084,-19.98627 91.88463,-33.74851 8.18365,-3.84468 13.1801,-12.60099 20.93885,-17.24376 7.23594,-4.32993 15.18952,-7.69457 23.40225,-9.60724 3.52698,-0.8214 7.31602,0.0996 10.83894,-0.73902 9.45061,-2.24981 17.26608,-9.74887 26.851,-11.33161 7.87899,-1.30104 23.89493,1.72437 23.89493,1.72437 l 5.41946,3.20241 c 0,0 25.52876,0.93722 37.68994,-0.24633 7.78125,-0.75729 11.39525,-14.20184 20.44618,-10.09992 10.23516,4.63863 13.55121,12.90629 20.44618,18.22912 4.56651,3.45973 13.795,7.88286 13.795,7.88286 0,0 10.92334,1.26295 16.99742,-0.49268 6.06229,-1.75222 15.23381,-5.04598 17.73645,-10.83894 7.84763,-18.1652 35.96556,-53.20932 35.96556,-53.20932 l 32.76315,-46.31182 c 0,0 5.72618,-6.87654 6.65116,-11.08527 10.87033,-49.46108 30.79244,-149.7744 30.79244,-149.7744 l 11.57795,-56.41173 c 0,0 5.54111,-39.43712 12.31698,-56.41174 6.86688,-17.20263 28.57537,-45.81914 28.57537,-45.81914"
       id="path3113"
       inkscape:connector-curvature="0"
       sodipodi:nodetypes="csssssccssccssccsccsc" />
    <path
       style="fill:none;stroke:#ff0000;stroke-width:3;stroke-linecap:butt;stroke-linejoin:miter;stroke-miterlimit:4;stroke-opacity:1;stroke-dasharray:none"
       d="m 320.48764,604.51704 c 0,0 -40.1733,-39.87712 -58.87513,-61.09219 -2.51014,-2.84747 -4.48782,-2.84979 -5.75033,-6.42958 -1.17437,-3.32985 0.24067,-5.84778 -0.87095,-9.1991 -1.87793,-5.66161 -5.68163,-14.17149 -11.04301,-16.78609 -14.74143,-7.18903 -36.31321,-13.07278 -45.12539,-22.64873 -7.66211,-8.32621 -4.9315,-11.67295 -15.07109,-18.47246 -10.37987,-6.96062 -23.21722,-6.76259 -34.22369,-12.68285 -17.06373,-9.1784 -33.49368,-18.4062 -48.28253,-31.03877 -10.970742,-9.37116 -23.228734,-23.09185 -37.329183,-26.22641 -6.779739,-1.50715 -13.176744,-3.3532 -19.082555,-8.50746 -6.323614,-5.5189 -10.410658,-14.7357 -15.519386,-22.17055 -2.411867,-3.51005 -6.762017,-6.35093 -7.143844,-10.5926 -1.51966,-16.88169 20.446175,-46.55815 20.446175,-46.55815"
       id="path3117"
       inkscape:connector-curvature="0"
       sodipodi:nodetypes="cssssssssssssc" />
  </g>
  <g
     inkscape:groupmode="layer"
     id="layer9"
     inkscape:label="didascalie"
     style="display:inline">
    <text
       xml:space="preserve"
       style="font-size:8px;font-style:normal;font-variant:normal;font-weight:normal;font-stretch:normal;line-height:125%;letter-spacing:0px;word-spacing:0px;fill:#000000;fill-opacity:1;stroke:none;font-family:Arial;-inkscape-font-specification:Arial"
       x="28.21875"
       y="41.296326"
       id="text4197"
       sodipodi:linespacing="125%"><tspan
         sodipodi:role="line"
         x="28.21875"
         y="41.296326"
         style="font-size:24px;font-weight:bold;-inkscape-font-specification:Arial Bold"
         id="tspan5067">METROPOLITANA DI MILANO</tspan><tspan
         sodipodi:role="line"
         x="28.21875"
         y="71.296326"
         style="font-size:24px"
         id="tspan5071">MILAN METRO</tspan></text>
    <text
       xml:space="preserve"
       style="font-size:8px;font-style:normal;font-variant:normal;font-weight:normal;font-stretch:normal;line-height:125%;letter-spacing:0px;word-spacing:0px;fill:#000000;fill-opacity:1;stroke:none;font-family:Arial;-inkscape-font-specification:Arial"
       x="149.80194"
       y="214.47496"
       id="text4973"
       sodipodi:linespacing="125%"><tspan
         sodipodi:role="line"
         id="tspan4975"
         x="149.80194"
         y="214.47496"
         style="font-size:16px;font-weight:bold;-inkscape-font-specification:Arial Bold">M1</tspan></text>
    <text
       xml:space="preserve"
       style="font-size:8px;font-style:normal;font-variant:normal;font-weight:normal;font-stretch:normal;line-height:125%;letter-spacing:0px;word-spacing:0px;fill:#000000;fill-opacity:1;stroke:none;enable-background:new;font-family:Arial;-inkscape-font-specification:Arial"
       x="323.35809"
       y="558.84705"
       id="text4973-9"
       sodipodi:linespacing="125%"><tspan
         sodipodi:role="line"
         id="tspan4975-1"
         x="323.35809"
         y="558.84705"
         style="font-size:16px;font-weight:bold;-inkscape-font-specification:Arial Bold">M1</tspan></text>
    <text
       xml:space="preserve"
       style="font-size:8px;font-style:normal;font-variant:normal;font-weight:normal;font-stretch:normal;line-height:125%;letter-spacing:0px;word-spacing:0px;fill:#000000;fill-opacity:1;stroke:none;enable-background:new;font-family:Arial;-inkscape-font-specification:Arial"
       x="776.24768"
       y="105.26069"
       id="text4973-3"
       sodipodi:linespacing="125%"><tspan
         sodipodi:role="line"
         id="tspan4975-8"
         x="776.24768"
         y="105.26069"
         style="font-size:16px;font-weight:bold;-inkscape-font-specification:Arial Bold">M1</tspan></text>
    <text
       xml:space="preserve"
       style="font-size:8px;font-style:normal;font-variant:normal;font-weight:normal;font-stretch:normal;line-height:125%;letter-spacing:0px;word-spacing:0px;fill:#000000;fill-opacity:1;stroke:none;enable-background:new;font-family:Arial;-inkscape-font-specification:Arial"
       x="827.92297"
       y="669.40222"
       id="text4973-2"
       sodipodi:linespacing="125%"><tspan
         sodipodi:role="line"
         id="tspan4975-6"
         x="827.92297"
         y="669.40222"
         style="font-size:16px;font-weight:bold;-inkscape-font-specification:Arial Bold">M3</tspan></text>
    <text
       xml:space="preserve"
       style="font-size:8px;font-style:normal;font-variant:normal;font-weight:normal;font-stretch:normal;line-height:125%;letter-spacing:0px;word-spacing:0px;fill:#000000;fill-opacity:1;stroke:none;enable-background:new;font-family:Arial;-inkscape-font-specification:Arial"
       x="526.5498"
       y="172.74811"
       id="text4973-2-5"
       sodipodi:linespacing="125%"><tspan
         sodipodi:role="line"
         id="tspan4975-6-8"
         x="526.5498"
         y="172.74811"
         style="font-size:16px;font-weight:bold;-inkscape-font-specification:Arial Bold">M3</tspan></text>
    <text
       xml:space="preserve"
       style="font-size:8px;font-style:normal;font-variant:normal;font-weight:normal;font-stretch:normal;line-height:125%;letter-spacing:0px;word-spacing:0px;fill:#000000;fill-opacity:1;stroke:none;enable-background:new;font-family:Arial;-inkscape-font-specification:Arial"
       x="492.40881"
       y="756.62732"
       id="text4973-2-1"
       sodipodi:linespacing="125%"><tspan
         sodipodi:role="line"
         id="tspan4975-6-2"
         x="492.40881"
         y="756.62732"
         style="font-size:16px;font-weight:bold;-inkscape-font-specification:Arial Bold">M2</tspan></text>
    <text
       xml:space="preserve"
       style="font-size:8px;font-style:normal;font-variant:normal;font-weight:normal;font-stretch:normal;line-height:125%;letter-spacing:0px;word-spacing:0px;fill:#000000;fill-opacity:1;stroke:none;enable-background:new;font-family:Arial;-inkscape-font-specification:Arial"
       x="916.09338"
       y="158.91069"
       id="text4973-2-1-6"
       sodipodi:linespacing="125%"><tspan
         sodipodi:role="line"
         id="tspan4975-6-2-8"
         x="916.09338"
         y="158.91069"
         style="font-size:16px;font-weight:bold;-inkscape-font-specification:Arial Bold">M2</tspan></text>
  </g>
  <text
     xml:space="preserve"
     style="font-size:40px;font-style:normal;font-weight:normal;line-height:125%;letter-spacing:0px;word-spacing:0px;fill:#000000;fill-opacity:1;stroke:none;font-family:Sans"
     x="259.73413"
     y="538.6781"
     id="text3887"
     sodipodi:linespacing="125%"><tspan
       sodipodi:role="line"
       id="tspan3889"
       x="259.73413"
       y="538.6781"
       style="font-size:8px;font-style:normal;font-variant:normal;font-weight:normal;font-stretch:normal;font-family:Arial;-inkscape-font-specification:Arial">BISCEGLIE</tspan></text>
  <text
     xml:space="preserve"
     style="font-size:8px;font-style:normal;font-variant:normal;font-weight:normal;font-stretch:normal;line-height:125%;letter-spacing:0px;word-spacing:0px;fill:#000000;fill-opacity:1;stroke:none;font-family:Arial;-inkscape-font-specification:Arial"
     x="504.64288"
     y="468.30603"
     id="text3891"
     sodipodi:linespacing="125%"><tspan
       sodipodi:role="line"
       id="tspan3893"
       x="504.64288"
       y="468.30603">CADORNA</tspan></text>
  <text
     xml:space="preserve"
     style="font-size:8px;font-style:normal;font-variant:normal;font-weight:normal;font-stretch:normal;line-height:125%;letter-spacing:0px;word-spacing:0px;fill:#000000;fill-opacity:1;stroke:none;font-family:Arial;-inkscape-font-specification:Arial"
     x="598.00787"
     y="501.40182"
     id="text3895"
     sodipodi:linespacing="125%"><tspan
       sodipodi:role="line"
       id="tspan3897"
       x="598.00787"
       y="501.40182">DUOMO</tspan></text>
  <text
     xml:space="preserve"
     style="font-size:8px;font-style:normal;font-variant:normal;font-weight:normal;font-stretch:normal;line-height:125%;letter-spacing:0px;word-spacing:0px;fill:#000000;fill-opacity:1;stroke:none;font-family:Arial;-inkscape-font-specification:Arial"
     x="709.83673"
     y="381.21188"
     id="text3899"
     sodipodi:linespacing="125%"><tspan
       sodipodi:role="line"
       id="tspan3901"
       x="709.83673"
       y="381.21188">LORETO</tspan></text>
  <text
     xml:space="preserve"
     style="font-size:8px;font-style:normal;font-variant:normal;font-weight:normal;font-stretch:normal;line-height:125%;letter-spacing:0px;word-spacing:0px;fill:#000000;fill-opacity:1;stroke:none;font-family:Arial;-inkscape-font-specification:Arial"
     x="627.61987"
     y="371.45734"
     id="text3903"
     sodipodi:linespacing="125%"><tspan
       sodipodi:role="line"
       id="tspan3905"
       x="627.61987"
       y="371.45734">CENTRALE</tspan></text>
  <text
     xml:space="preserve"
     style="font-size:8px;font-style:normal;font-variant:normal;font-weight:normal;font-stretch:normal;line-height:125%;letter-spacing:0px;word-spacing:0px;fill:#000000;fill-opacity:1;stroke:none;font-family:Arial;-inkscape-font-specification:Arial"
     x="763.48676"
     y="55.828125"
     id="text3907"
     sodipodi:linespacing="125%"><tspan
       sodipodi:role="line"
       id="tspan3909"
       x="763.48676"
       y="55.828125">SESTO 1° MAGGIO FS</tspan></text>
  <text
     xml:space="preserve"
     style="font-size:8px;font-style:normal;font-variant:normal;font-weight:normal;font-stretch:normal;line-height:125%;letter-spacing:0px;word-spacing:0px;fill:#000000;fill-opacity:1;stroke:none;font-family:Arial;-inkscape-font-specification:Arial"
     x="918.16595"
     y="108.433"
     id="text3911"
     sodipodi:linespacing="125%"><tspan
       sodipodi:role="line"
       id="tspan3913"
       x="918.16595"
       y="108.433">COLOGNO NORD</tspan></text>
  <text
     xml:space="preserve"
     style="font-size:8px;font-style:normal;font-variant:normal;font-weight:normal;font-stretch:normal;line-height:125%;letter-spacing:0px;word-spacing:0px;fill:#000000;fill-opacity:1;stroke:none;font-family:Arial;-inkscape-font-specification:Arial"
     x="959.6228"
     y="216.77812"
     id="text3915"
     sodipodi:linespacing="125%"><tspan
       sodipodi:role="line"
       id="tspan3917"
       x="959.6228"
       y="216.77812">GESSATE &gt;</tspan></text>
  <text
     xml:space="preserve"
     style="font-size:8px;font-style:normal;font-variant:normal;font-weight:normal;font-stretch:normal;line-height:125%;letter-spacing:0px;word-spacing:0px;fill:#000000;fill-opacity:1;stroke:none;font-family:Arial;-inkscape-font-specification:Arial"
     x="486.8757"
     y="129.33559"
     id="text3919"
     sodipodi:linespacing="125%"><tspan
       sodipodi:role="line"
       id="tspan3921"
       x="486.8757"
       y="129.33559">COMASINA</tspan></text>
  <text
     xml:space="preserve"
     style="font-size:8px;font-style:normal;font-variant:normal;font-weight:normal;font-stretch:normal;line-height:125%;letter-spacing:0px;word-spacing:0px;fill:#000000;fill-opacity:1;stroke:none;font-family:Arial;-inkscape-font-specification:Arial"
     x="183.78806"
     y="171.83752"
     id="text3923"
     sodipodi:linespacing="125%"><tspan
       sodipodi:role="line"
       id="tspan3925"
       x="183.78806"
       y="171.83752">RHO FIERA MILANO</tspan></text>
  <text
     xml:space="preserve"
     style="font-size:8px;font-style:normal;font-variant:normal;font-weight:normal;font-stretch:normal;line-height:125%;letter-spacing:0px;word-spacing:0px;fill:#000000;fill-opacity:1;stroke:none;font-family:Arial;-inkscape-font-specification:Arial"
     x="370.8663"
     y="852.91376"
     id="text3927"
     sodipodi:linespacing="125%"><tspan
       sodipodi:role="line"
       id="tspan3929"
       x="370.8663"
       y="852.91376">ASSAGO MILANOFIORI FORUM</tspan></text>
  <text
     xml:space="preserve"
     style="font-size:8px;font-style:normal;font-variant:normal;font-weight:normal;font-stretch:normal;line-height:125%;letter-spacing:0px;word-spacing:0px;fill:#000000;fill-opacity:1;stroke:none;font-family:Arial;-inkscape-font-specification:Arial"
     x="536.6936"
     y="700.32483"
     id="text3931"
     sodipodi:linespacing="125%"><tspan
       sodipodi:role="line"
       id="tspan3933"
       x="536.6936"
       y="700.32483">ABBIATEGRASSO</tspan></text>
  <text
     xml:space="preserve"
     style="font-size:8px;font-style:normal;font-variant:normal;font-weight:normal;font-stretch:normal;line-height:125%;letter-spacing:0px;word-spacing:0px;fill:#000000;fill-opacity:1;stroke:none;font-family:Arial;-inkscape-font-specification:Arial"
     x="866.95459"
     y="697.53778"
     id="text3935"
     sodipodi:linespacing="125%"><tspan
       sodipodi:role="line"
       id="tspan3937"
       x="866.95459"
       y="697.53778">S. DONATO</tspan></text>
</svg>
