<?xml version="1.0" encoding="utf-8"?>
<!-- Generator: Adobe Illustrator 27.1.1, SVG Export Plug-In . SVG Version: 6.00 Build 0)  -->
<svg version="1.1" id="Layer" xmlns="http://www.w3.org/2000/svg" xmlns:xlink="http://www.w3.org/1999/xlink" x="0px" y="0px"
	 viewBox="0 0 900 1200" style="enable-background:new 0 0 900 1200;" xml:space="preserve">
<style type="text/css">
	.st0{fill:#F0F0F0;}
	.st1{fill:#FFFFFF;stroke:#B4B4B4;stroke-miterlimit:10;}
	.st2{fill:none;stroke:#C7E5F4;stroke-width:7;stroke-linecap:round;stroke-miterlimit:10;}
	.st3{fill:none;stroke:#C7E5F4;stroke-width:4;stroke-miterlimit:10;}
	.st4{fill:none;stroke:#C7E5F4;stroke-width:12;stroke-linecap:round;stroke-miterlimit:10;}
	.st5{fill:none;stroke:#ED9F2D;stroke-width:1.5;stroke-linecap:round;}
	.st6{fill:none;stroke:#DF477C;stroke-width:1.5;stroke-linecap:round;}
	.st7{fill:none;stroke:#E15D29;stroke-width:1.5;stroke-linecap:round;}
	.st8{fill:none;stroke:#3CB183;stroke-width:1.5;stroke-linecap:round;}
	.st9{display:none;}
	.st10{display:inline;fill:none;stroke:#6CB644;stroke-width:1.5;stroke-linecap:round;}
	.st11{fill:none;stroke:#D32928;stroke-width:1.5;stroke-linecap:round;}
	
		.st12{opacity:0.6;fill:none;stroke:#AC1753;stroke-width:3.5;stroke-linecap:round;stroke-dasharray:12;enable-background:new    ;}
	
		.st13{opacity:0.6;fill:none;stroke:#27303F;stroke-width:3.5;stroke-linecap:round;stroke-dasharray:12;enable-background:new    ;}
	.st14{display:none;fill:none;stroke:#03795F;stroke-width:3.5;stroke-linecap:round;}
	.st15{fill:none;stroke:#03795F;stroke-width:3.5;stroke-linecap:round;}
	.st16{fill:none;stroke:#CC6699;stroke-width:3.5;stroke-linecap:round;}
	.st17{fill:none;stroke:#79CDCD;stroke-width:3.5;stroke-linecap:round;}
	.st18{fill:none;stroke:#A1A2A3;stroke-width:3.5;stroke-linecap:round;}
	.st19{fill:none;stroke:#F58631;stroke-width:3.5;stroke-linecap:round;}
	.st20{fill:none;stroke:#FFCB31;stroke-width:3.5;stroke-linecap:round;}
	.st21{display:none;fill:none;stroke:#FFCB31;stroke-width:3.5;stroke-linecap:round;}
	.st22{fill:none;stroke:#B3D445;stroke-width:3.5;stroke-linecap:round;}
	.st23{fill:none;stroke:#894E35;stroke-width:3.5;stroke-linecap:round;}
	.st24{opacity:0.6;}
	.st25{fill:none;stroke:#0078BF;stroke-width:3.5;stroke-linecap:round;}
	.st26{fill:none;stroke:#0078BF;stroke-width:3.5;stroke-linecap:round;stroke-dasharray:12.2991,12.2991;}
	.st27{fill:none;stroke:#8E479C;stroke-width:3.5;stroke-linecap:round;}
	.st28{fill:none;stroke:#ED1B35;stroke-width:3.5;stroke-linecap:round;}
	.st29{fill:none;stroke:#44B85C;stroke-width:3.5;stroke-linecap:round;}
	.st30{fill:none;stroke:#19C1F3;stroke-width:3.5;stroke-linecap:round;}
	.st31{fill:none;stroke:#849FE3;stroke-width:3.5;stroke-linecap:round;}
</style>
<g id="Background">
	<rect class="st0" width="900" height="1200"/>
	<g id="Borders">
		<polygon class="st1" points="38.3,373.1 39.7,363.3 32.7,363.3 21.5,366.1 27.1,378.6 		"/>
		<polygon class="st1" points="742.4,349.3 743.8,352.1 746.5,350.7 752.1,357.7 756.3,353.5 754.9,349.3 759.1,350.7 764.7,361.9 
			770.3,357.7 768.9,352.1 774.5,350.7 774.5,347.9 780.1,345.1 781.5,338.1 787.1,333.9 791.2,332.6 799.6,338.1 803.8,339.5 
			806.6,338.1 808,333.9 805.2,329.8 794,325.6 792.6,324.2 789.9,322.8 787.1,325.6 780.1,325.6 778.7,324.2 774.5,325.6 
			771.7,320 770.3,317.2 775.9,314.4 775.5,313.2 767.5,317.2 767.5,322.8 752.1,329.8 738.2,339.5 743.8,347.9 		"/>
		<polygon class="st1" points="147.2,1200.5 148.7,1190.3 151.4,1193.1 154.2,1194.5 165.4,1179.1 162.6,1176.3 158.4,1183.3 
			150,1183.3 150,1181.9 152.8,1179.1 147.3,1172.1 147.3,1173.5 134.7,1176.3 130.5,1174.9 130.5,1172.1 129.1,1172.1 
			129.1,1169.3 130.5,1169.3 137.5,1159.5 147.3,1160.9 148.7,1158.1 147.3,1154 141.7,1148.4 141.7,1147 150,1151.2 157,1137.2 
			152.8,1127.4 158.4,1121.8 168.2,1124.6 165.4,1127.4 169.6,1131.6 175.2,1131.6 179.4,1135.8 180.8,1130.2 183.6,1130.2 
			192,1123.2 196.1,1121.8 201.7,1121.8 203.1,1117.6 198.9,1107.9 200.3,1107.9 211.5,1103.7 222.7,1093.9 226.9,1098.1 
			225.5,1109.3 231.1,1114.8 236.7,1113.4 242.2,1119 247.8,1119 246.4,1124.6 239.5,1124.6 239.5,1130.2 250.6,1134.4 263.2,1140 
			267.4,1142.8 274.4,1147 281.4,1141.4 289.7,1145.6 282.8,1151.2 291.1,1166.5 277.2,1170.7 274.4,1172.1 281.4,1181.9 
			291.1,1184.7 296.7,1191.7 306.5,1197.3 335.8,1197.3 342.8,1194.5 340,1190.3 338.6,1179.1 333.1,1172.1 334.4,1158.1 
			349.8,1149.8 354,1149.8 355.4,1147 352.6,1144.2 351.2,1114.8 370.8,1112 376.4,1081.3 394.5,1082.7 393.1,1089.7 395.9,1089.7 
			400.1,1084.1 405.7,1082.7 401.5,1079.9 404.3,1078.5 400.1,1074.3 401.5,1072.9 398.7,1070.1 400.1,1067.3 414.1,1077.1 
			422.5,1078.5 423.9,1075.7 426.6,1072.9 429.4,1074.3 430.8,1079.9 436.4,1077.1 436.4,1072.9 433.6,1072.9 429.4,1070.1 
			432.2,1068.7 436.4,1067.3 435,1052 428,1047.8 433.6,1047.8 433.6,1031 425.2,1029.6 428,1025.4 426.6,1024 422.5,1028.2 
			418.3,1019.8 411.3,1024 393.1,1003.1 405.7,923.5 426.6,908.1 419.7,889.9 418.3,880.7 420.6,881.3 509.9,889.5 518.8,889.5 
			525.8,885.9 548.3,871.5 590.1,843.3 618.3,821.6 632.7,808.1 652.8,787.5 668.3,774 680.2,760.9 717.5,717.8 726.9,705.5 
			729.4,693.2 729.4,680.5 722,645.3 718.5,628.3 753.5,653.8 763.3,625.9 756.3,617.5 761.9,610.5 750.7,598 753.5,593.8 
			771.7,609.1 781.5,596.6 801,584 815,581.2 816.4,586.8 822,586.8 824.8,591 826.2,605 833.2,598 840.1,603.6 844.3,600.8 
			858.3,602.2 856.9,606.4 844.3,610.5 837.3,623.1 830.4,624.5 824.8,634.3 826.2,639.9 831.8,642.7 833.2,651.1 870.9,653.8 
			890.4,656.6 887.6,651.1 890.4,642.7 889,628.7 882.1,621.7 884.8,614.7 882.1,613.3 879.3,614.7 876.5,613.3 879.3,610.5 
			873.7,606.4 869.5,609.1 866.7,605 866.7,598 876.5,595.2 877.9,592.4 883.4,592.4 883.4,585.4 869.5,578.4 870.9,574.2 
			894.6,577 894.6,575.9 884.5,567.9 884.8,567.2 894.6,563.8 894.6,563 883.4,560.3 877.9,554.7 866.7,554.7 849.9,533.7 
			847.1,533.7 841.5,530.9 830.4,529.5 827.6,537.9 817.8,544.9 812.2,542.1 810.8,544.9 795.4,547.7 794,546.3 787.1,546.3 
			792.6,554.7 784.3,557.5 777.3,554.7 777.3,550.5 777.3,546.3 771.7,546.3 768.9,540.7 771.7,532.3 766.1,526.7 760.5,526.7 
			763.3,518.3 774.5,511.4 780.1,514.2 781.5,503 796.8,504.4 792.6,490.4 787.1,487.6 760.5,496 745.2,497.4 741.7,497.8 
			732.7,492.3 733.7,475.3 733.7,426.1 728.8,339 727.1,325.4 725,315.2 719.7,306.6 587.9,187 560.5,161.6 551.8,155.4 
			544.8,153.7 521.1,152.5 493.3,150.4 463.4,143.8 447.9,138.5 422,126.6 408.5,120.1 395.8,116.9 385.2,116.9 365.3,120.6 
			370.8,79.7 370.8,68.5 376.4,65.7 377.8,60.1 383.3,58.7 383.3,47.6 376.4,47.6 373.6,25.2 394.5,29.4 394.5,18.2 388.9,14 
			388.9,9.9 365.2,23.8 363.8,18.2 361,18.2 359.6,23.8 358.2,23.8 354,15.4 341.4,21 348.4,42 340,40.6 317.7,46.2 339.6,125.5 
			333.7,126.5 323.1,132.2 279.3,167.4 257.2,178 247,182.1 231.9,182.1 222.6,184.6 209,191.2 205.6,193 194.8,192.9 185,190.1 
			176.6,185.9 175.2,176.1 169.6,171.9 169.6,160.7 161.2,138.4 151.4,134.2 151.4,113.2 162.6,106.2 155.6,93.7 159.8,82.5 
			175.2,86.7 178,82.5 173.8,75.5 178,69.9 172.4,54.6 176.6,40.6 182.2,33.6 192,33.6 192,23.8 186.4,18.2 178,18.2 173.8,23.8 
			154.2,29.4 154.2,23.8 144.5,19.6 141.7,25.2 134.7,21 133.3,14 112.3,14 110.9,19.6 102.6,23.8 97,19.6 97,12.6 88.6,14 
			81.6,19.6 87.2,33.6 104,51.8 99.8,57.4 91.4,51.8 74.6,64.3 83,67.1 94.2,85.3 108.1,74.1 136.1,93.7 127.7,96.5 120.7,107.6 
			124.9,121.6 120.7,125.8 124.9,132.8 115.1,139.8 122.1,146.8 120.7,149.6 123.5,153.7 129.1,152.3 134.7,159.3 129.1,162.1 
			131.9,170.5 127.7,178.9 129.1,184.5 134.7,185.9 140.3,192.9 169.6,197 180.1,208.5 179,209.3 169.2,219.1 162.2,231.4 
			157.6,246.8 145.9,244.5 143.1,245.9 138.9,248.7 133.3,244.5 133.3,239 137.5,234.8 137.5,229.2 136.1,218 134.7,216.6 
			113.7,216.6 110.9,223.6 97,226.4 90,232 87.2,241.7 88.6,250.1 84.4,259.9 77.4,265.5 98.4,271.1 97,276.7 87.2,278.1 
			85.8,280.9 92.8,289.2 90,293.4 97,299 97,303.2 92.8,311.6 99.8,311.6 98.4,318.6 99.8,318.6 104,311.6 108.1,310.2 113.7,320 
			119.3,306 131.9,299 141.7,299 157.3,302.7 149.1,349.2 149.1,349.3 140.3,347.9 134.7,339.5 127.7,347.9 129.1,354.9 
			127.7,363.3 133.3,363.3 137.5,356.3 134.7,353.5 136.1,350.7 148.4,352.5 145.9,363.6 135.7,382.4 130.1,393.5 104,382.8 
			105.3,374.5 110.9,368.9 109.5,361.9 97,357.7 78.8,370.3 63.4,366.1 53.7,373.1 46.7,375.9 46.7,380 53.7,380 60.6,375.9 
			66.2,377.3 53.7,382.8 56.5,387 49.5,388.4 53.7,396.8 49.5,413.6 52.3,416.4 53.7,402.4 71.8,415 55.1,428.9 49.5,426.1 
			48.1,437.3 60.6,441.5 60.6,447.1 77.4,444.3 76,438.7 78.8,435.9 85.8,437.3 87.2,440.1 97,440.1 102.6,430.3 104,419.2 
			113.7,410.8 112.3,406.6 124.9,398.2 128.3,397.8 124.9,409.5 124.9,475 124.9,493.9 130.2,515.6 139.6,545.4 146.1,566 
			149.1,574.2 156.6,584.3 148.7,588.2 151.4,592.4 150,595.2 154.2,602.2 152.8,605 148.7,602.2 147.3,605 143.1,600.8 137.5,605 
			136.1,586.8 124.9,591 119.3,596.6 105.3,596.6 106.7,589.6 102.6,592.4 102.6,598 97,603.6 92.8,602.2 91.4,610.5 92.8,621.7 
			87.2,625.9 85.8,611.9 74.6,630.1 70.4,638.5 94.2,651.1 99.8,646.9 106.7,651.1 115.1,638.5 108.1,630.1 110.9,616.1 
			113.7,620.3 113.7,624.5 117.9,625.9 119.3,624.5 116.5,623.1 119.3,618.9 120.7,620.3 123.5,616.1 130.5,618.9 129.1,620.3 
			131.9,623.1 151.4,606.4 157,610.5 157,606.4 162.6,606.4 162.6,603.6 168.1,599.4 176.5,610.5 180.5,617.1 183.7,626.9 
			187.3,639.6 187.8,640.7 179.4,648.3 173.8,653.8 172.4,658 171,665 173.8,666.4 180.8,672 185,677.6 166.8,686 158.4,687.4 
			150,684.6 148.7,679 138.9,679 136.1,690.2 126.3,690.2 126.3,669.2 119.3,669.2 112.3,674.8 110.9,683.2 104,688.8 101.2,684.6 
			105.3,680.4 98.4,676.2 98.4,684.6 91.4,683.2 90,697.2 77.4,690.2 84.4,686 84.4,683.2 77.4,680.4 73.2,681.8 69,679 60.6,680.4 
			60.6,686 67.6,687.4 66.2,709.7 50.9,709.7 52.3,719.5 43.9,720.9 15.9,713.9 4.8,713.9 4.8,711.1 0.6,711.1 -0.5,709.1 
			-0.5,1200.5 		"/>
	</g>
	<g id="Rivers">
		<path class="st2" d="M541.8,612.1c-0.5-2.3-1.8-6.2-5.2-8.1c-0.7-0.4-1.4-0.7-4.7-1.2c-6.9-1.1-8.6-0.7-11.3-1.4
			c-2.2-0.6-5.1-2-8.3-5.6"/>
		<line class="st2" x1="496.9" y1="609.8" x2="480.8" y2="629.5"/>
		<path class="st3" d="M565.6,640.4c-2.5,2.4-5.1,4.8-7.9,7.3c-8.3,7.1-13.6,11-21.2,15.4"/>
		<path class="st3" d="M178.1,319.6c1-5.8,3.2-8.5,5.1-9.9c0.6-0.5,2.1-1.2,5-2.6c3.9-1.9,5-2.2,6.9-3.6c1.7-1.2,2.8-2.1,3.7-3.7
			c1.2-2.2,0.7-3.4,1.9-6.2c0,0,0.9-2,2.4-3.8c1.2-1.4,3.9-3.7,12-4.4c5.2-0.4,9.9,0.1,18.9,1.3c6.1,0.8,8.1,1.2,10.6,0
			c3.8-1.8,5.7-5.7,6.7-8.5"/>
		<path class="st3" d="M272.5,444.4c-9.4,0.1-18.8,0.2-28.1,0.3c-6.1-7.8-12.1-15.7-18.2-23.5c-1-1.9-2.3-4.8-2.9-8.5
			c-0.6-3.2-0.4-5.4-0.3-8.9c0-3.1,0-7.5-0.5-12.9c1.6-7.6,2.8-17.2,2.1-28.3c-0.3-4.7-0.9-9.1-1.7-13c10.3-25.9,20.7-51.8,31-77.7"
			/>
		<path class="st2" d="M-0.5,500.6c1.1,0.3,2.4,0.1,3.4-0.4l3.9-2c1.8-0.8,2.8-2.7,2.8-4.6v-27c0-1.3,0.4-2.5,1.3-3.4l7-8
			c1-1.1,2.4-1.8,3.9-1.8h7.5c2.4,0,4.5-1.7,5-4.1l2.1-8.8c0.7-2.9,3.6-4.6,6.4-3.8l4.6,1.3l7,2.4c1,0.3,2,0.4,2.9,0.1l13.1-3.4
			c1.4-0.3,2.5-1.3,3.2-2.5l4.3-7.5c0.1-0.3,0.3-0.6,0.6-0.7l18.2-21.9c0.7-1,1.1-2.1,1.1-3.4v-12.6c0-1.5-0.7-2.9-1.8-3.9l-6.6-5.6
			c-1-0.8-2.1-1.3-3.4-1.3h-2.7c-3.8,0-6.3-3.9-4.7-7.3l1.7-3.9c0.4-0.8,1-1.7,1.8-2.2l11.3-7.5l15.8-5.3c0.7-0.3,1.4-0.3,2.1-0.3
			h9.2c2.2,0,4.3-1.1,5.6-2.9l3.4-5c0.1-0.3,0.3-0.4,0.4-0.7l8.9-17.7c0.4-1,0.7-2,0.7-3.1v-8.5c0-0.7-0.1-1.4-0.3-2.1l-0.3-1
			c-1.1-3.5,0.7-7.3,4.2-8.5c1.3-0.4,2.7-0.4,4.1-0.1l19.4,5.7c1.5,0.4,2.8,1.4,3.6,2.7l10.6,15.4c0.4,0.6,0.7,1.3,1,2l3.2,10.9
			c0.4,1.4,1.3,2.5,2.4,3.4l9.1,7c1.1,1,2.7,1.4,4.2,1.4h15.9c1.8,0,3.5,0.7,4.7,2c2.4,2.4,3.6,5.4,3.6,8.8V374
			c0,1.7-0.1,3.4-0.6,4.9l-2.1,8.7c-1,3.6-3.4,6.7-6.6,8.5l-6.4,3.5c-0.7,0.4-1.4,0.6-2.1,0.7c-4.6,0.7-9.2-0.6-12.7-3.6l-4.6-4.1
			c-0.7-0.6-1.4-1-2.2-1.3l-1.8-0.6c-3.1-1-6.4,0.3-8,3.1l-3.8,6.8c-0.3,0.6-0.6,1.1-0.7,1.8l-3.1,13.6c-0.6,2.2,0.1,4.6,1.8,6.3
			l1.3,1.3c1.1,1.1,2.5,1.7,3.9,2l30.6,3.6c1.3,0.1,2.7-0.1,3.8-0.7l10.1-5c2.8-1.4,6.3-0.7,8.2,1.8l7.5,9.5
			c0.1,0.1,0.3,0.4,0.4,0.6l6.3,9.9c2.1,3.2,2.7,7.3,1.5,10.9l-2,6.4c-0.4,1.1-1,2.2-2,3.1l-12,10.8c-0.4,0.4-0.8,0.7-1.4,1
			l-11.9,6.3c-4.1,2.2-4.7,7.7-1.4,10.9l8,7.4c2.9,2.8,7,4.2,11.2,3.8c5.7-0.6,11.2-3.2,15.1-7.4l6.3-6.8c3.6-4.1,5.9-9.1,6.3-14.5
			l1.8-26.7c0.3-3.8,3.5-6.6,7.3-6.3l2.9,0.3c5.4,0.4,10.8,2.4,15.2,5.6l18.7,13.6c3.4,2.5,6,5.9,7.4,9.8l6.4,17.3
			c0.7,2,2.4,3.5,4.5,4.2l4.7,1.4c1.1,0.3,2.4,0.3,3.5,0l14.9-3.8l20.1-13.4c3.1-2.1,7.1-2.5,10.5-1.1c5,2,8.1,7,7.8,12.4l-0.1,1.7
			c-0.4,5.9-2.4,11.5-5.6,16.2l-8.5,12.7c-0.4,0.6-0.8,1.1-1.4,1.5l-16.8,11.9c-3.9,2.8-6.8,6.8-8.1,11.6
			c-1.4,5.2-0.7,10.8,2.1,15.4c2.7,4.3,6.7,7.7,11.5,9.4l5.7,2.1c4.2,1.5,8.7,1.4,12.7-0.4l12-5.2c0.8-0.4,1.5-1,2.2-1.7l15.4-19.3
			c0.3-0.4,0.6-0.8,0.7-1.3l8.9-20.5c0.3-0.7,0.8-1.4,1.4-2l8.8-7.8c2-1.7,3.2-3.9,3.9-6.4l1.7-6.8c1-4.1,3.2-7.7,6.3-10.3
			c4.1-3.6,9.4-5.4,14.8-5l4.1,0.3c5.3,0.4,10.2,3.2,13.1,7.5l6.1,9.1c0.3,0.4,0.6,0.8,0.7,1.4l6.6,19.8c0.1,0.3,0.3,0.6,0.4,0.8
			l8.9,16.9c1.1,2.2,0.7,4.9-1,6.7l-9.1,9.1c-1.3,1.3-1.8,2.9-1.5,4.7l1.5,11.7c0.4,3.4-2.2,6.4-5.6,6.4h-14.2
			c-3.2,0-5.7,2.7-5.6,5.7l1,34.8c0.1,6,5.4,10.6,11.3,9.9l38.3-3.9c3.5-0.4,6.7-1.4,9.8-3.1l19.1-10.9c3.5-2,7.8-2.2,11.6-0.4
			l6.4,2.9c5.3,2.5,8.7,7.8,8.7,13.6v16.3c0,0.4,0,0.8,0.1,1.3l4.3,19.6c0.6,2.8-1,5.7-3.8,6.6l-0.3,0.1c-2.1,0.7-4.3,0.1-5.7-1.4
			l-8.5-8c-1.3-1.3-3.1-1.8-4.9-1.5l-19.1,3.2c-2,0.3-3.9,1.3-5.4,2.5l-2,1.7c-3.5,2.9-5.7,7.3-6.1,11.9l-1.4,14.8
			c-0.4,4.5,1.5,8.9,5.3,11.6l27.9,20c3.4,2.4,7.3,3.9,11.3,4.6l21.1,3.1c1.3,0.1,2.7,0.3,3.9,0.3h17c9.6,0,19-2.2,27.5-6.6l25-12.4
			c2.8-1.4,6,1,5.4,4.1c-1,6.1-0.8,12.4,0.6,18.4l5.3,22.8c0.7,2.9,1.8,5.6,3.5,8.1l5,7.7c3.2,5,8.8,8.2,14.8,8.7L726,789
			c0.7,0,1.5-0.1,2.2-0.3l8.9-3.2c2.9-1.1,6.1,0.4,7.3,3.4l3.8,10.5c0.8,2.2,2.9,3.8,5.3,3.8h9.2c2.8,0,5.2,2.1,5.6,4.9l0.1,0.6
			c0.4,2.5-1.1,5-3.5,6l-14.2,5.9c-2.1,0.8-2.1,3.8-0.1,4.7l16.9,7.7c2.9,1.4,4.2,5,2.7,7.8l-3.9,7.3c-1,1.7-1,3.8,0,5.6l18.3,31.7
			c0.7,1.3,1.8,2.1,3.1,2.5l21.2,7.1c1.3,0.4,2.4,1.3,2.9,2.4l11.7,18.9c0.7,1.1,1.8,2,3.1,2.4l47.6,14.5c0.4,0.1,0.8,0.3,1.3,0.6
			l25.8,15.3"/>
		<path class="st2" d="M233.4,214.7c0.1-5.2,1.2-4.6,3.7-16.1c2.7-12.6,1.3-12.7,3.8-21.8c2.5-9,3.7-13.6,6.9-18.4
			c1-1.5,2.7-3.8,3.9-7.5c1.1-3.5,1.1-6,1.3-9.1c0.4-6.8,0.7-11.8,2.9-16.5c2.3-4.8,6-8.1,10.9-12.5c4-3.6,5.4-4,7.4-6.9
			c2.5-3.6,3.1-7.1,3.9-11.5c0.4-2.1,0.7-4.6,0.6-16.5c0-7.7-0.1-11.6-0.5-13.4c-1.5-6-3.9-6.6-7.3-14.4c-1.4-3.2-3.4-7.8-4-13.8
			c-0.3-2.8-1-11.3,3.8-20.4c4.4-8.3,11-12.4,13.3-13.7c1-0.6,10-4.1,15.9-6.2"/>
		<path class="st4" d="M265.4,298.7c-11-27-17.5-41.2-21.7-49.3c-1-1.9-3.4-6.6-5.7-13.3c-2.7-7.9-4.9-13.9-4.7-21.3"/>
	</g>
</g>
<g id="Diameters">
	<g id="D1">
		<path id="route_d1_00000139264998613727643130000002466890195731565714_" class="st5" d="M300.1-9.3c0.6,1.8,1.1,3.3,1.8,5.9
			c0.8,3.3,1,6.1,1.1,6.5c0.3,2.7,0.2,4.3,0.8,7.4c0.2,1.1,0.4,1.9,0.8,3c0.5,1.2,1,1.8,2.1,3.4c0,0,0.2,0.4,2.3,3.4
			c1.5,2.2,2,4.2,3.1,8.2c0.9,3.3,1.9,6.5,2.8,9.8c1,3.9,2.1,7.7,3.2,11.6c3.7,13.5,8.4,29.5,16,56.1c1,3.4,2,6.8,3,10.3
			c0.6,2.1,1.3,4.8,2.5,8.6c1.2,3.6,1.9,5.1,2.9,6.6c0.3,0.5,1.6,2.4,3.7,4.4c2.4,2.3,4,2.9,7.8,5.2c4.3,2.6,3.2,2.3,9,6.1
			c2.8,1.8,5.5,3.7,8.3,5.4c1.3,0.8,3.2,1.9,4.6,4.1c0.9,1.3,1.3,2.6,1.5,3.2c0.7,1.9,0.8,3.5,0.9,4.4c0.3,3.7,0.3,6.7,0.3,9
			c0,4.4,0.3,7.7,0.4,10c0.3,3.8,0.6,6.3,0.7,7c0.4,3.3,0.9,5.8,1,6.4c0.5,2.5,0.8,3.7,2.2,9c0.4,1.6,1.5,5.8,2.6,10.2
			c1.6,6.3,1.8,7.5,1.9,9.1s0.4,4.2-0.1,7.5c-0.3,2.5-0.7,2.8-1.4,6.5c-0.3,1.8-0.7,4-0.8,6.5c-0.1,1.7,0.1,2.7,0.7,7.8
			c1.2,9.1,1.5,11,2.4,13.6c0.7,2,1.1,3.2,2,4.7s1.4,1.9,2,3.3c0.5,1.3,0.5,2.3,0.6,4.2c0.1,2.3,0.2,3.4-0.1,4.8
			c-0.1,0.5-0.3,1.2-2.5,4.6c-2.3,3.6-2.7,3.9-3.2,5.3c-0.4,1.1-0.6,2.2-0.7,5.2c-0.2,5.9,0.3,6.8,0.4,13.1c0,2.4-0.1,3.8,0.4,6
			c0.3,1.3,0.7,2.5,1.6,4.8c1.9,4.9,2.3,4.9,2.9,7.2c0.7,2.8,0.8,5.6,0.8,5.6c0.1,1.1,0.1,2.5,0.5,4.5c0.3,1.4,0.6,2,0.7,2.3
			c0.6,1.3,1.4,2.1,2.3,2.9c2.6,2.4,3.2,2.6,4.2,3.6c1.5,1.5,1.9,3.2,2.9,6.4c0.3,1.2,0.6,2.3,1.5,8.3c0.6,3.8,0.4,2.9,1.2,8.5
			c0.3,2.1,0.5,4.1,0.8,6.2c0.3,2.3,0.5,3.5,0.2,5.3c-0.2,1.3-0.5,1.7-1,3.4c-0.6,1.9-0.7,3.3-1,6c-0.7,5.9-1,8.9-1.1,9.4
			c0,0.2-0.6,4.2-1.7,9.3c-0.4,1.9-0.8,3.3-1.7,4.8c-0.8,1.5-1.7,2.3-3.3,3.9c-2.5,2.5-3.8,3.7-6,4.4c-1.6,0.5-3.5,0.6-4,0.7
			c-1.2,0.1-1.6,0-2.7,0c-2.2,0.1-3.8,0.6-4.6,0.8c-1,0.3-4.8,1-12.3,2.3c-9.1,1.6-13.6,2.4-14.7,2.5c-0.7,0-2.5,0-4.6,0.8
			c-0.3,0.1-1.9,0.7-3.7,2.1c-0.9,0.7-4.2,3.3-5.7,7.7c-0.5,1.4-0.6,2.8-0.9,5.6c-0.3,2.6-0.1,3-0.3,5c-0.2,1.8-0.4,2.7-1.6,7.3
			c-1.2,5.1-0.9,3.7-2,8.2c-0.9,3.5-1.5,5.7-2.1,8.1c-1.3,4.6-1.7,5.6-2.3,6.5c-0.5,0.8-1.7,2.9-4,4.9c-2.2,2-3.1,1.8-7.7,4.6
			c-3,1.8-4.5,2.8-6.1,4.3c-1.8,1.8-2.8,3.4-4.8,6.7c-2.1,3.5-2.1,4.2-4.1,7c-1.6,2.2-2.4,3.4-3.8,4.4c-1.3,0.9-1.8,0.9-5.8,3
			c-2.1,1.1-2.1,1.2-3.1,1.7c-2.9,1.4-5.4,1.9-6.4,2.2c-8.6,2-16.9,4.9-25.4,7.2c-13,3.6-19.5,5.4-20.9,5.9c-3.2,1.1-5,1.5-8.5,2.4
			c-0.9,0.2-2.2,0.5-3.9,0.6c-2.5,0.2-4.3,0.1-4.9,0c-2.5-0.2-2.2,0.1-19.6,0c-9.8,0-14.7-0.1-15.3-0.1s-4-0.2-8.6,0
			c-3.8,0.2-5.3,0.5-6,0.7c-1.9,0.5-3.7,1.2-6.9,3c-3.9,2.2-6.7,4.1-8.1,5.1c-1.5,1,0-0.1-13.2,8.4c-7.9,5-7,4.5-12.3,7.9
			c-8.6,5.4-12.8,8.1-13.6,8.6c0,0-5.9,3.3-10.4,6.6c-0.8,0.6-2.5,1.8-4.2,3.7c-0.9,1-1.6,1.8-1.8,2.1c-4.7,6-5.6,6.5-12.1,15.1
			c-5,6.6-7.5,9.8-8.5,11.5c-2.1,3.7-4.3,7.3-6.3,10.9c-0.5,1-1.2,2.2-2.4,3.7c-1.5,1.8-2.1,2.1-5.1,5c-2.8,2.7-3,3.2-4.9,4.6
			c-0.5,0.4-1.8,1.4-3.4,2.3c-3.1,1.8-5.2,2.2-8.7,3.2c-5.3,1.6-4.2,2-12.4,4.9c-2.1,0.8-3.9,1.3-6.6,2.5c-1.6,0.7-3.5,1.6-5.4,2.8
			c-2.4,1.5-3.8,2.9-6,5c-1.9,1.8-4.7,4.4-8.4,7.7"/>
	</g>
	<g id="D2">
		<path id="route_d2_00000173146579392911400030000005915276653319013036_" class="st6" d="M-4,337.3c2-0.3,3.3-1,4.9-1.7
			c1.4-0.7,1.7-1,5.3-3.3c2.6-1.7,1.3-0.8,5.1-3.2c2.7-1.7,3.4-2.2,4.7-2.6c1.9-0.7,3.5-0.7,4-0.7c2.8,0,4.9,0.9,6.5,1.6
			c2.2,1,3.7,2.2,5.7,3.8c0.8,0.6,2.2,1.9,4.9,4.4c2.7,2.4,3.2,3,4.5,4c1.7,1.3,2.8,2.1,4.4,2.7c2.1,0.8,3.9,0.8,4.7,0.8
			c1.4,0,2.4-0.3,4.5-0.9c3.8-1.1,5.7-1.6,6.4-1.8c3.5-1.2,3.7-0.9,14.6-3.6c3.8-0.9,7.7-2,12.3-3.2c0,0,3.1-0.9,9.3-3
			c0.4-0.1,3.5-1.2,7-3.1c1.2-0.7,2.2-1.2,3.2-2.2c0.3-0.3,1.4-1.5,2.4-3.7c0.7-1.5,0.7-2.2,1.5-5.7c0.7-3,1-4.5,1.4-5.6
			c0.4-1,1.3-3.3,3.2-5.8c2.1-2.7,4.4-4.3,5.7-5.1c2.8-1.8,5.3-2.7,6.3-3c2.8-0.9,5.2-1.1,5.8-1.1c2-0.1,2.7,0.1,4.7-0.2
			c1.5-0.2,2.6-0.6,4-1c2.8-0.9,3.3-1.3,6.3-2.2c1.4-0.4,2.2-0.6,3.1-0.6c1.4-0.1,2.5,0.1,3.3,0.3c4.4,1,8,2.4,8,2.4
			c2.6,1.1,4.4,1.8,6.5,3c0.4,0.3,1.1,0.6,2,1c0.6,0.2,2.3,0.8,4.3,0.7c2.4-0.1,2.6-1,6-1.9c1.4-0.3,2.7-0.7,4.5-0.6
			c2.7,0.1,4.7,1,6.5,1.9c0.2,0.1,1.9,1.1,5.3,3.2c1.9,1.1,2.9,1.8,4.6,2.4c0.4,0.1,1.4,0.5,2.9,0.8c2.2,0.5,2.8,0.2,4.6,0.7
			c1.3,0.3,2.1,0.7,3.3,1.3c2.4,1.2,4,2.5,4.8,3.2c1.3,1.1,2.8,2.4,4.1,4.6c0.7,1.2,1.4,2.5,1.5,4.3c0,1.4-0.3,2.4-0.9,4.1
			c-0.8,2.2-1.3,2.4-1.7,4.2c-0.3,1.5-0.3,2.8-0.3,3.2c0,0.5,0.2,2,0.9,3.7c0.4,1,0.6,0.9,3,4.2c1.2,1.6,1.6,2.2,2.5,3.1
			c0.4,0.4,1.1,1,2.1,1.6s2.4,1.2,5.1,1.3c1.9,0.1,2.3-0.1,6.9-0.6c4.3-0.4,4.9-0.3,6.9-0.9c0.4-0.1,2-0.5,3.9-1.5
			c1.5-0.7,2.7-1.5,5.1-3c3.1-2,3.5-2.4,5-3c1.8-0.8,3.3-1.1,3.7-1.2c1.9-0.4,3.5-0.3,4.4-0.2c2.9,0.2,5.9,0.3,8.8,0.5
			c2.8,0.3,5.1,0.4,9.8,0.6c5.5,0.3,8.2,0.4,11.5,0.4c1.7,0,5.3-0.3,12.6-1c3.6-0.3,7.2-0.3,10.8-0.9c1.6-0.3,3.6-0.7,6.4-0.3
			c1.2,0.2,3,0.4,4.9,1.4c1.4,0.7,1.9,1.4,5.6,5.1c1.4,1.5,2.9,2.9,4.3,4.3c1,1,2.4,2.4,5.1,5.1c4.1,4.1,4.5,4.5,5.5,5.2
			c1.6,1.2,3.3,2.4,5.8,3.1c2.8,0.7,5.2,0.4,7.3,0c1.5-0.2,2-0.5,6.9-1.9c2.2-0.6,4.3-1.2,6.5-1.9c0.9-0.3,3.7-1,9.2-2.6
			c3.4-1,5.2-1.5,6.8-1.6c1.2-0.1,3.3-0.3,5.8,0.3c0.7,0.1,4,0.9,7.5,3.3c2.6,1.8,4.2,3.9,5.3,5.3c2.5,3.2,3.7,4.8,3.7,4.8
			c0.8,1.1,1.3,1.8,2.2,2.5c1,0.8,2.2,1.3,3.7,1.7c2.6,0.6,4.6,0.5,8.3,0.2c4-0.3,5.9-0.4,7.5-0.6c6.1-0.6,6.7-0.8,8.6-0.5
			c1.4,0.2,3.8,0.5,6.4,2.2c1,0.7,1.5,1.2,3.6,3.6c3.7,4.2,5.6,6.2,6.8,7.8c1.9,2.5,1.5,2.2,4.1,5.6c0.2,0.2,1.6,2.1,3.4,4.7
			c1.2,1.7,1.7,2.5,2.1,3.8c0.5,1.3,0.6,2.5,0.6,3.4c0.2,2-0.1,2.3,0.1,4.2c0.1,0.5,0.1,0.8,0.7,3c0.5,2.1,0.9,3.6,1.1,4.4
			c1.2,4.6,1.1,4.8,1.5,5.8c0.4,0.9,0.4,0.8,2,3.5c0.7,1.2,1.7,3.1,2.8,5.1c1.5,2.9,2.2,4.4,2.8,6.4c0.4,1.6,0.3,1.6,0.9,4.4
			c0,0.2,0.7,3.4,1.7,6.7c1.4,4.6,1.9,4,3.1,8c1.2,3.8,1,4.9,2.4,8.7c0.8,2.1,0.9,1.8,1.7,3.9c1.4,3.7,1.2,4.8,2.4,8.1
			c0.4,1.1,1.1,3,2.4,5.1c0.9,1.6,2.5,4.2,5.3,6.4c1.9,1.4,3.7,2.1,7.4,3.4c5.2,1.9,5.7,1.4,8.6,2.8c0.6,0.3,1.3,0.7,6.8,5
			c4.2,3.2,6.3,4.9,7.5,6.2c2.4,2.4,4.1,4,5.6,6.7c1.7,3,1.2,3.9,3.4,8.8c1.1,2.4,2.1,4.2,2.9,5.6c2,3.4,3.2,4.8,5.8,8.6
			c4,5.7,3.6,5.8,7.9,12c2.1,3,1.9,2.5,5.3,7.5c3.8,5.4,3.5,5.2,6.6,9.5c3.5,4.9,4.6,6.2,6.5,9.6c1.9,3.3,2.7,5.1,3.1,7.1
			c0.5,2.1,0.4,3.4,0.4,6.4c0,0.4,0.2,3.9,0.6,10.9c0,0.7,0.3,5.9,0.9,12.6c0.5,6.6,0.8,8,1.6,9.9c0.8,1.8,1.6,2.8,2.5,5.6
			c0.4,1.3,1.1,3.3,1.3,5.8c0.1,2.1-0.2,2.9-1.8,9.4c-1.3,5.2-1.1,4.7-2.1,8.5c-0.5,1.8-1.1,4.4-2.1,7.8c-0.4,1.2-1.7,5.8-4,12.3
			c-2,5.7-3,8.6-4.3,11.1c-1.7,3.2-3.4,5.7-5.2,8.3c-1.4,2-2.3,3.2-5.1,6.9c-6.3,8.3-4.5,6-9.1,12c-7.1,9.2-6.9,8.8-7.7,10
			c-1.5,2.4-2.4,4.2-4.7,6.6c-1.9,1.9-2.6,2-4.3,4c-1.5,1.7-1.7,2.4-4.1,6.3c-3.3,5.4-3.7,5.1-5,7.9c-1.3,2.8-1.9,5.1-2.4,7
			c-1,3.8-0.6,4.5-1.8,9.7c-0.8,3.4-1.3,4.7-1.9,5.9c-1.2,2.5-2.6,4-3.1,4.6c-3.4,4-2.2,3.7-10.7,15.3c-4.8,6.5-6.1,7.9-8.1,9.4
			c-2.1,1.5-3.8,2.3-6.6,3.6c-4.2,2-5.9,2.2-12.9,4.7c-9.3,3.3-11,4.4-11.9,5.1c-3.4,2.5-5.4,5.3-6.6,7c-2.3,3.2-1.8,3.7-5.8,10.5
			c-0.3,0.5-1.5,2.5-4,6.4c-2.6,4.2-2.9,4.6-3.5,5.4c-2.1,2.5-3.1,2.4-6.4,5.2c-2.4,2-4.7,4-6.6,7.2c-1.8,3.1-2.4,5.9-2.9,8.2
			c-0.6,3-0.3,3.7-0.7,9.7c-0.3,5.1-0.5,4.4-1,10.8c-0.2,3.2-0.3,5.4-0.7,10.8c-0.3,4.3-0.4,5.3-0.8,6.6c-0.2,0.9-0.7,2.3-3.5,7.6
			c-2.4,4.6-3.7,7-5.1,8.7c-2.3,2.8-4.6,4.6-5.8,5.5c-2.9,2.2-3.7,2.2-6.3,4c-1.6,1.2-2.8,2.3-6.5,6.4c-3.4,3.9-4.8,5.6-8.7,10.3
			c-3.8,4.6-5.8,6.9-8.2,9.7c-4.4,5.1-5.3,5.9-6.6,8.2c-1.8,3.3-2.5,6-3.2,9.6c-1.2,5.5-0.8,7.4-1.9,15.9c-0.3,2.3-0.5,3.6-1.2,7.9
			c-2.2,13.6-3.3,20.4-4.4,26.7c-1.2,7.5-0.8,5-3.7,22.9c-5.1,31.7-4.7,27.8-6.1,37.5c-1.9,12.3-2,14.1-2.9,17.3
			c-0.2,0.9-1,3.4-1.3,6.9c-0.2,2.4-0.1,4.3-0.1,5.4c0.4,7.8,0.9,10.3,1.2,15.9c0.2,4.3,0.2,6.7,0.7,11.6c0.3,2.9,0.6,4.2,1.1,5.6
			c0.7,2,1.2,2.6,4,7.5c2.7,4.7,3.2,5.9,3.5,6.6c1,2.6,1.5,4.7,1.7,6.2c1.7,9.1,3,16.9,3.8,21.6c1.3,7.4,1.7,8.3,2,12.2
			c0.5,6.7-0.1,11.2-0.2,12.2c-0.5,3.6-1.4,6.7-2,8.9c-0.7,2.4-1.3,4.4-1.8,5.8"/>
	</g>
	<g id="D3">
		<path id="route_d3_00000142872565923824513170000010735871226722394559_" class="st7" d="M-15.7,5.6c15.1,5.9,29.7,12,37.2,15.2
			c14.1,5.9,14.8,6.4,19,7.7c3.2,1,7.2,2.1,12.3,4.7c3.2,1.6,3.8,2.3,6.8,3.6c4.8,2.2,7.9,2.6,11.9,3.7c6.2,1.7,10.6,3.8,14.9,5.9
			c2.4,1.2,6.3,3.2,18.2,11.9c6.6,4.8,8.8,6.7,17.9,13.6c5.9,4.5,10.6,8.1,20.1,15.2c13.3,10,13.8,10.2,22.6,16.9
			c14.1,10.6,13.2,10.3,24.7,19c15.2,11.4,15.7,11.2,29.9,22c3.8,2.9,2,1.6,20.1,15.6c12.5,9.7,15.2,11.7,17.8,13.7
			c9.5,7.2,11.7,8.6,19,14.1c10.5,7.9,10.4,8.3,22.2,17.4c18.8,14.5,28.2,21.8,35.9,26.9c1.4,0.9,6.8,4.4,12.9,9.9
			c3.1,2.7,5,4.7,5.9,5.6c3.6,3.7,5.5,6.4,7.9,9.4c3.4,4.3,4.2,4.7,10.4,11.6c9.3,10.3,9.2,11.1,18.6,21.7
			c5.6,6.2,5.6,5.8,10.6,11.6c5.8,6.6,7.6,9.1,13.2,15.7c8.9,10.6,16.1,18.2,17.7,19.9c5.8,6.1,10.1,10.3,18.4,18.2
			c6.7,6.5,13.2,13.1,20.1,19.4c1.1,1,2.5,2.4,5.3,5.3c2,2,2.9,3,3.9,4.5c1.3,2,1.2,2.6,2.2,3.8c1.7,2.3,4.1,3.2,5.8,3.8
			c4.2,1.7,8.2,3.8,12.5,5.2c12.1,4,18.2,6.1,20.4,7c4.5,1.9,7.3,3.3,12.1,4.1c4.7,0.8,8.1,0.8,8.1,0.8c3.7,0,5.4-0.5,8.9,0.1
			c2.4,0.4,4.2,1.1,4.9,1.4c1.1,0.4,3.7,1.5,6,3.7c1.2,1.1,2.1,2.3,4.9,8.2c1.2,2.5,1.8,4,4.3,9.4c1.4,3.1,2.5,6.3,4.1,9.3
			c1.2,2.3,2.3,3.8,2.6,6.3c0.1,1.3,0,2.3-0.4,4.8c-1,5.1-1.8,6.7-2.7,10.7c-0.9,4.1-1.4,6.1-1.1,8.6c0.5,4.2,2.6,7.1,3.3,8.1
			c2,2.7,4.2,4.1,7.4,6.1c3.1,1.9,5.9,3.1,10.8,5.2c4.9,2.1,5.5,2.1,7.1,3.4c0.7,0.6,1.4,1.2,5.5,6.4c3.7,4.8,3.8,5.2,5,6.1
			c2.6,2.1,5.2,2.8,7.6,3.5c4.6,1.3,6.3,0.7,9.6,2.5c0.6,0.3,1.2,0.7,3.5,2.7c6.7,5.8,8,7.8,12.7,11.4c0.5,0.4,2.4,1.8,5,3.5
			c2.9,1.9,5.1,3,6.6,3.9c3.3,1.8,3.1,1.8,11.2,6.7c6.4,3.8,6.7,3.9,14.6,8.6c1.7,1,2.1,1.3,12.5,7.5c11.5,6.9,17.3,10.4,20.1,12
			c4.7,2.8,6.4,3.8,10.9,6.5c9,5.4,11.2,6.8,12.8,7.8c5.5,3.5,8.3,5.2,11.7,7.8c4.1,3,6.8,5.4,11.7,9.8c5.3,4.7,6.4,6,11.9,10.9
			c5.7,5.2,7.1,6.2,13,11.4c8.9,7.8,9.2,8.6,18.8,17.3c8,7.2,7.1,6,20.2,17.6c8.8,7.8,13.3,11.7,18.8,16.8
			c4.7,4.3,9.7,8.4,14.4,12.7c1.8,1.6,4,3.6,7.3,5.9c1.5,1.1,4.2,2.7,9.3,5.2c6.2,3,11.3,4.8,14.1,5.9c6.5,2.3,10.6,3.5,19.3,6.2"/>
	</g>
	<g id="D4">
		<path id="route_d4_00000099635551148367014470000006574269191803652282_" class="st8" d="M-8.4,715.5c5.1,0.1,7-0.5,14.5-0.5
			c0.8,0,2.3,0,4.1,0.2c2.8,0.4,4.9,1,5.9,1.3c4.6,1.4,3.8,0.7,12.3,3c5.4,1.4,6.6,2,9.9,2.4c2.4,0.3,4.4,0.4,5.4,0.4
			c3,0.1,4.9-0.1,7-0.3c8.2-0.6,9.1,0.4,14.9-0.6c3.7-0.7,5.4-1.5,6.9-2.7c1.6-1.4,2.7-3.2,3.1-3.9c1.2-2.1,1.1-2.8,2.2-4.7
			c0,0,1.3-2.1,3.3-3.9c1.9-1.6,3.6-2.2,7.9-3.6c6.5-2.2,9.8-3.2,10.7-3.4c3.6-0.7,6.4-0.7,10-0.7c4,0,7.2,0.3,12.6,0.8
			s6.8,0.8,9.9,0.6c3.3-0.2,5.2-0.3,7.6-1.3c3.2-1.3,3.5-2.8,7.8-5c1.3-0.7,2.6-1.2,5.2-2.2c4.5-1.7,8.1-2.8,9.7-3.3
			c9.7-3,8.7-2.2,12.4-3.6c4.3-1.6,3-1.7,13.6-6.7c4.1-1.9,6.2-2.8,9.3-4.9c1.9-1.3,3.9-2.7,6-4.9s2.7-3.6,6-9.2
			c2.8-4.8,4.2-7.1,5.3-8.7c0.7-1,2.2-3,8.7-9.6c2.7-2.8,4.2-4.2,10.4-10.3c7.9-7.8,8.4-8.2,9.1-9.5c1.6-2.6,1.2-2.9,5.6-11.7
			c1.9-3.8,2.5-4.9,3.2-5.9c2.2-3.3,4.3-5.4,6.5-7.6c3.9-3.8,7.6-6.5,9.5-7.9c4.5-3.3,5.2-3.2,7.1-5.3c2.6-2.9,3.9-5.9,4.8-7.8
			c0.9-2,2-4.5,2.3-7.9c0.4-3.6-0.5-4,0-7.8c0.2-1.7,0.5-4.4,2.2-7.4c1.5-2.6,3.3-4.1,5.5-6c2.5-2.1,3.5-2.4,6.9-4.8
			c2.7-1.9,3.9-3.1,6.7-5.3c8.4-6.9,10.3-8,11.7-8.9c2.5-1.5,4.2-2.6,6.9-3.5c2.3-0.8,3.3-0.9,7.1-2.2c3.8-1.4,4.8-2,5.6-2.9
			c0.4-0.4,1.7-2.1,1.8-4.4c0.1-1.2-0.4-2.5-1.3-5c-0.7-2-0.9-2.1-1.3-3.5c-0.5-1.6-0.7-2.9-0.9-4.3c-0.6-4.3-0.8-6.2-1.1-8.9
			c-0.4-3.4-0.7-5.2-1-6.4c-0.8-2.8-1.6-3.4-2.2-6.3c-0.2-0.9-0.3-2.3-0.6-5.1c-0.3-3.4-0.5-5.1-0.3-6.5c0.1-1,0.3-2.8,1.2-4.8
			c1-2.4,1.9-2.7,3.4-5.2c1.4-2.3,0.8-2.3,2.4-5.8c2.2-4.5,3.3-4.6,4.1-7.9c0.3-1.2,0.4-2,1-3.5c0.4-1,1-2.4,2.2-3.8
			c1.7-2,3.6-2.9,4.8-3.4c1.4-0.6,2.3-0.8,6.3-1.5c4.2-0.7,6.2-1.1,7.9-1.4c2.9-0.5,5.2-0.9,8.1-1.4c6.1-1.2,9.2-1.7,10.1-2
			c1-0.2,2.4-0.6,4.3-0.7c1.6-0.1,1.9,0.1,3.4,0.1c0.6,0,2.6-0.2,4.9-1.2c2.1-0.9,3.3-2.1,4.5-3.2c0.9-0.9,2.5-2.3,3.7-4.5
			c0.6-1,1.3-2.5,2.2-6.5c0.3-1.2,0.7-3.5,1.4-9.3c0.5-4.3,0.6-5.8,1.2-9.4c0.4-2.2,0.6-3.5,1.1-4.9c0.7-2.5,1.5-4.4,2-5.5
			c1.1-2.3,1.9-4.1,3.5-6.1c2.1-2.5,4.4-3.9,5.6-4.5c1.3-0.7,4.2-2.4,8.3-2.8c1.9-0.2,1.6,0.1,6,0.2c3.3,0,5.9-0.1,7.7-0.2
			c0.7,0,2.9-0.2,7.3-0.6c3.9-0.3,4.6-0.4,5.7-0.2c2.7,0.5,4.6,1.7,5.5,2.3c1.1,0.7,2,1.5,4.5,4.4c2.3,2.7,4.3,5.2,6.1,7.6
			c3.6,4.7,3.3,4.6,4.7,6.2c1.1,1.2,2,1.9,2.9,3.5c0.4,0.7,1.3,2.3,1.7,4.4c0.3,1.9-0.1,2.2,0.1,4.6c0.1,0.7,0.2,1.2,0.8,3.9
			c0.8,3.5,1.5,6,1.7,6.7c1.3,4.7,1.5,5.3,1.9,6.1c0.7,1.3,0.9,1.4,2.1,3.3c1.1,1.9,1.7,3.3,2.2,4.4c0.8,1.8,1.9,4.3,2.8,7.7
			c0.9,3.4,0.3,3.3,1.2,6.2c0.7,2.4,1.2,2.8,2.6,6.6c0.8,2.2,0.6,1.8,1.8,5.4c1.2,3.4,1.5,4.1,2.9,8.1c0.7,2.1,1.1,3.2,1.3,4
			c1.2,4.1,1.1,5.2,2.2,8.3c0.4,1.1,0.9,2.6,2,4.4c0.7,1.2,1.9,3.4,4.2,5.5c2.8,2.6,5.6,3.7,6.3,3.9c2.1,0.8,2.5,0.5,5.7,1.4
			c1,0.3,3.1,0.9,5.5,2c2.7,1.2,6.6,3,9.5,7c1.3,1.7,2,3.4,2.4,4.2c1.5,3.2,1,4.1,2.3,6.4c1.4,2.7,3.5,4.2,4.5,5
			c1.3,1,2.1,1.3,5.8,3c6.8,3.1,6,3,7.4,3.4c3,1,3.9,0.7,9.8,1.5c2.5,0.4,3.1,0.5,7.8,1.4c12.3,2.2,12.1,1.8,20.6,3.4
			c5.4,1,7.9,1.7,12.8,2.2c3.9,0.4,6.3,0.4,8.5,0.2c3.9-0.3,6.9-1.2,8.9-1.8c8.1-2.5,14.7-5,17.2-5.9c8.5-3.2,7.4-2.3,19-6.3
			c8.6-3,10.3-3.9,18.9-7.1c8.2-3,10.7-3.7,22.7-7.7c14.8-5,13.2-4.7,36.3-12.7c12.5-4.3,14.2-4.8,26.2-9c11.3-4,17-5.9,18.1-6.3
			c5.3-1.9,10.7-3.5,16-5.6c1.2-0.5,4.7-1.8,9.5-2.7c3.5-0.6,5.4-0.6,6.1-0.5c4,0.2,6.9,1.5,8,1.9c6.8,2.9,14.1,4.3,21.2,6.5
			c16.3,5.2,14.9,3.7,22,6.6c2.3,0.9,6.1,2.1,13.7,4.5c2.2,0.7,3.9,1.2,6.4,1.3c2.6,0.1,3.8-0.4,7.9-0.7c2-0.1,3.1-0.1,5.3-0.1
			c0.1,0,4.5-0.1,13.2-0.3"/>
		<path id="route_d4a" class="st8" d="M140.9,741.1c-1.6-2.2-2.8-3.5-3.6-4.5c-0.3-0.3-0.8-0.8-1.2-1.7c-0.5-1.1-0.5-2.1-0.5-2.6
			c0-3.9,0-5.8,0-5.8c0.3-5-0.5-5,0-8.6c0.3-2.3,0.5-1.9,0.9-4.7c0.5-4,0.6-7.1,0.6-7.1c0-1.5,0-2.8,0.7-4.4
			c0.5-1.2,1.2-1.9,1.3-2.1c0.6-0.5,1.3-0.9,1.9-1.4c0.4-0.3,0.9-0.7,1.3-1"/>
	</g>
	<g id="D5" class="st9">
		<path id="route_d5_00000069397057650077401970000014953236511354781086_" class="st10" d="M496.1,347.7c0.4-0.6,1.8-3.3,4.6-8.9
			c4.3-8.5,5.5-11.3,6-12.6c0.9-2.3,2-5,3.1-8.6c0.8-2.6,2.2-7.4,2.6-13.2c0.2-1.9,0.2-3.3-0.9-16c-1-11.7-1.1-11.9-0.9-13.9
			c0.6-6.3,2.1-7.1,2.4-14c0.1-3.9-0.3-4.9,0.2-8.8c0.2-1.8,0.6-5.3,2.2-9.2c1.2-3,2.6-5.2,5.9-9.5c4-5.2,7.2-8.8,10.4-12.4
			c8.8-9.8,7-8.1,12.2-13.8c7-7.7,8-8.4,13.1-14.1c5.1-5.7,7.5-8.7,12.9-15.1c9-10.8,9.6-10.9,20.7-24c10.3-12.1,16.2-18.9,24-28.9
			c9.8-12.5,16.3-21.7,17.7-23.9c4.7-6.8,8.8-13,10.8-16.1c4.4-6.7,4.6-7.3,9.7-15.1c6.1-9.4,10.6-16.1,11.8-17.8l0,0
			c6.2-9.3,9.4-14.6,10.7-17c0.9-1.6,1.7-3.1,2.6-4.9c0.4-0.7,0.7-1.5,1.1-2.3c2.2-4.8,3.4-8.6,3.8-10c3.2-10.2,7-20.2,10.4-30.3"/>
		<path id="route_d5_x2A_" class="st10" d="M475,542.9c-1-3.8-2.7-9.5-5.2-16.4c-3.3-8.8-4.6-10.1-6.6-16.7
			c-2.8-9.1-4.8-15.4-2.5-22.3c1.3-3.8,3.7-6.5,8.5-11.9c6.4-7.2,8-6.6,11-10.8c6.4-8.8,5.3-20,4.7-25.7c-0.9-8.9-4-15.9-5.8-19.9
			c-3.9-8.9-6.8-10.9-8.2-18.4c-1-5.8-0.4-10.7,0.1-13.6c0.6-4.1,1.4-9.7,4.9-15.4c3.5-5.7,6.4-6.1,12.5-13.2
			c3.7-4.3,6.2-8.3,7.7-10.9"/>
		<path id="route_d5_00000060001451411962091110000017642952960568010928_" class="st10" d="M643.2,1190.1c-1.2-3-3-7.4-5.2-12.8
			c-4.9-11.8-4.5-10.6-7-16.7c-2.7-6.7-6.7-17.2-9.9-24.3c-0.6-1.3-1.2-2.7-1.9-4.1c-1.5-3.2-2.9-5.7-4-7.7c-2.7-4.8-5-8.6-6.3-10.7
			c-8.8-14.3-8.3-13.3-11-17.9c-5.9-10.1-4.8-9.2-7.3-12.8c-1.7-2.3-3.1-3.9-3.9-6.8c-0.5-1.9-0.7-4.1-0.9-8.4
			c-0.2-3.5-0.1-4-0.4-5.8c-0.5-2.7-1.5-4.7-2.2-6.1c-2.5-5.1-5-9.1-6.5-11.6c-5-8.4-4.4-8.2-7.5-12.9c-1.7-2.5-2.2-3-5.7-8.2
			c-3.1-4.5-4.1-6.1-4.7-7.2c-2.2-3.8-3.7-6.8-4.1-7.9c-1.2-2.6-2.5-5.9-4.6-13.2c-1.6-5.7-2.6-10-4.2-16.8c-1.8-7.4-2.5-11-4-14.7
			c-0.7-1.7-1.6-3.3-2.6-6.3c-0.5-1.5-0.7-2.3-1.3-3.6c-0.8-1.6-1.7-2.6-3.2-4.2c-3.7-4.1-2.1-2.5-6.5-7.3c-2.5-2.7-2.8-2.9-3.4-3.9
			c-1.5-2.1-1.3-2.7-3-5.2c-1.5-2.3-2-2.4-3.6-4.7c-1.5-2.2-2.3-4-2.7-4.9c-1.8-4.1-1.3-5.1-3.1-10.5c-1-3-1.6-4.6-2.8-6.7
			c-1.7-2.7-2.6-3.1-4-6c-1.1-2.2-1.5-4.1-1.9-5.7c-0.9-3.8-0.3-4.2-1.2-6.8c-0.9-2.6-1.7-2.7-2.8-5.8c-0.8-2-1.1-3.6-1.4-5.6
			c-0.9-5.1-0.4-6.6-0.9-10.3c-0.3-2.3-0.6-2.6-3.1-9.7c-1.2-3.5-2.2-6.5-4.1-12.5c-1.4-4.5-2.9-8.9-4.3-13.4
			c-1.4-4.3-1.8-5.7-2.9-7.7c-1.5-2.7-2.4-3.3-3.7-6.4c-0.6-1.4-1.1-2.7-2-5.3c-1.3-3.5-1.1-3.4-1.5-4.3c-1.1-2.2-2.1-2.9-4.7-5.9
			c-1.6-1.8-3.2-3.6-4.5-5.7c-0.9-1.5-1.3-2.5-3.3-8.5c-2.2-6.6-3.3-9.9-4.1-13.1c-0.7-2.5-1.3-4.7-1.9-7.7
			c-0.7-3.4-0.7-4.6-1.5-10.2c-1.1-8.1-1.3-8-2.2-15.3c-0.4-3.2-0.5-4.4-1-8.1c-0.5-3.3-0.9-6.1-1.2-8.1c-1.4-8.7-1.9-9.6-2.2-13.4
			c-0.1-1.8-0.1-2.8,0.1-8.4c0.5-13.4,0.7-14.5,0.8-18.6c0.1-2.8,0.2-8.9-0.3-16.6c-0.6-10.2-1.3-9.3-1.4-17.2
			c-0.1-4.8,0.1-7.9-0.9-12.6c-0.8-3.5-2-7.2-2-7.2c-1.1-3.3-1.4-3.5-2.1-5.7c-0.3-0.9-0.7-2.5-1.6-10.3c-0.9-7.7-0.7-9-0.5-10.1
			c0.6-3.2,1.9-5.5,2.6-6.8c1-1.7,1.5-2.2,5-6.3c5.1-6.1,7.7-9.2,8.1-9.8c0.7-1.1,1.7-2.8,3.6-4.2c1.2-0.9,1.8-1,3.4-1.8
			c0.6-0.3,3.4-1.8,5.9-3.9c1.2-1.1,3.5-3.4,5-6.8c1.5-3.1,1.7-5.8,1.9-8.4c0.2-3.1,0.2-7.8-1.3-13.6"/>
		<path id="route_d5a_00000062178575045395191310000000765704817620765623_" class="st10" d="M910.1,99.3c-4.5-2.9-7.6-4.7-10.3-6.3
			c-12.4-7.3-11.1-7.4-16.5-10c-0.5-0.3-4.9-2-13.6-5.5c0,0-2.2-0.9-6.2-2.1c-3.1-1-3.9-1.1-4.8-1.2c-1.8-0.1-3.2,0.2-5.4,0.7
			s-2.4,0.7-4.3,1c-2.2,0.4-3.8,0.5-4.5,0.5c-0.9,0-6.7,0.7-18.4,1.9c-4.6,0.5-13.9,1.5-23,2.8c-4.1,0.6-8.4,0.7-12.5,1.4
			c-0.5,0.1-2.1,0.4-4.3,0.3c-1.5-0.1-2.5-0.3-3-0.4c-3.7-0.7-4-0.5-10.4-1.6c-8.7-1.6-7.9-2-11.5-2.3c-2.8-0.2-3.2,0.1-9.6,0.4
			c-4.8,0.2-5.7,0.1-12.1,0.2c-6.2,0.1-7.7,0.3-15.3,0.6c-3.5,0.1-8.4,0.2-18.1,0.5c-19,0.5-16.4,0.3-19.3,0.4
			c-3.6,0.2-6.5,0.2-12.2,0.3c-4.2,0-6,0-8.3-0.4c-2.4-0.4-6-1.4-7.7-1.9c-0.7-0.2-2.6-0.8-4.6-0.9c-1-0.1-2.5-0.1-4.3,0.6
			c-1.9,0.7-3.1,1.9-4,2.7c-1,1-1.7,1.9-2.1,2.6"/>
	</g>
</g>
<g id="MCC_1_">
	<path id="route_14_00000021081795420992018510000015760415910928964275_" class="st11" d="M350.3,263.6c5.3-2,6.2-2.3,8-3.2
		c0.9-0.5,3.4-1.8,7-3.6c1.6-0.8,2.4-1.2,3.5-1.5c2.5-0.7,4.6-0.4,5.7-0.3c4.7,0.6,7.1,0.9,11.3,2.5c3.2,1.2,9.7,1.8,22.7,2.9
		c9.3,0.8,10.2,0.5,24,1.6c6.8,0.6,5.8,0.6,10.1,0.9c11,0.8,13.3,0.4,24.1,1.2c9.1,0.6,12.5,1.3,16,2.3c3.8,1.1,6.9,2.4,8.9,3.3
		c5,2.3,6.5,3.8,12.2,7c2.3,1.2,4.8,2.5,9.9,4.9c10.6,5,12.9,5.9,17.5,8.1c3.6,1.8,5,2.6,18.2,10.6c9.7,5.8,19.2,12.1,29.2,17.6
		c2.8,1.5,10,5.4,17.9,11.4c0,0,6.5,4.8,9.9,11.1c1.4,2.5,1.8,4.5,2,5.1c0.4,2,0.3,3.3,0.3,6.1c0,1.1,0-1.8,0.3,8.7
		c0.1,5.8,0.2,8.8,0.2,9.6c-0.2,3.3-0.6,5.6-1.3,9.9c-0.3,1.8-0.4,2.3-2.1,11.2c-0.5,2.5-0.7,4-0.8,6.1c-0.1,2.5,0.2,4.1,0.5,6.4
		c0.1,1,0.3,4,0.6,9.9c0.6,13.2,0.6,12.3,0.6,13.1c0.7,7.2,1.5,8,2,15c0.2,2.9,0.1,2.3,0.3,10c0.2,6.1,0,12.2,0.5,18.3
		c0.2,2.5,0.6,6.1-1,10.2c-0.3,0.7-0.7,1.8-1.6,3.2c-3,4.5-6.3,4.2-8.9,8.5c-1,1.7-1.6,3.5-1.7,3.8c-0.3,1.1-0.3,1.4-1,4.5
		c-0.4,2-0.7,3.1-1,4.4c-0.3,1.1-0.6,2.3-1.2,3.7c-0.7,1.8-1.2,2.6-2.1,4.4c-1.1,2.2-1.7,3.9-2.4,5.7c-0.4,1.1-0.3,0.9-2.6,7.6
		c-0.7,2.2-1.2,3.5-1.9,5.3c-0.5,1.3-1,2.4-1.5,3.3c-2.1,4-5.7,6.2-8.6,7.9c-3,1.8-5.5,2.7-5.9,2.9c-6.9,2.6-8.5,4.6-32.3,17.1
		c-11.1,5.8-16.6,8.7-18,9.2c-0.5,0.2-2.5,0.9-4.9,2.4c-2.1,1.3-3.5,2.6-4.1,3.2c-10.7,10-18,17.5-18,17.5
		c-13.7,14-11.4,11.2-12.4,12.3c-1.2,1.5-3.5,4.5-7.6,6.9c-2.1,1.2-4,1.9-5.5,2.4c-3.9,1.3-4.8,0.9-10.3,2.2c-4.4,1-7.8,2.2-9.2,2.7
		c-3.8,1.4-3.3,1.6-5.1,2.1c-1.5,0.4-7.5,1.8-13.3-1.2c-3-1.5-4.7-3.7-6.9-6.3c-1.3-1.6-2.4-3.2-3.9-5.9c-1.8-3.1-4.1-7.4-8.2-17
		c-2.9-6.7-3-7.4-4.3-8.9c-1.6-1.9-3.4-3.2-6.1-6.7c-1.2-1.6-1.8-2.6-2.2-3.4c-1.1-2.1-1.1-2.8-2-4.5c-0.9-1.6-1.7-2.6-3.4-4.5
		c-2.4-2.6-4.5-4.3-4.9-4.6c-0.8-0.6-1.8-1.3-5.6-3.5c-2.1-1.2-4.2-2.4-7.8-4.2c-5.6-3-6.4-3.2-8.3-4.5c-2.4-1.6-3.8-2.6-5.3-4.3
		c-1.2-1.3-2.2-3.3-4.4-7.3c-0.4-0.7-0.2-0.3-2.7-5.1c-1.9-3.6-2.2-4.1-2.6-4.8c-1.1-2-2-3.5-3.3-5.3c-1.4-1.9-1.9-2.2-4.1-4.8
		c-1.3-1.5-3-3.5-4-5.1c-1-1.5-2-3.6-3.2-10.8c-1.4-8.6-0.5-9-1.8-14c-0.5-2-1.7-4.8-4.2-10.4c-1.8-4.1-3.5-8.1-6.1-13.4
		c-2.3-4.7-2.3-4.3-7.9-14.9c-10.3-19.4-7.9-16.1-10.2-19.9c-0.6-1-2-3.2-3.1-6.4c-1-2.9-1.3-5.2-1.6-8c-0.3-2.7-1.6-13.7-1.8-15.8
		c-0.7-6.1-1.1-9.2-1.7-11.6c-1.2-4.6-2.8-8.3-4.7-12.3c-1.5-3.3-1.6-3.2-4.5-8.9c-3.5-7.1-3.2-6.8-7.7-16.1
		c-2.8-5.8-3.1-6.2-3.7-8.1c-1.6-5.4-1.2-10-1-12.1c0.3-2.8,0.5-5,1.8-7.7c1-2.1,2.3-3.4,4.8-5.9c2.1-2.1,4.7-4.2,9.8-8.4
		c2.5-2,3.2-2.6,5-4.1c2-1.7,4.1-3.5,5.4-4.7c3.6-3.4,4.1-4.8,12.3-14.9c1.7-2.1,3.1-3.8,5.4-5.8c2.8-2.3,5.1-3.5,6.1-3.9
		c2.4-1.1,4.3-1.6,5.2-1.9C331.8,270.7,331,270.8,350.3,263.6z"/>
</g>
<g id="Metro_00000176017550776017149300000007587824263464460186_">
	<path id="route18C" class="st12" d="M488.7,870c0.3,0,0.7,0,1,0.1c4.7,0.5,6.6,0.7,6.9,0.7h0.4c0,0,0.4,0,0.5,0
		c1,0.1,4.1,0.4,6.4,0.8c0.7,0.1,2.1,0.4,3.7,0.9c4.2,1.3,4.3,2.5,7.5,3.2c0.5,0.1,3.1,0.6,5.5-0.2c0.4-0.1,0.6-0.2,0.7-0.3
		c1.9-0.9,2.9-2.4,3.2-2.9c1.1-1.7,1.3-3.4,1.3-4.2c0-0.9,0-2.1-3.5-9.8c-0.3-0.6-0.7-1.6-1.1-3c-0.3-1-0.3-1.4-0.6-2.4
		c-0.4-1.4-0.8-2.3-1.2-3.2c-3-6.6-3.6-7.7-4.2-9.7c-0.2-0.7-0.7-2.2-1-4.1c-0.8-4.2-0.2-5.7-0.8-8.2c-0.4-1.7-1.2-3.3-3.8-6.4
		c-6.3-7.5-10.1-8.5-16-15.7c-3.6-4.4-4.2-6.6-4.2-8.5c0-2,0.8-5.1,1.9-7c0.2-0.3,0.8-1.3,1.5-2.8c0.3-0.6,0.5-1.1,0.7-1.7
		c0.7-1.6,1.1-2.6,1.4-3.8c0,0,0.3-1,0.5-2.2c0.4-2.8,0-4.9-0.1-7.4c-0.1-2.2-0.3-8.1,2.3-9.7c0.3-0.2,0.7-0.4,2.2-1.2
		c1.1-0.6,1.6-0.9,2.2-1.3c1.5-0.9,2.6-1.7,3.8-2.9c0.5-0.5,0.9-0.9,1.3-1.6c0.7-1.1,0.7-1.7,1.4-2.9c0.5-0.8,1-1.3,1.1-1.5
		c1.4-1.5,2.3-1.5,3.8-3c0.2-0.2,0.6-0.6,1-1.2c1.5-2.2,1.5-4.4,1.5-5c0-0.5-0.1-0.9-0.1-1.2c-0.2-1.7-0.7-2.5-1.3-4
		c-0.5-1.4-1.2-3.3-1-5.7c0,0,0.1-0.7,0.2-1.5c0.8-3.6,3.8-4.9,7.3-9.3c1.8-2.4,2.4-3.8,5-6.6c0.9-0.9,1.5-1.5,1.7-1.7
		c0.8-0.7,2.8-2.5,5.9-4c0.9-0.4,2.1-1.1,3.9-1.6c3.2-1,4.8-0.7,6.9-2.2c0.9-0.6,1.4-1.2,1.6-1.4c1.2-1.4,1.6-2.6,2.1-3.7
		c0.4-0.9,1.4-2,3.2-4.2c4.7-5.5,5.2-5.3,6.2-7.3c0.5-1.1,1.7-3.6,1.1-6.4c-0.3-1.6-1.9-3.3-4.9-6.5c-4.4-4.7-6.7-6.3-7.5-6.9
		c-0.9-0.7-2-1.4-3.6-2.2c-2.1-1-3-1.1-5.1-2.1c-1.6-0.8-2.7-1.5-4-2.4c-3.8-2.6-6.2-5.2-6.8-5.9c-0.3-0.3-0.8-0.9-1.3-1.6
		c-1.5-2-2.4-3.8-3.3-5.5c-0.3-0.6-0.7-1.4-1.2-2.5c-0.8-1.8-0.8-2.2-1.8-4.6c-0.6-1.4-1.1-2.5-1.2-2.9c-0.3-0.6-0.6-1.3-1.1-2.3
		c-0.7-1.3-1-1.7-1.5-2.9c-0.3-0.8-0.5-1.3-0.6-1.5c-0.3-0.9-0.4-1.6-0.5-2c-0.5-2.8-0.7-4.2-0.8-4.9c-0.3-2.6-1.3-2.6-3.6-8.2
		c-1.4-3.3-2.2-6.3-4.7-8c-0.2-0.2-0.4-0.3-0.5-0.3c-0.6-0.4-2.7-1.5-6.1-1.3c-3.5,0.2-3.6,1.5-6.1,1.6c-1.9,0.1-3.3-0.7-7.6-3.3
		c-1.5-0.9-3.8-2.3-6.8-4"/>
	<path id="route17C3" class="st13" d="M29.5,362.1c-0.1,2.4-0.1,5.4-0.1,8.9c0,3.8,0,5.4,1,7.3c0.4,0.7,1.4,2.6,3.5,3.5
		c1.6,0.7,3.1,0.6,4.6,0.5c2.4-0.2,3.6-0.9,5.1-1.4c2.6-0.8,4.5-0.3,8.5,0.3c7,1.2,14.8,2.1,18.3,2.5c4.1,0.4,6.1,0.5,9,1.7
		s3.2,2.1,6.1,3.4c0.9,0.4,2.3,1,10.5,2.2c3.3,0.5,7.2,1,12.1,1.4c4.3,0.3,6,0.3,7.9-0.3c2.3-0.7,3.8-1.7,6-3.1
		c2.4-1.6,4.2-3.2,5.4-4.4"/>
	<path id="route17C2" class="st13" d="M127.5,384.6c0.9-0.9,1.9-1.9,2.8-3.1c2.1-2.7,2.4-3.8,5.7-7.9c1.5-1.9,2.4-2.7,3.7-3.5
		c2.3-1.4,3.1-0.8,5.1-2.2c0.7-0.5,0.8-0.7,3.8-4.5c2.6-3.3,2.9-3.5,3.4-3.8c2.3-1.4,4.9-1,6.1-0.8c1.4,0.2,2.1,0.6,5.1,1.9
		c2,0.9,4,1.6,5.9,2.5c9.7,4.4,11.4,4.4,16.9,7.3c0.8,0.4,0.1,0.1,10.7,6.8c10,6.4,8.6,5.4,11.7,7.4c3.2,2.1,6.7,3.8,9.7,6.2
		c1.3,1,2.8,2.3,5.2,2.9c1,0.2,1.4,0.2,2.7,0.2"/>
	<path id="route17C" class="st13" d="M225.9,394.1c0.6,0,1.4,0,2.5,0c3.6,0.1,5.4,0.1,6.8,0.8c1.9,0.9,3.5,2.5,4.1,3.2
		c1.4,1.4,1.5,2,2.8,2.9c1,0.7,1.9,1,3.7,1.7c2.1,0.8,3.7,1.2,4.2,1.3c3.3,0.9,5.9,1.4,7.1,1.7c5.8,1.3,8.6,2.1,11.3,3.1
		c2.2,0.8,3.9,1.5,5.3,3.2c1,1.3,1.5,2.6,1.7,3.4c0.5,1.4,0.5,2.4,0.5,5.9c0.1,5.2,0.2,5.7,0.4,6.4c0.3,0.8,1,2.9,3,4.4
		c1,0.8,2.2,1.1,4.6,1.8c3.4,1,3.8,0.6,5.7,1.5c2,1,3.1,2.2,3.5,2.6c1.1,1.2,1.1,1.7,1.9,2.9c1,1.4,1.6,1.6,5.2,4.2
		c4,2.9,3.3,2.7,5.2,3.9c1.5,0.9,2.8,1.6,4.6,3c0.4,0.3,0.8,0.6,1.6,1.3c1.2,1,2.3,1.7,2.9,2.2l0.6,0.4c1.6,1.1,2.5,2.4,3.1,3.1
		c0.4,0.5,0.8,1.2,2.4,5c2,4.8,2.3,6.1,2.4,6.7c0.4,1.9,0.4,3.3,0.4,4c0,1.5-0.2,2.3-0.3,3.3c-0.4,3.8,0.3,7,0.6,8.4
		c0.9,3.9,2.1,5,2.5,5.3c1.1,0.9,2.2,1.2,2.4,1.2c0.8,0.2,1.8,0.2,3.8-0.5c1.2-0.4,1.9-0.8,5.3-2.8c1-0.6,2.5-1.5,4.4-2.5"/>
	<path id="route16C2" class="st14" d="M243.3,921.4c-0.9,1.1-2.3,2.6-4,4.3c-2.6,2.6-3.9,3.9-6.1,5.4c-2.4,1.6-4.2,2.9-6.9,3.1
		c-1.1,0.1-2.4-0.1-5.1-0.5c-3.8-0.6-4.1-0.9-5.7-0.9c-2.1,0-3.6,0.6-6.3,1.7c-4.4,1.9-4.6,3-8.7,4.4c-2.3,0.8-3.7,1.3-5.7,1.2
		c-1.5-0.1-2-0.5-4.7-0.8c-1.3-0.1-2.3-0.2-3.6-0.1c-0.5,0-2.2,0.2-4.2,1c-1.2,0.4-2.5,1.1-6.6,4.3c-2.1,1.6-3.2,2.6-4.9,4.1
		c-1.2,1.1-4.2,3.8-7.1,7.5c-1.8,2.3-1.9,2.8-7.6,12.7c-4.4,7.7-4.8,8.1-5.4,10.1c-0.9,3.1-0.5,4.1-1.7,10c-0.8,3.6-1.1,5.4-1.9,7.4
		c-2.3,6.1-6.6,9.8-8.1,11.1c-1.3,1.1-5.7,3.4-14.5,7.9c-4.5,2.3-6,3-8.4,4.8c-2.4,1.7-2.9,2.4-4.9,3.3c-1.9,0.9-3.9,1.2-7.7,1.9
		c-4,0.7-4.5,0.5-5.8,1.3c-0.5,0.3-3,1.8-3.8,4.7c-0.5,1.8,0,3.4,0.4,4.9c0.6,2,1.1,2.2,1.6,3.9c0.7,2.5,0.2,4.7,0,5.5
		c-0.7,3-2.4,4.8-3.9,6.6c-1.5,1.8-3.3,4.8-6.8,10.7c-3.8,6.4-5.8,9.7-7.4,13.5c-1,2.4-2.1,5.1-4.9,6.9c-1.9,1.3-4.1,1.6-4.6,1.7
		c-0.7,0.1-1.3,0.2-5.4-0.2c-4.2-0.4-4.8-0.5-6.3-0.4c-0.8,0.1-2.3,0.2-4,0.8c-1.6,0.5-2.3,1.1-6.5,4c-3.8,2.6-3.8,2.6-4.1,2.9
		c-0.6,0.6-2.8,2.7-4.3,6c-1.2,2.7-0.7,3.2-2.2,6.2c-0.6,1.2-1.3,2.3-2,3.5c-1.1,1.7-2,3.1-2.7,4"/>
	<path id="route16" class="st15" d="M482.8,601.5c-1.4,1.5-3.5,3.5-6.1,5.9c-3.7,3.3-5.5,5-7.1,5.8c-1.5,0.8-4.5,1.5-10.5,2.9
		c-1.5,0.3-2.4,0.6-4.4,1c-2.2,0.5-4.1,1-6.5,1.8s-3.6,1.2-5.1,2c-2.2,1.2-2,1.5-3.3,2c-1.8,0.7-2.7,0.1-7.5-0.5
		c-3.6-0.5-3.2-0.2-6.6-0.7c-2.7-0.4-3.2-0.6-4.5-0.4c-2.5,0.4-4.2,1.9-5,2.6c-2.8,2.5-2,4-4.8,7.2c-1.1,1.2-2.8,3.1-5.6,3.8
		c-2.5,0.7-4.6,0.2-5.3,0c-2-0.5-3-1.3-5.4-2.9c-2.1-1.4-4.3-2.5-6.4-3.9c-5.4-3.4-9.4-5.9-14-8.7c-5.4-3.2-6.7-3.8-8.7-3.8
		c-3.5-0.1-6.3,1.5-7.8,2.4c-2.5,1.4-4,3-7,6.5c-4,4.6-6.8,8.3-7.7,9.4c-4,5.1-3.5,4.1-11.1,13.3c-6.5,8-5.6,7.2-9.8,12.2
		c-5.7,6.8-8.6,10.1-11.9,13.2c-2.2,2.1-4.2,4.5-6.5,6.6c-1.1,1-2.2,1.9-3.1,3.6c-0.3,0.7-1.1,2.4-0.9,5.3c0.3,3.5,1.6,4.8,3.7,9.6
		c2.1,4.7,3.1,7,2.9,9.4c-0.1,1.5-0.6,2.8-4.9,8.7c-4.2,5.9-5.1,6.4-8.4,11.1c-4.5,6.2-3.9,6.5-6.6,9.4c-3.2,3.3-4.5,3.6-6.1,6.5
		c-0.6,1.1-2.5,4.6-1.9,8.7c0.4,3,1.6,3.4,1.8,6.6c0.1,1.5,0.2,3.9-1.2,6c-0.7,1-1.6,1.5-7.7,3.9c-4.4,1.8-5.2,2-6.2,3
		c-2.2,2.3-2.3,5.4-2.3,5.7c-0.1,3.3,2.9,7.1,8.8,14.5c1.1,1.4,2.4,2.9,3.3,5.3c0.4,1,1.4,3.6,1.2,6.8c0,0.7-0.2,1.8-2.5,7
		c-3.1,7.1-3.7,6.9-4.3,9.6c-0.2,0.9-0.5,2.4-1.5,4.1c-0.7,1.1-1.1,1.4-1.9,2.6c-0.8,1.1-1,1.9-1.9,4.2c-2,5.1-2.2,4.9-2.3,6
		c-0.1,1,0.2,2.5,0.8,5.3c1.1,4.9,1.5,5,1.5,6.6c0,1.1-0.7,3.1-2,7.2c-1.8,5.2-2.7,7.8-3.1,8.8c-0.7,1.7-1.1,2.5-1.3,3.9
		c-0.3,2.1,0.4,2.8-0.1,4.9c-0.2,0.9-0.5,2.4-1.6,3.6c-1,1-1.5,0.6-3,1.8c-0.6,0.4-2,1.5-2.8,3.2c-0.2,0.4-0.4,1.5-0.9,3.8
		c-0.4,1.9-0.6,2.8-0.6,2.9c-0.3,2.2,0.1,3.9,0.5,5.6c1.7,6.9,1.9,6.4,2.1,8c0.8,5.7-1.6,11.2-3.6,13.6c-0.3,0.3-1.4,1.6-2.3,2.6
		c-1.1,1.2-2,2.2-2.6,2.9"/>
	<path id="route15_00000008851680304967326550000004330528065409196195_" class="st16" d="M848.7,596.3c-0.7-0.7-1.7-1.7-3-3
		c-1.6-1.5-2.1-1.8-4.9-4.4c-2.2-2-3.4-3-4.6-4.2c-1.7-1.6-1.8-1.8-2.8-2.7c-1.2-1-2.5-2.1-4.3-2.8c-1.9-0.8-3.5-0.9-4.9-1
		c-4.3-0.2-7.3,0.3-11.6,0.7c-5,0.5-2.3,0.1-11.8,0.8c-1,0.1-3.6,0.3-6.7-0.2c-1.8-0.3-3-0.7-3.4-0.9c-1.9-0.6-2.4-1.1-4.1-2
		c-1.3-0.6-2.9-1.1-6.2-2c-2.9-0.8-4.4-1.3-5.4-1.3c-3.1-0.2-5.4,0.7-6,1c-2.1,0.9-3.5,2-4.3,2.7c-1,0.9-1,1.1-3.1,3.4
		c-1.3,1.4-2.2,2.4-3.4,3.6c-2.5,2.5-3.7,3.8-4.3,4.2c-2.1,1.4-4,1.8-7.4,2.5c-3.8,0.8-5.1,0.4-5.7,0.2c-0.4-0.1-1.4-0.5-2.5-1.1
		c-1.2-0.6-1.3-0.8-2.3-1.3c-0.6-0.3-1.6-0.7-2.9-0.8c-0.3,0-1.5-0.1-3.4,0.5c-2,0.6-2.4,1.3-3.9,2c-1,0.5-2.8,0.7-6.5,1.1
		c-4.7,0.5-5.6,0.4-6.2,0.4c-1.9-0.3-3.2-0.8-4.6-1.4c-3.1-1.3-3.6-2.2-8.2-4.9c-2-1.1-1.9-1-4.6-2.6c-2.6-1.5-4.4-2.6-5.4-3.2
		c-5.2-3.3-10.2-6.2-11.6-7c-5.7-3.3-7.6-4.2-11.2-6.4c-1.7-1.1-2.4-1.6-4-2.5c-2-1.1-2.8-1.3-4-2.3c-1-0.8-1.3-1.3-2.6-2.8
		c-0.6-0.8-2.6-3-4-4.3c-0.7-0.6-1.3-1.1-6.8-3.8c-4.8-2.4-5.5-2.6-8-4c-2.6-1.5-3.9-2.2-5-3.1c-1.1-0.9-1.7-1.7-3.2-2.4
		c-1.1-0.5-2.1-0.8-3-1.1c-1.5-0.4-2-0.4-3.4-0.8c-1.4-0.4-2.3-0.7-3.6-1.3c-3.5-1.5-7.1-3-9.3-3.9c-2.6-1.1-4.1-1.7-6.1-2.4
		c-1.1-0.4-1.8-0.6-2.9-0.9c-3.8-1-4.5-0.5-7.2-1.3c-0.3-0.1-1.5-0.7-3.9-1.8c-2-1-3.7-1.8-4.8-2.4c-1.2-0.6-2.5-1.2-3.9-2"/>
	<path id="route11_00000057136417462945503680000018192973535272291500_" class="st17" d="M412.1,708.2c-4.2,1.1-4.7,1.5-6.5,1.5
		c-2.2,0.1-3.8-0.4-4.1-0.5c-1.7-0.5-2.7-1.2-4.6-2.5c-1.8-1.2-3.6-2.2-5.4-3.3c-6.3-3.9-5.8-3.5-10.1-6.2c-2-1.3-4-2.5-6-3.8
		c-2.7-1.7-4-2.5-6-2.8c-0.5-0.1-2.1-0.3-4.2,0c-0.4,0.1-1.9,0.4-3.8,1.3c-3.3,1.6-3.2,2.9-5.9,4c-0.7,0.3-2.4,1-4.7,0.8
		c-1.9-0.2-3.4-1-5.6-2.1c-0.1-0.1-1-0.6-2.8-1.6c-9.1-5.4-6.1-3.7-6.2-3.8c-0.3-0.2-0.8-0.4-1.4-0.9c-1-0.8-1.6-1.6-1.9-2.1
		c-1.5-2.2-3.3-6.2-3.7-7.1c-1.2-2.6-2.6-4.2-5.4-7.4c-2.4-2.7-2.2-1.9-6.6-6.5c-1.3-1.4-2.1-2.2-3.4-3.2c-0.3-0.2-1.6-1-4.4-2.6
		c-1.4-0.8-2.4-1.4-3.5-2.4c-0.7-0.6-0.5-0.6-1.4-1.3c-1.8-1.6-2.4-1.8-3.6-2.9c-0.9-0.8-0.6-0.8-1.8-2.2c-1.4-1.6-2.6-2.6-4.4-4
		c-1.8-1.5-2.3-1.7-2.6-1.8c-1.1-0.5-1.7-0.3-3.4-0.6c-1.3-0.2-2.8-0.4-4.1-1c-2.1-0.9-3.4-2.4-4.1-3.2c-0.9-1-1.5-2.5-2.8-5.4
		c-1.6-3.5-1.6-3.9-2.5-5.4c-0.3-0.5-1.1-1.4-2.8-3.3c-1.5-1.8-2.4-2.7-3.6-4c-1.6-1.7-1.8-1.7-2.8-2.9c-1.1-1.3-1.9-2.5-2.4-3.2
		c-1.8-2.6-1.5-2.7-2.3-3.5c-1.8-1.6-4.2-1.8-4.8-1.9c-2-0.2-2.6,0.5-4.4,0c-1.4-0.3-2.3-1-2.8-1.4c-1.4-1-1.8-1.9-4-5.4
		c-2.3-3.7-2.5-3.7-3.5-5.5c-1.2-2.3-0.9-2.3-1.9-4.1c-1.8-3.3-2.7-3.2-3.8-5.8c-0.6-1.4-0.8-2.6-1.2-5c-0.5-2.8-0.7-5.4-0.7-5.4
		c-0.1-1-0.1-1.5-0.3-2.4c-0.1-0.4-0.4-1.7-1.4-3.3c-1-1.7-1.4-1.7-2.1-2.9c-0.7-1.3-0.6-2-0.9-4.2c-0.2-1-0.1-0.4-1.7-6.9
		c-0.4-1.8-0.8-3.3-1.2-5.2c-0.6-2.8-0.7-3.2-1.3-5.8c-0.5-2-0.5-2.1-1.9-8.2c-1.5-6.4-1.4-6.1-1.5-6.4c-0.8-2.6-1.3-4-1.5-6.4
		c0-0.4-0.1-1.7,0-3.3c0-0.6,0.2-2.4,0.8-4.3c0.6-2,1.3-3,3.8-6.7c1.1-1.6,2.1-3.2,3.2-4.8c2-3,2.4-3.8,5.9-9.7
		c1.5-2.5,3.8-6.2,8.5-13.7c2.3-3.6,3.4-5.5,3.9-6.1c1.9-2.7,3-3.9,4.3-6.5c0.4-0.8,0.8-1.8,1.6-4.2c1.2-3.7,1.6-5.6,3-10.7
		c2-7.5,2.3-7.8,2.7-10.4c0.1-0.7,0.4-2.4,0.9-4.7c0.2-0.8,0.2-0.8,1.1-3.9c0.8-2.9,1.1-4,1.7-5.8c0.5-1.4,0.7-2.1,1.1-2.7
		c0.3-0.5,1.5-2.2,3.7-3c0.8-0.3,1.5-0.4,2.8-0.5c1.6-0.1,2,0,4.2-0.1c1.1-0.1,1.1-0.1,2.2-0.2c1.8-0.1,3.1,0,3.6,0
		c3.8,0.1,6.4-0.6,12.2-0.7c0.7,0,1.3,0,2.2,0.1c1.2,0.2,1.8,0.4,4.4,1.3c2.4,0.8,2.7,0.9,3,0.9c1.5,0.2,2.8,0,3.6-0.2
		c0.6-0.2,0.7-0.3,2-0.7c1.5-0.6,3.2-1.3,5.4-1.7c1-0.2,1-0.2,2.7-0.5c0.9-0.2,1.5-0.3,2.6-0.6c4.9-1.2,4.8-1.1,5.4-1.3
		c1-0.4,2.4-1,3.8-2.3c1.5-1.5,2.2-3.2,2.5-4.2c0.3-0.9,0.5-1.9,0.8-4c0.4-2.5,0.3-3,0.7-4.3c0.1-0.3,0.4-1.5,1.4-3.3
		c1.2-2.2,2-2.9,5.3-6.7c3.1-3.6,3.6-4.5,5.3-5.1c1.3-0.5,2.4-0.5,3.8-0.5c2.1,0,3.9,0.5,7.3,1.4c2.5,0.6,3.1,0.9,4.4,0.9
		c0.8,0,2.3-0.1,3.7-0.9c1.1-0.7,1.9-1.9,3.5-4.3c0.7-1.1,0.9-1.4,1.8-2.9c1.5-2.2,1.8-2.5,2.1-2.8c1.5-1.1,3.3-1.1,3.9-1
		c3.1,0.1,3.8,2.2,7.6,3.5c0.5,0.2,0.1,0,4.7,0.7c5.9,0.9,8.9,1.4,9.4,1.5c0.7,0.1,1.7,0.3,3,0.4c1.8,0.1,3.1-0.1,3.9-0.2
		c0,0,3.7-0.5,7.6-0.9c3-0.3,3.9-0.2,7.2-0.7c2.1-0.3,2.7-0.4,3.4-0.6c1.9-0.6,3.3-1.4,5-2.5c2.4-1.5,2.2-1.7,3.9-2.7
		c0.7-0.4,2.6-1.4,4.9-2c1.7-0.4,2.1-0.2,5.9-0.2c4.8-0.1,5.9-0.5,8.9,0c2,0.3,3,0.7,3.6,1c1.4,0.7,1.7,1.2,3.5,2.3
		c1,0.7,2.4,1.5,4,2.1c1.2,0.4,2.6,0.5,5.4,0.7c3.4,0.2,3.5,0,5.8,0.2c1.1,0.1,1.8,0.3,2.9,0.2c1.1,0,2.1-0.2,3.5-0.6
		c2.3-0.7,3.1-1,5.9-2c2.4-0.8,3.5-1.2,4.5-1.2c1.7-0.1,3.3,0.3,4.7,0.6c1.7,0.4,1.7,0.6,3.3,0.9c1.6,0.3,2.8,0.4,4.1,0.5
		c1.1,0.1,1.7,0,3.9,0c5.4-0.1,6-0.1,7,0c1.7,0.2,2.8,0.3,4.1,0.8c3,1.2,4.7,3.3,5.8,4.6c0.1,0.2,1.1,1.8,3.2,5
		c1.5,2.4,1.8,2.9,2.5,3.7c1.1,1.3,2,2.5,3.6,3.4c1.7,1,2,0.5,4.6,1.7c1.2,0.5,0.9,0.6,4.1,2.3c2,1.1,2.6,1.4,3.2,1.6
		c0.8,0.3,1,0.4,3.3,1.1c3.8,1.2,4.3,1.4,4.8,1.7c1.4,0.9,2.2,2,2.4,2.4c0.6,0.8,0.9,1.7,1.5,3.4c0.4,1.1,0.6,1.8,0.8,2.7
		c0.1,0.6,0.4,1.9,0.3,3.4c-0.1,2.1-0.8,2.2-1.3,4.9c-0.3,1.4-0.5,2.7-0.2,4.2c0.2,0.9,0.4,1.1,1.4,3.2c1.1,2.3,1.8,3.8,2.3,5.3
		c0.4,1.3,0.6,2.4,0.8,4.5c0.7,5.4,0.3,7.6,1.3,11.9c0.2,1,0.5,2,1.1,3.1c0.8,1.6,1.8,2.7,3.2,4c3.7,3.5,4.3,3.2,6.4,5.4
		c1.8,2,2.8,3.9,3.4,5.1c0.6,1.2,0.8,1.8,2.5,6.8c1.9,5.8,2,5.9,2,6.6c0.4,4.1-1.1,7.5-1.5,8.2c-1.5,3.2-3,3.3-5.2,7.7
		c-0.7,1.3-1.2,2.4-1.5,4c-0.3,1.2-0.9,4.3,0.6,7.4c0.7,1.5,1.6,2.4,3.2,3.9c1.4,1.4,2.7,2.3,6.4,4.6c3.3,2,4.9,3.1,6,3.6
		c3.3,1.7,5.9,2.7,9,5c0.7,0.5,1.7,1.3,2.3,2.7c0.5,1.1,0.6,2.2,0.6,3.4c-0.1,1.4-0.3,3.6-3.5,10c-1.2,2.4-1.8,3.6-2.5,4.7
		c-2.3,3.6-3.6,3.9-4.5,6.4s-0.5,4.9-0.4,5.6c0.3,2.1,0.9,2.5,1.2,5.1c0.2,1.8,0.2,3.2,0.1,4.1c-0.1,2.9-0.7,3.7-1,6.2
		c-0.1,0.8,0,0.6,0.2,6.9c0.1,3.9,0.2,5.4,0.5,7.7c0.2,1.1,0.3,2,0.5,3.1c1,4.2,2.1,4.6,2.4,7c0,0.3,0.4,4-1.9,6.4
		c-0.6,0.6-2.1,1.6-5,3.5c-1.1,0.7-1.6,1-2.2,1.6c-1.1,1-1.5,1.9-2.5,3.4c-1,1.6-1.7,2.9-2.5,3.8c-1.4,1.8-2.4,1.8-6.3,4.2
		c-3.6,2.2-3,2.3-6.5,4.4c-2.5,1.5-2.7,1.4-6.1,3.4c-2.6,1.5-3.9,2.3-5.3,3.5c-1.6,1.4-2.6,2.8-3.9,4.4c-2.3,3-2.2,3.8-3.8,5.4
		c-1.5,1.6-3,2.4-4.6,3.2c-5.7,3-10.9,5.2-12,5.7c-6.1,2.6-4,2.2-13.6,6.6c-3.2,1.5-6.4,2.9-9.5,5.5c-2.2,1.8-4,4-4.1,4.1
		c-1.1,1.3-1.9,2.4-2.5,3.4c-2.6,4.1-4.2,8-7.7,15.5c-1.9,4-2.5,5.3-3.6,6.9c-1.1,1.7-2.3,3-4.5,5.6c-4,4.7-5.2,5.4-6.2,5.8
		c-2,0.8-3.9,0.8-4.6,0.8c-1.9,0-2.5-0.5-6-1.4c-2.9-0.8-2.4-0.4-6.2-1.3c-3.1-0.7-4-1.1-6.3-1.4c-1.1-0.1-2-0.2-3.6-0.2
		c-4-0.1-7.1-0.2-11.6,0c-2.4,0.1-4.9,0.1-7.3,0.2c-0.4,0-1.3,0.1-2.4,0s-1.5-0.2-2.4-0.3c-1.3-0.1-2.2,0-3,0
		c-1.9,0.2-2.9,0.6-5.5,1.3C414.7,707.6,415.3,707.3,412.1,708.2z"/>
	<path id="route9_00000162343818643046224060000014655411590681295285_" class="st18" d="M404.1,142.3c0,0.3,0,0.8,0,1.4
		c0,3.1,0,4.6-0.1,7c0,1.7-0.1,2.5,0.1,3.6c0.1,0.5,0.3,2.1,1.1,3.7c1.1,2.2,2.7,3.5,3.8,4.4c2.6,2.1,5,4.6,7.6,6.7
		c3.1,2.6,6,5.4,9.3,7.9c2.4,1.8,3.7,2.6,4.9,4.6c1.1,1.9,1.6,3.7,2.2,6c0.4,1.8,0.4,2,1,5.8c0.8,4.5,1,5,1.3,7.9
		c0.4,3.7,0.2,5,0,5.9c-0.3,1.5-0.9,2.6-1.7,4.2c-2,3.6-2.9,5.4-4.3,7.5c-3.1,4.6-2,3.9-7.6,13.4c-0.7,1.1-3.7,6.3-6.5,10.8
		c-0.7,1.1-1.4,2.2-2.7,4.4c-1.7,2.7-2,3.3-2.3,4c-0.9,1.9-1.3,3.4-1.8,5c-0.8,3.1-0.6,3.3-1.3,5.9c-0.4,1.5-1,3.2-2.1,5.1
		c-1.2,2-2.5,3.2-4.2,4.8c-2.1,2-2.7,2.1-6.8,5.5c-1.6,1.3-2.3,2-2.6,2.3c-1.4,1.6-2,2.9-4.2,9.3c-1.7,5-1.9,5.7-2,6.7
		c-0.3,2-0.2,3.3,0.1,6.5c0.6,8.9,0.2,8.1,0.6,11.1c0.1,1,0.5,3.6,2.3,10.2c0.4,1.3,1.3,4.8,3.9,13c1.7,5.4,4.5,13.7,5.7,19.7
		c0.3,1.3,0.5,2.5,0.5,2.5c0.2,1,0.5,3.2,1,7.9c0.4,4.1,0.4,5.1,1,7.1c0.3,1,0.6,1.7,1,2.6c1.8,3.9,2.6,5.8,4.1,8.7
		c1.5,2.8,3.6,6.8,5.6,11.8c1.5,3.6,3.4,7.1,5,10.7c0.2,0.5,0.7,1.5,1.7,2.5c1.3,1.3,2.5,1.7,4.5,2.6c1.3,0.6-2.4-1,4.8,2.4
		c9.3,4.4,9.7,4.3,11.7,5.7c2.4,1.7,4.5,3.2,5.4,6c0.8,2.3,0.6,4.7,0.5,5.4c-0.2,2.1-0.9,3.7-1.3,4.7c-0.6,1.3-1.2,2.4-1.9,3.4
		c-1.6,2.3-3,3.6-6.4,6.8c-5.2,4.9-5.8,5.6-6.3,6.8c-1,2.2-1.1,4.2-1.3,6c-0.2,2.2,0.1,3.5,0.5,7.4c0.3,2.9,0.6,5.8,0.9,8.7
		c0.3,3.3,0.8,6.6,1,9.9c0.2,2.6,0.2,3.7,0.7,5.5c0.6,2.2,1.6,3.9,2.5,5.4c1,1.8,1.3,1.9,3.5,5.1c1.2,1.8,2.3,3.4,4.5,6.7
		c2.3,3.5,1.9,3,3.2,5c2.9,4.3,3.4,4.7,4.2,6.6c0.5,1,0.9,2.6,1.8,5.7c0.2,0.8,1.1,3.9,2.4,9.4c1,4,0.8,3.5,1.2,5
		c0.9,3.2,1.4,4.3,1.7,6.8c0.1,1,0.2,1.9,0.3,3.8c0.1,3,0.2,4.5,0,5.8c-0.2,1.2-0.9,2.9-2.5,6.4c-0.8,1.9-1.6,3.8-2.4,5.7
		c-0.5,1.1-0.9,1.9-1,3.1c-0.2,1.3,0.1,1.7,0.2,3.6c0.1,1.9-0.1,1.9-0.2,4.8c0,2.4,0.1,2.4,0.1,4.2c-0.1,2.1-0.4,3.6-0.5,4
		c-0.2,1.2-0.5,2.3-1.1,3.6c-0.7,1.4-1.3,2.1-2.3,3.3c0,0-2,2.5-3.3,5.1c-1.2,2.5-1.1,5.3-0.8,11.1c0.2,5.7,1,7.3,1.5,8
		c0.7,1.2,1.6,2.4,2.7,3.7c2.1,2.5,2.6,2.7,3.3,4.2c1,2,1.1,3.8,1.1,4.9c0.1,2.2-0.4,3.8-1,5.9c-0.8,2.7-1.1,4-2.3,5.4
		c-0.6,0.8-1.6,1.6-3.7,3.3c-1.8,1.5-1.9,1.4-2.6,2.1c-0.9,1-1.1,1.5-2.7,4c-1.7,2.8-1.7,2.4-2.4,3.6c-1.1,1.9-1.6,3.6-2,4.7
		c-0.5,1.5-1,3-1.3,5c-0.3,1.9,0,2.1-0.2,5.4c-0.1,2.6-0.2,3.9-0.5,4.9c-0.5,1.6-1.4,3-3.2,5.7c-0.5,0.8-0.9,1.4-1.9,2.8
		c-2,2.8-3.7,5.2-5.5,7.9c-2.3,3.3-2.7,4.1-3,5.3c-0.4,1.6-0.2,2.6,0,4.8c0.4,4.6,0.2,9,0,13c-0.1,2-0.2,3.4,0.3,5.3
		c0.4,1.4,0.9,2.6,1.7,4.3c0.9,2,1.4,3,2.3,4.1c0.6,0.7,1.6,1.5,3.6,3.1c1.9,1.5,2.4,1.8,4,3.1c1.7,1.4,2.6,2.1,3.1,2.7
		c0.3,0.4,0.7,1,1.9,4.4c1.4,4,1.9,6.1,2.1,7c0.4,1.9,0.4,2.8,0.5,3.4c0,1.8-0.3,3.2-0.5,3.8c-2.8,10.6-4.2,16-4.6,17.1
		c-1.2,3.6-0.1,0.9-4.7,17.6c-2,7.3-3.8,14.7-6,22c-0.6,2.1-1,4.2-1.6,6.3c-0.3,1.2-0.5,2-0.5,3.2c0,0.7,0.1,1.3,0.7,4.2
		s0.6,2.8,0.7,3.4c0.2,1.3,0.2,2.4,0,4.7c-0.2,3.9-0.4,5.8-0.7,7.6c-0.4,2.6-0.7,2.7-1.6,6.7c-0.9,3.8-1.4,6.8-2,10.9
		c-0.3,1.6-0.6,3.8-1.2,7.2c-0.7,4.2-1,5.7-2.2,7.3c-0.3,0.4-1.5,2.1-3.9,3.2c-2.9,1.4-4.1,0.4-7.9,1.9c-1.2,0.5-2.7,1-4.1,2.3
		c-1.6,1.4-2.4,3-3.2,4.4c-0.3,0.6-0.7,1.6-1.6,3.7c-0.6,1.4-1,2.5-1.4,3.3"/>
	<path id="route6_00000169524050048497420570000003795170759398673071_" class="st19" d="M500,166.3c0,0.5-0.1,1.3-0.1,2.2
		c-0.2,3.9-0.4,5.2-0.4,7.7c0,1.8,0.2,2.7,0.5,3.6c0.3,1.1,0.8,1.9,1.1,2.5c2,3.6,3,5.4,3.7,7c0.9,2,1.4,3.1,1.7,4.9
		c0.3,2.5-0.2,4.5-0.5,5.7c-1.2,4.4-2.2,8.7-3.5,13.1c-1.8,6.3-2.7,9.4-3.1,11.4c-0.2,0.9-0.6,3.1-1.5,6c-0.6,1.9-1.1,3.3-2.2,5
		c-1.1,1.8-2.3,3-3.7,4.4c-0.4,0.4-0.8,0.8-2.8,2.5c-3.2,2.9-4.9,4.3-6.6,5.7c-2.4,1.9-2.8,2.2-3.8,3.3c-0.8,0.8-1,1.3-2.7,3.5
		c-2.8,3.8-2.6,3.3-3.3,4.3c-0.9,1.4-1.5,3-2.8,6.3c-1.5,3.7-1.6,4.6-1.6,5.2c-0.1,1.3,0.1,1.7,0.3,4.2c0.1,0.9,0.2,2.7,0.1,4.6
		c-0.2,4-1.2,4.5-1.2,8.4c0,2.2,0.2,3.6,0.3,4c0.3,1.4,0.7,2.2,1.4,4c1.4,3.5,1,2.9,2.2,5.7c1.7,4.1,2.2,4.5,2.5,6.4
		c0.2,1,0.1,2,0.1,4.1c0,2.6-0.2,2.9-0.3,5.5c-0.1,2.9,0.2,3,0,5.3c-0.1,1.8-0.3,2.7-0.6,5.2c-0.4,2.5-0.6,5-1,7.5
		c-0.2,1.2-1.1,8.3-1.7,13.1c-0.3,2.9-0.7,7.7-1.4,17.4c-0.9,11.7-0.9,12.1-1.2,14.7c-0.7,5.3-1.2,6.4-1.8,12.1
		c-0.3,2.9-0.7,5.9-1,8.8c-0.2,2.6-0.2,4-0.9,6.1c-0.3,0.8-0.5,1.5-2.6,5.2c-3,5.3-3.9,6.4-4.1,8.7c-0.1,0.8-0.2,2.1,0.1,3.6
		c0.3,1.7,1,3.3,4.1,7.1c3.9,4.9,5.2,5.2,6.2,8.1c0.6,1.8,0.7,3.3,0.8,4.6c0.1,1.5,0.3,4.3-0.8,7.4c-0.4,1.2-0.4,0.7-2.8,5.1
		c-2.2,4-2.6,5.2-2.8,6.7c-0.1,1.4,0,2.5,0.2,3.7c0.4,2.3,0.9,3.6,1.6,5.5c1,2.8,0.4,2,2.3,8.5c1,3.5,1.7,5.5,2,6.5
		c0.9,2.6,0.9,2.3,1,2.9c0.1,0.3,1.2,5.8-2.2,9.6c-2.6,2.8-6.3,3.3-7.5,3.4c-0.9,0.1-1.4,0.1-4.9,0.3c-2.1,0.2-3.1,0.2-3.5,0.3
		c-1.1,0.2-4,0.9-6,3.3c-0.6,0.8-0.9,1.5-1.5,2.9c-0.5,1.2-1.3,3.4-2.9,10.3c-0.2,1-0.5,2-1.2,3.2c-0.6,0.9-1.3,1.5-2.7,2.6
		c-4,2.9-4.8,2.9-6.2,4.6c-0.6,0.7-1.4,1.9-1.8,3.4c-0.6,1.9-0.4,3.5-0.2,5c0.8,5.9,1.3,8.7,1.7,12.5c0.2,2.6,0.4,3.9,0.2,5.1
		c-0.5,2.7-1.6,3.1-5,8.3c-2.2,3.4-3.3,5.6-5.8,7.6c-0.9,0.8-1.8,1.2-2.8,1.6c-1.4,0.5-2.3,0.3-4.1,0.4c-1.7,0.1-3.4,0.2-4.8,0.7
		c-0.5,0.2-1.8,0.7-5.2,4.3c-0.8,0.8-1.1,1.2-4.3,5.1c-3.2,3.9-4,4.9-4.9,6.7c-0.8,1.6-1.3,2.8-1.5,3.6c-0.7,2.1-1,3.6-1.6,7.2
		c-1,5.8-0.9,4.8-1.1,6.1c-0.4,3.5-0.7,8.5-0.9,11c0,0.7-0.1,2.3-1,4.1c-0.4,0.9-0.8,1.4-1.2,2c-1.1,1.7-2.1,3.5-3.2,5.2
		c-1,1.5-2.1,3.4-8.2,13.5c-4.5,7.4-8.9,14.8-13.4,22.2c-3,5-4.9,8.1-6.7,11.1c-1.4,2.4-2.9,4.8-4.3,7.1c-4.7,7.8-4.6,7.6-4.8,7.9
		c-1.8,3-4.7,7.6-8.4,13.2c-3.2,4.9-3.5,5.1-5.9,8.7c-3.5,5.6-4.8,8.3-5.6,10.2c-0.9,2.1-0.7,2.1-2.3,6.4c-1.4,3.7-1.9,4.7-3.8,9.7
		c-4.2,10.6-4,11-5.9,14.7c-2.1,3.9-4.3,7.2-4.3,7.2c-1.6,2.4-2.3,3.1-4.2,6.1c-0.7,1.1-1.3,2-2.2,3.2c-1.1,1.4-1.4,1.6-1.9,2.4
		c-0.3,0.4-1.3,2.1-1.4,4c-0.1,1.6,0.5,2,2.2,5.6c1.9,4.1,1.7,4.9,3.1,6.3c0.2,0.2,1.2,0.9,3.2,2.4c3.1,2.3,3,2.1,3.4,2.5
		c0.3,0.3,0.8,0.7,3.6,4.6c1.6,2.2,1.8,2.5,2.5,3.3s1.7,2,2.8,3c2.2,1.9,4.4,2.7,5.6,3.1c7.3,2.5,5.2,2.6,15,5.8
		c0,0,7.8,2.5,14.8,5.6c0.3,0.1,1,0.4,1.7,0.9c1.2,0.8,1.9,1.6,2.1,1.8c0.9,1,3,3,7.5,6.9"/>
	<path id="route8_00000027574049494415681680000001319460408134551966_" class="st20" d="M449.8,504.6c0.8-0.1,1.9-0.1,3.3-0.2
		c2.5-0.2,4.3-0.3,5-0.3c3.1-0.2,7.2-0.4,10.6-0.7c7.6-0.6,7.2-0.9,10-0.8c3,0.1,5.4,0.1,8.3,0.9c1.3,0.4,2.6,0.8,4.9,1.2
		c1.3,0.2,2.9,0.5,4.3,0.5c2.5-0.1,4.1-1.2,8.1-3.7c5.6-3.6,1-0.5,8.9-5.5c5.1-3.2,6-3.9,8.1-4.4c1-0.2,2.7-0.4,6.3-0.8
		c1.1-0.1,3.2-0.3,6.7-0.6c6-0.4,6.6-0.3,8.5-0.8c1.4-0.3,2-0.5,5.8-1.9c2.9-1,5.8-2,8.8-3c2.5-0.9,7.5-2.6,17.6-6
		c1.5-0.5,3-1,4.6-1.5c7.6-2.6,11.5-3.9,11.9-4c5.7-2,8.4-3,13-4.3c2.1-0.6,3.6-1,5.5-1.3c2.4-0.4,2.7-0.2,6.7-0.7
		c3-0.4,3.3-0.5,4.8-0.5c1.8,0,3.3,0,5,0.8c3.4,1.5,4.9,4.5,5.1,4.9c0.9,2,1,3.9,1,4.8c0.1,2-0.3,2.5-0.1,4.2
		c0.1,0.8,0.4,2.2,1.5,3.7c1.5,1.9,3.5,2.5,4.2,2.7c2,0.6,3.7,0.3,4.8,0.1c4.6-0.9,7.7-2.2,12.1-3.8c2.7-1,5.5-2,9.2-3
		c3-0.8,4-1,6.4-1.9c1.7-0.6,2.8-1.1,5.3-2c2-0.7,3.1-1,4.1-1.1c0.9-0.1,1.8,0,5.5,0.8c1.6,0.4,2.6,0.6,5.4,1.4
		c4.9,1.3,5.1,1.3,6,1.6c3.3,0.9,2.6,0.7,5.4,1.5c2.9,0.8,3.8,1,5.4,1.5c1.7,0.6,2.5,0.9,3.3,1.4c2.4,1.4,2.4,2.6,5,4.4
		c0.8,0.6,1.9,1.3,3.4,1.8c2.3,0.7,3.1,0,6.4,0.6c2.1,0.3,3.6,0.9,4,1.1c0.5,0.2,1.4,0.6,4.5,2.5c3.5,2.2,3.7,2.6,5.4,3.3
		c0.6,0.2,2.2,0.9,4.3,1.2c2,0.3,3.5,0.2,4.8,0.1c0.3,0,1.6-0.1,3.4-0.5c2.1-0.4,2.7-0.8,7.1-2.1c1.7-0.5,1.6-0.5,3.4-1
		c1.9-0.6,3.5-1.1,4.5-1.4"/>
	<path id="route8a_1_" class="st20" d="M344.9,484.5c-0.9,0.5-2.2,1.2-3.9,2c-0.4,0.2-3.5,1.9-7.8,4.5c-2.7,1.7-3.4,2.2-4.2,3.1
		c-0.4,0.6-1.5,2-1.8,4c-0.1,1.2,0,2.2,0.2,3.2s0.3,1,0.7,2.9c0.2,0.9,0.3,1.6,0.5,2.6c0.1,0.9,0.3,1.9,0.3,2.7
		c-0.1,2.5-2.2,4.8-4.1,6c-1.9,1.1-3.7,1.2-4.4,1.2c-1.9,0.1-2.9-0.5-6.8-1.9c-2.8-1-1.3-0.4-7.3-2.5c-4.4-1.5-4.8-1.8-6.3-2
		c-1.8-0.3-4-0.6-6.3,0.4c-3,1.2-4.6,3.7-5.2,4.7c-0.5,0.9-0.4,0.9-2.5,6.1c-1.2,2.9-1.1,2.7-1.4,3.5c-0.8,2.2-1.5,4.3-1.4,6.8
		c0,2.3,0.7,4,1.4,5.8c0.9,2.3,1.2,2.1,3.1,5.9c1.6,3.2,1.6,4,2.9,5.1c1.7,1.5,3.7,1.9,3.9,1.9c2,0.4,2.8-0.3,5.2,0.2
		c0.5,0.1,1.5,0.3,2.6,0.9c1,0.6,1.4,1,3.1,2.4c0,0,1,0.9,2.9,2.4c1.5,1.2,2,1.5,3.8,2.9c3,2.2,4.4,3.3,5.6,4.5
		c1.5,1.6,2.5,2.6,3.1,4.4c0.1,0.3,0.8,2.4,0.2,4.8c-0.8,3.3-3.2,4.4-9.2,9.4c-2.9,2.5-5,4.5-6.3,5.7c-2.9,2.7-3.2,3.2-8.4,8.6
		c-2.7,2.8-4.6,4.6-6,5.9c-2.9,2.9-4.4,4.3-6,5.7c-4,3.5-3.9,2.8-5.7,4.7c-2.7,2.9-3.3,5-5.8,6.5c-0.4,0.2-1.3,0.8-2.5,1.7
		c-0.9,0.7-1.5,1.3-2.1,1.9c-1.6,1.6-1.9,1.7-3.7,3.4c-2.6,2.4-4.8,4.7-5.9,5.9c-3.4,3.5-5.7,6.3-9.2,10.6c-3.5,4.2-5.2,6.3-6.4,7.8
		c-2.4,3.2-3.6,5.1-6.3,7.5c-0.8,0.7-2.2,2-4.4,3.4c-1.5,1-3.1,1.8-6.2,3.3c-2,1-2.6,1.3-3.9,2c-2.6,1.5-3.5,2.5-3.9,3
		c-0.5,0.6-0.4,0.5-1.8,2.6c-0.4,0.5-1.6,2.3-3,4.2c-1.3,1.7-1.4,1.6-2.2,2.8c-2.2,2.9-2.3,3.9-3.6,5.8c-0.6,0.8-2.3,3.2-5.2,4.6
		c-1.9,0.9-4.8,1-10.6,1.2c-2.9,0.1-5.6,0-6.1,0c-4.9,0-5.7-0.2-7.9,0.1s-3.9,0.8-6,1.4c-3,0.9-2.9,1.2-6,2.1
		c-2.3,0.7-3,0.7-4.4,1.5c-0.5,0.3-1.9,1.1-3.3,2.5c-1.5,1.6-2.3,3.1-3,4.6c-2.6,5.4,0-0.5-4,8c-2.6,5.6-3.2,6.9-4.9,8.1
		c-0.6,0.4-2.3,1.5-4.5,1.3c-2.4-0.2-2.8-1.9-6.4-3.6c-1.6-0.7-3.1-1.5-5.2-1.5c-1.6,0-3.2,0.7-6.3,2.1c-2.7,1.2-4,1.8-5.6,3
		c-0.9,0.7-1.4,1.2-4.2,4.2c-2.5,2.7-4.3,4.7-5.4,5.9c-2.8,3.1-2.6,2.7-5.4,5.8c-3.7,4-5.6,6.1-6,6.5c-1.5,1.8-2.7,3.3-4.8,4.7
		c-1.8,1.2-3,1.5-3.9,1.6c-1.1,0.1-2.1-0.1-3-0.3c-1.6-0.3-2-0.6-3.1-0.6s-2,0.2-2.7,0.4c-5.1,1.5-4.5,0.9-10.3,2.8
		c-1.1,0.4-1.6,0.5-2.4,0.7c-2.1,0.5-2.9,0.3-4.8,0.6c-2,0.3-3.6,0.9-4.5,1.2c-1.6,0.6-2.7,1.2-4.4,2.1c-1.6,0.9-2.5,1.3-3.4,2
		c-1.1,0.8-1.3,1.2-3.2,3.1c-2.2,2.2-3.3,3.3-4.3,3.8c-0.5,0.2-0.5,0.2-4.5,1c-3.4,0.7-3.6,0.8-4,0.9c-1.7,0.7-1.7,1.3-4,2.6
		c-1,0.6-1.8,1-3.6,1.8c-3.4,1.5-3.8,1.5-5.3,2.4c-1.3,0.8-2.1,1.6-3.4,2.8c-1.8,1.7-3.1,2.9-4,4.8c-0.7,1.4-0.9,2.4-1.2,4.2
		c-0.4,2.4-0.2,3.2-0.4,7.5c-0.1,2.8-0.2,4.3-0.3,5.8c-0.3,2.8-0.6,4.4,0.2,6.4c0.3,0.9,0.7,1.4,1.1,2.1c0.9,1.4,1.7,2,4.1,4.4
		c0.7,0.7,1.3,1.3,1.7,1.7"/>
	<path id="route8C" class="st21" d="M344.9,484.5c2.1-1.6,3.8-2,5-2c0.3,0,0.3,0,4.6,0.4c1.3,0.1,2.3,0.2,3.5,0.3
		c2.8,0.3,2.6,0.2,3.3,0.3c2.6,0.3,3,0.8,5.2,1.1c2.1,0.3,3.8,0.2,4.7,0.1c1.6-0.1,3-0.6,6-1.4c3.2-0.9,4.4-1.4,6.7-1.4
		c0.5,0,1.3,0,2.3,0.1c3.9,0.6,6.5,3.2,7.5,4.3c1.2,1.3,2.4,3.2,4.7,7.2c2,3.3,2.3,4.2,3.6,5.2c2.5,1.9,5.4,1.9,5.9,1.9
		c1.6,0,3.1-0.6,6.2-1.7c2.2-0.8,2.8-1.1,3.6-1.3c0.3-0.1,0.5-0.1,0.8-0.1c1.4-0.1,2.5,0.3,4.6,1.1c1,0.4,1.6,0.6,2.2,0.9
		s0.8,0.6,1.5,0.8c0.2,0.1,0.8,0.3,1.6,0.5c2,0.4,4,0.1,4.7,0c1.5-0.2,2-0.5,3.2-0.4c0.7,0.1,1.2,0.2,1.5,0.3c1.5,0.4,2.4,1,3.3,1.5
		c0.8,0.4,2.7,1.5,4.8,2.1c0.9,0.2,2.3,0.5,4,0.4"/>
	<path id="route10_00000152254035983706005930000013526634601832567963_" class="st22" d="M608,802.2c-0.1-1.3-0.2-3.4-0.4-6.1
		c-0.7-8.6-1.1-10.4-2-20.5c-0.6-7-0.5-7-0.9-9.3c-0.2-1.3-0.6-3.2-0.7-5.8c0-1.6,0-2.9,0.3-4.7c0.2-1,0.9-2.5,2.3-5.6
		c1.1-2.4,1.6-3.6,2.1-4.3c0.3-0.5,0.7-1,1-1.8c0.4-1.1,0.6-2.1,0.6-2.9c0.2-4-0.8-7.8-0.8-7.8c-1.3-4.9-0.2-2.3-2.7-13.1
		c-1.2-5.3-1.8-7.9-1.8-8.1c-0.6-2.2-1-3.6-1.2-5.8c-0.2-2.3-0.4-3.9,0.3-5.7c0.7-2,2-3.2,3.7-4.8c0.8-0.7,1.7-1.5,5.4-3.8
		c4.9-3.1,5.8-3.3,7.8-5.1c2.5-2.2,3.3-3.6,3.7-4.5c0.5-1.2,0.7-2.2,1-4.3c0.5-3.7,0.2-4.7,0.7-8.8c0.2-1.4,0.4-2.5,0.5-3.4
		c0.6-3,1-4.6,1.6-7c0.8-3.3,0.4-2.6,1.6-8.1c0.5-2.5,1-4.4,1.8-8.2c0.6-2.8,0.7-3.6,0.7-4.8c0.1-2.2-0.3-2.1-0.5-5.7
		c-0.1-2.6,0-3.7-0.8-5c-0.2-0.4-0.6-1-1.7-1.9c-1.9-1.6-3.7-2.2-5.8-3c-0.4-0.2-4.7-1.9-9.1-4c-0.8-0.4-1.9-1-3.5-1.6
		c-1.9-0.8-3-1.2-4.4-1.4c-1-0.2-1.4-0.1-5.7,0.5c-5.5,0.7-4.5,0.5-5.8,0.7c-2.8,0.5-3.3,0.8-4.6,0.5c-1-0.2-1.6-0.5-3.8-1.7
		c-2.9-1.6-0.4,0-4.6-2.6c-2.3-1.4-1.9-1-11.4-6.4c-6.5-3.7-9.8-5.6-12.7-7.3c-3.3-2-6.1-3.7-10-5.6c-3-1.5-5.5-2.5-5.5-2.5
		c-1.3-0.5-2.6-1.1-4.3-1.7c-4.4-1.8-4.8-1.8-5.5-2.5c-0.8-0.7-1.5-1.9-2.8-4.1c-1.4-2.4-1.4-2.9-2.4-4.6c-2.1-3.8-2.9-3.2-4.2-5.8
		c-1.3-2.8-0.4-3.4-2-7.8c-0.5-1.5-0.5-1-1.8-4.1c-1.4-3.5-1.6-4.4-2.7-6.6c-0.7-1.4-1.2-2.4-2.1-3.7c-1.2-1.6-1.7-1.7-3.9-4.2
		c-1.6-1.8-1.4-1.8-2.9-3.4c-2-2.2-2.4-2.2-3.3-3.4c-0.4-0.5-2-2.7-2.4-5.4c-0.4-3.5,1.3-6.2,2.6-8.2c1.2-1.9,3-3.5,6.5-6.8
		c3.3-3.1,3.7-3.1,6.4-5.7c2.6-2.5,4.2-4,5.9-6.4c1.6-2.3,2.8-4,3.4-6.6c0.5-2.1,0.4-4.3,0.4-5.5c0-1.5-0.2-2.7-0.3-3.6
		c-0.3-2-0.4-3-0.9-4.2c-0.7-1.8-1.9-2.9-2.4-3.4c-2.3-2.2-4.8-2.7-9.6-4.3c-7.9-2.6-9.2-4.1-13.7-5.4c-0.5-0.1-1.9-0.5-3.4-1.5
		c-1.1-0.6-1.8-1.3-2.7-2.2c-2.4-2.3-3.7-3.4-4.6-4.4c-2.6-2.9-3.9-4.3-4.8-6.5c-1-2.5-0.5-3.3-1.8-6.1c-0.5-1.1-1.2-2.5-2.7-3.9
		c-2.2-2.1-4.7-2.9-5.7-3.1c-0.6-0.2-1.5-0.3-3.3-0.5c-2.9-0.4-4.4-0.6-5.8-0.6c-0.4,0-0.7,0-5,0.8c-4.2,0.7-4.5,0.8-5.3,0.8
		c-1.4,0-3.3,0-5.4-1c-1.4-0.7-2.2-1.4-3.5-2.7c-1.4-1.3-2.2-2.5-4-4.9c-1.4-1.8-2-2.8-2.5-3.8c-0.2-0.5-0.7-1.7-1.2-4.6
		c-0.4-2.5-0.2-2.6-0.5-8c-0.2-2.6-0.3-3.9,0-5.8c0.1-0.4,0.1-0.4,0.6-2.8c0.8-3.7,1.2-5.5,1.3-5.9c0.6-2.6,0.8-3.9,0.9-5
		c0.2-1.8,0.1-3.3,0.1-4.3c-0.1-1.9-0.2-2.6-0.3-4.3c-0.2-2.4-0.1-3.8-0.1-6.1c0-4.9-0.3-4.7-0.3-9.5c-0.1-10.2,0-11.9,0-11.9
		c0-0.8,0-2.5-0.7-4.5c-0.7-1.8-1.7-3-2.2-3.6c-2.5-2.9-4.6-6.2-6.9-9.2c-4-5.1-3.9-5.3-6-7.7c-1.8-2.1-2.4-2.6-4.8-5.2
		c-2.4-2.7-3-3.4-7-8.1c-10.7-12.5-9.6-10.4-10.9-12.4c0,0-2.5-3.7-5.3-5.6c-1.2-0.8-2.5-1.4-2.5-1.4c-1.4-0.7-1.9-0.7-2.8-1.2
		c-0.4-0.2-2.1-1-3.6-2.7c-0.5-0.6-2-2.3-2.5-5c-0.3-1.8,0.1-3.3,0.9-6.2c0.6-2.3,1.4-4.3,2-5.7c1-2.6,1.5-3.4,1.7-5.2
		c0.1-1.3-0.1-2.4-0.2-3.4c-0.3-1.6-0.6-2.4-1.3-4.7c-1-3.2-1.5-4.8-1.9-6.9c-0.3-1.8-0.2-1.6-0.6-4c-0.5-3-0.8-4.4-1.5-6
		c-0.8-1.7-1.7-2.7-3.5-4.6c-1.9-2.1-2.6-2.3-4.6-4.2c-1.1-1.1-2.3-2.5-4.5-5.3c-3.4-4.2-3.6-4.8-5.6-6.8c-0.5-0.6-1.7-1.7-4-3.9
		c-3-2.9-4.7-4.4-6.8-6.9c-1.6-1.9-2-2.6-2.4-3.3c-0.4-0.8-0.7-1.7-1.3-5.4c-0.5-3.3-0.8-5-0.7-6.1c0.1-1.7,0.4-1.5,1.1-5.7
		c0.5-2.7,0.5-3.7,0.5-4.1c0-1.9-0.3-3.3-0.6-4.6c-0.9-4.1-1.4-6.1-1.9-8.1c-2.4-8.3-3-7.7-3.4-11c-0.2-1.2,0.1-0.2-0.1-8.6
		c-0.1-2.5,0-5-0.2-7.5c-0.1-1.5-0.2-2.8-0.1-4.8c0.1-1.6,0.3-2.8,0.5-4c1.1-6,1.6-9,2.5-11.7c1.2-3.8,1.6-3.7,1.8-5.8
		c0.3-2.2-0.2-3,0-7.1c0.1-1.6,0.1-2.6,0.3-4.1c0.4-2.8,0.8-3.6,0.8-6c0-1.5-0.2-2.6-0.3-3.1c-0.3-1.5-0.6-2.2-0.9-3.4
		c-0.3-1.2-0.2-1.6-0.5-4.7c-0.4-4.4-0.6-4.6-0.7-7.2c-0.1-1.5-0.1-2.6,0.1-4c0.2-1.7,0.5-2.8,0.9-4.6c0.2-0.7,0.4-1.7,0.6-2.9"/>
	<path id="route5_00000080168448031299011060000004653507864491144839_" class="st23" d="M490.7,424.9c-0.1-2.2-0.2-3.3-0.9-4.6
		c-1.1-2.1-3.1-3.1-4.1-3.5c-2.8-1.3-5.1-1-8.2-0.8c-1.9,0.1-5.7,0.1-13.2,0.1c-4.1,0-6.9,0-10.8-0.4c-6.4-0.6-9.7-0.9-12.7-1.5
		c-0.6-0.1-2.3-0.5-4.6-0.5c-0.4,0-1.5,0-2.9,0.2c-2.1,0.3-3.5,0.8-4.3,1c-0.7,0.2-2.9,0.6-7.3,1.5c-8.9,1.7-10.2,1.9-13.5,2.9
		c-2.2,0.7-3.3,1-4.4,1.6c-5.3,2.8-7.9,7.6-8.7,9c-1.8,3.4-2.2,8.2-3,17.7c-0.5,6.1-0.8,9.2-0.8,9.2c-0.1,2.4-0.1,4-0.7,6.4
		c-0.2,0.9-0.7,2.4-2.1,5.4c-1.2,2.3-2.2,4-4.3,7.3c-4.4,6.8-4.9,7.4-6.1,10c-1.5,3.2-1.9,5.2-2.1,6.6c-0.3,1.8-0.2,3.2-0.1,5.5
		c0.2,4.2,0.3,6.3,1.5,7.8c1.3,1.6,3.2,2.2,4.6,2.6c2,0.6,2.8,0.3,5.4,0.5c1.6,0.1,3.9,0.8,8.5,2.1c3.3,0.9,5,1.4,6.6,2.1
		c1.7,0.8,3,1.5,5.3,2.9c6.1,3.7,9.1,5.6,10.1,6.2c0,0,3.3,2,8.1,5c0.5,0.3,3,1.8,6.4,3.7c4,2.2,4.9,2.5,5.7,2.7
		c1.4,0.3,3.2,0.2,6.6-0.1c2.5-0.2,2.5-0.3,6.5-0.7c4.3-0.5,4.3-0.4,5.6-0.7c2.2-0.5,3.9-1.3,5.6-2.1c0.9-0.4,2.1-0.9,3.6-1.8
		c1.4-0.8,3.4-2,5.5-3.9c2.1-2,3.3-3.9,4-4.9c2.4-3.8,1.8-4.9,4.1-7.6c1.2-1.4,1.3-1,3.6-3.5c1.7-1.7,3.2-3.3,4.6-5.5
		c1.6-2.5,2.3-4.8,3.1-7.3c0.5-1.6,0.4-1.7,1.6-6.8c0-0.1,0.7-2.9,2-8.4c1.1-4.9,1.7-7.3,1.7-7.5c1.8-7.4,2.6-9.6,2.9-13.8
		c0.2-1.8,0.3-4-0.4-6.6c-0.3-1.2-0.7-2-1.5-3.7c-2-4.4-3.3-5.6-4.9-9.7c-0.6-1.4-0.8-2.2-1-3c-0.2-0.9-0.4-2.1-0.4-5
		C490.6,427.3,490.9,427.1,490.7,424.9z"/>
	<g id="route3C" class="st24">
		<g>
			<path class="st25" d="M676.9,343c0-2.3,0-4.3-0.1-6"/>
			<path class="st26" d="M676.7,324.7c0.1-0.4,0.2-0.8,0.4-1.1c0.9-2,2.6-3,3.2-3.4c2.4-1.4,4.9-1.4,5.9-1.4c1.8,0,3.9,0,6.4-0.1"/>
			<path class="st25" d="M698.7,318.5c1.9-0.1,3.9-0.1,6-0.2"/>
		</g>
	</g>
	<path id="route3_00000147918289614470792180000007537519689419843976_" class="st25" d="M105,236.8c-0.9,1.2-4.1,5.9-3.4,12.3
		c0.1,1.2,0.6,4.8,3.1,7.9c1.3,1.7,3.3,3.3,5,4.7c1.1,0.9,1.9,1.5,2.3,1.7c3.6,2.7,11.7,8.3,17.2,12.4c2.8,2,4.1,3.1,5.6,4.9
		c1,1.2,1.9,2.7,3.6,5.6c1.4,2.4,2.2,3.6,2.7,4.9c1,2.4,1.3,4.5,1.5,6.5c0.8,7.3,0.6,12.3,0.6,12.3c-0.3,7.1-0.3,14.2-0.8,21.3
		c-0.5,6.9-1.1,11.2,1.2,16c1.3,2.7,2.9,4.4,3.3,4.8c2.1,2.1,4.1,3,9.8,5.1c4.5,1.7,8.7,4,13.4,5.2c2.7,0.7,5.5,1.3,7.4,3.8
		c0.4,0.6,1.3,1.9,1.4,3.7c0.2,2-0.5,3.4-1.5,5.5c-0.8,1.8-1.9,4.1-4.4,6c-1.6,1.2-3.4,2-3.6,2.1c-1.5,0.6-2,0.6-3.2,1.3
		c-0.4,0.2-1.7,1-2.9,2.5c-1.6,2-1.1,3-2.9,5.2c-0.4,0.5-0.9,1.1-1.7,1.8c-2.3,1.7-3.6,0.9-5.7,2.4c-0.4,0.3-2.1,1.5-2.6,3.6
		c-0.2,0.6-0.2,1.5,0.2,3.2c0.7,2.7,1.8,4.3,3.1,6.7c1.4,2.5,0.8,1.9,2.8,5.5c2.5,4.7,3.7,7,5.6,9c1.1,1.2,0.9,0.7,5,4.6
		c2.9,2.7,3.6,3.6,4,5c0.5,1.7-0.1,2.6-0.4,5.2c-0.3,1.9-0.2,3.1,0.1,7.8c0.9,12.5,1.6,20.2,1.8,22.2c0.3,3.7,0.4,4.6,0.6,6
		c0.3,2.1,0.4,2.7,1.8,11.7c0.3,1.9,0.7,3.9,1,5.8c0.4,2.7,0.5,3.9,1.3,5.5c0.5,0.9,1.1,1.6,2.3,2.9c1.6,1.8,3,3.1,4.2,4.1
		c4.5,4.1,4.9,4.1,6.6,5.9c1.6,1.7,2.6,3.2,3.3,4.2c2.4,3.5,3,5.4,5.7,7.8c0.2,0.2,0.7,0.6,1.7,1.3c4.2,3.1,6.3,4.7,8,5.2
		c2.2,0.6,4.2,0.4,5.9,0.2c0.8-0.1,2.1-0.4,4.7-1.1c3.4-0.9,5-1.4,7.3-1.1c0.6,0.1,1,0.2,1.6,0.3c2.7,0.6,4.4,1.6,5.7,2.2
		c1.6,0.8,4.7,2.3,8.2,2.6c2.2,0.2,3.9-0.1,5.7-0.5c6.4-1.4,9.9-2.8,15-4.3c6.4-1.9,8.8-2,15.7-4.5c3.5-1.3,4.7-1.9,5.9-2.7
		c3.8-2.8,3.6-5.5,7.2-7.6c2.8-1.7,5.7-1.8,7.1-1.8s2.9,0.1,9.1,2.2c5.1,1.7,6.9,2.6,11.4,3.9c2.7,0.8,4.9,1.2,7.6,0.8
		c1.7-0.3,2.9-0.8,4.2-1.4c5.1-2.3,10.4-4.3,15.5-6.5c0.6-0.3,0.1,0,6.4-2.7c4.1-1.7,4.2-1.7,5.3-2.2c5.2-2.2,4.9-2,5.6-2.3
		c2-0.9,3.7-1.8,7.3-3.7c1.1-0.6,2.2-1.2,4.2-2.2c1.7-0.9,2.5-1.3,2.9-1.5c1.9-0.9,3.4-1.3,6.8-2.3c3.2-0.9,3.3-0.8,7.1-1.9
		c3.5-0.9,4.9-1.4,6.8-2.1c1.7-0.7,3-1.4,3.4-1.6c4.3-2.3,4.8-3.6,8-5.2c1.3-0.6,2.8-1,5.8-1.7c2.9-0.7,5.3-1.3,8.5-1.5
		c2.9-0.2,4,0.1,7.5-0.3c2.9-0.4,3.7-0.7,4.3-1.3c1.1-0.9,1-1.7,2.6-4.6c1-1.8,1.6-2.7,2.4-3.4c1.6-1.3,3.3-1.2,7.3-1.3
		c3.2,0,6.3-0.2,9.5-0.3c3.4-0.1,2.8-0.1,8.7-0.2c5.1-0.1,7.7-0.2,8.5-0.2c2.9,0,7,0.2,11.7,0.1c0.8,0,2.2-0.1,4-0.5
		c0.7-0.2,2.4-0.7,4.2-1.8c1-0.6,2.6-1.9,4.9-5.5c1.9-3,1.9-4,3.3-6.6c0.7-1.3,1.5-2.7,8.2-10.4c3.5-4,5.2-6.1,5.9-6.8
		c3.3-3.4,4.5-3.7,11.2-8.9c8.5-6.6,9-7.9,13.9-10.7c3.6-2,7.6-3.8,8-4c2.1-0.9,4.2-1.8,6.5-2.6c4.1-1.3,6.1-1.1,14.9-1.9
		c5.7-0.5,8.6-0.8,10.3-1.2c2.9-0.7,4-1.2,12.6-4.9c11.6-4.9,13.1-5.4,15-5.8c4.4-0.9,3.8-0.1,10.9-1.3c4.7-0.8,6.8-1.5,9.6-0.5
		c1.2,0.4,2.2,1.1,4.2,1.3c1.8,0.2,2.4-0.1,4.2,0.3c1.5,0.4,1.5,0.7,3.1,1c1.1,0.2,2,0.2,3.4,0.3c1.6,0,2.7-0.1,2.9-0.1
		c1.1-0.1,3.7-0.1,9.1-0.1c5.5-0.1,8.1-0.2,13.4-0.4c2.5-0.1,4.7-0.2,5.9-1.8c0.9-1.2,0.8-2.5,0.7-3.6c-0.2-3.8,0.1-7.6-0.3-11.4
		c-0.1-0.8,0,0-0.2-10.8c-0.1-6.3-0.2-7.6-0.3-13.4c-0.1-3.1-0.2-7.6-0.3-13.2"/>
	<path id="route7_00000033350258134843306990000017126417844472301711_" class="st27" d="M208.5,226.2c2.6,12.4,4.3,21.6,4.8,24.7
		c0,0,0.6,3.6,0.5,6.9c0,2.3-0.2,4-0.3,5.1c-0.9,7.3,0.4-2.2-1.9,17.9c-0.2,2.2-0.6,4.8-0.9,8.3c-0.2,2.5-0.4,4.4-0.5,6.6
		c-0.1,2.6-0.2,4.1-0.1,6.1c0.1,1.9,0.2,2.1,0.2,3.4c0,0.4,0,2.4-0.8,5.4c-1,3.6-1.7,3.9-2.1,6.5c-0.3,1.6-0.1,3,0,4.6
		c0.1,1.3,0.4,2.7,0.9,5.4c0.2,1,0.4,2.4,0.9,4.1c0.6,2.4,0.9,3.1,1.3,3.7c0.4,0.6,1,1.1,2.2,2.1s2,1.7,3,2.2
		c1.1,0.6,1.6,0.5,4.6,1.3c4.9,1.2,5.8,1.4,7.4,2c0.9,0.3,1.8,0.7,2.7,1c1.8,0.7,2,0.8,2.4,0.9c1.5,0.4,2.3,0.4,3.5,0.6
		c0.5,0.1,3,0.4,5.2,1.5c1.3,0.6,1.8,1.2,4.4,3.6c1.5,1.4,3.1,2.7,4.6,4.1c3.4,3.2,8.3,7.6,17.8,16.3c5.3,4.8,10.5,9.8,15.8,14.5
		c0.8,0.7,2.6,2.3,4.9,4.7c2.5,2.6,4,4.7,6.1,7.4c2.3,3,2.7,3.9,3,4.6c0.3,0.8,0.5,1.4,1.2,5.7c0.8,4.5,0.8,5.2,1.3,6.7
		c1.2,3.5,2.5,4.5,2.9,4.7c0.1,0.1,1,0.4,2.8,1c2.3,0.8,3.4,1.2,4.1,1.4c1.5,0.3,2.7,0.2,3.4,0.1c1.3-0.1,1.5-0.3,5.2-1
		c0.7-0.1,1.3-0.2,2.2-0.3c0.9,0,1.8,0.1,2.5,0.2c2.8,0.5,6.9,2.2,9.1,3.1c2.9,1.2,2.4,0.9,6.3,2.4c3.7,1.5,5.5,2.2,5.6,2.2
		c1.7,0.7,2.2,1,3.3,1.3c0.4,0.1,0.8,0.2,4.1,0.4c2.4,0.2,2.5,0.2,3,0.3c0.4,0.1,1.9,0.5,3.5,1.7c1.2,1,2,2,2.5,2.8
		c1.9,2.8,3.2,5.2,3.8,6.3c2.4,4.3,2.5,3.6,5.6,8.9c1.5,2.5,1.6,2.9,2.5,3.8c2.7,2.7,6.1,3.3,6.8,3.4c1.7,0.3,1.6-0.1,5.1,0.1
		c1.1,0.1,2.7,0.2,4.8,0.5c0.6,0.1,3.2,0.6,6.5,1.7c2.2,0.8,2.1,0.9,3.3,1.2c1,0.2,3.5,0.8,6.1-0.1c1.2-0.4,2.3-1.3,4.4-3
		c2.3-1.9,4.8-4.2,5.5-4.9c1.2-1.2,2.2-2.1,3.8-2.9c1.1-0.5,2-0.8,2.5-0.9c0.8-0.2,2.5-0.6,4.8-0.5c0.8,0,3,0.1,7.1,1.5
		c2.8,0.9,2.3,1,7.7,3.1c2.1,0.8,4.1,1.7,6.1,2.5c1.2,0.5,2.5,0.9,4,2c0.2,0.2,0.3,0.2,2.1,1.7c1.7,1.4,2.6,2.1,3.1,2.4
		c2.7,2.1,2.5,1.8,3.1,2.4c1.4,1.4,2.2,3,2.5,3.9c0.4,1,0.2,1,0.9,3.4c0.3,1.1,0.7,2.3,1.1,3.5c0.5,1.3,1.2,3.1,2.4,4.5
		c0.8,0.9,1.2,1,5.5,3.4c3.8,2.2,4.8,2.9,5.8,3.9c1.2,1.2,1.9,2.3,2.2,2.8c1.2,1.9,1.7,3.7,2,4.5c1.3,4.5,3.3,8.2,4.8,11.1
		c1.5,3,1.7,2.7,3.4,6.1c1.6,3.1,3.1,6.5,3.1,6.5c1.3,3,1.7,4,3,5.5c0.8,0.9,1.8,2.1,3.5,2.7c0.5,0.2,1,0.3,4.6,0.3s4.5-0.1,6,0.4
		c1.1,0.3,1.8,0.7,2.4,1c2.7,1.4,3.7,2.9,6,4.9c1,0.9,2.3,1.7,4.8,3.5c0.9,0.6,2.4,1.6,7.7,4.9c5.8,3.5,8.7,5.3,9.4,5.7
		c0.8,0.4,2.6,1.4,4.7,2.9c0.8,0.5,1.7,1.2,2.7,2.2c1.5,1.4,1.6,1.8,2.9,2.8c1.2,0.9,1.4,0.9,2.8,1.9c1.3,0.9,2.1,1.7,3,2.5
		c0,0,1.6,1.5,5.3,4.5c2.5,2.1,3,2,8.1,5.4c3.8,2.6,4.2,3,8.8,6.1c4.7,3.1,6,3.7,7.7,4.1c1.7,0.3,1.8,0,6.6,0.1
		c2.6,0.1,4.6,0.1,7.1,0.4c2.7,0.3,4.9,0.9,9.2,2c3.8,1,4.3,1.3,6.9,1.8c0.5,0.1,2.3,0.4,5.8,0.9c4.3,0.6,5.4,0.8,7.3,1.2
		c1.6,0.3,2.7,0.6,4.1,0.9c2.6,0.6,4.1,1.1,7.8,2c2.7,0.7,3.5,0.8,4.7,0.8c0.7,0,2.2-0.1,3.9-1c0.5-0.3,0.8-0.5,3-2.4
		c1.7-1.5,2.6-2.3,3.5-3.1c2.1-1.9,3.2-2.8,3.4-3.1c1.1-1.2,1.4-1.8,4.3-7.2c2.9-5.6,3.2-6,3.9-7.7c0.2-0.4,0.1-0.4,1.6-4
		c1.5-3.7,1.7-4.3,2.4-5.2c1.4-1.7,3-2.5,3.7-2.9c0.9-0.4,2.2-1.1,3.8-1.1c2.1-0.1,3.6,0.9,5.6,2.2c2.4,1.5,4.9,2.9,7.3,4.4
		c2,1.4,4.9,3,10.6,6.4c5.5,3.2,6.1,3.4,10.3,6c4.5,2.7,6.7,4.1,8,5.3c0.7,0.6,1.7,1.7,3.4,2.6c1.2,0.6,1.6,0.6,3.3,1.5
		c0.5,0.3,1.9,1,3.2,1.9c1.9,1.4,3.1,2.8,3.8,3.6c0.3,0.4,2.9,2.9,8.1,8c3.4,3.3,4.3,4.1,6.8,6.7c3,3.1,0.8,1,4.5,5.1
		c1,1.1,1.7,1.9,2.3,3.2c0.6,1.4,0.8,2.7,0.9,4.2c0,1.9-0.2,3.3-2.7,11.5c-0.6,2.2-1.2,3.9-2.2,6c-0.6,1.2-1.3,2.3-1.5,2.7
		c-0.8,1.3-1.3,2.1-2.4,3.6c-1.4,2-2,3-2.7,4.1c-1.9,3.1-2.9,4.6-2.9,6.1c-0.1,2.3,1.2,4,1.4,4.3c1,1.3,1.6,1.1,4,2.9
		c1.3,1,1.4,1.2,3.8,3.3c1.4,1.2,2.7,2.3,3.8,3.2"/>
	<path id="route1_00000110440107022540153430000002009820496430490284_" class="st28" d="M590.4,334c2.8,1.6,5.2,2.7,6.8,3.4
		c0.3,0.1,2.7,1.3,7.7,3.8c0.5,0.3,1.6,0.8,2.3,1.9s0.8,2.3,0.8,3.1c0,3.5,0.1,5.3,0,6.9c-0.1,3.3-0.3,6.6-0.3,10
		c0,0.3,0,1.1-0.4,1.9c-0.5,1.1-1.4,1.7-2.1,2.1c-0.5,0.3-0.8,0.4-3.1,1.3c-2.7,1-2.8,1.1-3.3,1.2c-1.6,0.3-1.9,0-3.5,0.1
		c-2.9,0.3-4.5,1.6-8.4,2.9c-0.5,0.2-1,0.3-1,0.3c-1.1,0.4-2.1,0.6-5.6,1.7c-4.3,1.3-6.5,2-7.5,2.3c-2.1,0.7-4,1.5-6.8,2
		c-2,0.4-2.7,0.3-3.3,0.2c-1.9-0.3-2.2-1.1-4.6-1.8c-0.9-0.3-2.4-0.7-4.1-0.6c-0.9,0.1-1.8,0.3-3.6,0.9c-2.2,0.7-3.2,1-4.1,1.5
		c-0.1,0-0.4,0.2-0.8,0.5c-1.8,1.2-2.3,2.1-3.6,3.3c-0.6,0.5-0.9,0.7-2.3,1.5c-2.6,1.6-5.3,3.3-7.9,5c-3.8,2.4-4.5,2.9-5.3,3.6
		c-1.4,1.3-2.4,2.4-3.4,3.5c-1,1.2-1.9,2.4-4,5.5c-3.4,4.9-3.1,4.8-4.1,6.2c-1.5,1.9-3,3.2-5.8,5.7c-1.2,1-1.4,1.2-8.6,6.8
		c-1.9,1.5-3.7,3.2-5.8,4.6c-1.7,1.2-3,1.9-4.2,3.5c-0.7,1-1.2,2.1-1.7,3.3c-0.7,1.7-1.1,2.5-1.3,3.5c-0.1,0.6-0.1,1.1-0.4,1.8
		c-0.3,0.8-0.8,1.3-1.2,1.7c-2.4,2.3-6.4,4.1-6.4,4.1c-3.1,1.4-3.7,1.3-5.6,2.5c-0.9,0.6-1.9,1.5-2.3,1.8c-0.3,0.3-1.9,1.5-2.9,2.7
		c-1.8,1.9-1.8,2.7-3.5,5.2c-1.5,2.1-2.8,4-5.1,5.2c-0.9,0.5-2.5,0.9-5.6,1.6c-2,0.5-2.7,0.5-5.4,1.1c-2.1,0.5-3.2,0.7-3.9,0.9
		c-4.8,1.6-7.4,7-8.6,9.3c-1,2-1.6,3.9-2.8,7.8c-0.3,0.8-0.9,2.8-2,5.3c-0.6,1.4-0.9,2.1-1.4,2.9c-0.9,1.5-1.6,1.9-3.4,3.9
		c-0.5,0.6-1.9,2.1-3.3,3.9c-1.7,2.3-1.4,2.4-2.9,4.5c-2.2,3.1-3.1,3.2-4.5,5.7c-0.6,1-0.9,2-1.5,3.8c-1.1,3.2-1.1,4.2-2,7.8
		c-1,3.7-1.5,5.6-2.6,7.1c-0.8,1.2-2.1,2.1-4.7,4.1c-3,2.2-4.6,3.4-6.8,4.7c-2.5,1.4-4.7,2.3-9,3.8c-7.1,2.6-7.8,2.3-11.6,4.2
		c-3.5,1.7-5.5,3.2-7.4,4.7c-4.7,3.6-5.1,5.3-5.2,5.9c-0.4,2.1,0.5,4.4,1.8,5.9c1,1.2,1.6,1,3,2.5c0.3,0.3,2.3,2.3,2.7,4.4
		c0.5,2.5-1.4,4.8-3.7,7.6c0,0-3.7,4.6-8.9,11.5c-3.6,4.9-7.2,10.3-8,11.6c-1,1.6-1.7,2.6-3,4.5c-3.6,5.3-4,5.8-4.5,6.3
		c-1.4,1.3-1.5,1-6,4.3c-1.5,1.1-2.3,1.7-3.3,2.5c-2.2,1.8-3.4,3.3-5,5c-0.2,0.3,0.1-0.1-6,6c-16,16-17.5,17.8-23.8,23.9
		c-5,4.9-6.8,6.6-10.4,10.1c-1.2,1.2-2.7,2.7-4.8,4.7c-3.5,3.5-3.3,3.4-4.3,4.4c-4.8,4.5-6.4,3.9-8.9,6.9c-1.3,1.6-2.1,3.9-3.7,8.6
		c-1.6,4.7-2.6,7.7-2.9,11.9c0,0.6,0,3.3,0.1,8.7c0.1,3.6,0.1,5.8-1,8.6c-0.7,1.6-1.4,2.7-1.9,3.4c-2.3,3.2-4.8,4.6-7.6,6.6
		c-0.2,0.2,0.3-0.2-8.6,7.2c-6.3,5.2-7,5.8-9.4,7.9c-3.2,2.8-4.8,4.2-6.5,5.8c-4.4,4.3-4.2,4.9-6.2,6c-1.6,0.9-4.2,1.4-9.3,2.5
		c-3.9,0.8-4.3,0.7-5.8,1.3c-3.5,1.4-5.6,3.6-6.3,4.4c-1.9,2.1-2.8,4.2-3.3,5.4c-1.2,2.8-0.7,3.5-1.7,6.3c-0.7,1.9-1.8,3.5-4.1,6.9
		c-2.4,3.5-3.6,5.3-5.4,6.5c-1.9,1.2-2.5,0.9-4.6,2c-3.4,1.8-5.2,4.4-6.7,6.5c-2.9,4.1-1.8,4.8-4.9,11.2c-2.7,5.4-4.8,7.6-5.2,12.1
		c-0.2,2.3,0.2,3.7,0.6,4.6c0.6,1.5,1.6,2.5,3.4,4.3c1.7,1.7,3,2.8,3.1,2.8c4.1,3.3,7.5,7.8,9.1,9.8c3.3,4.3,3.8,6,6.8,9.3
		c1.6,1.7,3.5,3.6,3.5,3.6c0.1,0.1,1.8,1.8,3.2,3.1c3.8,3.5,7.7,6,9.2,7c3.9,2.5,5.8,3.8,7.9,4.9c0.5,0.3,1.8,1,3.3,2.3
		c0.2,0.2,1.1,1,2.1,2.3c0.5,0.6,1.7,2.1,3.1,4.8c1.4,2.8,1.1,2.9,2.4,5.3c0.6,1.1,1.5,2.7,2.9,4.4c1.8,2.1,2.4,2,4.7,4.5
		c0.8,0.9,1.6,1.8,2.4,3.1c1.1,1.8,1.6,3.3,1.9,4.2c0.6,1.8,1.6,3.8,3.5,7.7c1.4,2.9,3.6,6.1,8,12.5c1.9,2.8,3.2,4.6,4.5,6.3
		c1.8,2.3,2.7,3.5,3.7,4.6c1.3,1.4,4.1,4.4,8.9,6.6c1.4,0.7,5.8,2.6,11.3,2.5c1.7,0,2.1-0.2,7.2-0.6c2.5-0.2,4.6-0.3,6-0.4"/>
	<path id="route2_00000018916614160014443950000018163536152984276407_" class="st29" d="M265.5,185.5c0.1,0.3,0.2,0.7,0.4,1.3
		c0.5,1.7,1.2,3.7,1.6,5.9c0.1,0.6,0.3,1.7,0.6,3.8c0.4,2.4,0.6,4.2,0.9,6c0.5,3.8,0.5,4.4,0.4,5c-0.3,2.2-1.2,3.7-1.4,4.1
		c-0.6,1-1.2,1.6-3.6,3.6c-0.2,0.2-2.4,2.1-6.6,5.9c-0.9,0.8-1.8,1.6-2.4,3c-0.5,1.2-0.5,2.3-0.5,3c0.1,3.2,1.6,5.9,3.2,9.5
		c0.7,1.7,1.7,4.2,3.5,9.2c1,2.8,1.7,4.7,2,5.6c4.9,13.7,10.2,25.3,10.2,25.3c2.7,5.8,4.9,11.8,7.7,17.6c1,2.1,2.3,4.5,2,7.8
		c-0.2,2.5-1.2,3.3-1,6c0.1,1.9,0.7,2.6,1.8,5.7c1.2,3.1,1.2,4,2.1,6.7c1,3.2,2.7,6.6,6,13.3c3.5,7.1,3.7,7,4.7,9.7
		c0.5,1.3,1,2.9,2.2,5c0.5,0.9,1.8,3.1,3.7,5c1.7,1.7,3.2,2.4,7.7,4.3c8.9,3.7,13.3,5.6,14.1,5.9c2.1,0.8,3.7,1.4,5.9,2.6
		c2,1.1,3.5,2.2,5.6,3.8c1.7,1.3,2.1,1.7,5.8,4.5c1.2,0.9,1.7,1.3,2.4,1.8c3.8,3,6.3,5.1,8,6.5c1.3,1.1,5.4,3.9,13.6,9.4
		c2.2,1.5,4.7,3.1,7,5.9c0.5,0.6,0.8,1,2.4,3c2,2.5,3,3.7,3.8,4.6c1.6,1.8,2.7,2.5,5.3,4.6c2.4,2,4.8,4,7.2,6
		c8.7,7.3,15.7,14.5,16.7,15.5c3.4,3.5,3.9,4.3,7,7.2c3.8,3.6,7,6.3,8.9,7.8c4,3.2,5.9,4.8,8,6.1c1.2,0.8,3.6,2.2,6.4,4.6
		c0.9,0.7,1.9,1.7,2.9,3.1c1.1,1.5,1.6,2.7,2,3.6c1.2,2.8,1.8,3.1,3.9,7c1.5,2.7,3.6,6.5,5.4,11.4c1.2,3.2,1,3.6,2.8,8.7
		c0.4,1.2,0.9,2.6,1.5,4.6c0.7,2.4,1,3.6,1.2,5.2c0.3,3-0.5,3.3-0.6,7.2c0,1.9-0.1,3.9,0.7,6.3c0.8,2.3,1.9,3.6,3.8,5.8
		c2.2,2.7,4.4,5.4,6.7,8c2,2.3,4.6,5.6,9.8,12.2c1.6,2,3,3.8,4.4,6.5c0.8,1.5,1.1,2.4,2.4,5.4c0.8,1.8,1.7,3.8,3.5,7.8
		c3.4,7.6,4.8,10.2,5.6,14.4c0.3,1.6,0.5,3,0.5,3.1c0.1,1.4,0.2,2.6,0,7.4c-0.1,2.5-0.1,3.7-0.1,4.2c-0.2,3.9-0.5,4.4-0.3,6.3
		c0.2,1.3,0.4,3,1.6,4.5c0.5,0.6,0.5,0.5,2.2,2.1c1.4,1.4,2.2,2.1,2.8,3c0.4,0.5,0.9,1.5,1.5,3.3c0.9,3,0.9,5.6,1,7.1
		c0.1,5.8,0.6,5,0.6,9.8c0.1,5.3-0.4,7.5-1.1,15.4c-0.8,8.8-0.4,8.6-0.9,13c-1.3,11.6-4.6,20.3-6.3,25c-3.3,8.7-5,13.1-9,18.4
		c-5.8,7.7-11.8,11.3-11.7,18.1c0,0.4,0.5,2.3,1.6,6c2.9,10.7,4.4,13,6.5,14.3c0.6,0.4,1.4,0.7,3,1.8c2.1,1.4,3.2,2.1,4.2,3.2
		c1.1,1.2,1.1,1.8,2.6,4.9c1,2.1,1.5,2.8,2.6,4.7c1.2,2.2,4.5,8.5,7.8,15.9c0.8,1.9,4.6,10.6,8.6,16.2c0.3,0.5,0.8,1.1,1.6,1.7
		c1.1,0.8,2.9,1.7,9.8,1.4c3.3-0.1,4.5-0.3,6.9,0.1c2.1,0.4,3.2,0.9,3.8,1.3c1.8,1.1,2.7,2.7,3.3,3.9c1.9,3.4,1.4,1.3,9,11.3
		c1.4,1.9,2.2,3,3.8,4c0.5,0.3,2.5,1.5,5.6,1.7c3.3,0.2,5.7-0.8,8.3-1.8c1-0.4-2.3,0.9,12.9-3.7c9-2.7,9.9-3.1,13-3.7
		c3.8-0.7,7.5-1.2,8.5-1.3c2.1-0.2,3.8-0.4,7.1-0.6c6.4-0.5,6.4-0.4,7.9-0.6c1.5-0.2,6.9-0.9,12.1-4.5c6.3-4.3,8.8-10.4,9.6-12.7
		c1.5-3.8,1.7-6.8,2.2-12.8c0.2-2.8,0.2-4.6-0.3-6.6c-0.4-1.9-1.1-3.4-2.2-5.8c-0.9-1.9-1.7-3.4-2.3-4.5"/>
	<path id="route4_00000053547071684596870010000013779376516360675974_" class="st30" d="M219.7,528.4c1.9-0.3,3.3-0.7,4.2-1
		c1.7-0.6,2.4-1.1,8.1-4.3c1.3-0.8,2-1.1,2.9-1.6c1.2-0.6,1.8-0.8,4-1.8c3.4-1.5,3-1.3,3.9-1.7c2.2-0.8,3.4-1.1,5.4-1.6
		c1.5-0.4,3.5-1.1,7.5-2.5c5.7-2,8.5-3,10.7-4c0.5-0.2,2.9-1.5,7.7-3.9c3-1.5,4.5-2.3,5.6-2.9c14.3-7.4,11.6-6.3,12.4-6.6
		c2.2-0.9,3.5-1.3,4.7-2.8c1-1.4,0.9-2.4,2.5-4.3c0.7-0.9,1.4-1.7,2.6-2.1c0.2-0.1,1.9-0.7,3.6,0c1.4,0.5,2.1,1.6,3.5,3.5
		c1,1.5,0.9,1.7,2,3.2c0.7,1,1.4,1.9,2.5,2.9s2.7,2.3,4.7,2.2c0.8,0,1.9-0.3,2.3-0.5c1.1-0.3,1.1-0.4,1.7-0.6
		c1.1-0.3,1.7,0.2,4.4,0.9c1.6,0.4,2.4,0.6,3.2,0.7c1.1,0.1,1.6,0,2.3,0.4c1,0.5,1.6,1.3,1.8,1.6c0.6,0.8,0.8,1.6,0.9,2.4
		c0,0.1,0.7,3,1.2,4.5c0.4,1.1,1.1,3.2,3.1,4.6c0.4,0.3,2.3,1.6,4.6,1.4c0.6-0.1,1-0.2,2.6-1c2.1-1,3.1-1.4,4.6-2.2
		c2.3-1.2,4.2-2,6.9-3.2c3.2-1.4,4.1-1.7,5.4-2.8c1.1-0.9,1.2-1.4,2.3-2.1c1.5-1,2.1-0.8,4.8-1.7c3.1-1.1,2.6-1.4,5.9-2.6
		c1.1-0.4,1.7-0.6,2.3-1.2c0.3-0.3,0.7-0.8,1.6-3.5c0.7-2.2,0.6-2.4,1.1-3c0.8-1.2,2.1-1.8,2.6-2.1c1.3-0.6,2.2-0.5,4.5-0.6
		c2-0.1,3.3-0.3,6.1-0.6c2.5-0.3,3.8-0.5,5.2-0.9c2.6-0.7,4.5-1.6,7.3-3c1.4-0.7,2.6-1.4,4.8-2.4c1.4-0.6,2.4-1,3.7-1.3
		c0.5-0.1,1.2-0.2,3.1-0.2c5.1,0,4.8,0.3,6.5,0.2c2.4-0.2,2.6-0.7,5.5-1.1c1.6-0.2,3-0.2,3.8-0.1 M332.3,488c0.5,0,1.4-0.1,2.5,0
		c1.3,0,1.7,0.1,2.4,0c1.1-0.2,1.9-0.6,2.6-1c5.4-3.3,6.1-3.8,6.1-3.8c2.1-1.3,2.9-1.9,4.1-1.9c1,0,1.7,0.3,2.3,0.5
		c1.8,0.7,1.8,1.5,4.5,3.7c1,0.8,1.5,1.1,2.3,2c1.1,1.2,1.4,1.9,1.4,2.2c0.3,0.7,0.3,1.3,0.3,2.4c0.1,1.3,0.1,1.9-0.1,2.8
		c-0.4,1.6-1,1.6-1.3,3c-0.1,0.4-0.3,1.7,0.3,2.9c0.9,1.6,2.7,2,3,2.1c1.5,0.3,2.9-0.1,3.4-0.4c0.1,0,0.4-0.2,0.8-0.4
		c0.3-0.1,0.6-0.2,0.8-0.2"/>
	<path id="route12_00000028302803400888923510000018137543254894755215_" class="st31" d="M362.1,825.5c0.8,0.8,2.1,2,3.7,3.3
		c1.7,1.4,2.3,1.8,3.2,2.6c0.5,0.5,1.5,1.5,3.3,5c0.6,1.2,1.8,3.6,3.4,7.9c0.5,1.4,1.3,3.4,2.1,6c1.4,4.5,1.5,6.1,3,9.8
		c0.9,2.1,1.5,3.2,2.4,4.1c1.3,1.5,2.7,2.3,4,3c1.2,0.6,1.9,0.8,8.2,3c1.5,0.5,2.3,0.8,3.3,1.5c0.8,0.6,2.3,1.7,2.8,3.6
		c0.4,1.2,0.2,2.3,0.1,2.7c-0.4,2-1.7,2.9-3.4,5c-1,1.2-1.6,2.2-2.9,4.3c-1.8,2.9-1.9,4-4.2,9.9c-1.3,3.3-1.1,2.5-3.5,8
		c-1.6,3.8-2.4,5.7-3.4,8.3c-0.8,2.2-2.1,5.5-3.4,10c-1.3,4.2-1.5,5.9-3,8.8c-0.5,1.1-1.3,2.8-2.7,4.5c-3.5,4.7-8,6.9-11.6,8.6
		c-2.3,1.1-1.6,0.5-8.2,3.3c-3.8,1.6-3.4,1.5-7.3,3.1c-2.8,1.2-4,1.6-6,2.6c-0.9,0.4-1.4,0.7-4.2,2.4c-7,4-7.2,4.2-8.6,4.9
		c-1.8,0.8-1.8,0.7-6.1,2.5c-3,1.3-5.5,2.3-7.1,3.1"/>
</g>
</svg>
