<?xml version="1.0" encoding="UTF-8" standalone="no"?>
<!-- Generator: Adobe Illustrator 14.0.0, SVG Export Plug-In . SVG Version: 6.00 Build 43363)  -->

<svg
   xmlns:dc="http://purl.org/dc/elements/1.1/"
   xmlns:cc="http://creativecommons.org/ns#"
   xmlns:rdf="http://www.w3.org/1999/02/22-rdf-syntax-ns#"
   xmlns:svg="http://www.w3.org/2000/svg"
   xmlns="http://www.w3.org/2000/svg"
   xmlns:sodipodi="http://sodipodi.sourceforge.net/DTD/sodipodi-0.dtd"
   xmlns:inkscape="http://www.inkscape.org/namespaces/inkscape"
   version="1.1"
   x="0px"
   y="0px"
   width="2030px"
   height="1566px"
   viewBox="0 0 2030 1566"
   enable-background="new 0 0 2030 1566"
   xml:space="preserve"
   id="svg2"
   inkscape:version="0.48.2 r9819"
   sodipodi:docname="algiers1.svg"><metadata
   id="metadata350"><rdf:RDF><cc:Work
       rdf:about=""><dc:format>image/svg+xml</dc:format><dc:type
         rdf:resource="http://purl.org/dc/dcmitype/StillImage" /></cc:Work></rdf:RDF></metadata><defs
   id="defs348" /><sodipodi:namedview
   pagecolor="#ffffff"
   bordercolor="#666666"
   borderopacity="1"
   objecttolerance="10"
   gridtolerance="10"
   guidetolerance="10"
   inkscape:pageopacity="0"
   inkscape:pageshadow="2"
   inkscape:window-width="1255"
   inkscape:window-height="785"
   id="namedview346"
   showgrid="false"
   inkscape:zoom="0.60280971"
   inkscape:cx="779.84877"
   inkscape:cy="715.09887"
   inkscape:window-x="0"
   inkscape:window-y="0"
   inkscape:window-maximized="0"
   inkscape:current-layer="linii" />
<g
   id="waters">
	<polygon
   fill="#AEE0EC"
   points="57.5,0.9 107.8,72 152.5,138.6 203.2,142.3 238,184.5 249.8,224.1 241.6,260.4 236.1,285.4    219.6,323.4 228,375.4 196.9,437.6 239.1,486 360.3,571.1 443.1,635.5 550.7,659.1 786.9,703.2 1039.6,713.2 1335,640.3    1584.1,489 1702.6,359.8 1767.1,168 1779.1,0.9  "
   id="polygon5" />
</g>
<g
   id="background"
   display="none">
	<polygon
   display="inline"
   fill="#F1F2F2"
   points="894.8,1408.7 903.7,1473.8 957.3,1531.4 1030,1390.3  "
   id="polygon8" />
	<polygon
   display="inline"
   fill="#F1F2F2"
   points="0,182.5 0,0 45.2,0 133,141.4 214.1,163.5 236.5,246 157,457.7 315.6,617    525.1,706.2 742.3,823.8 814,903.2 804.6,997.9 622,1098.5 569.4,1157.8 374,1270 330.4,1300 98.8,1154.8 0,1157.8  "
   id="polygon10" />
	<polygon
   display="inline"
   fill="#F1F2F2"
   points="424,1566 441.6,1460.9 536.3,1318 636,1300 636,1342.3 525.1,1433 602,1566  "
   id="polygon12" />
	<polygon
   display="inline"
   fill="#F1F2F2"
   points="716.2,1118 828.2,1029.8 880,984.1 828.2,789.6 1040.2,768.2 1090.4,823.8    1074,908.1 918.3,967.8 990.8,990.1 938.9,1042 938.9,1157.8 830.1,1098.5 752.8,1154.8  "
   id="polygon14" />
	<polygon
   display="inline"
   fill="#F1F2F2"
   points="1125.1,894 1110,772.6 1185.8,759.5 1185.8,705.3 1292.6,666 1498.4,562    1498.4,684 1422.2,804.9 1354,876.7 1523.5,970.4 1698,1016.8 1666,1141.4 1585.9,1067.9 1512,1138 1467.5,1116 1467.5,1023.3    1373.8,1050 1232.6,990.1  "
   id="polygon16" />
	<polygon
   display="inline"
   fill="#F1F2F2"
   points="1744,288 1790,288 1800,138 1812,0 1777.6,0  "
   id="polygon18" />
</g>
<g
   id="legenda">
	<text
   id="text120"
   transform="matrix(0.9792 0 0 1 1738.2471 1332.3682)"
   fill="#010101"
   font-family="'ArialMT'"
   font-size="11">Metro</text>

	
		<text
   id="text120_1_"
   transform="matrix(0.9792 0 0 1 1738.2471 1352.3682)"
   fill="#010101"
   font-family="'ArialMT'"
   font-size="11">Tramway</text>

	
		<text
   id="text120_2_"
   transform="matrix(0.9792 0 0 1 1738.2471 1372.7021)"
   fill="#010101"
   font-family="'ArialMT'"
   font-size="11">Suburban train</text>

	
		<text
   id="text120_3_"
   transform="matrix(0.9792 0 0 1 1739.9277 1408.9736)"
   fill="#010101"
   font-family="'ArialMT'"
   font-size="11">Common station</text>

	
		<text
   id="text120_4_"
   transform="matrix(0.9792 0 0 1 1738.2471 1390.2627)"
   fill="#010101"
   font-family="'ArialMT'"
   font-size="11">Under construction</text>

	<text
   id="text170"
   transform="matrix(0.9792 0 0 1 1714.2637 1261.1973)"
   fill="#010101"
   font-family="'ArialMT'"
   font-size="35">Metro Algiers</text>

	<text
   id="text174"
   transform="matrix(0.9792 0 0 1 1714.2637 1293.4922)"
   fill="#010101"
   font-family="'ArialMT'"
   font-size="25">December, 2013</text>

	<path
   fill="none"
   stroke="#4580B7"
   stroke-width="4"
   d="M1716.3,1335.9c0,0,0.8-9.9,14.5-12.1"
   id="path28" />
	<path
   fill="none"
   stroke="#45B549"
   stroke-width="4"
   d="M1716.3,1376.3c0,0,0.8-9.9,14.5-12.1"
   id="path30" />
	<path
   fill="none"
   stroke="#E9242D"
   stroke-width="4"
   d="M1716.3,1355.5c0,0,0.8-9.9,14.5-12.1"
   id="path32" />
	<path
   fill="#FFFFFF"
   stroke="#000000"
   stroke-width="2"
   d="M1725.2,1399.3c-1.1,1-1.5,2.4-1.2,3.7c-0.5,0.4-0.9,0.8-1.4,1.2   c-0.7,0.6-1.3,1.2-1.9,1.8c-1.3-0.5-2.8-0.3-3.9,0.7c-1.6,1.4-1.8,3.9-0.3,5.6c1.5,1.7,4,1.9,5.6,0.4c1.1-1,1.5-2.4,1.2-3.8   c0.7-0.5,1.3-1.1,2-1.7c0.5-0.4,0.9-0.8,1.3-1.2c1.3,0.4,2.8,0.2,3.9-0.7c1.6-1.4,1.8-3.9,0.3-5.6   C1729.3,1398.1,1726.8,1397.9,1725.2,1399.3z"
   id="path34" />
	<path
   fill="none"
   stroke="#4580B7"
   stroke-width="4"
   stroke-dasharray="2"
   d="M1716.3,1393.8c0,0,0.8-9.9,14.5-12.1"
   id="path36" />
	<ellipse
   fill="#FFFFFF"
   stroke="#000000"
   stroke-width="3"
   cx="1723.6"
   cy="1425.7"
   rx="4.9"
   ry="5"
   id="ellipse38" />
	<text
   id="text120_5_"
   transform="matrix(0.9792 0 0 1 1739.9277 1430.04)"
   fill="#010101"
   font-family="'ArialMT'"
   font-size="11">Common station</text>

</g>
<g
   id="small_lines"
   transform="translate(0.14662728,0)">
	<path
   d="M 892.3,934"
   id="path42"
   inkscape:connector-curvature="0"
   style="fill:none" />
	<polyline
   id="line84_4_"
   points="184.1,362.5 187.6,365.8 189,367.2  "
   style="fill:none;stroke:#437cba;stroke-width:4" />
	<polyline
   id="line84_5_"
   points="131.7,449.7 136.4,450.8 138.3,451.3  "
   style="fill:none;stroke:#437cba;stroke-width:4" />
	<polyline
   id="line84_6_"
   points="153,512 149.3,515.1 147.8,516.3  "
   style="fill:none;stroke:#437cba;stroke-width:4" />
	<polyline
   id="line84_7_"
   points="192.5,551.7 188.8,554.8 187.2,556.1  "
   style="fill:none;stroke:#437cba;stroke-width:4" />
	<polyline
   id="line84_8_"
   points="260.5,592.6 256.8,595.8 255.4,597.1  "
   style="fill:none;stroke:#437cba;stroke-width:4" />
	<polyline
   id="line84_9_"
   points="300.1,639.4 296.9,643 295.6,644.5  "
   style="fill:none;stroke:#437cba;stroke-width:4" />
	<polyline
   id="line84_10_"
   points="503.1,754.4 498.8,756.8 497.1,757.7  "
   style="fill:none;stroke:#437cba;stroke-width:4" />
	<polyline
   id="line84_11_"
   points="572.5,809.2 570.3,813.5 569.4,815.3  "
   style="fill:none;stroke:#437cba;stroke-width:4" />
	<polyline
   id="line84_12_"
   points="581.7,889.8 576.9,890.6 575,891  "
   style="fill:none;stroke:#437cba;stroke-width:4" />
	<rect
   x="507.79999"
   y="984.09998"
   width="34.700001"
   height="21.6"
   id="rect53"
   style="fill:#437cba;stroke:#437cba;stroke-width:2" />
</g>
<g
   id="linii">
	<path
   d="M222.5,274c0,0-14.5,40.5-15.5,51s11,38,7.8,46s-36.8,39.5-36.2,45.5   s-13.5,26,3.5,57.5s67,76.5,73,84s96.5,51,108.5,57s73.5,23.5,84,29.5s279,131.5,279,131.5s45.5,21,54,28s39,49,50,89.5   s17.5,53.5,17.5,62s-3.5,26-7,34s-19,18.5-22,20.5s-141,77.5-145.5,80.5S627,1124,617,1133s-23.5,29-30.5,36.5s-52,31.5-52,31.5   s-179.5,107.5-186,112s-39,37-49.5,49.5s-162,174-162,174"
   id="path56"
   stroke-width="4"
   stroke="#45B549"
   fill="none" />
	<path
   d="M402.3,708c0,0,39.3-48.3,44.3-49.7s20,5.3,24,7.7s63.7,30.3,63.7,30.3   l188,89.7c0,0,39,17.3,41.7,20s28,27.7,31.3,29.7s47.3,6.7,47.3,6.7L871,849c0,0,22.3,1.3,26.3,1.7s67,26.7,67,26.7   s31,17.3,37,17.3s27-13.7,28-13.7s50-45.7,65.3-49.3s47.7-5,56.3-9.7s7-6.7,15.3-6.7s54,0.7,55.3,2.7s-3.7,56.3,0,60.3   s15,6,17,11.7s5.3,16.7,10.7,24s22.7,44.3,29,47s11.7-1.7,11.7-1.7s2-1,2.7-8s-0.3-6.7,2.7-10.3s18.7-15.3,18.7-15.3   s2-15.7,1.3-19.3s-5-23.3-5.3-26.3s-5.7-20.3-5.7-28.7s15.7-120,17-122.3s16-60.7,20.3-64.3s42-14.7,47.7-16.3s131.7-22.7,135.7-24   s47.7-14.3,47.7-14.3l99.7-54.7l117-110.7l79.3-105.3l18-36c0,0,88.7,2.7,94.7,6s2.2,25.7,2.2,27.2s-2,21.5-2,21.5"
   id="path58"
   stroke-width="4"
   stroke="#E9242D"
   fill="none" />
	<path
   d="M103.5,172c0,0,54-9.5,65.5-10s27,9.5,34,17   s18.5,23.5,18.5,36.5S210,267,203,284.5s-7.5,18-9,26.5s3,29.5,3,34s-2,18-4.5,21"
   id="path60"
   stroke-dasharray="2"
   stroke-width="4"
   stroke="#437CBA"
   fill="none" />
	<path
   d="M191.7,366.8c0,0-21.2,22.3-30.5,36.7s-16.8,32.2-20.5,46.2s-5.3,35.7,9,55   s39.7,40.7,43.3,44.7s5,8.3,9.7,11.7s35,4.7,39,9.3s29,28.7,32,35.3s10,28.3,20,39.3s110,67.3,120.7,66.3s19.3,1.7,28.3,3   s52,27,56.3,30.7s13.3,24.7,19.3,31s64.3,36.3,64.3,36.3s3.7,2.7,3.7,9S581,848,580,862s12.3,66.3,12.3,66.3s-0.3,6.3-3,15.3   s-12.7,22.3-15,27.3S564,990,558,992.7s-15.7,2-15.7,2"
   id="path62"
   stroke-width="4"
   stroke="#4580B7"
   fill="none" />
	<path
   d="M892.3,935.3l-42.7,3c0,0-22.3-0.7-40.7-8   s-30-4.3-38.7-3.7s-60,13-70.3,15.3s-26.7,6.7-46.7,4.7s-60.3-13.7-61-18.3"
   id="path64"
   stroke-dasharray="2"
   stroke-width="4"
   stroke="#437CBA"
   fill="none" />
	<polyline
   id="line84_31_"
   points="153.4,161.1 152.8,156.3    152.6,154.4  "
   stroke-dasharray="2"
   stroke-width="4"
   stroke="#437CBA"
   fill="none" />
	<polyline
   id="line84_1_"
   points="186.7,163.5 189.1,159.4    190.1,157.7  "
   stroke-dasharray="2"
   stroke-width="4"
   stroke="#437CBA"
   fill="none" />
	<polyline
   id="line84_2_"
   points="218.1,194.6 222.4,192.4    224.1,191.5  "
   stroke-dasharray="2"
   stroke-width="4"
   stroke="#437CBA"
   fill="none" />
	<polyline
   id="line84_3_"
   points="223.1,227.3 227.8,228.2    229.7,228.6  "
   stroke-dasharray="2"
   stroke-width="4"
   stroke="#437CBA"
   fill="none" />
	<polyline
   id="line84_13_"
   points="177.9,426.8 182.6,428 184.4,428.6  "
   stroke-width="4"
   stroke="#45B549"
   fill="none" />
	<polyline
   id="line84_14_"
   points="272.1,566.6 274.4,562.4 275.4,560.7  "
   stroke-width="4"
   stroke="#45B549"
   fill="none" />
	<g
   id="g72">
		<g
   id="g74">
			<path
   d="M841,989.5c0,0,0,15.1,10.8,23.9s92.5,77.1,92.5,77.1s71.2,48.8,99,58     s54.2,6,58.5,4.5s40-17.2,55-17.8s65.5,2.8,76.5-0.5s368.2-142.2,383.8-145.2s161.5-10.5,173.5-13s29-5.8,45.5-14.6     S2011,841,2011,841"
   id="path76"
   stroke-width="4"
   stroke="#45B549"
   fill="none" />
			<polygon
   points="2012.4,850 2009,849.4 2010.4,841.4 2002.4,840.1 2003,836.7 2014.3,838.7    "
   id="polygon78"
   fill="#45B549" />
		</g>
	</g>
	<polyline
   id="line84_15_"
   points="1194.5,1144.8 1194.6,1139.9 1194.6,1138  "
   transform="translate(0,-0.14662728)"
   style="fill:none;stroke:#45b549;stroke-width:4" />
	<polyline
   id="line84_16_"
   points="1432.7,1067.9 1431,1063.3 1430.3,1061.5  "
   transform="translate(-0.14662728,-0.14662728)"
   style="fill:none;stroke:#45b549;stroke-width:4" />
	<polyline
   id="line84_17_"
   points="1588.2,1008.8 1586.6,1004.3 1585.9,1002.4  "
   stroke-width="4"
   stroke="#45B549"
   fill="none" />
	<polyline
   id="line84_18_"
   points="554.8,1187.7 552.3,1183.5 551.3,1181.8  "
   stroke-width="4"
   stroke="#45B549"
   fill="none" />
	<polyline
   id="line84_19_"
   points="315,1342.3 311.5,1339 310.1,1337.6  "
   transform="translate(0.14662728,0.14662728)"
   style="fill:none;stroke:#45b549;stroke-width:4" />
	<polyline
   id="line84_20_"
   points="828.2,838.7 828.8,833.9 829,832  "
   transform="translate(0,0.29325456)"
   style="fill:none;stroke:#e9242d;stroke-width:4" />
	<polyline
   id="line84_21_"
   points="896.8,848.8 897.4,844 897.6,842  "
   stroke-width="4"
   stroke="#E9242D"
   fill="none" />
	<polyline
   id="line84_22_"
   points="962.4,874.3 964.2,869.9 965,868.1  "
   transform="translate(0,0.29325456)"
   style="fill:none;stroke:#e9242d;stroke-width:4" />
	<polyline
   id="line84_23_"
   points="1012.3,900.2 1010.3,895.8 1009.4,894  "
   stroke-width="4"
   stroke="#E9242D"
   fill="none" />
	<polyline
   id="line84_24_"
   points="1057.8,868.1 1054.7,864.3 1053.5,862.8  "
   stroke-width="4"
   stroke="#E9242D"
   fill="none" />
	<polyline
   id="line84_25_"
   points="1110.8,837.8 1110.2,833 1110,831.1  "
   stroke-width="4"
   stroke="#E9242D"
   fill="none" />
	<polyline
   id="line84_26_"
   points="1164,813.7 1164,808.9 1164,806.9  "
   stroke-width="4"
   stroke="#E9242D"
   fill="none" />
	<polyline
   id="line84_27_"
   points="1212.3,814.8 1212.7,810 1212.8,808  "
   stroke-width="4"
   stroke="#E9242D"
   fill="none" />
	<polyline
   id="line84_28_"
   points="1229.2,858 1224.3,857.9 1222.4,857.9  "
   transform="translate(-0.41472458,0)"
   style="fill:none;stroke:#e9242d;stroke-width:4" />
	<polyline
   id="line84_29_"
   points="1236.8,909.6 1241.2,907.5 1243,906.7  "
   stroke-width="4"
   stroke="#E9242D"
   fill="none" />
	<polyline
   id="line84_30_"
   points="1289.3,961.9 1291.6,966.1 1292.6,967.8  "
   transform="translate(-0.10368114,-0.10368114)"
   style="fill:none;stroke:#e9242d;stroke-width:4" />
	<polyline
   id="line84_32_"
   points="1317.1,914.9 1321.9,915.2 1323.9,915.4  "
   inkscape:transform-center-x="-0.82944916"
   style="fill:none;stroke:#e9242d;stroke-width:4"
   transform="translate(-0.20736229,0)" />
	<polyline
   id="line84_33_"
   points="1309.6,822.8 1314.4,823.5 1316.3,823.7  "
   transform="translate(-0.29325456,-0.14662728)"
   style="fill:none;stroke:#e9242d;stroke-width:4" />
	<polyline
   id="line84_34_"
   points="1319,754.9 1323.8,755.6 1325.7,755.8  "
   stroke-width="4"
   stroke="#E9242D"
   fill="none" />
	<polyline
   id="line84_35_"
   points="1330.2,705.3 1334.8,706.6 1336.7,707.1  "
   transform="translate(-0.14662728,0)"
   style="fill:none;stroke:#e9242d;stroke-width:4" />
	<polyline
   id="line84_36_"
   points="1364.8,646.7 1366.2,651.3 1366.8,653.2  "
   transform="translate(0,0.14662728)"
   style="fill:none;stroke:#e9242d;stroke-width:4" />
	<polyline
   id="line84_37_"
   points="1422.2,633.4 1423,638.2 1423.3,640.2  "
   transform="translate(0.14662728,0.29325456)"
   style="fill:none;stroke:#e9242d;stroke-width:4" />
	<path
   d="M1523.5,624.7c0,0,1.9,7.9,5.3,10s4.5,2.2,4.5,2.2"
   id="path102"
   stroke-width="4"
   stroke="#E9242D"
   fill="none" />
	
		<rect
   x="1528.6"
   y="627.3"
   transform="matrix(-0.9604 0.2787 -0.2787 -0.9604 3207.2556 820.0836)"
   width="33.5"
   height="21.6"
   id="rect104"
   stroke-width="4"
   stroke="#E9242D"
   fill="#E9242D" />
	<polyline
   id="line84_38_"
   points="724.8,932.9 723.6,928.2    723.1,926.3  "
   stroke-dasharray="2"
   stroke-width="4"
   stroke="#437CBA"
   fill="none" />
	
		<line
   id="line86_2_"
   x1="894.8"
   y1="925.5"
   x2="896.1"
   y2="945"
   stroke-dasharray="2"
   stroke-width="4"
   stroke="#437CBA"
   fill="none" />
	
		<line
   id="line86_1_"
   x1="98.8"
   y1="163.3"
   x2="102"
   y2="182.5"
   stroke-dasharray="2"
   stroke-width="4"
   stroke="#437CBA"
   fill="none" />
	<line
   id="line86_3_"
   x1="232.5"
   y1="275.6"
   x2="214.1"
   y2="269.1"
   stroke-width="4"
   stroke="#45B549"
   fill="none" />
	<line
   id="line86_4_"
   x1="1971.7"
   y1="358.9"
   x2="1991.2"
   y2="360.9"
   stroke-width="4"
   stroke="#E9242D"
   fill="none" />
	<line
   id="line86_5_"
   x1="128.6"
   y1="1531.4"
   x2="143"
   y2="1544.6"
   stroke-width="4"
   stroke="#45B549"
   fill="none" />
	<path
   d="M259.1,628.3"
   id="path112"
   stroke-width="2"
   stroke="#000000"
   fill="none" />
	<g
   id="g114">
		<polyline
   points="244.2,643.6 248.2,646.1 252.3,648.7   "
   id="polyline116"
   stroke-width="2"
   stroke="#000000"
   fill="none" />
		<line
   x1="248.2"
   y1="646.1"
   x2="259.5"
   y2="628.4"
   id="line118"
   stroke-width="2"
   stroke="#000000"
   fill="none" />
		<polyline
   points="255.5,625.8 259.5,628.4 263.5,630.9   "
   id="polyline120"
   stroke-width="2"
   stroke="#000000"
   fill="none" />
	</g>
	<g
   id="g122">
		<polyline
   points="281.3,675.7 285,678.7 288.8,681.6   "
   id="polyline124"
   stroke-width="2"
   stroke="#000000"
   fill="none" />
		<line
   x1="285"
   y1="678.7"
   x2="298.1"
   y2="662.1"
   id="line126"
   stroke-width="2"
   stroke="#000000"
   fill="none" />
		<polyline
   points="294.4,659.2 298.1,662.1 301.8,665.1   "
   id="polyline128"
   stroke-width="2"
   stroke="#000000"
   fill="none" />
	</g>
	<g
   id="g130">
		<polyline
   points="391,749 395.3,750.9 399.6,752.8   "
   id="polyline132"
   stroke-width="2"
   stroke="#000000"
   fill="none" />
		<line
   x1="395.3"
   y1="750.9"
   x2="409.9"
   y2="718.2"
   id="line134"
   stroke-width="2"
   stroke="#000000"
   fill="none" />
		<polyline
   points="405.5,716.3 409.9,718.2 414.2,720.2   "
   id="polyline136"
   stroke-width="2"
   stroke="#000000"
   fill="none" />
	</g>
	<ellipse
   cx="403.3"
   cy="707.3"
   rx="4.9"
   ry="5"
   id="ellipse138"
   stroke-width="3"
   stroke="#000000"
   fill="#FFFFFF"
   d="m 408.19999,707.29999 c 0,2.76142 -2.19381,5 -4.9,5 -2.7062,0 -4.9,-2.23858 -4.9,-5 0,-2.76143 2.1938,-5 4.9,-5 2.70619,0 4.9,2.23857 4.9,5 z" />
	<path
   d="M498.1,669.1c-0.6,1.3-0.5,2.8,0.3,3.9c-0.3,0.5-0.6,1.1-0.8,1.6   c-0.4,0.8-0.8,1.6-1.1,2.4c-1.4,0.1-2.7,0.8-3.3,2.2c-1,2-0.1,4.3,1.9,5.3c2,1,4.4,0.2,5.3-1.8c0.6-1.3,0.5-2.8-0.3-4   c0.4-0.7,0.8-1.5,1.2-2.3c0.3-0.6,0.5-1.1,0.8-1.6c1.4-0.1,2.6-0.9,3.3-2.2c1-2,0.1-4.3-1.9-5.3   C501.5,666.3,499.1,667.1,498.1,669.1z"
   id="path140"
   stroke-width="2"
   stroke="#000000"
   fill="#FFFFFF" />
	<path
   d="M721.5,773.8c-0.6,1.3-0.5,2.8,0.3,3.9c-0.3,0.5-0.6,1.1-0.8,1.6   c-0.4,0.8-0.8,1.6-1.1,2.4c-1.4,0.1-2.7,0.8-3.3,2.2c-1,2-0.1,4.3,1.9,5.3c2,1,4.4,0.2,5.3-1.8c0.6-1.3,0.5-2.8-0.3-4   c0.4-0.7,0.8-1.5,1.2-2.3c0.3-0.6,0.5-1.1,0.8-1.6c1.4-0.1,2.6-0.9,3.3-2.2c1-2,0.1-4.3-1.9-5.3   C724.8,771.1,722.5,771.9,721.5,773.8z"
   id="path142"
   stroke-width="2"
   stroke="#000000"
   fill="#FFFFFF" />
	<polyline
   id="line84_39_"
   points="195.3,279.7 199.9,281.4    201.7,282.1  "
   stroke-dasharray="2"
   stroke-width="4"
   stroke="#437CBA"
   fill="none" />
	<g
   id="g145">
		<polyline
   points="41.2,40.8 45.2,43.3 49.2,45.9   "
   id="polyline147"
   stroke-width="2"
   stroke="#000000"
   fill="none" />
		<line
   x1="45.2"
   y1="43.3"
   x2="59.9"
   y2="20.2"
   id="line149"
   stroke-width="2"
   stroke="#000000"
   fill="none" />
		<polyline
   points="55.9,17.6 59.9,20.2 63.9,22.7   "
   id="polyline151"
   stroke-width="2"
   stroke="#000000"
   fill="none" />
	</g>
	<ellipse
   cx="843.9"
   cy="937.9"
   rx="4.9"
   ry="5"
   id="ellipse153"
   stroke-width="3"
   stroke="#000000"
   fill="#FFFFFF"
   d="m 848.80002,937.90002 c 0,2.76143 -2.1938,5 -4.9,5 -2.70619,0 -4.9,-2.23857 -4.9,-5 0,-2.76142 2.19381,-5 4.9,-5 2.7062,0 4.9,2.23858 4.9,5 z" />
</g>
<g
   id="text">
	<text
   id="Cavaleri_4_"
   transform="matrix(0.9792 0 0 1 64.4062 172.918)"
   enable-background="new    "><tspan
     x="0"
     y="0"
     font-size="11"
     id="tspan157"
     font-family="'ArialMT'"
     fill="#010101">Oued</tspan><tspan
     x="-11"
     y="13.2"
     font-size="11"
     id="tspan159"
     font-family="'ArialMT'"
     fill="#010101">Koreïch</tspan></text>

	<text
   id="Cavaleri_1_"
   transform="matrix(0.9792 0 0 1 139.8433 137.7334)"
   enable-background="new    "><tspan
     x="0"
     y="0"
     font-size="11"
     id="tspan162"
     font-family="'ArialMT'"
     fill="#010101">Bab </tspan><tspan
     x="-8.6"
     y="13.2"
     font-size="11"
     id="tspan164"
     font-family="'ArialMT'"
     fill="#010101">El Oued</tspan></text>

	
		<text
   id="Cavaleri_2_"
   transform="matrix(0.9792 0 0 1 193.5708 157.7695)"
   font-size="11"
   font-family="'ArialMT'"
   fill="#010101">Abderrahmane Taleb</text>

	
		<text
   id="Cavaleri_3_"
   transform="matrix(0.9792 0 0 1 229.4023 193.0215)"
   font-size="11"
   font-family="'ArialMT'"
   fill="#010101">Place des Martyrs</text>

	
		<text
   id="Cavaleri_5_"
   transform="matrix(0.9792 0 0 1 237.5713 278.6875)"
   font-size="11"
   font-family="'ArialMT'"
   fill="#010101">Gare d’Alger</text>

	
		<text
   id="Cavaleri_6_"
   transform="scale(0.98954535,1.0105651)"
   font-size="11"
   x="101.68911"
   y="279.18713"
   style="font-size:10.88499928px;fill:#010101;font-family:ArialMT">Emir Abdelkader</text>

	<text
   id="Cavaleri_7_"
   transform="scale(0.98954535,1.0105651)"
   enable-background="new    "
   x="251.6067"
   y="359.9577"
   style="font-size:11.87454414px"><tspan
     x="179.72745"
     y="359.9577"
     font-size="11"
     id="tspan171"
     style="font-size:10.88499928px;text-align:end;text-anchor:end;fill:#010101;font-family:ArialMT">Tafourah - Grande Poste</tspan></text>

	<text
   id="Cavaleri_8_"
   transform="scale(0.98954535,1.0105651)"
   font-size="11"
   x="31.174957"
   y="447.75314"
   style="font-size:10.88499928px;fill:#010101;font-family:ArialMT">Khelifa Boukhalfa</text>

	
		<text
   id="Cavaleri_9_"
   transform="scale(0.98954535,1.0105651)"
   font-size="11"
   x="102.77713"
   y="518.08374"
   style="font-size:10.88499928px;fill:#010101;font-family:ArialMT">1er Mai</text>

	
		<text
   id="Cavaleri_10_"
   transform="scale(0.98954535,1.0105651)"
   font-size="11"
   x="129.40549"
   y="557.83813"
   style="font-size:10.88499928px;fill:#010101;font-family:ArialMT">Aïssat Idir</text>

	
		<text
   id="Cavaleri_11_"
   transform="scale(0.98954535,1.0105651)"
   font-size="11"
   x="209.258"
   y="597.81299"
   style="font-size:10.88499928px;fill:#010101;font-family:ArialMT">Hamma</text>

	<text
   id="Cavaleri_12_"
   transform="scale(0.98954535,1.0105651)"
   enable-background="new    "
   x="167.04915"
   y="625.22699"
   style="font-size:11.87454414px"><tspan
     x="167.04915"
     y="625.22699"
     font-size="11"
     id="tspan180"
     style="font-size:10.88499928px;fill:#010101;font-family:ArialMT">Téléphérique</tspan><tspan
     x="128.35793"
     y="638.289"
     font-size="11"
     id="tspan182"
     style="font-size:10.88499928px;fill:#010101;font-family:ArialMT">Hamma - El Madania</tspan></text>

	<text
   id="Cavaleri_13_"
   transform="scale(0.98954535,1.0105651)"
   enable-background="new    "
   x="207.64873"
   y="676.0083"
   style="font-size:11.87454414px"><tspan
     x="207.64873"
     y="676.0083"
     font-size="11"
     id="tspan185"
     style="font-size:10.88499928px;fill:#010101;font-family:ArialMT">Téléphérique</tspan><tspan
     x="148.96869"
     y="689.07031"
     font-size="11"
     id="tspan187"
     style="font-size:10.88499928px;fill:#010101;font-family:ArialMT">Jardin d’Essai - Mémorial</tspan></text>

	<text
   id="Cavaleri_14_"
   transform="scale(0.98954535,1.0105651)"
   enable-background="new    "
   x="319.95923"
   y="751.45538"
   style="font-size:11.87454414px"><tspan
     x="319.95923"
     y="751.45538"
     font-size="11"
     id="tspan190"
     style="font-size:10.88499928px;fill:#010101;font-family:ArialMT">Téléphérique</tspan><tspan
     x="228.62421"
     y="764.5174"
     font-size="11"
     id="tspan192"
     style="font-size:10.88499928px;fill:#010101;font-family:ArialMT">Oued Knis - Palais de la Culture</tspan></text>

	
		<text
   id="Cavaleri_15_"
   transform="scale(0.98954535,1.0105651)"
   font-size="11"
   x="338.03378"
   y="714.93811"
   style="font-size:10.88499928px;fill:#010101;font-family:ArialMT">Les Fusillés</text>

	
		<text
   id="Cavaleri_16_"
   transform="scale(0.98954535,1.0105651)"
   font-size="11"
   x="482.49765"
   y="819.75128"
   style="font-size:10.88499928px;fill:#010101;font-family:ArialMT">Cité Mer et Soleil</text>

	
		<text
   id="Cavaleri_17_"
   transform="scale(0.98954535,1.0105651)"
   font-size="11"
   x="516.48981"
   y="885.46588"
   style="font-size:10.88499928px;fill:#010101;font-family:ArialMT">Haï el Badr</text>

	<text
   transform="scale(0.98954535,1.0105651)"
   font-size="11"
   id="text197"
   x="489.97485"
   y="1012.6337"
   style="font-size:10.88499928px;fill:#010101;font-family:ArialMT">Dépot du Metro</text>

	<text
   transform="matrix(0.9792 0 0 1 681.5713 917.9854)"
   font-size="11"
   id="text199"
   font-family="'ArialMT'"
   fill="#010101">Cité d’Urgence</text>

	<text
   transform="scale(0.98954535,1.0105651)"
   id="text201"
   x="792.21521"
   y="945.35516"
   style="font-size:11.87454414px"><tspan
     x="792.21521"
     y="945.35516"
     font-size="11"
     id="tspan203"
     style="font-size:10.88499928px;fill:#010101;font-family:ArialMT">El Harrach</tspan><tspan
     x="819.42767"
     y="958.41711"
     font-size="11"
     id="tspan205"
     style="font-size:10.88499928px;fill:#010101;font-family:ArialMT">Gare</tspan></text>

	<text
   transform="scale(0.98954535,1.0105651)"
   font-size="11"
   id="text207"
   x="448.18945"
   y="1163.3461"
   style="font-size:10.88499928px;fill:#010101;font-family:ArialMT">Gué de Constantine</text>

	<text
   transform="scale(0.98954535,1.0105651)"
   font-size="11"
   id="text209"
   x="252.74918"
   y="1318.4091"
   style="font-size:10.88499928px;fill:#010101;font-family:ArialMT">Aïn Naadja</text>

	<text
   transform="scale(0.98954535,1.0105651)"
   font-size="11"
   id="text211"
   x="85.56707"
   y="1535.6353"
   style="font-size:10.88499928px;fill:#010101;font-family:ArialMT">Baba Ali</text>

	<text
   transform="matrix(0.9792 0 0 1 1166.4883 1160.7354)"
   font-size="11"
   id="text213"
   font-family="'ArialMT'"
   fill="#010101">Oued Smar</text>

	<text
   transform="matrix(0.9792 0 0 1 1436.5645 1081.7354)"
   id="text215"><tspan
     x="0"
     y="0"
     font-size="11"
     id="tspan217"
     font-family="'ArialMT'"
     fill="#010101">Bab Ezzouar</tspan><tspan
     x="0"
     y="13.2"
     font-size="11"
     id="tspan219"
     font-family="'ArialMT'"
     fill="#010101">Gare</tspan></text>

	<text
   transform="matrix(0.9792 0 0 1 1590.8145 1019.7354)"
   font-size="11"
   id="text221"
   font-family="'ArialMT'"
   fill="#010101">Dar El Beida</text>

	<text
   transform="matrix(0.9792 0 0 1 1966.3145 826.4854)"
   font-size="11"
   id="text223"
   font-family="'ArialMT'"
   fill="#010101">Reghaïa</text>

	<text
   transform="matrix(0.9792 0 0 1 1949.7598 375.3203)"
   id="text225"><tspan
     x="0"
     y="0"
     font-size="11"
     id="tspan227"
     font-family="'ArialMT'"
     fill="#010101">Terminus </tspan><tspan
     x="0"
     y="13.2"
     font-size="11"
     id="tspan229"
     font-family="'ArialMT'"
     fill="#010101">Dergana</tspan></text>

	<text
   transform="matrix(0.9792 0 0 1 1572.7598 636.875)"
   id="text231"><tspan
     x="0"
     y="0"
     font-size="11"
     id="tspan233"
     font-family="'ArialMT'"
     fill="#010101">Dépot des</tspan><tspan
     x="0"
     y="13.2"
     font-size="11"
     id="tspan235"
     font-family="'ArialMT'"
     fill="#010101">Tramways</tspan></text>

	<text
   transform="matrix(0.9792 0 0 1 1405.5098 613.375)"
   id="text237"><tspan
     x="0"
     y="0"
     font-size="11"
     id="tspan239"
     font-family="'ArialMT'"
     fill="#010101">Bordj El Kiffan </tspan><tspan
     x="0"
     y="13.2"
     font-size="11"
     id="tspan241"
     font-family="'ArialMT'"
     fill="#010101">1er Novembre</tspan></text>

	<text
   transform="matrix(0.9792 0 0 1 1310.7588 626.5645)"
   id="text243"><tspan
     x="0"
     y="0"
     font-size="11"
     id="tspan245"
     font-family="'ArialMT'"
     fill="#010101">Bordj El Kiffan</tspan><tspan
     x="36.7"
     y="13.2"
     font-size="11"
     id="tspan247"
     font-family="'ArialMT'"
     fill="#010101">Centre</tspan></text>

	<text
   transform="matrix(0.9792 0 0 1 1341.5098 705.2881)"
   id="text249"><tspan
     x="0"
     y="0"
     font-size="11"
     id="tspan251"
     font-family="'ArialMT'"
     fill="#010101">Bordj El Kiffan </tspan><tspan
     x="0"
     y="13.2"
     font-size="11"
     id="tspan253"
     font-family="'ArialMT'"
     fill="#010101">Palace Center</tspan></text>

	<text
   transform="matrix(0.9792 0 0 1 1331.2598 755.8467)"
   id="text255"><tspan
     x="0"
     y="0"
     font-size="11"
     id="tspan257"
     font-family="'ArialMT'"
     fill="#010101">Cité 8 Mai 1945 - </tspan><tspan
     x="0"
     y="13.2"
     font-size="11"
     id="tspan259"
     font-family="'ArialMT'"
     fill="#010101">Pompiers</tspan></text>

	<text
   transform="matrix(0.9792 0 0 1 1320.2832 820.625)"
   id="text261"><tspan
     x="0"
     y="0"
     font-size="11"
     id="tspan263"
     font-family="'ArialMT'"
     fill="#010101">Cité Universitaire - </tspan><tspan
     x="0"
     y="13.2"
     font-size="11"
     id="tspan265"
     font-family="'ArialMT'"
     fill="#010101">CUB 1</tspan></text>

	<text
   transform="matrix(0.9792 0 0 1 1232.5586 855.375)"
   id="text267"><tspan
     x="0"
     y="0"
     font-size="11"
     id="tspan269"
     font-family="'ArialMT'"
     fill="#010101">Les </tspan><tspan
     x="0"
     y="13.2"
     font-size="11"
     id="tspan271"
     font-family="'ArialMT'"
     fill="#010101">Bananiers</tspan></text>

	<text
   transform="matrix(0.9792 0 0 1 1327.5098 912.625)"
   id="text273"><tspan
     x="0"
     y="0"
     font-size="11"
     id="tspan275"
     font-family="'ArialMT'"
     fill="#010101">APC Bab Ezzouar - </tspan><tspan
     x="0"
     y="13.2"
     font-size="11"
     id="tspan277"
     font-family="'ArialMT'"
     fill="#010101">CUB 3</tspan></text>

	<text
   transform="matrix(0.9792 0 0 1 1267.1133 979.875)"
   id="text279"><tspan
     x="0"
     y="0"
     font-size="11"
     id="tspan281"
     font-family="'ArialMT'"
     fill="#010101">Université </tspan><tspan
     x="-24.2"
     y="13.2"
     font-size="11"
     id="tspan283"
     font-family="'ArialMT'"
     fill="#010101">Houari Boumediene </tspan><tspan
     x="3.7"
     y="26.4"
     font-size="11"
     id="tspan285"
     font-family="'ArialMT'"
     fill="#010101">(USTHB)</tspan></text>

	<text
   transform="scale(0.98954535,1.0105651)"
   font-size="11"
   id="text287"
   x="1149.2242"
   y="905.78961"
   style="font-size:10.88499928px;fill:#010101;font-family:ArialMT">BEZ - Rabia Tahar</text>

	<text
   transform="matrix(0.9792 0 0 1 1057.8223 879.625)"
   font-size="11"
   id="text289"
   font-family="'ArialMT'"
   fill="#010101">Cinq Maisons</text>

	<text
   transform="matrix(0.9792 0 0 1 985.3223 914.375)"
   font-size="11"
   id="text291"
   font-family="'ArialMT'"
   fill="#010101">INA / EPAU</text>

	<text
   transform="matrix(0.9792 0 0 1 1210.3223 788.625)"
   id="text293"><tspan
     x="0"
     y="0"
     font-size="11"
     id="tspan295"
     font-family="'ArialMT'"
     fill="#010101">Les Bananiers -</tspan><tspan
     x="0"
     y="13.2"
     font-size="11"
     id="tspan297"
     font-family="'ArialMT'"
     fill="#010101">Lycée</tspan></text>

	<text
   transform="matrix(0.9792 0 0 1 1107.9922 850.125)"
   font-size="11"
   id="text299"
   font-family="'ArialMT'"
   fill="#010101">Les Pins / Safes</text>

	<text
   transform="matrix(0.9792 0 0 1 1125.0723 801.375)"
   font-size="11"
   id="text301"
   font-family="'ArialMT'"
   fill="#010101">Les Mandarines</text>

	<text
   transform="matrix(0.9792 0 0 1 964.9736 865.4375)"
   font-size="11"
   id="text303"
   font-family="'ArialMT'"
   fill="#010101">Les Dunes</text>

	<text
   transform="matrix(0.9792 0 0 1 897.6289 838.748)"
   font-size="11"
   id="text305"
   font-family="'ArialMT'"
   fill="#010101">Bellevue</text>

	<text
   transform="matrix(0.9792 0 0 1 828.2168 826.7744)"
   font-size="11"
   id="text307"
   font-family="'ArialMT'"
   fill="#010101">Oued El Harrach</text>

	<text
   transform="matrix(0.9792 0 0 1 729.0957 753.125)"
   id="text309"><tspan
     x="0"
     y="0"
     font-size="11"
     id="tspan311"
     font-family="'ArialMT'"
     fill="#010101">Caroubier / </tspan><tspan
     x="0"
     y="13.2"
     font-size="11"
     id="tspan313"
     font-family="'ArialMT'"
     fill="#010101">Kharouba</tspan></text>

	<text
   transform="matrix(0.9792 0 0 1 505.7207 661.125)"
   font-size="11"
   id="text315"
   font-family="'ArialMT'"
   fill="#010101">Hussein Dey</text>

	<text
   transform="matrix(0.9792 0 0 1 283.9961 560.6953)"
   font-size="11"
   id="text317"
   font-family="'ArialMT'"
   fill="#010101">Ateliers</text>

	<text
   transform="matrix(0.9792 0 0 1 304.9766 630.9033)"
   id="text319"><tspan
     x="0"
     y="0"
     font-size="11"
     id="tspan321"
     font-family="'ArialMT'"
     fill="#010101">Jardin </tspan><tspan
     x="0"
     y="13.2"
     font-size="11"
     id="tspan323"
     font-family="'ArialMT'"
     fill="#010101">d’Essai</tspan></text>

	<text
   transform="matrix(0.9792 0 0 1 189.0469 433.125)"
   font-size="11"
   id="text325"
   font-family="'ArialMT'"
   fill="#010101">Agha</text>

	<text
   transform="matrix(0.9792 0 0 1 232.4639 232.625)"
   font-size="11"
   id="text327"
   font-family="'ArialMT'"
   fill="#010101">Casbah</text>

	<text
   id="Cavaleri_18_"
   transform="matrix(0.9792 0 0 1 63.9297 43.3262)"
   enable-background="new    "><tspan
     x="0"
     y="0"
     font-size="11"
     id="tspan330"
     font-family="'ArialMT'"
     fill="#010101">Téléphérique de</tspan><tspan
     x="0"
     y="13.2"
     font-size="11"
     id="tspan332"
     font-family="'ArialMT'"
     fill="#010101">Notre Dame d’Afrique</tspan></text>

	<text
   id="Cavaleri_19_"
   transform="scale(0.98954535,1.0105651)"
   enable-background="new    "
   x="473.07379"
   y="756.57312"
   style="font-size:11.87454414px"><tspan
     x="473.07379"
     y="756.57312"
     font-size="11"
     id="tspan335"
     style="font-size:10.88499928px;fill:#010101;font-family:ArialMT">Cité</tspan><tspan
     x="440.41879"
     y="769.63513"
     font-size="11"
     id="tspan337"
     style="font-size:10.88499928px;fill:#010101;font-family:ArialMT">Amirouche</tspan></text>

	
		<text
   id="Cavaleri_20_"
   transform="matrix(0.9792 0 0 1 908.438 686.8164)"
   font-size="20"
   font-family="'ArialMT'"
   fill="#010101">Bay of Algiers</text>

	<text
   transform="scale(0.98954535,1.0105651)"
   id="text340"
   x="914.09497"
   y="922.30621"
   style="font-size:11.87454414px"><tspan
     x="914.09497"
     y="922.30621"
     font-size="11"
     id="tspan342"
     style="font-size:10.88499928px;fill:#010101;font-family:ArialMT">El Harrach</tspan><tspan
     x="914.09497"
     y="935.36816"
     font-size="11"
     id="tspan344"
     style="font-size:10.88499928px;fill:#010101;font-family:ArialMT">Marché</tspan></text>

</g>
</svg>