<?xml version="1.0" encoding="UTF-8" standalone="no"?>
<svg
   xmlns:dc="http://purl.org/dc/elements/1.1/"
   xmlns:cc="http://creativecommons.org/ns#"
   xmlns:rdf="http://www.w3.org/1999/02/22-rdf-syntax-ns#"
   xmlns:svg="http://www.w3.org/2000/svg"
   xmlns="http://www.w3.org/2000/svg"
   xmlns:sodipodi="http://sodipodi.sourceforge.net/DTD/sodipodi-0.dtd"
   xmlns:inkscape="http://www.inkscape.org/namespaces/inkscape"
   version="1.1"
   x="0px"
   y="0px"
   viewBox="0 0 2000 1200"
   xml:space="preserve"
   id="svg13289"
   sodipodi:docname="Algiers Metro - Diagram Line 1 - January 2022 - fr.svg"
   inkscape:version="1.0.2-2 (e86c870879, 2021-01-15)"
   inkscape:export-filename="D:\__Wait__\WP\Cartes et plans\Cartes réseaux DZ\Métro d'Alger\Algiers Metro - Diagram Line 1 - January 2022 - fr.png"
   inkscape:export-xdpi="96"
   inkscape:export-ydpi="96"
   width="2000"
   height="1200"><metadata
   id="metadata140"><rdf:RDF><cc:Work
       rdf:about=""><dc:format>image/svg+xml</dc:format><dc:type
         rdf:resource="http://purl.org/dc/dcmitype/StillImage" /><dc:title>Schéma de la ligne 1 du métro d'Alger</dc:title><dc:date>23/01/2022</dc:date><dc:creator><cc:Agent><dc:title>Poudou99</dc:title></cc:Agent></dc:creator><dc:rights><cc:Agent><dc:title>CC-BY-SA</dc:title></cc:Agent></dc:rights></cc:Work></rdf:RDF></metadata><title
   id="title13299">Schéma de la ligne 1 du métro d'Alger</title><defs
   id="defs13293"><rect
     x="113.40766"
     y="320.20987"
     width="1296.5923"
     height="379.79013"
     id="rect13724" /><style
     id="style905">.cls-1{fill:#6599cc;}</style><style
     id="style2">.cls-1{fill:#69c;}.cls-2{font-size:210.9px;fill:#fff;font-family:ParisineStd-Bold, Parisine Std;font-weight:700;}</style><style
     id="style945">.cls-1{fill:#69c;}</style><style
     id="style987">.cls-1{fill:#e30021;}</style><style
     id="style1030">.cls-1{fill:#52a83e;}</style><style
     id="style1053">.cls-1{fill:#fff;stroke:#bc1f29;stroke-width:14.22px;}.cls-2{isolation:isolate;}.cls-3{fill:#bc1f29;}</style><style
     id="style2-6">.cls-1{fill:#6599cc;}</style><style
     id="style2-0">.cls-1{fill:#69c;}</style><style
     id="style2-5">.cls-1{fill:#6599cc;}</style><style
     id="style2-56">.cls-1{fill:#fff;stroke:#bc1f29;stroke-width:14.22px;}.cls-2{isolation:isolate;}.cls-3{fill:#bc1f29;}</style><style
     id="style2-1">.cls-1{fill:#52a83e;}</style><style
     id="style2-58">.cls-1{fill:#e30021;}</style></defs><sodipodi:namedview
   pagecolor="#ffffff"
   bordercolor="#666666"
   borderopacity="1"
   objecttolerance="10"
   gridtolerance="10"
   guidetolerance="10"
   inkscape:pageopacity="0"
   inkscape:pageshadow="2"
   inkscape:window-width="1920"
   inkscape:window-height="1046"
   id="namedview13291"
   showgrid="false"
   inkscape:zoom="0.44497182"
   inkscape:cx="831.24934"
   inkscape:cy="741.78145"
   inkscape:window-x="1909"
   inkscape:window-y="-11"
   inkscape:window-maximized="1"
   inkscape:current-layer="layer5"
   inkscape:document-rotation="0"
   inkscape:snap-grids="false" />

<g
   inkscape:groupmode="layer"
   id="layer1"
   inkscape:label="Ligne"
   style="display:inline"><path
     id="path4010_00000178892156370174960630000015037514096659252616_"
     class="st0"
     d="M 110,613 H 1310" /><text
     xml:space="preserve"
     id="text13722"
     style="font-size:48px;line-height:1.25;font-family:sans-serif;-inkscape-font-specification:sans-serif;white-space:pre;shape-inside:url(#rect13724);" /><path
     id="path4010_00000178892156370174960630000015037514096659252616_-5"
     class="st0"
     d="M 120,613.926 H 1320"
     style="display:inline;fill:none;fill-opacity:0;stroke:#6599cc;stroke-width:7.852"
     inkscape:export-xdpi="96"
     inkscape:export-ydpi="96" /><path
     id="path7190_00000116193219061655228240000014624456263192900492_-0"
     class="st1"
     d="m 1320,613.926 v 112.80003 c 0.1,31.7 9.8,37.8 19.6,37.2 H 1620"
     style="clip-rule:evenodd;display:inline;fill:#020203;fill-opacity:0;fill-rule:evenodd;stroke:#6599cc;stroke-width:7.852" /><path
     id="path3787_00000126324894088915727640000007862464048000443315_-3"
     class="st1"
     d="m 1720,463.926 h -379 c -11.1,-0.6 -20.8,5.5 -21,37.2 v 112.8"
     style="clip-rule:evenodd;display:inline;fill:#020203;fill-opacity:0;fill-rule:evenodd;stroke:#6599cc;stroke-width:7.852" /></g><g
   inkscape:groupmode="layer"
   id="layer2"
   inkscape:label="Stations"
   style="display:inline"><circle
     id="circle4511_00000117634386257298258130000017663592785699672960_"
     class="st5"
     cx="1423"
     cy="463"
     r="13"
     style="display:inline;fill:#6599cc;fill-opacity:1" /><circle
     id="circle4029_00000163071319366941341230000012175442425999251382_"
     class="st4"
     cx="1723"
     cy="463"
     r="13"
     style="display:inline;stroke-width:1.05691" /><circle
     id="circle4021_00000092436070596775182150000004948942107902032025_"
     class="st3"
     cx="1623"
     cy="463"
     style="display:inline;fill:#ffffff;fill-opacity:1;stroke:#000000;stroke-width:4.31016;stroke-miterlimit:0;stroke-dasharray:none;stroke-opacity:1"
     r="10.84492" /><circle
     id="circle4511_00000180324224689855503920000005140630855649354418_"
     class="st5"
     cx="1528"
     cy="763.5752"
     r="13.575221"
     style="display:inline;fill:#6599cc;fill-opacity:1;stroke-width:1.04425" /><circle
     id="circle4511_00000032623230321822947690000004198457741986691459_"
     class="st5"
     cx="1423.5752"
     cy="763.5752"
     r="13.575221"
     style="display:inline;fill:#6599cc;fill-opacity:1;stroke-width:1.04425" /><circle
     id="circle4497_00000002373429753435217480000011070925417157815713_"
     class="st2"
     cx="823"
     cy="613"
     r="10.903226"
     style="display:inline;fill:#ffffff;fill-opacity:1;stroke:#000000;stroke-width:4.19355;stroke-miterlimit:0;stroke-dasharray:none;stroke-opacity:1" /><circle
     id="circle4499_00000059298262613909140150000011162075498374630813_"
     class="st3"
     cx="723"
     cy="613"
     r="10.903226"
     style="display:inline;fill:#ffffff;fill-opacity:1;stroke:#000000;stroke-width:4.19355;stroke-miterlimit:0;stroke-dasharray:none;stroke-opacity:1" /><circle
     id="circle4513_00000112630185692171986260000014368425627426094739_"
     class="st4"
     cx="123"
     cy="613"
     r="13"
     style="display:inline" /><circle
     id="circle4511_00000096051528058392231730000000094044777523358642_"
     class="st5"
     cx="323"
     cy="613"
     r="13"
     style="display:inline;fill:#6599cc;fill-opacity:1" /><circle
     id="circle4511_00000061441849218508518600000018185684570298905531_"
     class="st5"
     cx="423"
     cy="613"
     r="13"
     style="display:inline;fill:#6599cc;fill-opacity:1" /><circle
     id="circle4511_00000100382613839272624080000010291264298090773947_"
     class="st5"
     cx="1023"
     cy="613"
     r="13"
     style="display:inline;fill:#6599cc;fill-opacity:1" /><circle
     id="circle4511_00000160886155071199199540000007024413288210487442_"
     class="st5"
     cx="623"
     cy="613"
     r="13"
     style="display:inline;fill:#6599cc;fill-opacity:1" /><circle
     id="circle4507_00000092436432868412426710000002033577727736608445_"
     class="st3"
     cx="923"
     cy="613"
     r="10.903226"
     style="display:inline;fill:#ffffff;fill-opacity:1;stroke:#000000;stroke-width:4.19355;stroke-miterlimit:0;stroke-dasharray:none;stroke-opacity:1" /><circle
     id="circle4511_00000173860489696600614390000014381311627086753680_"
     class="st5"
     cx="223"
     cy="613"
     r="13"
     style="display:inline;fill:#6599cc;fill-opacity:1" /><circle
     id="circle4511_00000106856193269303256630000007933053446387359134_"
     class="st5"
     cx="523"
     cy="613"
     r="13"
     style="display:inline;fill:#6599cc;fill-opacity:1" /><circle
     id="circle4511_00000066501260806478066270000012814887677327213231_"
     class="st5"
     cx="1123"
     cy="613"
     r="13"
     style="display:inline;fill:#6599cc;fill-opacity:1" /><circle
     id="circle4511_00000028301299396013843090000001693282209781964962_"
     class="st5"
     cx="1223"
     cy="613"
     r="13"
     style="display:inline;fill:#6599cc;fill-opacity:1" /><circle
     id="circle4511_00000132045997005998630910000016235359560371664548_"
     class="st5"
     cx="1523"
     cy="463"
     r="13"
     style="display:inline;fill:#6599cc;fill-opacity:1" /><circle
     id="circle3985_00000057134259154008294250000016261182118069603518_"
     class="st4"
     cx="1632.4248"
     cy="763.5752"
     r="13.575221"
     style="display:inline;fill:#000000;fill-opacity:1;stroke-width:1.04425" /></g><g
   inkscape:groupmode="layer"
   id="layer3"
   inkscape:label="Noms stations"
   style="display:inline"
   sodipodi:insensitive="true"><text
     transform="rotate(-59.999272)"
     class="st6 st7 st8"
     id="text13082"
     x="-239.05093"
     y="741.88971"
     style="font-style:normal;font-variant:normal;font-weight:normal;font-stretch:normal;font-size:37.3333px;font-family:sans-serif;-inkscape-font-specification:'sans-serif, Normal';font-variant-ligatures:normal;font-variant-caps:normal;font-variant-numeric:normal;font-variant-east-asian:normal;display:inline;stroke-width:0.999978">1er mai</text><text
     transform="rotate(-59.999272)"
     class="st6 st7 st8"
     id="text13084"
     x="-185.59299"
     y="826.52252"
     style="font-style:normal;font-variant:normal;font-weight:normal;font-stretch:normal;font-size:37.3333px;font-family:sans-serif;-inkscape-font-specification:'sans-serif, Normal';font-variant-ligatures:normal;font-variant-caps:normal;font-variant-numeric:normal;font-variant-east-asian:normal;display:inline;stroke-width:0.999978">Aïssat Idir</text><text
     id="Hamma"
     transform="rotate(-59.999272)"
     class="st6 st7 st8"
     x="-137.98277"
     y="914.47705"
     style="font-style:normal;font-variant:normal;font-weight:normal;font-stretch:normal;font-size:37.3333px;font-family:sans-serif;-inkscape-font-specification:'sans-serif, Normal';font-variant-ligatures:normal;font-variant-caps:normal;font-variant-numeric:normal;font-variant-east-asian:normal;display:inline;stroke-width:0.999978">Hamma</text><text
     transform="rotate(-59.999272)"
     class="st9"
     id="text13093"
     x="-348.75204"
     y="574.28546"
     style="font-style:normal;font-variant:normal;font-weight:normal;font-stretch:normal;font-size:37.3333px;font-family:sans-serif;-inkscape-font-specification:'sans-serif, Normal';font-variant-ligatures:normal;font-variant-caps:normal;font-variant-numeric:normal;font-variant-east-asian:normal;display:inline;stroke-width:0.999978"><tspan
       x="-330.75244"
       y="574.28546"
       class="st6 st7 st8"
       id="tspan13089"
       style="font-style:normal;font-variant:normal;font-weight:normal;font-stretch:normal;font-size:37.3333px;font-family:sans-serif;-inkscape-font-specification:'sans-serif, Normal';font-variant-ligatures:normal;font-variant-caps:normal;font-variant-numeric:normal;font-variant-east-asian:normal;stroke-width:0.999978">Tafourah - Grande Poste	</tspan></text><text
     transform="rotate(-59.999272)"
     class="st6 st7 st8"
     id="text13095"
     x="-385.59753"
     y="480.11475"
     style="font-style:normal;font-variant:normal;font-weight:normal;font-stretch:normal;font-size:37.3333px;font-family:sans-serif;-inkscape-font-specification:'sans-serif, Normal';font-variant-ligatures:normal;font-variant-caps:normal;font-variant-numeric:normal;font-variant-east-asian:normal;display:inline;stroke-width:0.999978">Ali Boumendjel</text><text
     transform="rotate(-59.999272)"
     class="st6 st12 st8"
     id="text13097"
     x="-437.85376"
     y="394.78506"
     style="font-style:normal;font-variant:normal;font-weight:bold;font-stretch:normal;font-size:37.3333px;font-family:sans-serif;-inkscape-font-specification:'sans-serif, Bold';font-variant-ligatures:normal;font-variant-caps:normal;font-variant-numeric:normal;font-variant-east-asian:normal;display:inline;fill:#020203;stroke-width:0.999978"><tspan
       style="font-style:normal;font-variant:normal;font-weight:bold;font-stretch:normal;font-size:37.3333px;font-family:sans-serif;-inkscape-font-specification:'sans-serif, Bold';font-variant-ligatures:normal;font-variant-caps:normal;font-variant-numeric:normal;font-variant-east-asian:normal"
       id="tspan13716">Place des Martyrs</tspan></text><text
     id="Jardin_d_x27_essai"
     transform="rotate(-59.999272)"
     class="st6 st7 st8"
     x="-85.682747"
     y="999.75214"
     style="font-style:normal;font-variant:normal;font-weight:normal;font-stretch:normal;font-size:37.3333px;font-family:sans-serif;-inkscape-font-specification:'sans-serif, Normal';font-variant-ligatures:normal;font-variant-caps:normal;font-variant-numeric:normal;font-variant-east-asian:normal;display:inline;stroke-width:0.999978">Jardin d'essai</text><text
     id="Les_Fusillés"
     transform="rotate(-59.999272)"
     class="st6 st7 st8"
     x="-37.980469"
     y="1087.6808"
     style="font-style:normal;font-variant:normal;font-weight:normal;font-stretch:normal;font-size:37.3333px;font-family:sans-serif;-inkscape-font-specification:'sans-serif, Normal';font-variant-ligatures:normal;font-variant-caps:normal;font-variant-numeric:normal;font-variant-east-asian:normal;display:inline;stroke-width:0.999978">Les Fusillés</text><text
     id="Cité_Amirouche"
     transform="rotate(-59.999272)"
     class="st9"
     x="13.395897"
     y="1173.4888"
     style="font-style:normal;font-variant:normal;font-weight:normal;font-stretch:normal;font-size:37.3333px;font-family:sans-serif;-inkscape-font-specification:'sans-serif, Normal';font-variant-ligatures:normal;font-variant-caps:normal;font-variant-numeric:normal;font-variant-east-asian:normal;display:inline;stroke-width:0.999978">Cité Amirouche</text><text
     id="CMer_et_Soleil"
     transform="rotate(-59.999272)"
     class="st6 st7 st8"
     x="63.397087"
     y="1260.0908"
     style="font-style:normal;font-variant:normal;font-weight:normal;font-stretch:normal;font-size:37.3333px;font-family:sans-serif;-inkscape-font-specification:'sans-serif, Normal';font-variant-ligatures:normal;font-variant-caps:normal;font-variant-numeric:normal;font-variant-east-asian:normal;display:inline;stroke-width:0.999978">Cité Mer et Soleil</text><text
     id="Hamma_00000008865146192903468680000007877884422056323480_"
     transform="rotate(-59.999272)"
     class="st6 st12 st8"
     x="112.02287"
     y="1347.4866"
     style="font-style:normal;font-variant:normal;font-weight:normal;font-stretch:normal;font-size:37.3333px;font-family:sans-serif;-inkscape-font-specification:'sans-serif, Normal';font-variant-ligatures:normal;font-variant-caps:normal;font-variant-numeric:normal;font-variant-east-asian:normal;display:inline;stroke-width:0.999978">Haï El Badr</text><text
     transform="rotate(-59.999272)"
     class="st6 st7 st8"
     id="text13131"
     x="-286.63965"
     y="657.16125"
     style="font-style:normal;font-variant:normal;font-weight:normal;font-stretch:normal;font-size:37.3333px;font-family:sans-serif;-inkscape-font-specification:'sans-serif, Normal';font-variant-ligatures:normal;font-variant-caps:normal;font-variant-numeric:normal;font-variant-east-asian:normal;display:inline;stroke-width:0.999978">Khelifa Boukhalfa</text><text
     id="Hamma_00000087404149051874323640000016664664554081993909_"
     transform="rotate(-59.999272)"
     class="st9"
     x="342.18259"
     y="1445.5408"
     style="font-style:normal;font-variant:normal;font-weight:normal;font-stretch:normal;font-size:37.3333px;font-family:sans-serif;-inkscape-font-specification:'sans-serif, Normal';font-variant-ligatures:normal;font-variant-caps:normal;font-variant-numeric:normal;font-variant-east-asian:normal;display:inline;stroke-width:0.999978"><tspan
       x="342.18259"
       y="1445.5408"
       class="st6 st7 st8"
       id="tspan13109"
       style="font-style:normal;font-variant:normal;font-weight:normal;font-stretch:normal;font-size:37.3333px;font-family:sans-serif;-inkscape-font-specification:'sans-serif, Normal';font-variant-ligatures:normal;font-variant-caps:normal;font-variant-numeric:normal;font-variant-east-asian:normal;stroke-width:0.999978">Bachdjarah - Tennis</tspan></text><text
     id="Hamma_00000013874035985793143960000010593941691776981386_"
     transform="rotate(-59.999272)"
     class="st6 st7 st8"
     x="392.18393"
     y="1532.1431"
     style="font-style:normal;font-variant:normal;font-weight:normal;font-stretch:normal;font-size:37.3333px;font-family:sans-serif;-inkscape-font-specification:'sans-serif, Normal';font-variant-ligatures:normal;font-variant-caps:normal;font-variant-numeric:normal;font-variant-east-asian:normal;display:inline;stroke-width:0.999978">Bachdjarah</text><text
     id="Hamma_00000135670185526160614920000011769861505828204453_"
     transform="rotate(-59.999272)"
     class="st6 st7 st8"
     x="442.18478"
     y="1618.7445"
     style="font-style:normal;font-variant:normal;font-weight:normal;font-stretch:normal;font-size:37.3333px;font-family:sans-serif;-inkscape-font-specification:'sans-serif, Normal';font-variant-ligatures:normal;font-variant-caps:normal;font-variant-numeric:normal;font-variant-east-asian:normal;display:inline;stroke-width:0.999978">El Harrach Gare</text><text
     id="Hamma_00000135668356978411454640000017618763522797320880_"
     transform="rotate(-59.999272)"
     class="st6 st12 st8"
     x="492.32272"
     y="1705.2677"
     style="font-style:normal;font-variant:normal;font-weight:bold;font-stretch:normal;font-size:37.3333px;font-family:sans-serif;-inkscape-font-specification:'sans-serif, Bold';font-variant-ligatures:normal;font-variant-caps:normal;font-variant-numeric:normal;font-variant-east-asian:normal;display:inline;fill:#020203;stroke-width:0.999978"><tspan
       style="font-style:normal;font-variant:normal;font-weight:bold;font-stretch:normal;font-size:37.3333px;font-family:sans-serif;-inkscape-font-specification:'sans-serif, Bold';font-variant-ligatures:normal;font-variant-caps:normal;font-variant-numeric:normal;font-variant-east-asian:normal"
       id="tspan13718">El Harrach Centre</tspan></text><text
     id="Hamma_00000030478647682226118790000011958264717521227650_"
     transform="rotate(-59.999255)"
     class="st9"
     x="-316.75134"
     y="1647.5388"
     style="font-style:normal;font-variant:normal;font-weight:normal;font-stretch:normal;font-size:37.3333px;font-family:sans-serif;-inkscape-font-specification:'sans-serif, Normal';font-variant-ligatures:normal;font-variant-caps:normal;font-variant-numeric:normal;font-variant-east-asian:normal;display:inline;stroke-width:0.999978"><tspan
       x="-316.75134"
       y="1647.5388"
       class="st6 st7 st8"
       id="tspan13121"
       style="font-style:normal;font-variant:normal;font-weight:normal;font-stretch:normal;font-size:37.3333px;font-family:sans-serif;-inkscape-font-specification:'sans-serif, Normal';font-variant-ligatures:normal;font-variant-caps:normal;font-variant-numeric:normal;font-variant-east-asian:normal;stroke-width:0.999978">Halte des Ateliers</tspan></text><text
     id="Hamma_00000136408069326981079150000006128003954576235950_"
     transform="rotate(-59.999255)"
     class="st6 st7 st8"
     x="-297.24496"
     y="1751.6464"
     style="font-style:normal;font-variant:normal;font-weight:normal;font-stretch:normal;font-size:37.3333px;font-family:sans-serif;-inkscape-font-specification:'sans-serif, Normal';font-variant-ligatures:normal;font-variant-caps:normal;font-variant-numeric:normal;font-variant-east-asian:normal;display:inline;stroke-width:0.999978">Gué de Constantine</text><text
     id="Hamma_00000106828260022065672890000013481144086701248658_"
     transform="rotate(-59.999255)"
     class="st6 st12 st8"
     x="-110.41881"
     y="1828.7413"
     style="font-style:normal;font-variant:normal;font-weight:bold;font-stretch:normal;font-size:37.3333px;font-family:sans-serif;-inkscape-font-specification:'sans-serif, Bold';font-variant-ligatures:normal;font-variant-caps:normal;font-variant-numeric:normal;font-variant-east-asian:normal;display:inline;fill:#020203;stroke-width:0.999978"><tspan
       style="font-style:normal;font-variant:normal;font-weight:bold;font-stretch:normal;font-size:37.3333px;font-family:sans-serif;-inkscape-font-specification:'sans-serif, Bold';font-variant-ligatures:normal;font-variant-caps:normal;font-variant-numeric:normal;font-variant-east-asian:normal"
       id="tspan13720">Aïn Naâdja</tspan></text></g><g
   inkscape:groupmode="layer"
   id="layer4"
   inkscape:label="Logos"
   style="display:inline"><path
     id="path4355_00000021818820582319033670000004555662392948735930_"
     class="st16"
     d="m 720.9,630 h 4.2 v 50 h -4.2 z"
     style="display:inline" /><path
     id="path4450_00000009579744281303115250000000634929820619919495_"
     class="st16"
     d="m 820.9,630 h 4.2 v 50 h -4.2 z"
     style="display:inline" /><rect
     id="rect4594_00000049913734205318335090000010677020869625214360_"
     x="920.90002"
     y="630"
     class="st16"
     width="4.1999998"
     height="47.799999"
     style="display:inline" /><rect
     id="rect4594_00000049913734205318335090000010677020869625214360_-8"
     x="1620.9"
     y="480"
     class="st16"
     width="4.1999998"
     height="47.799999"
     style="display:inline" /><g
     id="g873"
     transform="matrix(0.49999061,0,0,0.49999061,220.0012,40.001203)"><g
       id="Calque_2-5"
       data-name="Calque 2"
       style="fill:#ffffff;fill-opacity:1;stroke:none"><g
         id="Calque_1-2-3"
         data-name="Calque 1"
         style="fill:#ffffff;fill-opacity:1;stroke:none"><path
           class="cls-1"
           d="M 243.68,98.14 157.86,12.32 c -16.51659,-16.4298735 -43.20341,-16.4298735 -59.72,0 L 12.32,98.14 c -16.4298735,16.51659 -16.4298735,43.20341 0,59.72 l 85.82,85.82 c 16.51659,16.42987 43.20341,16.42987 59.72,0 l 85.82,-85.82 c 16.42987,-16.51659 16.42987,-43.20341 0,-59.72 z"
           id="path6-9"
           style="fill:#ffffff;fill-opacity:1;stroke:none"
           sodipodi:nodetypes="ccccccccc" /></g></g><g
       id="Calque_2-8"
       data-name="Calque 2"
       style="fill:#6599cc;fill-opacity:1;stroke:none"><g
         id="Calque_1-2"
         data-name="Calque 1"
         style="fill:#6599cc;fill-opacity:1;stroke:none"><path
           class="cls-1"
           d="M 243.68,98.14 157.86,12.32 a 42.34,42.34 0 0 0 -59.72,0 L 12.32,98.14 a 42.34,42.34 0 0 0 0,59.72 l 85.82,85.82 a 42.34,42.34 0 0 0 59.72,0 l 85.82,-85.82 a 42.34,42.34 0 0 0 0,-59.72 z m -91.93,104 H 120 v -117 c -9.12,7.17 -23.54,14.13 -33.5,18.55 L 76.27,80.91 c 15.69,-6.54 34.56,-16.45 49.4,-27.63 h 26.08 z"
           id="path6-3"
           style="fill:#6599cc;fill-opacity:1;stroke:none" /></g></g></g><g
     id="g879"
     transform="translate(40,40)"><g
       id="Calque_2-8-7"
       data-name="Calque 2"
       style="fill:#ffffff;fill-opacity:1;stroke:none"><g
         id="Metro-5"
         style="fill:#ffffff;fill-opacity:1;stroke:none"><g
           id="g2186-2"
           style="fill:#ffffff;fill-opacity:1;stroke:none"><path
             style="fill:#ffffff;fill-opacity:1;stroke:none"
             d="M 111,109.22 101.5,59.84 83.06,110.4 H 77.25 L 58.81,59.84 48.94,109.22 H 33.25 L 51.69,17.59 h 8.62 L 80.13,79.28 99.5,17.59 h 8.56 l 18.69,91.63 z"
             id="path868" /><path
             style="fill:#ffffff;fill-opacity:1;stroke:none"
             d="M 80,0 C 35.82,0 0,28.65 0,64 c 0,35.35 35.82,64 80,64 44.18,0 80,-28.66 80,-64 C 160,28.66 124.18,0 80,0 Z"
             id="path6-7" /></g></g></g><g
       id="Calque_2-85"
       data-name="Calque 2"
       style="fill:#6599cc;fill-opacity:1;stroke:none"><g
         id="Metro-9"
         style="fill:#6599cc;fill-opacity:1;stroke:none"><g
           id="g2186-3"
           style="fill:#6599cc;fill-opacity:1;stroke:none"><path
             class="cls-1"
             d="M 80,0 C 35.82,0 0,28.65 0,64 c 0,35.35 35.82,64 80,64 44.18,0 80,-28.66 80,-64 C 160,28.66 124.18,0 80,0 Z M 111,109.22 101.5,59.84 83.06,110.4 H 77.25 L 58.81,59.84 48.94,109.22 H 33.25 L 51.69,17.59 h 8.62 L 80.13,79.28 99.5,17.59 h 8.56 l 18.69,91.63 z"
             id="path6-31"
             style="fill:#6599cc;fill-opacity:1;stroke:none" /></g></g></g></g><g
     id="g878"
     transform="matrix(0.37497196,0,0,0.37497196,799.00179,684.00179)"><path
       id="path22-0-17-3"
       class="cls-1"
       d="M 92.44,120.89 H 35.56 A 27.94,27.94 0 0 1 7.11,92.44 V 35.56 A 27.94,27.94 0 0 1 35.56,7.11 h 56.88 a 27.94,27.94 0 0 1 28.45,28.45 v 56.88 a 27.94,27.94 0 0 1 -28.45,28.45 z"
       style="fill:#ffffff;fill-opacity:1" /><g
       class="cls-2"
       id="g9"
       style="fill:#bc1f29;fill-opacity:1"><path
         class="cls-3"
         d="M 69.6,40.49 V 98.34 H 57.41 V 40.49 H 35.57 V 29.66 h 56.86 v 10.83 z"
         id="path7"
         style="fill:#bc1f29;fill-opacity:1" /></g></g><g
     id="g878-6"
     transform="matrix(0.37497196,0,0,0.37497196,699.00179,684.00179)"
     style="display:inline"><path
       id="path22-0-17-3-2"
       class="cls-1"
       d="M 92.44,120.89 H 35.56 A 27.94,27.94 0 0 1 7.11,92.44 V 35.56 A 27.94,27.94 0 0 1 35.56,7.11 h 56.88 a 27.94,27.94 0 0 1 28.45,28.45 v 56.88 a 27.94,27.94 0 0 1 -28.45,28.45 z"
       style="fill:#ffffff;fill-opacity:1" /><g
       class="cls-2"
       id="g9-5"
       style="fill:#bc1f29;fill-opacity:1"><path
         class="cls-3"
         d="M 69.6,40.49 V 98.34 H 57.41 V 40.49 H 35.57 V 29.66 h 56.86 v 10.83 z"
         id="path7-8"
         style="fill:#bc1f29;fill-opacity:1" /></g></g><g
     id="g878-6-8"
     transform="matrix(0.37497225,0,0,0.37497196,46.0018,1086.0018)"
     style="display:inline"><path
       id="path22-0-17-3-2-4"
       class="cls-1"
       d="M 92.44,120.89 H 35.56 A 27.94,27.94 0 0 1 7.11,92.44 V 35.56 A 27.94,27.94 0 0 1 35.56,7.11 h 56.88 a 27.94,27.94 0 0 1 28.45,28.45 v 56.88 a 27.94,27.94 0 0 1 -28.45,28.45 z"
       style="fill:#ffffff;fill-opacity:1" /><g
       class="cls-2"
       id="g9-5-3"
       style="fill:#bc1f29;fill-opacity:1"><path
         class="cls-3"
         d="M 69.6,40.49 V 98.34 H 57.41 V 40.49 H 35.57 V 29.66 h 56.86 v 10.83 z"
         id="path7-8-5"
         style="fill:#bc1f29;fill-opacity:1" /></g></g><g
     id="g919"
     transform="matrix(0.37500029,0,0,0.375,27.479891,939.48784)"><g
       id="g877"
       style="fill:#ffffff;fill-opacity:1;stroke:none"
       transform="translate(33.386931,28.032423)"><path
         id="path6-6"
         style="fill:#ffffff;fill-opacity:1;stroke:none"
         d="M 80,0 C 35.82,0 0,28.65 0,64 c 0,35.35 35.82,64 80,64 44.18,0 80,-28.66 80,-64 C 160,28.66 124.18,0 80,0 Z"
         sodipodi:nodetypes="sssss" /></g><g
       id="g2202-1"
       style="fill:#e30021;fill-opacity:1"
       transform="translate(33.386931,28.032423)"><path
         class="cls-1"
         d="M 80,0 C 35.82,0 0,28.65 0,64 c 0,35.35 35.82,64 80,64 44.18,0 80,-28.66 80,-64 C 160,28.66 124.18,0 80,0 Z M 59.29,95.56 q -12.78,0 -19.87,-8.42 -7.09,-8.42 -7.08,-23 0,-13.53 7.85,-22.64 a 25.37,25.37 0 0 1 20.1,-9.11 q 10.5,0 16.8,4.3 l -4.46,9 Q 69,42.07 61,42.06 a 15,15 0 0 0 -12.5,6.4 q -4.87,6.39 -4.87,16.18 0,9.79 4.52,15.54 a 14.54,14.54 0 0 0 12.06,5.75 q 8.63,0 13.5,-6.16 l 5,8.75 q -6.63,7.04 -19.42,7.04 z M 127.67,43.1 H 98.29 v 14.29 h 21.46 V 66.6 H 98.29 V 94.52 H 87.46 v -61 h 40.21 z"
         id="path6-52"
         style="fill:#e30021;fill-opacity:1;stroke:none;stroke-opacity:1" /></g></g><g
     id="g919-9"
     transform="matrix(0.375,0,0,0.375,1580.4799,521.28784)"
     style="display:inline"><g
       id="g877-7"
       style="fill:#ffffff;fill-opacity:1;stroke:none"
       transform="translate(33.386931,28.032423)"><path
         id="path6-6-0"
         style="fill:#ffffff;fill-opacity:1;stroke:none"
         d="M 80,0 C 35.82,0 0,28.65 0,64 c 0,35.35 35.82,64 80,64 44.18,0 80,-28.66 80,-64 C 160,28.66 124.18,0 80,0 Z"
         sodipodi:nodetypes="sssss" /></g><g
       id="g2202-1-2"
       style="fill:#e30021;fill-opacity:1"
       transform="translate(33.386931,28.032423)"><path
         class="cls-1"
         d="M 80,0 C 35.82,0 0,28.65 0,64 c 0,35.35 35.82,64 80,64 44.18,0 80,-28.66 80,-64 C 160,28.66 124.18,0 80,0 Z M 59.29,95.56 q -12.78,0 -19.87,-8.42 -7.09,-8.42 -7.08,-23 0,-13.53 7.85,-22.64 a 25.37,25.37 0 0 1 20.1,-9.11 q 10.5,0 16.8,4.3 l -4.46,9 Q 69,42.07 61,42.06 a 15,15 0 0 0 -12.5,6.4 q -4.87,6.39 -4.87,16.18 0,9.79 4.52,15.54 a 14.54,14.54 0 0 0 12.06,5.75 q 8.63,0 13.5,-6.16 l 5,8.75 q -6.63,7.04 -19.42,7.04 z M 127.67,43.1 H 98.29 v 14.29 h 21.46 V 66.6 H 98.29 V 94.52 H 87.46 v -61 h 40.21 z"
         id="path6-52-1"
         style="fill:#e30021;fill-opacity:1;stroke:none;stroke-opacity:1" /></g></g><g
     id="g878-9"
     transform="matrix(0.37497196,0,0,0.37497196,899.00182,684.00179)"
     style="display:inline"><path
       id="path22-0-17-3-1"
       class="cls-1"
       d="M 92.44,120.89 H 35.56 A 27.94,27.94 0 0 1 7.11,92.44 V 35.56 A 27.94,27.94 0 0 1 35.56,7.11 h 56.88 a 27.94,27.94 0 0 1 28.45,28.45 v 56.88 a 27.94,27.94 0 0 1 -28.45,28.45 z"
       style="fill:#ffffff;fill-opacity:1" /><g
       class="cls-2"
       id="g9-54"
       style="fill:#bc1f29;fill-opacity:1"><path
         class="cls-3"
         d="M 69.6,40.49 V 98.34 H 57.41 V 40.49 H 35.57 V 29.66 h 56.86 v 10.83 z"
         id="path7-84"
         style="fill:#bc1f29;fill-opacity:1" /></g></g></g><g
   inkscape:groupmode="layer"
   id="layer5"
   inkscape:label="Légende"
   style="display:inline"><text
     class="st7 st18"
     id="text13270"
     x="118.5648"
     y="1119.8755"
     style="font-style:normal;font-variant:normal;font-weight:normal;font-stretch:normal;font-size:32px;font-family:sans-serif;-inkscape-font-specification:'sans-serif, Normal';font-variant-ligatures:normal;font-variant-caps:normal;font-variant-numeric:normal;font-variant-east-asian:normal;display:inline">Téléphérique</text><text
     id="text13276"
     x="118.5648"
     y="1050.4144"
     style="font-style:normal;font-variant:normal;font-weight:normal;font-stretch:normal;font-size:32px;font-family:sans-serif;-inkscape-font-specification:'sans-serif, Normal';font-variant-ligatures:normal;font-variant-caps:normal;font-variant-numeric:normal;font-variant-east-asian:normal;display:inline"><tspan
       x="118.5648"
       y="1050.4144"
       class="st7 st18 st13"
       id="tspan13272"
       style="font-style:normal;font-variant:normal;font-weight:normal;font-stretch:normal;font-size:32px;font-family:sans-serif;-inkscape-font-specification:'sans-serif, Normal';font-variant-ligatures:normal;font-variant-caps:normal;font-variant-numeric:normal;font-variant-east-asian:normal">T</tspan><tspan
       x="134.66479"
       y="1050.4144"
       class="st7 st18"
       id="tspan13274"
       style="font-style:normal;font-variant:normal;font-weight:normal;font-stretch:normal;font-size:32px;font-family:sans-serif;-inkscape-font-specification:'sans-serif, Normal';font-variant-ligatures:normal;font-variant-caps:normal;font-variant-numeric:normal;font-variant-east-asian:normal">ramway</tspan></text><text
     id="text13282"
     x="118.5648"
     y="985.46912"
     style="font-style:normal;font-variant:normal;font-weight:normal;font-stretch:normal;font-size:32px;font-family:sans-serif;-inkscape-font-specification:'sans-serif, Normal';font-variant-ligatures:normal;font-variant-caps:normal;font-variant-numeric:normal;font-variant-east-asian:normal;display:inline"><tspan
       x="118.5648"
       y="985.46912"
       class="st7 st18 st13"
       id="tspan13278"
       style="font-style:normal;font-variant:normal;font-weight:normal;font-stretch:normal;font-size:32px;font-family:sans-serif;-inkscape-font-specification:'sans-serif, Normal';font-variant-ligatures:normal;font-variant-caps:normal;font-variant-numeric:normal;font-variant-east-asian:normal">T</tspan><tspan
       x="134.66479"
       y="985.46912"
       class="st7 st18"
       id="tspan13280"
       style="font-style:normal;font-variant:normal;font-weight:normal;font-stretch:normal;font-size:32px;font-family:sans-serif;-inkscape-font-specification:'sans-serif, Normal';font-variant-ligatures:normal;font-variant-caps:normal;font-variant-numeric:normal;font-variant-east-asian:normal">rains</tspan></text><g
     id="Tram-5"
     style="fill:#f9f9f9;fill-opacity:1;stroke:none;stroke-opacity:1"
     transform="matrix(0.375,0,0,0.375,-185.49673,890.05736)"><g
       id="g2190-4"
       style="fill:#f9f9f9;fill-opacity:1;stroke:none;stroke-opacity:1"><path
         style="fill:#f9f9f9;fill-opacity:1;stroke:none;stroke-opacity:1"
         d="M 117.91,32.66 H 87.47 v 77.12 H 71.22 V 32.66 H 42.09 V 18.22 h 75.82 z"
         id="path875" /><path
         style="fill:#f9f9f9;fill-opacity:1;stroke:none;stroke-opacity:1"
         d="M 80,0 C 35.82,0 0,28.66 0,64 c 0,35.34 35.82,64 80,64 44.18,0 80,-28.65 80,-64 C 160,28.65 124.18,0 80,0 Z"
         id="path6-5" /></g></g><g
     id="Tram"
     style="fill:#52a83e;fill-opacity:1;stroke:none;stroke-opacity:1"
     transform="matrix(0.37500029,0,0,0.375,40,1018)"><g
       id="g2190"
       style="fill:#52a83e;fill-opacity:1;stroke:none;stroke-opacity:1"><path
         class="cls-1"
         d="M 80,0 C 35.82,0 0,28.66 0,64 c 0,35.34 35.82,64 80,64 44.18,0 80,-28.65 80,-64 C 160,28.65 124.18,0 80,0 Z m 37.91,32.66 H 87.47 v 77.12 H 71.22 V 32.66 H 42.09 V 18.22 h 75.82 z"
         id="path6"
         style="fill:#52a83e;fill-opacity:1;stroke:none;stroke-opacity:1" /></g></g><g
     id="Tram-6"
     style="display:inline;fill:#52a83e;fill-opacity:1;stroke:none;stroke-opacity:1"
     transform="matrix(0.375,0,0,0.375,893.00002,735.8)"><g
       id="g2190-8"
       style="fill:#52a83e;fill-opacity:1;stroke:none;stroke-opacity:1"><path
         class="cls-1"
         d="M 80,0 C 35.82,0 0,28.66 0,64 c 0,35.34 35.82,64 80,64 44.18,0 80,-28.65 80,-64 C 160,28.65 124.18,0 80,0 Z m 37.91,32.66 H 87.47 v 77.12 H 71.22 V 32.66 H 42.09 V 18.22 h 75.82 z"
         id="path6-8"
         style="fill:#52a83e;fill-opacity:1;stroke:none;stroke-opacity:1" /></g></g></g></svg>
