<?xml version="1.0" encoding="UTF-8" standalone="no"?>
<svg
   xmlns:dc="http://purl.org/dc/elements/1.1/"
   xmlns:cc="http://creativecommons.org/ns#"
   xmlns:rdf="http://www.w3.org/1999/02/22-rdf-syntax-ns#"
   xmlns:svg="http://www.w3.org/2000/svg"
   xmlns="http://www.w3.org/2000/svg"
   xmlns:sodipodi="http://sodipodi.sourceforge.net/DTD/sodipodi-0.dtd"
   xmlns:inkscape="http://www.inkscape.org/namespaces/inkscape"
   sodipodi:docname="Transitkaart Dorfbahn Serfaus.svg"
   inkscape:version="1.0 (4035a4f, 2020-05-01)"
   id="svg8"
   version="1.1"
   viewBox="0 0 500 250"
   height="250mm"
   width="500mm">
  <defs
     id="defs2">
    <inkscape:perspective
       sodipodi:type="inkscape:persp3d"
       inkscape:vp_x="0 : 232 : 1"
       inkscape:vp_y="0 : 1000 : 0"
       inkscape:vp_z="64 : 232 : 1"
       inkscape:persp3d-origin="32 : 221.33333 : 1"
       id="perspective2842" />
    <inkscape:perspective
       sodipodi:type="inkscape:persp3d"
       inkscape:vp_x="0 : 32 : 1"
       inkscape:vp_y="0 : 1000 : 0"
       inkscape:vp_z="64 : 32 : 1"
       inkscape:persp3d-origin="32 : 21.333333 : 1"
       id="perspective2842-0" />
    <pattern
       y="0"
       x="0"
       height="6"
       width="6"
       patternUnits="userSpaceOnUse"
       id="EMFhbasepattern" />
    <pattern
       y="0"
       x="0"
       height="6"
       width="6"
       patternUnits="userSpaceOnUse"
       id="EMFhbasepattern-3" />
    <pattern
       y="0"
       x="0"
       height="6"
       width="6"
       patternUnits="userSpaceOnUse"
       id="EMFhbasepattern-5" />
  </defs>
  <sodipodi:namedview
     inkscape:window-maximized="0"
     inkscape:window-y="23"
     inkscape:window-x="0"
     inkscape:window-height="790"
     inkscape:window-width="1344"
     inkscape:snap-midpoints="true"
     borderlayer="true"
     showgrid="false"
     inkscape:document-rotation="0"
     inkscape:current-layer="layer1"
     inkscape:document-units="mm"
     inkscape:cy="655.62504"
     inkscape:cx="805.10464"
     inkscape:zoom="0.3107436"
     inkscape:pageshadow="2"
     inkscape:pageopacity="0.0"
     borderopacity="1.0"
     bordercolor="#666666"
     pagecolor="#ffffff"
     id="base" />
  <metadata
     id="metadata5">
    <rdf:RDF>
      <cc:Work
         rdf:about="">
        <dc:format>image/svg+xml</dc:format>
        <dc:type
           rdf:resource="http://purl.org/dc/dcmitype/StillImage" />
        <dc:title></dc:title>
      </cc:Work>
    </rdf:RDF>
  </metadata>
  <g
     id="layer1"
     inkscape:groupmode="layer"
     inkscape:label="Laag 1">
    <path
       sodipodi:nodetypes="ccc"
       id="path1021"
       d="M 72.393639,143.82025 H 306.23601 l 59.80231,-59.802311"
       style="fill:none;stroke:#0071c7;stroke-width:10.6607;stroke-linecap:butt;stroke-linejoin:round;stroke-miterlimit:4;stroke-dasharray:none;stroke-opacity:1" />
    <circle
       r="8.0644045"
       cy="143.82025"
       cx="73.667953"
       id="path1023"
       style="fill:#ffffff;fill-opacity:1;stroke:#0071c7;stroke-width:3.45751;stroke-linejoin:round;stroke-miterlimit:4;stroke-dasharray:none;stroke-opacity:1" />
    <g
       style="font-size:16.1167px;line-height:1.25;font-family:'Arial Narrow';-inkscape-font-specification:'Arial Narrow';letter-spacing:0px;stroke-width:0.201459"
       id="text1029"
       aria-label="Seilbahn" />
    <circle
       style="fill:#ffffff;fill-opacity:1;stroke:#0071c7;stroke-width:3.45751;stroke-linejoin:round;stroke-miterlimit:4;stroke-dasharray:none;stroke-opacity:1"
       id="circle1031"
       cx="172.39088"
       cy="143.82025"
       r="8.0644045" />
    <circle
       r="8.0644045"
       cy="143.82025"
       cx="271.1138"
       id="circle1033"
       style="fill:#ffffff;fill-opacity:1;stroke:#0071c7;stroke-width:3.45751;stroke-linejoin:round;stroke-miterlimit:4;stroke-dasharray:none;stroke-opacity:1" />
    <g
       style="font-size:16.1167px;line-height:1.25;font-family:'Arial Narrow';-inkscape-font-specification:'Arial Narrow';letter-spacing:0px;stroke-width:0.201459"
       id="text1037"
       aria-label="Zentrum" />
    <g
       style="font-size:16.1167px;line-height:1.25;font-family:'Arial Narrow';-inkscape-font-specification:'Arial Narrow';letter-spacing:0px;stroke-width:0.201459"
       id="text1045"
       aria-label="Kirche" />
    <g
       transform="matrix(-3.7691386,3.7691386,-3.7691386,-3.7691386,656.2788,-69.585543)"
       id="g1053">
      <circle
         r="1.5129173"
         cy="18.125759"
         cx="59.786469"
         id="circle1047"
         style="fill:#ffffff;fill-opacity:1;stroke:#0071c7;stroke-width:0.648644;stroke-linejoin:round;stroke-miterlimit:4;stroke-dasharray:none;stroke-opacity:1" />
    </g>
    <g
       style="font-size:16.1167px;line-height:1.25;font-family:'Arial Narrow';-inkscape-font-specification:'Arial Narrow';letter-spacing:0px;stroke-width:0.201459"
       id="text1057"
       aria-label="Parkplatz">
      <path
         d="m 431.06097,93.20385 v -1.723417 l 2.57332,-3.596353 q 0.62956,-0.881382 0.9286,-1.251248 -0.31478,0.02361 -0.83416,0.03148 l -2.41594,0.01574 V 84.84646 h 5.66603 v 1.566027 l -2.62054,3.682917 -0.92073,1.21977 q 0.75548,-0.05509 0.93647,-0.05509 h 2.80941 v 1.943762 z m -0.54299,-8.35739 v 1.762764 h -1.23551 v 3.368138 q 0,1.093858 0.0551,1.266987 0.11018,0.314779 0.44857,0.314779 0.25182,0 0.72399,-0.212476 l 0.15739,1.715547 q -0.62956,0.330518 -1.42438,0.330518 -0.69251,0 -1.1096,-0.330518 -0.41708,-0.330518 -0.55873,-0.952207 -0.11017,-0.45643 -0.11017,-1.857198 v -3.64357 h -0.83417 V 84.84646 h 0.83417 v -1.660461 l 1.81785,-1.290595 v 2.951056 z m -9.14434,2.549712 -1.64472,-0.361996 q 0.29904,-1.266987 0.98368,-1.81785 0.69252,-0.558734 1.98311,-0.558734 1.14895,0 1.7549,0.322649 0.60595,0.322649 0.86564,0.881382 0.25969,0.550864 0.25969,2.014587 l -0.0157,2.581191 q 0,1.085988 0.0866,1.621113 0.0866,0.527255 0.32265,1.125336 h -1.79424 l -0.23609,-0.91286 q -0.4643,0.550864 -0.99942,0.826295 -0.52726,0.275432 -1.12534,0.275432 -0.99942,0 -1.63685,-0.668906 -0.63743,-0.676775 -0.63743,-1.794242 0,-0.708253 0.25969,-1.235508 0.2597,-0.527255 0.73187,-0.842035 0.47217,-0.314779 1.51094,-0.558733 1.25911,-0.291171 1.75489,-0.542994 0,-0.692515 -0.1023,-0.904991 -0.0944,-0.220345 -0.362,-0.354126 -0.25969,-0.141651 -0.73973,-0.141651 -0.48791,0 -0.77121,0.220345 -0.27543,0.220346 -0.44856,0.826296 z m 2.4238,1.794242 q -0.34626,0.141651 -1.07812,0.330518 -0.84203,0.220346 -1.10173,0.487908 -0.25969,0.267562 -0.25969,0.692515 0,0.480038 0.2833,0.810556 0.29117,0.322649 0.724,0.322649 0.3856,0 0.76334,-0.259693 0.37773,-0.267562 0.51938,-0.629559 0.14952,-0.361996 0.14952,-1.314203 z m -7.46027,4.013436 V 81.667189 h 1.81785 V 93.20385 Z m -8.14491,-8.35739 h 1.69194 v 1.227639 q 0.34625,-0.661036 0.91286,-1.038772 0.5666,-0.377735 1.21976,-0.377735 1.17256,0 2.01459,1.117467 0.84991,1.117466 0.84991,3.171401 0,2.156238 -0.84991,3.305182 -0.8499,1.141075 -2.02245,1.141075 -0.543,0 -1.01517,-0.259693 -0.4643,-0.267562 -0.98368,-0.960076 v 4.210173 h -1.81785 z m 1.79424,4.037044 q 0,1.416507 0.45643,2.085413 0.4643,0.668906 1.11746,0.668906 0.62169,0 1.04665,-0.61382 0.42495,-0.621689 0.42495,-2.022457 0,-1.329942 -0.44069,-1.959501 -0.43282,-0.637428 -1.06238,-0.637428 -0.66104,0 -1.10173,0.621689 -0.44069,0.61382 -0.44069,1.857198 z m -9.16795,4.320346 V 81.667189 h 1.81785 v 6.122457 l 2.11689,-2.943186 h 2.23494 l -2.34511,3.053359 2.51037,5.304031 h -1.95163 l -1.73129,-3.753743 -0.83417,1.078119 v 2.675624 z m -3.32879,0 h -1.81785 v -8.35739 h 1.68407 v 1.188292 q 0.43282,-0.834165 0.77121,-1.101728 0.34626,-0.275432 0.79482,-0.275432 0.62169,0 1.18829,0.417083 l -0.5666,1.928023 q -0.44856,-0.361996 -0.84991,-0.361996 -0.37773,0 -0.6689,0.283301 -0.2833,0.275432 -0.40922,1.007294 -0.12591,0.731862 -0.12591,2.691363 z m -7.75144,-5.807678 -1.64472,-0.361996 q 0.29904,-1.266987 0.98369,-1.81785 0.69251,-0.558734 1.98311,-0.558734 1.14894,0 1.75489,0.322649 0.60595,0.322649 0.86564,0.881382 0.2597,0.550864 0.2597,2.014587 l -0.0157,2.581191 q 0,1.085988 0.0866,1.621113 0.0866,0.527255 0.32265,1.125336 h -1.79424 l -0.23609,-0.91286 q -0.4643,0.550864 -0.99942,0.826295 -0.52726,0.275432 -1.12534,0.275432 -0.99942,0 -1.63685,-0.668906 -0.63743,-0.676775 -0.63743,-1.794242 0,-0.708253 0.2597,-1.235508 0.25969,-0.527255 0.73186,-0.842035 0.47217,-0.314779 1.51094,-0.558733 1.25912,-0.291171 1.75489,-0.542994 0,-0.692515 -0.1023,-0.904991 -0.0944,-0.220345 -0.362,-0.354126 -0.25969,-0.141651 -0.73973,-0.141651 -0.48791,0 -0.77121,0.220345 -0.27543,0.220346 -0.44856,0.826296 z m 2.4238,1.794242 q -0.34625,0.141651 -1.07812,0.330518 -0.84203,0.220346 -1.10172,0.487908 -0.2597,0.267562 -0.2597,0.692515 0,0.480038 0.2833,0.810556 0.29118,0.322649 0.724,0.322649 0.3856,0 0.76334,-0.259693 0.37773,-0.267562 0.51938,-0.629559 0.14952,-0.361996 0.14952,-1.314203 z m -12.5833,4.013436 V 81.667189 h 3.0691 q 1.71555,0 2.2428,0.165259 0.84204,0.267563 1.38503,1.141075 0.55086,0.873513 0.55086,2.250672 0,1.251248 -0.47217,2.101152 -0.47216,0.842034 -1.18042,1.188291 -0.70825,0.338388 -2.43954,0.338388 h -1.25124 v 4.351824 z m 1.90442,-9.585029 v 3.273704 h 1.05451 q 1.06238,0 1.44011,-0.14952 0.38561,-0.14952 0.62956,-0.535125 0.24395,-0.393474 0.24395,-0.960077 0,-0.574472 -0.25182,-0.967946 -0.25182,-0.393474 -0.62169,-0.527255 -0.36986,-0.133781 -1.56603,-0.133781 z m -81.57066,85.875289 1.80211,0.36986 q -0.362,1.25912 -1.12534,1.87294 -0.76334,0.60595 -1.85719,0.60595 -1.51881,0 -2.34511,-1.01516 -0.97582,-1.18043 -0.97582,-3.30519 0,-2.09328 0.98369,-3.3524 0.83416,-1.06238 2.15624,-1.06238 1.47159,0 2.30576,1.08599 0.96007,1.24338 0.96007,3.66718 l -0.008,0.25182 h -4.54069 q 0.0157,0.99156 0.44069,1.53455 0.43282,0.543 1.03877,0.543 0.87352,0 1.16469,-1.19616 z m 0.1023,-2.23494 q -0.0236,-0.97581 -0.41708,-1.46372 -0.39348,-0.49578 -0.93647,-0.49578 -0.57447,0 -0.96795,0.51152 -0.40134,0.51938 -0.39347,1.44798 z m -10.35624,-6.64184 v 4.24165 q 0.43282,-0.62956 0.95221,-0.93647 0.52725,-0.31478 1.14107,-0.31478 0.81843,0 1.36929,0.43283 0.55087,0.43282 0.78695,1.22763 0.17313,0.58235 0.17313,1.98311 v 4.90269 h -1.80998 v -4.41478 q 0,-1.53455 -0.19674,-1.92015 -0.27543,-0.51939 -0.93647,-0.51939 -0.70038,0 -1.09385,0.56661 -0.38561,0.55873 -0.38561,2.10115 v 4.18656 h -1.81785 v -11.53666 z m -3.20288,5.65029 -1.78637,0.39347 q -0.19674,-1.3142 -1.23551,-1.3142 -0.66891,0 -1.07812,0.5666 -0.40921,0.56661 -0.40921,1.91229 0,1.48733 0.40921,2.10115 0.40921,0.61382 1.09386,0.61382 0.51152,0 0.84203,-0.34626 0.33052,-0.35413 0.47217,-1.24338 l 1.78637,0.36987 q -0.55086,3.02188 -3.1714,3.02188 -1.6762,0 -2.48675,-1.27486 -0.81056,-1.27485 -0.81056,-3.06909 0,-2.14837 0.91286,-3.26584 0.92073,-1.12534 2.40806,-1.12534 1.20403,0 1.9595,0.63743 0.76334,0.63743 1.09386,2.02246 z m -9.36468,5.88637 h -1.81785 v -8.35739 h 1.68407 v 1.18829 q 0.43282,-0.83416 0.77121,-1.10172 0.34625,-0.27544 0.79481,-0.27544 0.62169,0 1.1883,0.41709 l -0.56661,1.92802 q -0.44856,-0.362 -0.8499,-0.362 -0.37774,0 -0.66891,0.28331 -0.2833,0.27543 -0.40921,1.00729 -0.12591,0.73186 -0.12591,2.69136 z m -5.42207,-9.49059 v -2.04607 h 1.81785 v 2.04607 z m 0,9.49059 v -8.35739 h 1.81785 v 8.35739 z m -9.50634,0 v -11.53666 h 1.90442 v 5.12303 l 3.86391,-5.12303 h 2.57332 l -3.56487,4.49348 3.75374,7.04318 h -2.47102 l -2.6048,-5.4142 -1.55028,1.92802 v 3.48618 z m -58.06129,-8.35739 h 1.66833 v 1.14108 q 0.44856,-0.66891 0.98368,-0.99943 0.53513,-0.33052 1.15682,-0.33052 0.66103,0 1.14107,0.33052 0.48791,0.33052 0.79482,0.99943 0.45643,-0.66891 0.97582,-0.99943 0.52725,-0.33052 1.11746,-0.33052 0.70039,0 1.20403,0.33839 0.51152,0.33052 0.77121,0.95221 0.26756,0.62169 0.26756,1.91228 v 5.34338 h -1.81785 v -4.77677 q 0,-1.25125 -0.22034,-1.66046 -0.22035,-0.41709 -0.73973,-0.41709 -0.60595,0 -0.97582,0.58234 -0.36986,0.57448 -0.36986,2.25855 v 4.01343 h -1.81785 v -4.58004 q 0,-1.36142 -0.14952,-1.75489 -0.19674,-0.51939 -0.79482,-0.51939 -0.40135,0 -0.73973,0.26757 -0.33839,0.26756 -0.48791,0.78694 -0.14952,0.51152 -0.14952,1.73916 v 4.06065 h -1.81785 z m -3.44684,8.35739 v -1.25125 q -0.37773,0.67678 -0.99155,1.06238 -0.61382,0.37774 -1.28273,0.37774 -0.67677,0 -1.2119,-0.35413 -0.53512,-0.35412 -0.80268,-1.00729 -0.2597,-0.65317 -0.2597,-1.89655 v -5.28829 h 1.81785 v 3.84031 q 0,1.64472 0.0787,2.09328 0.0866,0.44069 0.36986,0.68465 0.28331,0.24395 0.68465,0.24395 0.45643,0 0.84203,-0.31478 0.38561,-0.32265 0.50365,-0.81843 0.12591,-0.50364 0.12591,-2.20345 v -3.52553 h 1.80998 v 8.35739 z m -7.89309,0 h -1.81785 v -8.35739 h 1.68407 v 1.18829 q 0.43282,-0.83416 0.77121,-1.10172 0.34626,-0.27544 0.79482,-0.27544 0.62169,0 1.18829,0.41709 l -0.5666,1.92802 q -0.44856,-0.362 -0.84991,-0.362 -0.37773,0 -0.6689,0.28331 -0.2833,0.27543 -0.40921,1.00729 -0.12592,0.73186 -0.12592,2.69136 z m -3.01401,-8.35739 v 1.76277 h -1.23551 v 3.36813 q 0,1.09386 0.0551,1.26699 0.11017,0.31478 0.44856,0.31478 0.25182,0 0.72399,-0.21248 l 0.15739,1.71555 q -0.62956,0.33052 -1.42437,0.33052 -0.69252,0 -1.1096,-0.33052 -0.41708,-0.33052 -0.55873,-0.95221 -0.11018,-0.45643 -0.11018,-1.85719 v -3.64357 h -0.83416 v -1.76277 h 0.83416 v -1.66046 l 1.81785,-1.29059 v 2.95105 z m -4.98925,8.35739 h -1.81785 v -4.26526 q 0,-1.28272 -0.1023,-1.70768 -0.10231,-0.42495 -0.38561,-0.65316 -0.27543,-0.22822 -0.62956,-0.22822 -0.45643,0 -0.82629,0.29904 -0.36987,0.29117 -0.51939,0.81056 -0.14952,0.51939 -0.14952,1.9595 v 3.78522 h -1.81785 v -8.35739 h 1.68407 v 1.22764 q 0.44856,-0.70825 1.00729,-1.06238 0.56661,-0.35413 1.25125,-0.35413 0.79482,0 1.33781,0.41709 0.55087,0.40921 0.75547,1.06238 0.21248,0.64529 0.21248,1.87293 z m -9.62438,-2.65988 1.80212,0.36986 q -0.362,1.25912 -1.12534,1.87294 -0.76334,0.60595 -1.8572,0.60595 -1.51881,0 -2.3451,-1.01516 -0.97582,-1.18043 -0.97582,-3.30519 0,-2.09328 0.98369,-3.3524 0.83416,-1.06238 2.15623,-1.06238 1.4716,0 2.30576,1.08599 0.96008,1.24338 0.96008,3.66718 l -0.008,0.25182 h -4.54069 q 0.0157,0.99156 0.44069,1.53455 0.43282,0.543 1.03877,0.543 0.87351,0 1.16468,-1.19616 z m 0.10231,-2.23494 q -0.0236,-0.97581 -0.41708,-1.46372 -0.39348,-0.49578 -0.93647,-0.49578 -0.57448,0 -0.96795,0.51152 -0.40134,0.51938 -0.39347,1.44798 z m -12.97678,4.89482 v -2.10115 l 4.97351,-7.48388 h -4.41478 v -1.95163 h 6.92515 v 1.80998 l -5.17812,7.78292 h 5.38273 v 1.94376 z M 117.67057,127.0235 h -1.81785 v -4.26526 q 0,-1.28273 -0.10231,-1.70768 -0.1023,-0.42495 -0.3856,-0.65317 -0.27543,-0.22821 -0.62956,-0.22821 -0.45643,0 -0.8263,0.29904 -0.36986,0.29117 -0.51938,0.81056 -0.14952,0.51938 -0.14952,1.9595 v 3.78522 h -1.81785 v -8.35739 h 1.68407 v 1.22764 q 0.44856,-0.70826 1.00729,-1.06238 0.5666,-0.35413 1.25125,-0.35413 0.79482,0 1.33781,0.41708 0.55086,0.40922 0.75547,1.06238 0.21248,0.6453 0.21248,1.87294 z m -12.51248,-11.53666 v 4.24165 q 0.43282,-0.62956 0.95221,-0.93647 0.52725,-0.31478 1.14107,-0.31478 0.81843,0 1.36929,0.43282 0.55086,0.43282 0.78695,1.22764 0.17313,0.58234 0.17313,1.98311 v 4.90269 h -1.80998 v -4.41478 q 0,-1.53455 -0.19674,-1.92015 -0.27543,-0.51939 -0.93647,-0.51939 -0.70038,0 -1.09386,0.5666 -0.3856,0.55874 -0.3856,2.10115 v 4.18657 h -1.81785 v -11.53666 z m -7.822264,5.72898 -1.644722,-0.362 q 0.29904,-1.26698 0.983685,-1.81785 0.692515,-0.55873 1.98311,-0.55873 1.148944,0 1.754891,0.32265 0.60595,0.32265 0.86565,0.88138 0.25969,0.55087 0.25969,2.01459 l -0.0157,2.58119 q 0,1.08599 0.0866,1.62111 0.0866,0.52726 0.32265,1.12534 h -1.79424 l -0.236083,-0.91286 q -0.4643,0.55086 -0.999424,0.82629 -0.527256,0.27544 -1.125336,0.27544 -0.999425,0 -1.636853,-0.66891 -0.637428,-0.67678 -0.637428,-1.79424 0,-0.70826 0.259693,-1.23551 0.259693,-0.52726 0.731862,-0.84204 0.472169,-0.31477 1.510941,-0.55873 1.259117,-0.29117 1.754894,-0.54299 0,-0.69252 -0.102303,-0.90499 -0.09443,-0.22035 -0.361996,-0.35413 -0.259693,-0.14165 -0.739732,-0.14165 -0.487907,0 -0.771209,0.22035 -0.275432,0.22034 -0.44856,0.82629 z m 2.4238,1.79424 q -0.346257,0.14165 -1.078119,0.33052 -0.842034,0.22035 -1.101727,0.48791 -0.259693,0.26756 -0.259693,0.69251 0,0.48004 0.283301,0.81056 0.291171,0.32265 0.723992,0.32265 0.385605,0 0.76334,-0.25969 0.377735,-0.26757 0.519386,-0.62956 0.14952,-0.362 0.14952,-1.31421 z m -11.953744,4.01344 v -11.53666 h 1.81785 v 4.15508 q 0.417083,-0.58234 0.91286,-0.87351 0.503647,-0.29117 1.078119,-0.29117 1.211901,0 2.046066,1.09386 0.842034,1.09386 0.842034,3.22649 0,2.12476 -0.857773,3.2737 -0.857774,1.14108 -2.014588,1.14108 -0.590211,0 -1.164683,-0.362 -0.574472,-0.362 -0.975816,-1.05451 v 1.22764 z m 1.802111,-4.35969 q 0,1.07811 0.204607,1.64472 0.204606,0.5666 0.582342,0.86564 0.377735,0.29117 0.794817,0.29117 0.598081,0 1.023033,-0.62169 0.424952,-0.62956 0.424952,-1.98311 0,-1.42437 -0.432822,-2.05393 -0.424952,-0.63743 -1.085988,-0.63743 -0.629559,0 -1.07025,0.61382 -0.440691,0.61382 -0.440691,1.88081 z m -5.398465,4.35969 v -11.53666 h 1.81785 v 11.53666 z m -3.682917,-9.4906 v -2.04606 h 1.81785 v 2.04606 z m 0,9.4906 v -8.35739 h 1.81785 v 8.35739 z m -3.391747,-2.65989 1.802112,0.36987 q -0.361996,1.25912 -1.125336,1.87294 -0.76334,0.60595 -1.857198,0.60595 -1.51881,0 -2.345106,-1.01517 -0.975815,-1.18042 -0.975815,-3.30518 0,-2.09328 0.983685,-3.3524 0.834165,-1.06238 2.156238,-1.06238 1.471593,0 2.305758,1.08599 0.960077,1.24338 0.960077,3.66718 l -0.0079,0.25182 h -4.540692 q 0.01574,0.99156 0.440691,1.53455 0.432822,0.54299 1.038772,0.54299 0.873512,0 1.164683,-1.19616 z m 0.102304,-2.23493 q -0.02361,-0.97582 -0.417083,-1.46372 -0.393474,-0.49578 -0.936468,-0.49578 -0.574473,0 -0.967947,0.51152 -0.401343,0.51938 -0.393474,1.44798 z m -13.362381,1.14108 1.865067,-0.22035 q 0.31478,2.21132 2.061805,2.21132 0.865643,0 1.36142,-0.44856 0.495777,-0.45643 0.495777,-1.12533 0,-0.39348 -0.173128,-0.66891 -0.173129,-0.27543 -0.527256,-0.44856 -0.354126,-0.181 -1.715547,-0.59808 -1.219769,-0.36986 -1.786372,-0.80269 -0.566603,-0.43282 -0.90499,-1.1332 -0.330519,-0.70825 -0.330519,-1.51881 0,-0.94434 0.424952,-1.69981 0.432822,-0.75547 1.188292,-1.14107 0.75547,-0.38561 1.865067,-0.38561 1.668331,0 2.604799,0.90499 0.936468,0.90499 0.991555,2.58906 l -1.912284,0.1023 q -0.125912,-0.92859 -0.542995,-1.29846 -0.417082,-0.36987 -1.188292,-0.36987 -0.771209,0 -1.188291,0.32265 -0.417083,0.32265 -0.417083,0.80269 0,0.47217 0.377735,0.79482 0.377735,0.32265 1.739156,0.70825 1.440115,0.41708 2.077543,0.88138 0.645298,0.45643 0.983685,1.18829 0.338388,0.724 0.338388,1.76277 0,1.50307 -0.928599,2.5261 -0.920729,1.02304 -2.8881,1.02304 -3.478311,0 -3.871785,-3.95835 z"
         style="font-style:normal;font-variant:normal;font-weight:bold;font-stretch:condensed;font-family:'Arial Narrow';-inkscape-font-specification:'Arial Narrow Bold Condensed';stroke-width:0.201459"
         id="path2075" />
    </g>
    <rect
       style="fill:#0071c7;fill-opacity:1;stroke:none;stroke-width:0.187813;stroke-linejoin:round;stroke-miterlimit:4;stroke-dasharray:none;stroke-opacity:1"
       id="rect1221"
       width="11.936794"
       height="11.936794"
       x="136.19139"
       y="115.29131"
       ry="1.0358686"
       rx="1.0358686" />
    <path
       sodipodi:nodetypes="cccccccssscssccssccsccccccccccccsssss"
       d="m 138.02104,116.96383 v 0.76856 h 1.48641 v 2.74417 h -1.48641 v 4.44804 h 2.48258 c -3.2e-4,-0.008 -9.8e-4,-0.0127 -9.8e-4,-0.0208 0,-0.79989 0.64843,-1.4489 1.44889,-1.4489 0.80006,0 1.44888,0.64901 1.44888,1.4489 0,0.008 -5.1e-4,0.0127 -5.1e-4,0.0208 h 2.35737 c 0.21225,0 0.38427,-0.17213 0.38427,-0.38427 0,-0.19987 -0.15333,-0.36254 -0.34878,-0.38072 v -0.003 c 0.11257,-0.10661 0.18403,-0.25687 0.18403,-0.42433 v -1.42658 c 0,-0.32334 -0.0918,-0.91297 -0.12066,-0.9181 l -1.06715,-3.66278 c 0.1766,-0.0345 0.30975,-0.19 0.30975,-0.37667 0,-0.21198 -0.17184,-0.38427 -0.38428,-0.38427 z m 2.03544,0.76856 h 2.13329 v 2.74417 h -2.13329 z m 2.68232,0 h 1.48083 l 0.79948,3.78242 h -2.28031 z m -0.7868,6.00239 c -0.64549,0 -1.16854,0.52343 -1.16854,1.16854 0,0.64549 0.52305,1.16854 1.16854,1.16854 0.64513,0 1.16854,-0.52305 1.16854,-1.16854 0,-0.64511 -0.52341,-1.16854 -1.16854,-1.16854 z"
       style="fill:#ffffff;fill-opacity:1;fill-rule:nonzero;stroke:none;stroke-width:0.0432564"
       id="path1223" />
    <g
       id="g1917">
      <rect
         style="fill:#0071c7;fill-opacity:1;stroke:none;stroke-width:0.187813;stroke-linejoin:round;stroke-miterlimit:4;stroke-dasharray:none;stroke-opacity:1"
         id="rect1109"
         width="11.936794"
         height="11.936794"
         x="121.90391"
         y="115.29131"
         ry="1.0358686"
         rx="1.0358686" />
      <path
         id="rect1247"
         style="fill:#ffffff;fill-opacity:1;stroke:none;stroke-width:0.0537036;stroke-linejoin:round;stroke-miterlimit:4;stroke-dasharray:none;stroke-opacity:1"
         d="m 125.25752,119.80478 h 1.05751 c 0.15935,0 0.28762,0.12829 0.28762,0.28763 v 1.86373 c 0,0.15934 -0.12827,0.28763 -0.28762,0.28763 h -1.05751 c -0.15935,0 -0.28763,-0.12829 -0.28763,-0.28763 v -1.86373 c 0,-0.15934 0.12828,-0.28763 0.28763,-0.28763 z m 1.94477,0 h 1.05752 c 0.15934,0 0.28763,0.12829 0.28763,0.28763 v 1.86373 c 0,0.15934 -0.12829,0.28763 -0.28763,0.28763 h -1.05752 c -0.15934,0 -0.28762,-0.12829 -0.28762,-0.28763 v -1.86373 c 0,-0.15934 0.12828,-0.28763 0.28762,-0.28763 z m 1.94479,0 h 1.05751 c 0.15935,0 0.28763,0.12829 0.28763,0.28763 v 1.86373 c 0,0.15934 -0.12828,0.28763 -0.28763,0.28763 h -1.05751 c -0.15935,0 -0.28763,-0.12829 -0.28763,-0.28763 v -1.86373 c 0,-0.15934 0.12828,-0.28763 0.28763,-0.28763 z m 3.23209,-3.55878 -9.11746,2.44299 0.10364,0.3871 4.12319,-1.10482 v 1.33 h -2.36232 c -0.24921,0 -0.44977,0.20056 -0.44977,0.44977 v 5.33372 c 0,0.24921 0.20056,0.44978 0.44977,0.44978 h 5.20961 c 0.24921,0 0.44986,-0.20057 0.44986,-0.44978 v -5.33372 c 0,-0.24921 -0.20065,-0.44977 -0.44986,-0.44977 h -2.36232 v -1.4599 l 4.50939,-1.20827 z" />
    </g>
    <g
       id="g2057">
      <rect
         rx="1.0358686"
         ry="1.0358686"
         y="97.441452"
         x="379.57883"
         height="11.936794"
         width="11.936794"
         id="rect1919"
         style="fill:#0071c7;fill-opacity:1;stroke:none;stroke-width:0.187813;stroke-linejoin:round;stroke-miterlimit:4;stroke-dasharray:none;stroke-opacity:1" />
      <g
         aria-label="P"
         id="text1929"
         style="font-size:11.8181px;line-height:1.25;font-family:'Arial Narrow';-inkscape-font-specification:'Arial Narrow';letter-spacing:-4.92076px;fill:#ffffff;fill-opacity:1;stroke-width:0.147726">
        <path
           d="m 382.53599,107.63969 v -8.459639 h 2.74102 q 1.55805,0 2.03123,0.126952 0.72709,0.190428 1.21759,0.830957 0.4905,0.63476 0.4905,1.64461 0,0.77903 -0.28276,1.30992 -0.28276,0.53089 -0.72132,0.83673 -0.43279,0.30007 -0.8829,0.39817 -0.61168,0.12118 -1.77156,0.12118 h -1.11371 v 3.19112 z m 1.70809,-7.02854 v 2.40055 h 0.93483 q 1.00984,0 1.35031,-0.13272 0.34046,-0.13273 0.53089,-0.41548 0.1962,-0.28276 0.1962,-0.65785 0,-0.46164 -0.27122,-0.76171 -0.27122,-0.30007 -0.6867,-0.37509 -0.30584,-0.0577 -1.22912,-0.0577 z"
           style="font-style:normal;font-variant:normal;font-weight:bold;font-stretch:normal;font-family:Arial;-inkscape-font-specification:'Arial Bold';fill:#ffffff;fill-opacity:1;stroke-width:0.147726"
           id="path2047" />
      </g>
    </g>
  </g>
</svg>
