<?xml version="1.0" encoding="UTF-8" standalone="no"?>
<!-- Created with Inkscape (http://www.inkscape.org/) -->
<svg
   xmlns:dc="http://purl.org/dc/elements/1.1/"
   xmlns:cc="http://web.resource.org/cc/"
   xmlns:rdf="http://www.w3.org/1999/02/22-rdf-syntax-ns#"
   xmlns:svg="http://www.w3.org/2000/svg"
   xmlns="http://www.w3.org/2000/svg"
   xmlns:sodipodi="http://inkscape.sourceforge.net/DTD/sodipodi-0.dtd"
   xmlns:inkscape="http://www.inkscape.org/namespaces/inkscape"
   id="svg2"
   height="316.10001"
   width="292.94000"
   y="0.00000000"
   x="0.00000000"
   version="1.0"
   sodipodi:version="0.32"
   inkscape:version="0.43"
   sodipodi:docname="Metro_Genova.svg"
   sodipodi:docbase="C:\Dokumente und Einstellungen\Lutz\Desktop">
  <metadata
     id="metadata55">
    <rdf:RDF>
      <cc:Work
         rdf:about="">
        <dc:format>image/svg+xml</dc:format>
        <dc:type
           rdf:resource="http://purl.org/dc/dcmitype/StillImage" />
      </cc:Work>
    </rdf:RDF>
  </metadata>
  <sodipodi:namedview
     inkscape:window-height="540"
     inkscape:window-width="830"
     inkscape:pageshadow="2"
     inkscape:pageopacity="0.0"
     borderopacity="1.0"
     bordercolor="#666666"
     pagecolor="#ffffff"
     id="base"
     inkscape:zoom="1.1831699"
     inkscape:cx="146.47"
     inkscape:cy="158.05"
     inkscape:window-x="66"
     inkscape:window-y="66"
     inkscape:current-layer="svg2" />
  <defs
     id="defs3" />
  <g
     id="g3173">
    <path
       id="path1332"
       style="fill:none;fill-opacity:0.75;fill-rule:evenodd;stroke:#0000ff;stroke-width:4;stroke-linecap:butt;stroke-linejoin:miter;stroke-miterlimit:4;stroke-dasharray:2, 2;stroke-dashoffset:0;stroke-opacity:1"
       d="M 77.68469,60.074206 C 77.771,65.338746 77.68469,91.007086 77.68469,96.012716" />
    <path
       id="path4390"
       style="fill:none;fill-opacity:0.75;fill-rule:evenodd;stroke:#0000ff;stroke-width:4;stroke-linecap:butt;stroke-linejoin:miter;stroke-miterlimit:4;stroke-opacity:1"
       d="M 77.68469,98.913556 C 77.68469,103.91918 78.51313,112.96398 78.51313,119.00526 C 78.51313,125.04654 78.08162,130.31108 77.47749,135.57562 C 76.87336,140.84016 76.01032,146.191 74.88837,150.5925 C 73.76642,154.994 72.04034,158.10094 70.74578,161.98462 C 69.45122,165.8683 67.55253,170.52872 67.12101,173.89457 C 66.68949,177.26042 66.9484,179.15911 68.15666,182.17975 C 69.36492,185.20039 70.22796,187.09907 74.37055,192.01839 C 78.51314,196.93771 88.78331,207.4668 93.0122,211.69569 C 97.24109,215.92458 97.5,216.09719 99.7439,217.39175 C 101.9878,218.68631 104.0591,219.80827 106.47561,219.46305 C 108.89212,219.11783 112.67275,215.44062 115.69339,213.45563 C 118.71403,211.47064 133.61112,201.33848 136.71806,199.78501 C 139.825,198.23154 157.03114,197.21301 160.22438,198.85278 C 163.41763,200.49256 174.87931,208.74204 176.17387,212.10789 C 177.46843,215.47375 179.74766,224.98651 180.00657,227.74823 C 180.26548,230.50995 179.81612,238.08703 182.59569,240.17599 C 185.37526,242.26495 188.72474,241.41921 190.88234,241.41921 C 193.03994,241.41921 200.1325,233.15115 202.3764,230.13051" />
    <path
       id="path5152"
       style="fill:none;fill-opacity:0.75;fill-rule:evenodd;stroke:#0000ff;stroke-width:4;stroke-linecap:butt;stroke-linejoin:miter;stroke-miterlimit:4;stroke-dasharray:2, 2;stroke-dashoffset:0;stroke-opacity:1"
       d="M 202.5836,229.3017 C 204.8275,226.28106 211.32435,216.21344 217.80807,218.94522 C 224.61007,221.8111 239.55629,230.33734 243.69888,232.40864" />
    <path
       id="path2094"
       style="fill:#8ad6ff;fill-opacity:1;fill-rule:evenodd;stroke:#2c80ff;stroke-width:1px;stroke-linecap:butt;stroke-linejoin:miter;stroke-opacity:1"
       d="M 74.37055,36.671296 C 70.22796,43.230396 60.303,55.830776 59.87148,63.080306 C 59.43996,70.329836 59.43996,88.453666 59.35366,99.845786 C 59.26736,111.23791 59.61257,123.40676 59.35366,131.43303 C 59.09475,139.4593 59.35366,142.73884 57.80019,148.00338 C 56.24672,153.26792 53.31238,156.89269 50.03283,163.02027 C 46.75328,169.14785 42.09287,177.34672 38.12289,184.76886 C 34.15291,192.191 29.06098,202.28856 26.21295,207.5531 C 23.36492,212.81764 22.58818,212.64504 21.03471,216.35611 C 19.48124,220.06718 18.18668,227.2304 16.89212,229.81952 C 15.59756,232.40864 15.16605,229.21539 13.26736,231.89081 C 11.36867,234.56623 8.08912,241.21164 5.5,245.87205 L 5.5,310.60001 L 264.92964,310.60001 L 264.92964,301.79701 C 263.89399,300.93397 263.03096,299.4668 261.8227,299.20789 C 260.61445,298.94898 258.71576,299.98462 257.68011,300.24353 C 256.64446,300.50244 256.29925,301.02027 255.60882,300.76136 C 254.91839,300.50245 254.48686,298.51745 253.53752,298.69006 C 252.58818,298.86267 251.55253,302.31483 249.91276,301.79701 C 248.27299,301.27919 244.47562,297.22289 243.69888,295.58312 C 242.92214,293.94334 245.16605,292.99401 245.25235,291.95836 C 245.33865,290.92271 244.56192,290.23228 244.2167,289.36924 L 221.95028,285.22665 L 219.87899,288.33359 L 198.64822,280.04841 L 198.1304,273.31671 L 183.63133,272.28106 L 179.48874,282.63753 L 176.3818,281.60188 L 182.07786,269.69194 L 188.80957,265.54935 L 186.73828,259.85329 L 168.61445,270.20976 L 167.5788,267.10282 L 177.41745,261.40676 L 167.06098,248.46117 L 169.6501,246.9077 L 174.82833,252.60376 L 177.41745,250.53247 L 171.20357,242.24729 L 162.40056,238.1047 L 152.04409,239.14035 L 147.38368,236.55123 L 147.38368,232.40864 L 163.43621,226.71258 L 168.09662,229.3017 L 171.20357,229.3017 L 172.75704,219.46305 L 168.61445,213.24916 L 162.40056,205.99963 L 155.66886,217.90958 L 151.52627,214.80263 L 155.15103,208.07093 L 148.93715,204.44616 L 145.83021,215.83828 L 142.20544,205.99963 L 137.54503,207.5531 L 139.0985,215.32046 L 135.47373,217.90958 L 131.33115,210.66005 L 126.67073,212.73134 L 129.25985,219.46305 L 127.70638,223.08781 L 122.01032,218.4274 L 117.34991,226.71258 L 133.40244,230.85517 L 133.40244,233.96211 L 116.83208,231.89081 L 116.31426,236.0334 L 130.81332,239.14035 L 130.81332,243.28293 L 116.83208,241.21164 L 117.34991,245.35423 L 146.34803,251.56811 L 147.9015,255.7107 L 143.75891,257.26417 L 143.24109,272.79888 L 138.58068,268.65629 L 138.06285,258.81764 L 120.97467,254.67505 L 124.08161,265.54935 L 117.86773,266.585 L 114.76079,254.15723 L 110.6182,253.63941 L 112.17167,266.585 L 105.95779,265.54935 L 105.43996,255.7107 L 99.7439,256.74635 L 100.26173,262.96023 L 91.97655,261.40676 L 93.0122,243.80076 L 85.24484,242.76511 L 86.79831,257.26417 L 82.1379,257.26417 L 77.99531,243.28293 L 73.85272,243.28293 L 76.44184,256.22853 L 71.2636,256.22853 L 69.19231,241.72946 L 63.49625,241.72946 L 65.04972,252.60376 L 58.31801,251.05029 L 55.72889,238.62252 L 50.55066,238.62252 L 53.13978,249.49682 L 46.40807,250.01464 L 43.81895,236.0334 L 39.67636,234.99776 L 41.22983,246.9077 L 33.9803,246.38988 L 32.42683,233.96211 L 27.76642,233.44429 L 28.28424,244.83641 L 16.89212,241.72946 C 19.13602,235.34297 21.20732,228.35235 23.62383,222.56999 C 26.04034,216.78763 28.45685,212.64504 31.39118,207.03528 C 34.32551,201.42552 37.86397,195.21164 41.22983,188.91145 C 44.59569,182.61126 49.0835,173.89456 51.58631,169.23415 C 54.08913,164.57374 54.69325,164.14223 56.24672,160.94898 C 57.80019,157.75574 59.95779,153.44054 60.90713,150.07468 C 61.85647,146.70883 61.68387,148.5212 61.94278,140.75385 C 62.20169,132.9865 62.28799,115.03528 62.4606,103.47055 C 62.63321,91.905816 62.46061,78.960236 62.97843,71.365486 C 63.49625,63.770736 63.32364,63.166606 65.56754,57.902066 C 67.81144,52.637526 74.28424,43.403006 76.44184,39.778236 C 78.59944,36.153476 77.8227,37.361726 78.51313,36.153476 C 77.13227,36.326086 75.75141,36.498686 74.37055,36.671296 z " />
    <path
       id="path2854"
       style="fill:#ffffff;fill-opacity:1;stroke:#808080;stroke-width:2;stroke-miterlimit:4;stroke-dashoffset:0;stroke-opacity:1"
       d="M 83.222884,60.435331 C 83.222884,63.418375 80.80465,65.836609 77.821593,65.836609 C 74.838549,65.836609 72.420315,63.418375 72.420315,60.435331 C 72.420315,57.452287 74.838549,55.03404 77.821593,55.03404 C 80.80465,55.03404 83.222884,57.452287 83.222884,60.435331 z " />
    <path
       id="path4372"
       style="fill:#ffffff;fill-opacity:1;stroke:#000000;stroke-width:2;stroke-miterlimit:4;stroke-dashoffset:0;stroke-opacity:1"
       d="M 83.222784,98.285331 C 83.222784,101.26838 80.80455,103.68661 77.821493,103.68661 C 74.838449,103.68661 72.420215,101.26838 72.420215,98.285331 C 72.420215,95.302287 74.838449,92.88404 77.821493,92.88404 C 80.80455,92.88404 83.222784,95.302287 83.222784,98.285331 z " />
    <path
       id="path4374"
       style="fill:#ffffff;fill-opacity:1;stroke:#000000;stroke-width:2;stroke-miterlimit:4;stroke-dashoffset:0;stroke-opacity:1"
       d="M 121.07278,213.90953 C 121.07278,216.89258 118.65455,219.31081 115.67149,219.31081 C 112.68845,219.31081 110.27022,216.89258 110.27022,213.90953 C 110.27022,210.92649 112.68845,208.50824 115.67149,208.50824 C 118.65455,208.50824 121.07278,210.92649 121.07278,213.90953 z " />
    <path
       id="path4376"
       style="fill:#ffffff;fill-opacity:1;stroke:#000000;stroke-width:2;stroke-miterlimit:4;stroke-dashoffset:0;stroke-opacity:1"
       d="M 142.33108,199.91018 C 142.33108,202.89323 139.91285,205.31146 136.92979,205.31146 C 133.94675,205.31146 131.52852,202.89323 131.52852,199.91018 C 131.52852,196.92714 133.94675,194.50889 136.92979,194.50889 C 139.91285,194.50889 142.33108,196.92714 142.33108,199.91018 z " />
    <path
       id="path4378"
       style="fill:#ffffff;fill-opacity:1;stroke:#000000;stroke-width:2;stroke-miterlimit:4;stroke-dashoffset:0;stroke-opacity:1"
       d="M 165.66328,199.39169 C 165.66328,202.37474 163.24505,204.79297 160.26199,204.79297 C 157.27895,204.79297 154.86072,202.37474 154.86072,199.39169 C 154.86072,196.40865 157.27895,193.9904 160.26199,193.9904 C 163.24505,193.9904 165.66328,196.40865 165.66328,199.39169 z " />
    <path
       id="path4380"
       style="fill:#ffffff;fill-opacity:1;stroke:#000000;stroke-width:2;stroke-miterlimit:4;stroke-dashoffset:0;stroke-opacity:1"
       d="M 181.73658,212.35404 C 181.73658,215.33709 179.31835,217.75532 176.33529,217.75532 C 173.35225,217.75532 170.93402,215.33709 170.93402,212.35404 C 170.93402,209.371 173.35225,206.95275 176.33529,206.95275 C 179.31835,206.95275 181.73658,209.371 181.73658,212.35404 z " />
    <path
       id="path4382"
       style="fill:#ffffff;fill-opacity:1;stroke:#000000;stroke-width:2;stroke-miterlimit:4;stroke-dashoffset:0;stroke-opacity:1"
       d="M 196.77298,241.90817 C 196.77298,244.89122 194.35475,247.30945 191.37169,247.30945 C 188.38865,247.30945 185.97042,244.89122 185.97042,241.90817 C 185.97042,238.92513 188.38865,236.50688 191.37169,236.50688 C 194.35475,236.50688 196.77298,238.92513 196.77298,241.90817 z " />
    <path
       id="path4384"
       style="fill:#ffffff;fill-opacity:1;stroke:#000000;stroke-width:2;stroke-miterlimit:4;stroke-dashoffset:0;stroke-opacity:1"
       d="M 207.66128,230.50137 C 207.66128,233.48442 205.24305,235.90265 202.25999,235.90265 C 199.27695,235.90265 196.85872,233.48442 196.85872,230.50137 C 196.85872,227.51833 199.27695,225.10008 202.25999,225.10008 C 205.24305,225.10008 207.66128,227.51833 207.66128,230.50137 z " />
    <path
       id="path4386"
       style="fill:#ffffff;fill-opacity:1;stroke:#808080;stroke-width:2;stroke-miterlimit:4;stroke-dashoffset:0;stroke-opacity:1"
       d="M 223.21618,219.09447 C 223.21618,222.07752 220.79795,224.49575 217.81489,224.49575 C 214.83185,224.49575 212.41362,222.07752 212.41362,219.09447 C 212.41362,216.11143 214.83185,213.69318 217.81489,213.69318 C 220.79795,213.69318 223.21618,216.11143 223.21618,219.09447 z " />
    <path
       id="path4388"
       style="fill:#ffffff;fill-opacity:1;stroke:#808080;stroke-width:2;stroke-miterlimit:4;stroke-dashoffset:0;stroke-opacity:1"
       d="M 249.14088,232.57527 C 249.14088,235.55832 246.72265,237.97655 243.73959,237.97655 C 240.75655,237.97655 238.33832,235.55832 238.33832,232.57527 C 238.33832,229.59223 240.75655,227.17398 243.73959,227.17398 C 246.72265,227.17398 249.14088,229.59223 249.14088,232.57527 z " />
    <text
       xml:space="preserve"
       id="text7430"
       style="font-size:9px;font-style:normal;font-variant:normal;font-weight:normal;font-stretch:normal;writing-mode:lr-tb;text-anchor:start;fill:#000000;fill-opacity:1;stroke:none;stroke-width:1px;stroke-linecap:butt;stroke-linejoin:miter;stroke-opacity:1;font-family:Bitstream Vera Sans"
       y="101.45946"
       x="84.696571"><tspan
         id="tspan7432"
         y="101.45946"
         x="84.696571">Brin</tspan></text>
    <text
       xml:space="preserve"
       id="text7434"
       style="font-size:9px;font-style:normal;font-variant:normal;font-weight:normal;font-stretch:normal;writing-mode:lr-tb;text-anchor:start;fill:#000000;fill-opacity:1;stroke:none;stroke-width:1px;stroke-linecap:butt;stroke-linejoin:miter;stroke-opacity:1;font-family:Bitstream Vera Sans"
       y="229.62221"
       x="82.629433"><tspan
         id="tspan7436"
         y="229.62221"
         x="82.629433">Dinegro</tspan></text>
    <text
       xml:space="preserve"
       id="text7438"
       style="font-size:9px;font-style:normal;font-variant:normal;font-weight:normal;font-stretch:normal;writing-mode:lr-tb;text-anchor:start;fill:#000000;fill-opacity:1;stroke:none;stroke-width:1px;stroke-linecap:butt;stroke-linejoin:miter;stroke-opacity:1;font-family:Bitstream Vera Sans"
       y="199.13188"
       x="93.998695"><tspan
         id="tspan7440"
         y="199.13188"
         x="93.998695">Principe</tspan></text>
    <text
       xml:space="preserve"
       id="text7442"
       style="font-size:9px;font-style:normal;font-variant:normal;font-weight:normal;font-stretch:normal;writing-mode:lr-tb;text-anchor:start;fill:#000000;fill-opacity:1;stroke:none;stroke-width:1px;stroke-linecap:butt;stroke-linejoin:miter;stroke-opacity:1;font-family:Bitstream Vera Sans"
       y="191.38008"
       x="144.12686"><tspan
         id="tspan7444"
         y="191.38008"
         x="144.12686">Darsena</tspan></text>
    <text
       xml:space="preserve"
       id="text7446"
       style="font-size:9px;font-style:normal;font-variant:normal;font-weight:normal;font-stretch:normal;writing-mode:lr-tb;text-anchor:start;fill:#000000;fill-opacity:1;stroke:none;stroke-width:1px;stroke-linecap:butt;stroke-linejoin:miter;stroke-opacity:1;font-family:Bitstream Vera Sans"
       y="204.29973"
       x="174.61719"><tspan
         id="tspan7448"
         y="204.29973"
         x="174.61719">San Giorgio</tspan></text>
    <text
       xml:space="preserve"
       id="text7454"
       style="font-size:9px;font-style:normal;font-variant:normal;font-weight:normal;font-stretch:normal;writing-mode:lr-tb;text-anchor:start;fill:#000000;fill-opacity:1;stroke:none;stroke-width:1px;stroke-linecap:butt;stroke-linejoin:miter;stroke-opacity:1;font-family:Bitstream Vera Sans"
       y="245.64253"
       x="200.97324"><tspan
         id="tspan7456"
         y="245.64253"
         x="200.97324">De Ferrari</tspan></text>
    <text
       xml:space="preserve"
       id="text7458"
       style="font-size:9px;font-style:normal;font-variant:normal;font-weight:normal;font-stretch:normal;writing-mode:lr-tb;text-anchor:start;fill:#000000;fill-opacity:1;stroke:none;stroke-width:1px;stroke-linecap:butt;stroke-linejoin:miter;stroke-opacity:1;font-family:Bitstream Vera Sans"
       y="216.18578"
       x="223.19498"><tspan
         id="tspan7460"
         y="216.18578"
         x="223.19498">Corvetto</tspan></text>
    <text
       xml:space="preserve"
       id="text7462"
       style="font-size:9px;font-style:normal;font-variant:normal;font-weight:normal;font-stretch:normal;writing-mode:lr-tb;text-anchor:start;fill:#000000;fill-opacity:1;stroke:none;stroke-width:1px;stroke-linecap:butt;stroke-linejoin:miter;stroke-opacity:1;font-family:Bitstream Vera Sans"
       y="236.34041"
       x="251.10141"><tspan
         id="tspan7464"
         y="236.34041"
         x="251.10141">Brignole</tspan></text>
    <text
       xml:space="preserve"
       id="text7466"
       style="font-size:9px;font-style:normal;font-variant:normal;font-weight:normal;font-stretch:normal;writing-mode:lr-tb;text-anchor:start;fill:#000000;fill-opacity:1;stroke:none;stroke-width:1px;stroke-linecap:butt;stroke-linejoin:miter;stroke-opacity:1;font-family:Bitstream Vera Sans"
       y="50.814518"
       x="73.327309"><tspan
         id="tspan7468"
         y="50.814518"
         x="73.327309">Canepari</tspan></text>
    <path
       id="path7470"
       style="fill:none;fill-opacity:0.75;fill-rule:evenodd;stroke:#0000ff;stroke-width:4;stroke-linecap:butt;stroke-linejoin:miter;stroke-miterlimit:4;stroke-opacity:1"
       d="M 132.33396,104.04372 L 159.72357,104.04372" />
    <path
       id="path7472"
       style="fill:none;fill-opacity:0.75;fill-rule:evenodd;stroke:#0000ff;stroke-width:4;stroke-linecap:butt;stroke-linejoin:miter;stroke-miterlimit:4;stroke-dasharray:2, 2;stroke-dashoffset:0;stroke-opacity:1"
       d="M 132.33396,124.04372 L 159.72357,124.04372" />
    <path
       id="path8232"
       style="fill:#ffffff;fill-opacity:1;stroke:#000000;stroke-width:1.99979961;stroke-miterlimit:4;stroke-dashoffset:0;stroke-opacity:1"
       d="M 193.63408,104.04243 C 193.63408,107.02548 191.21633,109.44371 188.23387,109.44371 C 185.25142,109.44371 182.83367,107.02548 182.83367,104.04243 C 182.83367,101.05939 185.25142,98.64114 188.23387,98.64114 C 191.21633,98.64114 193.63408,101.05939 193.63408,104.04243 z " />
    <path
       id="path8234"
       style="fill:#ffffff;fill-opacity:1;stroke:#808080;stroke-width:2;stroke-miterlimit:4;stroke-dashoffset:0;stroke-opacity:1"
       d="M 193.63648,126.04243 C 193.63648,129.02548 191.21825,131.44371 188.23519,131.44371 C 185.25215,131.44371 182.83392,129.02548 182.83392,126.04243 C 182.83392,123.05939 185.25215,120.64114 188.23519,120.64114 C 191.21825,120.64114 193.63648,123.05939 193.63648,126.04243 z " />
    <text
       xml:space="preserve"
       id="text8236"
       style="font-size:9px;font-style:normal;font-variant:normal;font-weight:normal;font-stretch:normal;writing-mode:lr-tb;text-anchor:start;fill:#000000;fill-opacity:1;stroke:none;stroke-width:1px;stroke-linecap:butt;stroke-linejoin:miter;stroke-opacity:1;font-family:Bitstream Vera Sans"
       y="107.40128"
       x="205.98581"><tspan
         id="tspan8238"
         y="107.40128"
         x="205.98581">in Betrieb</tspan></text>
    <text
       xml:space="preserve"
       id="text8240"
       style="font-size:9px;font-style:normal;font-variant:normal;font-weight:normal;font-stretch:normal;writing-mode:lr-tb;text-anchor:start;fill:#000000;fill-opacity:1;stroke:none;stroke-width:1px;stroke-linecap:butt;stroke-linejoin:miter;stroke-opacity:1;font-family:Bitstream Vera Sans"
       y="127.40126"
       x="205.98581"><tspan
         id="tspan8242"
         y="127.40126"
         x="205.98581">in Bau</tspan></text>
    <text
       xml:space="preserve"
       id="text8244"
       style="font-size:9px;font-style:normal;font-variant:normal;font-weight:normal;font-stretch:normal;writing-mode:lr-tb;text-anchor:start;fill:#000000;fill-opacity:1;stroke:none;stroke-width:1px;stroke-linecap:butt;stroke-linejoin:miter;stroke-opacity:1;font-family:Bitstream Vera Sans"
       y="87.406281"
       x="128.64069"><tspan
         id="tspan8246"
         y="87.406281"
         x="128.64069">Strecke</tspan></text>
    <text
       xml:space="preserve"
       id="text8248"
       style="font-size:9px;font-style:normal;font-variant:normal;font-weight:normal;font-stretch:normal;writing-mode:lr-tb;text-anchor:start;fill:#000000;fill-opacity:1;stroke:none;stroke-width:1px;stroke-linecap:butt;stroke-linejoin:miter;stroke-opacity:1;font-family:Bitstream Vera Sans"
       y="87.406281"
       x="172.30069"><tspan
         id="tspan8250"
         y="87.406281"
         x="172.30069">Station</tspan></text>
    <text
       xml:space="preserve"
       id="text8252"
       style="font-size:12px;font-style:normal;font-variant:normal;font-weight:normal;font-stretch:normal;writing-mode:lr-tb;text-anchor:middle;fill:#000000;fill-opacity:1;stroke:none;stroke-width:1px;stroke-linecap:butt;stroke-linejoin:miter;stroke-opacity:1;font-family:Bitstream Vera Sans"
       y="13.907717"
       x="145.93372"><tspan
         id="tspan8254"
         y="13.907717"
         x="145.93372">METROPOLITANA GENOVA</tspan><tspan
         id="tspan8256"
         y="25.907717"
         x="145.93372">(U-Bahn-Strecke Genua)</tspan></text>
    <rect
       y="248.90591"
       x="159.7095"
       height="18.527784"
       width="62.870949"
       id="rect2298"
       style="opacity:1;fill:#ffffff;fill-opacity:0.56470591;stroke:none;stroke-width:4;stroke-linecap:square;stroke-linejoin:round;stroke-miterlimit:4;stroke-dasharray:none;stroke-dashoffset:0;stroke-opacity:1" />
    <text
       sodipodi:linespacing="100%"
       id="text2292"
       y="256.09171"
       x="191.0123"
       style="font-size:9px;font-style:normal;font-variant:normal;font-weight:normal;font-stretch:normal;text-align:center;line-height:100%;writing-mode:lr-tb;text-anchor:middle;fill:#000000;fill-opacity:1;stroke:none;stroke-width:1px;stroke-linecap:butt;stroke-linejoin:miter;stroke-opacity:1;font-family:Bitstream Vera Sans"
       xml:space="preserve"><tspan
         y="256.09171"
         x="191.0123"
         id="tspan2294"
         sodipodi:role="line">Sarzano</tspan><tspan
         id="tspan2296"
         y="265.09171"
         x="191.0123"
         sodipodi:role="line">Sant'Agostino</tspan></text>
  </g>
</svg>
